<?xml version="1.0" encoding="UTF-8"?> <svg xmlns="http://www.w3.org/2000/svg" width="211" height="272" viewBox="0 0 211 272" fill="none"><path d="M207.225 230.993C206.473 230.001 207.225 218.629 207.225 218.629C207.225 218.629 205.13 104.366 205.031 103.087C204.931 101.809 204.988 0.828857 204.988 0.828857L0.893677 6.62624L2.26948 68.3954L2.55414 106.266L3.42944 156.253L4.95469 210.766L7.82492 264.055C7.82492 264.055 25.089 264.484 33.7234 264.977C42.3578 265.471 60.9075 266.144 61.325 266.088C61.7425 266.033 105.74 268.989 106.219 269.098C106.698 269.207 140.429 271.102 140.429 271.102C140.429 271.102 148.914 270.886 160.087 270.334C160.632 270.308 161.15 270.253 161.645 270.175L161.674 270.547L166.463 271.356L209.497 263.566C211.49 254.82 207.979 231.986 207.227 230.995L207.225 230.993ZM161.026 251.457C145.544 250.84 120.722 251.945 120.722 251.945C120.722 251.945 12.9913 253.57 12.6426 252.545C12.2939 251.521 12.5169 226.291 12.9368 221.435C13.3566 216.58 13.5108 188.492 13.5108 188.492L13.072 152.756C13.072 152.756 12.5169 114.566 12.3959 105.277C12.275 95.9899 10.382 86.5727 10.197 82.8651C10.012 79.1576 11.0249 77.2504 11.0249 77.2504C11.0249 77.2504 28.1727 75.1867 28.8037 75.3385C29.4346 75.4903 49.2843 73.289 49.7397 73.289C50.1952 73.289 54.2633 73.7634 55.7435 74.0149C57.2213 74.2663 57.3494 74.0006 60.3951 74.0789C63.4433 74.1572 89.7924 74.5012 89.7924 74.5012L182.128 79.8573C182.152 79.8265 182.178 79.7956 182.209 79.7672C182.541 79.4896 182.916 79.4185 183.34 79.4185C183.533 79.4185 183.675 79.4968 183.765 79.613C185.314 79.6344 186.861 79.6913 188.405 79.7909C188.41 79.6937 188.436 79.594 188.481 79.5181C188.547 79.4066 188.689 79.2785 188.822 79.2548C189.387 79.1599 189.944 79.02 190.511 78.9417C190.758 78.9061 191.012 78.8658 191.258 78.937C191.427 78.9844 191.574 79.0959 191.662 79.2501C191.785 79.4683 191.749 79.6984 191.647 79.9119C191.638 79.9332 191.624 79.9498 191.612 79.9688C191.64 79.9641 191.671 79.9617 191.7 79.9617C192.079 79.9641 192.452 80.0423 192.807 80.1681C192.822 80.1681 192.838 80.1704 192.852 80.1704C193.332 80.1942 193.837 80.1538 194.307 80.2582C194.556 80.3128 194.762 80.4337 194.935 80.5974L195.64 80.6378C195.668 80.8228 195.704 81.2853 195.742 81.9946C195.839 82.2318 195.929 82.469 196.017 82.6991C196.555 84.1318 196.589 85.7615 196.558 87.2725C196.529 88.6957 196.392 90.1119 196.285 91.5304C196.358 91.8696 196.42 92.2112 196.472 92.5551C196.845 95.0079 196.812 97.4724 196.736 99.9418C196.757 100.174 196.781 100.404 196.802 100.637C197.196 105.006 197.492 109.39 197.355 113.778C197.35 113.906 197.303 114.015 197.231 114.103C197.267 115.085 197.303 116.067 197.355 117.049C197.364 117.23 197.303 117.365 197.203 117.455C197.898 119.706 198.005 122.128 197.967 124.467C197.957 125.081 197.936 125.693 197.905 126.305C197.971 127.453 198.024 128.604 198.064 129.754C198.266 135.414 198.209 141.079 198.24 146.741C198.401 146.826 198.529 146.985 198.557 147.213C198.854 149.556 199.055 151.909 199.188 154.27C199.205 154.417 199.224 154.566 199.238 154.713C199.293 155.332 199.307 155.947 199.297 156.564C199.352 157.963 199.388 159.365 199.407 160.764C199.456 164.785 199.378 168.808 199.293 172.829C199.207 176.816 199.347 180.794 199.466 184.78C199.587 188.795 199.608 192.802 199.376 196.815C199.345 197.352 199.309 197.89 199.274 198.426C199.542 199.757 199.658 201.118 199.684 202.475C199.734 204.94 199.49 207.397 199.456 209.86C199.445 210.668 199.447 211.494 199.319 212.293C199.278 212.547 199.205 212.822 198.991 212.984C199.464 234.79 199.788 250.446 199.788 250.446L161.021 251.447L161.026 251.457Z" fill="#A59777"></path><path d="M1.47003 32.5176C2.31687 39.1334 48.3354 4.73813 45.7261 4.97534C43.1168 5.21254 107.239 5.44738 106.608 4.97534C105.977 4.50329 58.0609 38.4241 37.8982 53.1311C17.7354 67.838 4.68896 86.3403 3.50291 84.4427C2.31687 82.545 1.47003 30.5156 1.47003 30.5156V32.52V32.5176Z" fill="#5E584C"></path><path d="M208.688 243.607C205.842 251.435 163.284 270.493 163.925 270.927C164.568 271.361 167.651 270.175 172.396 269.226C177.14 268.277 199.931 263.595 201.107 263.564C202.284 263.533 210.007 255.802 210.06 253.857C210.112 251.912 208.688 242.896 208.688 242.896V243.607Z" fill="#5E584C"></path><path d="M55.2689 20.4509H43.0029L42.991 32.7289L46.1933 33.7963L39.7887 49.8103C39.7887 49.8103 34.4515 34.8637 35.5189 34.8637C36.5864 34.8637 39.7887 33.7963 39.7887 33.7963L38.7213 22.0521C38.7213 22.0521 26.9771 20.9846 26.9771 22.0521V34.8637C26.9771 33.7963 29.1119 33.7963 30.1794 34.8637C31.2468 35.9312 26.9771 50.8777 26.9771 50.8777L22.7073 33.7963H24.8422C24.8422 33.7963 25.9096 20.9846 24.8422 20.9846C23.7747 20.9846 11.4968 20.4509 11.4968 20.4509C10.4294 21.5184 11.4968 34.4202 11.4968 34.3751C11.4968 34.33 16.2102 33.3527 15.9872 34.3751C15.7642 35.3975 24.3061 68.4928 24.3061 68.4928L29.6433 69.5603L33.913 50.344L39.2502 67.4254H45.6549C45.6549 67.4254 49.9246 33.2626 50.9921 34.33C52.0595 35.3975 55.2618 33.2626 55.2618 33.2626C55.2618 33.2626 56.3293 20.4509 55.2618 20.4509H55.2689Z" fill="black"></path><path d="M73.7334 32.7005C74.5399 33.2603 76.6203 33.2603 76.6203 33.2603L75.5528 21.5161L60.6063 22.5836C60.6063 23.651 61.6737 33.2603 61.6737 33.2603H65.0539L57.404 53.544L53.1342 54.6115C53.1342 54.6115 52.0668 65.7769 53.1342 65.5326C54.2016 65.2883 67.0133 64.2208 67.0133 64.2208C67.0133 64.2208 65.9459 52.4766 65.9459 53.544C65.9459 54.6115 62.7435 53.544 62.7435 53.544C62.7435 53.544 63.811 48.2068 64.8784 48.2068H68.1306C68.956 48.8188 70.2631 49.2743 72.3505 49.2743H73.4179L74.4854 53.544H72.3505C72.3505 53.544 71.8073 65.784 72.0777 65.5349C72.3481 65.2859 82.5718 65.5397 82.5718 65.5397L83.0249 52.4766L80.89 51.4092C80.89 51.4092 75.1519 35.834 73.7334 32.7005ZM69.4494 42.8791L67.0133 41.8022L69.1482 36.465L70.2156 42.2648L69.4494 42.8791Z" fill="black"></path><path d="M85.1621 35.3972C85.1621 35.3972 85.1455 35.2098 85.1146 34.8801L84.6284 34.7947L85.1621 35.3972Z" fill="black"></path><path d="M99.0411 35.3972L102.53 36.4646C102.53 36.4646 101.71 47.6751 101.71 46.6077C101.71 45.5402 94.2377 23.1216 94.2377 23.1216H84.6307L84.097 22.5879C84.097 23.5201 84.913 32.6052 85.117 34.8824L88.0868 35.3995L88.3667 55.6833H85.3186L85.1644 66.36H95.1106C95.1106 66.36 95.317 54.9076 95.2458 50.5667C95.9859 55.1045 99.2024 67.4275 100.111 67.4275H106.966V36.467L109.72 35.3995V23.4015L99.0435 23.6553V35.3995L99.0411 35.3972Z" fill="black"></path><path d="M111.85 23.6531V39.6718L116.12 40.7345C116.12 40.7345 116.12 35.3973 118.255 35.3973H120.39L121.457 56.7485L117.188 55.6811C117.188 55.6811 115.053 68.284 116.654 68.3883C118.255 68.4927 129.722 67.4253 129.722 67.4253V55.6028L124.66 55.6811L125.831 36.4648H128.967L129.722 41.5648L135.5 39.6718C135.5 39.6718 135.666 22.5857 135.5 22.5857C135.334 22.5857 111.848 23.6531 111.848 23.6531H111.85Z" fill="black"></path><path d="M159.892 50.3417C158.825 50.3417 155.623 49.2743 155.623 49.2743L154.555 54.6115L147.083 53.544C147.083 53.544 146.016 48.2068 147.083 48.2068H152.42L152.805 43.5291H146.808L147.081 35.3952L154.453 36.4626L154.553 40.7324H158.823C158.823 40.7324 160.476 21.5161 159.117 21.5161C157.757 21.5161 137.583 22.5836 137.583 22.5836C137.474 24.7184 137.583 35.445 137.583 35.445H140.147L140.676 54.6091L137.474 55.6765V68.3909L159.162 67.4208C159.162 67.4208 160.96 50.3393 159.892 50.3393V50.3417Z" fill="black"></path><path d="M180.176 24.7208C175.906 23.6533 168.432 25.7882 168.432 25.7882C168.432 25.7882 168.463 25.9044 168.515 26.1061L163.095 25.7882V39.1786L166.031 39.6697V54.8581C166.031 54.8581 163.095 54.0374 163.095 54.8581C163.095 55.6789 162.027 68.4905 163.095 69.558C164.162 70.6254 176.974 72.7603 180.176 70.6254C183.378 68.4905 186.581 65.2882 187.648 50.3417C188.716 35.3952 184.446 25.7882 180.176 24.7208ZM176.438 56.215C173.235 57.2824 173.235 56.215 173.235 55.1475V39.1336C174.303 38.0661 177.505 35.9312 179.64 42.3359C181.775 48.7405 179.64 55.1475 176.438 56.215Z" fill="black"></path><path d="M10.3061 77.822C11.7293 77.5872 13.1763 77.7177 14.609 77.5896C16.2054 77.4449 17.7995 77.229 19.3912 77.025C22.4749 76.6313 25.5562 76.1972 28.6447 75.8342C31.5457 75.495 34.4539 75.2128 37.3692 75.0277C40.1564 74.8475 42.8819 74.7146 45.6431 74.271C47.0165 74.0504 48.3947 73.8298 49.7847 73.78C51.3218 73.7231 52.719 74.0647 54.2205 74.3019C56.965 74.736 59.7356 74.6031 62.4967 74.4537C68.6808 74.1168 74.8648 74.1809 81.0488 74.4727C87.0953 74.7573 93.1323 75.2246 99.174 75.6113C105.237 76.0003 111.302 76.1379 117.37 76.4154C129.693 76.9776 141.964 78.2822 154.275 79.0223C161.121 79.4327 167.953 79.4778 174.808 79.594C181.751 79.7102 188.687 80.0803 195.618 80.4764C195.466 80.3602 195.312 80.244 195.16 80.1277C195.633 83.1759 195.856 86.2643 196.076 89.3385C196.413 94.0329 196.65 98.7368 196.859 103.438C197.416 116.022 197.753 128.618 198.04 141.211C198.365 155.534 198.6 169.861 198.79 184.186C198.961 197.157 199.093 210.128 199.188 223.098C199.252 231.626 199.307 240.156 199.319 248.684C199.319 249.274 199.319 249.867 199.319 250.458C199.319 251.049 200.268 251.07 200.268 250.458C200.268 242.635 200.218 234.812 200.163 226.988C200.078 214.345 199.957 201.702 199.798 189.059C199.62 174.696 199.397 160.333 199.091 145.97C198.814 132.968 198.486 119.967 197.955 106.973C197.611 98.5446 197.357 90.043 196.32 81.6648C196.247 81.0671 196.166 80.4693 196.074 79.8739C196.041 79.6628 195.808 79.5371 195.616 79.5252C189.43 79.1718 183.241 78.8397 177.045 78.6879C170.82 78.5384 164.601 78.5953 158.377 78.2941C146.056 77.6963 133.783 76.3893 121.469 75.6777C115.397 75.3266 109.315 75.246 103.244 74.9068C97.0747 74.5604 90.9167 74.0718 84.7469 73.716C78.6981 73.3673 72.6351 73.1514 66.5744 73.3269C63.5547 73.4147 60.5327 73.7231 57.5106 73.6472C54.676 73.5736 51.9765 72.6651 49.1324 72.8691C46.1625 73.0802 43.271 73.799 40.2893 73.9247C36.8829 74.067 33.4837 74.3517 30.0964 74.7241C26.6426 75.1036 23.2031 75.5875 19.7565 76.0335C18.0438 76.2541 16.3264 76.4913 14.6043 76.6455C13.0861 76.7831 11.5585 76.6645 10.0499 76.9135C9.44974 77.0132 9.70356 77.9264 10.3013 77.8292L10.3061 77.822Z" fill="black"></path><path d="M10.3274 77.7252C9.81269 78.5388 9.76763 79.6489 9.72256 80.5812C9.64902 82.1396 9.73916 83.7052 9.85777 85.2589C10.14 89.0116 10.65 92.7429 11.1506 96.4718C11.3498 97.9543 11.5586 99.4369 11.727 100.922C11.9215 102.625 11.9073 104.331 11.9333 106.043C12.0401 112.806 12.1563 119.569 12.2607 126.334C12.4671 139.826 12.6023 153.319 12.792 166.811C12.9794 180.204 13.1834 193.609 12.9486 207.004C12.7138 220.378 11.6511 233.728 11.6368 247.106C11.6368 248.755 11.6511 250.406 11.6843 252.055C11.6961 252.664 12.645 252.667 12.6331 252.055C12.3698 238.792 13.3495 225.554 13.767 212.303C14.1868 198.991 13.9876 185.653 13.8168 172.336C13.6436 158.91 13.4871 145.484 13.2949 132.058C13.2 125.35 13.0886 118.641 12.9794 111.933C12.9106 107.742 13.0245 103.541 12.4884 99.3752C12.0306 95.8171 11.5135 92.2684 11.1292 88.7032C10.9371 86.9123 10.7686 85.1142 10.6904 83.3138C10.6334 81.9878 10.5718 80.6073 10.7971 79.2931C10.8612 78.9183 10.9418 78.5293 11.1482 78.2043C11.4755 77.6872 10.6548 77.2104 10.3298 77.7252H10.3274Z" fill="black"></path><path d="M12.5168 253.001C13.6649 253.319 14.8415 253.304 16.0228 253.245C17.4769 253.172 18.9167 253.153 20.3732 253.155C23.4379 253.164 26.505 253.172 29.5698 253.122C35.6376 253.022 41.6982 252.65 47.7637 252.488C53.8481 252.325 59.9396 252.28 66.024 252.477C67.6323 252.529 69.2358 252.6 70.8441 252.624C79.5307 252.756 88.2244 252.652 96.911 252.593C109.979 252.5 123.044 252.365 136.112 252.223C148.888 252.083 161.667 251.933 174.443 251.789C182.467 251.698 190.492 251.582 198.517 251.556C198.942 251.556 199.369 251.556 199.793 251.556C200.403 251.556 200.405 250.61 199.793 250.607C192.672 250.593 185.549 250.716 178.428 250.797C165.991 250.935 153.554 251.084 141.12 251.222C127.895 251.369 114.673 251.509 101.449 251.613C91.9509 251.687 82.4483 251.784 72.9481 251.703C67.656 251.658 62.3734 251.392 57.0789 251.402C44.9575 251.423 32.8646 252.246 20.7409 252.213C19.3793 252.208 18.0177 252.187 16.6585 252.265C15.3562 252.339 14.0421 252.443 12.7706 252.092C12.1824 251.929 11.9285 252.844 12.5192 253.008L12.5168 253.001Z" fill="black"></path><path d="M209.986 264C208.539 264.349 207.064 264.228 205.595 264.403C203.93 264.602 202.27 264.958 200.623 265.274C197.4 265.893 194.19 266.576 190.964 267.174C187.513 267.814 184.043 268.36 180.553 268.732C177.662 269.041 174.858 269.216 172.023 269.897C168.999 270.623 166.242 271.216 163.18 270.397C160.186 269.6 157.11 269.721 154.052 269.997C147.287 270.601 140.55 270.746 133.761 270.454C127.074 270.165 120.407 269.574 113.734 269.095C107.045 268.614 100.36 268.497 93.6613 268.206C80.2305 267.62 66.8828 265.902 53.4733 265.008C45.8779 264.503 38.3252 264.543 30.7203 264.508C23.0798 264.472 15.4512 264.045 7.82727 263.578C7.9862 263.737 8.14276 263.893 8.30169 264.052C7.74425 259.462 7.45248 254.834 7.16783 250.22C6.73848 243.228 6.41587 236.228 6.12411 229.227C5.75406 220.363 5.44569 211.496 5.16579 202.629C4.84556 192.562 4.56565 182.495 4.30472 172.425C4.02718 161.647 3.77574 150.866 3.54091 140.084C3.3037 129.225 3.08547 118.368 2.88147 107.509C2.68696 97.2066 2.50667 86.9022 2.33588 76.6003C2.1817 67.342 2.037 58.0837 1.90179 48.8231C1.79031 41.2467 1.68593 33.6702 1.58868 26.0938C1.52226 20.8064 1.45584 15.5214 1.40365 10.234C1.39416 9.34209 1.38468 8.45255 1.37756 7.56065C1.37282 6.95102 0.423984 6.94865 0.428729 7.56065C0.471426 12.2313 0.525985 16.9043 0.585287 21.5749C0.670682 28.62 0.765564 35.6651 0.865192 42.7102C0.990913 51.6103 1.12612 60.5104 1.26844 69.4105C1.42974 79.499 1.60291 89.5898 1.78556 99.6783C1.98245 110.467 2.19119 121.255 2.41654 132.043C2.64426 142.898 2.88858 153.75 3.15426 164.605C3.40807 174.89 3.68086 185.175 3.98923 195.458C4.26676 204.686 4.56802 213.916 4.9262 223.141C5.21797 230.674 5.5382 238.208 5.95332 245.735C6.24034 250.968 6.54871 256.205 7.06108 261.421C7.14648 262.297 7.24137 263.172 7.34574 264.045C7.37895 264.313 7.53788 264.503 7.82015 264.519C14.6613 264.939 21.5095 265.326 28.3624 265.426C35.1893 265.525 41.9996 265.328 48.8264 265.675C62.3402 266.36 75.771 268.104 89.2753 268.917C96.0523 269.325 102.839 269.332 109.616 269.757C116.296 270.174 122.964 270.789 129.646 271.183C136.328 271.576 143.034 271.754 149.718 271.304C153.016 271.083 156.334 270.533 159.646 270.763C161.233 270.874 162.668 271.344 164.21 271.648C165.509 271.901 166.835 271.849 168.142 271.669C171.399 271.218 174.478 270.198 177.773 269.933C181.35 269.645 184.911 269.169 188.448 268.571C192.184 267.94 195.889 267.155 199.603 266.427C201.447 266.064 203.297 265.686 205.156 265.409C206.845 265.158 208.565 265.307 210.233 264.906C210.826 264.764 210.574 263.848 209.981 263.99L209.986 264Z" fill="black"></path><path d="M209.903 263.803C210.463 262.544 210.482 261.038 210.517 259.683C210.581 257.283 210.456 254.877 210.302 252.484C209.936 246.798 209.319 241.129 208.712 235.462C208.195 230.637 207.849 225.926 207.749 221.073C207.538 210.894 207.317 200.718 207.111 190.539C206.698 170.322 206.366 150.102 205.975 129.885C205.583 109.639 205.168 89.3862 205.244 69.1356C205.32 49.0891 206.286 29.0545 206.117 9.00559C206.096 6.52201 206.055 4.04081 205.999 1.55723C205.984 0.947604 205.035 0.945232 205.05 1.55723C205.519 21.5112 204.637 41.4605 204.367 61.4098C204.094 81.4586 204.495 101.522 204.869 121.568C205.244 141.686 205.598 161.804 205.994 181.921C206.191 192.017 206.407 202.11 206.618 212.206C206.751 218.534 206.672 224.877 207.315 231.18C207.863 236.541 208.48 241.895 208.952 247.263C209.365 251.952 209.965 256.87 209.459 261.576C209.398 262.155 209.327 262.788 209.087 263.327C208.847 263.865 209.659 264.363 209.905 263.806L209.903 263.803Z" fill="black"></path><path d="M205.113 0.371135C203.946 -0.0558406 202.725 -0.0416062 201.501 0.0580215C199.98 0.183742 198.486 0.266765 196.956 0.288114C193.611 0.333184 190.267 0.375881 186.924 0.506346C180.356 0.757787 173.809 1.42671 167.248 1.79439C160.691 2.16206 154.121 2.36369 147.552 2.21425C145.567 2.16918 143.584 2.07192 141.596 2.06481C132.158 2.02685 122.712 2.34946 113.278 2.60802C99.0384 2.99704 84.8012 3.45011 70.5639 3.91503C56.5543 4.37285 42.5448 4.84727 28.5376 5.31219C19.787 5.60159 11.0363 5.93131 2.2857 6.12345C1.82315 6.13294 1.35822 6.14242 0.893291 6.14954C0.283664 6.15903 0.281292 7.10786 0.893291 7.09838C8.66188 6.98452 16.4305 6.65954 24.1943 6.40336C37.8314 5.95503 51.4686 5.4901 65.1057 5.04178C79.5849 4.56499 94.0642 4.09769 108.543 3.68732C118.8 3.39555 129.062 3.07532 139.321 3.01602C145.285 2.98281 151.236 3.28643 157.202 3.15122C163.773 3.00178 170.336 2.58904 176.89 2.10276C183.449 1.61411 189.98 1.33183 196.555 1.24169C197.99 1.22271 199.411 1.20374 200.841 1.06853C202.196 0.938065 203.557 0.809973 204.86 1.28439C205.434 1.49313 205.683 0.577508 205.111 0.368764L205.113 0.371135Z" fill="black"></path></svg> 