<?xml version="1.0" encoding="UTF-8"?> <svg xmlns="http://www.w3.org/2000/svg" width="386" height="598" viewBox="0 0 386 598" fill="none"><path d="M2.59807 5.4238L0.599429 248.287L0.433105 394.95C0.433105 394.95 0.607745 538.572 0.909897 553.26C1.21205 567.948 1.14275 586.566 1.14275 586.566L2.62579 587.786L6.26826 594.97L102.195 587.786L197.642 585.201L340.044 580.863L384.297 577.174L384.32 399.868C384.32 399.868 385.423 202.82 385.559 192.228C385.695 181.636 384.059 43.5031 384.059 43.5031C384.059 43.5031 384.929 16.3548 381.293 7.49574C377.656 -1.36328 374.044 1.74465 372.247 2.61603C370.448 3.48741 363.474 8.10571 363.474 8.10571L236.195 5.92727H61.4402L3.37979 4.75574L2.60084 5.4238H2.59807Z" fill="#AAAAAA"></path><path d="M23.007 28.5527C24.6928 16.8622 25.9386 12.0174 25.4546 11.9879C24.9678 11.9585 17.9798 11.9879 17.9798 11.9879C15.0234 38.3504 8.92371 44.1073 5.63184 46.6279C5.86559 51.8846 5.94535 57.2199 5.90959 62.5846C11.9736 46.1767 18.6178 40.0961 23.007 57.6907C27.9929 77.6782 21.3212 40.2432 23.007 28.5625V28.5527Z" fill="#918B80"></path><path d="M12.4962 24.4579C12.4962 24.4579 12.4936 24.4184 12.491 24.4086C12.4341 23.8961 12.3772 23.3835 12.3202 22.8808C12.3202 22.871 12.3202 22.8611 12.3176 22.8513C12.2478 22.3486 12.1495 21.8952 12.0434 21.4911C11.9373 21.087 11.8183 20.7321 11.689 20.4463C11.4458 19.9042 11.1095 19.5099 10.8249 19.5493C10.8197 19.5493 10.8171 19.5493 10.8119 19.5493L10.3644 19.776C10.3644 19.776 10.3592 19.776 10.3566 19.776C10.2868 19.845 10.1186 20.1604 10.1471 20.1112C10.1289 20.1407 9.99442 20.3181 9.92974 20.466C9.73312 20.8701 9.5753 21.4221 9.45888 22.112C9.31142 22.733 9.21052 23.4525 9.15878 24.2903C9.10445 24.9408 9.08634 25.6012 9.10445 26.2518C9.09151 26.9713 9.10445 27.6908 9.15619 28.4202C9.21311 28.9327 9.27002 29.4453 9.32694 29.948C9.47699 30.9139 9.67879 31.6728 9.92974 32.2445C10.1678 32.8162 10.5429 33.2203 10.8249 33.171C10.9749 33.0922 11.1224 33.0232 11.2725 32.9443C11.2725 32.9443 11.2776 32.9443 11.2802 32.9443C11.4225 32.8162 11.5648 32.5895 11.6864 32.2938C11.7537 32.1361 11.733 32.1657 11.8649 31.7714C11.7951 31.9784 11.9917 31.4363 12.0408 31.249C12.0408 31.249 12.0434 31.2293 12.046 31.2293C12.134 30.7956 12.2219 30.3619 12.3099 29.9282C12.3099 29.9184 12.3151 29.8987 12.3176 29.8888C12.4004 29.396 12.4548 28.8342 12.4962 28.2723C12.5427 27.6612 12.5634 27.0009 12.5634 26.3602C12.5634 25.7195 12.5376 25.069 12.4962 24.448V24.4579Z" fill="#918B80"></path><path d="M10.8915 556.758C10.1532 552.534 8.56706 551.282 7.39815 554.034C6.22389 556.796 5.66752 562.424 6.38438 566.992C7.02367 571.073 8.34237 573.089 9.60758 571.933C10.3271 571.273 10.8701 568.703 10.8915 566.065C11.4104 563.437 11.365 559.462 10.8915 556.758Z" fill="#918B80"></path><path d="M21.6541 569.777C13.9324 551.249 13.1107 514.551 10.8032 485.863C10.2657 479.177 7.61493 480.627 7.24348 486.096C6.28671 480.88 3.46143 484.306 3.95669 491.458C6.30641 525.567 9.58756 565.466 19.8053 580.696C21.9411 583.878 23.6239 574.507 21.6513 569.768L21.6541 569.777Z" fill="#918B80"></path><path d="M9.96391 89.8258C9.9892 82.9386 6.89708 82.9386 6.87178 89.8258C6.58786 167.637 6.46418 245.458 6.50634 323.289C6.50915 330.176 9.60128 330.186 9.59847 323.289C9.55631 245.468 9.67999 167.647 9.96391 89.8258Z" fill="#918B80"></path><path d="M9.9524 430.848C9.3339 411.624 8.89602 392.342 8.64424 373.011C8.55393 366.121 5.54352 366.082 5.63383 373.011C5.88561 392.342 6.32349 411.624 6.94199 430.848C7.16093 437.64 10.1741 437.718 9.9524 430.848Z" fill="#918B80"></path><path d="M46.1495 15.1226C42.1121 17.8274 38.0747 20.5229 34.0402 23.2276C32.0877 24.5337 32.9132 34.3615 34.8629 33.0555C38.9002 30.3507 42.9376 27.6552 46.9722 24.9505C48.9246 23.6444 48.0991 13.8166 46.1495 15.1226Z" fill="#918B80"></path><path d="M380.42 47.627C380.268 48.2386 380.119 48.8599 379.97 49.4812C379.851 47.9474 379.522 46.6563 378.925 46.2194C374.996 43.346 371.466 36.0264 368.964 25.0666C369.259 21.3777 368.485 16.7374 367.18 18.3683C363.014 23.591 358.812 28.406 354.574 32.8326C352.992 34.4829 353.208 43.8022 354.977 43.3168C357.504 42.6276 360.042 42.1519 362.577 42.1228C364.416 42.1034 366.348 42.3267 368.079 44.7633C370.086 47.5979 371.062 53.5778 371.753 60.4605C372.607 69.0032 373.102 77.8371 373.252 86.8651C373.332 91.7578 375.372 94.6409 376.085 89.5639C377.83 77.1478 379.983 65.6152 382.574 55.1698C383.854 50.0054 381.711 42.4237 380.423 47.6173L380.42 47.627ZM376.472 56.1503C376.528 55.9464 376.442 55.4416 376.315 54.8592C376.467 55.0242 376.619 55.1795 376.771 55.3349C376.666 55.5581 376.566 55.8105 376.472 56.1503Z" fill="#918B80"></path><path d="M378.58 21.7395C378.403 20.04 377.999 18.5705 377.553 18.2006C376.684 17.4708 376.035 19.1803 375.715 22.0395C375.402 24.8287 375.256 27.6878 375.174 30.687C375.098 33.4462 375.921 36.4653 376.668 36.1854C377.985 35.6955 379.02 32.9263 379.435 28.2177C379.677 25.4885 379.226 22.8092 378.58 21.7395Z" fill="#918B80"></path><path d="M344.681 31.7862C341.199 34.3057 337.72 36.8252 334.238 39.3447C332.328 40.7314 333.136 51.0828 335.043 49.7059C338.525 47.1864 342.004 44.6669 345.485 42.1474C347.396 40.7607 346.588 30.4093 344.681 31.7862Z" fill="#918B80"></path><path d="M373.917 112.681C371.233 124.94 368.952 138.113 367.097 152.113C366.265 158.389 368.935 163.899 369.775 157.573C371.633 143.573 373.911 130.4 376.595 118.142C377.808 112.613 375.115 107.211 373.917 112.681Z" fill="#918B80"></path><path d="M373.432 537.595C373.329 537.396 373.225 537.226 373.121 537.065C372.838 535.864 372.482 534.852 372.056 534.123C370.831 532.033 369.129 532.478 368.238 536.309C367.725 538.522 367.599 541.511 368.238 543.668C368.375 544.131 368.555 544.5 368.751 544.765C368.644 546.203 368.616 547.745 368.689 549.334C368.913 554.149 370.189 558.472 371.7 556.713C371.731 556.675 371.759 556.627 371.787 556.59C371.958 556.788 372.14 556.911 372.333 556.949C373.774 557.261 374.994 553.354 375.151 548.596C375.296 544.16 374.568 539.809 373.432 537.586V537.595Z" fill="#918B80"></path><path d="M372.538 425.921C372.532 426.134 372.526 426.337 372.521 426.55C371.743 426.704 370.976 428.571 371.031 431.744C371.234 443.253 371.326 454.782 371.312 466.302C370.984 460.257 368.21 460.363 368.282 467.017C368.31 469.474 368.324 471.931 368.333 474.387C368.313 476.902 368.249 479.417 368.135 481.932C368.071 483.305 368.149 484.514 368.308 485.52C368.269 490.337 368.194 495.153 368.085 499.97C368.035 500.096 367.985 500.241 367.938 500.396C367.171 502.872 366.401 505.338 365.628 507.795C365.57 507.572 365.514 507.35 365.459 507.127C363.758 492.764 361.662 479.04 359.153 466.157C358.21 461.321 355.882 464.193 356.36 470.258C357.602 486.033 359.82 500.483 362.855 512.892C362.91 513.375 362.96 513.859 363.016 514.343C362.963 514.971 362.941 515.629 362.949 516.287C361.39 521.19 359.822 526.065 358.247 530.901C357.655 532.478 357.068 534.054 356.473 535.611C356.284 536.105 356.143 536.675 356.04 537.285C353.817 535.573 351.646 533.222 349.561 530.011C347.777 527.274 346.221 536.433 348.019 539.2C349.75 541.86 351.51 544.103 353.319 545.873C352.966 546.937 352.616 548.001 352.263 549.056C352.127 549.462 352.027 549.955 351.957 550.477C350.923 550.942 349.887 551.396 348.853 551.841C343.531 552.373 338.211 552.915 332.889 553.447C330.927 553.64 330.918 564.289 332.889 564.086C333.181 564.057 333.472 564.028 333.764 563.999C333.884 566.185 334.359 567.964 335.196 567.684C339.759 566.165 344.314 564.424 348.861 562.48L356.657 561.697C357.271 561.639 357.808 560.14 358.058 558.263C358.911 557.847 359.764 557.422 360.617 556.996C361.098 556.754 361.596 554.897 361.685 553.282C362.702 535.108 366.954 521.345 372.21 518.83C372.607 518.637 372.888 518.057 373.066 517.254C373.082 517.254 373.096 517.254 373.113 517.254C375.342 517.07 375.458 509.458 375.336 503.52C375.158 495.018 375.05 486.487 375.008 477.966C374.925 460.585 375.128 443.224 375.595 425.921C375.778 419.112 372.721 419.151 372.538 425.921ZM358.955 547.16C358.636 547.324 358.319 547.469 357.999 547.624C358.43 546.212 358.864 544.8 359.297 543.397C359.169 544.635 359.053 545.883 358.955 547.15V547.16ZM371.395 508.568C371.251 508.636 371.109 508.713 370.964 508.801C371.573 506.789 371.49 504.322 371.076 502.562C371.109 501.285 371.14 500.018 371.167 498.742C371.228 499.177 371.309 499.564 371.404 499.893C371.417 502.775 371.451 505.657 371.506 508.53C371.47 508.539 371.434 508.549 371.395 508.568Z" fill="#918B80"></path><path d="M117.665 558.296C101.171 557.899 84.6803 557.511 68.1868 557.113C66.2269 557.064 66.2241 567.995 68.1868 568.045C84.6803 568.442 101.171 568.83 117.665 569.227C119.625 569.277 119.627 558.346 117.665 558.296Z" fill="#918B80"></path><path d="M166.192 563.392C161.956 562.842 157.728 563.316 153.511 564.823C151.588 565.506 151.566 575.944 153.511 575.252C157.728 573.754 161.956 573.28 166.192 573.82C168.146 574.076 168.143 563.648 166.192 563.392Z" fill="#918B80"></path><path d="M295.286 561.073C280.672 562.359 266.049 562.047 251.438 560.146C249.477 559.891 249.48 570.294 251.438 570.549C266.047 572.46 280.669 572.762 295.286 571.476C297.244 571.306 297.249 560.903 295.286 561.073Z" fill="#918B80"></path><path d="M329.083 23.2128C325 21.7044 320.86 21.7356 316.758 21.1947L304.299 19.551C302.328 19.2909 302.33 30.7342 304.299 30.9942L316.758 32.6379C320.857 33.1789 324.998 33.1476 329.083 34.6561C331.043 35.3843 331.029 23.9306 329.083 23.2128Z" fill="#918B80"></path><path d="M170.948 23.9085C151.932 25.1357 132.911 24.863 113.898 23.0169C108.48 22.4924 103.061 21.8421 97.6457 21.0659C95.6834 20.7827 95.6862 32.3207 97.6457 32.6039C116.65 35.3101 135.671 36.5059 154.69 36.1388C160.111 36.0339 165.532 35.8031 170.95 35.4465C172.91 35.3206 172.915 23.7826 170.95 23.9085H170.948Z" fill="#918B80"></path><path d="M241.135 36.9379C232.453 35.0839 223.754 34.3763 215.052 34.8152C213.089 34.9137 213.084 44.7661 215.052 44.6675C223.754 44.2287 232.453 44.9362 241.135 46.7903C243.098 47.2112 243.089 37.3589 241.135 36.9379Z" fill="#918B80"></path><path d="M3.77541 27.037C3.52589 19.5656 3.10172 12.1813 3.02409 4.65175C3.00468 2.77177 2.22286 2.79115 2.19237 4.65175C0.986372 80.6455 0.448526 156.746 0.210099 232.836C-0.0283276 308.694 0.0271202 384.553 0.0104857 460.411C0.00494093 481.459 -0.0477347 502.497 0.149106 523.535C0.348719 544.68 0.67309 565.815 0.709132 586.97C0.711904 588.84 1.54363 588.84 1.54085 586.97C1.50758 568.083 1.24698 549.215 1.05014 530.338C0.853296 511.635 0.83389 492.952 0.839435 474.239C0.853297 436.145 0.839435 398.042 0.853297 359.948C0.878248 284.09 0.991917 208.222 1.56303 132.384C1.88463 89.7837 2.35039 47.1935 3.02686 4.64206H2.19514C2.27277 12.1717 2.69694 19.5559 2.94646 27.0273C3.00745 28.8589 3.83918 28.8879 3.77818 27.0273L3.77541 27.037Z" fill="black"></path><path d="M2.60826 7.10325C6.9942 5.58182 11.3968 6.25047 15.791 6.78346C20.2851 7.32613 24.7764 7.26799 29.2732 7.28737C38.7133 7.31644 48.1533 7.29706 57.5906 7.28737C76.4013 7.27768 95.2093 7.28737 114.02 7.28737C151.844 7.28737 189.668 7.28738 227.492 7.27769C265.427 7.27769 303.361 7.268 341.296 7.27769C346.007 7.27769 350.72 7.27768 355.43 7.28737C359.597 7.28737 363.936 8.56653 368.072 6.54119C372.452 4.39957 377.132 -1.32758 381.111 8.64405C382.624 12.4331 383.015 16.8617 383.173 23.0734C383.351 29.9246 383.531 36.7856 383.675 43.6562C384.363 76.4105 384.354 109.339 384.806 142.142C385.258 174.945 385.236 208.145 385.023 241.141C384.626 302.347 383.764 363.456 383.678 424.691C383.617 467.63 383.362 510.588 383.606 553.527C383.65 561.454 383.714 569.372 383.85 577.289C383.883 579.149 384.715 579.159 384.682 577.289C383.952 535.096 384.352 492.544 384.454 450.303C384.59 394.175 384.962 338.163 385.51 282.064C385.832 249.078 386.084 216.062 385.973 183.046C385.863 149.681 385.267 116.355 385.009 83.0001C384.878 66.371 384.698 49.7516 384.252 33.1904C384.024 24.7692 384.282 14.7782 382.369 8.47931C379.941 0.484564 376.558 -0.910872 373.392 0.465194C371.36 1.34704 369.372 3.17856 367.337 3.97319C365.009 4.8841 362.622 4.43834 360.282 4.41896C321.851 4.03134 283.417 4.36082 244.986 4.37051C206.671 4.37051 168.359 4.38019 130.045 4.38019C110.707 4.38019 91.3695 4.38019 72.032 4.38019C62.5587 4.38019 53.0882 4.38019 43.6149 4.38019C34.344 4.38019 25.0509 4.9907 15.7855 3.86659C11.3912 3.33361 6.98589 2.66496 2.60272 4.18638C2.07596 4.3705 2.07041 7.27769 2.60272 7.09356L2.60826 7.10325Z" fill="black"></path><path d="M383.259 562.123C383.606 566.067 383.62 570.147 383.925 574.033C383.933 574.149 384.077 576.775 384.166 576.223C384.119 576.513 384.183 576.019 384.075 576.261C383.953 576.543 383.6 576.397 383.459 576.436C382.733 576.601 382.006 576.688 381.28 576.785C378.688 577.114 376.093 577.298 373.498 577.492C364.199 578.161 354.898 578.578 345.596 578.985C331.992 579.585 318.391 580.089 304.787 580.574C288.255 581.165 271.726 581.717 255.194 582.26C237.109 582.861 219.028 583.442 200.943 584.053C182.745 584.663 164.547 585.274 146.349 585.933C129.279 586.553 112.21 587.193 95.1429 587.919C80.6432 588.53 66.1408 589.198 51.6411 590.003C41.1115 590.594 30.5819 591.214 20.0551 592.183C14.8208 592.658 9.48945 592.464 4.28011 594.47C3.9391 594.606 3.53987 594.606 3.21828 595.081C2.73033 595.788 2.94658 598.608 3.44007 597.881C4.30506 596.621 5.69958 596.951 6.72814 596.747C9.40905 596.214 12.0955 595.904 14.782 595.614C24.1887 594.577 33.6011 593.986 43.0134 593.414C56.6591 592.58 70.3049 591.922 83.9535 591.311C100.474 590.575 116.995 589.925 133.518 589.305C151.489 588.636 169.463 588.016 187.433 587.406C205.687 586.785 223.94 586.194 242.194 585.594C259.119 585.041 276.048 584.479 292.973 583.888C307.398 583.384 321.826 582.871 336.251 582.279C346.752 581.853 357.254 581.398 367.753 580.768C372.952 580.458 378.189 580.564 383.379 579.353C383.731 579.275 384.102 579.266 384.446 578.975C384.626 578.829 384.745 578.2 384.751 577.57C384.804 571.901 384.543 566.755 384.066 561.338C383.908 559.555 383.107 560.32 383.265 562.113L383.259 562.123Z" fill="black"></path><path d="M10.3985 28.2094C10.465 30.0506 10.3846 31.8918 10.4678 33.733C10.4955 34.3532 10.7006 34.799 10.8698 34.799C11.4187 34.8183 11.9621 34.2951 12.3779 33.0062C12.7245 31.9306 12.9075 30.3994 12.9602 28.8199C13.0489 26.1259 12.6219 22.7535 11.7819 22.2884C11.1498 21.9395 10.5925 23.0637 10.1406 24.5076C9.97982 25.0212 9.97982 26.0484 10.1406 26.562C10.3125 27.1143 10.5565 27.1143 10.7284 26.562C10.7783 26.4069 10.8282 26.2519 10.8781 26.1065C10.8892 26.0677 10.903 26.0387 10.9141 25.9999C10.9113 26.0096 10.8309 26.2131 10.8836 26.0774C10.9086 26.0193 10.9308 25.9514 10.9557 25.8933C11.0444 25.6801 11.1387 25.496 11.2357 25.3312C11.3244 25.1859 11.1581 25.4282 11.2191 25.3506C11.2413 25.3216 11.2634 25.2925 11.2856 25.2634C11.3272 25.215 11.3688 25.1665 11.4132 25.1374C11.4326 25.1181 11.4547 25.1084 11.4741 25.0987C11.5241 25.0599 11.3522 25.1277 11.4381 25.118C11.4769 25.118 11.5157 25.0987 11.5545 25.0987C11.574 25.0987 11.5934 25.0987 11.61 25.1084C11.6959 25.1084 11.5102 25.0405 11.5684 25.089C11.6044 25.1181 11.6377 25.1374 11.6738 25.1762C11.6904 25.1956 11.707 25.215 11.7237 25.2343C11.8013 25.3216 11.6349 25.0793 11.6848 25.1762C11.7181 25.2343 11.7514 25.2925 11.7819 25.3603C11.7957 25.3894 11.8068 25.4185 11.8207 25.4475C11.829 25.4669 11.8346 25.4863 11.8429 25.496C11.8872 25.5832 11.7874 25.3409 11.7902 25.3506C11.8152 25.4475 11.8484 25.5154 11.8734 25.6123C11.8983 25.6898 11.9177 25.7867 11.9399 25.8642C11.9954 26.0774 11.89 25.6123 11.9177 25.7576C11.9288 25.8158 11.9427 25.8739 11.9538 25.9321C11.9954 26.1453 12.0259 26.3778 12.0591 26.6104C12.0009 26.2131 12.0397 26.4457 12.0591 26.6589C12.073 26.7945 12.0841 26.9302 12.0952 27.0659C12.1035 27.1918 12.1118 27.3178 12.1201 27.4341C12.1229 27.502 12.1257 27.5698 12.1312 27.6376C12.1423 27.8411 12.1173 27.1822 12.1257 27.531C12.1312 27.812 12.1368 28.0834 12.1312 28.3644C12.1312 28.5001 12.1257 28.6261 12.1229 28.7617C12.1201 28.9362 12.1423 28.3256 12.1284 28.6357C12.1257 28.7133 12.1201 28.7908 12.1173 28.8683C12.1007 29.1494 12.0785 29.4207 12.0508 29.6823C12.0203 29.9827 12.0702 29.537 12.0647 29.5854C12.0564 29.6436 12.0508 29.7017 12.0425 29.7599C12.0231 29.8955 12.0037 30.0312 11.9787 30.1669C11.9565 30.2928 11.9288 30.3994 11.9094 30.5254C11.9039 30.5642 11.9815 30.2153 11.9316 30.4285C11.915 30.4963 11.9011 30.5545 11.8845 30.6126C11.8512 30.7386 11.8179 30.8549 11.7819 30.9712C11.7625 31.0293 11.7431 31.0778 11.7237 31.1359C11.8235 30.8064 11.768 31.0196 11.7348 31.0972C11.6932 31.2038 11.6488 31.291 11.6017 31.3782C11.5767 31.4266 11.5545 31.4654 11.5296 31.5042C11.4381 31.6592 11.6155 31.3976 11.5351 31.5042C11.4242 31.6495 11.3106 31.7658 11.1941 31.8336C11.1803 31.8336 11.1664 31.853 11.1525 31.8627C11.0832 31.9015 11.1664 31.8433 11.1886 31.8433C11.1581 31.8336 11.1193 31.8724 11.0888 31.8724C11.0139 31.8918 10.9418 31.9015 10.867 31.8918L11.269 32.9578C11.2662 32.8899 11.2607 32.7252 11.2662 32.8899C11.2634 32.793 11.2607 32.6864 11.2579 32.5895C11.2524 32.386 11.2496 32.1825 11.2496 31.9887C11.2468 31.5623 11.2496 31.1359 11.2496 30.7095C11.2551 29.8761 11.2579 29.0427 11.2274 28.2094C11.1997 27.4535 11.0555 26.717 10.8115 26.7558C10.6092 26.7848 10.368 27.405 10.3957 28.2094H10.3985Z" fill="black"></path><path d="M8.5938 558.867C8.85163 558.847 9.10669 558.867 9.36453 558.954C9.39225 558.964 9.41997 558.974 9.4477 558.983C9.46433 558.983 9.4782 559.003 9.49483 559.003C9.50037 559.003 9.39779 558.954 9.44215 558.974C9.4976 559.003 9.55305 559.032 9.61127 559.07C9.7083 559.129 9.80534 559.206 9.8996 559.293C9.98832 559.38 10.077 559.477 10.1658 559.594C10.1852 559.623 10.2046 559.652 10.224 559.671C10.285 559.749 10.1297 559.526 10.1907 559.623C10.2295 559.691 10.2683 559.749 10.3071 559.817C10.3765 559.943 10.443 560.078 10.5068 560.233C10.5206 560.272 10.5345 560.301 10.5511 560.34C10.5872 560.427 10.5982 560.563 10.5206 560.253C10.5428 560.34 10.5733 560.408 10.5982 560.485C10.6481 560.64 10.6925 560.815 10.7369 560.989C10.7951 561.222 10.6703 560.669 10.7369 560.989C10.7563 561.086 10.7729 561.183 10.7895 561.28C10.82 561.464 10.8422 561.658 10.8727 561.842C10.8616 561.764 10.8284 561.454 10.8533 561.677C10.8589 561.726 10.8644 561.774 10.8672 561.823C10.8783 561.929 10.8866 562.036 10.8949 562.142C10.9115 562.346 10.9171 562.549 10.9309 562.743C10.9365 562.801 10.9171 562.288 10.9226 562.549C10.9226 562.598 10.9254 562.656 10.9282 562.704C10.9282 562.811 10.9337 562.927 10.9337 563.034C10.9337 563.247 10.9337 563.451 10.9282 563.664C10.9282 563.77 10.9198 563.877 10.9198 563.984C10.9198 563.906 10.9393 563.538 10.9254 563.799C10.9226 563.858 10.9198 563.916 10.9171 563.984C10.8949 564.42 10.8616 564.846 10.8173 565.263C10.8062 565.369 10.7951 565.466 10.784 565.573C10.8284 565.234 10.7452 565.912 10.784 565.573C10.7563 565.776 10.7285 565.99 10.6981 566.183C10.6371 566.581 10.5705 566.959 10.4957 567.317C10.4874 567.366 10.4763 567.404 10.4679 567.443C10.4264 567.647 10.5317 567.172 10.4957 567.317C10.4763 567.395 10.4569 567.482 10.4374 567.569C10.3959 567.734 10.3543 567.899 10.3127 568.054C10.2711 568.209 10.2267 568.354 10.1796 568.49C10.1602 568.548 10.138 568.606 10.1186 568.674C10.0327 568.926 10.199 568.47 10.1214 568.674C10.0327 568.897 9.94119 569.09 9.84138 569.265C9.74712 569.43 9.93564 569.149 9.86079 569.236C9.83584 569.265 9.81088 569.304 9.78593 569.333C9.74157 569.381 9.69444 569.42 9.64731 569.449C9.55582 569.517 9.77207 569.42 9.68058 569.43C9.65563 569.43 9.63068 569.439 9.6085 569.439C9.58632 569.439 9.56691 569.439 9.54473 569.439C9.45602 569.43 9.66672 569.536 9.57523 569.449C9.53087 569.41 9.48651 569.352 9.44215 569.313C9.45324 569.313 9.56137 569.517 9.50037 569.401C9.48928 569.381 9.48097 569.362 9.46988 569.342C9.45047 569.304 9.42829 569.255 9.40888 569.216C9.32017 569.023 9.4782 569.43 9.42552 569.265C9.40611 569.197 9.38393 569.139 9.36453 569.071C9.34512 569.003 9.32848 568.935 9.30908 568.868C9.30076 568.829 9.29244 568.79 9.28413 568.751C9.30631 568.839 9.35344 569.09 9.31185 568.877C9.27858 568.693 9.24531 568.519 9.21759 568.325C9.20095 568.218 9.18986 568.112 9.17323 568.005C9.14551 567.811 9.21204 568.364 9.19264 568.16C9.18432 568.092 9.176 568.024 9.17046 567.957C9.10946 567.385 9.06788 566.794 9.03738 566.193C9.02907 566.038 9.02352 565.883 9.0152 565.728C9.00689 565.544 9.02629 566.077 9.02075 565.893C9.02075 565.854 9.01798 565.815 9.01798 565.776C9.0152 565.67 9.01243 565.563 9.00689 565.466C8.98471 564.71 8.83222 563.974 8.59103 564.013C8.38587 564.042 8.15021 564.652 8.17516 565.466C8.24447 567.782 8.42191 570.874 9.10115 571.959C9.68058 572.879 10.2739 572.027 10.7341 570.68C11.1943 569.333 11.5187 567.443 11.6739 565.476C11.8514 563.228 11.7654 560.873 11.3357 559.041C10.7923 556.716 9.82752 556.115 9.01798 556.008C8.87658 555.989 8.73519 555.989 8.5938 556.008C8.37755 556.028 8.16685 556.667 8.17794 557.462C8.18903 558.256 8.36092 558.935 8.5938 558.915V558.867Z" fill="black"></path><path d="M374.767 25.4378C374.69 31.1746 375.355 37.3379 376.905 39.964C377.104 40.3032 377.357 40.1675 377.473 39.4407C377.936 36.5917 378.139 32.9965 377.731 29.9246C377.323 26.8526 376.345 25.9805 375.452 26.7073C374.931 27.1337 375.153 29.9343 375.674 29.5079C375.857 29.3625 375.995 29.2947 376.195 29.3334C376.206 29.3334 376.328 29.3819 376.256 29.3431C376.298 29.3625 376.336 29.3916 376.378 29.4303C376.42 29.4691 376.456 29.5079 376.492 29.5466C376.605 29.6726 376.428 29.4206 376.536 29.6048C376.603 29.7211 376.669 29.847 376.73 30.0021C376.661 29.8277 376.752 30.0796 376.761 30.099C376.786 30.1862 376.813 30.2831 376.838 30.3703C376.844 30.3897 376.919 30.7095 376.866 30.4769C376.888 30.5835 376.908 30.6901 376.927 30.7967C376.946 30.9033 376.966 31.0196 376.982 31.1359C376.985 31.1553 377.035 31.5429 377.005 31.2716C377.138 32.4054 377.152 33.2291 377.107 34.4888C377.116 34.2563 377.096 34.7408 377.096 34.7408C377.088 34.9055 377.079 35.0606 377.068 35.2253C377.049 35.5257 377.024 35.8261 376.996 36.1169C376.935 36.7855 376.86 37.3185 376.758 37.9581L377.326 37.4348C376.029 35.235 375.535 30.2347 375.599 25.4184C375.61 24.6335 375.399 23.9648 375.183 23.9648C374.95 23.9648 374.778 24.6335 374.767 25.4184V25.4378Z" fill="black"></path><path d="M371.418 544.544C371.382 544.263 371.324 543.73 371.285 543.284C371.266 543.061 371.249 542.839 371.233 542.616C371.224 542.509 371.219 542.402 371.213 542.296C371.21 542.228 371.188 541.763 371.202 542.121C371.188 541.763 371.183 541.395 371.188 541.036C371.188 540.949 371.205 540.445 371.196 540.658C371.188 540.862 371.216 540.377 371.221 540.28C371.233 540.125 371.249 539.99 371.263 539.844C371.224 540.261 371.269 539.805 371.285 539.708C371.305 539.582 371.332 539.466 371.352 539.34C371.385 539.137 371.338 539.408 371.332 539.427C371.352 539.36 371.368 539.282 371.388 539.205C371.416 539.108 371.446 539.011 371.476 538.914C371.515 538.788 371.388 539.108 371.46 538.962C371.474 538.933 371.485 538.894 371.499 538.865C371.532 538.788 371.568 538.72 371.604 538.652C371.626 538.613 371.648 538.584 371.671 538.536C371.737 538.4 371.582 538.613 371.662 538.546C371.743 538.478 371.823 538.361 371.906 538.303C371.923 538.294 371.939 538.284 371.956 538.274C372.048 538.206 371.856 538.294 371.951 538.274C372 538.274 372.048 538.245 372.098 538.245C372.186 538.245 372.272 538.265 372.358 538.284C372.455 538.303 372.264 538.216 372.358 538.284C372.378 538.294 372.397 538.303 372.414 538.313C372.469 538.352 372.527 538.391 372.583 538.439C372.68 538.526 372.771 538.642 372.863 538.759C372.882 538.788 372.935 538.875 372.846 538.73C372.868 538.768 372.893 538.798 372.915 538.836C372.965 538.924 373.015 539.011 373.065 539.108C373.157 539.282 373.243 539.486 373.326 539.689C373.409 539.893 373.279 539.553 373.328 539.689C373.348 539.747 373.37 539.805 373.389 539.863C373.437 540.009 373.484 540.164 373.531 540.319C373.564 540.435 373.597 540.561 373.631 540.687C373.647 540.755 373.667 540.833 373.683 540.9C373.753 541.181 373.65 540.736 373.689 540.92C373.758 541.249 373.822 541.598 373.877 541.957C373.905 542.131 373.93 542.315 373.955 542.499C374.002 542.858 373.936 542.325 373.961 542.548C373.972 542.645 373.983 542.742 373.991 542.839C374.033 543.265 374.066 543.701 374.091 544.147C374.096 544.253 374.102 544.37 374.107 544.476C374.096 544.195 374.107 544.496 374.107 544.563C374.113 544.786 374.119 545.009 374.121 545.242C374.127 545.794 374.121 546.347 374.11 546.899C374.102 547.19 374.11 546.986 374.11 546.928C374.105 547.064 374.099 547.19 374.091 547.325C374.08 547.538 374.066 547.742 374.049 547.955C374.033 548.168 374.016 548.343 373.997 548.537C373.991 548.614 373.98 548.682 373.972 548.759C374.008 548.44 373.972 548.759 373.961 548.837C373.913 549.166 373.861 549.477 373.803 549.777C373.744 550.077 373.861 549.544 373.794 549.816C373.78 549.864 373.769 549.922 373.755 549.971C373.717 550.116 373.675 550.252 373.633 550.397C373.556 550.659 373.678 550.32 373.584 550.533C373.547 550.61 373.514 550.698 373.478 550.765C373.439 550.843 373.395 550.911 373.356 550.988C373.331 551.037 373.267 551.105 373.367 550.979C373.342 551.008 373.315 551.046 373.29 551.076C373.201 551.182 373.112 551.24 373.021 551.318C372.929 551.395 373.096 551.298 373.035 551.318C373.012 551.318 372.987 551.337 372.965 551.337C372.91 551.357 372.852 551.357 372.796 551.357C372.755 551.357 372.71 551.357 372.669 551.337C372.624 551.327 372.522 551.26 372.621 551.327C372.516 551.26 372.414 551.192 372.311 551.076C372.256 551.017 372.2 550.94 372.145 550.872C372.122 550.843 372.075 550.756 372.161 550.901C372.131 550.853 372.098 550.804 372.067 550.746C371.964 550.562 371.867 550.349 371.773 550.126C371.757 550.087 371.74 550.039 371.723 550C371.815 550.232 371.707 549.942 371.69 549.893C371.651 549.777 371.615 549.651 371.579 549.525C371.535 549.37 371.493 549.215 371.454 549.05C371.454 549.041 371.388 548.759 371.429 548.944C371.465 549.108 371.393 548.769 371.388 548.74C371.321 548.401 371.266 548.042 371.216 547.674C371.169 547.325 371.246 547.965 371.208 547.597C371.196 547.49 371.185 547.383 371.174 547.267C371.152 547.044 371.133 546.812 371.119 546.589C371.105 546.395 371.094 546.191 371.086 545.988C371.066 545.581 371.091 546.298 371.083 545.881C371.08 545.755 371.077 545.629 371.075 545.494C371.066 544.951 371.074 544.408 371.091 543.875C371.116 543.09 370.883 542.422 370.675 542.422C370.429 542.422 370.284 543.09 370.259 543.875C370.132 547.8 370.7 551.754 371.748 553.411C372.713 554.932 373.886 554.39 374.526 551.24C374.884 549.486 374.986 547.19 374.953 545.077C374.917 542.848 374.709 540.765 374.313 539.011C373.694 536.278 372.594 534.66 371.607 535.512C371.08 535.968 370.653 537.228 370.462 539.011C370.215 541.298 370.431 543.837 370.7 545.959C370.792 546.676 371.091 546.841 371.269 546.482C371.479 546.046 371.51 545.213 371.418 544.496V544.544Z" fill="black"></path></svg> 