<?xml version="1.0" encoding="UTF-8"?> <svg xmlns="http://www.w3.org/2000/svg" width="39" height="38" viewBox="0 0 39 38" fill="none"><rect x="3" y="3" width="32" height="32" rx="3" fill="#FF00D5"></rect><path fill-rule="evenodd" clip-rule="evenodd" d="M0.542904 27.1452C0.243066 27.1452 -4.63997e-07 27.3883 -4.50891e-07 27.6881L-4.74622e-08 36.9175V36.9175C-2.12496e-08 37.5172 0.486133 38.0033 1.08581 38.0033V38.0033L9.22937 38.0033C9.52921 38.0033 9.77228 37.7602 9.77228 37.4604V37.4604C9.77228 37.1606 9.52921 36.9175 9.22937 36.9175L5.42904 36.9175C3.03034 36.9175 1.08581 34.973 1.08581 32.5743L1.08581 27.6881C1.08581 27.3883 0.842742 27.1452 0.542904 27.1452V27.1452Z" fill="#FF00D5"></path><path fill-rule="evenodd" clip-rule="evenodd" d="M38.2293 27.1452C38.5292 27.1452 38.7722 27.3883 38.7722 27.6881L38.7722 36.9175V36.9175C38.7722 37.5172 38.2861 38.0033 37.6864 38.0033V38.0033L29.5428 38.0033C29.243 38.0033 28.9999 37.7602 28.9999 37.4604V37.4604C28.9999 37.1606 29.243 36.9175 29.5428 36.9175L33.3432 36.9175C35.7419 36.9175 37.6864 34.973 37.6864 32.5743L37.6864 27.6881C37.6864 27.3883 37.9295 27.1452 38.2293 27.1452V27.1452Z" fill="#FF00D5"></path><path fill-rule="evenodd" clip-rule="evenodd" d="M0.542904 10.8581C0.243066 10.8581 -4.63997e-07 10.615 -4.50891e-07 10.3152L-4.74622e-08 1.08581V1.08581C-2.12496e-08 0.486133 0.486133 2.12496e-08 1.08581 4.74622e-08V4.74622e-08L9.22937 4.03429e-07C9.52921 4.16535e-07 9.77228 0.243067 9.77228 0.542905V0.542905C9.77228 0.842742 9.52921 1.08581 9.22937 1.08581L5.42904 1.08581C3.03034 1.08581 1.08581 3.03034 1.08581 5.42904L1.08581 10.3152C1.08581 10.615 0.842742 10.8581 0.542904 10.8581V10.8581Z" fill="#FF00D5"></path><path fill-rule="evenodd" clip-rule="evenodd" d="M38.2293 10.8581C38.5292 10.8581 38.7722 10.615 38.7722 10.3152L38.7722 1.08581V1.08581C38.7722 0.486133 38.2861 2.12496e-08 37.6864 4.74622e-08V4.74622e-08L29.5428 4.03429e-07C29.243 4.16535e-07 28.9999 0.243067 28.9999 0.542905V0.542905C28.9999 0.842742 29.243 1.08581 29.5428 1.08581L33.3432 1.08581C35.7419 1.08581 37.6864 3.03034 37.6864 5.42904L37.6864 10.3152C37.6864 10.615 37.9295 10.8581 38.2293 10.8581V10.8581Z" fill="#FF00D5"></path><path d="M18.4541 8.00687C15.5061 8.16663 12.79 9.46449 10.8165 11.6575C8.7694 13.9337 7.76795 16.9493 8.04546 20.0018C8.22913 22.0259 8.97452 23.9601 10.1999 25.592C11.2161 26.9467 12.5299 28.0504 14.0435 28.8188C16.7596 30.1999 19.961 30.3781 22.838 29.31C24.062 28.8545 25.2015 28.1798 26.1882 27.3229C26.6065 26.9599 26.7138 26.8159 26.7728 26.5374C26.872 26.0687 26.6052 25.5762 26.1561 25.4019C25.9804 25.3332 25.8075 25.3161 25.6252 25.3478C25.4107 25.3861 25.2766 25.46 25.0326 25.6778C24.1411 26.47 23.2 27.0378 22.1248 27.4352C20.2975 28.1098 18.3026 28.1732 16.4258 27.6147C15.0342 27.2002 13.7592 26.4476 12.7296 25.4349C12.4132 25.1233 12.306 25.0018 12.3234 24.9754C12.3301 24.9636 13.3798 23.3013 14.6534 21.2825C15.927 19.2638 16.9781 17.6029 16.9875 17.5923C17.0036 17.5764 17.0062 17.8709 17.0062 19.4407C17.0062 20.6277 17.0116 21.3644 17.0197 21.4608C17.1202 22.5461 17.5358 23.1719 18.2772 23.3515C18.4233 23.3871 18.6928 23.3898 18.8376 23.3581C19.3282 23.2498 19.784 22.9012 20.2224 22.3005C20.3189 22.1671 20.7439 21.4951 22.5605 18.5957C22.8621 18.1125 23.141 17.6728 23.1785 17.6187L23.2469 17.5197L23.2549 18.774C23.2603 19.6361 23.267 20.0692 23.2791 20.1603C23.3568 20.7887 23.5003 21.268 23.7456 21.7248C24.0834 22.352 24.6076 22.8405 25.2243 23.1019C26.1628 23.5007 27.2393 23.4307 28.104 22.9144C28.722 22.5461 29.1859 22.0417 29.521 21.375C29.694 21.0304 29.7919 20.7584 29.8777 20.3781C29.9715 19.9662 29.997 19.6797 29.9997 19.005C30.0023 18.4677 29.9903 18.2524 29.9366 17.7705C29.6859 15.5498 28.7582 13.4545 27.2782 11.7631C25.4536 9.67706 22.9158 8.35147 20.1902 8.061C20.0575 8.04648 19.8618 8.02799 19.7545 8.02007C19.4864 8.00027 18.7223 7.99367 18.4541 8.00687ZM19.6138 10.0151C21.7306 10.159 23.7081 11.0396 25.2431 12.5223C26.7955 14.0209 27.7487 15.9868 27.9592 18.1204C28.0061 18.601 28.0169 19.3839 27.9793 19.6586C27.9257 20.0626 27.7983 20.4177 27.6066 20.695C27.5047 20.8416 27.2916 21.0462 27.1414 21.1426C26.9122 21.2878 26.7151 21.3472 26.4577 21.3459C25.8182 21.342 25.4214 20.9168 25.2833 20.0877C25.2619 19.9636 25.2592 19.7787 25.2511 18.3845C25.2431 16.8754 25.2417 16.8133 25.2136 16.6456C25.1211 16.0766 24.9441 15.6858 24.6411 15.3768C24.4508 15.1814 24.2349 15.0547 23.9749 14.9834C23.8059 14.9372 23.5271 14.9253 23.3568 14.957C22.7562 15.0692 22.1824 15.5379 21.5925 16.3974C21.4437 16.6153 21.3955 16.6918 20.5656 18.0148C20.2948 18.4465 19.835 19.1819 19.5427 19.648C19.2491 20.1154 19.0065 20.497 19.0011 20.497C18.9957 20.497 18.989 19.4024 18.9864 18.0636C18.9823 15.7808 18.981 15.6224 18.9582 15.4864C18.8778 15.0111 18.7397 14.6876 18.5145 14.4526C18.3938 14.3259 18.2959 14.2559 18.1404 14.1859C17.5988 13.9403 17.0237 14.1014 16.5478 14.6308C16.4043 14.7893 16.2984 14.9424 15.9512 15.493C15.7742 15.7729 15.061 16.9018 14.3652 18.0016C13.6694 19.1014 13.0326 20.1088 12.9495 20.2395C12.8677 20.3702 12.6773 20.6699 12.5285 20.9063C12.2497 21.3472 12.133 21.5321 11.456 22.6028C11.2402 22.9435 11.0619 23.226 11.0592 23.2287C11.0512 23.2366 10.8393 22.7996 10.7468 22.5857C10.35 21.6654 10.1342 20.794 10.0323 19.7048C10.0068 19.4236 10.0108 18.5535 10.039 18.2392C10.0899 17.6992 10.1637 17.2556 10.2843 16.7803C10.9332 14.2255 12.68 12.0734 15.0489 10.9102C16.2045 10.3438 17.3977 10.0467 18.7357 9.99525C18.9032 9.98997 19.3993 10.0005 19.6138 10.0151Z" fill="#042382"></path></svg> 