<?xml version="1.0" encoding="UTF-8"?> <svg xmlns="http://www.w3.org/2000/svg" width="226" height="87" viewBox="0 0 226 87" fill="none"><path d="M42.1308 30.5683C42.2453 34.3664 41.9747 56.8069 41.9747 56.8069C41.9747 56.8069 34.9559 53.6174 33.395 54.1377C31.8341 54.658 24.8361 41.8951 24.8361 41.8951C24.8361 41.8951 21.4281 40.61 19.8672 39.5694C18.3064 38.5288 15.5696 32.5766 14.8568 32.4309C14.144 32.2852 8.88376 31.9887 9.95037 33.9606C11.017 35.9325 14.8516 42.2073 14.8516 42.2073C14.8516 42.2073 20.5749 42.3582 23.3428 45.9066C26.1108 49.4551 31.3138 63.6436 31.8341 62.7955C32.3544 61.9474 34.191 58.9921 39.2535 62.2908C44.316 65.5895 42.932 75.0277 43.624 77.0725C44.316 79.1172 55.5129 81.3077 55.5129 81.3077C55.5129 81.3077 55.3308 85.8707 56.5899 85.3556C57.849 84.8405 90.711 85.9488 91.71 85.3972C92.7089 84.8457 104.291 74.882 104.291 74.882C104.291 74.882 103.604 54.5071 104.4 54.325C105.196 54.1429 122.054 52.2543 122.054 52.2543L118.531 36.3071C118.531 36.3071 108.157 37.3841 107.98 36.1354C107.803 34.8867 106.778 27.9355 108.333 27.7691C109.884 27.6026 110.597 28.3778 109.978 26.1717C109.358 23.9657 110.758 11.2652 107.98 10.3287C105.201 9.39213 92.4852 10.5368 87.6569 10.2246C82.8285 9.91243 49.056 13.9916 47.2089 15.3339C45.3618 16.6763 42.1308 30.5683 42.1308 30.5683Z" fill="#878787"></path><path d="M224.521 18.6379C224.422 15.3653 225.374 9.64719 221.706 7.94582C219.958 7.13935 217.643 7.17578 215.764 7.05611C213.538 6.91043 211.3 6.88441 209.068 6.98326C204.703 7.17577 200.364 7.82615 196.118 8.85634C195.858 8.85634 195.593 8.88756 195.332 8.9708C193.85 9.44948 192.913 10.9427 193.334 12.4932C193.376 12.6441 193.418 12.8002 193.459 12.9511C192.887 12.9667 192.304 13.0187 191.706 13.102C190.228 13.3101 188.683 13.794 187.195 13.487C186.118 13.2633 185.233 13.6015 184.609 14.205C181.997 12.7898 178.896 12.9979 175.894 12.8366C171.732 12.6077 167.569 12.3787 163.412 12.1498C162.143 12.0822 161.258 12.8678 160.852 13.8824C159.874 13.7575 158.896 13.6327 157.918 13.5026C157.871 11.411 157.923 9.13729 155.769 8.13312C152.762 6.72831 148.787 6.56703 145.368 7.36309C143.87 5.42758 140.046 5.94788 140.228 8.97601C140.358 11.13 140.493 13.2893 140.623 15.4433C140.488 15.4277 140.342 15.4121 140.191 15.4121C133.953 15.4433 127.714 15.4745 121.481 15.5057L110.357 15.563C110.17 15.563 109.983 15.563 109.795 15.563C109.566 14.2674 108.932 11.6243 108.864 11.2913C108.604 9.99058 107.303 9.28818 106.106 9.18932C101.538 8.81471 97.4435 9.56394 92.995 10.412C90.9762 10.797 89.9929 9.35062 88.3175 8.48693C87.9741 8.31003 87.6307 8.16954 87.2873 8.05507C86.8139 5.04255 85.253 2.55033 81.7774 1.84793C77.9064 1.06748 72.2507 -0.467405 69.0457 2.5087C67.2819 4.14764 68.3901 6.43175 70.1279 7.12895C70.1435 7.43072 70.1643 7.72729 70.1955 8.02907C65.081 8.69505 59.9301 9.02804 54.7687 9.07487C52.9061 9.09048 51.5221 10.8907 52.0111 12.6961C52.0007 12.6597 46.9643 12.514 46.5584 12.4932C44.4772 12.384 42.3908 12.3111 40.3097 12.3371C36.3346 12.3788 32.3803 12.8002 28.5197 13.7471C28.0202 13.6327 27.5259 13.4974 27.0369 13.3205C26.8131 13.2424 26.5998 13.1904 26.3969 13.1644C25.9651 12.8574 25.4239 12.6753 24.7788 12.7013C20.991 12.873 15.3406 12.2539 11.4331 13.9761C11.3759 13.7263 11.3291 13.4766 11.2718 13.2268C11.6152 11.8064 10.8244 10.0582 9.41958 9.64718C8.58711 9.25696 7.55692 9.33501 6.72445 9.76165C5.73068 9.87091 4.73169 9.97497 3.73793 10.0842C2.25508 10.2455 0.803447 11.2861 0.876288 12.9459C0.907506 13.7003 1.20928 14.3923 1.68795 14.9074C1.5943 15.1936 1.54227 15.5109 1.54748 15.8647C1.57869 20.7712 1.81802 25.662 2.23947 30.5476C2.10419 30.9014 2.04176 31.3228 2.08859 31.8067C2.099 31.8899 2.10419 31.9784 2.1146 32.0616C2.23427 33.2271 2.91066 34.5903 4.21661 34.8192C4.29985 34.8348 4.3883 34.8504 4.47155 34.866C5.86595 35.1158 7.61935 34.4082 8.01998 32.9721C8.59751 32.9045 9.17504 32.6756 9.64852 32.3166C10.2521 32.816 11.0845 33.019 12.0835 32.6704C20.018 29.8816 29.2117 30.7297 37.5001 30.5319C46.5844 30.3134 55.6689 30.0897 64.7532 29.8712C65.6378 29.8503 66.3089 29.5017 66.772 28.9815C66.9801 29.226 67.2403 29.4549 67.568 29.6422C68.978 30.4643 70.4713 30.7661 72.0894 30.6516C72.9947 30.5892 74.1498 30.2198 75.18 30.2042C75.3257 32.02 75.6275 33.815 76.0905 35.5944C76.4339 36.916 77.589 37.5612 78.8481 37.6964C81.46 37.9722 83.7129 36.6246 85.0604 34.4394C85.5755 33.6017 85.5495 32.5039 85.0969 31.6402C86.6942 31.4841 88.2707 31.3696 89.7015 30.2354C90.5392 29.5694 91.1479 28.7837 91.5069 27.9252C107.402 28.1802 123.302 28.3311 139.197 28.3727C139.276 29.8504 139.348 31.3332 139.426 32.8109C139.478 33.7942 139.895 34.5122 140.483 34.9701C140.503 35.1366 140.524 35.2979 140.54 35.4696C140.685 37.3791 142.246 38.6538 144.161 38.2272C147.86 37.4103 151.575 36.7755 155.342 36.3645C156.669 36.2188 157.496 35.6101 158.017 34.4498C170.108 34.5591 182.2 34.3353 194.281 33.7734C194.261 34.1116 194.261 34.4342 194.328 34.6735C194.578 35.5164 195.051 36.2916 195.754 36.8327C197.684 38.3208 200.218 37.4311 202.372 37.0773C203.064 36.9628 203.756 36.8588 204.448 36.7651C209.781 37.4727 215.046 37.2074 220.296 35.8286C220.603 35.7453 220.863 35.6205 221.103 35.4748C222.768 35.9587 224.87 35.0846 224.838 32.8421C224.771 28.1022 224.672 23.3622 224.526 18.6275L224.521 18.6379Z" fill="#4C4C4C"></path><path opacity="0.35" d="M0.179081 20.3965C1.40178 26.3019 9.81501 22.7067 9.81501 22.7067L11.2666 13.2372L17.5934 13.3465V22.4725L54.4045 22.3268C54.4045 22.3268 60.0497 19.4236 61.6835 19.2207C63.3172 19.0178 65.9551 20.7347 65.9343 20.3965C65.9135 20.0583 67.2351 17.3736 67.3547 15.334C67.4744 13.2945 67.3547 10.3288 67.3547 10.3288L71.283 9.95415L73.0364 19.5433L86.9751 17.5453L87.6568 10.2299L103.682 10.334V20.0687L107.522 19.5433L109.54 17.5453C110.664 15.3809 115.961 17.5453 115.961 17.5453V20.4017L139.286 21.9522L140.228 8.9812C140.228 8.9812 145.732 3.51807 145.368 7.36827C145.004 11.2185 145.384 28.9658 145.384 28.9658H154.515L157.913 13.5026L163.246 15.334V26.1718C163.246 26.1718 193.787 28.6433 194.104 26.1718C194.422 23.7004 193.522 13.128 193.454 12.9511C193.386 12.7742 194.146 8.80951 195.327 8.9708C196.508 9.13209 204.11 10.2247 204.11 10.2247V28.9606L223.116 28.2322L225.218 28.5392L225.166 34.4966L195.743 36.8432L194.318 34.6839L156.232 33.9607L155.327 36.3801C155.327 36.3801 140.139 38.8931 140.483 38.3208C140.826 37.7485 139.993 37.6392 140.15 36.1355C140.306 34.6319 140.129 28.3935 139.177 28.3883C138.224 28.3831 111.164 28.3415 110.383 28.3623C109.603 28.3831 108.058 27.9929 107.532 27.9305C107.007 27.868 110.331 36.1355 108.672 35.9014C107.012 35.6725 92.636 36.3124 92.0168 37.0305C91.3977 37.7485 90.3571 42.4311 90.3571 42.9514C90.3571 43.4717 93.2291 48.9193 93.2291 48.9193C93.2291 48.9193 122.496 47.348 122.553 47.7538C122.61 48.1596 123.016 52.27 122.553 52.5561C122.09 52.8423 107.392 54.1587 106.679 54.0182C105.966 53.8777 104.374 53.5811 104.39 54.7726C104.405 55.9641 104.723 75.5533 104.041 76.1621C103.359 76.7708 93.9992 84.055 90.3571 84.5753C86.715 85.0956 56.5846 85.3505 56.5846 85.3505C56.5846 85.3505 56.5377 80.4129 54.9768 80.4129C53.416 80.4129 41.1942 80.0851 42.3596 78.4253C43.5251 76.7656 74.2278 68.9663 75.7887 68.446C77.3496 67.9257 78.3902 39.8297 78.3902 39.8297C78.3902 39.8297 42.2348 41.5727 42.3596 40.6986C42.4845 39.8245 39.2743 30.5579 38.8008 30.5111C38.3273 30.4643 15.8348 30.3811 15.6319 31.4633C15.429 32.5455 19.5914 39.8297 19.5914 40.35C19.5914 40.8703 15.429 43.992 14.3884 42.9514C13.3478 41.9108 12.25 32.5507 9.93466 33.0658C7.62454 33.5861 5.54335 35.147 3.46216 33.0658C1.38097 30.9846 1.34975 32.4414 0.845061 29.6318C0.340372 26.8222 0.158264 20.3965 0.158264 20.3965H0.179081Z" fill="black"></path><path opacity="0.35" d="M10.4445 23.518C9.81496 19.3868 9.74211 15.1828 10.1584 11.0308C10.2156 10.4689 9.63805 9.99023 9.11775 9.99023C8.50901 9.99023 8.13439 10.4689 8.07716 11.0308C7.82221 13.5543 7.7702 16.0881 7.89507 18.6116C5.73063 18.5283 3.56618 18.6844 1.42775 19.059C0.876239 19.1579 0.564064 19.8343 0.699341 20.339C0.860633 20.9217 1.42255 21.161 1.97927 21.0674C3.96681 20.724 6.00638 20.6199 8.03554 20.7136C8.1344 21.8374 8.26968 22.9613 8.44137 24.0799C8.52462 24.6366 9.22702 24.9436 9.7213 24.8083C10.3144 24.647 10.533 24.0851 10.4497 23.5284L10.4445 23.518Z" fill="white"></path><path opacity="0.35" d="M67.3964 18.2943C66.9281 15.9998 66.7876 13.6585 66.9437 11.3224C66.9801 10.7604 66.439 10.2818 65.9031 10.2818C65.31 10.2818 64.8989 10.7604 64.8625 11.3224C64.7949 12.3265 64.7845 13.3359 64.8313 14.3401L64.6492 14.0123C64.1705 13.1538 62.6096 13.4868 62.7085 14.5378C62.7345 14.8032 62.6877 15.0269 62.4692 15.1153C62.2506 15.1986 62.0581 15.0633 61.9333 14.8344C61.7407 14.4702 61.2881 14.2777 60.8979 14.3401C60.4556 14.4077 60.1955 14.6835 60.0342 15.0841C59.9457 15.3026 59.7948 15.6044 59.6335 15.849C59.4983 16.0519 59.3786 16.1767 59.1861 16.2964C59.1809 16.2964 59.134 16.312 59.082 16.3068C59.0924 16.2964 58.8531 16.1767 58.8531 16.1767C58.6086 16.005 58.4004 15.7709 58.1663 15.5836C57.5211 15.0685 56.6783 14.7303 55.8614 14.9853C55.8302 13.6429 55.8458 12.3005 55.9342 10.9529C55.9706 10.391 55.4295 9.91235 54.8936 9.91235C54.3005 9.91235 53.8894 10.391 53.853 10.9529C53.7438 12.6803 53.7438 14.4077 53.827 16.1299C44.3368 16.7803 34.8413 17.4359 25.3459 18.0238C22.6404 18.1903 19.9296 18.3516 17.2241 18.5077C15.8921 18.5857 15.8817 20.6669 17.2241 20.5889C26.7247 20.0425 36.2201 19.413 45.7156 18.7678C48.4211 18.5857 51.1267 18.3984 53.8374 18.2111C53.8894 18.2111 53.9311 18.1955 53.9779 18.1851C54.0351 18.7834 54.0924 19.3818 54.1704 19.9801C54.2433 20.5368 54.5971 21.0207 55.211 21.0207C55.7157 21.0207 56.3245 20.542 56.2516 19.9801C56.1736 19.3922 56.1163 18.799 56.0591 18.2059C56.3973 18.0706 56.6522 17.7637 56.6418 17.285C56.6418 17.259 56.647 17.1393 56.6418 17.03C56.7459 17.0821 56.7719 17.1081 56.8603 17.1757C57.5419 17.7064 58.0831 18.3204 59.0092 18.3672C60.0706 18.4244 60.8198 17.7897 61.3609 16.978C61.8812 17.2069 62.4744 17.2694 63.0363 17.1081C63.3121 17.03 63.567 16.9 63.7959 16.723C63.8531 16.8219 63.9104 16.926 63.9624 17.0248C64.2434 17.5295 64.7377 17.618 65.1539 17.4671C65.2111 17.8209 65.2736 18.1799 65.3412 18.5337C65.3412 18.5805 65.3516 18.6273 65.362 18.6794C65.3724 18.7314 65.388 18.7834 65.3984 18.8355C65.5285 19.3818 66.1529 19.7044 66.6784 19.5639C67.2507 19.4078 67.516 18.8355 67.4068 18.2839L67.3964 18.2943Z" fill="white"></path><path opacity="0.35" d="M85.6225 3.35139C85.5601 2.79467 85.1907 2.31079 84.582 2.31079C84.0304 2.31079 83.5258 2.78946 83.5414 3.35139C83.5414 3.35659 83.5414 3.36698 83.5414 3.37219C83.4477 3.52307 83.3957 3.70518 83.4009 3.9237C83.4477 5.39094 83.5466 6.85298 83.6766 8.31502C83.6766 8.34623 83.6766 8.37745 83.6766 8.41387C83.5206 8.4607 83.3801 8.53354 83.2656 8.65841C82.61 8.79369 81.9076 8.84052 81.2625 8.92377C80.3675 9.03303 79.4726 9.12669 78.5725 9.19953C77.7088 9.26717 76.8451 9.32439 75.9815 9.35561C75.5496 9.37122 75.1177 9.38684 74.6859 9.39724C74.4361 9.39724 74.1812 9.40764 73.9315 9.40764C73.9211 9.40764 73.9055 9.40764 73.8951 9.40764C73.3748 8.8041 72.0792 9.02783 72.0324 10.0788C71.9699 11.4576 73.4944 11.4992 74.4726 11.4836C75.6589 11.4628 76.8503 11.4108 78.0366 11.3223C79.1865 11.2391 80.3363 11.1246 81.4758 10.9789C82.0689 10.9009 82.6621 10.8228 83.25 10.7344C83.4061 10.7136 83.5726 10.6928 83.7391 10.672C83.7651 11.6137 83.7911 12.5606 83.8171 13.5024C83.8327 13.9811 84.1085 14.288 84.4571 14.4233C84.4935 14.6523 84.5247 14.876 84.5664 15.1049C84.7693 16.2548 86.6788 15.9946 86.6111 14.8292C86.3822 10.9998 86.0544 7.17036 85.6225 3.35658V3.35139Z" fill="white"></path><path opacity="0.35" d="M109.005 16.8012C108.516 14.6212 108.027 12.4411 107.537 10.2611C107.418 9.73038 106.773 9.36616 106.258 9.53265C105.701 9.71476 105.404 10.2455 105.529 10.8126C106.018 12.9926 106.507 15.1727 106.996 17.3527C107.116 17.8834 107.761 18.2476 108.276 18.0812C108.833 17.8991 109.13 17.3683 109.005 16.8012Z" fill="white"></path><path opacity="0.35" d="M135.774 18.6846C130.072 18.081 124.333 17.9353 118.61 18.2475C117.278 18.3204 117.267 20.4016 118.61 20.3287C124.333 20.0217 130.072 20.1674 135.774 20.7658C136.336 20.823 136.815 20.2455 136.815 19.7252C136.815 19.1112 136.336 18.7418 135.774 18.6846Z" fill="white"></path><path opacity="0.35" d="M154.494 18.2736C154.302 17.6804 153.792 17.4671 153.214 17.5452C153.141 17.5556 153.069 17.566 152.996 17.5764C153.001 17.5764 152.798 17.6024 152.767 17.6076C152.574 17.6336 152.382 17.6544 152.184 17.6804C151.778 17.7272 151.378 17.7741 150.972 17.8157C150.327 17.8833 149.681 17.9302 149.036 17.977C149.005 17.5608 148.979 17.1445 148.948 16.7283C148.755 13.9811 148.563 11.2339 148.365 8.48677C148.271 7.16001 146.19 7.1496 146.284 8.48677C146.528 11.9207 146.768 15.3547 147.012 18.7887C147.132 20.464 147.246 22.1394 147.366 23.8095C147.413 24.5067 147.34 25.4016 147.97 25.8699C148.615 26.3486 149.718 26.0468 149.843 25.1883C149.905 24.7461 149.78 24.309 149.432 24.0593C149.406 23.6743 149.406 23.2424 149.385 22.9042C149.354 22.4516 149.322 21.9989 149.291 21.541C150.576 21.4786 151.856 21.411 153.141 21.3485C153.683 21.3225 154.208 20.8907 154.182 20.3079C154.166 20.0166 154.031 19.7304 153.823 19.5327C154.047 19.4754 154.286 19.2569 154.395 19.0696C154.525 18.8459 154.583 18.5181 154.499 18.2684L154.494 18.2736Z" fill="white"></path><path opacity="0.35" d="M192.642 19.3038C191.623 19.2778 190.598 19.2518 189.573 19.2258C189.952 18.617 189.677 17.5921 188.735 17.5869C184.833 17.5608 180.925 17.5348 177.023 17.5088C173.162 17.4828 169.359 17.3891 165.623 18.513C164.343 18.898 164.89 20.9064 166.175 20.5213C166.57 20.4017 166.971 20.3028 167.366 20.2092C167.543 20.7659 168.09 20.9844 168.631 20.8959C169.526 20.7503 170.436 21.052 171.295 21.2706C172.247 21.5099 173.209 21.666 174.187 21.7284C176.191 21.8585 178.194 21.6036 180.186 21.4579C184.333 21.1561 188.49 21.2706 192.637 21.3798C193.974 21.4163 193.974 19.3351 192.637 19.2986L192.642 19.3038ZM173.948 19.6316C173.813 19.6212 173.678 19.6004 173.537 19.5796C174.781 19.564 176.024 19.5796 177.278 19.59H177.502C176.315 19.6785 175.129 19.7253 173.943 19.6316H173.948Z" fill="white"></path><path opacity="0.35" d="M219.563 16.1247C217.456 16.2756 215.4 16.5306 213.34 17.004C211.347 17.4619 209.438 17.7532 207.398 17.5347C206.894 15.1622 206.649 12.8052 206.81 10.3754C206.899 9.03827 204.818 9.04347 204.729 10.3754C204.568 12.826 204.797 15.2454 205.296 17.644C205.77 19.9385 206.373 22.2122 206.254 24.5743C206.212 25.3288 207.18 25.9167 207.82 25.4745C207.898 25.4172 207.981 25.3652 208.059 25.308C208.611 24.9229 208.616 24.2778 208.35 23.8251C208.345 22.4203 208.121 21.0363 207.851 19.6575C209.734 19.798 211.576 19.5379 213.428 19.1164C215.473 18.6482 217.471 18.3568 219.563 18.2059C220.89 18.1123 220.9 16.0259 219.563 16.1247Z" fill="white"></path><path opacity="0.35" d="M115.753 37.2954C115.753 37.2954 115.727 37.3266 115.566 37.3787C115.399 37.4307 115.217 37.4567 115.045 37.4827C114.603 37.5556 114.15 37.6024 113.703 37.6544C112.787 37.7533 111.871 37.8209 110.951 37.8573C109.317 37.9198 107.688 37.8573 106.06 37.8157C102.735 37.4827 99.3947 37.3839 96.0544 37.7741C95.4977 37.8417 95.0138 38.2059 95.0138 38.8147C95.0138 39.1373 95.2063 39.4963 95.4925 39.6992C95.3728 39.772 95.2479 39.8397 95.1283 39.9125C94.249 40.4692 94.6132 41.8168 95.6538 41.8532C98.9004 41.9625 102.152 41.9469 105.399 41.8012C106.981 41.7284 108.557 41.6243 110.134 41.489C110.945 41.4214 111.752 41.3433 112.558 41.2549C113.037 41.2028 113.609 41.0624 114.14 41.0624C114.379 41.104 114.619 41.1404 114.858 41.182C116.018 41.3798 116.497 40.1258 115.82 39.4494C116.528 39.2986 117.126 38.9864 117.537 38.3464C118.266 37.2174 116.466 36.1768 115.742 37.2954H115.753Z" fill="white"></path><path opacity="0.35" d="M72.8282 54.6528C68.2236 55.0326 63.6189 55.4072 59.0143 55.787C56.7562 55.9743 54.4981 56.1876 52.2348 56.3385C50.5491 56.453 48.4054 56.427 47.5938 54.6476C47.2816 53.9556 46.1161 53.9764 45.7987 54.6476C45.6426 54.9753 45.4918 55.3083 45.3409 55.6465C45.19 51.7235 45.0131 47.8004 44.7789 43.8774C44.7009 42.5454 42.6197 42.535 42.6978 43.8774C43.3013 53.9608 43.6187 64.0597 43.6551 74.1639C43.6551 75.5011 45.7415 75.5063 45.7363 74.1639C45.7207 69.5697 45.6374 64.9755 45.5022 60.3812C45.7415 60.272 45.9444 60.069 46.0433 59.7413C46.3034 58.8724 46.6052 58.0191 46.9434 57.1762C47.9996 58.0347 49.446 58.4145 50.8092 58.4613C51.9487 58.4978 53.0985 58.3573 54.2328 58.2636C55.4815 58.1596 56.7302 58.0607 57.9789 57.9566L72.8282 56.7339C74.155 56.6247 74.1654 54.5435 72.8282 54.6528Z" fill="white"></path><path d="M0.0855888 10.3286C0.0751828 14.7668 -0.117334 19.2049 0.111597 23.6379C0.163627 24.6472 0.2781 25.6514 0.330129 26.6608C0.376956 27.5661 0.366541 28.4714 0.418571 29.3767C0.517428 30.9793 0.772388 32.7118 2.14077 33.742C3.5924 34.8347 5.57993 34.9543 7.30212 35.2509C8.28548 35.4226 8.70693 33.9189 7.71836 33.7472C6.7298 33.5755 5.71521 33.4507 4.73184 33.1957C3.94619 32.9928 3.05648 32.7014 2.58301 31.9886C2.07832 31.229 2.0211 30.1572 1.97427 29.2727C1.91704 28.2217 1.94305 27.1707 1.8546 26.1197C1.41234 20.8595 1.63087 15.5993 1.64648 10.3234C1.64648 9.31927 0.0907918 9.31927 0.0855888 10.3234V10.3286Z" fill="black"></path><path d="M1.31336 11.796C2.73898 11.3017 4.21663 10.9895 5.70468 10.7554C6.9638 10.5525 8.29057 10.3235 9.5705 10.3808C9.76301 10.3912 9.84626 10.3912 10.0232 10.438C10.1012 10.4588 10.1792 10.4744 10.2521 10.5057C10.3041 10.5265 10.2989 10.5213 10.2313 10.4952C10.2729 10.5161 10.3145 10.5369 10.3509 10.5629C10.4914 10.6565 10.2625 10.4848 10.3978 10.5993C10.429 10.6253 10.5435 10.7762 10.4446 10.6357C10.4862 10.6878 10.5226 10.7502 10.5486 10.8074C10.5539 10.8178 10.6423 11.0207 10.5851 10.8855C10.7151 11.2133 10.7776 11.5671 10.84 11.9157C10.8817 12.1342 10.9181 12.3527 10.9545 12.5712C10.9805 12.7117 11.0013 12.8574 11.0273 12.9979C11.0377 13.0603 11.0481 13.1279 11.0638 13.1904C11.0898 13.4505 11.1314 13.3673 11.1834 12.951L12.4113 12.795C12.557 12.9615 12.4061 12.7377 12.3853 12.7013C12.3281 12.6024 12.2552 12.514 12.1772 12.4255C11.5112 11.6711 10.4134 12.7794 11.0742 13.5286C10.9753 13.4193 11.121 13.6378 11.1262 13.6482C11.1782 13.7367 11.2407 13.8199 11.3083 13.898C11.6725 14.3038 12.2604 14.1217 12.5362 13.7419C12.8536 13.3048 12.4894 12.3163 12.4061 11.8168C12.3333 11.3902 12.2656 10.9531 12.1252 10.5421C11.8286 9.68358 11.225 9.08524 10.3145 8.90834C8.92533 8.63258 7.40086 8.94475 6.02207 9.14246C4.28948 9.387 2.55688 9.72001 0.897132 10.2923C-0.0446067 10.6201 0.361219 12.129 1.31336 11.796Z" fill="black"></path><path d="M12.3073 14.4494C14.6122 13.8458 17.0004 13.8042 19.3677 13.7938C21.7351 13.7834 24.1076 13.7522 26.4802 13.4816C31.5531 12.9145 36.6884 13.0862 41.7769 13.3515C44.7166 13.5024 47.6251 13.9915 50.57 14.0383C50.9394 14.0435 51.1995 13.7886 51.3244 13.466C51.8447 12.1184 52.5835 9.61061 54.3369 9.55858C56.0903 9.50655 57.7293 10.0945 59.441 10.1517C62.2923 10.2454 65.1383 10.4743 67.9947 10.5003C68.7856 10.5055 70.6639 10.7657 71.1374 9.90198C71.6108 9.03828 70.2736 8.23182 69.7898 9.11632C69.8314 9.04348 70.1332 8.76252 70.0863 8.85617C70.0759 8.87698 69.9198 8.8926 69.9042 8.8926C70.0083 8.88219 69.899 8.89259 69.7638 8.903C69.6441 8.9082 69.5244 8.91861 69.4048 8.92381C68.77 8.95503 68.1352 8.94462 67.5004 8.93421C65.8823 8.9082 64.2642 8.83016 62.6461 8.74691C61.4806 8.68968 60.3151 8.62204 59.1497 8.58562C57.3078 8.52839 55.4087 7.6907 53.5669 8.08613C51.4233 8.54399 50.5075 11.2704 49.8155 13.055L50.57 12.4826C47.9633 12.441 45.3826 12.056 42.7915 11.8583C40.1692 11.6606 37.5209 11.5929 34.8882 11.5617C32.3335 11.5305 29.7789 11.5981 27.2346 11.8479C24.6904 12.0976 22.4063 12.2277 19.9556 12.2329C17.2553 12.2381 14.5185 12.2589 11.891 12.9457C10.9181 13.2007 11.3291 14.7043 12.3073 14.4494Z" fill="black"></path><path d="M8.92013 34.2935C10.1428 34.1061 10.6059 35.2144 10.8816 36.2082C11.2355 37.4673 11.4332 38.7576 11.8026 40.0167C12.2032 41.3851 12.2969 43.3258 13.7433 44.0647C15.0961 44.7567 16.7766 43.9502 18.1814 44.4705C21.4853 45.7036 23.6966 48.5808 25.3303 51.5673C26.1576 53.0866 26.8912 54.6527 27.6769 56.1876C28.4625 57.7225 29.1753 59.3198 30.5593 60.3343C33.3221 62.3687 37.5053 61.2137 39.9143 63.8151C40.5958 64.554 41.6989 63.4457 41.0173 62.7121C39.9039 61.5102 38.395 60.9223 36.8237 60.5945C35.2524 60.2667 33.7227 60.1939 32.3179 59.5591C30.7414 58.8463 30.0442 57.3426 29.2794 55.8858C28.4469 54.2989 27.6925 52.6704 26.8444 51.0887C25.1898 47.9981 23.0514 45.1469 19.8568 43.5287C19.0399 43.1177 18.2595 42.7951 17.3438 42.7379C16.5061 42.6859 15.6632 42.8159 14.8307 42.7431C14.1647 42.6859 13.967 42.0927 13.7901 41.51C13.5664 40.766 13.4415 40.0011 13.2022 39.2623C12.3749 36.6712 12.3905 32.1967 8.50388 32.7846C7.51532 32.9355 7.93677 34.4391 8.92013 34.2883V34.2935Z" fill="black"></path><path d="M9.20625 9.83444C9.89824 11.8116 9.84621 13.9708 9.77337 16.0364C9.69532 18.2268 9.63289 20.3861 9.6589 22.5765C9.67451 23.8877 9.61208 25.1988 9.58607 26.51C9.56526 27.6026 9.62248 28.6952 9.61208 29.7879C9.60167 30.6776 9.56525 31.5673 9.62248 32.4518C9.67451 33.1906 9.75257 34.0335 10.1896 34.6526C10.7619 35.4695 12.1199 34.6891 11.5372 33.867C11.1366 33.2999 11.1678 32.4414 11.1522 31.7754C11.1313 30.9273 11.1834 30.0844 11.1678 29.2364C11.1261 26.7649 11.2874 24.2935 11.199 21.8221C11.1209 19.7461 11.2822 17.6805 11.3447 15.6097C11.4071 13.539 11.3967 11.3849 10.7099 9.413C10.3821 8.47126 8.87326 8.87709 9.20625 9.82923V9.83444Z" fill="black"></path><path d="M11.9795 33.0295C13.2699 32.1554 15.2106 32.2386 16.6986 32.2178C18.655 32.1918 20.6061 32.1658 22.5572 32.1346C25.2367 32.0877 27.9163 32.0877 30.5958 31.9056C33.2753 31.7235 35.6947 31.4842 38.2442 31.2657C40.9966 31.0315 43.7489 30.8182 46.5117 30.8182C47.5159 30.8182 47.5159 29.2573 46.5117 29.2573C41.3868 29.2573 36.2879 29.9337 31.1837 30.3031C26.4282 30.6465 21.6415 30.6049 16.8755 30.6569C15.0597 30.6777 12.76 30.6205 11.1939 31.6871C10.3666 32.249 11.1471 33.6018 11.9795 33.0347V33.0295Z" fill="black"></path><path d="M14.9765 32.7534C16.3865 34.6421 16.7611 37.1083 17.8745 39.1635C18.4052 40.1417 19.1492 41.1771 20.1846 41.6609C21.3345 42.2021 22.63 42.0668 23.8371 42.3529C25.1639 42.6651 25.7154 43.9607 26.1993 45.1053C26.756 46.4165 27.2867 47.738 27.8434 49.0492C28.4001 50.3603 29.0349 51.7651 29.8049 53.0347C30.5177 54.2105 31.371 55.4644 32.5729 56.1877C35.1328 57.7225 38.2754 56.0264 40.7988 57.4832C41.6729 57.9879 42.4586 56.6403 41.5845 56.1356C40.4554 55.4853 39.2015 55.3031 37.9164 55.3188C36.7197 55.3344 35.471 55.5269 34.2951 55.2251C32.9631 54.8817 32.1411 53.7891 31.4231 52.6913C30.6374 51.4842 30.0079 50.173 29.4355 48.8515C28.8632 47.5299 28.3377 46.1979 27.7758 44.8764C27.2503 43.6329 26.7404 42.3269 25.6269 41.4892C24.654 40.7504 23.4313 40.7244 22.2606 40.5891C21.7351 40.5267 21.142 40.4591 20.6841 40.1729C20.2263 39.8867 19.8777 39.4445 19.5915 39.0126C18.1607 36.8378 17.8901 34.0698 16.324 31.973C15.7309 31.1769 14.3729 31.9574 14.9765 32.7587V32.7534Z" fill="black"></path><path d="M39.5294 35.2509C41.0174 39.2 40.8613 43.5965 40.9654 47.7537C41.0903 52.7693 41.6054 57.7746 41.6002 62.7955C41.6002 63.7996 43.161 63.7996 43.161 62.7955C43.161 57.7018 42.6407 52.634 42.5211 47.5507C42.4222 43.3363 42.5471 38.8462 41.0382 34.8399C40.6896 33.9085 39.1756 34.3144 39.5346 35.2561L39.5294 35.2509Z" fill="black"></path><path d="M41.4595 66.0526C42.3856 67.8892 42.4637 70.1005 42.5521 72.1192C42.6406 74.138 42.6146 76.1411 42.9424 78.1235C43.1505 79.3618 43.7488 80.2255 45.0391 80.418C47.1724 80.7354 49.3732 80.5793 51.5273 80.7822C52.136 80.8394 52.7396 80.9279 53.3379 81.0527C53.7385 81.136 54.2276 81.188 54.571 81.4222C55.2318 81.8696 55.0965 82.6136 55.0445 83.3056C54.982 84.1173 54.9248 84.9602 55.5648 85.5689C56.2047 86.1777 57.0372 86.391 57.8593 86.5055C59.8624 86.7864 61.9697 86.5627 63.9832 86.5471C66.7772 86.5263 69.5764 86.5003 72.3704 86.3806C75.4714 86.2453 78.5567 85.9071 81.6681 85.8551C84.7795 85.8031 87.9741 85.8967 91.1323 85.9071C92.1365 85.9071 92.1365 84.3514 91.1323 84.3462C88.4008 84.341 85.664 84.2682 82.9324 84.2786C80.2425 84.289 77.5838 84.4867 74.9043 84.674C69.8938 85.0226 64.8469 85.0174 59.8312 85.0538C58.9831 85.059 58.0778 85.0643 57.2661 84.7781C57.0476 84.7 56.6834 84.5752 56.5793 84.3514C56.4649 84.1069 56.595 83.5658 56.6158 83.3004C56.6782 82.4523 56.7146 81.6615 56.2256 80.9279C55.7365 80.1943 55.1017 79.8613 54.29 79.6583C51.9383 79.0756 49.4877 79.1016 47.0839 78.9976C46.4283 78.9664 45.7207 78.9976 45.0808 78.8415C44.8519 78.7842 44.8206 78.7582 44.753 78.6854C44.6958 78.623 44.6385 78.5085 44.5761 78.2796C44.3368 77.4263 44.3003 76.4897 44.2483 75.6052C44.1807 74.4086 44.165 73.2066 44.113 72.01C44.0142 69.7311 43.8529 67.3325 42.8123 65.2565C42.3596 64.3564 41.012 65.1472 41.4647 66.0422L41.4595 66.0526Z" fill="black"></path><path d="M107.231 29.1688C107.642 31.4581 107.158 33.8671 107.933 36.1044C108.073 36.4998 108.469 36.7652 108.896 36.6507C109.281 36.5466 109.577 36.0888 109.442 35.6881C108.672 33.4769 109.145 31.0315 108.739 28.7526C108.667 28.3363 108.157 28.1022 107.777 28.2063C107.34 28.3259 107.158 28.7474 107.231 29.1688Z" fill="black"></path><path d="M98.6715 37.1086C101.799 38.0763 105.108 37.1086 108.287 37.0826C110.097 37.067 111.929 37.2699 113.734 37.3687C115.706 37.478 117.678 37.5821 119.65 37.6913L118.895 37.119C119.208 38.7371 119.728 40.298 120.181 41.8797C120.545 43.1544 120.784 44.45 121.076 45.7403C121.336 46.885 121.617 48.0296 121.768 49.1951C121.861 49.9079 122.069 51.063 121.544 51.6665C121.018 52.2701 120.014 52.2492 119.301 52.2492C118.256 52.244 117.215 52.0984 116.18 51.9839C113.386 51.6873 110.545 52.1088 107.777 52.499C104.02 53.0245 100.258 53.6749 96.4498 53.5188C95.4457 53.4772 95.4457 55.038 96.4498 55.0797C100.024 55.2306 103.562 54.6738 107.09 54.1639C110.134 53.7217 113.25 53.2274 116.33 53.5656C118.214 53.7685 120.795 54.3148 122.402 52.9985C124.161 51.5625 123.292 48.5499 122.891 46.6925C122.59 45.3033 122.324 43.8933 121.976 42.5197C121.481 40.579 120.784 38.6903 120.404 36.7184C120.337 36.3698 119.978 36.1616 119.65 36.146C117.72 36.0368 115.789 35.9379 113.859 35.8287C112.074 35.7298 110.269 35.5425 108.479 35.5373C105.389 35.5217 102.111 36.5519 99.0826 35.6205C98.12 35.324 97.709 36.8276 98.6663 37.1242L98.6715 37.1086Z" fill="black"></path><path d="M103.432 54.221C103.979 55.4958 103.937 57.0723 103.932 58.425C103.927 59.9807 103.817 61.5364 103.724 63.0921C103.49 66.9892 103.12 70.9798 103.521 74.8768C103.625 75.8654 105.186 75.8758 105.082 74.8768C104.666 70.881 105.056 66.7758 105.3 62.7747C105.399 61.141 105.508 59.5073 105.488 57.8735C105.467 56.3751 105.373 54.8298 104.775 53.4354C104.379 52.5145 103.037 53.3105 103.427 54.221H103.432Z" fill="black"></path><path d="M103.505 75.2775C99.4572 78.4825 94.5404 80.6781 91.044 84.5595L91.5955 84.3306L91.7724 84.3775L92.1574 85.0538C92.1731 85.2047 92.1731 84.9134 92.1731 84.8353C92.1731 84.7 92.1522 84.5752 92.1158 84.4451C91.8661 83.4721 90.3624 83.8832 90.6122 84.8613C90.5601 84.6636 90.5966 84.9862 90.5966 85.0538C90.6122 85.2672 90.6746 85.4493 90.8255 85.6054C91.044 85.8343 91.3978 85.9227 91.6996 85.8811C92.0742 85.8291 92.2771 85.5169 92.5165 85.2672C92.7766 84.9966 93.0419 84.7365 93.3177 84.4815C94.4415 83.4409 95.6799 82.5304 96.939 81.6615C99.4936 79.8977 102.173 78.3108 104.608 76.3805C105.394 75.7561 104.286 74.6583 103.505 75.2775Z" fill="black"></path><path d="M70.5339 8.55442C70.5235 6.09862 70.0084 3.62719 70.331 1.17659L69.7587 1.93103C74.2124 0.713528 78.5829 2.83115 83.0419 2.71668C83.5205 2.70627 84.2021 2.5866 84.6444 2.82073C85.1283 3.07568 85.2583 3.83531 85.3572 4.32959C85.6798 5.96853 85.5185 7.6595 85.7162 9.30884C85.8359 10.2922 87.3968 10.3078 87.2771 9.30884C87.1054 7.86242 87.1782 6.40038 87.0169 4.95395C86.8765 3.73125 86.6423 2.18597 85.4769 1.50438C84.4675 0.911238 83.1615 1.2026 82.0533 1.16098C80.1178 1.09334 78.1979 0.588654 76.2884 0.302491C73.9731 -0.0461088 71.6317 -0.197 69.3476 0.427357C68.9782 0.526214 68.8221 0.833196 68.7753 1.1818C68.4475 3.6376 68.9626 6.10381 68.9782 8.55961C68.9782 9.56379 70.5443 9.56379 70.5391 8.55961L70.5339 8.55442Z" fill="black"></path><path d="M87.3654 10.2194C87.9897 9.81881 88.6766 9.89165 89.3581 10.105L88.7858 9.35055C88.7754 9.73037 88.8795 10.0998 88.8535 10.4796C88.8222 11.0051 89.3737 11.3433 89.842 11.234C93.3124 10.3911 96.866 11.3745 100.373 10.9166C101.715 10.7449 103.047 10.5056 104.395 10.3859C105.29 10.3027 106.663 10.1258 107.392 10.6045C107.475 10.6565 107.641 10.8334 107.761 11.0259C107.964 11.3589 108.104 11.6763 108.224 12.0353C108.521 12.9094 108.692 13.8303 108.822 14.746C109.145 17.0406 109.192 19.3819 109.202 21.7024C109.208 23.7264 109.129 25.7451 109.119 27.7691C109.119 28.7733 110.675 28.7733 110.68 27.7691C110.696 23.4454 110.956 19.1113 110.394 14.8085C110.17 13.1019 109.905 10.8334 108.578 9.57428C107.839 8.87188 106.778 8.76261 105.805 8.75741C104.343 8.747 102.875 8.99674 101.434 9.21006C99.7121 9.45981 98.0783 9.53265 96.3354 9.439C94.02 9.31933 91.7099 9.17885 89.431 9.73036L90.4196 10.4848C90.4404 10.105 90.3363 9.73556 90.3519 9.35575C90.3623 9.00715 90.1022 8.70538 89.7796 8.60132C88.713 8.26833 87.5475 8.25272 86.5849 8.87187C85.7421 9.41298 86.5225 10.7658 87.3706 10.2194H87.3654Z" fill="black"></path><path d="M66.5796 10.2243C66.5796 13.882 66.9698 17.5241 67.0635 21.1766C67.1415 24.2724 66.564 27.4826 67.5629 30.4899C67.6774 30.8333 67.9584 31.0414 68.3174 31.0622C70.6119 31.1923 72.922 31.1195 75.2113 31.3536C76.2103 31.4525 76.2051 29.8916 75.2113 29.7927C72.922 29.5638 70.6119 29.6314 68.3174 29.5013L69.0718 30.0737C68.0988 27.1444 68.7232 23.9862 68.6191 20.9685C68.4943 17.3836 68.1405 13.8144 68.1405 10.2243C68.1405 9.22015 66.5796 9.22015 66.5796 10.2243Z" fill="black"></path><path d="M74.6753 26.5048C74.618 28.2218 74.7533 29.9596 74.9822 31.661C75.1071 32.5663 75.2632 33.4768 75.5442 34.3509C75.7627 35.0325 76.0592 35.7765 76.6056 36.2656C77.0738 36.6819 77.6305 36.7183 78.2289 36.7755C79.0301 36.8484 79.8314 36.8796 80.6327 36.9004C81.3559 36.9212 82.0895 36.9368 82.8127 36.8952C83.5359 36.8535 83.9834 36.6298 84.3268 35.9846C84.8159 35.0637 84.8939 33.9295 84.9043 32.9045C84.9147 31.8795 84.8575 30.8597 84.5661 29.9076C84.2748 28.9554 82.7711 29.3561 83.0625 30.3238C83.2706 31.0158 83.3226 31.713 83.3382 32.4414C83.359 33.2479 83.3382 34.0856 83.1041 34.8608C83.0469 35.0585 82.9428 35.3863 82.8231 35.4175C82.9532 35.3811 83.0989 35.225 82.9324 35.3343C82.9428 35.3291 83.1509 35.3135 83.0208 35.3187C82.9532 35.3187 82.8803 35.3291 82.8127 35.3343C82.1727 35.3759 81.5276 35.3603 80.8876 35.3447C80.1384 35.3291 79.384 35.3031 78.6399 35.2458C78.5047 35.2354 78.3694 35.225 78.2341 35.2146C78.1717 35.2094 77.7606 35.1574 77.9739 35.1886C77.8907 35.1782 77.8127 35.1574 77.7294 35.147C77.693 35.1418 77.6618 35.1262 77.6254 35.121C77.5473 35.095 77.5889 35.1106 77.7398 35.173C77.7086 35.1574 77.6774 35.1366 77.6462 35.1158C77.6462 35.1158 77.7919 35.2354 77.667 35.1262C77.6202 35.0845 77.5785 35.0377 77.5369 34.9909C77.6358 35.1002 77.4173 34.8088 77.3808 34.7411C77.2195 34.455 77.1675 34.3041 77.0634 33.9815C76.8085 33.2063 76.6524 32.3946 76.5327 31.5881C76.283 29.918 76.1737 28.1958 76.231 26.5048C76.2674 25.5007 74.7065 25.5007 74.6701 26.5048H74.6753Z" fill="black"></path><path d="M84.7797 30.4122C86.7568 30.2353 88.7495 30.2301 90.7267 30.1624C91.1637 30.1468 91.4915 29.8138 91.5071 29.382C91.5956 27.2332 91.2262 25.0583 91.5227 22.9147C91.58 22.4984 91.4239 22.077 90.9764 21.9521C90.6122 21.8533 90.0763 22.077 90.0139 22.4985C89.6965 24.793 90.0347 27.0771 89.941 29.3768L90.7215 28.5963C88.7391 28.664 86.7464 28.6692 84.7745 28.8461C84.353 28.8825 83.994 29.1791 83.994 29.6265C83.994 30.022 84.353 30.4434 84.7745 30.407L84.7797 30.4122Z" fill="black"></path><path d="M110.191 16.0832C112.168 16.7596 114.197 16.4214 116.237 16.3642C118.474 16.3018 120.706 16.5775 122.933 16.7648C126.669 17.0822 130.493 17.384 134.244 17.2851C136.273 17.2331 138.334 17.0302 140.269 16.3798C141.216 16.0624 140.81 14.5536 139.853 14.8762C136.466 16.0156 132.73 15.8075 129.218 15.5994C127.454 15.4953 125.691 15.4069 123.932 15.282C121.778 15.1311 119.629 14.8553 117.465 14.8033C115.3 14.7513 112.808 15.3288 110.612 14.5744C109.66 14.2466 109.249 15.7555 110.196 16.078L110.191 16.0832Z" fill="black"></path><path d="M110.102 29.2415C114.254 28.1385 118.646 28.9918 122.865 29.0542C126.996 29.1115 131.122 29.1167 135.248 29.3196C136.253 29.3716 136.247 27.8107 135.248 27.7587C131.05 27.5506 126.851 27.5714 122.647 27.4881C118.443 27.4049 113.921 26.614 109.686 27.7379C108.718 27.9928 109.129 29.5017 110.102 29.2415Z" fill="black"></path><path d="M140.363 14.4339C140.399 12.1237 141.039 9.85523 140.878 7.5347L140.306 8.28914C143.11 7.83128 146.138 8.13824 148.932 8.53887C151.758 8.9447 154.801 8.61693 157.528 9.57428L156.955 8.81984C157.304 15.1519 157.111 21.5047 156.602 27.8263C156.487 29.2259 156.295 30.6255 156.222 32.0251C156.17 32.9877 156.258 33.9762 156.086 34.9336C156.034 35.2145 155.993 35.4643 155.821 35.5892C155.509 35.8129 155.03 35.8857 154.661 35.969C153.75 36.1719 152.824 36.2707 151.903 36.3956C148.35 36.8691 144.796 37.1032 141.211 37.098C140.207 37.098 140.207 38.6589 141.211 38.6589C144.583 38.6589 147.954 38.482 151.3 38.0398C152.372 37.8993 153.454 37.7796 154.52 37.5871C155.363 37.431 156.445 37.2489 157.059 36.5881C157.731 35.8597 157.72 34.611 157.751 33.6901C157.793 32.509 157.85 31.3539 157.96 30.1729C158.272 26.8169 158.501 23.4506 158.615 20.0791C158.74 16.3277 158.724 12.5712 158.521 8.82505C158.501 8.46084 158.287 8.19028 157.949 8.07061C155.119 7.07684 151.945 7.39423 149.005 6.98839C146.066 6.58256 142.892 6.30159 139.895 6.78547C139.577 6.8375 139.302 7.22773 139.322 7.53991C139.479 9.85523 138.844 12.1289 138.807 14.4391C138.792 15.4432 140.353 15.4432 140.368 14.4391L140.363 14.4339Z" fill="black"></path><path d="M139.4 7.58667C138.693 9.21 138.552 11.0102 138.521 12.7636C138.479 14.772 138.615 16.7855 138.714 18.7887C138.812 20.7918 138.734 22.8626 138.74 24.9074C138.74 27.306 139.036 29.6889 139.062 32.0875C139.073 33.05 139.062 34.023 139.161 34.9856C139.239 35.7504 139.343 36.6817 139.941 37.2384C140.68 37.92 141.783 36.817 141.045 36.1354C140.769 35.8805 140.717 35.0636 140.685 34.6057C140.623 33.7681 140.628 32.9304 140.618 32.0927C140.592 29.9127 140.326 27.7378 140.3 25.5578C140.274 23.5338 140.394 21.5203 140.3 19.4963C140.217 17.6232 140.087 15.7501 140.066 13.8719C140.046 11.9936 140.014 10.0529 140.743 8.37752C141.138 7.467 139.796 6.67096 139.395 7.59188L139.4 7.58667Z" fill="black"></path><path d="M157.522 13.8148C167.309 13.8408 177.08 14.2779 186.862 13.8877C189.531 13.7836 192.2 13.6691 194.875 13.6483V12.0874C194.495 12.103 194.25 12.2279 193.907 12.358C192.981 12.717 193.381 14.2258 194.323 13.8616C194.49 13.7992 194.698 13.6535 194.875 13.6483C195.874 13.6015 195.884 12.0822 194.875 12.0874C190.135 12.1238 185.4 12.4464 180.665 12.5245C175.769 12.6025 170.868 12.4464 165.972 12.358C163.157 12.306 160.342 12.2643 157.528 12.2591C156.523 12.2591 156.523 13.82 157.528 13.82L157.522 13.8148Z" fill="black"></path><path d="M194.183 11.6762C194.261 10.5523 193.912 9.49093 193.714 8.3983L193.168 9.36086C201.108 7.94045 209.198 7.56584 217.242 7.90403C218.538 7.95606 219.995 7.91963 221.066 8.77292C221.888 9.42329 222.279 10.4639 222.56 11.4368C223.522 14.798 223.73 18.2944 223.99 21.7595C224.162 24.0332 224.391 26.2913 224.448 28.5702C224.506 30.8491 224.454 33.1125 224.355 35.381L224.927 34.6265C219.979 35.4954 215.052 36.6869 210.005 36.7545C206.946 36.7962 203.902 37.1396 200.848 37.1604C200.072 37.1656 199.282 37.1604 198.506 37.0615C198.22 37.0251 197.939 36.9731 197.663 36.8898C197.611 36.8742 197.377 36.7858 197.445 36.8222C197.388 36.7962 197.138 36.6193 197.247 36.7181C196.488 36.0677 195.379 37.1708 196.144 37.8212C197.065 38.6068 198.459 38.6588 199.609 38.7056C201.29 38.7733 202.976 38.664 204.651 38.5548C208.621 38.2894 212.591 38.3206 216.529 37.7223C219.485 37.2748 222.404 36.6505 225.343 36.1302C225.687 36.0677 225.9 35.6983 225.916 35.3757C226.103 31.0989 225.968 26.8897 225.619 22.6285C225.307 18.8563 225.125 15.0685 224.162 11.3848C223.86 10.2245 223.439 9.07469 222.659 8.15376C221.878 7.23284 220.666 6.67093 219.443 6.48882C217.471 6.19745 215.395 6.25469 213.402 6.22867C211.28 6.20266 209.157 6.22866 207.039 6.31191C202.247 6.50442 197.466 7.00391 192.747 7.84679C192.304 7.92484 192.133 8.42432 192.2 8.80934C192.372 9.76669 192.684 10.6824 192.611 11.671C192.538 12.6595 194.105 12.67 194.172 11.671L194.183 11.6762Z" fill="black"></path><path d="M193.844 13.3831C192.929 16.4945 193.782 19.6943 193.995 22.8369C194.229 26.2865 193.98 29.7517 194.255 33.2012C194.333 34.195 195.894 34.2054 195.816 33.2012C195.546 29.8193 195.759 26.4321 195.572 23.0502C195.4 19.9961 194.458 16.817 195.348 13.7941C195.634 12.8264 194.125 12.4153 193.844 13.3779V13.3831Z" fill="black"></path><path d="M194.869 35.8807C194.781 35.9483 194.682 36.0159 194.604 36.0992C194.557 36.1564 194.51 36.2189 194.464 36.2761C194.458 36.2865 194.448 36.2969 194.443 36.3073C194.427 36.3281 194.417 36.3489 194.406 36.3697C194.365 36.4478 194.334 36.531 194.302 36.6091C194.292 36.6299 194.287 36.6559 194.282 36.6767C194.282 36.6871 194.282 36.7027 194.276 36.7131C194.266 36.7912 194.256 36.8692 194.245 36.9473C194.245 36.9733 194.245 36.9993 194.245 37.0253C194.245 37.1346 194.266 37.2334 194.313 37.3271C194.344 37.4259 194.396 37.5092 194.474 37.5768C194.547 37.6549 194.63 37.7069 194.724 37.7381C194.817 37.785 194.916 37.811 195.026 37.8058L195.234 37.7797C195.364 37.7433 195.478 37.6757 195.577 37.5768L195.697 37.4207C195.77 37.3011 195.801 37.1658 195.801 37.0253C195.801 36.9941 195.801 36.9629 195.806 36.9317L195.78 37.1398C195.785 37.0877 195.801 37.0409 195.822 36.9941L195.744 37.1814C195.764 37.1398 195.785 37.0982 195.816 37.0617L195.697 37.2178C195.733 37.1762 195.77 37.1346 195.816 37.1034L195.66 37.223H195.666C195.754 37.171 195.832 37.1034 195.884 37.0149C195.952 36.9421 195.999 36.8536 196.025 36.7495C196.056 36.6455 196.061 36.5414 196.04 36.4374C196.04 36.3333 196.004 36.2345 195.946 36.146L195.827 35.9899C195.728 35.8911 195.614 35.8286 195.483 35.787L195.275 35.761C195.135 35.761 195.005 35.7974 194.88 35.8651L194.869 35.8807Z" fill="black"></path><path d="M156.763 34.6213C162.356 34.793 167.954 34.767 173.542 34.5641C178.495 34.3872 183.47 34.0958 188.428 34.2467C190.468 34.3091 192.83 34.5173 194.76 33.7108C195.15 33.5495 195.421 33.1957 195.306 32.7483C195.207 32.3789 194.734 32.0407 194.344 32.2019C192.674 32.8991 190.67 32.7431 188.901 32.6962C186.747 32.639 184.619 32.6806 182.471 32.7222C176.992 32.8211 171.518 33.1229 166.04 33.1645C162.944 33.1853 159.853 33.1489 156.763 33.0552C155.758 33.024 155.758 34.5849 156.763 34.6161V34.6213Z" fill="black"></path><path d="M88.0575 47.608C86.7255 51.682 87.2094 56.1097 87.0741 60.3189C86.996 62.7487 86.9909 65.1369 87.1521 67.5666C87.3134 69.9964 87.5267 72.5719 87.4955 75.0797C87.4799 76.0839 89.0408 76.0839 89.0564 75.0797C89.0876 72.6083 88.8847 70.1525 88.7235 67.6863C88.5622 65.2201 88.5414 62.9204 88.6298 60.5166C88.7807 56.3803 88.2552 52.0201 89.5611 48.0191C89.8733 47.0617 88.3696 46.6507 88.0575 47.6028V47.608Z" fill="black"></path><path d="M89.0409 81.5419V81.3026C89.0409 81.1933 89.0253 81.0945 88.9733 81.0008C88.9421 80.9019 88.89 80.8187 88.812 80.7511C88.7391 80.673 88.6559 80.621 88.5622 80.5898C88.4686 80.543 88.3697 80.5169 88.2605 80.5221L88.0523 80.5481C87.9223 80.5846 87.8078 80.6522 87.709 80.7511L87.5893 80.9072C87.5165 81.0268 87.4852 81.1621 87.4852 81.3026V81.5419C87.4852 81.6512 87.5008 81.75 87.5529 81.8437C87.5841 81.9425 87.6361 82.0258 87.7142 82.0934C87.787 82.1715 87.8702 82.2235 87.9639 82.2547C88.0575 82.3015 88.1564 82.3276 88.2657 82.3224L88.4738 82.2963C88.6039 82.2599 88.7183 82.1923 88.8172 82.0934L88.9368 81.9373C89.0097 81.8177 89.0409 81.6824 89.0409 81.5419Z" fill="black"></path></svg> 