<?xml version="1.0" encoding="UTF-8"?> <svg xmlns="http://www.w3.org/2000/svg" width="91" height="120" viewBox="0 0 91 120" fill="none"><path d="M5.28909 18.4203V20.7561L1.00671 21.9805L1.84183 53.2068C1.84183 53.2068 4.3535 63.2535 6.86516 76.4397C9.37683 89.626 18.7956 102.184 18.7956 102.184C18.7956 102.184 14.2369 106.203 15.5744 106.705C16.9118 107.208 25.4578 118.322 25.4578 118.322C25.4578 118.322 71.2643 100.803 72.0303 100.238C72.7964 99.6727 83.6593 96.1626 84.1931 96.037C84.7268 95.9114 89.229 88.703 89.4864 87.5978C89.7439 86.4927 84.8901 81.4505 84.8901 81.4505L76.5513 82.248C76.5513 82.248 61.4437 64.0823 59.899 49.5398C58.3543 34.9973 60.866 16.1598 60.866 16.1598L64.0056 13.6481C64.0056 13.6481 63.1453 11.0799 64.5142 10.7974C65.8893 10.5085 68.401 8.78803 68.7149 8.39245C69.0289 7.99686 68.7463 1.12745 68.2628 1.42257C67.7793 1.71769 55.6668 1.41629 55.6668 1.41629C55.6668 1.41629 9.9859 2.43352 7.80075 2.07561C5.61561 1.7177 6.24353 2.97352 4.9877 4.22936C3.73187 5.48519 5.29537 18.4203 5.29537 18.4203H5.28909Z" fill="#4C4C4C"></path><path opacity="0.35" d="M9.06307 3.88374C8.74911 4.85701 11.5747 16.8376 11.5747 16.8376C11.5747 16.8376 65.3997 9.43451 63.7609 12.4862C62.122 15.5379 59.1457 17.8863 59.1457 17.8863C59.1457 17.8863 61.1927 25.8043 59.1457 26.0115C57.0987 26.2187 16.912 33.7537 17.5399 33.7537C18.1679 33.7537 17.9041 44.0453 18.9779 42.9778C20.0516 41.9166 53.0486 33.0567 53.0486 33.0567C53.0486 33.0567 54.6498 40.642 53.0486 40.9622C51.4474 41.2887 18.9779 49.5521 18.9779 49.5521L23.0468 59.875C23.0468 59.875 55.4787 48.3967 55.6608 49.5521C55.8429 50.7074 59.6103 58.2425 57.7266 58.8704C55.8428 59.4983 23.8442 68.7035 24.7736 69.1242C25.7029 69.5449 29.4704 78.9637 29.4704 78.9637L59.1457 67.4854C59.1457 67.4854 66.5174 75.8241 65.2616 76.452C64.0058 77.08 29.6022 88.1689 30.475 88.5896C31.3478 89.0103 33.9725 98.4103 34.8579 96.8467C35.7432 95.2895 74.9315 83.2586 74.492 84.2507C74.0524 85.2428 76.1999 84.9415 74.492 87.6038C72.7903 90.2662 24.7673 102.303 24.7673 102.303C24.7673 102.303 26.1738 107.967 26.5631 107.59C26.9524 107.214 90.3845 86.6117 89.1224 88.4389C87.8603 90.2662 83.7725 94.9127 81.7318 96.043C79.6974 97.1732 26.9524 116.011 26.3245 116.011C25.6966 116.011 16.6608 104.288 16.6608 104.288C16.6608 104.288 20.397 98.8121 18.3374 98.6175C16.2778 98.4228 8.22794 83.6605 3.77601 61.5327C-0.675918 39.405 1.20783 20.5675 1.83575 20.5675C2.46367 20.5675 5.5907 23.481 5.28302 20.7684C4.97534 18.0558 4.97533 6.12539 4.97533 4.24164C4.97533 2.35789 9.05679 3.89629 9.05679 3.89629L9.06307 3.88374Z" fill="black"></path><path opacity="0.35" d="M64.8784 2.74121C50.6561 4.50565 36.3082 5.25915 21.9791 4.98287C17.9604 4.90752 13.9418 4.74426 9.92939 4.51193C8.31565 4.41775 8.32192 6.92941 9.92939 7.0236C24.2396 7.86501 38.6 7.69546 52.8851 6.50242C56.8912 6.16962 60.8911 5.74893 64.8846 5.25287C65.5565 5.17124 66.1405 4.73798 66.1405 3.99704C66.1405 3.38168 65.5628 2.65958 64.8846 2.74121H64.8784Z" fill="white"></path><path opacity="0.35" d="M51.2212 29.0193C40.8543 31.7067 30.4873 34.3942 20.1142 37.0754C20.1142 36.5103 20.1142 35.9514 20.1142 35.3863C20.1142 34.727 19.5365 34.0991 18.8583 34.1305C18.1739 34.1619 17.6025 34.6831 17.6025 35.3863C17.6025 36.2654 17.6025 37.1445 17.6025 38.0236C17.3325 38.4254 17.3576 38.978 17.6025 39.3987C17.6025 39.4866 17.6025 39.5745 17.6025 39.6624C17.6025 40.3217 18.1802 40.9497 18.8583 40.9183C19.5365 40.8869 20.1079 40.372 20.1142 39.675L51.893 31.443C53.4566 31.0349 52.791 28.6174 51.2275 29.0193H51.2212Z" fill="white"></path><path opacity="0.35" d="M52.9292 44.9435C43.523 48.171 34.0101 51.0971 24.4156 53.7218C24.1707 52.7736 23.9195 51.8255 23.6746 50.8773C23.5114 50.2431 22.7704 49.7911 22.1299 49.9983C21.4769 50.2118 21.075 50.8648 21.2508 51.5429C21.9353 54.1676 22.626 56.7923 23.3104 59.417C23.4737 60.0512 24.2146 60.5033 24.8551 60.2961C25.5081 60.0826 25.91 59.4296 25.7342 58.7514C25.5081 57.8849 25.2821 57.0184 25.056 56.1518C34.6631 53.5209 44.1824 50.5948 53.6011 47.361C55.1207 46.8398 54.4676 44.4098 52.9355 44.9372L52.9292 44.9435Z" fill="white"></path><path opacity="0.35" d="M55.9245 64.8231C55.7612 64.2266 55.014 63.6866 54.3798 63.944C46.4994 67.1339 38.4433 69.6832 30.2427 71.8935C29.935 70.9328 29.6085 69.9846 29.238 69.0427C28.9994 68.4336 28.3841 67.9439 27.6934 68.1637C27.1031 68.352 26.5568 69.0553 26.8143 69.7083C27.6683 71.8684 28.3527 74.0975 28.855 76.3642C28.9994 77.0047 29.778 77.4443 30.3997 77.2433C31.0715 77.0236 31.4295 76.3831 31.2788 75.6987C31.172 75.234 31.059 74.7693 30.9397 74.3047C39.1277 72.1007 47.1776 69.5514 55.0517 66.3615C55.6796 66.1041 56.1254 65.5264 55.9308 64.8169L55.9245 64.8231Z" fill="white"></path><path opacity="0.35" d="M64.847 77.9401C55.3906 81.243 46.0283 84.8283 36.7791 88.6649C36.5468 88.2316 36.3207 87.7984 36.0884 87.3651C35.944 87.0951 35.63 86.8691 35.3349 86.7874C35.0335 86.7058 34.6316 86.7435 34.3679 86.913C33.7777 87.2961 33.5893 88.0119 33.9158 88.6335C34.2047 89.1798 34.4998 89.7324 34.7886 90.2787C34.7886 90.398 34.7886 90.5173 34.8263 90.6429C34.9017 90.9129 35.1026 91.1703 35.36 91.3524C35.3726 91.3775 35.3851 91.3963 35.3977 91.4215C35.5421 91.6915 35.8561 91.9175 36.1512 91.9992C36.4526 92.0808 36.8545 92.0431 37.1182 91.8736C37.451 91.6601 37.6519 91.3335 37.7084 90.9819C46.876 87.183 56.1441 83.6416 65.5126 80.3639C67.0259 79.8364 66.3791 77.4064 64.847 77.9401Z" fill="white"></path><path opacity="0.35" d="M88.3563 85.4126C86.5542 83.6481 84.1995 82.6058 81.6816 82.4425C80.363 82.3546 78.9941 82.9009 77.7006 82.6874C76.5955 82.5054 75.6661 81.5572 74.8624 80.8414C71.2393 77.6013 68.3195 73.6831 66.0276 69.407C60.9352 59.8878 59.2273 49.0437 58.8003 38.3754C58.6685 35.0851 58.6496 31.7885 58.681 28.4983C58.6936 26.8782 58.725 25.2582 58.7564 23.6382C58.7815 22.2128 58.7564 20.687 59.378 19.3621C60.0687 17.9116 57.9024 16.6369 57.2117 18.0937C55.9998 20.643 56.2384 23.6194 56.2007 26.3696C56.1568 29.4087 56.1379 32.4479 56.2007 35.487C56.3326 41.5526 56.791 47.6371 57.9463 53.5961C59.8866 63.6051 64.0497 73.5073 71.2644 80.8728C73.2361 82.8884 75.6222 85.4754 78.6927 85.1865C80.1558 85.0484 81.4869 84.791 82.9437 85.1489C84.3251 85.4942 85.5621 86.1849 86.5793 87.177C87.7347 88.3073 89.5117 86.5366 88.3563 85.4V85.4126Z" fill="white"></path><path d="M0.755589 21.3713C2.39445 21.9553 4.17774 21.139 5.68474 20.5236C6.19335 20.3164 6.43825 19.9208 6.34406 19.362C6.11801 18.0308 6.17452 16.6745 6.14312 15.3308C6.11173 14.0687 5.90451 12.8254 5.82288 11.5696C5.67218 9.25882 5.9359 6.99204 6.13684 4.70015C6.18707 4.11619 6.25615 3.51339 6.83383 3.23711C7.8385 2.75989 9.27015 2.9043 10.3439 2.96709C13.0062 3.13035 15.6561 3.52595 18.3247 3.70176C29.3509 4.43643 40.4336 3.98433 51.441 3.0613C56.9415 2.60292 62.6933 1.08334 68.1813 2.35801L67.4905 1.44755C67.6161 4.21038 67.9615 6.97948 67.6161 9.74231L68.3068 8.83183C66.6052 9.42207 64.3321 9.59789 63.497 11.4628C63.2207 12.0907 63.1516 12.8065 62.7749 13.3842C62.4358 13.9054 61.9272 14.2884 61.406 14.6087C58.8002 16.2099 55.6543 16.5552 52.9166 17.8676C51.824 18.395 52.7784 20.015 53.8647 19.4939C56.5522 18.2003 59.6039 17.855 62.2035 16.3229C63.4468 15.5945 64.4138 14.6338 64.8784 13.2524C65.117 12.5554 65.1547 11.9903 65.8517 11.6009C66.7433 11.0986 67.8359 10.9793 68.7966 10.6465C69.2362 10.4958 69.4308 10.1819 69.4873 9.73603C69.8327 6.9732 69.4873 4.20409 69.3618 1.44126C69.3429 1.03939 69.0854 0.631241 68.671 0.530774C63.5033 -0.668546 58.1911 0.461722 53.0171 1.02057C47.2905 1.63593 41.5011 1.91847 35.7431 2.08173C29.9851 2.24499 24.0136 2.19476 18.1677 1.79918C15.3672 1.6108 12.5667 1.13358 9.75991 1.04567C7.81337 0.982878 5.23263 1.07079 4.48541 3.24338C4.1589 4.18525 4.22797 5.24016 4.11494 6.21971C3.94541 7.6702 3.83866 9.11439 3.87633 10.5774C3.92029 12.1158 4.1903 13.6354 4.23425 15.1738C4.2782 16.7122 4.24053 18.3008 4.51054 19.8518L5.16984 18.6901C4.01447 19.1611 2.50121 19.9836 1.2391 19.5378C0.0962886 19.1297 -0.399777 20.9506 0.736752 21.3525L0.755589 21.3713Z" fill="black"></path><path d="M59.9996 17.6477C59.7799 17.5284 59.8678 17.4028 59.8803 17.6289C59.8929 17.811 59.8803 18.1877 59.8678 18.4389C59.8113 19.1422 59.6731 19.8391 59.5224 20.5298C59.2587 21.7543 58.8882 22.9599 58.6496 24.1906C58.1536 26.7462 58.1536 29.3458 58.2729 31.9391C58.3922 34.5324 58.4801 37.3517 58.4926 40.0643C58.524 45.4079 58.6434 50.8331 60.3638 55.9443C61.9525 60.6662 64.2569 65.25 66.8 69.5199C69.6507 74.2983 73.0163 78.7502 76.7022 82.9133C77.5059 83.8238 78.8372 82.4864 78.0334 81.5822C74.7306 77.846 71.6977 73.8776 69.073 69.6266C66.4295 65.3442 64.0497 60.7416 62.3732 55.9883C60.5397 50.8017 60.4078 45.3514 60.3764 39.9073C60.3638 37.1948 60.2759 34.4947 60.1503 31.7884C60.031 29.2516 59.9997 26.6646 60.5711 24.1718C60.8976 22.759 61.3057 21.365 61.5506 19.9333C61.739 18.8282 62.2225 16.6933 60.9478 16.0151C59.8803 15.4437 58.9259 17.07 59.9996 17.6414V17.6477Z" fill="black"></path><path d="M1.2203 20.7561C1.29565 26.489 -0.192514 32.1214 0.0209777 37.8542C0.240748 43.7315 0.749359 49.6026 1.31448 55.4547C2.3631 66.4558 4.8057 77.2748 9.18227 87.4471C10.413 90.3104 11.7316 93.1925 13.3768 95.8423C14.8586 98.2284 16.9747 100.187 18.1615 102.762L19.6433 101.619C19.4675 101.437 19.298 101.324 19.072 101.23C17.9668 100.759 17.0061 102.379 18.1238 102.856C18.1929 102.875 18.2619 102.906 18.3122 102.95C19.0971 103.767 20.2148 102.731 19.7941 101.808C18.7517 99.547 16.9935 97.7512 15.5745 95.7356C14.0298 93.5441 12.8681 91.045 11.7567 88.615C9.48996 83.667 7.68784 78.5181 6.30014 73.2624C3.43056 62.3806 2.5766 51.053 2.0052 39.851C1.83566 36.611 1.97379 33.4525 2.35054 30.2313C2.72729 27.0101 3.14799 23.9333 3.11032 20.7561C3.09148 19.5442 1.20773 19.5442 1.22657 20.7561H1.2203Z" fill="black"></path><path d="M18.8836 101.393C17.5462 101.362 16.3029 102.435 15.474 103.377C14.5698 104.401 13.9356 105.525 14.5887 106.862C15.2417 108.2 16.3405 109.355 17.3264 110.429C18.4189 111.615 19.5869 112.758 20.5539 114.052C20.8364 114.429 21.2697 114.642 21.7281 114.435C22.1488 114.246 22.4062 113.782 22.2743 113.323L22.2492 113.235V113.738C22.2744 113.644 22.3309 113.518 22.3686 113.411C22.7516 112.256 20.9369 111.766 20.5539 112.909C20.4597 113.192 20.3592 113.468 20.4597 113.826L22.1802 113.097C20.579 110.956 18.5069 109.217 16.9496 107.05C16.6796 106.674 16.3029 106.24 16.1836 105.782C16.1836 105.763 16.1585 105.663 16.2213 105.518C16.3029 105.33 16.4473 105.142 16.5729 104.978C17.0564 104.35 18.0108 103.245 18.8836 103.264C20.0955 103.296 20.0955 101.412 18.8836 101.38V101.393Z" fill="black"></path><path d="M23.9571 113.129C24.2397 112.369 24.2083 111.528 24.3025 110.737C24.3841 110.058 24.4908 109.713 25.1188 109.437C26.5818 108.803 28.2395 108.671 29.7465 108.181C32.0698 107.434 34.4056 106.737 36.7226 105.971C39.1024 105.192 41.4069 104.25 43.7427 103.365C48.4772 101.569 53.3876 100.282 58.1974 98.712C63.0072 97.1422 68.0306 95.4845 72.966 93.9147C78.2844 92.2256 83.628 90.6244 88.7518 88.3953C88.3688 87.8993 87.992 87.4095 87.609 86.9135C87.4771 87.0767 87.3515 87.24 87.2322 87.4095C86.5227 88.3953 88.1553 89.3372 88.8586 88.3577L88.9402 88.2446C89.6121 87.3907 88.802 86.3295 87.7974 86.7628C83.1571 88.7784 78.3033 90.2414 73.4871 91.7672C68.4073 93.3747 63.3463 95.045 58.279 96.6964C53.3687 98.2976 48.3642 99.6225 43.523 101.431C41.1306 102.329 38.7885 103.296 36.3584 104.093C33.9975 104.872 31.6114 105.581 29.2442 106.347C27.5237 106.9 25.6336 107.044 24.0136 107.867C22.0482 108.865 22.7766 110.912 22.1362 112.614C21.7092 113.751 23.5301 114.24 23.9508 113.116L23.9571 113.129Z" fill="black"></path><path d="M78.4289 83.4973C79.3645 82.8694 80.5387 82.6056 81.6501 82.4801C82.8243 82.3482 84.0739 82.3105 85.2356 82.568C86.2214 82.7877 86.7112 83.6982 87.1382 84.5334C87.6468 85.5255 88.0298 86.5992 88.6828 87.5097C89.3798 88.4892 91.0187 87.5473 90.3091 86.5615C88.9026 84.5961 88.4882 81.3686 85.7379 80.7533C84.3565 80.4456 82.8872 80.4456 81.4869 80.6152C80.0867 80.7847 78.655 81.0798 77.4808 81.871C76.4824 82.5429 77.4243 84.1754 78.4289 83.4973Z" fill="black"></path><path d="M89.5933 86.2227C88.0298 87.3027 87.8791 89.3372 86.9309 90.8442C86.3721 91.7358 85.7693 92.6149 85.1539 93.4688C84.5385 94.3228 83.9043 95.1391 83.0755 95.7293C82.6611 96.0244 82.4664 96.5519 82.7364 97.0166C82.975 97.4247 83.6092 97.6508 84.0237 97.3556C85.8697 96.0433 87.0314 94.0402 88.2809 92.2004C88.8021 91.4344 89.1349 90.5993 89.474 89.7453C89.6309 89.356 89.7942 88.9667 89.9889 88.5962C90.0831 88.4141 90.1898 88.2258 90.3154 88.0688C90.2903 88.1002 90.6293 87.7862 90.5351 87.849C90.9559 87.5601 91.1442 87.0201 90.8742 86.5618C90.6293 86.1473 90.0077 85.9339 89.587 86.2227H89.5933Z" fill="black"></path><path d="M83.3015 95.9299C75.5027 98.699 67.748 101.594 59.9869 104.463C56.1943 105.87 52.3891 107.264 48.6844 108.896C45.0551 110.498 41.589 112.413 37.8278 113.725C35.718 114.46 33.5328 114.912 31.423 115.628C29.3509 116.325 27.2599 117.16 25.0685 117.386L26.0104 118.328C26.0418 117.474 25.9476 116.632 25.6776 115.816C25.3009 114.667 23.4799 115.163 23.8629 116.318C24.0827 116.99 24.1518 117.624 24.1266 118.328C24.1078 118.799 24.5725 119.32 25.0685 119.27C27.059 119.069 28.9365 118.466 30.8202 117.825C32.704 117.185 34.5061 116.726 36.3647 116.18C40.2515 115.044 43.8369 113.248 47.4788 111.515C51.1647 109.763 54.9824 108.325 58.8064 106.906C62.6305 105.487 66.6429 103.999 70.5673 102.554C74.969 100.928 79.377 99.3207 83.8038 97.7509C84.9404 97.349 84.4506 95.528 83.3015 95.9362V95.9299Z" fill="black"></path><path d="M21.7343 102.096C23.4485 101.776 25.2067 101.675 26.9021 101.242C28.6916 100.784 30.3808 100.005 32.1892 99.5655C35.6929 98.7052 39.2972 98.2845 42.6691 96.947C43.7805 96.5075 43.297 94.6803 42.1667 95.1324C38.7948 96.4698 35.1906 96.8968 31.6868 97.7508C29.9287 98.184 28.2835 98.9313 26.5379 99.3959C24.7986 99.8543 22.9902 99.9548 21.232 100.288C20.039 100.514 20.5476 102.328 21.7343 102.102V102.096Z" fill="black"></path><path d="M8.28427 24.0904C8.27172 28.6176 8.03939 33.1512 8.14613 37.6785C8.25288 41.9985 8.66101 46.2998 9.31405 50.5696C9.96708 54.8394 10.8587 59.2914 11.9199 63.5863C12.956 67.7996 14.1113 72.0255 15.5932 76.1069C17.0751 80.1884 19.9509 83.6734 21.1817 87.8741C21.5207 89.0358 23.3417 88.5397 22.9964 87.3718C21.8975 83.6357 19.5616 80.4773 17.9604 76.9609C17.1065 75.0835 16.5414 73.0553 15.9386 71.0836C15.3044 69.0178 14.7204 66.9331 14.1741 64.8422C12.0015 56.4532 10.4255 47.8444 10.0801 39.1729C9.87917 34.1496 10.1555 29.12 10.168 24.0967C10.168 22.8848 8.29055 22.8848 8.28427 24.0967V24.0904Z" fill="black"></path><path d="M6.89036 18.8534C7.33618 20.6304 8.4162 22.0307 10.2434 22.4953C11.2732 22.7528 12.3532 22.7277 13.4019 22.7716C14.7833 22.8281 16.1647 22.916 17.5524 22.9223C23.2225 22.9349 28.8486 21.7795 34.5061 21.4844C37.6269 21.3211 40.7602 21.1956 43.837 20.5928C45.0237 20.3604 44.5214 18.5458 43.3346 18.7781C40.8167 19.2679 38.2548 19.4123 35.6929 19.5379C33.1247 19.6697 30.5691 19.8769 28.0072 20.1595C25.4453 20.442 22.8834 20.756 20.3089 20.9318C17.6905 21.1076 15.1035 20.9318 12.4914 20.8502C11.6625 20.8251 10.7834 20.8188 10.0362 20.4169C9.23876 19.9962 8.91224 19.1799 8.70503 18.3511C8.40991 17.1769 6.59524 17.6729 6.89036 18.8534Z" fill="black"></path><path d="M21.2698 46.8146C27.5238 44.6859 33.9286 43.0471 40.1889 40.9373C41.3317 40.5542 40.842 38.7333 39.6866 39.1226C33.4263 41.2324 27.0215 42.8713 20.7675 44.9999C19.6247 45.3892 20.1144 47.2102 21.2698 46.8146Z" fill="black"></path><path d="M25.709 64.5782C27.9632 64.0319 30.2802 63.8938 32.5533 63.448C34.7259 63.021 36.8671 62.3365 38.9643 61.6458C43.1588 60.2707 47.2591 58.5628 51.0643 56.3085C52.1066 55.6932 51.1584 54.0606 50.1161 54.6822C46.3674 56.9051 42.3362 58.5753 38.1983 59.9191C36.1387 60.5847 34.0415 61.2565 31.9128 61.6584C29.69 62.0791 27.4169 62.2298 25.2129 62.7635C24.0324 63.0523 24.5348 64.867 25.7153 64.5782H25.709Z" fill="black"></path></svg> 