<?xml version="1.0" encoding="UTF-8"?> <svg xmlns="http://www.w3.org/2000/svg" width="97" height="105" viewBox="0 0 97 105" fill="none"><path d="M9.87308 52.072L9.51784 56.5201L0.431441 63.3176L5.76738 67.3532L9.07584 71.4795L15.9864 72.8215L16.3429 78.3971L13.1102 89.2636L17.8031 93.0051L28.0735 86.3567L27.8711 100.032L35.5609 94.6638L41.4872 89.6606L46.0606 100.062L52.3936 104.303L54.9228 87.9987L62.5592 95.5728L69.0412 95.8497L66.9836 82.3968L77.7891 87.8843L81.3128 83.3026L84.2653 78.4427L91.596 75.9758L95.0939 70.6688L85.0433 61.6845L97 58.2501L82.78 52.072L83.2509 47.5461L87.083 41.9577L79.859 39.2557L91.472 28.2324L81.6809 27.4872L78.4623 23.3667L72.1075 22.6665L76.3057 8.26474L63.4284 18.9649L61.0746 12.4816L55.677 13.0758L52.2612 0.946289L46.0606 8.45939L40.5332 6.54498L34.2478 4.13397L29.0776 7.29339L25.2835 12.4829L19.3417 13.3656L16.6249 18.846L12.6869 22.5065L7.21026 25.2542L2.40624 29.1575L11.8774 39.1099L5.85217 42.1575L4.1382 46.9776L9.87308 52.072Z" fill="url(#paint0_radial_11_24290)"></path><path d="M47.7219 83.5634C31.5966 83.5634 18.5245 70.4913 18.5245 54.366C18.5245 38.2408 31.5966 25.1687 47.7219 25.1687C63.8471 25.1687 76.9192 38.2408 76.9192 54.366C76.9192 70.4913 63.8471 83.5634 47.7219 83.5634Z" fill="#CCCCCC"></path><path d="M47.7218 83.3462C31.7165 83.3462 18.7416 70.3713 18.7416 54.366C18.7416 38.3606 31.7165 25.3857 47.7218 25.3857C63.7272 25.3857 76.702 38.3606 76.702 54.366C76.702 70.3713 63.7272 83.3462 47.7218 83.3462Z" fill="url(#paint1_linear_11_24290)"></path><path d="M47.7218 83.1292C31.8364 83.1292 18.9587 70.2515 18.9587 54.3661C18.9587 38.4807 31.8364 25.603 47.7218 25.603C63.6072 25.603 76.4849 38.4807 76.4849 54.3661C76.4849 70.2515 63.6072 83.1292 47.7218 83.1292Z" fill="url(#paint2_linear_11_24290)"></path><path d="M47.7218 82.9114C31.9567 82.9114 19.1765 70.1312 19.1765 54.3661C19.1765 38.601 31.9567 25.8208 47.7218 25.8208C63.4869 25.8208 76.2671 38.601 76.2671 54.3661C76.2671 70.1312 63.4869 82.9114 47.7218 82.9114Z" fill="url(#paint3_linear_11_24290)"></path><path d="M47.7218 82.6941C32.0766 82.6941 19.3936 70.0112 19.3936 54.366C19.3936 38.7208 32.0766 26.0378 47.7218 26.0378C63.367 26.0378 76.0499 38.7208 76.0499 54.366C76.0499 70.0112 63.367 82.6941 47.7218 82.6941Z" fill="url(#paint4_linear_11_24290)"></path><path d="M47.7218 82.4772C32.1965 82.4772 19.6107 69.8914 19.6107 54.3661C19.6107 38.8409 32.1965 26.2551 47.7218 26.2551C63.247 26.2551 75.8328 38.8409 75.8328 54.3661C75.8328 69.8914 63.247 82.4772 47.7218 82.4772Z" fill="url(#paint5_linear_11_24290)"></path><path d="M47.7218 82.2593C32.3168 82.2593 19.8285 69.7711 19.8285 54.3661C19.8285 38.9611 32.3168 26.4729 47.7218 26.4729C63.1268 26.4729 75.615 38.9611 75.615 54.3661C75.615 69.7711 63.1268 82.2593 47.7218 82.2593Z" fill="url(#paint6_linear_11_24290)"></path><path d="M47.7217 82.0421C32.4367 82.0421 20.0457 69.6511 20.0457 54.366C20.0457 39.081 32.4367 26.6899 47.7217 26.6899C63.0068 26.6899 75.3978 39.081 75.3978 54.366C75.3978 69.6511 63.0068 82.0421 47.7217 82.0421Z" fill="url(#paint7_linear_11_24290)"></path><path d="M47.7218 81.8251C32.5567 81.8251 20.2629 69.5314 20.2629 54.3662C20.2629 39.201 32.5567 26.9072 47.7218 26.9072C62.887 26.9072 75.1808 39.201 75.1808 54.3662C75.1808 69.5314 62.887 81.8251 47.7218 81.8251Z" fill="url(#paint8_linear_11_24290)"></path><path d="M47.7218 81.6071C32.677 81.6071 20.4807 69.4108 20.4807 54.3659C20.4807 39.321 32.677 27.1248 47.7218 27.1248C62.7667 27.1248 74.963 39.321 74.963 54.3659C74.963 69.4108 62.7667 81.6071 47.7218 81.6071Z" fill="url(#paint9_linear_11_24290)"></path><path d="M47.7218 81.3904C32.7969 81.3904 20.6978 69.2913 20.6978 54.3663C20.6978 39.4414 32.7969 27.3423 47.7218 27.3423C62.6468 27.3423 74.7458 39.4414 74.7458 54.3663C74.7458 69.2913 62.6468 81.3904 47.7218 81.3904Z" fill="url(#paint10_linear_11_24290)"></path><path d="M47.7218 81.1729C32.9167 81.1729 20.9149 69.171 20.9149 54.366C20.9149 39.5609 32.9167 27.5591 47.7218 27.5591C62.5268 27.5591 74.5287 39.5609 74.5287 54.366C74.5287 69.171 62.5268 81.1729 47.7218 81.1729Z" fill="url(#paint11_linear_11_24290)"></path><path d="M47.7218 80.9551C33.037 80.9551 21.1327 69.0507 21.1327 54.366C21.1327 39.6812 33.037 27.7769 47.7218 27.7769C62.4066 27.7769 74.3109 39.6812 74.3109 54.366C74.3109 69.0507 62.4066 80.9551 47.7218 80.9551Z" fill="url(#paint12_linear_11_24290)"></path><path d="M47.7218 80.7379C33.1569 80.7379 21.3498 68.9307 21.3498 54.3659C21.3498 39.801 33.1569 27.9939 47.7218 27.9939C62.2866 27.9939 74.0938 39.801 74.0938 54.3659C74.0938 68.9307 62.2866 80.7379 47.7218 80.7379Z" fill="url(#paint13_linear_11_24290)"></path><path d="M47.7219 80.5209C33.2769 80.5209 21.567 68.811 21.567 54.366C21.567 39.9211 33.2769 28.2112 47.7219 28.2112C62.1668 28.2112 73.8767 39.9211 73.8767 54.366C73.8767 68.811 62.1668 80.5209 47.7219 80.5209Z" fill="url(#paint14_linear_11_24290)"></path><path d="M47.7219 80.3031C33.3972 80.3031 21.7848 68.6907 21.7848 54.366C21.7848 40.0414 33.3972 28.429 47.7219 28.429C62.0465 28.429 73.6589 40.0414 73.6589 54.366C73.6589 68.6907 62.0465 80.3031 47.7219 80.3031Z" fill="url(#paint15_linear_11_24290)"></path><path d="M47.7219 80.0861C33.5171 80.0861 22.0019 68.5709 22.0019 54.3662C22.0019 40.1614 33.5171 28.6462 47.7219 28.6462C61.9266 28.6462 73.4418 40.1614 73.4418 54.3662C73.4418 68.5709 61.9266 80.0861 47.7219 80.0861Z" fill="url(#paint16_linear_11_24290)"></path><path d="M47.7218 79.8689C33.637 79.8689 22.219 68.4509 22.219 54.3661C22.219 40.2813 33.637 28.8633 47.7218 28.8633C61.8066 28.8633 73.2246 40.2813 73.2246 54.3661C73.2246 68.4509 61.8066 79.8689 47.7218 79.8689Z" fill="url(#paint17_linear_11_24290)"></path><path d="M47.7218 79.6511C33.7573 79.6511 22.4368 68.3306 22.4368 54.3661C22.4368 40.4015 33.7573 29.0811 47.7218 29.0811C61.6864 29.0811 73.0068 40.4015 73.0068 54.3661C73.0068 68.3306 61.6864 79.6511 47.7218 79.6511Z" fill="url(#paint18_linear_11_24290)"></path><path d="M47.7218 79.4341C33.8772 79.4341 22.6539 68.2108 22.6539 54.3662C22.6539 40.5216 33.8772 29.2983 47.7218 29.2983C61.5664 29.2983 72.7897 40.5216 72.7897 54.3662C72.7897 68.2108 61.5664 79.4341 47.7218 79.4341Z" fill="url(#paint19_linear_11_24290)"></path><path d="M47.7218 79.2168C33.9971 79.2168 22.871 68.0908 22.871 54.3661C22.871 40.6414 33.9971 29.5154 47.7218 29.5154C61.4465 29.5154 72.5725 40.6414 72.5725 54.3661C72.5725 68.0908 61.4465 79.2168 47.7218 79.2168Z" fill="url(#paint20_linear_11_24290)"></path><path d="M47.7218 78.9991C34.1174 78.9991 23.0888 67.9705 23.0888 54.3661C23.0888 40.7617 34.1174 29.7332 47.7218 29.7332C61.3262 29.7332 72.3547 40.7617 72.3547 54.3661C72.3547 67.9705 61.3262 78.9991 47.7218 78.9991Z" fill="url(#paint21_linear_11_24290)"></path><path d="M47.7218 78.7818C34.2373 78.7818 23.3059 67.8505 23.3059 54.366C23.3059 40.8815 34.2373 29.9502 47.7218 29.9502C61.2062 29.9502 72.1376 40.8815 72.1376 54.366C72.1376 67.8505 61.2062 78.7818 47.7218 78.7818Z" fill="url(#paint22_linear_11_24290)"></path><path d="M47.7219 78.5648C34.3573 78.5648 23.5232 67.7307 23.5232 54.3662C23.5232 41.0016 34.3573 30.1675 47.7219 30.1675C61.0864 30.1675 71.9205 41.0016 71.9205 54.3662C71.9205 67.7307 61.0864 78.5648 47.7219 78.5648Z" fill="url(#paint23_linear_11_24290)"></path><path d="M47.7219 78.347C34.4776 78.347 23.741 67.6104 23.741 54.3662C23.741 41.1219 34.4776 30.3853 47.7219 30.3853C60.9662 30.3853 71.7028 41.1219 71.7028 54.3662C71.7028 67.6104 60.9662 78.347 47.7219 78.347Z" fill="url(#paint24_linear_11_24290)"></path><path d="M47.7218 78.1298C34.5975 78.1298 23.9581 67.4904 23.9581 54.3661C23.9581 41.2417 34.5975 30.6023 47.7218 30.6023C60.8462 30.6023 71.4856 41.2417 71.4856 54.3661C71.4856 67.4904 60.8462 78.1298 47.7218 78.1298Z" fill="url(#paint25_linear_11_24290)"></path><path d="M47.7217 77.9126C34.7173 77.9126 24.1751 67.3704 24.1751 54.366C24.1751 41.3615 34.7173 30.8193 47.7217 30.8193C60.7261 30.8193 71.2683 41.3615 71.2683 54.366C71.2683 67.3704 60.7261 77.9126 47.7217 77.9126Z" fill="url(#paint26_linear_11_24290)"></path><path d="M47.7218 77.6948C34.8377 77.6948 24.393 67.2501 24.393 54.366C24.393 41.4818 34.8377 31.0371 47.7218 31.0371C60.606 31.0371 71.0507 41.4818 71.0507 54.366C71.0507 67.2501 60.606 77.6948 47.7218 77.6948Z" fill="url(#paint27_linear_11_24290)"></path><path d="M47.7218 77.4778C34.9576 77.4778 24.6101 67.1303 24.6101 54.3661C24.6101 41.6019 34.9576 31.2544 47.7218 31.2544C60.486 31.2544 70.8335 41.6019 70.8335 54.3661C70.8335 67.1303 60.486 77.4778 47.7218 77.4778Z" fill="url(#paint28_linear_11_24290)"></path><path d="M47.7218 77.2606C35.0775 77.2606 24.8272 67.0103 24.8272 54.366C24.8272 41.7217 35.0775 31.4714 47.7218 31.4714C60.3661 31.4714 70.6163 41.7217 70.6163 54.366C70.6163 67.0103 60.3661 77.2606 47.7218 77.2606Z" fill="url(#paint29_linear_11_24290)"></path><path d="M47.7218 77.0428C35.1977 77.0428 25.045 66.89 25.045 54.366C25.045 41.842 35.1977 31.6892 47.7218 31.6892C60.2458 31.6892 70.3986 41.842 70.3986 54.366C70.3986 66.89 60.2458 77.0428 47.7218 77.0428Z" fill="url(#paint30_linear_11_24290)"></path><path d="M47.7218 76.8255C35.3176 76.8255 25.2621 66.77 25.2621 54.3659C25.2621 41.9618 35.3176 31.9062 47.7218 31.9062C60.1259 31.9062 70.1814 41.9618 70.1814 54.3659C70.1814 66.77 60.1259 76.8255 47.7218 76.8255Z" fill="url(#paint31_linear_11_24290)"></path><path d="M40.7895 75.6116L44.0704 75.8481L47.2015 76.6781L50.3218 75.2834L53.4613 75.3373L56.3528 74.1591L59.4833 73.4216L61.8603 71.2927L64.9709 69.9622L66.5911 67.0944L67.326 63.8817L69.3226 61.3628L69.3933 58.1584L70.3486 55.1628L70.9563 51.9699L70.4032 48.7913L70.1481 45.4359L67.6016 43.0602L66.0489 40.2869L63.3712 38.4855L61.6386 35.6473L59.2231 33.3205L56.0721 32.2772L52.9101 31.3785L49.6376 31.1305L46.3548 31.0059L43.1254 31.6194L40.158 33.0109L37.2055 34.3111L33.985 35.4186L31.4899 37.662L30.2436 40.8895L28.5283 43.5896L26.2291 46.1657L25.3612 49.406L25.6496 52.7723L25.9439 56.0031L25.6156 59.3809L26.7636 62.5114L29.4136 64.8139L30.8603 67.6302L32.1747 70.823L35.257 72.2402L38.1697 73.5784L40.7895 75.6116Z" fill="black"></path><path d="M45.3551 39.1857C44.3322 39.4633 43.017 40.1501 41.6287 41.1L40.4743 41.8891L40.0066 41.6553C39.7436 41.5238 39.3783 41.29 39.1883 41.1438C38.6184 40.6908 38.5453 40.8224 38.9545 41.5676C39.8313 43.1897 42.1548 45.4548 44.5076 47.033C45.9251 47.9683 45.9689 47.9829 47.5179 47.5883C48.0878 47.4568 48.2924 47.4714 48.7454 47.6468C49.0523 47.7783 49.4615 47.8806 49.6807 47.8806C50.4698 47.8806 53.5386 45.6886 55.0292 44.0519C55.906 43.0874 57.2943 41.1438 57.2943 40.8662C57.2943 40.6324 57.0751 40.6908 56.7682 41.0269C56.4028 41.4215 55.7891 41.743 55.3799 41.743C55.1899 41.743 54.6785 41.4507 54.2401 41.1C53.334 40.3986 52.2234 39.7994 51.0105 39.3756C49.9145 38.9811 46.4657 38.8642 45.3551 39.1857Z" fill="#D6D6D6"></path><path d="M38.9107 44.9872C38.3408 46.1709 38.1654 47.2523 38.0046 50.6426C37.7416 56.4879 37.4932 58.1539 36.5141 60.7843C36.1926 61.6611 35.9734 62.4063 36.0026 62.4502C36.0464 62.494 36.6894 62.0556 37.4347 61.4857C38.1654 60.9012 38.8522 60.4628 38.9399 60.492C39.0276 60.5212 39.5683 61.2957 40.1528 62.2018C40.7227 63.1224 41.2634 63.8969 41.3511 63.9261C41.4242 63.9554 42.0233 63.5023 42.6663 62.947L43.8354 61.9095L44.0984 62.2602C44.2592 62.4502 45.0483 63.6777 45.8813 64.9929C47.5618 67.6818 47.8687 68.1056 48.0733 67.9887C48.1463 67.9448 49.0231 66.6004 50.0168 65.0221C50.9959 63.4439 51.8581 62.0849 51.902 62.0118C51.9604 61.9387 52.5157 62.3479 53.1733 62.9178C53.8163 63.4877 54.4009 63.9554 54.4885 63.9554C54.5762 63.9554 55.1461 63.1662 55.7599 62.2018C56.3737 61.2373 56.9436 60.4482 57.0167 60.4482C57.1043 60.4482 57.7912 60.945 58.5511 61.5588C59.311 62.1725 59.9539 62.6548 59.9978 62.6255C60.027 62.5963 59.764 61.7926 59.4132 60.8573C58.3757 58.11 58.3172 57.6862 57.8788 49.8535C57.7327 47.0623 57.6304 46.5508 57.0459 45.2064L56.6659 44.3588L56.3006 44.6949C56.1106 44.8849 55.7453 45.2795 55.5115 45.5863L55.0585 46.1563L55.3215 47.2084C55.5699 48.2021 55.5699 48.2898 55.3361 49.0205C55.0292 49.9265 54.0501 50.8764 53.1441 51.1102C52.165 51.3586 51.8143 51.5924 51.7704 51.987C51.712 52.5131 52.0773 52.9076 53.4802 53.7698C54.167 54.1936 54.737 54.6028 54.7662 54.6759C54.7954 54.7635 54.2693 55.1581 53.6117 55.5527C51.259 56.9702 50.6598 57.9347 49.0231 62.9178C48.4678 64.5691 48.0148 65.9574 47.9856 65.9866C47.8833 66.1181 47.781 65.8405 47.3718 64.3792C46.8019 62.3479 45.589 59.1768 44.946 58.0369C44.3615 56.9702 43.8208 56.4587 42.4033 55.6257C41.848 55.2896 41.3073 54.9389 41.2342 54.8366C41.1027 54.6905 41.4096 54.4274 42.491 53.7114L43.9231 52.7761V52.1331V51.4755L43.0901 51.2271C41.9356 50.891 41.278 50.438 40.8689 49.7365C40.3866 48.889 40.3136 48.246 40.562 47.223C40.752 46.3755 40.752 46.3316 40.4159 45.7617C40.2259 45.4402 39.8752 44.9872 39.6413 44.768L39.2029 44.3588L38.9107 44.9872Z" fill="#D6D6D6"></path><path d="M42.0964 48.0267C42.0964 48.6405 42.4325 49.2543 42.9002 49.4589C43.4847 49.7219 44.873 49.6927 44.873 49.415C44.873 49.1958 42.5641 47.5883 42.2572 47.5883C42.1695 47.5883 42.0964 47.7929 42.0964 48.0267Z" fill="#D6D6D6"></path><path d="M52.7495 47.9976C52.4573 48.2168 51.9166 48.5675 51.5366 48.7867C50.5575 49.3712 50.6306 49.6343 51.785 49.6343C53.2025 49.6343 54.1086 48.9036 53.8748 47.9684C53.7578 47.4861 53.4364 47.5007 52.7495 47.9976Z" fill="#D6D6D6"></path><path d="M47.2403 49.2833C46.3343 49.751 45.8374 50.7447 45.6182 52.5713C45.5013 53.4335 45.3844 53.8427 45.2237 53.945C45.0922 54.0181 44.8145 54.2226 44.6245 54.3834L44.2738 54.6757L45.1944 55.6401C46.2174 56.7069 46.8311 57.7445 47.4449 59.4689C47.9125 60.8133 47.971 60.7987 48.6724 59.0305C49.2862 57.4376 49.9876 56.3124 50.8937 55.3917L51.6243 54.6318L50.9813 54.1934L50.3237 53.7404L50.2361 52.5275C50.0461 50.0432 48.6724 48.5673 47.2403 49.2833Z" fill="#D6D6D6"></path><defs><radialGradient id="paint0_radial_11_24290" cx="0" cy="0" r="1" gradientUnits="userSpaceOnUse" gradientTransform="translate(48.7157 52.6245) scale(57.7008 53.9113)"><stop offset="0.59" stop-color="#CCCCCC"></stop><stop offset="1" stop-color="#44556D"></stop></radialGradient><linearGradient id="paint1_linear_11_24290" x1="47.7221" y1="83.3464" x2="47.7221" y2="25.386" gradientUnits="userSpaceOnUse"><stop offset="0.251" stop-color="#CECECE"></stop><stop offset="0.7922" stop-color="#C5C5C5"></stop></linearGradient><linearGradient id="paint2_linear_11_24290" x1="47.7221" y1="83.1292" x2="47.7221" y2="25.6035" gradientUnits="userSpaceOnUse"><stop offset="0.251" stop-color="#CFCFCF"></stop><stop offset="0.7922" stop-color="#BFBFBF"></stop></linearGradient><linearGradient id="paint3_linear_11_24290" x1="47.7221" y1="82.9118" x2="47.7221" y2="25.8209" gradientUnits="userSpaceOnUse"><stop offset="0.251" stop-color="#D1D1D1"></stop><stop offset="0.7922" stop-color="#B8B8B8"></stop></linearGradient><linearGradient id="paint4_linear_11_24290" x1="47.722" y1="82.6944" x2="47.722" y2="26.0381" gradientUnits="userSpaceOnUse"><stop offset="0.251" stop-color="#D3D3D3"></stop><stop offset="0.7922" stop-color="#B2B2B2"></stop></linearGradient><linearGradient id="paint5_linear_11_24290" x1="47.722" y1="82.4772" x2="47.722" y2="26.2556" gradientUnits="userSpaceOnUse"><stop offset="0.251" stop-color="#D4D4D4"></stop><stop offset="0.7922" stop-color="#ABABAB"></stop></linearGradient><linearGradient id="paint6_linear_11_24290" x1="47.722" y1="82.2598" x2="47.722" y2="26.473" gradientUnits="userSpaceOnUse"><stop offset="0.251" stop-color="#D6D6D6"></stop><stop offset="0.7922" stop-color="#A5A5A5"></stop></linearGradient><linearGradient id="paint7_linear_11_24290" x1="47.722" y1="82.0424" x2="47.722" y2="26.6902" gradientUnits="userSpaceOnUse"><stop offset="0.251" stop-color="#D8D8D8"></stop><stop offset="0.7922" stop-color="#9E9E9E"></stop></linearGradient><linearGradient id="paint8_linear_11_24290" x1="47.7221" y1="81.8252" x2="47.7221" y2="26.9077" gradientUnits="userSpaceOnUse"><stop offset="0.251" stop-color="#D9D9D9"></stop><stop offset="0.7922" stop-color="#979797"></stop></linearGradient><linearGradient id="paint9_linear_11_24290" x1="47.7221" y1="81.6076" x2="47.7221" y2="27.1248" gradientUnits="userSpaceOnUse"><stop offset="0.251" stop-color="#DBDBDB"></stop><stop offset="0.7922" stop-color="#919191"></stop></linearGradient><linearGradient id="paint10_linear_11_24290" x1="47.7221" y1="81.3906" x2="47.7221" y2="27.3425" gradientUnits="userSpaceOnUse"><stop offset="0.251" stop-color="#DCDCDC"></stop><stop offset="0.7922" stop-color="#8A8A8A"></stop></linearGradient><linearGradient id="paint11_linear_11_24290" x1="47.722" y1="81.1729" x2="47.722" y2="27.5595" gradientUnits="userSpaceOnUse"><stop offset="0.251" stop-color="#DEDEDE"></stop><stop offset="0.7922" stop-color="#848484"></stop></linearGradient><linearGradient id="paint12_linear_11_24290" x1="47.7221" y1="80.9555" x2="47.7221" y2="27.7769" gradientUnits="userSpaceOnUse"><stop offset="0.251" stop-color="#E0E0E0"></stop><stop offset="0.7922" stop-color="#7D7D7D"></stop></linearGradient><linearGradient id="paint13_linear_11_24290" x1="47.722" y1="80.7381" x2="47.722" y2="27.9942" gradientUnits="userSpaceOnUse"><stop offset="0.251" stop-color="#E1E1E1"></stop><stop offset="0.7922" stop-color="#767676"></stop></linearGradient><linearGradient id="paint14_linear_11_24290" x1="47.7221" y1="80.5209" x2="47.7221" y2="28.2116" gradientUnits="userSpaceOnUse"><stop offset="0.251" stop-color="#E3E3E3"></stop><stop offset="0.7922" stop-color="#707070"></stop></linearGradient><linearGradient id="paint15_linear_11_24290" x1="47.7221" y1="80.3035" x2="47.7221" y2="28.429" gradientUnits="userSpaceOnUse"><stop offset="0.251" stop-color="#E5E5E5"></stop><stop offset="0.7922" stop-color="#696969"></stop></linearGradient><linearGradient id="paint16_linear_11_24290" x1="47.7221" y1="80.0863" x2="47.7221" y2="28.6465" gradientUnits="userSpaceOnUse"><stop offset="0.251" stop-color="#E6E6E6"></stop><stop offset="0.7922" stop-color="#636363"></stop></linearGradient><linearGradient id="paint17_linear_11_24290" x1="47.7221" y1="79.8689" x2="47.7221" y2="28.8637" gradientUnits="userSpaceOnUse"><stop offset="0.251" stop-color="#E8E8E8"></stop><stop offset="0.7922" stop-color="#5C5C5C"></stop></linearGradient><linearGradient id="paint18_linear_11_24290" x1="47.7221" y1="79.6516" x2="47.7221" y2="29.0811" gradientUnits="userSpaceOnUse"><stop offset="0.251" stop-color="#EAEAEA"></stop><stop offset="0.7922" stop-color="#565656"></stop></linearGradient><linearGradient id="paint19_linear_11_24290" x1="47.7221" y1="79.4343" x2="47.7221" y2="29.2986" gradientUnits="userSpaceOnUse"><stop offset="0.251" stop-color="#EBEBEB"></stop><stop offset="0.7922" stop-color="#4F4F4F"></stop></linearGradient><linearGradient id="paint20_linear_11_24290" x1="47.722" y1="79.2169" x2="47.722" y2="29.5158" gradientUnits="userSpaceOnUse"><stop offset="0.251" stop-color="#EDEDED"></stop><stop offset="0.7922" stop-color="#484848"></stop></linearGradient><linearGradient id="paint21_linear_11_24290" x1="47.722" y1="78.9996" x2="47.722" y2="29.7332" gradientUnits="userSpaceOnUse"><stop offset="0.251" stop-color="#EFEFEF"></stop><stop offset="0.7922" stop-color="#424242"></stop></linearGradient><linearGradient id="paint22_linear_11_24290" x1="47.722" y1="78.7821" x2="47.722" y2="29.9505" gradientUnits="userSpaceOnUse"><stop offset="0.251" stop-color="#F0F0F0"></stop><stop offset="0.7922" stop-color="#3B3B3B"></stop></linearGradient><linearGradient id="paint23_linear_11_24290" x1="47.7221" y1="78.5649" x2="47.7221" y2="30.1679" gradientUnits="userSpaceOnUse"><stop offset="0.251" stop-color="#F2F2F2"></stop><stop offset="0.7922" stop-color="#353535"></stop></linearGradient><linearGradient id="paint24_linear_11_24290" x1="47.7221" y1="78.3475" x2="47.7221" y2="30.3853" gradientUnits="userSpaceOnUse"><stop offset="0.251" stop-color="#F3F3F3"></stop><stop offset="0.7922" stop-color="#2E2E2E"></stop></linearGradient><linearGradient id="paint25_linear_11_24290" x1="47.7221" y1="78.1301" x2="47.7221" y2="30.6025" gradientUnits="userSpaceOnUse"><stop offset="0.251" stop-color="#F5F5F5"></stop><stop offset="0.7922" stop-color="#272727"></stop></linearGradient><linearGradient id="paint26_linear_11_24290" x1="47.7219" y1="77.9126" x2="47.7219" y2="30.8198" gradientUnits="userSpaceOnUse"><stop offset="0.251" stop-color="#F7F7F7"></stop><stop offset="0.7922" stop-color="#212121"></stop></linearGradient><linearGradient id="paint27_linear_11_24290" x1="47.7221" y1="77.6953" x2="47.7221" y2="31.0372" gradientUnits="userSpaceOnUse"><stop offset="0.251" stop-color="#F8F8F8"></stop><stop offset="0.7922" stop-color="#1A1A1A"></stop></linearGradient><linearGradient id="paint28_linear_11_24290" x1="47.7221" y1="77.478" x2="47.7221" y2="31.2547" gradientUnits="userSpaceOnUse"><stop offset="0.251" stop-color="#FAFAFA"></stop><stop offset="0.7922" stop-color="#141414"></stop></linearGradient><linearGradient id="paint29_linear_11_24290" x1="47.722" y1="77.2606" x2="47.722" y2="31.4719" gradientUnits="userSpaceOnUse"><stop offset="0.251" stop-color="#FCFCFC"></stop><stop offset="0.7922" stop-color="#0D0D0D"></stop></linearGradient><linearGradient id="paint30_linear_11_24290" x1="47.722" y1="77.0433" x2="47.722" y2="31.6893" gradientUnits="userSpaceOnUse"><stop offset="0.251" stop-color="#FDFDFD"></stop><stop offset="0.7922" stop-color="#070707"></stop></linearGradient><linearGradient id="paint31_linear_11_24290" x1="47.722" y1="76.8258" x2="47.722" y2="31.9065" gradientUnits="userSpaceOnUse"><stop offset="0.251" stop-color="white"></stop><stop offset="0.7922"></stop></linearGradient></defs></svg> 