<?xml version="1.0" encoding="UTF-8"?> <svg xmlns="http://www.w3.org/2000/svg" width="79" height="57" viewBox="0 0 79 57" fill="none"><path d="M29.2294 8.2648L35.8019 0L77.7406 4.1324C77.7406 4.1324 76.6251 12.4162 76.6758 18.0126C76.7265 23.6091 75.8455 22.3606 75.8455 22.3606C75.8455 22.3606 76.6251 26.3852 76.6758 30.0676C76.7265 33.75 77.4491 35.3598 74.2357 37.7239C71.0223 40.088 64.0378 43.669 64.678 48.2197C65.3181 52.7704 62.878 53.3978 61.566 50.2288C60.2477 47.0598 60.8878 44.195 61.8385 39.6063C62.7892 35.0176 63.5181 29.2436 61.566 28.331C59.6139 27.4183 42.4822 28.331 42.4822 28.331C42.4822 28.331 26.3836 27.3422 24.6217 28.331C22.8597 29.3197 19.9696 35.233 22.6822 41.1464C25.3949 47.0598 26.8083 50.2288 26.8083 50.2288C26.8083 50.2288 20.1217 52.9668 18.9492 43.9922C17.783 35.0176 16.8893 27.7922 16.8893 27.7922L2.84424 28.331V16.9479L7.48367 16.2951L8.86536 8.25846H29.2294V8.2648Z" fill="#878787"></path><path opacity="0.35" d="M29.2295 8.26477C29.2295 8.26477 32.6584 4.2211 32.671 3.93589C32.6837 3.65068 75.6745 7.80843 76.6759 8.26477C77.6773 8.7211 78.2097 11.2309 76.6759 11.5605C75.1421 11.8901 29.2295 8.26477 29.2295 8.26477Z" fill="black"></path><path opacity="0.35" d="M8.8653 14.5835C8.8653 14.5835 77.7786 14.3807 78.0448 16.3075C78.311 18.2342 78.0321 18.6145 76.904 20.3258C75.7758 22.037 75.142 18.868 75.7758 22.037C76.4096 25.2061 76.8532 27.6969 76.6314 28.9898C76.4096 30.2828 62.1237 38.1356 62.1237 38.1356C62.1237 38.1356 61.2934 28.3117 61.5659 28.3434C61.8385 28.3751 2.84418 28.3434 2.84418 28.3434L57.3955 24.5723L55.7033 20.3258L2.64136 20.0152L3.20545 18.0251L8.8653 17.5814V14.5899V14.5835Z" fill="black"></path><path opacity="0.35" d="M49.8598 23.4065C38.2739 23.8629 26.669 23.7298 15.0958 23.0009C12.1169 22.8108 9.14437 22.5763 6.17184 22.3101C6.25423 21.1946 6.34298 20.0791 6.42537 18.9636C6.47608 18.2981 5.80425 17.6643 5.15777 17.696C4.4289 17.7277 3.94087 18.2537 3.89017 18.9636C3.70636 21.3847 3.52256 23.8058 3.33876 26.227C3.28806 26.8924 3.95989 27.5262 4.60637 27.4946C5.33524 27.4629 5.82327 26.9368 5.87397 26.227L5.9817 24.8262C17.2697 25.8403 28.6084 26.303 39.9471 26.1889C43.2492 26.1572 46.5577 26.0685 49.8598 25.9417C51.4887 25.8784 51.495 23.3431 49.8598 23.4065Z" fill="white"></path><path opacity="0.35" d="M74.3308 11.6812C65.6667 11.6431 57.0026 11.6115 48.3386 11.5734C44.0351 11.5544 39.7252 11.5354 35.4217 11.5227C31.1942 11.5037 26.9351 11.6305 22.714 11.3769C18.3217 11.1108 14.0309 10.0143 9.63229 10.4326C9.39144 10.122 9.01115 9.91285 8.63087 9.93186C7.90833 9.96355 7.40763 10.4896 7.36326 11.1995C7.29355 12.334 7.22382 13.4622 7.1541 14.5967C7.10973 15.2622 7.76889 15.896 8.4217 15.8643C9.14424 15.8326 9.64494 15.3065 9.68931 14.5967C9.721 14.0453 9.75905 13.4938 9.79074 12.9424C13.7457 12.4734 17.7323 13.5065 21.6618 13.8424C25.8576 14.2037 30.1168 14.0452 34.3189 14.0579C42.8245 14.0896 51.3301 14.1277 59.8357 14.1593L74.3308 14.2164C75.9596 14.2227 75.966 11.6875 74.3308 11.6812Z" fill="white"></path><path d="M2.56537 29.0091C3.39565 30.0295 3.12314 31.8358 2.9837 33.0274C2.7999 34.5738 2.43227 36.095 2.29284 37.6478C2.15974 39.1182 2.23581 40.6457 2.30553 42.1224C2.38158 43.8084 2.54004 45.5196 2.94567 47.1675C3.31962 48.6949 3.97875 49.8992 4.9865 51.0971C6.20973 52.5548 7.56607 53.9999 9.18226 55.0266C10.5449 55.895 11.9013 56.1231 13.4858 55.971C15.666 55.7555 17.8654 55.7111 20.0583 55.6985C22.6759 55.6858 25.2935 55.9583 27.9111 55.876C30.5287 55.7936 33.1653 55.4576 35.8019 55.6415L35.3202 53.8668C35.1301 53.9555 34.8576 53.9365 34.6548 53.9619C33.4505 54.095 33.4379 56.0027 34.6548 55.8633C35.2252 55.7999 35.7512 55.7555 36.2773 55.5083C37.1963 55.071 36.6512 53.7971 35.7956 53.7337C33.4632 53.5689 31.1435 53.8098 28.8111 53.9302C26.4787 54.0506 24.3745 53.8478 22.1499 53.8098C19.9316 53.7654 17.7133 53.8097 15.5013 53.9111C13.9738 53.9809 12.2816 54.4626 10.8428 53.7781C9.17592 52.9858 7.82592 51.49 6.64071 50.121C5.66465 48.9929 5.06891 47.9217 4.72665 46.4576C4.36539 44.8921 4.24494 43.2823 4.1879 41.6788C4.1372 40.2337 4.06114 38.7443 4.23227 37.3055C4.59354 34.3013 6.05762 30.3084 3.91537 27.6654C3.14213 26.7147 1.80481 28.0647 2.57171 29.0091H2.56537Z" fill="black"></path><path d="M42.197 32.2099C42.2097 34.7071 42.2223 37.2486 42.4315 39.7331C42.5266 40.8423 42.6407 41.9451 42.6787 43.0606C42.704 43.9099 42.742 44.8353 42.4568 45.6529C42.1273 46.5972 41.0181 47.7887 40.2449 48.6317C39.028 49.9437 37.716 51.1733 36.347 52.3268C35.2632 53.2394 33.8435 54.412 32.6519 54.8747C31.5238 55.312 32.0118 57.1564 33.159 56.7064C34.547 56.1676 35.7512 55.2296 36.9047 54.3106C38.3815 53.138 39.7759 51.8641 41.0878 50.5078C42.1526 49.4049 43.3061 48.2007 44.0097 46.8254C44.8843 45.1204 44.6181 42.9782 44.466 41.1402C44.2188 38.174 44.1238 35.1888 44.1047 32.2036C44.0984 30.9803 42.197 30.9803 42.2033 32.2036L42.197 32.2099Z" fill="black"></path><path d="M16.2997 31.8994C15.6216 33.5789 15.9511 35.6705 16.1983 37.4008C16.4709 39.2831 16.8511 41.2099 17.4976 43.0099C18.1821 44.9113 19.285 46.6416 20.9709 47.8014C22.6695 48.9676 24.78 49.2972 26.8018 49.1071C27.5941 49.031 28.0948 48.1056 27.4737 47.4845C25.3821 45.374 23.9054 42.8831 23.3857 39.9296C22.885 37.0712 23.2526 34.086 23.6645 31.2465C23.8357 30.0486 22.004 29.5353 21.8328 30.7395C21.3638 33.9529 20.9899 37.2106 21.554 40.4366C22.118 43.6627 23.8293 46.5022 26.13 48.8282L26.8018 47.2056C25.0335 47.3704 23.2399 47.1486 21.7821 46.0522C20.4511 45.0508 19.6336 43.5106 19.1455 41.9514C18.6575 40.3923 18.3026 38.7381 18.0617 37.1029C17.8399 35.6325 17.5547 33.8198 18.1314 32.3937C18.5878 31.2592 16.7497 30.7648 16.2997 31.8867V31.8994Z" fill="black"></path><path d="M0.911084 29.2815C4.84699 29.1991 8.78289 29.104 12.6998 28.6921C14.7596 28.4766 16.7815 28.1977 18.8604 28.2167C20.8251 28.2357 22.7772 28.3879 24.742 28.4639C28.9251 28.6224 33.1272 28.2611 37.3167 28.3118C41.5885 28.3625 45.8603 28.5906 50.1131 28.9519C52.5089 29.1547 54.873 29.2815 57.2814 29.2244C59.6645 29.1674 62.0476 29.047 64.4307 29.1231C65.6539 29.1611 65.6539 27.2597 64.4307 27.2217C60.1779 27.0949 55.9251 27.5703 51.6786 27.1963C47.4195 26.816 43.154 26.5372 38.8758 26.4421C36.7589 26.3977 34.6357 26.3914 32.5188 26.4294C30.4019 26.4674 28.3357 26.6259 26.2378 26.6005C22.1625 26.5562 18.1822 26.1062 14.1195 26.6259C9.74626 27.1836 5.32235 27.2914 0.917428 27.3801C-0.305809 27.4055 -0.305809 29.3069 0.917428 29.2815H0.911084Z" fill="black"></path><path d="M2.60353 28.5212C4.45423 24.3761 3.11691 19.9205 3.67466 15.5853C3.13592 15.8072 2.59086 16.0353 2.05213 16.2571C3.38311 17.8163 5.98803 17.6515 7.8324 17.6578C8.85915 17.6642 9.01761 16.4156 8.31409 15.8832C8.40916 15.9529 8.24436 15.6614 8.219 15.5536C8.14929 15.3001 8.14298 15.0339 8.13665 14.774C8.12397 14.0325 8.2127 13.2909 8.33312 12.5557C8.56129 11.1931 8.91621 9.86207 9.19508 8.51207L8.02253 9.17755C8.63732 9.34868 9.29648 9.38674 9.93028 9.45012C10.4627 9.50083 11.0204 9.62123 11.5211 9.39306C12.1613 9.10785 12.1232 8.04939 11.5211 7.7515C11.3563 7.66911 11.2613 7.64377 11.0965 7.61208C9.8986 7.42194 9.38523 9.25364 10.5895 9.44378C10.7226 9.46279 10.8493 9.53249 10.5641 9.38672V7.74519C11.1599 7.479 11.0141 7.63108 10.6085 7.59939C10.3549 7.58038 10.1077 7.55504 9.85422 7.52968C9.41056 7.48532 8.95425 7.44729 8.5296 7.33321C8.06059 7.20645 7.46479 7.49165 7.35704 7.99869C7.00211 9.68461 6.56481 11.3515 6.34298 13.0628C6.15284 14.5776 5.98806 16.4917 7.34439 17.5184L7.82605 15.7438C6.52676 15.7374 4.3338 16.0036 3.38944 14.9008C2.78733 14.1973 1.862 14.8501 1.76693 15.5726C1.26622 19.4895 2.61622 23.8184 0.95566 27.5452C0.461295 28.6543 2.09648 29.624 2.59719 28.5022L2.60353 28.5212Z" fill="black"></path><path d="M75.4337 22.3669C75.44 24.75 75.7823 27.1204 75.9027 29.4972C76.0168 31.6838 76.1435 34.257 75.1294 36.2788C74.2358 38.0535 72.2773 39.2387 70.6421 40.2528C68.9245 41.3239 67.0992 42.3126 65.6478 43.745C63.8731 45.4943 63.0618 47.7633 63.0935 50.2351L64.8682 49.7534C64.2534 48.7837 63.3344 47.9598 62.8463 46.914C62.39 45.9443 62.5041 44.7401 62.5675 43.7006C62.6689 41.983 62.7323 40.2591 62.8781 38.5415C63.0238 36.8239 63.2203 34.9732 63.2647 33.1796C63.2964 31.931 63.3978 30.226 62.6309 29.1422C61.9273 28.1535 60.2794 29.0978 60.9893 30.0992C61.5978 30.9549 61.3886 32.8183 61.3316 33.9401C61.2492 35.7084 61.0527 37.464 60.9196 39.2324C60.7865 41.0007 60.6471 42.8894 60.6217 44.7021C60.6091 45.7859 60.6978 46.895 61.2048 47.8711C61.7372 48.9105 62.6055 49.7281 63.2266 50.7105C63.721 51.4837 65.0076 51.2049 65.0013 50.2288C64.9759 48.1119 65.6731 46.3056 67.2386 44.8605C68.69 43.5232 70.49 42.6168 72.1442 41.5584C73.8492 40.4683 75.7759 39.1499 76.7393 37.3119C77.8358 35.2204 77.9182 32.6915 77.8485 30.3845C77.7724 27.7098 77.3541 25.0479 77.3414 22.3669C77.3414 21.1437 75.4336 21.1437 75.44 22.3669H75.4337Z" fill="black"></path><path d="M76.1245 9.45625C76.1498 11.0724 76.3273 12.676 76.5491 14.2795C76.7519 15.7436 77.1259 17.252 77.0879 18.7351C77.0689 19.4513 76.8597 19.8126 76.4224 20.2816C75.7125 21.0422 75.0407 21.7964 74.4766 22.6774C73.8111 23.7105 75.459 24.6612 76.1182 23.6344C77.1322 22.0626 78.8055 21.0358 78.9766 19.0394C79.097 17.607 78.7231 16.1112 78.5139 14.6978C78.2604 12.9612 78.0513 11.2246 78.0259 9.46259C78.0069 8.23936 76.1055 8.23936 76.1245 9.46259V9.45625Z" fill="black"></path><path d="M2.36262 17.7781C4.50487 18.8619 6.9767 18.5894 9.29642 18.5133C12.1358 18.4182 15.0197 18.6147 17.8654 18.6844C23.9056 18.8365 29.9267 19.4767 35.9668 19.7682C39.44 19.933 42.9196 20.0281 46.3992 20.0408C47.6224 20.0408 47.6224 18.1457 46.3992 18.1394C40.4858 18.1203 34.5851 17.8478 28.6844 17.4358C25.6929 17.2267 22.7077 16.9478 19.7161 16.8401C16.7816 16.7323 13.8471 16.7133 10.9189 16.6119C8.50416 16.5232 5.57601 17.2711 3.32601 16.1429C2.23587 15.5915 1.27249 17.233 2.36897 17.7844L2.36262 17.7781Z" fill="black"></path><path d="M10.7287 9.61474C19.0569 9.62742 27.385 9.55772 35.7069 9.91265C43.9526 10.2676 52.1413 11.3577 60.3744 11.8901C64.9822 12.188 69.6153 12.4859 74.2357 12.5049C75.4589 12.5049 75.4589 10.6098 74.2357 10.6035C65.9646 10.5718 57.6744 9.8366 49.4477 9.05069C41.2336 8.26477 33.0385 7.82111 24.7864 7.74506C20.1026 7.70069 15.4125 7.71971 10.7287 7.70703C9.50547 7.70703 9.50547 9.60844 10.7287 9.60844V9.61474Z" fill="black"></path><path d="M30.1421 9.10143C30.3829 8.23946 30.9406 7.51693 31.3906 6.7627C31.7899 6.09087 32.0625 5.37469 32.3857 4.67116C32.6709 4.0437 32.9815 3.36555 33.4822 2.87119C33.9766 2.3895 34.6167 2.2944 35.2885 2.25004C36.8604 2.14229 38.4449 2.26273 40.0231 2.2247C42.159 2.17399 44.2949 2.34514 46.4244 2.40218C50.9371 2.50993 55.4181 2.83316 59.9181 3.15006C64.0948 3.44161 68.1765 4.40499 72.3406 4.81062C73.0505 4.88034 73.7667 4.88035 74.4765 4.93739C74.8885 4.96908 75.7758 4.95004 76.08 5.26694C76.4476 5.64722 76.3272 6.83879 76.3652 7.3078C76.4286 8.10005 76.53 8.87961 76.923 9.58313C77.5188 10.6543 79.1603 9.69721 78.5646 8.62608C77.8674 7.37749 78.4568 5.72327 77.7913 4.43032C77.1258 3.13736 75.3385 3.093 74.0836 3.01061C69.9448 2.74441 65.8885 1.81908 61.7625 1.40711C56.9899 0.925419 52.1477 0.608508 47.3561 0.526114C45.0174 0.488086 42.6787 0.291609 40.3336 0.329637C38.5907 0.354989 36.816 0.221895 35.0794 0.374008C34.2047 0.450064 33.3554 0.602184 32.6266 1.13458C31.8914 1.67331 31.378 2.45286 30.9724 3.25145C30.5667 4.05005 30.2752 4.91835 29.8252 5.70426C29.2738 6.65497 28.6209 7.53597 28.3167 8.61343C27.9871 9.7923 29.8188 10.2993 30.1484 9.12047L30.1421 9.10143Z" fill="black"></path><path d="M42.0767 28.9836C42.0894 29.4145 42.1021 29.8519 42.045 30.2829L42.0767 30.0294C42.045 30.2765 41.9816 30.5174 41.8866 30.7456L41.9816 30.5174C41.9563 30.5744 41.9309 30.6314 41.8992 30.6885C41.7851 30.9167 41.7344 31.1702 41.8042 31.4237C41.8675 31.6456 42.0323 31.8864 42.2415 31.9941C42.4633 32.1082 42.7295 32.1716 42.9767 32.0892C43.2049 32.0132 43.433 31.8737 43.5471 31.6519C43.7943 31.1702 43.9084 30.6885 43.9591 30.1561C43.9971 29.7695 43.9844 29.3765 43.9718 28.9899C43.9654 28.7427 43.8703 28.4955 43.6929 28.3181C43.5281 28.1533 43.2556 28.0265 43.0211 28.0392C42.7865 28.0519 42.5204 28.1279 42.3492 28.3181C42.1781 28.5082 42.064 28.7364 42.0704 28.9899L42.0767 28.9836Z" fill="black"></path><path d="M51.8243 20.8837C53.6243 21.6315 55.6398 21.1118 57.5031 20.9597C58.625 20.8646 59.7595 20.909 60.8813 20.928C62.0792 20.947 63.201 20.7569 64.3862 20.6682C66.6362 20.5034 68.8609 21.2576 71.1172 21.2322C73.1771 21.2132 75.2242 20.9724 77.2841 20.9661C78.5073 20.9661 78.5073 19.0583 77.2841 19.0647C75.3066 19.071 73.3418 19.2928 71.3707 19.3308C69.1207 19.3752 66.9278 18.678 64.6841 18.7541C63.5623 18.7921 62.4785 19.0456 61.3503 19.033C60.2221 19.0203 59.0116 18.9633 57.8391 19.033C56.0517 19.1407 54.0616 19.7618 52.3313 19.0456C51.2032 18.5766 50.7088 20.4146 51.8243 20.8773V20.8837Z" fill="black"></path></svg> 