<?xml version="1.0" encoding="UTF-8"?> <svg xmlns="http://www.w3.org/2000/svg" width="98" height="105" viewBox="0 0 98 105" fill="none"><path d="M88.1157 52.072L88.4709 56.5201L97.5573 63.3176L92.2214 67.3532L88.9129 71.4795L82.0024 72.8215L81.6459 78.3971L84.8785 89.2636L80.1857 93.0051L69.9153 86.3567L70.1176 100.032L62.4279 94.6638L56.5016 89.6606L51.9282 100.062L45.5952 104.303L43.066 87.9987L35.4295 95.5728L28.9475 95.8497L31.0052 82.3968L20.1997 87.8843L16.676 83.3026L13.7235 78.4427L6.3928 75.9758L2.89483 70.6688L12.9455 61.6845L0.98877 58.2501L15.2087 52.072L14.7378 47.5461L10.9058 41.9577L18.1298 39.2557L6.51679 28.2324L16.3079 27.4872L19.5264 23.3667L25.8812 22.6665L21.683 8.26474L34.5603 18.9649L36.9142 12.4816L42.3118 13.0758L45.7275 0.946289L51.9282 8.45939L57.4555 6.54498L63.741 4.13397L68.9112 7.29339L72.7053 12.4829L78.6471 13.3656L81.3638 18.846L85.3019 22.5065L90.7785 25.2542L95.5825 29.1575L86.1113 39.1099L92.1366 42.1575L93.8506 46.9776L88.1157 52.072Z" fill="url(#paint0_radial_11_24289)"></path><path d="M50.2669 83.5634C66.3922 83.5634 79.4643 70.4913 79.4643 54.366C79.4643 38.2408 66.3922 25.1687 50.2669 25.1687C34.1417 25.1687 21.0696 38.2408 21.0696 54.366C21.0696 70.4913 34.1417 83.5634 50.2669 83.5634Z" fill="#CCCCCC"></path><path d="M50.2669 83.3462C66.2723 83.3462 79.2471 70.3713 79.2471 54.366C79.2471 38.3606 66.2723 25.3857 50.2669 25.3857C34.2616 25.3857 21.2867 38.3606 21.2867 54.366C21.2867 70.3713 34.2616 83.3462 50.2669 83.3462Z" fill="url(#paint1_linear_11_24289)"></path><path d="M50.2668 83.1292C66.1523 83.1292 79.0299 70.2515 79.0299 54.3661C79.0299 38.4807 66.1523 25.603 50.2668 25.603C34.3814 25.603 21.5038 38.4807 21.5038 54.3661C21.5038 70.2515 34.3814 83.1292 50.2668 83.1292Z" fill="url(#paint2_linear_11_24289)"></path><path d="M50.267 82.9114C66.0321 82.9114 78.8123 70.1312 78.8123 54.3661C78.8123 38.601 66.0321 25.8208 50.267 25.8208C34.5018 25.8208 21.7217 38.601 21.7217 54.3661C21.7217 70.1312 34.5018 82.9114 50.267 82.9114Z" fill="url(#paint3_linear_11_24289)"></path><path d="M50.2669 82.6941C65.9121 82.6941 78.595 70.0112 78.595 54.366C78.595 38.7208 65.9121 26.0378 50.2669 26.0378C34.6217 26.0378 21.9387 38.7208 21.9387 54.366C21.9387 70.0112 34.6217 82.6941 50.2669 82.6941Z" fill="url(#paint4_linear_11_24289)"></path><path d="M50.267 82.4772C65.7923 82.4772 78.378 69.8914 78.378 54.3661C78.378 38.8409 65.7923 26.2551 50.267 26.2551C34.7417 26.2551 22.156 38.8409 22.156 54.3661C22.156 69.8914 34.7417 82.4772 50.267 82.4772Z" fill="url(#paint5_linear_11_24289)"></path><path d="M50.2669 82.2593C65.6719 82.2593 78.1601 69.7711 78.1601 54.3661C78.1601 38.9611 65.6719 26.4729 50.2669 26.4729C34.8619 26.4729 22.3737 38.9611 22.3737 54.3661C22.3737 69.7711 34.8619 82.2593 50.2669 82.2593Z" fill="url(#paint6_linear_11_24289)"></path><path d="M50.267 82.0421C65.5521 82.0421 77.9431 69.6511 77.9431 54.366C77.9431 39.081 65.5521 26.6899 50.267 26.6899C34.9819 26.6899 22.5909 39.081 22.5909 54.366C22.5909 69.6511 34.9819 82.0421 50.267 82.0421Z" fill="url(#paint7_linear_11_24289)"></path><path d="M50.2669 81.8251C65.4321 81.8251 77.7259 69.5314 77.7259 54.3662C77.7259 39.201 65.4321 26.9072 50.2669 26.9072C35.1018 26.9072 22.808 39.201 22.808 54.3662C22.808 69.5314 35.1018 81.8251 50.2669 81.8251Z" fill="url(#paint8_linear_11_24289)"></path><path d="M50.2669 81.6071C65.3118 81.6071 77.5081 69.4108 77.5081 54.3659C77.5081 39.321 65.3118 27.1248 50.2669 27.1248C35.222 27.1248 23.0258 39.321 23.0258 54.3659C23.0258 69.4108 35.222 81.6071 50.2669 81.6071Z" fill="url(#paint9_linear_11_24289)"></path><path d="M50.267 81.3904C65.1919 81.3904 77.291 69.2913 77.291 54.3663C77.291 39.4414 65.1919 27.3423 50.267 27.3423C35.342 27.3423 23.2429 39.4414 23.2429 54.3663C23.2429 69.2913 35.342 81.3904 50.267 81.3904Z" fill="url(#paint10_linear_11_24289)"></path><path d="M50.2669 81.1729C65.0719 81.1729 77.0738 69.171 77.0738 54.366C77.0738 39.5609 65.0719 27.5591 50.2669 27.5591C35.4618 27.5591 23.46 39.5609 23.46 54.366C23.46 69.171 35.4618 81.1729 50.2669 81.1729Z" fill="url(#paint11_linear_11_24289)"></path><path d="M50.267 80.9551C64.9517 80.9551 76.8561 69.0507 76.8561 54.366C76.8561 39.6812 64.9517 27.7769 50.267 27.7769C35.5822 27.7769 23.6779 39.6812 23.6779 54.366C23.6779 69.0507 35.5822 80.9551 50.267 80.9551Z" fill="url(#paint12_linear_11_24289)"></path><path d="M50.2669 80.7379C64.8317 80.7379 76.6389 68.9307 76.6389 54.3659C76.6389 39.801 64.8317 27.9939 50.2669 27.9939C35.702 27.9939 23.8949 39.801 23.8949 54.3659C23.8949 68.9307 35.702 80.7379 50.2669 80.7379Z" fill="url(#paint13_linear_11_24289)"></path><path d="M50.2669 80.5209C64.7118 80.5209 76.4218 68.811 76.4218 54.366C76.4218 39.9211 64.7118 28.2112 50.2669 28.2112C35.822 28.2112 24.1121 39.9211 24.1121 54.366C24.1121 68.811 35.822 80.5209 50.2669 80.5209Z" fill="url(#paint14_linear_11_24289)"></path><path d="M50.2669 80.3031C64.5915 80.3031 76.2039 68.6907 76.2039 54.366C76.2039 40.0414 64.5915 28.429 50.2669 28.429C35.9422 28.429 24.3298 40.0414 24.3298 54.366C24.3298 68.6907 35.9422 80.3031 50.2669 80.3031Z" fill="url(#paint15_linear_11_24289)"></path><path d="M50.2669 80.0861C64.4716 80.0861 75.9869 68.5709 75.9869 54.3662C75.9869 40.1614 64.4716 28.6462 50.2669 28.6462C36.0622 28.6462 24.547 40.1614 24.547 54.3662C24.547 68.5709 36.0622 80.0861 50.2669 80.0861Z" fill="url(#paint16_linear_11_24289)"></path><path d="M50.2668 79.8689C64.3516 79.8689 75.7696 68.4509 75.7696 54.3661C75.7696 40.2813 64.3516 28.8633 50.2668 28.8633C36.182 28.8633 24.764 40.2813 24.764 54.3661C24.764 68.4509 36.182 79.8689 50.2668 79.8689Z" fill="url(#paint17_linear_11_24289)"></path><path d="M50.2669 79.6511C64.2315 79.6511 75.5519 68.3306 75.5519 54.3661C75.5519 40.4015 64.2315 29.0811 50.2669 29.0811C36.3024 29.0811 24.9819 40.4015 24.9819 54.3661C24.9819 68.3306 36.3024 79.6511 50.2669 79.6511Z" fill="url(#paint18_linear_11_24289)"></path><path d="M50.2668 79.4341C64.1114 79.4341 75.3347 68.2108 75.3347 54.3662C75.3347 40.5216 64.1114 29.2983 50.2668 29.2983C36.4222 29.2983 25.199 40.5216 25.199 54.3662C25.199 68.2108 36.4222 79.4341 50.2668 79.4341Z" fill="url(#paint19_linear_11_24289)"></path><path d="M50.267 79.2168C63.9917 79.2168 75.1177 68.0908 75.1177 54.3661C75.1177 40.6414 63.9917 29.5154 50.267 29.5154C36.5423 29.5154 25.4163 40.6414 25.4163 54.3661C25.4163 68.0908 36.5423 79.2168 50.267 79.2168Z" fill="url(#paint20_linear_11_24289)"></path><path d="M50.2669 78.9991C63.8713 78.9991 74.8998 67.9705 74.8998 54.3661C74.8998 40.7617 63.8713 29.7332 50.2669 29.7332C36.6625 29.7332 25.6339 40.7617 25.6339 54.3661C25.6339 67.9705 36.6625 78.9991 50.2669 78.9991Z" fill="url(#paint21_linear_11_24289)"></path><path d="M50.267 78.7818C63.7515 78.7818 74.6828 67.8505 74.6828 54.366C74.6828 40.8815 63.7515 29.9502 50.267 29.9502C36.7825 29.9502 25.8512 40.8815 25.8512 54.366C25.8512 67.8505 36.7825 78.7818 50.267 78.7818Z" fill="url(#paint22_linear_11_24289)"></path><path d="M50.2669 78.5648C63.6315 78.5648 74.4656 67.7307 74.4656 54.3662C74.4656 41.0016 63.6315 30.1675 50.2669 30.1675C36.9024 30.1675 26.0682 41.0016 26.0682 54.3662C26.0682 67.7307 36.9024 78.5648 50.2669 78.5648Z" fill="url(#paint23_linear_11_24289)"></path><path d="M50.2669 78.347C63.5112 78.347 74.2478 67.6104 74.2478 54.3662C74.2478 41.1219 63.5112 30.3853 50.2669 30.3853C37.0226 30.3853 26.286 41.1219 26.286 54.3662C26.286 67.6104 37.0226 78.347 50.2669 78.347Z" fill="url(#paint24_linear_11_24289)"></path><path d="M50.2669 78.1298C63.3913 78.1298 74.0307 67.4904 74.0307 54.3661C74.0307 41.2417 63.3913 30.6023 50.2669 30.6023C37.1426 30.6023 26.5032 41.2417 26.5032 54.3661C26.5032 67.4904 37.1426 78.1298 50.2669 78.1298Z" fill="url(#paint25_linear_11_24289)"></path><path d="M50.267 77.9126C63.2714 77.9126 73.8136 67.3704 73.8136 54.366C73.8136 41.3615 63.2714 30.8193 50.267 30.8193C37.2625 30.8193 26.7203 41.3615 26.7203 54.366C26.7203 67.3704 37.2625 77.9126 50.267 77.9126Z" fill="url(#paint26_linear_11_24289)"></path><path d="M50.2669 77.6948C63.1511 77.6948 73.5958 67.2501 73.5958 54.366C73.5958 41.4818 63.1511 31.0371 50.2669 31.0371C37.3828 31.0371 26.9381 41.4818 26.9381 54.366C26.9381 67.2501 37.3828 77.6948 50.2669 77.6948Z" fill="url(#paint27_linear_11_24289)"></path><path d="M50.2668 77.4778C63.0311 77.4778 73.3786 67.1303 73.3786 54.3661C73.3786 41.6019 63.0311 31.2544 50.2668 31.2544C37.5026 31.2544 27.1552 41.6019 27.1552 54.3661C27.1552 67.1303 37.5026 77.4778 50.2668 77.4778Z" fill="url(#paint28_linear_11_24289)"></path><path d="M50.267 77.2606C62.9113 77.2606 73.1616 67.0103 73.1616 54.366C73.1616 41.7217 62.9113 31.4714 50.267 31.4714C37.6227 31.4714 27.3724 41.7217 27.3724 54.366C27.3724 67.0103 37.6227 77.2606 50.267 77.2606Z" fill="url(#paint29_linear_11_24289)"></path><path d="M50.2669 77.0428C62.7909 77.0428 72.9437 66.89 72.9437 54.366C72.9437 41.842 62.7909 31.6892 50.2669 31.6892C37.7428 31.6892 27.5901 41.842 27.5901 54.366C27.5901 66.89 37.7428 77.0428 50.2669 77.0428Z" fill="url(#paint30_linear_11_24289)"></path><path d="M50.267 76.8255C62.6711 76.8255 72.7267 66.77 72.7267 54.3659C72.7267 41.9618 62.6711 31.9062 50.267 31.9062C37.8629 31.9062 27.8074 41.9618 27.8074 54.3659C27.8074 66.77 37.8629 76.8255 50.267 76.8255Z" fill="url(#paint31_linear_11_24289)"></path><path d="M57.1992 75.6116L53.9184 75.8481L50.7872 76.6781L47.667 75.2834L44.5275 75.3373L41.636 74.1591L38.5054 73.4216L36.1285 71.2927L33.0179 69.9622L31.3977 67.0944L30.6628 63.8817L28.6661 61.3628L28.5955 58.1584L27.6402 55.1628L27.0325 51.9699L27.5856 48.7913L27.8406 45.4359L30.3872 43.0602L31.9399 40.2869L34.6175 38.4855L36.3501 35.6473L38.7656 33.3205L41.9167 32.2772L45.0787 31.3785L48.3512 31.1305L51.634 31.0059L54.8634 31.6194L57.8307 33.0109L60.7833 34.3111L64.0037 35.4186L66.4989 37.662L67.7452 40.8895L69.4605 43.5896L71.7597 46.1657L72.6276 49.406L72.3391 52.7723L72.0449 56.0031L72.3732 59.3809L71.2252 62.5114L68.5752 64.8139L67.1285 67.6302L65.8141 70.823L62.7318 72.2402L59.819 73.5784L57.1992 75.6116Z" fill="black"></path><path d="M47.2488 41.6388C45.961 42.2681 44.8927 42.8242 44.8927 42.8827C44.8781 43.0437 48.3757 44.7559 48.6976 44.7559C48.8586 44.7559 49.2098 44.6534 49.4879 44.551C49.9415 44.3607 50.0586 44.3607 50.5123 44.551C50.7903 44.6534 51.1708 44.7559 51.3464 44.7559C51.7269 44.7559 54.8879 43.2632 55.0342 43.0144C55.1659 42.8095 50.5854 40.512 50.0293 40.512C49.7952 40.512 48.5513 41.0242 47.2488 41.6388Z" fill="#D6D6D6"></path><path d="M39.9171 45.2682L38 46.2048V50.2145C38 54.3706 38.0585 55.1462 38.3659 55.1462C38.4683 55.1462 39.3463 54.7511 40.3268 54.2682L42.0976 53.4048V50.9023C42.0976 48.956 42.1415 48.4145 42.2878 48.4145C42.3902 48.4145 43.5317 48.9121 44.8195 49.5121C46.0927 50.1121 47.278 50.6097 47.439 50.6097C47.761 50.6097 50.9366 49.117 51.0683 48.8975C51.1561 48.7658 42.4049 44.317 42.039 44.317C41.9366 44.317 40.9707 44.7414 39.9171 45.2682Z" fill="#D6D6D6"></path><path d="M56.0438 45.2389C55.0487 45.7364 54.2438 46.1754 54.2438 46.2193C54.2438 46.2632 55.0779 46.7169 56.117 47.2291L57.9755 48.1657L53.8048 50.2145C51.5072 51.3559 47.0292 53.551 43.8535 55.1023L38.0731 57.9413L38.0292 58.8486C37.9999 59.3462 38.0145 60.2388 38.0731 60.8242L38.1755 61.8779L38.834 62.273C39.1999 62.4779 40.0926 62.9169 40.8389 63.2388L42.1706 63.8096L44.0292 62.8876C45.0682 62.3754 45.9023 61.9218 45.9023 61.8779C45.9023 61.834 45.0535 61.3657 43.9999 60.8535L42.0975 59.9023L51.9023 55.0876C60.5657 50.8437 61.7218 50.2291 61.8096 49.8925C61.8682 49.6876 61.9121 48.751 61.9121 47.8291L61.9267 46.1462L60.0974 45.2242C59.1023 44.7267 58.1804 44.3169 58.0487 44.3315C57.9316 44.3315 57.0243 44.7413 56.0438 45.2389Z" fill="#D6D6D6"></path><path d="M59.9219 53.7705L58.0488 54.7071V57.2681C58.0488 58.673 58.0195 59.8291 57.9756 59.8291C57.9317 59.8291 56.7463 59.2583 55.3414 58.5559L52.7805 57.2681L50.878 58.2193C49.839 58.7315 48.9756 59.1998 48.9756 59.2437C48.9756 59.3608 52.4585 61.1461 55.3853 62.5364L58.078 63.7949L60.039 62.8437L62 61.8925L61.9853 57.6779C61.9707 55.3657 61.9268 53.3169 61.8829 53.1559C61.7805 52.8486 61.7073 52.8779 59.9219 53.7705Z" fill="#D6D6D6"></path><path d="M46.7513 64.1608C45.7123 64.673 44.8782 65.1413 44.8782 65.1852C44.8782 65.3023 49.605 67.5852 49.883 67.5852C50.1904 67.5852 52.005 66.8096 53.7904 65.9023C54.8294 65.3901 55.1221 65.1852 54.9611 65.0828C54.844 64.995 54.0391 64.5706 53.1611 64.1315C51.8733 63.473 51.4782 63.3267 51.1123 63.4145C49.9416 63.6486 49.7221 63.6486 49.2977 63.4291C49.0489 63.2974 48.7855 63.195 48.727 63.2096C48.6684 63.2096 47.7757 63.634 46.7513 64.1608Z" fill="#D6D6D6"></path><defs><radialGradient id="paint0_radial_11_24289" cx="0" cy="0" r="1" gradientUnits="userSpaceOnUse" gradientTransform="translate(49.273 52.6245) rotate(180) scale(57.7008 53.9113)"><stop offset="0.59" stop-color="#CCCCCC"></stop><stop offset="1" stop-color="#44556D"></stop></radialGradient><linearGradient id="paint1_linear_11_24289" x1="50.2667" y1="83.3464" x2="50.2667" y2="25.386" gradientUnits="userSpaceOnUse"><stop offset="0.251" stop-color="#CECECE"></stop><stop offset="0.7922" stop-color="#C5C5C5"></stop></linearGradient><linearGradient id="paint2_linear_11_24289" x1="50.2666" y1="83.1292" x2="50.2666" y2="25.6035" gradientUnits="userSpaceOnUse"><stop offset="0.251" stop-color="#CFCFCF"></stop><stop offset="0.7922" stop-color="#BFBFBF"></stop></linearGradient><linearGradient id="paint3_linear_11_24289" x1="50.2667" y1="82.9118" x2="50.2667" y2="25.8209" gradientUnits="userSpaceOnUse"><stop offset="0.251" stop-color="#D1D1D1"></stop><stop offset="0.7922" stop-color="#B8B8B8"></stop></linearGradient><linearGradient id="paint4_linear_11_24289" x1="50.2666" y1="82.6944" x2="50.2666" y2="26.0381" gradientUnits="userSpaceOnUse"><stop offset="0.251" stop-color="#D3D3D3"></stop><stop offset="0.7922" stop-color="#B2B2B2"></stop></linearGradient><linearGradient id="paint5_linear_11_24289" x1="50.2668" y1="82.4772" x2="50.2668" y2="26.2556" gradientUnits="userSpaceOnUse"><stop offset="0.251" stop-color="#D4D4D4"></stop><stop offset="0.7922" stop-color="#ABABAB"></stop></linearGradient><linearGradient id="paint6_linear_11_24289" x1="50.2666" y1="82.2598" x2="50.2666" y2="26.473" gradientUnits="userSpaceOnUse"><stop offset="0.251" stop-color="#D6D6D6"></stop><stop offset="0.7922" stop-color="#A5A5A5"></stop></linearGradient><linearGradient id="paint7_linear_11_24289" x1="50.2668" y1="82.0424" x2="50.2668" y2="26.6902" gradientUnits="userSpaceOnUse"><stop offset="0.251" stop-color="#D8D8D8"></stop><stop offset="0.7922" stop-color="#9E9E9E"></stop></linearGradient><linearGradient id="paint8_linear_11_24289" x1="50.2667" y1="81.8252" x2="50.2667" y2="26.9077" gradientUnits="userSpaceOnUse"><stop offset="0.251" stop-color="#D9D9D9"></stop><stop offset="0.7922" stop-color="#979797"></stop></linearGradient><linearGradient id="paint9_linear_11_24289" x1="50.2667" y1="81.6076" x2="50.2667" y2="27.1248" gradientUnits="userSpaceOnUse"><stop offset="0.251" stop-color="#DBDBDB"></stop><stop offset="0.7922" stop-color="#919191"></stop></linearGradient><linearGradient id="paint10_linear_11_24289" x1="50.2667" y1="81.3906" x2="50.2667" y2="27.3425" gradientUnits="userSpaceOnUse"><stop offset="0.251" stop-color="#DCDCDC"></stop><stop offset="0.7922" stop-color="#8A8A8A"></stop></linearGradient><linearGradient id="paint11_linear_11_24289" x1="50.2666" y1="81.1729" x2="50.2666" y2="27.5595" gradientUnits="userSpaceOnUse"><stop offset="0.251" stop-color="#DEDEDE"></stop><stop offset="0.7922" stop-color="#848484"></stop></linearGradient><linearGradient id="paint12_linear_11_24289" x1="50.2667" y1="80.9555" x2="50.2667" y2="27.7769" gradientUnits="userSpaceOnUse"><stop offset="0.251" stop-color="#E0E0E0"></stop><stop offset="0.7922" stop-color="#7D7D7D"></stop></linearGradient><linearGradient id="paint13_linear_11_24289" x1="50.2666" y1="80.7381" x2="50.2666" y2="27.9942" gradientUnits="userSpaceOnUse"><stop offset="0.251" stop-color="#E1E1E1"></stop><stop offset="0.7922" stop-color="#767676"></stop></linearGradient><linearGradient id="paint14_linear_11_24289" x1="50.2666" y1="80.5209" x2="50.2666" y2="28.2116" gradientUnits="userSpaceOnUse"><stop offset="0.251" stop-color="#E3E3E3"></stop><stop offset="0.7922" stop-color="#707070"></stop></linearGradient><linearGradient id="paint15_linear_11_24289" x1="50.2666" y1="80.3035" x2="50.2666" y2="28.429" gradientUnits="userSpaceOnUse"><stop offset="0.251" stop-color="#E5E5E5"></stop><stop offset="0.7922" stop-color="#696969"></stop></linearGradient><linearGradient id="paint16_linear_11_24289" x1="50.2667" y1="80.0863" x2="50.2667" y2="28.6465" gradientUnits="userSpaceOnUse"><stop offset="0.251" stop-color="#E6E6E6"></stop><stop offset="0.7922" stop-color="#636363"></stop></linearGradient><linearGradient id="paint17_linear_11_24289" x1="50.2666" y1="79.8689" x2="50.2666" y2="28.8637" gradientUnits="userSpaceOnUse"><stop offset="0.251" stop-color="#E8E8E8"></stop><stop offset="0.7922" stop-color="#5C5C5C"></stop></linearGradient><linearGradient id="paint18_linear_11_24289" x1="50.2667" y1="79.6516" x2="50.2667" y2="29.0811" gradientUnits="userSpaceOnUse"><stop offset="0.251" stop-color="#EAEAEA"></stop><stop offset="0.7922" stop-color="#565656"></stop></linearGradient><linearGradient id="paint19_linear_11_24289" x1="50.2666" y1="79.4343" x2="50.2666" y2="29.2986" gradientUnits="userSpaceOnUse"><stop offset="0.251" stop-color="#EBEBEB"></stop><stop offset="0.7922" stop-color="#4F4F4F"></stop></linearGradient><linearGradient id="paint20_linear_11_24289" x1="50.2667" y1="79.2169" x2="50.2667" y2="29.5158" gradientUnits="userSpaceOnUse"><stop offset="0.251" stop-color="#EDEDED"></stop><stop offset="0.7922" stop-color="#484848"></stop></linearGradient><linearGradient id="paint21_linear_11_24289" x1="50.2666" y1="78.9996" x2="50.2666" y2="29.7332" gradientUnits="userSpaceOnUse"><stop offset="0.251" stop-color="#EFEFEF"></stop><stop offset="0.7922" stop-color="#424242"></stop></linearGradient><linearGradient id="paint22_linear_11_24289" x1="50.2668" y1="78.7821" x2="50.2668" y2="29.9505" gradientUnits="userSpaceOnUse"><stop offset="0.251" stop-color="#F0F0F0"></stop><stop offset="0.7922" stop-color="#3B3B3B"></stop></linearGradient><linearGradient id="paint23_linear_11_24289" x1="50.2667" y1="78.5649" x2="50.2667" y2="30.1679" gradientUnits="userSpaceOnUse"><stop offset="0.251" stop-color="#F2F2F2"></stop><stop offset="0.7922" stop-color="#353535"></stop></linearGradient><linearGradient id="paint24_linear_11_24289" x1="50.2666" y1="78.3475" x2="50.2666" y2="30.3853" gradientUnits="userSpaceOnUse"><stop offset="0.251" stop-color="#F3F3F3"></stop><stop offset="0.7922" stop-color="#2E2E2E"></stop></linearGradient><linearGradient id="paint25_linear_11_24289" x1="50.2667" y1="78.1301" x2="50.2667" y2="30.6025" gradientUnits="userSpaceOnUse"><stop offset="0.251" stop-color="#F5F5F5"></stop><stop offset="0.7922" stop-color="#272727"></stop></linearGradient><linearGradient id="paint26_linear_11_24289" x1="50.2667" y1="77.9126" x2="50.2667" y2="30.8198" gradientUnits="userSpaceOnUse"><stop offset="0.251" stop-color="#F7F7F7"></stop><stop offset="0.7922" stop-color="#212121"></stop></linearGradient><linearGradient id="paint27_linear_11_24289" x1="50.2667" y1="77.6953" x2="50.2667" y2="31.0372" gradientUnits="userSpaceOnUse"><stop offset="0.251" stop-color="#F8F8F8"></stop><stop offset="0.7922" stop-color="#1A1A1A"></stop></linearGradient><linearGradient id="paint28_linear_11_24289" x1="50.2666" y1="77.478" x2="50.2666" y2="31.2547" gradientUnits="userSpaceOnUse"><stop offset="0.251" stop-color="#FAFAFA"></stop><stop offset="0.7922" stop-color="#141414"></stop></linearGradient><linearGradient id="paint29_linear_11_24289" x1="50.2667" y1="77.2606" x2="50.2667" y2="31.4719" gradientUnits="userSpaceOnUse"><stop offset="0.251" stop-color="#FCFCFC"></stop><stop offset="0.7922" stop-color="#0D0D0D"></stop></linearGradient><linearGradient id="paint30_linear_11_24289" x1="50.2666" y1="77.0433" x2="50.2666" y2="31.6893" gradientUnits="userSpaceOnUse"><stop offset="0.251" stop-color="#FDFDFD"></stop><stop offset="0.7922" stop-color="#070707"></stop></linearGradient><linearGradient id="paint31_linear_11_24289" x1="50.2668" y1="76.8258" x2="50.2668" y2="31.9065" gradientUnits="userSpaceOnUse"><stop offset="0.251" stop-color="white"></stop><stop offset="0.7922"></stop></linearGradient></defs></svg> 