<?xml version="1.0" encoding="UTF-8"?> <svg xmlns="http://www.w3.org/2000/svg" width="444" height="519" viewBox="0 0 444 519" fill="none"><path d="M372.447 284.059C372.447 284.059 372.447 284.048 372.424 284.037C372.43 284.054 372.441 284.059 372.447 284.059Z" fill="#52667F"></path><path d="M430.013 402.414C420.233 402.08 410.464 402.956 400.904 404.973L405.95 399.346C405.95 399.346 406.18 378.948 404.854 380.717C405.199 377.677 363.762 377.978 363.762 377.978L361.023 333.462C361.132 333.248 361.209 333.007 361.247 332.728C361.412 331.583 361.587 330.443 361.762 329.303C362.946 329.418 364.195 328.865 364.639 327.402C365.921 323.162 365.515 319.074 363.762 315.053C363.351 314.105 362.431 313.694 361.488 313.716C361.149 313.239 360.683 312.828 360.037 312.538C359.993 312.516 359.943 312.505 359.9 312.489C360.502 310.861 359.039 309.032 357.259 308.823C356.382 308.719 355.516 308.571 354.662 308.39C354.695 303.081 354.711 297.772 354.678 292.469C354.667 290.694 355.007 287.412 354.601 284.607C357.1 284.333 359.593 284.059 362.091 283.785C367.23 283.85 372.019 283.938 372.413 284.042C372.37 283.944 372.37 283.44 372.391 282.656C372.452 282.651 372.507 282.645 372.567 282.64C374.084 282.475 375.246 281.516 375.306 279.9C375.547 273.665 376.309 267.518 377.607 261.414C378.144 258.894 375.443 257.431 373.679 258.193C373.69 257.634 373.695 257.13 373.695 256.697C374.057 256.927 374.419 257.168 374.769 257.442C377.569 259.584 380.298 254.829 377.536 252.714C370.342 247.202 361.22 248.939 353.637 252.582C352.629 242.282 352.355 231.949 352.815 221.61C355.511 219.002 354.075 213.715 353.637 210.472C353.287 207.847 352.854 205.223 352.58 202.587C352.81 202.571 353.04 202.549 353.27 202.533C353.829 202.489 354.3 202.302 354.684 202.034C359.111 201.141 363.565 200.303 367.943 199.234C369.756 198.79 371.334 198.259 371.855 196.254C372.413 194.09 371.52 191.164 371.263 188.978C370.885 185.723 371.575 179.335 367.548 178.08C365.521 177.45 362.957 177.527 360.842 177.412C358.349 177.275 355.856 177.258 353.363 177.324L351.681 176.968L355.538 160.811C357.379 160.351 359.27 160.071 361.187 160.005C363.894 159.912 368.315 161.364 369.356 157.77C369.608 156.899 369.63 155.924 369.592 154.948L369.997 154.811L368.671 131.745L365.915 131.159C365.214 130.452 364.157 130.304 363.225 130.584L354.169 128.655L368.671 114.93C368.671 114.93 365.51 111.988 362.984 111.303C360.464 110.618 352.717 105.72 349.468 103.512C346.219 101.304 353.347 89.311 354.163 90.3794C354.979 91.4478 387.743 56.5362 384.785 57.8293C381.826 59.1223 341.649 80.8297 339.003 82.3035C336.351 83.7773 319.575 78.419 316.731 76.715C313.888 75.0111 303.637 70.0965 303.637 70.0965C303.637 70.0965 320.742 52.1422 327.727 45.0853C319.69 52.2353 297.807 70.5677 297.807 70.5677C297.807 70.5677 290.257 67.4283 284.959 65.1052C287.901 54.4104 290.843 43.7156 293.791 33.0208C294.635 29.9471 290.416 28.4678 288.898 30.7087C288.745 30.1608 288.531 29.6184 288.219 29.0869C287.025 27.0762 285.008 25.8215 282.844 24.9668L283.157 23.1971L259.214 13.4173C259.214 13.4173 260.967 2.53068 259.214 1.24314C257.461 -0.0444028 212.736 1.24314 212.736 1.24314L198.486 5.86734L202.611 20.4029L176.263 33.1249L177.353 48.7069C177.353 48.7069 152.523 61.9275 151.027 61.3522C149.532 60.7769 141.669 51.5285 140.119 53.1393C138.568 54.7501 137.927 69.9869 136.607 68.9405C135.286 67.8995 112.083 84.3088 112.083 84.3088C112.083 84.3088 90.0307 72.3977 90.469 76.7205C90.9073 81.0434 99.1421 98.0499 96.1177 97.2171C93.0934 96.3843 86.0913 100.976 86.0913 100.976L72.1311 97.8307C62.9594 121.587 59.4255 118.842 73.2488 122.683C87.0666 126.524 80.3988 122.135 82.6396 136.38C84.8805 150.631 85.8612 152.992 85.3681 154.822C84.875 156.652 66.3727 154.674 67.9561 157.584C68.1643 157.962 68.3999 158.597 68.652 159.408C67.6986 159.808 66.8987 160.422 66.444 161.424C65.3098 163.906 66.6303 167.473 67.0905 169.999C67.7534 173.659 68.4985 177.308 69.3149 180.935C69.8683 183.411 70.2025 186.178 72.8433 187.263C75.4842 188.348 79.3249 187.734 82.1137 187.679C85.7407 187.603 89.3567 187.394 92.9673 187.082C93.055 196.062 94.6603 195.892 94.748 204.872C94.0905 207.787 80.5193 206.494 79.4071 207.612C76.9744 210.055 74.2952 218.41 74.3884 222.054C74.476 225.692 73.2597 254.862 73.2597 254.862C73.2597 254.862 97.2573 244.271 94.9069 249.777C92.5564 255.278 89.8882 267.737 91.4936 268.356C93.1044 268.975 110.429 265.858 107.519 268.51C104.61 271.167 107.525 288.403 103.602 291.565C99.679 294.726 89.0883 301.41 89.4553 302.451C89.8224 303.492 91.6141 339.933 91.6141 339.933C91.6141 339.933 102.758 333.089 100.671 339.933C98.5833 346.776 99.2626 376.822 99.4708 379.879C99.679 382.936 87.0172 389.884 85.9543 393.807C84.8914 397.729 82.6506 426.176 82.6506 426.176C82.6506 426.176 104.002 423.321 105.13 427.513C106.259 431.704 100.693 434.044 106.215 437.528C111.738 441.013 316.989 437.419 323.12 436.476C329.251 435.534 339.507 425.195 343.967 429.266C348.427 433.342 379.147 429.266 379.147 429.266L389.946 417.223C390.625 417.607 391.453 417.788 392.4 417.623C404.624 415.53 416.853 413.437 429.076 411.345C430.517 411.098 431.301 410.227 431.553 409.18C431.635 409.142 431.722 409.115 431.805 409.076C435.218 407.531 433.257 402.551 430.008 402.441L430.013 402.414ZM369.641 255.01C367.8 255.026 365.504 255.01 363.214 254.988C365.368 254.582 367.537 254.533 369.641 255.01ZM362.787 182.776C363.905 182.814 364.874 182.924 365.148 183.198C365.411 183.461 365.543 184.556 365.625 185.74C364.891 185.017 363.806 184.628 362.644 185.049L362.787 182.776ZM346.882 210.532L345.89 203.541L346.641 203.376C346.723 205.573 346.805 207.77 346.882 209.967C346.882 210.154 346.882 210.346 346.882 210.532ZM349.194 309.218C348.213 305.355 348.794 289.768 349.002 285.028C349.04 285.039 349.073 285.05 349.112 285.056C348.953 285.209 348.969 285.549 349.155 286.086C349.161 286.793 349.172 287.505 349.177 288.212C349.188 289.275 349.194 290.337 349.205 291.4C349.221 293.707 349.232 296.008 349.232 298.315C349.232 301.947 349.221 305.585 349.194 309.218ZM351.155 315.601C351.139 315.672 351.128 315.743 351.117 315.814C351.084 315.897 351.051 315.973 351.018 316.055C350.963 315.743 350.909 315.436 350.859 315.14C350.991 315.184 351.122 315.223 351.259 315.25C351.221 315.36 351.183 315.475 351.155 315.601ZM353.774 336.64C353.774 336.64 353.599 335.034 353.314 332.613C354.371 332.7 355.451 332.213 355.938 331.013C355.916 331.342 355.894 331.676 355.873 332.005C355.796 333.128 356.459 333.944 357.341 334.366L353.774 336.64Z" fill="#52667F"></path><path d="M330.642 42.3183C330.823 42.006 329.667 43.1237 327.744 45.0687C329.42 43.5785 330.494 42.5704 330.642 42.3183Z" fill="#52667F"></path><path d="M283.945 60.733C283.803 60.7056 283.661 60.6783 283.524 60.6399C283.409 60.6125 283.25 60.5851 283.102 60.5468C283.08 60.5358 283.041 60.5194 282.981 60.492C282.861 60.4372 282.74 60.3714 282.62 60.3057C282.543 60.2673 282.318 60.1084 282.154 59.9934C282.329 58.662 282.669 57.358 283.2 56.0321C283.682 54.8158 283.151 53.4461 282.22 52.5476C282.987 49.1068 283.31 45.5894 283.189 42.039C284.636 41.3268 285.501 39.3872 283.951 38.1545C283.787 38.023 283.617 37.897 283.447 37.7764C283.447 37.7764 283.447 37.7764 283.447 37.771C283.43 37.7655 283.419 37.7545 283.403 37.749C281.518 36.3629 279.497 35.4424 277.365 34.8014C278.258 33.607 277.798 31.3771 276.122 30.7251C272.056 29.1472 267.936 27.7336 263.761 26.4735C263.608 25.9201 263.268 25.4215 262.682 25.0709C261.438 24.3312 260.211 23.5696 258.995 22.7916C258.786 22.3588 258.353 22.1123 257.871 22.0575C256.94 21.4548 256.014 20.8466 255.094 20.222C254.809 20.0248 254.491 19.9152 254.173 19.8769C255.324 18.6605 255.132 16.1731 253.132 15.7019C245.308 13.8501 237.249 13.0392 229.211 13.4501C225.261 13.6528 221.316 14.1459 217.432 14.8965C213.722 15.6143 209.246 17.7346 205.52 16.4799C203.614 15.8389 202.145 17.7949 202.485 19.5153C202.973 21.9424 203.625 25.5694 202.617 28.161C201.625 28.013 200.387 28.8732 200.573 30.2046C200.589 30.3251 200.606 30.4402 200.622 30.5607C200.409 30.6867 200.178 30.7963 199.926 30.8949C197.625 31.7825 194.798 31.799 192.377 32.1277L182.739 33.4426C179.611 33.87 180.942 38.6202 184.049 38.1983C188.152 37.6395 192.261 37.0806 196.365 36.5218C198.031 36.2971 199.729 36.0889 201.313 35.5849C202.891 47.0139 204.463 58.4374 206.041 69.8664C206.134 70.5512 206.545 70.9128 207.038 71.0169C207.049 71.1156 207.06 71.2197 207.076 71.3183C207.191 72.3045 207.964 72.8414 208.726 72.8907C209.065 74.759 209.427 76.6273 209.816 78.4902C210.249 80.5667 213.383 79.6791 212.988 77.619C212.583 75.4877 212.172 73.3564 211.766 71.2306C211.175 67.8392 210.665 64.4368 210.243 61.0289C210.03 52.1366 209.531 43.2553 208.737 34.3905C208.671 33.6344 208.211 33.1468 207.663 32.9331C207.706 32.6537 207.745 32.3688 207.794 32.0893C207.832 31.8811 207.991 31.3552 208.101 30.9059C208.15 30.8785 208.194 30.8566 208.243 30.8237C208.309 30.7744 208.38 30.7251 208.446 30.6813C209.076 30.2375 209.372 29.591 209.202 28.8239C209.043 28.1171 208.726 27.7062 208.096 27.372C208.024 27.3337 207.953 27.3063 207.876 27.2734C208.123 25.4818 208.046 23.608 207.833 21.789C210.15 21.7616 212.44 21.1096 214.769 20.5398C216.67 20.0741 218.593 19.6741 220.522 19.3509C220.845 20.1399 221.574 20.7918 222.702 20.9124C233.792 22.1013 244.716 24.3312 255.406 27.4816C255.324 28.1829 255.247 28.8842 255.17 29.5855C254.748 29.9087 254.425 30.3799 254.25 30.8949C253.79 31.1415 253.428 31.5962 253.357 32.2482C251.872 45.8797 250.469 59.5167 249.143 73.1647C248.935 73.4934 248.842 73.9098 248.946 74.3865C248.963 74.4687 248.985 74.5563 249.001 74.6385C248.924 75.4055 248.848 76.1726 248.776 76.9396C248.601 78.7641 251.691 79.2024 252.003 77.378C252.042 77.1424 252.08 76.9068 252.118 76.6767C252.288 76.4959 252.409 76.2603 252.453 75.9699C252.886 73.0003 253.302 70.0253 253.718 67.0557C255.417 56.6019 256.978 46.1208 258.414 35.6287C261.109 36.9217 264.046 37.5518 267.142 37.9792C270.259 38.4065 273.727 38.6202 276.795 39.6995L276.313 47.6659C276.226 48.022 276.209 48.3562 276.253 48.6575C276.111 50.9861 275.968 53.3146 275.826 55.6486C275.015 58.2675 274.73 61.0344 274.993 63.7629C275.179 65.675 276.494 67.3242 278.554 67.3242C279.08 67.3242 279.623 67.1762 280.116 66.9297C281.288 67.4392 282.532 67.7515 283.913 67.8721C285.775 68.0309 287.556 66.1188 287.474 64.3108C287.381 62.2562 285.923 60.9412 283.951 60.755L283.945 60.733ZM251.625 21.2849C250.425 20.9672 249.226 20.6603 248.02 20.3645C249.423 20.4028 250.82 20.4576 252.223 20.5179C251.976 20.7316 251.773 20.9946 251.631 21.2795L251.625 21.2849Z" fill="#233244"></path><path d="M370.764 114.87C368.189 115.018 365.62 115.21 363.05 115.44C360.179 115.341 357.319 115.473 354.476 115.834C354.098 115.785 353.719 115.834 353.369 115.988C351.188 116.311 349.013 116.771 346.854 117.38C343.72 118.262 345.107 122.595 348.164 122.135C348.969 122.015 349.775 121.9 350.575 121.785C350.969 122.289 351.583 122.612 352.443 122.524L369 120.891C369.767 120.815 370.403 120.376 370.836 119.79C373.909 119.533 373.909 114.689 370.759 114.87H370.764Z" fill="#233244"></path><path d="M100.391 178.201C95.893 177.823 91.3893 177.724 86.8857 177.993C85.0831 178.097 83.2641 178.349 81.4451 178.568C78.8481 178.436 76.2292 178.519 73.5993 178.836C72.7336 178.94 72.0269 179.242 71.49 179.669C71.5447 178.349 71.5502 177.034 71.5118 175.719C71.5447 171.182 71.5721 166.651 71.605 162.115C71.6269 158.921 66.8493 158.964 66.674 162.115C66.5425 164.443 66.411 166.772 66.3069 169.106C66.148 169.44 66.0878 169.851 66.148 170.339C66.1809 170.569 66.1973 170.804 66.2247 171.034C66.1316 173.489 66.0767 175.943 66.0932 178.398C66.1206 182.02 65.496 187.164 67.6492 190.337C70.0216 193.832 74.4978 192.019 77.7578 191.093C78.9412 190.758 80.1138 190.413 81.2917 190.101C84.7873 189.8 88.2773 189.312 91.7345 188.676C92.1235 188.698 92.5125 188.715 92.9015 188.737C92.9782 188.737 93.0385 188.731 93.1097 188.726C94.2109 188.819 95.2848 189 96.3093 189.307C98.868 190.074 100.955 187.548 100.846 185.334C104.95 185.219 104.774 178.568 100.391 178.201Z" fill="#233244"></path><path d="M92.447 117.16C91.9977 117.653 91.4443 118.157 90.9184 118.683C90.6718 117.779 89.9212 117.067 88.6501 117.111C88.398 117.122 88.1515 117.122 87.8995 117.127C87.2694 116.941 86.6448 116.755 86.0148 116.569C85.2751 116.349 84.634 116.464 84.1355 116.782C79.0346 116.229 73.983 115.352 68.9808 114.169C66.3728 113.55 64.4826 117.374 67.0796 118.672C68.0768 119.171 69.0958 119.653 70.1368 120.108C70.4053 120.333 70.756 120.508 71.1943 120.596C71.2491 120.607 71.3094 120.618 71.3642 120.628C73.3968 121.456 75.4897 122.146 77.6101 122.59C77.7306 123.888 78.4758 125.138 80.0263 125.691C82.9411 126.732 86.3654 128.589 89.4993 128.425C91.4224 128.321 92.9839 127.165 94.3646 125.751C95.5864 124.88 96.5452 123.806 97.3999 122.48C97.4875 122.343 97.5643 122.206 97.63 122.069C97.767 121.878 97.9094 121.68 98.0409 121.478C100.276 118.119 95.181 114.191 92.447 117.16Z" fill="#233244"></path><path d="M77.8565 444.273C77.221 448.848 77.5278 460.266 77.3744 460.31C77.221 460.353 252.507 466.791 255.269 466.314C258.03 465.838 370.808 463.443 370.808 463.443C370.808 463.443 369.394 453.455 369.049 449.237C368.704 445.018 207.197 431.704 204.123 432.06C201.05 432.416 77.862 444.273 77.862 444.273H77.8565Z" fill="#52667F"></path><path d="M348.64 429.222C348.421 429.118 348.191 429.014 347.967 428.91C348.569 429.343 349.172 429.77 349.78 430.186C349.391 429.874 349.008 429.556 348.635 429.222H348.64Z" fill="#8C9BAA"></path><path d="M366.277 445.352C366.036 445.768 365.455 445.999 365.017 445.56C363.368 443.922 361.565 442.448 359.686 441.084C352.936 436.18 345.244 432.466 339.277 426.538C338.915 426.176 339.008 425.716 339.288 425.431C333.573 423.436 328.757 422.198 328.757 422.198C328.757 422.198 267.498 420.018 260.567 419.913C253.636 419.809 201.137 420.565 195.335 419.913C189.533 419.262 137.933 420.018 134.969 419.913C132.005 419.809 110.445 424.182 110.445 424.182C107.349 423.645 77.8511 444.273 77.8511 444.273L285.376 446.382L369.038 449.231C369.038 449.231 367.992 447.637 366.271 445.352H366.277Z" fill="#8C9BAA"></path><path d="M275.218 465.366L160.018 463.498C152.342 463.011 144.672 462.704 137.012 461.887C118.883 459.959 100.808 456.951 82.5136 457.592C80.5631 457.663 79.4399 459 79.155 460.501L77.3689 460.309C77.7031 460.961 78.3441 461.663 79.2426 462.419C79.6316 463.728 80.7165 464.78 82.5136 464.714C82.5246 464.714 82.5355 464.714 82.5519 464.714C104.057 477.716 182.734 500.119 202.425 498.076C224.603 495.774 223.305 481.255 247.237 500.294C271.169 519.334 273.618 516.698 297.599 518.835C321.58 520.977 344.334 501.752 357.335 489.178C370.337 476.598 370.803 463.443 370.803 463.443L275.212 465.366H275.218Z" fill="#233244"></path><path d="M418.085 172.799C417.559 172.59 417.034 172.41 416.508 172.245C416.546 172.037 416.573 171.818 416.573 171.588C416.573 171.358 416.546 171.127 416.497 170.892C416.475 167.221 416.584 163.561 416.803 159.896C418.217 158.044 417.992 154.959 415.089 154.351C410.437 153.376 405.741 152.647 401.03 152.143C399.096 151.825 397.151 151.551 395.206 151.338C392.335 151.02 389.486 150.954 386.708 151.343C386.291 151.343 385.875 151.354 385.459 151.354C385.524 150.817 385.59 150.275 385.656 149.738C385.935 147.475 386.527 145.026 386.072 142.747C385.234 138.561 381.64 136.906 377.766 136.419C367.526 135.126 357.072 134.885 346.761 135.016C343.857 135.065 342.789 137.942 343.572 140.024C343.781 141.629 344.904 143.191 346.936 143.404C357.609 144.544 368.315 145.267 379.043 145.574C378.835 148.319 378.451 151.069 378.068 153.809C370.885 153.551 363.702 153.299 356.519 153.042C354.415 152.713 352.311 152.538 350.224 152.817C346.142 153.359 345.567 158.855 349.259 159.803C349.824 160.619 350.733 161.222 351.988 161.298C356.344 161.572 360.699 161.687 365.05 161.638C369.992 162.175 374.956 162.252 379.919 161.95C380.971 161.885 381.777 161.452 382.347 160.838C383.114 160.564 383.694 160.011 384.094 159.315C384.998 158.92 385.941 158.647 386.905 158.455C391.403 158.477 395.879 158.729 400.339 159.2C401.89 159.474 403.44 159.781 404.974 160.12C406.514 160.466 408.048 160.898 409.604 161.118C409.478 163.534 409.401 165.955 409.374 168.372C396.767 169.336 384.1 167.298 371.498 168.854C371.471 168.854 371.444 168.854 371.411 168.854C371.411 168.854 371.411 168.865 371.411 168.87C371.093 168.909 370.781 168.941 370.463 168.985C366.31 169.566 367.619 175.768 371.411 175.982C373.394 176.091 375.377 176.185 377.366 176.272C377.92 177.16 378.862 177.823 380.199 177.894C380.659 177.916 381.114 177.943 381.574 177.965C381.727 178.02 381.881 178.064 382.045 178.086C385.349 178.546 388.724 178.508 392.11 178.332C396.515 178.376 400.915 178.234 405.287 177.73C407.045 177.768 408.793 177.899 410.519 178.168C410.481 178.497 410.448 178.82 410.41 179.149C410.305 179.455 410.234 179.784 410.218 180.135C410.201 180.584 410.174 181.033 410.147 181.477C410.026 182.584 409.922 183.691 409.818 184.803C409.555 186.836 409.171 188.846 408.673 190.857C397.019 190.884 385.376 190.43 373.761 189.493C369.734 189.17 368.956 195.541 372.813 196.489C373.767 196.725 374.72 196.955 375.679 197.18C375.679 197.18 375.679 197.185 375.679 197.191C365.839 195.941 355.938 195.218 346.016 194.977C341.43 194.862 341.436 201.985 346.016 202.1C352.815 202.264 359.609 202.648 366.387 203.289C369.592 203.59 372.797 203.946 375.991 204.357C378.725 204.708 381.76 204.878 384.527 205.519C384.593 206.28 384.555 207.173 384.604 207.655L384.96 211.107C385.19 213.337 385.316 214.789 387.223 216.202C388.488 217.139 390.494 216.663 391.54 215.644C391.578 215.605 391.617 215.567 391.655 215.529C392.565 214.646 392.899 213.277 392.57 212.066C392.554 212.006 392.537 211.945 392.521 211.885C392.4 211.447 392.214 211.069 391.973 210.745C391.546 207.261 392.4 202.494 389.853 200.078C389.699 199.93 389.529 199.799 389.349 199.678C394.395 200.21 399.474 200.182 404.585 199.125C405.457 198.944 406.087 198.522 406.503 197.974C407.325 197.974 408.147 197.98 408.969 197.98C410.251 197.98 411.177 197.415 411.741 196.61C413.719 197.004 416.146 195.892 416.294 193.262C416.431 190.797 416.617 188.331 416.836 185.871C416.979 184.792 417.094 183.707 417.181 182.622C417.368 182.184 417.499 181.713 417.554 181.22C417.614 180.743 417.587 180.327 417.499 179.921C420.781 179.877 421.833 174.272 418.074 172.799H418.085Z" fill="#233244"></path><path d="M103.24 230.283C104.818 228.409 103.925 224.459 100.594 224.119C93.9208 223.44 87.5982 225.889 81.0893 226.711C81.0564 226.492 81.0345 226.289 81.0125 226.185C80.7331 224.865 80.4975 223.533 80.2948 222.196C79.8619 219.336 79.6373 216.454 79.4949 213.567C79.4401 212.488 78.9963 211.66 78.3552 211.091C78.4977 210.948 78.6731 210.839 78.8922 210.773C79.7743 210.499 80.3989 210 80.8043 209.392C82.1412 209.195 83.478 208.959 84.7984 208.691C89.5212 207.732 94.1235 206.499 98.9833 206.581C103.569 206.658 103.569 199.536 98.9833 199.459C93.8441 199.371 88.8748 200.566 83.878 201.618C81.4344 202.133 79.0018 202.576 76.4979 202.697C74.1858 202.806 71.9176 202.785 69.7205 203.617C65.6552 205.151 67.1673 211.512 71.0683 210.647C70.1314 215.676 72.0983 222.185 72.8818 226.558C73.0023 227.226 73.2599 227.752 73.5996 228.146C72.1203 230.102 73.0846 233.806 76.35 234.08C77.2869 234.162 78.2238 234.223 79.1552 234.272C81.5878 235.028 84.4204 234.831 86.8695 234.825C90.9019 234.809 94.9125 234.518 98.9121 234.009C99.9312 233.877 100.863 233.472 101.515 232.814C102.654 232.338 103.191 231.357 103.235 230.283H103.24Z" fill="#233244"></path><path d="M101.69 389.78C101.273 389.56 100.791 389.407 100.243 389.358C88.4692 388.295 76.6567 387.878 64.8442 388.092C65.0908 385.873 65.3428 383.649 65.5893 381.43C66.0989 376.882 58.9708 376.921 58.4668 381.43C58.0887 384.81 57.7106 388.185 57.3326 391.566C56.6149 391.544 55.8972 391.527 55.1794 391.5C51.2346 391.341 50.2484 397.729 54.2316 398.496C67.6987 401.077 81.3247 400.474 94.9288 399.685C96.6328 399.587 97.7067 398.529 98.1395 397.253C99.1969 397.143 100.254 397.045 101.312 396.919C105.684 396.42 105.859 389.681 101.69 389.774V389.78Z" fill="#233244"></path><path d="M74.1967 293.658C73.3803 298.156 73.6433 302.775 73.2214 307.3C71.9613 307.366 70.6957 307.426 69.4356 307.492C69.4191 307.492 69.4026 307.487 69.3862 307.487C65.9126 307.098 62.1157 307.569 58.6147 307.596C54.8452 307.629 51.0757 307.645 47.3063 307.64C34.4911 307.624 21.676 307.3 8.90465 306.226C9.04162 303.465 9.24978 300.704 9.55112 297.953C9.90177 294.682 10.1757 291.274 12.0002 288.453C14.0328 285.313 10.3291 282.36 7.54034 283.44C7.28831 283.39 7.03085 283.379 6.76786 283.412C1.82041 284.07 0.543824 288.097 0.258921 292.546C-0.0972081 298.123 -0.0589039 303.734 0.209562 309.317C0.308183 311.388 1.77105 312.675 3.77085 312.878C6.47743 313.152 9.18954 313.382 11.9071 313.59C12.2742 314.472 13.0083 315.19 14.1589 315.447C34.0364 319.847 54.3795 320.559 74.5309 317.705C75.3692 317.584 76.0376 317.053 76.4869 316.351C77.7635 316.236 78.936 315.458 79.3414 313.831C80.8371 307.799 79.9715 301.608 81.0727 295.543C81.8836 291.061 75.0185 289.138 74.2022 293.647L74.1967 293.658Z" fill="#233244"></path><path d="M443.568 414.999C443.031 412.955 441.08 412.227 439.185 412.512C435.371 413.081 431.558 413.618 427.739 414.122C427.295 414.029 426.819 414.018 426.304 414.106C424.759 414.374 423.208 414.643 421.658 414.9C411.067 416.21 400.449 417.289 389.809 418.133C388.516 418.237 387.59 418.889 387.031 419.755C386.724 419.787 386.417 419.826 386.116 419.859C385.7 416.851 385.448 413.826 385.338 410.791C385.48 410.276 385.513 409.701 385.393 409.076C385.311 408.643 385.228 408.211 385.146 407.783C385.042 407.235 384.828 406.786 384.549 406.424C391.052 405.97 397.529 405.055 403.933 403.69C407.884 402.847 406.969 396.623 402.985 396.694C393.485 396.869 383.985 397.055 374.479 397.176C365.258 397.291 355.692 397.96 346.542 396.573C344.624 396.283 342.734 397.055 342.159 399.061C341.677 400.743 342.745 403.154 344.646 403.444C350.12 404.277 355.653 404.474 361.198 404.474C361.735 405.46 362.71 406.222 364.113 406.337C368.003 406.655 371.898 406.792 375.788 406.77C375.416 408.632 375.558 410.709 375.602 412.605C375.695 416.577 376.259 420.527 377.163 424.395C377.476 425.738 378.319 426.494 379.311 426.795C379.941 427.288 380.703 427.584 381.448 427.507C386.647 426.965 391.836 426.362 397.019 425.699C397.567 426.51 398.504 427.025 399.846 426.888C406.355 426.225 412.875 425.77 419.417 425.524C421.674 425.436 422.825 423.656 422.852 421.891C422.934 421.88 423.016 421.864 423.093 421.853C429.098 421.102 435.092 420.281 441.075 419.388C442.993 419.103 444.011 416.703 443.562 415.004L443.568 414.999Z" fill="#233244"></path><path d="M103.52 114.991C102.922 115.358 105.437 190.874 105.437 190.874L109.349 419.7C109.349 419.7 108.878 421.65 109.349 422.412C109.82 423.174 122.422 421.535 124.066 420.44C125.709 419.344 206.403 416.922 221.119 420.324C235.835 423.727 341.178 424.867 343.025 424.297C344.871 423.727 344.619 418.478 344.465 417.815C344.312 417.152 344.57 368.516 344.57 368.516L343.025 239.565L341.562 176.689C341.562 176.689 342.515 117.27 342.597 116.541C342.679 115.813 341.562 110.865 341.562 110.865C341.562 110.865 326.714 93.3709 306.754 79.6627C286.794 65.9545 274.664 66.4695 274.664 66.4695L272.516 82.8679C272.516 82.8679 246.322 79.1258 246.837 79.6627C247.352 80.1997 246.76 86.0402 246.76 86.0402L212.27 84.9773L210.09 80.7475L192.453 84.9773C192.453 84.9773 187.084 62.7274 185.714 62.9685C184.339 63.215 156.309 74.4139 137.725 84.9773C119.14 95.5406 103.525 114.991 103.525 114.991H103.52Z" fill="#192D42"></path><path d="M342.904 223.484C342.904 223.539 342.904 223.533 342.904 223.484Z" fill="#667A91" stroke="#000102" stroke-width="2.19156" stroke-miterlimit="10"></path><path d="M242.448 325.277C241.999 292.814 241.418 256.029 240.838 221.26C290.75 222.038 336.455 222.865 342.274 223.374C342.263 221.692 342.258 220.005 342.29 218.323C342.334 215.693 342.477 213.074 342.455 210.439C342.427 206.757 342.367 203.053 342.712 199.388C334.636 198.851 289.392 198.56 240.454 198.358C239.418 137.18 238.493 87.399 238.493 87.399L217.338 86.6155C217.393 88.0345 217.492 137.613 217.59 198.27C163.267 198.073 110.768 197.947 104.933 197.678C105.114 198.9 105.026 200.149 104.851 201.409C104.868 201.59 104.889 201.771 104.9 201.952C105.021 203.656 105.021 205.398 104.665 207.069C105.328 211.091 105.317 215.249 105.147 219.347C115.447 219.479 165.859 220.131 217.623 220.903C217.678 255.722 217.733 292.556 217.777 325.09L106.681 324.285C107.256 328.416 107.476 332.613 107.163 336.771C107.339 338.864 107.317 340.963 107.322 343.067C107.399 344.628 107.47 346.184 107.47 347.745C107.47 348.063 107.328 348.282 107.13 348.403L107.169 349.115C107.169 349.115 161.311 348.408 217.804 347.674C217.864 391.275 217.908 422.675 217.908 422.675C217.908 422.675 237.194 422.9 242.969 422.275C243.495 422.22 243.281 390.853 242.728 347.351C295.259 346.672 343.162 346.053 343.792 346.058C345.194 346.074 342.531 326 342.531 326L242.432 325.271L242.448 325.277Z" fill="#667A91" stroke="#000102" stroke-width="2.19156" stroke-miterlimit="10"></path><path d="M106.023 177.921C105.728 177.565 105.262 177.319 104.791 177.335C104.32 177.352 103.881 177.582 103.558 177.921C103.41 178.075 103.317 178.289 103.317 178.502C103.317 178.705 103.405 178.946 103.558 179.083C103.711 179.22 103.92 179.335 104.139 179.324C104.358 179.313 104.566 179.242 104.719 179.083C104.774 179.028 104.829 178.973 104.895 178.924L104.73 179.05C104.796 179.001 104.867 178.957 104.944 178.924L104.747 179.006C104.813 178.979 104.878 178.962 104.95 178.952L104.73 178.979C104.785 178.973 104.84 178.973 104.9 178.979L104.681 178.952C104.747 178.962 104.807 178.979 104.862 179.001L104.665 178.919C104.73 178.946 104.791 178.984 104.846 179.028L104.681 178.902C104.752 178.957 104.813 179.017 104.867 179.088C104.944 179.171 105.032 179.225 105.13 179.258C105.229 179.308 105.333 179.335 105.448 179.33C105.651 179.33 105.892 179.242 106.029 179.088C106.166 178.935 106.281 178.727 106.27 178.508L106.243 178.289C106.204 178.152 106.133 178.031 106.029 177.927L106.023 177.921Z" fill="black"></path><path d="M341.036 118.672C342.942 133.531 341.573 148.697 341.414 163.621C341.32 172.141 340.499 180.694 340.778 189.213C341.058 197.733 342.279 206.099 342.542 214.581C342.816 223.424 342.614 232.299 342.674 241.148C342.734 250.106 342.827 259.069 342.926 268.027C343.118 285.856 343.326 303.684 343.32 321.512C343.315 339.352 343.594 357.186 343.655 375.019C343.66 377.288 343.666 379.55 343.66 381.819C343.66 382.876 345.304 382.876 345.304 381.819C345.326 363.979 344.959 346.146 344.953 328.312C344.953 310.39 344.832 292.469 344.635 274.547C344.443 256.702 344.235 238.858 344.246 221.013C344.246 212.543 343.529 204.16 342.844 195.728C342.488 191.356 342.301 187.011 342.427 182.622C342.553 178.299 342.855 173.987 342.981 169.665C343.2 161.874 343.266 154.077 343.441 146.286C343.611 138.775 343.731 131.236 343.178 123.735C343.052 122.047 342.887 120.36 342.674 118.678C342.542 117.642 340.893 117.631 341.03 118.678L341.036 118.672Z" fill="black"></path><path d="M78.355 443.692C83.8722 443.73 89.3073 444.788 94.8136 444.974C97.712 445.073 100.605 444.777 103.503 444.755C106.363 444.733 109.229 444.859 112.078 445.095C116.017 445.418 119.907 446.163 123.852 446.41C129.035 446.733 134.245 446.793 139.439 446.875C147.877 447.012 156.32 447.073 164.757 447.122C175.469 447.182 186.18 447.21 196.897 447.226C208.912 447.248 220.927 447.259 232.937 447.281C245.33 447.297 257.729 447.325 270.122 447.368C281.82 447.412 293.523 447.467 305.22 447.571C315.301 447.659 325.388 447.774 335.469 447.977C342.964 448.124 350.465 448.3 357.96 448.672C361.806 448.859 366.074 448.826 369.624 449.724C369.805 449.768 369.986 449.817 370.161 449.883C370.227 449.905 370.096 449.806 370.331 449.982C371.18 450.612 372.002 449.187 371.159 448.563C370.435 448.02 369.225 447.96 368.37 447.845C366.392 447.566 364.398 447.418 362.409 447.286C355.774 446.842 349.117 446.662 342.471 446.497C332.954 446.256 323.432 446.125 313.91 446.021C302.497 445.895 291.084 445.823 279.677 445.769C267.355 445.714 255.039 445.681 242.717 445.659C230.471 445.637 218.226 445.626 205.986 445.604C194.798 445.588 183.616 445.566 172.428 445.522C163.283 445.484 154.139 445.434 144.995 445.319C138.875 445.243 132.755 445.171 126.641 444.914C125.024 444.848 123.403 444.771 121.786 444.607C121.66 444.596 121.54 444.58 121.414 444.563C121.216 444.536 121.573 444.585 121.436 444.563C120.937 444.497 120.444 444.415 119.951 444.35C117.146 443.955 114.335 443.626 111.513 443.407C108.659 443.188 105.799 443.078 102.933 443.122C100.134 443.166 97.3504 443.44 94.5452 443.33C89.132 443.117 83.7846 442.092 78.3605 442.059C77.303 442.054 77.303 443.698 78.3605 443.703L78.355 443.692Z" fill="black"></path><path d="M77.5497 443.67C77.8949 442.728 78.3825 441.763 79.2263 441.166C79.8509 440.728 80.585 440.542 81.3192 440.399C82.1301 440.246 82.9519 440.147 83.7518 439.922C84.7983 439.627 85.779 439.101 86.683 438.503C88.9184 437.041 90.8141 435.134 92.9016 433.474C95.1808 431.666 97.4984 429.902 99.8544 428.192C102.429 426.329 105.098 424.571 107.991 423.239C108.949 422.801 108.117 421.382 107.163 421.82C101.766 424.297 97.1258 428.176 92.4469 431.759C90.2663 433.43 88.3267 435.419 86.042 436.953C85.1106 437.583 84.1299 438.131 83.0341 438.405C82.2396 438.602 81.4178 438.69 80.6179 438.86C79.6645 439.062 78.7606 439.418 78.0045 440.038C76.9964 440.854 76.4101 442.026 75.9718 443.221C75.6102 444.218 77.1936 444.645 77.5552 443.659L77.5497 443.67Z" fill="black"></path><path d="M76.2293 441.254C76.3169 443.632 75.5445 445.906 75.4678 448.267C75.4404 449.067 75.7526 450.092 75.6814 450.744C75.6101 451.395 75.2595 452.091 75.1335 452.749C74.7116 454.99 73.9884 459.603 76.6457 460.819C78.1743 461.521 80.1138 460.71 81.7137 460.737C84.3819 460.781 87.0172 461.214 89.6581 461.548C92.3318 461.888 95.011 462.134 97.6792 462.54C100.063 462.901 102.457 463.252 104.868 463.323C110.226 463.482 115.573 463.203 120.937 463.493C126.257 463.783 131.544 464.463 136.87 464.649C142.305 464.841 147.745 464.687 153.186 464.852C158.528 465.011 163.842 465.575 169.162 466.041C190.826 467.931 212.676 465.794 234.378 465.821C245.177 465.832 255.959 466.599 266.758 466.375C272.16 466.26 277.563 465.997 282.965 465.865C288.356 465.734 293.731 465.931 299.122 465.975C304.475 466.013 309.822 465.854 315.159 465.454C320.408 465.065 325.607 464.348 330.878 464.315C336.137 464.282 341.392 464.605 346.652 464.643C351.911 464.682 356.919 464.118 362.075 463.679C364.611 463.46 367.154 463.34 369.701 463.449C370.759 463.493 370.759 461.849 369.701 461.805C364.694 461.586 359.752 462.337 354.771 462.742C349.632 463.164 344.476 462.983 339.332 462.824C334.187 462.666 329.009 462.512 323.865 462.983C318.813 463.444 313.784 463.975 308.71 464.178C298.202 464.6 287.693 464.03 277.179 464.402C266.61 464.775 256.118 464.737 245.544 464.402C224.297 463.729 203.077 465.334 181.835 465.065C171.288 464.934 160.84 463.296 150.293 463.153C145.159 463.087 140.026 463.197 134.897 462.929C129.665 462.655 124.46 462.008 119.222 461.773C116.538 461.652 113.847 461.586 111.163 461.597C108.61 461.608 106.056 461.794 103.509 461.619C100.961 461.444 98.3093 460.967 95.7178 460.606C93.2687 460.26 90.8031 460.069 88.3541 459.74C85.8941 459.411 83.3519 458.978 80.8645 459.099C79.2537 459.176 77.095 460.227 76.5964 458.063C76.2293 456.469 76.443 454.606 76.7608 453.023C76.8868 452.387 77.1333 451.795 77.2812 451.176C77.5223 450.19 77.073 449.072 77.1333 448.021C77.2593 445.741 77.9661 443.555 77.8839 441.26C77.8456 440.208 76.2019 440.202 76.2402 441.26L76.2293 441.254Z" fill="black"></path><path d="M322.259 424.478C327.437 424.686 332.614 425.25 337.787 425.601C338.696 425.661 339.611 425.749 340.521 425.754C341.578 425.76 341.578 424.116 340.521 424.11C338.395 424.094 336.253 423.847 334.132 423.694C331.086 423.469 328.04 423.234 324.993 423.015C324.084 422.949 323.174 422.867 322.259 422.828C321.202 422.785 321.202 424.428 322.259 424.472V424.478Z" fill="black"></path><path d="M241.024 421.765C251.768 421.365 262.496 420.335 273.262 420.549C276.357 420.609 279.447 420.779 282.532 421.086C283.584 421.19 283.578 419.546 282.532 419.442C271.76 418.363 260.923 419.064 250.146 419.673C247.105 419.842 244.07 420.007 241.029 420.122C239.977 420.16 239.972 421.804 241.029 421.765H241.024Z" fill="black"></path><path d="M107.163 421.497C111.382 423.979 116.291 422.374 120.713 421.415C123.348 420.845 126.054 420.555 128.739 420.336C131.533 420.111 134.339 420.029 137.138 420.138C142.825 420.363 148.491 420.571 154.189 420.527C159.925 420.478 165.661 420.308 171.392 420.22C177.83 420.116 184.257 420.385 190.678 420.867C191.736 420.944 191.73 419.3 190.678 419.223C185.035 418.801 179.375 418.533 173.71 418.555C168.061 418.577 162.407 418.78 156.758 418.862C151.159 418.938 145.559 418.927 139.971 418.654C137.155 418.517 134.355 418.402 131.539 418.528C128.799 418.648 126.065 418.927 123.348 419.311C120.718 419.684 118.17 420.407 115.557 420.878C113.004 421.344 110.308 421.448 107.996 420.089C107.081 419.552 106.254 420.971 107.169 421.508L107.163 421.497Z" fill="black"></path><path d="M333.382 426.132C332.533 425.217 331.163 425.047 330.001 425.332C329.585 425.436 329.295 425.929 329.426 426.346C329.568 426.779 329.99 427.031 330.44 426.921C330.566 426.888 330.692 426.866 330.823 426.85L330.604 426.877C330.878 426.844 331.157 426.839 331.437 426.877L331.218 426.85C331.453 426.883 331.678 426.943 331.897 427.036L331.7 426.954C331.859 427.025 332.007 427.107 332.149 427.217L331.985 427.091C332.072 427.157 332.149 427.233 332.226 427.31C332.522 427.628 333.097 427.628 333.387 427.31C333.7 426.97 333.7 426.483 333.387 426.149L333.382 426.132Z" fill="black"></path><path d="M102.649 115.046C102.627 132.068 103.021 149.091 103.438 166.109C103.64 174.377 103.859 182.639 104.073 190.906C104.331 200.927 103.958 210.948 104.232 220.964C104.511 231.122 105.404 241.268 105.848 251.421C106.292 261.573 106.539 271.644 106.407 281.758C106.276 292.058 105.744 302.336 105.859 312.648C105.974 322.959 106.347 333.561 106.621 344.009C107.163 364.785 108.264 385.561 108.495 406.342C108.522 408.906 108.533 411.476 108.533 414.04C108.533 415.098 110.177 415.098 110.177 414.04C110.199 393.357 109.053 372.691 108.478 352.019C107.897 331.122 107.174 310.253 107.875 289.351C108.555 269.151 107.525 248.933 106.254 228.777C105.602 218.46 105.903 208.143 105.843 197.815C105.793 189.449 105.459 181.083 105.251 172.716C104.813 155.409 104.391 138.095 104.309 120.782C104.298 118.87 104.298 116.952 104.298 115.04C104.298 113.983 102.654 113.983 102.654 115.04L102.649 115.046Z" fill="black"></path><path d="M343.238 398.371C343.901 400.19 344.142 402.063 344.06 403.987C344.044 404.43 344.449 404.808 344.882 404.808C345.342 404.808 345.687 404.43 345.704 403.987C345.791 401.943 345.528 399.855 344.822 397.932C344.668 397.516 344.263 397.237 343.808 397.357C343.408 397.467 343.079 397.949 343.233 398.371H343.238Z" fill="black"></path><path d="M337.852 425.743C346.909 430.51 355.012 436.849 363.466 442.563C364.935 443.555 366.474 444.487 367.636 445.851C368.414 446.766 368.857 447.856 369.099 449.023C369.405 450.486 369.471 451.998 369.597 453.483C369.685 454.496 369.767 455.51 369.898 456.524C370.041 457.603 370.282 458.666 370.37 459.751C370.457 460.792 370.457 462.063 369.723 462.907C369.301 463.389 368.54 463.663 367.964 463.898C366.518 464.501 364.929 465.054 363.373 465.295C362.332 465.454 362.776 467.038 363.811 466.879C365.269 466.654 366.732 466.139 368.096 465.608C369.707 464.978 371.109 464.32 371.734 462.589C372.512 460.441 371.696 458.063 371.46 455.888C371.257 454.042 371.17 452.184 370.945 450.338C370.775 448.941 370.523 447.56 369.877 446.295C369.192 444.952 368.096 443.884 366.912 442.974C364.962 441.473 362.831 440.175 360.809 438.767C358.541 437.189 356.289 435.594 354.021 434.016C349.057 430.559 344.027 427.157 338.669 424.335C337.732 423.842 336.899 425.261 337.841 425.754L337.852 425.743Z" fill="black"></path><path d="M343.605 409.569C342.548 413.668 343.846 417.848 343.556 421.996C343.485 423.053 345.128 423.047 345.2 421.996C345.474 418.012 344.175 413.936 345.189 410.008C345.452 408.983 343.868 408.545 343.605 409.569Z" fill="black"></path><path d="M79.9056 124.787C84.4641 124.826 88.9897 126.206 93.5481 125.368C94.5453 125.187 95.5534 124.864 96.4245 124.332C97.4326 123.719 98.2983 122.826 99.0928 121.966C101.005 119.9 102.61 117.571 104.292 115.32C107.371 111.189 111.201 107.594 114.932 104.055C119.682 99.5568 124.685 95.3161 129.933 91.4097C137.116 86.0678 144.737 81.3121 152.693 77.2084C162.566 72.113 172.948 68.0367 183.627 64.974C185.101 64.5521 186.58 64.1521 188.059 63.7631C189.084 63.5001 188.651 61.9113 187.621 62.1797C176.603 65.0397 165.859 68.9516 155.608 73.9155C147.28 77.948 139.291 82.6818 131.758 88.0566C126.115 92.0836 120.723 96.4612 115.628 101.157C112.478 104.055 109.377 107.052 106.418 110.148C104.506 112.147 102.917 114.432 101.279 116.651C99.6406 118.87 98.0846 121.078 95.9697 122.667C94.2932 123.927 91.9482 124.02 89.9375 123.987C87.5651 123.949 85.2092 123.609 82.8533 123.352C81.8725 123.248 80.8918 123.149 79.9056 123.143C78.8482 123.133 78.8482 124.776 79.9056 124.787Z" fill="black"></path><path d="M205.263 25.7942C204.983 29.3335 205.493 32.8784 206.035 36.363C206.578 39.8476 207.126 43.6061 207.383 47.2824C207.926 55.183 208.15 63.1 208.83 70.9951C209.131 74.5126 209.542 78.0355 210.26 81.4927C210.523 82.7693 210.824 84.139 211.482 85.2786C212.068 86.2867 212.977 86.7031 214.106 86.8237C215.371 86.9606 216.665 86.7689 217.925 86.621C219.01 86.4949 220.029 86.4785 221.119 86.5333C223.727 86.6703 226.346 86.6757 228.954 86.6703C235.085 86.6483 241.21 86.4292 247.341 86.4128C248.398 86.4128 248.398 84.7691 247.341 84.7691C242.081 84.78 236.816 84.9554 231.556 85.0047C228.844 85.0321 226.127 85.043 223.415 84.9718C222.297 84.9444 221.179 84.8732 220.067 84.8239C218.955 84.7746 217.925 84.9828 216.867 85.0923C215.848 85.2019 214.435 85.4649 213.459 85.0102C212.616 84.6212 212.358 83.1692 212.15 82.3748C211.317 79.1861 210.934 75.844 210.616 72.573C209.871 64.8807 209.63 57.1554 209.164 49.4411C208.923 45.4251 208.506 41.4693 207.871 37.4971C207.252 33.6345 206.6 29.7116 206.907 25.7832C206.989 24.7258 205.345 24.7313 205.263 25.7832V25.7942Z" fill="black"></path><path d="M253.51 29.6296C251.664 37.3603 250.678 45.2773 249.67 53.1505C249.22 56.6351 248.793 60.1252 248.234 63.5933C247.675 67.0615 247.1 70.3378 246.64 73.7293C246.18 77.1207 245.73 80.5067 246.01 83.8817C246.097 84.9282 247.741 84.9391 247.653 83.8817C247.412 80.9286 247.741 77.9316 248.114 75.0004C248.535 71.6692 249.116 68.3545 249.659 65.0397C250.864 57.6597 251.615 50.2138 252.721 42.8228C253.362 38.5438 254.097 34.2757 255.105 30.0679C255.351 29.0379 253.768 28.5996 253.521 29.6296H253.51Z" fill="black"></path><path d="M206.808 32.9332C203.345 31.169 199.559 33.7002 196.376 34.9439C191.927 36.6862 187.226 37.7108 182.723 39.2832C182.416 39.3928 182.071 39.7106 182.12 40.0777C182.92 46.4332 184.416 52.6518 185.917 58.8648C186.629 61.807 187.325 64.7437 187.873 67.7187C188.421 70.6938 188.876 73.5757 189.434 76.4905C190.053 79.7066 190.793 82.9063 191.927 85.9799C192.097 86.4347 192.667 86.8018 193.133 86.473C195.45 84.8348 198.222 84.5335 200.973 84.2815C203.74 84.0294 206.528 83.7226 208.978 82.3091C209.893 81.7831 209.065 80.3586 208.15 80.89C203.263 83.7062 197.028 81.7064 192.3 85.054L193.505 85.5471C191.494 80.0956 190.694 74.2934 189.686 68.5954C188.618 62.5686 186.996 56.6733 185.67 50.7013C184.887 47.1893 184.202 43.6499 183.753 40.0777L183.15 40.8721C187.484 39.3599 191.96 38.2861 196.283 36.7301C197.927 36.1383 199.477 35.311 201.115 34.7029C202.617 34.144 204.447 33.5797 205.975 34.3577C206.918 34.8344 207.75 33.4208 206.802 32.9387L206.808 32.9332Z" fill="black"></path><path d="M247.472 81.2188C251.636 81.1201 255.724 82.3365 259.866 82.594C263.997 82.8515 268.259 82.6597 272.27 83.8267C272.829 83.9911 273.251 83.5473 273.311 83.0323C273.93 77.663 274.703 72.3155 275.415 66.9572C275.771 64.2835 276.105 61.6043 276.417 58.9196C276.719 56.3281 277.015 53.7202 276.894 51.1122C276.845 50.0548 276.587 48.9919 276.626 47.9399C276.653 47.1235 276.85 46.3127 277.037 45.5182C277.431 43.8307 277.946 42.0556 277.678 40.3078C277.108 36.6095 272.741 36.5821 269.821 36.4726C267.75 36.3959 265.646 36.1164 263.575 36.2589C262.211 36.3575 260.841 36.6205 259.471 36.6369C258.101 36.6534 256.776 36.1712 255.406 36.111C254.348 36.0616 254.348 37.7053 255.406 37.7546C256.534 37.8039 257.63 38.1381 258.753 38.2477C259.948 38.3628 261.159 38.1381 262.342 38.0176C263.542 37.8916 264.747 37.7985 265.953 37.8916C266.692 37.9464 267.427 38.034 268.172 38.0614C269.783 38.1217 271.421 38.1162 273.015 38.3683C274.335 38.5765 275.678 38.9107 276.023 40.3735C276.39 41.9241 275.782 43.6664 275.437 45.1676C275.25 45.9785 275.075 46.8003 275.004 47.6331C274.927 48.5426 275.13 49.4356 275.201 50.3397C275.398 52.849 275.168 55.3693 274.894 57.8622C274.62 60.3551 274.286 63.0343 273.952 65.6203C273.19 71.4225 272.347 77.2192 271.673 83.0323C272.018 82.7693 272.369 82.5063 272.714 82.2378C268.632 81.0544 264.293 81.2078 260.096 80.9613C255.877 80.7147 251.719 79.4765 247.478 79.5751C246.42 79.6025 246.42 81.2462 247.478 81.2188H247.472Z" fill="black"></path><path d="M84.6175 435.364C84.9791 436.449 85.4394 437.506 86.0037 438.503C86.2174 438.876 86.7598 439.035 87.1268 438.799C87.4939 438.564 87.6474 438.076 87.4227 437.676C87.1652 437.221 86.9296 436.75 86.7159 436.274C86.6885 436.219 86.6666 436.158 86.6392 436.104C86.6063 436.022 86.6118 436.038 86.6611 436.153C86.6447 436.12 86.6338 436.087 86.6173 436.054C86.568 435.939 86.5242 435.819 86.4804 435.704C86.3817 435.452 86.2886 435.194 86.2064 434.931C86.0694 434.526 85.6311 434.213 85.1928 434.356C84.7874 434.487 84.4751 434.931 84.6175 435.37V435.364Z" fill="black"></path><path d="M343.057 422.779C341.918 423.782 341.249 425.234 340.51 426.538C340.296 426.91 340.411 427.453 340.806 427.661C341.2 427.869 341.704 427.765 341.929 427.365C342.296 426.718 342.641 426.061 343.03 425.431C343.118 425.288 343.211 425.14 343.304 425.003C343.353 424.932 343.403 424.856 343.457 424.784C343.485 424.746 343.512 424.708 343.545 424.669C343.556 424.653 343.638 424.543 343.567 424.636C343.49 424.735 343.594 424.603 343.611 424.587C343.633 424.56 343.66 424.527 343.682 424.499C343.737 424.434 343.792 424.373 343.846 424.313C343.961 424.187 344.087 424.067 344.219 423.951C344.542 423.667 344.531 423.075 344.219 422.79C343.874 422.472 343.403 422.489 343.057 422.79V422.779Z" fill="black"></path><path d="M67.7041 96.7022C71.5667 96.5269 74.8486 98.9321 77.7141 101.239C80.8097 103.732 83.7902 106.515 87.5158 108.049C88.4911 108.449 88.9184 106.86 87.9541 106.466C82.1574 104.082 78.3879 98.45 72.6077 96.0064C71.0517 95.3489 69.3971 94.9818 67.7041 95.0585C66.6522 95.1078 66.6467 96.7515 67.7041 96.7022Z" fill="black"></path><path d="M100.446 83.58C103.092 85.5744 105.52 87.8536 108.281 89.7C108.648 89.9465 109.19 89.7712 109.404 89.4041C109.64 88.9987 109.481 88.5275 109.108 88.2809C106.347 86.44 103.92 84.1553 101.273 82.161C100.917 81.8925 100.353 82.1062 100.15 82.4569C99.9037 82.8787 100.09 83.3116 100.446 83.58Z" fill="black"></path><path d="M367.942 125.258C364.014 125.297 359.916 126.853 356.015 125.784C353.993 125.231 352.7 123.467 351.528 121.839C350.021 119.763 348.717 117.549 347.287 115.418C345.868 113.303 344.224 111.407 342.559 109.49C341.167 107.885 339.759 106.29 338.313 104.729C334.165 100.231 329.76 95.9625 325.097 91.9957C318.873 86.6976 312.206 81.9091 305.165 77.7561C296.618 72.71 287.523 68.5899 278.094 65.4833C276.828 65.0669 275.557 64.667 274.275 64.2889C273.262 63.9876 272.823 65.571 273.837 65.8723C283.545 68.7707 292.92 72.7264 301.757 77.6903C309.072 81.7995 316.013 86.5771 322.473 91.9355C327.355 95.9789 331.962 100.346 336.291 104.975C337.814 106.602 339.304 108.268 340.773 109.945C342.12 111.49 343.545 113.007 344.75 114.662C346.241 116.7 347.528 118.881 348.931 120.985C350.169 122.847 351.522 124.957 353.336 126.316C354.925 127.51 357.034 127.762 358.968 127.746C361.11 127.729 363.231 127.373 365.351 127.11C366.211 127.006 367.071 126.907 367.937 126.902C368.994 126.891 368.994 125.247 367.937 125.258H367.942Z" fill="black"></path><path d="M349.139 84.3966C346.887 86.3471 344.86 88.5715 342.493 90.3851C342.142 90.6535 341.956 91.0918 342.197 91.5082C342.4 91.8534 342.97 92.0726 343.32 91.8041C345.808 89.8974 347.939 87.6018 350.301 85.5581C350.635 85.2678 350.596 84.6925 350.301 84.3966C349.966 84.0624 349.473 84.1062 349.139 84.3966Z" fill="black"></path><path d="M319.46 64.3711C322.457 60.9084 324.895 56.8486 328.478 53.9338C328.823 53.6544 328.768 53.0626 328.478 52.7723C328.138 52.4326 327.662 52.4928 327.316 52.7723C323.739 55.687 321.295 59.7524 318.298 63.2096C317.608 64.004 318.764 65.171 319.46 64.3711Z" fill="black"></path><path d="M336.932 74.7154C338.954 71.9979 341.485 69.7077 343.375 66.8861C343.622 66.519 343.446 65.9766 343.079 65.7629C342.674 65.5273 342.203 65.6862 341.956 66.0588C340.071 68.8749 337.535 71.1706 335.513 73.8881C335.25 74.2442 335.453 74.8086 335.809 75.0113C336.225 75.2578 336.669 75.0716 336.932 74.7154Z" fill="black"></path><path d="M240.92 421.25C242.892 421.256 244.864 421.338 246.837 421.442C248.793 421.546 250.765 421.727 252.727 421.694C254.661 421.661 256.589 421.426 258.523 421.377C260.457 421.327 262.244 421.563 264.112 421.453C267.92 421.24 271.585 420.149 275.377 419.848C279.086 419.552 282.718 418.643 286.406 418.111C289.912 417.607 293.599 417.284 296.722 415.454C297.632 414.917 296.81 413.498 295.895 414.035C293.172 415.635 289.912 415.985 286.838 416.407C285.162 416.637 283.502 416.928 281.831 417.213C279.946 417.536 278.078 417.98 276.176 418.144C274.335 418.303 272.549 418.533 270.73 418.884C268.84 419.251 266.944 419.59 265.021 419.755C263.098 419.919 261.411 419.755 259.581 419.733C257.751 419.711 255.811 419.914 253.927 420.012C251.784 420.122 249.653 419.957 247.516 419.842C245.379 419.727 243.128 419.623 240.925 419.612C239.868 419.612 239.868 421.251 240.925 421.256L240.92 421.25Z" fill="black"></path><path d="M343.907 379.216C353.374 379.216 362.825 378.68 372.293 378.723C375.975 378.74 379.646 378.674 383.322 378.543C387.097 378.411 390.877 378.291 394.652 378.455C398.537 378.625 402.498 379.058 406.136 380.504L405.561 379.49C404.668 382.405 404.777 385.408 405.035 388.41C405.27 391.193 405.665 394.196 404.854 396.924C403.72 400.732 399.55 401.642 396.082 402.025C394.061 402.25 392.028 402.337 390.006 402.546C386.828 402.874 383.645 402.968 380.451 402.863C377.153 402.754 373.865 402.463 370.583 402.157C367.871 401.899 365.17 401.669 362.475 401.253C359.631 400.814 356.788 400.321 353.911 400.102C351.21 399.899 348.383 399.91 345.791 400.781C344.794 401.116 345.222 402.705 346.23 402.365C348.558 401.581 351.057 401.559 353.484 401.718C356.147 401.894 358.787 402.332 361.423 402.743C364.107 403.165 366.792 403.444 369.499 403.702C372.786 404.014 376.073 404.321 379.366 404.469C384.807 404.71 390.242 404.271 395.649 403.718C399.348 403.34 403.742 402.568 405.742 399.012C407.177 396.453 407.051 393.21 406.837 390.382C406.574 386.876 406.087 383.364 407.139 379.934C407.281 379.474 406.969 379.085 406.563 378.921C403.358 377.65 399.879 377.162 396.455 376.915C392.62 376.641 388.768 376.718 384.927 376.844C381.393 376.959 377.859 377.14 374.326 377.096C369.564 377.041 364.809 377.135 360.048 377.261C354.662 377.403 349.281 377.578 343.89 377.573C342.833 377.573 342.833 379.216 343.89 379.216H343.907Z" fill="black"></path><path d="M379.777 408.523C382.007 412.857 385.146 417.399 385.091 422.467C385.086 423.031 385.617 423.365 386.132 423.261C392.718 421.919 399.26 420.341 405.906 419.333C409.067 418.851 412.245 418.527 415.439 418.423C418.589 418.319 421.74 418.358 424.89 418.259C428.315 418.155 431.766 417.903 435.103 417.097C436.133 416.851 435.695 415.262 434.664 415.514C428.627 416.971 422.321 416.599 416.162 416.763C409.648 416.933 403.227 418.012 396.855 419.322C393.129 420.089 389.414 420.922 385.689 421.683C386.034 421.946 386.384 422.209 386.73 422.478C386.784 417.092 383.563 412.314 381.19 407.707C380.708 406.764 379.289 407.597 379.771 408.534L379.777 408.523Z" fill="black"></path><path d="M403.347 403.559C410.837 401.494 418.748 401.872 426.435 401.992C428.139 402.02 429.849 402.058 431.553 401.976C433.142 401.899 434.741 401.757 436.336 401.883C437.623 401.981 438.982 402.31 439.892 403.291C440.609 404.063 440.938 405.225 441.212 406.211C441.963 408.89 442.434 411.914 442.165 414.703C442.061 415.755 443.705 415.75 443.809 414.703C444.067 412.046 443.634 409.191 443.014 406.611C442.719 405.373 442.346 404.08 441.689 402.978C440.982 401.8 439.826 401.022 438.527 400.617C437.004 400.146 435.35 400.157 433.777 400.217C432.051 400.283 430.336 400.387 428.611 400.376C424.512 400.343 420.42 400.195 416.321 400.288C411.818 400.392 407.276 400.77 402.92 401.976C401.901 402.255 402.334 403.844 403.358 403.559H403.347Z" fill="black"></path><path d="M106.966 375.206C95.0056 374.85 83.0397 375.628 71.1395 376.773C67.8083 377.09 64.4826 377.441 61.1569 377.808C60.1159 377.923 60.105 379.567 61.1569 379.452C73.0133 378.148 84.9134 377.036 96.8465 376.806C100.221 376.74 103.591 376.751 106.966 376.849C108.023 376.882 108.023 375.239 106.966 375.206Z" fill="black"></path><path d="M58.7132 382.937C59.0364 387.347 58.0283 391.714 58.231 396.124C58.2584 396.683 58.9378 397.237 59.4693 396.837C63.036 394.146 67.474 393.653 71.8133 393.763C76.3772 393.878 80.9082 394.607 85.4776 394.563C87.8829 394.535 90.321 394.283 92.6057 393.5C93.6028 393.16 93.1755 391.571 92.1674 391.916C87.9377 393.363 83.3245 392.963 78.9468 392.601C74.4432 392.229 69.8463 391.714 65.3591 392.552C62.9374 393.007 60.6089 393.933 58.6365 395.423L59.8747 396.135C59.672 391.725 60.6801 387.353 60.3569 382.948C60.2802 381.901 58.6365 381.89 58.7132 382.948V382.937Z" fill="black"></path><path d="M343.775 141.826C353.583 143.459 363.538 141.777 373.378 141.383C376.128 141.273 378.884 141.262 381.629 141.443L380.807 140.621C380.972 143.454 381.399 146.264 381.591 149.091C381.771 151.721 381.887 154.559 380.884 157.052C380.489 158.033 382.078 158.46 382.467 157.491C383.492 154.943 383.421 152.006 383.245 149.311C383.059 146.407 382.615 143.525 382.445 140.621C382.418 140.155 382.089 139.832 381.624 139.799C371.822 139.136 362.069 140.944 352.273 140.868C349.572 140.846 346.871 140.681 344.203 140.238C343.167 140.068 342.723 141.651 343.764 141.821L343.775 141.826Z" fill="black"></path><path d="M374.89 157.009C370.298 155.787 365.554 154.85 360.787 154.795C358.815 154.773 356.859 155.135 354.908 155.398C353.177 155.628 351.254 155.924 349.561 155.337C348.558 154.992 348.131 156.576 349.123 156.921C350.794 157.496 352.656 157.315 354.371 157.107C356.366 156.866 358.354 156.461 360.365 156.439C365.11 156.378 369.882 157.376 374.441 158.592C375.465 158.866 375.898 157.277 374.879 157.009H374.89Z" fill="black"></path><path d="M367.942 162.854C368.583 166.41 368.934 170.004 369.619 173.555C369.69 173.916 370.068 174.141 370.413 174.157C375.279 174.393 380.007 173.226 384.768 172.399C386.938 172.021 389.075 171.834 391.272 171.856C393.496 171.873 395.72 172.004 397.945 171.993C400.334 171.977 402.761 171.807 405.04 171.051C406.037 170.722 405.61 169.133 404.602 169.467C400.558 170.81 396.148 170.3 391.962 170.223C389.82 170.185 387.716 170.278 385.595 170.607C383.245 170.974 380.917 171.478 378.572 171.884C375.87 172.355 373.153 172.651 370.408 172.519L371.202 173.122C370.518 169.577 370.167 165.977 369.526 162.422C369.34 161.381 367.756 161.824 367.942 162.86V162.854Z" fill="black"></path><path d="M383.519 155.376C388.68 154.603 393.951 154.948 399.123 155.409C404.437 155.88 409.747 156.526 415.088 156.548C416.146 156.548 416.146 154.91 415.088 154.905C406.662 154.872 398.318 153.25 389.891 153.288C387.612 153.299 385.338 153.453 383.081 153.792C382.04 153.946 382.484 155.535 383.519 155.376Z" fill="black"></path><path d="M416.42 158.964C416.31 160.838 416.535 162.707 416.738 164.564C416.918 166.18 417.192 167.901 416.968 169.522C416.907 169.966 417.077 170.399 417.543 170.536C417.927 170.645 418.491 170.399 418.557 169.961C419.066 166.306 417.855 162.635 418.069 158.964C418.129 157.907 416.486 157.913 416.425 158.964H416.42Z" fill="black"></path><path d="M3.84747 289.45C3.19548 291.231 2.94346 293.192 2.69143 295.066C2.36269 297.537 2.14902 300.035 2.21477 302.528C2.26408 304.446 2.40655 306.511 3.61191 308.095C5.0693 310.007 7.41975 310.725 9.70994 310.999C12.3617 311.316 15.0573 311.081 17.7091 310.905C20.9307 310.692 24.1359 310.736 27.3575 310.796C31.2913 310.867 35.2252 310.966 39.159 310.949C42.3697 310.938 45.6077 310.944 48.7854 310.445C51.8153 309.974 54.8123 309.273 57.8476 308.829C59.305 308.615 60.7842 308.462 62.2581 308.484C63.3812 308.5 64.5757 308.599 65.6057 309.097C66.5536 309.558 67.3864 308.139 66.433 307.678C64.3785 306.687 61.9677 306.752 59.7542 306.955C57.0148 307.213 54.3192 307.761 51.6181 308.276C48.9718 308.78 46.3967 309.141 43.6956 309.229C39.8549 309.355 36.0142 309.311 32.1789 309.245C28.4807 309.18 24.7769 309.026 21.0787 309.097C18.4652 309.147 15.8572 309.448 13.2438 309.497C10.981 309.541 8.42236 309.519 6.38969 308.374C4.69123 307.415 4.11596 305.92 3.94063 304.079C3.6886 301.476 3.88581 298.813 4.18167 296.222C4.42275 294.118 4.68574 291.883 5.41991 289.883C5.787 288.891 4.19817 288.458 3.83657 289.445L3.84747 289.45Z" fill="black"></path><path d="M5.23902 283.993C13.9614 286.804 23.3413 285.22 32.2938 284.897C34.5786 284.815 36.8633 284.798 39.1425 284.941C41.4217 285.083 43.7667 285.505 46.0788 285.96C50.9879 286.919 55.9736 287.423 60.9594 287.702C66.6685 288.025 72.3939 288.075 78.1084 288.294L77.314 287.253C74.7992 296.529 77.6811 306.106 77.1825 315.502C77.6921 315.365 78.2016 315.228 78.7166 315.086C75.2649 310.566 69.5011 312.768 64.981 314.05C63.9674 314.341 64.3947 315.924 65.4193 315.634C68.9696 314.626 74.4814 312.231 77.2976 315.913C77.7797 316.549 78.7823 316.368 78.8316 315.497C79.3192 306.265 76.4319 296.786 78.9028 287.686C79.0453 287.154 78.6399 286.667 78.1084 286.645C68.1259 286.267 58.0611 286.398 48.1827 284.678C45.8213 284.267 43.4982 283.714 41.1094 283.456C38.8521 283.215 36.5784 283.16 34.3101 283.193C29.6969 283.264 25.0945 283.714 20.4868 283.883C15.5065 284.07 10.4495 283.944 5.67187 282.399C4.66376 282.075 4.2309 283.659 5.23353 283.982L5.23902 283.993Z" fill="black"></path><path d="M206.572 26.5175C207.087 25.5367 208.222 24.9943 209.202 24.5998C210.572 24.0465 212.029 23.7013 213.476 23.4164C216.906 22.748 220.418 22.4631 223.913 22.4138C226.105 22.3809 228.291 22.4905 230.482 22.5507C232.416 22.6055 234.35 22.6055 236.285 22.6494C240.196 22.737 244.223 22.9123 247.955 24.1835C248.897 24.5067 249.817 24.9012 250.721 25.3176C251.554 25.6956 252.447 26.0956 253.149 26.6873C253.718 27.164 254.217 27.7447 254.694 28.3091C255.088 28.7748 255.652 29.3829 255.789 29.9747C256.025 31.0047 257.608 30.5719 257.373 29.5363C257.236 28.9337 256.83 28.3912 256.463 27.9091C255.97 27.2571 255.433 26.627 254.858 26.0463C253.62 24.7861 252.009 24.0794 250.404 23.4C246.612 21.7946 242.64 21.2577 238.547 21.0824C236.427 20.9892 234.301 20.9838 232.175 20.9509C229.995 20.918 227.814 20.7865 225.628 20.7756C221.683 20.7482 217.727 21.0166 213.837 21.696C212.09 22.0028 210.336 22.3918 208.687 23.0548C207.334 23.6027 205.855 24.3478 205.148 25.7011C204.66 26.638 206.074 27.4708 206.567 26.5284L206.572 26.5175Z" fill="black"></path><path d="M366.387 179.395C366.387 182.589 366.546 185.784 366.967 188.956C367.263 191.169 367.729 193.849 370.014 194.835C372.298 195.821 375.049 195.492 377.454 195.235C380.659 194.89 383.837 194.785 387.059 194.972C391.261 195.213 395.436 195.788 399.627 196.139C400.679 196.226 400.674 194.583 399.627 194.495C392.779 193.92 385.897 192.736 379.005 193.421C376.72 193.651 374.337 194.073 372.041 193.712C371.137 193.569 370.156 193.301 369.636 192.49C369.044 191.564 368.836 190.391 368.666 189.328C368.14 186.058 368.025 182.705 368.03 179.395C368.03 178.338 366.387 178.338 366.387 179.395Z" fill="black"></path><path d="M368.869 177.374C371.367 179.308 374.994 179.171 377.985 178.962C381.662 178.71 385.316 178.146 388.976 177.763C391.381 177.511 393.759 177.439 396.164 177.719C398.57 177.998 400.843 178.436 403.188 178.771C404.657 178.979 406.153 178.93 407.626 179.072C408.339 179.138 409.056 179.242 409.736 179.467C409.993 179.549 410.245 179.658 410.47 179.812C410.651 179.938 410.667 179.965 410.744 180.135C411.27 181.346 411.1 183.088 411.034 184.408C410.963 185.811 410.842 187.219 410.601 188.605C410.421 189.641 412.004 190.085 412.185 189.044C412.65 186.353 412.979 183.411 412.563 180.699C412.366 179.428 411.829 178.552 410.607 178.047C409.139 177.439 407.451 177.395 405.884 177.324C401.616 177.127 397.447 175.905 393.162 175.883C390.664 175.872 388.182 176.218 385.711 176.519C384.001 176.727 382.281 176.908 380.566 177.094C378.665 177.302 376.747 177.472 374.835 177.412C373.263 177.363 371.329 177.231 370.03 176.228C369.674 175.955 369.214 175.889 368.869 176.228C368.584 176.508 368.518 177.122 368.869 177.39V177.374Z" fill="black"></path><path d="M411.215 193.827C410.716 193.361 410.02 193.158 409.368 193.399C408.832 193.597 408.377 193.953 408.004 194.38C407.862 194.544 407.763 194.736 407.763 194.961C407.763 195.164 407.851 195.405 408.004 195.542C408.158 195.679 408.366 195.794 408.585 195.783C408.804 195.772 409.023 195.706 409.166 195.542C409.314 195.366 409.478 195.207 409.659 195.065L409.494 195.191C409.637 195.081 409.785 194.988 409.949 194.917L409.752 194.999C409.851 194.961 409.955 194.928 410.059 194.911L409.84 194.939C409.922 194.928 410.01 194.928 410.092 194.939L409.873 194.911C409.949 194.922 410.02 194.944 410.097 194.972L409.9 194.89C409.977 194.922 410.048 194.966 410.119 195.016L409.955 194.89C409.993 194.917 410.026 194.95 410.059 194.983C410.218 195.131 410.42 195.224 410.64 195.224C410.842 195.224 411.083 195.136 411.22 194.983C411.357 194.829 411.472 194.621 411.461 194.402C411.45 194.183 411.379 193.969 411.22 193.821L411.215 193.827Z" fill="black"></path><path d="M359.308 198.944C359.269 198.982 359.1 199.065 359.017 199.136C358.464 199.607 358.924 200.544 359.598 200.538C364.852 200.505 370.118 200.582 375.355 201.042C378.002 201.273 380.621 201.656 383.245 202.061C384.122 202.198 385.009 202.193 385.891 202.314C386.516 202.401 387.036 202.45 387.228 203.086C387.677 204.604 387.469 206.269 387.568 207.831C387.667 209.42 388.269 210.948 388.291 212.537C388.297 213.129 388.187 213.688 387.672 214.038C386.834 214.619 385.48 214.647 384.505 214.74C381.903 214.975 379.284 214.789 376.676 214.647C370.446 214.307 364.222 214.751 357.993 214.745C356.935 214.745 356.935 216.389 357.993 216.389C363.97 216.389 369.942 215.956 375.914 216.252C378.73 216.389 381.558 216.641 384.374 216.4C386.275 216.235 388.91 216.087 389.699 213.995C390.302 212.395 389.639 210.537 389.349 208.938C389.058 207.338 389.228 205.579 389.031 203.902C388.938 203.135 388.823 202.27 388.324 201.651C387.749 200.944 386.784 200.779 385.93 200.675C384.938 200.555 383.946 200.522 382.955 200.358C381.547 200.122 380.133 199.925 378.714 199.749C372.375 198.982 365.976 198.851 359.593 198.895L360.173 200.297C360.058 200.396 360.398 200.166 360.464 200.106C361.236 199.382 360.075 198.221 359.302 198.944H359.308Z" fill="black"></path><path d="M104.807 162.29C103.635 161.742 102.298 161.89 101.049 162.043C99.657 162.213 98.3256 162.372 96.9175 162.345C93.0604 162.279 89.2197 161.802 85.3625 161.764C81.6314 161.726 77.9167 161.797 74.1856 161.622C72.898 161.561 71.616 161.419 70.323 161.375C69.2491 161.337 67.9999 161.331 67.0356 161.885C66.0714 162.438 65.9124 163.468 65.8357 164.449C65.7426 165.643 65.8631 166.848 65.9617 168.037C66.0713 169.325 66.0604 170.618 66.1535 171.906C66.2796 173.604 66.4822 175.308 66.3726 177.012C66.2959 178.245 66.1809 179.68 67.063 180.677C67.7259 181.428 68.7396 181.62 69.6929 181.691C72.0214 181.866 74.4102 181.362 76.6949 180.979C80.2288 180.392 84.0093 180.206 87.6528 179.998C91.9537 179.751 96.2656 179.614 100.572 179.51L99.8597 178.272C99.7994 178.338 99.7337 178.398 99.6625 178.447C98.8461 179.116 100.013 180.277 100.824 179.609C101.005 179.461 101.142 179.286 101.279 179.099C101.651 178.59 101.147 177.85 100.567 177.861C93.3727 178.036 86.1734 178.294 79.007 179.023C76.9086 179.236 74.8485 179.675 72.7501 179.91C71.6982 180.031 70.6079 180.129 69.545 180.025C68.6738 179.938 68.0876 179.675 67.9725 178.716C67.9013 178.119 67.9725 177.505 68.0163 176.913C68.0601 176.19 68.0438 175.472 68.0054 174.755C67.9068 173.012 67.7205 171.281 67.6931 169.533C67.6766 168.591 67.5561 167.648 67.4958 166.706C67.4356 165.764 67.2767 164.569 67.6109 163.649C67.8629 162.958 68.9806 163.013 69.6217 163.002C70.6681 162.991 71.7036 163.117 72.7446 163.183C76.2182 163.413 79.7193 163.463 83.1984 163.419C87.2473 163.369 91.2524 163.764 95.2903 163.934C96.9121 164.005 98.4955 164.016 100.106 163.802C100.797 163.709 101.487 163.61 102.177 163.567C102.736 163.528 103.432 163.457 103.958 163.704C104.911 164.147 105.744 162.734 104.785 162.285L104.807 162.29Z" fill="black"></path><path d="M103.372 204.439C102.468 203.979 101.454 204.111 100.49 204.253C99.3283 204.423 98.1777 204.516 97.0107 204.631C94.2055 204.899 91.5592 205.475 88.8746 206.319C86.5296 207.053 84.1353 207.847 81.6698 207.99C80.1083 208.077 77.7962 208.072 76.9415 209.666C76.0868 211.26 76.9305 213.529 77.3414 215.161C77.9496 217.55 78.2784 220.12 78.4537 222.574C78.5687 224.13 78.5907 226.837 80.7329 226.968C81.6041 227.023 82.3985 226.53 83.2477 226.443C84.6229 226.3 86.1077 226.678 87.4829 226.738C90.6826 226.881 93.8932 226.618 97.0217 225.933C99.8104 225.325 102.649 224.426 105.53 224.804C105.974 224.865 106.347 224.382 106.352 223.982C106.352 223.489 105.969 223.221 105.53 223.161C103.213 222.854 100.862 223.363 98.6106 223.878C96.1451 224.443 93.7014 224.941 91.1702 225.073C89.8553 225.144 88.5349 225.144 87.2144 225.073C85.8995 225.007 84.5572 224.717 83.2422 224.788C82.8313 224.81 82.4369 224.914 82.0369 225.023C81.7136 225.117 81.2369 225.352 80.8972 225.319C80.3055 225.259 80.2289 224.289 80.185 223.829C79.9494 221.566 79.7467 219.314 79.3742 217.063C79.2153 216.109 79.0454 215.172 78.7988 214.236C78.5797 213.392 78.3332 212.532 78.2619 211.66C78.2126 211.052 78.1797 210.378 78.7934 210.072C79.4727 209.726 80.333 209.699 81.0836 209.644C83.193 209.502 85.1873 209.107 87.2254 208.516C90.058 207.688 92.7865 206.746 95.7342 206.39C97.0272 206.231 98.3421 206.198 99.6351 206.017C100.446 205.908 101.772 205.436 102.544 205.836C103.487 206.319 104.314 204.899 103.372 204.417V204.439Z" fill="black"></path></svg> 