<?xml version="1.0" encoding="UTF-8"?> <svg xmlns="http://www.w3.org/2000/svg" width="436" height="486" viewBox="0 0 436 486" fill="none"><path d="M2.93466 4.40734L0.677126 201.761L0.489258 320.941C0.489258 320.941 0.686519 437.651 1.02781 449.586C1.3691 461.522 1.29082 476.651 1.29082 476.651L2.96597 477.643L7.08026 483.48L115.433 477.643L223.243 475.542L384.092 472.017L434.077 469.02L434.102 324.938C434.102 324.938 435.348 164.814 435.502 156.207C435.655 147.6 433.808 35.3511 433.808 35.3511C433.808 35.3511 434.791 13.29 430.683 6.09103C426.575 -1.10793 422.495 1.41761 420.466 2.12571C418.434 2.8338 410.556 6.5867 410.556 6.5867L266.791 4.81647H69.3989L3.81764 3.86447L2.93779 4.40734H2.93466Z" fill="#AAAAAA"></path><path d="M25.9872 23.2024C27.8913 13.7025 29.2985 9.76549 28.7518 9.74158C28.202 9.71767 20.3088 9.74158 20.3088 9.74158C16.9695 31.164 10.0796 35.8422 6.36133 37.8905C6.62537 42.1622 6.71545 46.4977 6.67507 50.8571C13.5245 37.5238 21.0294 32.5827 25.9872 46.8802C31.6189 63.1224 24.083 32.7022 25.9872 23.2103V23.2024Z" fill="#918B80"></path><path d="M14.1148 19.8747C14.1148 19.8747 14.1119 19.8427 14.109 19.8347C14.0447 19.4182 13.9804 19.0017 13.9161 18.5932C13.9161 18.5852 13.9161 18.5772 13.9132 18.5692C13.8343 18.1607 13.7233 17.7923 13.6035 17.4639C13.4836 17.1355 13.3492 16.8471 13.2031 16.6149C12.9284 16.1743 12.5485 15.854 12.2271 15.886C12.2212 15.886 12.2183 15.886 12.2125 15.886L11.7069 16.0702C11.7069 16.0702 11.7011 16.0702 11.6982 16.0702C11.6193 16.1263 11.4293 16.3826 11.4615 16.3425C11.441 16.3666 11.289 16.5107 11.216 16.6309C10.9939 16.9593 10.8156 17.4078 10.6841 17.9685C10.5176 18.4731 10.4036 19.0578 10.3452 19.7386C10.2838 20.2672 10.2633 20.8038 10.2838 21.3325C10.2692 21.9172 10.2838 22.5019 10.3422 23.0946C10.4065 23.5111 10.4708 23.9276 10.5351 24.336C10.7046 25.121 10.9325 25.7377 11.216 26.2023C11.4848 26.6668 11.9086 26.9952 12.2271 26.9551C12.3966 26.8911 12.5631 26.835 12.7326 26.7709C12.7326 26.7709 12.7385 26.7709 12.7414 26.7709C12.9021 26.6668 13.0628 26.4826 13.2002 26.2423C13.2762 26.1141 13.2528 26.1382 13.4018 25.8178C13.3229 25.986 13.545 25.5455 13.6005 25.3933C13.6005 25.3933 13.6035 25.3773 13.6064 25.3773C13.7057 25.0249 13.8051 24.6724 13.9044 24.32C13.9044 24.312 13.9103 24.296 13.9132 24.288C14.0067 23.8875 14.0681 23.431 14.1148 22.9744C14.1674 22.4778 14.1908 21.9412 14.1908 21.4206C14.1908 20.9 14.1616 20.3713 14.1148 19.8667V19.8747Z" fill="#918B80"></path><path d="M12.3023 452.429C11.4684 448.996 9.67678 447.979 8.35646 450.216C7.03009 452.46 6.40165 457.034 7.21137 460.746C7.93347 464.061 9.42299 465.7 10.8521 464.76C11.6648 464.224 12.2782 462.136 12.3023 459.992C12.8885 457.857 12.8371 454.626 12.3023 452.429Z" fill="#918B80"></path><path d="M24.4591 463.009C15.7372 447.952 14.8091 418.131 12.2027 394.819C11.5956 389.386 8.6014 390.564 8.18184 395.008C7.10113 390.77 3.90988 393.553 4.4693 399.366C7.12338 427.083 10.8296 459.506 22.3708 471.882C24.7833 474.467 26.6841 466.852 24.4559 463.001L24.4591 463.009Z" fill="#918B80"></path><path d="M11.2546 72.9936C11.2832 67.397 7.79053 67.397 7.76195 72.9936C7.44126 136.224 7.30156 199.463 7.34918 262.709C7.35236 268.306 10.845 268.314 10.8418 262.709C10.7942 199.471 10.9339 136.232 11.2546 72.9936Z" fill="#918B80"></path><path d="M11.2415 350.113C10.5429 334.491 10.0483 318.823 9.76394 303.114C9.66193 297.515 6.26157 297.483 6.36358 303.114C6.64797 318.823 7.14257 334.491 7.84119 350.113C8.08849 355.632 11.4919 355.696 11.2415 350.113Z" fill="#918B80"></path><path d="M52.1274 12.289C47.5671 14.4869 43.0067 16.6773 38.4496 18.8752C36.2442 19.9365 37.1766 27.9228 39.3788 26.8615C43.9392 24.6636 48.4995 22.4732 53.0566 20.2753C55.262 19.2139 54.3296 11.2277 52.1274 12.289Z" fill="#918B80"></path><path d="M429.697 38.7022C429.526 39.1992 429.357 39.7041 429.188 40.2089C429.054 38.9625 428.683 37.9134 428.008 37.5584C423.571 35.2234 419.583 29.2754 416.757 20.3693C417.091 17.3716 416.217 13.6009 414.743 14.9262C410.037 19.1702 405.29 23.0829 400.503 26.6801C398.717 28.0211 398.96 35.5941 400.959 35.1997C403.813 34.6396 406.68 34.2531 409.543 34.2294C411.62 34.2136 413.803 34.3951 415.758 36.3751C418.025 38.6785 419.127 43.5379 419.908 49.1308C420.873 56.0727 421.432 63.2513 421.6 70.5876C421.691 74.5634 423.995 76.9063 424.801 72.7806C426.771 62.6912 429.204 53.3196 432.13 44.8316C433.576 40.6349 431.156 34.4739 429.701 38.6943L429.697 38.7022ZM425.238 45.6283C425.301 45.4627 425.204 45.0525 425.06 44.5792C425.232 44.7133 425.404 44.8395 425.575 44.9657C425.457 45.1471 425.344 45.3522 425.238 45.6283Z" fill="#918B80"></path><path d="M427.619 17.6657C427.42 16.2847 426.962 15.0905 426.459 14.7899C425.478 14.1968 424.745 15.586 424.383 17.9094C424.03 20.176 423.864 22.4994 423.772 24.9365C423.686 27.1787 424.616 29.6321 425.459 29.4046C426.947 29.0065 428.116 26.7562 428.585 22.9299C428.858 20.7121 428.349 18.5349 427.619 17.6657Z" fill="#918B80"></path><path d="M389.328 25.83C385.396 27.8774 381.466 29.9248 377.533 31.9721C375.376 33.099 376.288 41.5107 378.443 40.3918C382.375 38.3444 386.305 36.297 390.238 34.2497C392.395 33.1228 391.483 24.7111 389.328 25.83Z" fill="#918B80"></path><path d="M422.352 91.5665C419.32 101.528 416.744 112.232 414.648 123.609C413.709 128.709 416.725 133.186 417.674 128.046C419.773 116.67 422.346 105.965 425.378 96.0034C426.747 91.5105 423.706 87.1215 422.352 91.5665Z" fill="#918B80"></path><path d="M421.805 436.857C421.687 436.696 421.57 436.557 421.453 436.426C421.133 435.45 420.731 434.628 420.25 434.036C418.866 432.337 416.944 432.698 415.937 435.812C415.358 437.61 415.215 440.039 415.937 441.792C416.092 442.169 416.295 442.468 416.517 442.684C416.396 443.852 416.365 445.105 416.447 446.396C416.7 450.309 418.141 453.822 419.848 452.392C419.883 452.361 419.914 452.323 419.946 452.292C420.139 452.454 420.345 452.553 420.563 452.584C422.191 452.838 423.568 449.663 423.746 445.797C423.91 442.192 423.087 438.656 421.805 436.849V436.857Z" fill="#918B80"></path><path d="M420.794 346.109C420.788 346.282 420.781 346.447 420.775 346.62C419.896 346.746 419.03 348.263 419.092 350.841C419.322 360.193 419.425 369.562 419.409 378.923C419.039 374.011 415.906 374.097 415.988 379.505C416.019 381.501 416.035 383.497 416.044 385.494C416.022 387.537 415.95 389.581 415.821 391.624C415.749 392.74 415.837 393.723 416.016 394.54C415.972 398.454 415.887 402.368 415.765 406.282C415.708 406.384 415.652 406.502 415.598 406.628C414.732 408.64 413.862 410.644 412.99 412.641C412.924 412.46 412.861 412.279 412.798 412.098C410.877 400.427 408.51 389.274 405.675 378.805C404.611 374.875 401.98 377.21 402.52 382.138C403.924 394.957 406.429 406.699 409.857 416.783C409.919 417.176 409.976 417.569 410.039 417.962C409.979 418.473 409.954 419.007 409.963 419.541C408.202 423.526 406.432 427.488 404.652 431.417C403.983 432.698 403.321 433.98 402.649 435.245C402.435 435.646 402.275 436.11 402.159 436.605C399.648 435.214 397.196 433.304 394.842 430.694C392.826 428.47 391.068 435.913 393.099 438.161C395.055 440.322 397.042 442.146 399.086 443.584C398.687 444.449 398.292 445.313 397.893 446.17C397.739 446.5 397.626 446.901 397.548 447.325C396.38 447.702 395.209 448.072 394.041 448.433C388.029 448.866 382.021 449.306 376.009 449.738C373.793 449.895 373.784 458.549 376.009 458.384C376.339 458.36 376.669 458.337 376.998 458.313C377.133 460.089 377.67 461.535 378.615 461.307C383.77 460.074 388.915 458.659 394.051 457.079L402.856 456.442C403.55 456.395 404.156 455.177 404.438 453.652C405.402 453.314 406.366 452.968 407.33 452.623C407.873 452.426 408.435 450.917 408.535 449.604C409.684 434.836 414.487 423.652 420.423 421.609C420.872 421.451 421.189 420.98 421.39 420.327C421.409 420.327 421.425 420.327 421.444 420.327C423.961 420.178 424.093 413.993 423.955 409.167C423.754 402.258 423.632 395.326 423.585 388.402C423.49 374.278 423.72 360.17 424.247 346.109C424.454 340.576 421.001 340.607 420.794 346.109ZM405.452 444.629C405.091 444.763 404.733 444.881 404.372 445.007C404.859 443.859 405.349 442.712 405.838 441.572C405.694 442.578 405.562 443.592 405.452 444.622V444.629ZM419.504 413.269C419.34 413.325 419.18 413.387 419.017 413.458C419.704 411.823 419.61 409.819 419.143 408.389C419.18 407.351 419.215 406.322 419.246 405.284C419.315 405.638 419.406 405.952 419.513 406.219C419.529 408.562 419.566 410.904 419.629 413.238C419.588 413.246 419.548 413.254 419.504 413.269Z" fill="#918B80"></path><path d="M132.906 453.679C114.276 453.356 95.6494 453.041 77.0195 452.718C74.8056 452.678 74.8025 461.56 77.0195 461.601C95.6494 461.924 114.276 462.239 132.906 462.562C135.12 462.602 135.123 453.719 132.906 453.679Z" fill="#918B80"></path><path d="M187.72 457.82C182.935 457.373 178.159 457.758 173.396 458.983C171.224 459.538 171.199 468.02 173.396 467.457C178.159 466.24 182.935 465.855 187.72 466.294C189.927 466.502 189.924 458.028 187.72 457.82Z" fill="#918B80"></path><path d="M333.535 455.936C317.028 456.981 300.512 456.727 284.008 455.182C281.793 454.975 281.796 463.429 284.008 463.636C300.509 465.189 317.025 465.434 333.535 464.389C335.747 464.251 335.753 455.797 333.535 455.936Z" fill="#918B80"></path><path d="M371.71 18.863C367.099 17.6372 362.422 17.6626 357.788 17.223L343.716 15.8873C341.489 15.676 341.492 24.9749 343.716 25.1863L357.788 26.5219C362.418 26.9615 367.096 26.9362 371.71 28.1619C373.924 28.7537 373.908 19.4463 371.71 18.863Z" fill="#918B80"></path><path d="M193.091 19.4283C171.612 20.4256 150.127 20.204 128.652 18.7038C122.532 18.2776 116.411 17.7492 110.294 17.1184C108.078 16.8883 108.081 26.2642 110.294 26.4944C131.76 28.6934 153.245 29.6651 174.727 29.3668C180.851 29.2816 186.974 29.0941 193.094 28.8043C195.307 28.702 195.314 19.326 193.094 19.4283H193.091Z" fill="#918B80"></path><path d="M272.37 30.0163C262.563 28.5097 252.738 27.9347 242.909 28.2914C240.692 28.3714 240.685 36.3776 242.909 36.2975C252.738 35.9409 262.563 36.5158 272.37 38.0225C274.587 38.3645 274.578 30.3584 272.37 30.0163Z" fill="#918B80"></path><path d="M4.26445 21.9706C3.98262 15.8992 3.50349 9.89866 3.41581 3.78001C3.39389 2.25231 2.5108 2.26806 2.47635 3.78001C1.11414 65.5335 0.506625 127.374 0.237314 189.206C-0.031997 250.849 0.0306331 312.492 0.011844 374.136C0.00558095 391.24 -0.053918 408.336 0.16842 425.432C0.39389 442.614 0.760278 459.789 0.800988 476.98C0.80412 478.499 1.74358 478.499 1.74045 476.98C1.70287 461.632 1.4085 446.3 1.18617 430.96C0.963827 415.762 0.941907 400.579 0.94817 385.373C0.963828 354.417 0.94817 323.454 0.963827 292.499C0.992011 230.855 1.1204 169.204 1.7655 107.577C2.12875 72.9594 2.65485 38.35 3.41894 3.77214H2.47948C2.56717 9.89079 3.04629 15.8913 3.32813 21.9627C3.39702 23.451 4.33648 23.4747 4.26758 21.9627L4.26445 21.9706Z" fill="black"></path><path d="M2.94607 5.7722C7.90014 4.53587 12.873 5.07922 17.8365 5.51233C22.9127 5.95331 27.9857 5.90607 33.0651 5.92182C43.7279 5.94544 54.3907 5.92969 65.0504 5.92182C86.2978 5.91394 107.542 5.92182 128.789 5.92182C171.513 5.92182 214.236 5.92182 256.96 5.91395C299.808 5.91395 342.657 5.90607 385.506 5.91395C390.826 5.91395 396.15 5.91394 401.47 5.92182C406.177 5.92182 411.078 6.96128 415.75 5.31546C420.698 3.57515 425.984 -1.07881 430.477 7.02427C432.187 10.1033 432.629 13.702 432.807 18.7497C433.008 24.3172 433.211 29.8925 433.374 35.4756C434.151 62.0922 434.141 88.8505 434.652 115.506C435.162 142.162 435.137 169.141 434.896 195.954C434.448 245.691 433.474 295.349 433.377 345.109C433.308 380.002 433.02 414.911 433.296 449.804C433.346 456.245 433.418 462.679 433.571 469.113C433.609 470.625 434.548 470.632 434.511 469.113C433.687 434.826 434.138 400.248 434.254 365.922C434.407 320.312 434.827 274.796 435.447 229.209C435.81 202.404 436.095 175.575 435.97 148.746C435.845 121.633 435.171 94.5517 434.88 67.447C434.733 53.934 434.53 40.4288 434.025 26.9709C433.769 20.1278 434.06 12.009 431.899 6.8904C429.156 0.393764 425.335 -0.740187 421.759 0.378023C419.464 1.09462 417.218 2.58294 414.92 3.22867C412.289 3.96889 409.593 3.60666 406.95 3.59091C363.541 3.27592 320.129 3.54366 276.719 3.55153C233.442 3.55153 190.167 3.5594 146.89 3.5594C125.047 3.5594 103.205 3.5594 81.3625 3.5594C70.6621 3.5594 59.9648 3.5594 49.2644 3.5594C38.7926 3.5594 28.2957 4.05551 17.8302 3.14204C12.8667 2.70893 7.89074 2.16558 2.9398 3.40191C2.34482 3.55153 2.33855 5.91394 2.9398 5.76433L2.94607 5.7722Z" fill="black"></path><path d="M432.904 456.789C433.296 459.994 433.311 463.309 433.656 466.467C433.665 466.561 433.828 468.695 433.928 468.247C433.875 468.483 433.947 468.081 433.825 468.278C433.687 468.506 433.289 468.388 433.13 468.42C432.309 468.554 431.489 468.625 430.668 468.703C427.74 468.971 424.809 469.121 421.878 469.278C411.375 469.821 400.869 470.16 390.362 470.491C374.996 470.979 359.633 471.389 344.266 471.782C325.593 472.263 306.923 472.711 288.25 473.152C267.823 473.641 247.399 474.113 226.972 474.609C206.417 475.105 185.861 475.602 165.306 476.137C146.025 476.641 126.745 477.161 107.467 477.751C91.089 478.247 74.708 478.791 58.3302 479.444C46.4367 479.925 34.5431 480.429 22.6527 481.216C16.7404 481.602 10.7185 481.445 4.83436 483.075C4.44919 483.185 3.99825 483.185 3.63499 483.571C3.08384 484.146 3.3281 486.437 3.88551 485.846C4.86255 484.823 6.4377 485.091 7.5995 484.925C10.6277 484.492 13.6621 484.24 16.6966 484.004C27.3218 483.161 37.9534 482.681 48.5849 482.216C63.9982 481.539 79.4116 481.004 94.8281 480.507C113.489 479.909 132.15 479.381 150.813 478.877C171.112 478.334 191.414 477.83 211.712 477.334C232.33 476.83 252.948 476.35 273.566 475.861C292.684 475.412 311.805 474.956 330.923 474.475C347.216 474.066 363.513 473.649 379.806 473.168C391.668 472.822 403.531 472.452 415.39 471.94C421.261 471.688 427.177 471.774 433.039 470.79C433.437 470.727 433.856 470.719 434.245 470.483C434.448 470.365 434.583 469.853 434.589 469.341C434.648 464.734 434.354 460.553 433.816 456.151C433.637 454.702 432.732 455.324 432.91 456.781L432.904 456.789Z" fill="black"></path><path d="M11.7456 22.9233C11.8207 24.4195 11.7299 25.9157 11.8239 27.4119C11.8552 27.9159 12.0869 28.2781 12.2779 28.2781C12.898 28.2939 13.5117 27.8686 13.9815 26.8213C14.3729 25.9472 14.5796 24.703 14.6391 23.4194C14.7393 21.2302 14.2571 18.4898 13.3082 18.1118C12.5942 17.8284 11.9648 18.7418 11.4543 19.9152C11.2727 20.3325 11.2727 21.1672 11.4543 21.5846C11.6485 22.0335 11.9241 22.0335 12.1182 21.5846C12.1746 21.4586 12.231 21.3326 12.2873 21.2145C12.2998 21.183 12.3155 21.1594 12.328 21.1279C12.3249 21.1357 12.2341 21.3011 12.2936 21.1909C12.3218 21.1436 12.3468 21.0885 12.375 21.0412C12.4752 20.868 12.5817 20.7184 12.6913 20.5845C12.7915 20.4664 12.6036 20.6633 12.6725 20.6003C12.6976 20.5766 12.7226 20.553 12.7477 20.5294C12.7946 20.49 12.8416 20.4506 12.8917 20.427C12.9136 20.4113 12.9387 20.4034 12.9606 20.3955C13.017 20.364 12.8228 20.4191 12.9199 20.4113C12.9637 20.4113 13.0076 20.3955 13.0514 20.3955C13.0733 20.3955 13.0953 20.3955 13.114 20.4034C13.2111 20.4034 13.0013 20.3483 13.0671 20.3876C13.1078 20.4113 13.1454 20.427 13.1861 20.4585C13.2049 20.4743 13.2236 20.49 13.2424 20.5058C13.3301 20.5766 13.1422 20.3798 13.1986 20.4585C13.2362 20.5058 13.2738 20.553 13.3082 20.6081C13.3239 20.6318 13.3364 20.6554 13.352 20.679C13.3614 20.6948 13.3677 20.7105 13.3771 20.7184C13.4272 20.7893 13.3145 20.5924 13.3176 20.6003C13.3458 20.679 13.3834 20.7341 13.4115 20.8129C13.4397 20.8759 13.4616 20.9546 13.4867 21.0176C13.5493 21.1909 13.4303 20.8129 13.4616 20.931C13.4742 20.9782 13.4898 21.0255 13.5024 21.0727C13.5493 21.246 13.5838 21.435 13.6214 21.624C13.5556 21.3011 13.5994 21.4901 13.6214 21.6634C13.637 21.7736 13.6495 21.8838 13.6621 21.9941C13.6715 22.0965 13.6809 22.1988 13.6902 22.2933C13.6934 22.3485 13.6965 22.4036 13.7028 22.4587C13.7153 22.6241 13.6871 22.0886 13.6965 22.3721C13.7028 22.6004 13.709 22.8209 13.7028 23.0493C13.7028 23.1595 13.6965 23.2619 13.6934 23.3722C13.6902 23.5139 13.7153 23.0178 13.6996 23.2698C13.6965 23.3328 13.6902 23.3958 13.6871 23.4588C13.6683 23.6872 13.6433 23.9076 13.612 24.1203C13.5775 24.3644 13.6339 24.0021 13.6276 24.0415C13.6182 24.0888 13.612 24.136 13.6026 24.1833C13.5806 24.2935 13.5587 24.4037 13.5305 24.514C13.5055 24.6164 13.4742 24.703 13.4522 24.8054C13.446 24.8369 13.5337 24.5534 13.4773 24.7266C13.4585 24.7817 13.4429 24.829 13.4241 24.8762C13.3865 24.9786 13.3489 25.0731 13.3082 25.1676C13.2863 25.2148 13.2644 25.2542 13.2424 25.3015C13.3552 25.0337 13.2925 25.207 13.255 25.27C13.208 25.3566 13.1579 25.4275 13.1047 25.4983C13.0765 25.5377 13.0514 25.5692 13.0232 25.6007C12.9199 25.7267 13.1203 25.5141 13.0295 25.6007C12.9042 25.7188 12.7758 25.8133 12.6443 25.8684C12.6287 25.8684 12.613 25.8842 12.5973 25.8921C12.5191 25.9236 12.613 25.8763 12.6381 25.8763C12.6036 25.8684 12.5598 25.8999 12.5253 25.8999C12.4408 25.9157 12.3593 25.9236 12.2748 25.9157L12.7289 26.7819C12.7257 26.7268 12.7195 26.5929 12.7257 26.7268C12.7226 26.648 12.7195 26.5614 12.7163 26.4827C12.7101 26.3173 12.7069 26.1519 12.7069 25.9944C12.7038 25.648 12.7069 25.3015 12.7069 24.955C12.7132 24.2777 12.7163 23.6005 12.6819 22.9233C12.6506 22.3091 12.4877 21.7106 12.2122 21.7421C11.9836 21.7657 11.7111 22.2697 11.7424 22.9233H11.7456Z" fill="black"></path><path d="M9.7071 454.143C9.99833 454.127 10.2864 454.143 10.5777 454.214C10.609 454.222 10.6403 454.23 10.6716 454.237C10.6904 454.237 10.7061 454.253 10.7248 454.253C10.7311 454.253 10.6152 454.214 10.6653 454.23C10.728 454.253 10.7906 454.277 10.8564 454.308C10.966 454.356 11.0756 454.419 11.182 454.489C11.2823 454.56 11.3825 454.639 11.4827 454.734C11.5046 454.757 11.5265 454.781 11.5484 454.797C11.6173 454.86 11.442 454.678 11.5109 454.757C11.5547 454.812 11.5985 454.86 11.6424 454.915C11.7207 455.017 11.7958 455.127 11.8678 455.253C11.8835 455.285 11.8992 455.308 11.918 455.34C11.9587 455.411 11.9712 455.521 11.8835 455.269C11.9086 455.34 11.943 455.395 11.9712 455.458C12.0276 455.584 12.0777 455.726 12.1278 455.867C12.1935 456.056 12.0526 455.608 12.1278 455.867C12.1497 455.946 12.1685 456.025 12.1873 456.104C12.2217 456.253 12.2468 456.411 12.2812 456.56C12.2687 456.497 12.2311 456.245 12.2593 456.427C12.2656 456.466 12.2718 456.505 12.2749 456.545C12.2875 456.631 12.2969 456.718 12.3063 456.805C12.3251 456.97 12.3313 457.135 12.347 457.293C12.3532 457.34 12.3313 456.923 12.3376 457.135C12.3376 457.175 12.3407 457.222 12.3438 457.261C12.3438 457.348 12.3501 457.442 12.3501 457.529C12.3501 457.702 12.3501 457.868 12.3438 458.041C12.3438 458.128 12.3344 458.214 12.3344 458.301C12.3344 458.238 12.3564 457.939 12.3407 458.151C12.3376 458.198 12.3344 458.246 12.3313 458.301C12.3063 458.655 12.2687 459.002 12.2186 459.34C12.2061 459.427 12.1935 459.506 12.181 459.592C12.2311 459.317 12.1372 459.868 12.181 459.592C12.1497 459.758 12.1184 459.931 12.0839 460.088C12.015 460.411 11.9399 460.718 11.8553 461.01C11.8459 461.049 11.8334 461.081 11.824 461.112C11.777 461.277 11.896 460.892 11.8553 461.01C11.8334 461.073 11.8115 461.144 11.7896 461.214C11.7426 461.348 11.6956 461.482 11.6486 461.608C11.6017 461.734 11.5516 461.852 11.4983 461.963C11.4764 462.01 11.4514 462.057 11.4294 462.112C11.3324 462.317 11.5203 461.947 11.4326 462.112C11.3324 462.293 11.229 462.451 11.1163 462.593C11.0098 462.726 11.2228 462.498 11.1382 462.569C11.11 462.592 11.0818 462.624 11.0537 462.648C11.0035 462.687 10.9503 462.719 10.8971 462.742C10.7937 462.797 11.038 462.719 10.9347 462.726C10.9065 462.726 10.8783 462.734 10.8532 462.734C10.8282 462.734 10.8063 462.734 10.7812 462.734C10.681 462.726 10.919 462.813 10.8157 462.742C10.7656 462.711 10.7154 462.663 10.6653 462.632C10.6779 462.632 10.8 462.797 10.7311 462.703C10.7186 462.687 10.7092 462.671 10.6967 462.656C10.6747 462.624 10.6497 462.585 10.6278 462.553C10.5276 462.396 10.7061 462.726 10.6466 462.593C10.6246 462.537 10.5996 462.49 10.5777 462.435C10.5557 462.38 10.537 462.325 10.515 462.27C10.5056 462.238 10.4962 462.207 10.4868 462.175C10.5119 462.246 10.5651 462.451 10.5182 462.278C10.4806 462.128 10.443 461.986 10.4117 461.829C10.3929 461.742 10.3804 461.655 10.3616 461.569C10.3303 461.411 10.4054 461.86 10.3835 461.695C10.3741 461.64 10.3647 461.585 10.3585 461.529C10.2896 461.065 10.2426 460.584 10.2081 460.096C10.1987 459.97 10.1925 459.844 10.1831 459.718C10.1737 459.569 10.1956 460.002 10.1894 459.852C10.1894 459.821 10.1862 459.789 10.1862 459.758C10.1831 459.671 10.18 459.584 10.1737 459.506C10.1486 458.891 9.97641 458.293 9.70397 458.324C9.47223 458.348 9.20606 458.844 9.23424 459.506C9.31253 461.388 9.51294 463.9 10.2802 464.782C10.9347 465.53 11.6048 464.837 12.1246 463.742C12.6445 462.648 13.0109 461.112 13.1862 459.513C13.3866 457.687 13.2896 455.773 12.8042 454.285C12.1904 452.395 11.1006 451.907 10.1862 451.82C10.0265 451.804 9.86681 451.804 9.7071 451.82C9.46284 451.836 9.22485 452.355 9.23737 453.001C9.2499 453.647 9.44405 454.198 9.7071 454.182V454.143Z" fill="black"></path><path d="M423.313 20.6711C423.225 25.3329 423.976 30.3412 425.727 32.4753C425.952 32.7509 426.237 32.6406 426.369 32.05C426.892 29.7349 427.12 26.8134 426.66 24.3171C426.2 21.8208 425.094 21.1121 424.086 21.7027C423.497 22.0492 423.748 24.3249 424.337 23.9785C424.543 23.8603 424.7 23.8052 424.925 23.8367C424.938 23.8367 425.076 23.8761 424.994 23.8446C425.041 23.8603 425.085 23.884 425.132 23.9155C425.179 23.947 425.22 23.9785 425.26 24.01C425.389 24.1123 425.188 23.9076 425.31 24.0572C425.386 24.1517 425.461 24.2541 425.53 24.3801C425.451 24.2383 425.555 24.4431 425.564 24.4588C425.592 24.5297 425.624 24.6084 425.652 24.6793C425.658 24.6951 425.743 24.9549 425.683 24.7659C425.708 24.8526 425.73 24.9392 425.752 25.0258C425.774 25.1124 425.796 25.2069 425.815 25.3014C425.818 25.3172 425.874 25.6321 425.84 25.4117C425.99 26.333 426.006 27.0023 425.956 28.0261C425.965 27.8371 425.943 28.2308 425.943 28.2308C425.934 28.3647 425.924 28.4907 425.912 28.6245C425.89 28.8687 425.862 29.1128 425.83 29.349C425.761 29.8924 425.677 30.3255 425.561 30.8452L426.203 30.42C424.737 28.6324 424.18 24.5691 424.252 20.6553C424.264 20.0175 424.026 19.4741 423.782 19.4741C423.519 19.4741 423.325 20.0175 423.313 20.6553V20.6711Z" fill="black"></path><path d="M419.53 442.504C419.489 442.276 419.423 441.842 419.379 441.48C419.357 441.299 419.339 441.118 419.32 440.937C419.31 440.85 419.304 440.764 419.298 440.677C419.295 440.622 419.27 440.244 419.285 440.535C419.27 440.244 419.264 439.945 419.27 439.653C419.27 439.582 419.289 439.173 419.279 439.346C419.27 439.512 419.301 439.118 419.307 439.039C419.32 438.913 419.339 438.803 419.354 438.685C419.31 439.023 419.361 438.653 419.379 438.574C419.401 438.472 419.433 438.378 419.455 438.275C419.492 438.11 419.439 438.33 419.433 438.346C419.454 438.291 419.473 438.228 419.495 438.165C419.527 438.086 419.561 438.007 419.595 437.929C419.639 437.826 419.495 438.086 419.577 437.968C419.592 437.944 419.605 437.913 419.62 437.889C419.658 437.826 419.699 437.771 419.739 437.716C419.765 437.685 419.79 437.661 419.815 437.622C419.89 437.511 419.714 437.685 419.805 437.63C419.896 437.574 419.987 437.48 420.081 437.433C420.1 437.425 420.118 437.417 420.137 437.409C420.241 437.354 420.024 437.425 420.131 437.409C420.187 437.409 420.241 437.385 420.297 437.385C420.397 437.385 420.494 437.401 420.591 437.417C420.701 437.433 420.485 437.362 420.591 437.417C420.613 437.425 420.635 437.433 420.654 437.441C420.717 437.472 420.782 437.504 420.845 437.543C420.954 437.614 421.058 437.708 421.161 437.803C421.183 437.826 421.243 437.897 421.142 437.779C421.167 437.811 421.196 437.834 421.221 437.866C421.277 437.937 421.333 438.008 421.39 438.086C421.493 438.228 421.59 438.393 421.684 438.559C421.778 438.724 421.631 438.448 421.687 438.559C421.709 438.606 421.734 438.653 421.756 438.7C421.809 438.819 421.863 438.945 421.916 439.071C421.953 439.165 421.991 439.267 422.029 439.37C422.047 439.425 422.069 439.488 422.088 439.543C422.166 439.771 422.051 439.409 422.094 439.559C422.173 439.827 422.245 440.11 422.307 440.401C422.339 440.543 422.367 440.693 422.395 440.842C422.448 441.134 422.373 440.701 422.401 440.882C422.414 440.961 422.426 441.039 422.436 441.118C422.483 441.464 422.52 441.819 422.548 442.181C422.555 442.268 422.561 442.362 422.567 442.449C422.555 442.22 422.567 442.465 422.567 442.52C422.573 442.701 422.58 442.882 422.583 443.071C422.589 443.52 422.583 443.969 422.57 444.418C422.561 444.654 422.57 444.488 422.57 444.441C422.564 444.551 422.558 444.654 422.548 444.764C422.536 444.937 422.52 445.103 422.501 445.276C422.483 445.449 422.464 445.591 422.442 445.748C422.436 445.811 422.423 445.866 422.414 445.929C422.454 445.67 422.414 445.929 422.401 445.992C422.348 446.26 422.289 446.512 422.223 446.756C422.157 447 422.289 446.567 422.213 446.788C422.198 446.827 422.185 446.874 422.17 446.914C422.126 447.032 422.079 447.142 422.032 447.26C421.944 447.473 422.082 447.197 421.975 447.371C421.935 447.434 421.897 447.504 421.856 447.56C421.813 447.623 421.762 447.678 421.719 447.741C421.69 447.78 421.618 447.835 421.731 447.733C421.703 447.756 421.672 447.788 421.643 447.812C421.543 447.898 421.443 447.945 421.34 448.008C421.236 448.071 421.424 447.993 421.355 448.008C421.33 448.008 421.302 448.024 421.277 448.024C421.214 448.04 421.149 448.04 421.086 448.04C421.039 448.04 420.989 448.04 420.942 448.024C420.892 448.016 420.776 447.961 420.889 448.016C420.77 447.961 420.654 447.906 420.538 447.812C420.475 447.764 420.413 447.701 420.35 447.646C420.325 447.622 420.272 447.552 420.369 447.67C420.334 447.63 420.297 447.591 420.262 447.544C420.147 447.394 420.037 447.221 419.931 447.04C419.912 447.008 419.893 446.969 419.874 446.937C419.977 447.126 419.855 446.89 419.837 446.851C419.793 446.756 419.752 446.654 419.711 446.552C419.661 446.426 419.614 446.3 419.57 446.166C419.57 446.158 419.495 445.929 419.542 446.079C419.583 446.213 419.501 445.937 419.495 445.914C419.42 445.638 419.357 445.347 419.301 445.047C419.248 444.764 419.336 445.284 419.292 444.985C419.279 444.898 419.267 444.811 419.254 444.717C419.229 444.536 419.207 444.347 419.191 444.166C419.176 444.008 419.163 443.843 419.154 443.677C419.132 443.347 419.16 443.929 419.151 443.591C419.148 443.488 419.144 443.386 419.141 443.276C419.132 442.835 419.141 442.394 419.16 441.961C419.188 441.323 418.925 440.779 418.69 440.779C418.412 440.779 418.249 441.323 418.221 441.961C418.077 445.15 418.719 448.363 419.902 449.709C420.992 450.946 422.317 450.505 423.04 447.945C423.444 446.52 423.56 444.654 423.522 442.937C423.482 441.126 423.247 439.433 422.799 438.007C422.101 435.787 420.857 434.472 419.743 435.165C419.148 435.535 418.665 436.559 418.449 438.007C418.171 439.866 418.415 441.929 418.719 443.654C418.822 444.236 419.16 444.37 419.361 444.079C419.599 443.725 419.633 443.047 419.53 442.465V442.504Z" fill="black"></path></svg> 