<?xml version="1.0" encoding="UTF-8"?> <svg xmlns="http://www.w3.org/2000/svg" width="246" height="586" viewBox="0 0 246 586" fill="none"><path d="M197.308 229.408C199.502 230.578 216.008 237.177 216.008 237.177C216.008 237.177 222.762 243.075 221.024 252.53C219.29 261.981 216.674 259.349 216.674 259.349L199.446 256.367L202.496 392.563C202.496 392.563 220.112 396.396 222.714 400.169C225.312 403.942 231.137 402.053 227.795 413.32C224.452 424.586 214.136 426.982 213.057 424.066C211.977 421.149 197.527 418.249 197.527 418.249C197.527 418.249 180.014 330.372 182.23 326.289C184.445 322.207 187.022 234.14 187.022 234.14L197.312 229.404L197.308 229.408Z" fill="#535D66"></path><path d="M199.403 246.46C204.234 250.797 208.411 250.818 209.331 252.53C210.256 254.238 212.024 252.53 212.024 252.53H216.997C216.997 252.53 216.76 249.437 218.455 246.46C220.15 243.484 213.156 236.893 216.008 237.177C218.86 237.461 220.774 238.253 222.4 246.46C224.026 254.668 218.933 281.628 219.544 284.493C220.155 287.362 219.006 271.127 217.001 268.705C214.992 266.283 213.801 267.255 212.028 268.705C210.26 270.155 206.987 268.546 206.26 268.705C205.528 268.864 203.412 266.778 201.674 266.318C199.936 265.853 200.715 267.535 197.312 265.621C193.913 263.706 190.855 257.275 192.167 252.53C193.483 247.785 199.407 246.46 199.407 246.46H199.403Z" fill="#363F49"></path><path d="M197.308 403.924C208.105 410.394 213.792 415.987 217.617 414.051C221.441 412.115 223.2 409.9 221.462 404.552C219.724 399.21 213.272 400.07 219.724 399.21C226.177 398.349 227.412 399.575 228.728 404.552C230.045 409.53 230.505 417.398 229.847 424.22C229.188 431.043 227.61 441.045 222.809 437.117C218.004 433.194 213.371 428.871 212.028 427.589C210.691 426.307 207.847 423.73 206.26 424.375C204.672 425.021 200.715 425.261 197.312 424.066C193.909 422.87 191.087 420.529 191.087 420.529L197.312 403.924H197.308Z" fill="#363F49"></path><path d="M74.1592 416.856C74.5636 417.333 74.9765 417.802 75.3981 418.271C76.0305 418.641 76.8048 419.002 77.7598 419.351C76.5811 418.49 75.3766 417.664 74.1592 416.86V416.856Z" fill="#58FF00"></path><path d="M201.455 297.742C201.016 297.983 200.332 297.652 200.53 297.05C200.934 295.819 201.201 294.55 201.39 293.264C201.291 286.575 201.166 278.883 201.007 270.873C200.943 272.77 200.887 274.667 200.887 276.569C200.887 277.382 199.626 277.382 199.626 276.569C199.626 273.17 199.734 269.772 199.88 266.378C199.919 265.461 199.962 264.545 200.005 263.625C200.039 262.373 200.065 261.125 200.065 259.873C200.065 259.719 200.121 259.589 200.211 259.491C200.241 258.875 200.272 258.26 200.302 257.645C200.121 256.591 199.927 255.537 199.717 254.487C199.661 254.401 199.631 254.294 199.631 254.161C199.631 254.13 199.631 254.105 199.631 254.075C199.497 253.425 199.364 252.775 199.213 252.13C199.127 251.76 199.351 251.493 199.631 251.39C199.631 249.028 199.631 246.662 199.631 244.301C199.622 238.291 199.596 232.281 199.527 226.272C199.381 225.016 199.252 223.76 199.145 222.503C198.861 219.148 198.723 215.758 198.947 212.394C198.534 206.901 198.06 203.373 197.527 202.831C194.339 199.6 179.025 192.885 161.947 184.626C144.868 176.366 122.718 170.193 112.501 169.195C102.285 168.197 86.2602 169.333 85.2364 169.195C84.2126 169.057 68.7948 171.72 68.7948 171.72C67.4355 178.091 66.3557 202.044 67.1085 203.403C67.8656 204.763 66.2869 218.748 66.859 222.078C67.4312 225.407 69.2853 311.22 69.2853 311.22C69.2853 311.22 68.8637 332.845 68.7948 341.72C68.726 350.59 70.6833 378.569 70.5672 380.497C70.451 382.424 69.1906 406.764 71.5394 410.726C72.2234 411.878 72.275 413.07 72.4987 414.244C75.4153 416.163 78.3621 418.06 81.0421 420.293C83.1156 420.788 85.7096 421.239 88.9575 421.644C109.163 424.152 110.991 421.11 116.747 421.553C122.503 421.996 162.51 427.761 175.416 428.75C188.321 429.74 195.755 433.069 198.491 427.963C201.227 422.857 201.674 406.635 201.674 406.635V315.922C201.674 315.922 201.609 308.622 201.463 297.725L201.455 297.742Z" fill="#58FF00"></path><path opacity="0.62" d="M201.27 346.908C200.981 346.198 200.512 345.6 199.915 345.239C200.766 311.612 200.689 277.958 199.669 244.331C199.287 231.765 198.77 219.208 198.129 206.651C198.035 204.767 196.443 203.872 194.98 203.967C195.553 202.724 195.38 201.046 194.012 200.216C189.268 197.321 184.368 194.709 179.322 192.382C178.947 192.21 178.565 192.128 178.186 192.12C177.016 191.44 175.794 190.842 174.512 190.343C173.777 190.055 173.032 189.827 172.275 189.642C172.017 189.53 171.755 189.422 171.497 189.315C171.303 189.229 171.114 189.134 170.925 189.048C169.393 188.36 167.857 187.835 166.313 187.409C165.556 187.16 164.794 186.923 164.029 186.699C162.428 185.77 160.781 184.931 159.056 184.209C156.264 183.043 153.201 182.466 150.211 181.731C147.944 180.298 145.677 178.861 143.337 177.558C132.905 171.755 120.972 169.638 109.241 171.471C108.995 170.856 108.527 170.314 108.002 169.931C106.315 168.692 104.19 168.494 102.293 169.174C101.794 168.959 101.196 168.898 100.529 169.075C95.8448 170.288 91.074 168.163 86.3377 168.494C84.0362 168.653 81.9111 169.307 79.7516 170.069C79.3902 170.193 79.0246 170.331 78.6546 170.46C77.2694 170.684 75.88 170.877 74.4862 171.041C73.8452 170.98 73.2085 170.894 72.5761 170.778C70.137 170.331 68.6658 172.779 69.1734 174.542C68.5712 176.065 68.5625 177.876 68.4335 179.498C67.956 185.542 66.9881 191.81 68.6744 197.751C68.7475 198.005 68.8508 198.228 68.9755 198.435C69.0228 198.676 69.0702 198.921 69.1175 199.162C69.6294 201.756 74.1248 201.902 74.512 199.162C75.2045 194.253 75.8972 189.349 76.5898 184.441C76.7317 183.421 76.6844 182.028 77.063 181.077C77.3942 180.251 78.0739 179.928 78.8998 179.425C80.7582 178.298 82.7155 177.446 84.789 176.801C85.886 176.461 86.4796 175.674 86.6689 174.796C87.297 174.56 87.9208 174.314 88.5403 174.035C92.8163 174.172 96.9503 175.493 101.274 174.628C101.755 174.912 102.328 175.037 102.93 174.934C102.31 177.739 102.151 180.621 102.487 183.499C101.841 187.702 101.872 191.995 102.211 196.271C102.031 196.237 101.842 196.219 101.652 196.228C100.134 196.297 98.8603 197.458 98.856 199.024C98.856 199.755 98.856 200.487 98.8517 201.222C98.8517 202.685 100.138 204.087 101.648 204.019C102.147 203.997 102.62 203.855 103.029 203.618C103.085 204.04 103.145 204.466 103.201 204.888C103.635 208.015 108.819 207.258 108.694 204.143C108.397 196.869 108.307 189.586 108.423 182.307C108.724 180.926 109.116 179.563 109.611 178.212C109.834 178.285 110.062 178.427 110.368 178.651C111.585 179.55 113.487 178.853 114.192 177.648C114.42 177.257 114.536 176.857 114.562 176.465C122.559 175.966 130.479 177.584 137.762 180.995C137.835 181.752 138.196 182.496 138.949 183.051C141.582 184.992 144.584 185.942 147.66 186.712C149.42 187.822 151.183 188.919 152.99 189.952C153.343 190.429 153.829 190.786 154.423 190.876C154.53 190.894 154.642 190.907 154.75 190.924C155.447 191.294 156.148 191.655 156.862 191.995C156.995 192.059 157.133 192.12 157.271 192.18C157.309 192.197 157.348 192.214 157.387 192.232C161.792 194.228 166.872 195.329 170.795 198.215C171.075 198.435 171.359 198.658 171.639 198.878C172.787 199.781 174.142 199.656 175.136 199.037C175.962 199.385 176.784 199.76 177.579 200.181C177.863 200.332 178.143 200.487 178.427 200.642C178.917 201.295 179.679 201.773 180.509 201.881C180.006 203.107 180.169 204.677 180.965 205.95C182.208 207.933 184.131 209.116 186.218 209.521C186.273 210.523 186.321 211.525 186.377 212.523C186.549 215.672 186.721 218.821 186.893 221.97C187.013 224.138 189.444 225.239 191.057 224.469C191.874 236.097 192.404 247.742 192.64 259.396C192.666 260.768 193.505 261.62 194.52 261.943C195.054 287.771 195.045 313.612 194.468 339.44C194.197 351.571 193.802 363.702 193.29 375.825C192.928 376.259 192.718 376.849 192.752 377.593C192.98 382.316 193.204 387.195 192.95 392.008C192.447 392.211 191.978 392.581 191.608 393.148C185.951 401.877 179.296 409.857 171.759 417.028C171.454 417.32 171.239 417.63 171.097 417.944C165.285 416.559 159.387 415.548 153.442 414.933C146.722 413.337 140.012 411.702 133.305 410.046C130.436 409.336 128.973 412.679 130.414 414.507C129.932 414.524 129.451 414.541 128.973 414.559C123.97 414.739 118.171 414.817 114.041 411.517C113.568 411.139 113.061 410.941 112.553 410.881C111.903 400.711 111.628 390.524 111.731 380.333C111.74 379.679 111.568 379.146 111.288 378.733C110.428 376.092 105.933 376.41 105.838 379.662C105.782 381.607 105.76 383.551 105.765 385.491C105.137 394.723 104.754 403.968 105.085 413.216C103.829 413.389 102.573 413.539 101.312 413.664C101.106 413.298 100.822 412.98 100.448 412.747C100.211 412.502 99.9401 412.296 99.6346 412.141C99.8497 411.01 99.4927 409.796 98.3312 409.293C93.8788 407.344 89.3102 405.899 84.5137 405.09C82.8962 404.815 81.4895 405.809 81.0895 407.108C80.741 406.523 80.4485 405.903 80.199 405.284C79.3472 403.185 78.9428 400.9 78.6073 398.65C78.7493 397.919 78.8956 397.192 79.016 396.469C79.5322 393.441 80.8959 387.44 77.5362 385.603C76.1639 384.85 74.555 385.31 73.7118 386.605C73.6774 386.657 73.643 386.709 73.6086 386.764C73.0838 387.569 73.101 388.778 73.6086 389.586C73.6473 389.651 73.6903 389.716 73.729 389.78C73.8237 389.926 73.9269 390.064 74.0474 390.193C74.241 391.888 73.828 393.819 73.5527 395.377C73.4967 395.686 73.4408 395.992 73.3806 396.302C73.2386 396.491 73.1311 396.706 73.0494 396.938C72.2191 397.347 71.5566 398.126 71.4405 399.27C71.191 401.722 71.1178 404.165 71.2168 406.626C71.2684 407.929 71.9438 408.747 72.8084 409.108C73.144 410.399 73.6473 411.633 74.3829 412.76C75.7853 414.916 77.6566 415.849 79.7731 416.357C82.0101 417.664 84.4922 418.525 87.0475 418.929C87.4906 419.368 88.1101 419.661 88.9102 419.678C91.8785 419.751 94.8338 419.686 97.7806 419.501C98.1763 419.768 98.6495 419.936 99.1915 419.953C101.416 420.026 103.605 419.772 105.717 419.179C106.556 420.547 108.488 420.882 109.74 420.16C111.082 420.091 112.286 419.57 113.34 418.508C113.555 418.288 113.723 418.06 113.848 417.828C117.367 419.519 121.251 420.134 125.299 420.203C131.421 420.302 137.521 419.695 143.651 419.867C143.759 419.94 143.875 420.009 144.004 420.069C156.492 426.182 170.331 429.056 184.226 428.221C185.069 428.17 185.71 427.821 186.157 427.318C187.401 427.477 188.644 427.636 189.891 427.778C190.537 427.851 191.057 427.731 191.47 427.481C191.72 427.658 192.012 427.791 192.348 427.851C196.344 428.57 199.682 426.036 200.702 422.177C200.861 421.583 200.956 420.977 201.016 420.362C201.992 418.387 201.713 415.337 201.734 413.298C201.773 409.624 201.455 405.951 200.827 402.328C200.697 395.101 200.568 387.874 200.439 380.643C200.439 380.634 200.439 380.626 200.444 380.613C201.119 374.784 201.618 368.938 201.919 363.074C202.061 360.282 202.16 357.491 202.216 354.699C202.268 352.057 202.285 349.377 201.274 346.891L201.27 346.908ZM194.77 418.632C194.546 418.133 194.189 417.69 193.698 417.376C194.275 416.06 194.851 414.744 195.428 413.427C195.428 413.599 195.432 413.771 195.436 413.943C195.445 414.382 195.57 415.798 195.583 417.35C195.195 417.695 194.907 418.138 194.77 418.632Z" fill="#4F7737"></path><path opacity="0.62" d="M109.163 221.217C109.163 218.8 109.168 216.386 109.172 213.969C109.172 211.788 107.12 210.927 105.502 211.392C104.091 209.645 100.491 210.209 100.469 213.1C100.426 218.554 100.388 224.005 100.345 229.46C100.323 232.088 100.259 234.699 100.689 237.302C101.128 239.952 101.992 242.455 101.855 245.17C101.674 248.766 107.266 248.758 107.447 245.17C107.52 243.69 107.352 242.245 107.094 240.812C108.178 240.532 109.099 239.664 109.15 238.214C109.327 233.099 109.503 227.98 109.684 222.865C109.705 222.202 109.507 221.652 109.168 221.217H109.163Z" fill="#4F7737"></path><path opacity="0.62" d="M111.804 273.364C111.697 273.084 111.559 272.839 111.396 272.628C111.163 271.441 110.802 270.275 110.26 269.122C108.724 265.87 103.902 268.705 105.429 271.944C106.423 274.057 106.156 276.535 106.109 278.793C106.057 281.198 106.152 283.607 106.952 285.895C107.834 288.416 111.572 288.683 112.346 285.895C113.495 281.744 113.357 277.391 111.804 273.364Z" fill="#4F7737"></path><path d="M123.398 0H122.602C54.8908 0 0 54.8908 0 122.602V462.877C0 530.588 54.8908 585.479 122.602 585.479H123.398C191.109 585.479 246 530.588 246 462.877V122.602C246 54.8908 191.109 0 123.398 0Z" fill="url(#paint0_radial_25_32957)"></path><path opacity="0.82" d="M177.941 239.534C177.941 239.371 177.932 239.216 177.915 239.065C177.235 227.042 173.536 215.285 167.143 205.029C166.446 203.911 165.358 203.584 164.347 203.765C161.822 201.149 158.398 198.762 154.905 198.525C154.049 198.469 153.24 198.542 152.478 198.727C152.319 198.68 152.151 198.646 151.971 198.624C140.192 197.26 138.635 215.547 138.807 223.454C138.811 223.682 138.842 223.893 138.889 224.091C138.764 224.297 138.665 224.521 138.592 224.766C138.3 225.773 138.145 226.827 138.084 227.872C138.054 228.384 138.214 228.883 138.489 229.318C138.579 229.533 138.7 229.735 138.842 229.92C138.799 230.273 138.756 230.621 138.712 230.969C138.162 235.641 138.261 240.382 139.556 244.916C139.379 252.483 142.533 259.581 148.366 264.519C149.067 265.363 149.966 266.09 150.977 266.709C151.188 267.548 151.773 268.296 152.814 268.645C152.827 268.653 152.84 268.662 152.853 268.671C154.483 269.57 156.169 270.331 157.907 270.951C160.028 272.301 162.123 273.489 164.721 271.949C166.042 271.166 167.195 269.879 168.236 268.468C168.602 268.189 168.959 267.879 169.303 267.531C169.6 267.234 169.806 266.916 169.939 266.589C174.456 260.794 176.556 253.881 177.425 246.727C177.76 246.305 177.975 245.751 177.997 245.071C178.048 243.221 178.023 241.376 177.932 239.53L177.941 239.534ZM171.944 245.794C171.196 246.301 170.757 247.192 170.636 248.16C170.387 250.169 169.845 252.122 169.075 253.984C168.589 254.186 168.146 254.548 167.802 255.111C167.247 256.015 166.683 256.914 166.115 257.804C165.41 258.888 164.687 259.955 163.926 261C163.655 261.375 163.332 261.887 162.975 262.424C162.665 262.472 162.36 262.523 162.054 262.588C158.832 259.852 155.614 257.112 152.392 254.376C151.184 248.904 149.471 243.329 148.719 237.736C148.598 233.779 148.633 229.817 149.248 225.936C150.19 222.645 150.013 219.096 151.635 216.012C153.201 213.039 155.64 210.652 158.109 208.398C158.35 208.492 158.591 208.604 158.828 208.733C160.652 209.744 162.123 211.28 163.577 212.747C164.175 213.349 164.85 213.586 165.5 213.569C169.544 221.733 171.867 230.621 172.34 239.732C172.284 241.728 172.168 243.763 171.944 245.789V245.794Z" fill="white"></path><path opacity="0.82" d="M136.815 321.101C136.101 320.671 135.34 320.465 134.587 320.447C134.183 320.211 133.679 320.095 133.064 320.151C128.526 320.564 127.812 326.298 129.339 329.739C131.008 333.495 136.222 336.145 139.168 332.114C141.599 328.789 140.334 323.218 136.815 321.101Z" fill="white"></path><path opacity="0.82" d="M196.598 289.35C195.432 288.132 193.84 287.982 192.472 288.588C189.659 288.369 186.945 291.165 186.927 294.262C186.91 298.048 191.431 302.513 195.29 300.328C198.667 298.414 199.218 292.09 196.593 289.35H196.598Z" fill="white"></path><path opacity="0.82" d="M178.375 265.616C177.777 266.928 161.155 304.156 158.497 310.708C155.838 317.26 143.793 339.199 143.793 339.199C143.793 339.199 139.125 345.368 139.736 347.446C140.347 349.523 142.933 350.384 144.653 352.104C146.374 353.825 148.095 355.116 148.095 355.116C148.095 355.116 145.355 358.6 148.658 356.213C151.962 353.825 169.858 321.802 170.804 321.467C171.751 321.131 177.3 309.207 180.763 301.188C184.226 293.169 191.849 275.106 191.849 275.106L178.371 265.621L178.375 265.616Z" fill="white"></path><path d="M116.743 420.921C106.444 420.938 95.9738 421.515 85.7526 419.962C83.7308 419.656 81.5885 419.295 79.7215 418.426C76.9038 417.118 73.9441 414.662 72.6235 411.814C70.9845 408.291 71.3802 403.804 71.5136 400.027C71.6641 395.712 71.6341 391.406 71.4878 387.092C71.1652 377.692 70.6188 368.314 69.9477 358.936C69.6122 354.251 69.3713 349.567 69.4229 344.869C69.4745 340.171 69.638 335.616 69.6552 330.987C69.724 312.145 70.5113 293.337 69.7068 274.5C69.3025 264.993 68.7002 255.494 68.2528 245.992C67.8097 236.536 67.7495 227.094 67.7667 217.625C67.7753 213.93 68.3561 210.273 68.4163 206.587C68.4464 204.793 68.4033 202.999 68.3818 201.205C68.3087 194.989 68.1969 188.769 68.0678 182.552C68.0377 181.038 68.0033 179.528 67.9646 178.014C67.9259 176.366 67.9 174.822 68.7604 173.347C70.6102 170.172 74.0431 170.266 77.2651 170.133C83.6748 169.862 90.0932 169.776 96.5029 169.901C103.399 170.034 110.303 170.391 117.152 171.23C122.981 171.944 128.939 172.942 134.428 175.106C136.299 175.842 138.076 176.797 139.934 177.562C142.038 178.431 144.18 179.214 146.327 179.976C151.631 181.856 156.982 183.602 162.304 185.439C168.072 187.431 173.828 189.491 179.438 191.9C184.118 193.914 188.855 196.133 192.946 199.205C194.447 200.332 195.888 201.618 196.972 203.163C197.445 203.838 198.564 203.193 198.086 202.513C195.626 198.998 191.728 196.602 188.024 194.589C182.918 191.81 177.493 189.616 172.06 187.568C161.491 183.589 150.517 180.591 140.089 176.237C138.136 175.424 136.273 174.422 134.29 173.674C131.67 172.684 128.943 171.979 126.207 171.402C119.642 170.021 112.919 169.372 106.229 168.98C99.2389 168.572 92.2269 168.486 85.2235 168.61C82.1305 168.666 79.0418 168.761 75.9531 168.903C72.959 169.04 70.193 169.342 68.2141 171.88C66.2224 174.435 66.674 177.584 66.7429 180.612C66.816 183.955 66.8805 187.293 66.9407 190.636C67.0311 195.802 67.1559 200.973 67.1343 206.139C67.1214 209.482 66.5966 212.807 66.5019 216.154C66.3643 221.028 66.4461 225.928 66.4934 230.802C66.5794 240.459 67.1644 250.104 67.6849 259.749C68.2184 269.583 68.7346 279.421 68.8465 289.272C68.9583 299.123 68.6873 308.665 68.5195 318.357C68.4378 323.145 68.3948 327.928 68.3647 332.716C68.3346 337.5 68.1108 342.284 68.128 347.072C68.1668 356.716 69.2638 366.352 69.7154 375.984C69.9391 380.759 70.1886 385.534 70.2962 390.314C70.3951 394.611 70.1843 398.883 70.1542 403.18C70.1284 406.725 70.2145 410.704 72.2449 413.763C73.8667 416.202 76.5596 418.413 79.2311 419.618C83.5974 421.588 88.9489 421.743 93.6465 422.009C99.4411 422.336 105.249 422.336 111.052 422.276C112.953 422.255 114.855 422.22 116.752 422.216C117.582 422.216 117.582 420.925 116.752 420.925L116.743 420.921Z" fill="black"></path><path d="M113.968 169.062C110.72 169.032 109.499 173.463 108.879 175.928C107.873 179.933 107.494 184.114 107.27 188.227C106.969 193.72 107.417 199.14 108.014 204.604C108.445 208.544 108.866 212.497 108.84 216.468C108.815 220.439 108.535 224.594 108.462 228.659C108.174 244.903 108.888 261.138 109.391 277.369C109.645 285.491 109.847 293.613 109.847 301.735C109.847 309.856 109.692 318.047 109.623 326.199C109.486 342.318 109.714 358.48 111.925 374.47C112.213 376.539 112.531 378.608 112.884 380.669C113.022 381.486 114.269 381.138 114.127 380.325C111.434 364.541 110.858 348.521 110.879 332.536C110.901 316.675 111.301 300.827 110.897 284.966C110.488 268.989 109.705 253.016 109.684 237.031C109.679 233.082 109.718 229.137 109.826 225.188C109.933 221.239 110.239 217.346 110.066 213.422C109.744 206.032 108.264 198.719 108.436 191.298C108.514 187.925 108.741 184.54 109.197 181.197C109.477 179.137 109.843 177.076 110.441 175.084C110.867 173.652 111.417 171.936 112.574 170.903C112.975 170.546 113.422 170.331 113.964 170.335C114.794 170.344 114.794 169.053 113.964 169.045L113.968 169.062Z" fill="black"></path><path d="M196.882 202.835C197.333 206.544 197.376 210.329 197.544 214.055C197.888 221.699 198.168 229.352 198.435 237.001C198.796 247.346 199.123 257.692 199.424 268.038C199.772 279.903 200.095 291.771 200.388 303.64C200.68 315.509 200.955 327.825 201.183 339.918C201.394 351.055 201.571 362.197 201.682 373.334C201.773 382.329 201.829 391.324 201.751 400.319C201.704 405.886 201.695 411.483 201.261 417.041C201.084 419.295 200.659 420.99 199.897 423.382C199.342 425.12 198.486 428.109 196.542 428.78C195.63 429.094 194.533 429.021 193.582 429.047C192.171 429.086 190.756 429.082 189.345 429.047C183.86 428.918 178.401 428.337 172.933 427.924C167.251 427.494 161.559 427.12 155.898 426.436C150.237 425.752 144.7 425.451 139.108 424.861C136.265 424.565 133.434 424.139 130.659 423.442C128.156 422.814 125.734 421.803 123.157 421.502C120.184 421.158 115.969 421.687 114.192 418.654C113.099 416.791 113.095 414.374 113.164 412.292C113.258 409.551 113.689 406.832 113.719 404.088C113.727 403.258 112.437 403.258 112.428 404.088C112.381 408.803 110.682 414.412 112.85 418.878C114.265 421.786 117.41 422.375 120.348 422.599C121.363 422.676 122.387 422.68 123.393 422.827C124.736 423.02 126.039 423.425 127.33 423.825C130.005 424.651 132.707 425.287 135.477 425.696C140.932 426.505 146.456 426.647 151.936 427.236C157.744 427.86 163.521 428.509 169.35 428.944C175.015 429.365 180.672 429.942 186.346 430.221C189.035 430.355 191.728 430.411 194.421 430.299C196.176 430.226 197.639 430.058 198.8 428.617C200.667 426.307 201.575 422.908 202.186 420.052C202.508 418.546 202.573 416.963 202.659 415.427C202.81 412.816 202.883 410.201 202.939 407.585C203.111 399.532 203.093 391.475 203.05 383.422C202.995 372.697 202.853 361.973 202.676 351.249C202.478 339.13 202.229 327.016 201.949 314.898C201.67 302.78 201.356 290.434 201.011 278.204C200.702 267.131 200.366 256.058 200 244.989C199.712 236.351 199.411 227.717 199.054 219.084C198.852 214.162 198.68 209.228 198.31 204.315C198.271 203.821 198.232 203.326 198.172 202.831C198.073 202.018 196.783 202.005 196.882 202.831V202.835Z" fill="black"></path><path d="M199.424 229.967C198.985 230.135 198.602 230.539 198.899 231.034C199.011 231.223 199.196 231.314 199.394 231.387C199.437 231.404 199.488 231.43 199.531 231.434C199.562 231.443 199.592 231.456 199.618 231.464C199.308 231.361 199.273 231.06 199.514 230.561C199.028 230.871 199.144 231.555 199.669 231.74C203.438 233.069 207.206 234.394 210.97 235.723C211.4 235.874 211.835 236.028 212.265 236.179C213.048 236.454 213.388 235.211 212.609 234.936C209.297 233.77 205.989 232.6 202.676 231.434C201.79 231.12 200.899 230.806 200.013 230.496L200.168 231.675C200.56 231.425 200.783 230.961 200.469 230.548C200.353 230.393 200.198 230.311 200.018 230.242C199.966 230.221 199.901 230.187 199.846 230.182C199.63 230.161 199.768 229.933 200 230.363L200.065 230.862L199.764 231.215C200.53 230.918 200.198 229.67 199.42 229.971L199.424 229.967Z" fill="black"></path><path d="M199.742 254.948C201.123 255.649 202.706 256.058 204.173 256.54C206.204 257.206 208.243 257.847 210.295 258.445C210.944 258.635 211.598 258.85 212.269 258.966C213.082 259.108 213.431 257.86 212.613 257.723C211.142 257.469 209.688 256.927 208.264 256.488C206.238 255.86 204.212 255.215 202.207 254.518C201.803 254.376 201.399 254.234 200.994 254.083C200.856 254.032 200.719 253.98 200.585 253.924C200.431 253.86 200.663 253.958 200.534 253.903C200.487 253.881 200.444 253.86 200.396 253.838C199.656 253.464 199.002 254.578 199.747 254.952L199.742 254.948Z" fill="black"></path><path d="M202.173 393.122C202.943 393.544 203.833 393.794 204.659 394.073C206.096 394.559 207.542 395.02 208.983 395.484C212.149 396.504 215.337 397.497 218.43 398.723C219.023 398.96 219.613 399.201 220.18 399.489C220.387 399.592 220.589 399.7 220.787 399.825C220.864 399.872 220.942 399.924 221.015 399.98C220.86 399.863 221.062 400.027 221.101 400.066C221.677 400.668 222.589 399.752 222.013 399.154C221.372 398.482 220.344 398.13 219.514 397.781C218.116 397.196 216.683 396.689 215.251 396.194C212.059 395.097 208.832 394.103 205.632 393.041C205.021 392.839 204.41 392.632 203.808 392.413C203.588 392.331 203.369 392.249 203.149 392.163C202.99 392.099 203.205 392.198 203.029 392.111C202.96 392.077 202.896 392.047 202.831 392.013C202.1 391.617 201.45 392.731 202.182 393.127L202.173 393.122Z" fill="black"></path><path d="M201.343 418.809C203.072 419.626 205.042 420.043 206.879 420.555C209.344 421.244 211.822 421.897 214.282 422.612C214.786 422.758 215.289 422.904 215.788 423.063C215.977 423.123 216.167 423.184 216.356 423.253C216.442 423.283 216.838 423.438 216.674 423.369C216.997 423.506 217.363 423.463 217.556 423.136C217.72 422.865 217.647 422.388 217.324 422.254C215.556 421.502 213.62 421.08 211.775 420.568C209.305 419.888 206.827 419.23 204.375 418.495C203.872 418.344 203.373 418.189 202.874 418.026C202.685 417.961 202.495 417.897 202.31 417.828C202.233 417.798 202.16 417.772 202.082 417.738C202.005 417.703 202.169 417.781 201.996 417.699C201.248 417.346 200.594 418.456 201.347 418.813L201.343 418.809Z" fill="black"></path><path d="M128.547 328.905C127.777 327.442 128.018 325.691 128.513 324.177C128.986 322.74 129.756 321.063 131.068 320.215C133.339 318.753 136.553 320.047 138.256 321.837C141.44 325.192 140.657 331.232 136.299 333.168C134.957 333.766 133.395 333.964 132.182 332.996C130.995 332.045 130.32 330.522 129.674 329.185C129.313 328.436 128.203 329.09 128.56 329.834C129.24 331.249 129.971 332.781 131.176 333.831C132.427 334.919 134.002 335.186 135.589 334.777C138.381 334.059 140.549 331.834 141.242 329.047C141.9 326.406 141.294 323.532 139.586 321.407C137.714 319.08 134.058 317.496 131.163 318.714C129.248 319.518 128.177 321.424 127.463 323.278C126.693 325.27 126.396 327.597 127.429 329.555C127.816 330.29 128.93 329.636 128.543 328.905H128.547Z" fill="black"></path><path d="M189.809 288.541C187.495 288.954 186.583 291.432 186.411 293.501C186.217 295.82 186.772 298.444 188.287 300.259C189.947 302.246 193.01 302.285 195.032 300.801C197.23 299.192 198.146 296.22 197.927 293.583C197.794 292.017 197.282 290.257 196.047 289.203C194.812 288.149 192.997 288.055 191.427 287.698C190.618 287.513 190.274 288.756 191.083 288.941C192.279 289.216 193.672 289.251 194.756 289.866C195.84 290.481 196.305 291.716 196.533 292.856C196.959 294.985 196.464 297.557 194.946 299.171C193.634 300.56 191.113 301.188 189.594 299.769C188.192 298.457 187.689 296.28 187.667 294.43C187.646 292.58 188.119 290.154 190.154 289.788C190.971 289.642 190.622 288.399 189.809 288.545V288.541Z" fill="black"></path><path d="M140.825 343.953C144.158 339.948 146.598 335.224 149.17 330.716C152.009 325.734 154.522 320.581 156.982 315.406C161.955 304.948 166.967 294.499 171.505 283.843C172.757 280.909 174.009 277.967 175.114 274.977C176.229 271.966 177.188 268.89 178.478 265.948H177.364C178.298 267.26 179.575 268.206 180.862 269.144C182.217 270.133 183.469 271.2 184.94 272.022C186.364 272.818 187.792 273.549 189.022 274.637C189.491 275.054 190.063 275.519 190.343 276.091C190.549 276.508 190.291 277.016 190.136 277.42C189.908 278.01 189.624 278.573 189.375 279.154C189.065 279.877 188.846 280.638 188.562 281.374C187.891 283.129 187.082 284.828 186.325 286.545C185.572 288.244 184.961 290.003 184.191 291.694C183.421 293.385 182.561 294.976 181.812 296.65C181.034 298.383 180.44 300.19 179.795 301.975C179.149 303.761 178.44 305.675 177.73 307.512C176.332 311.112 174.697 314.593 172.882 318C171.071 321.398 169.118 324.723 167.139 328.027C165.16 331.331 163.147 334.682 161.026 337.93C159.129 340.829 157.098 343.621 155.287 346.577C153.622 349.287 151.971 352.074 149.738 354.363C149.217 354.896 148.667 355.391 148.086 355.851C148.447 355.946 148.804 356.041 149.166 356.135C148.886 355.296 148.344 354.643 147.703 354.049C147.023 353.421 146.357 352.793 145.72 352.117C144.425 350.749 143.152 349.291 141.53 348.302C140.82 347.867 140.171 348.986 140.88 349.416C142.356 350.315 143.513 351.653 144.688 352.9C145.251 353.498 145.823 354.083 146.43 354.634C147.019 355.167 147.664 355.701 147.923 356.479C148.086 356.974 148.615 357.069 149.002 356.763C151.519 354.78 153.369 352.083 155.064 349.399C155.937 348.018 156.767 346.615 157.64 345.235C158.565 343.776 159.58 342.382 160.557 340.958C162.79 337.689 164.872 334.321 166.915 330.927C168.933 327.575 170.942 324.216 172.839 320.792C174.727 317.376 176.495 313.896 178.005 310.295C179.541 306.621 180.832 302.853 182.195 299.11C182.84 297.347 183.705 295.677 184.531 293.991C185.357 292.305 186.032 290.58 186.742 288.846C187.465 287.078 188.299 285.353 189.052 283.594C189.68 282.131 190.136 280.595 190.795 279.15C191.268 278.113 192.089 276.741 191.552 275.592C191.014 274.444 189.693 273.411 188.644 272.676C187.211 271.669 185.585 270.989 184.135 270.008C183.443 269.54 182.815 268.976 182.144 268.473C181.481 267.982 180.806 267.509 180.165 266.989C179.524 266.468 178.956 265.939 178.491 265.285C178.242 264.937 177.592 264.799 177.377 265.285C176.246 267.862 175.347 270.525 174.405 273.175C173.462 275.825 172.344 278.552 171.234 281.206C169.019 286.502 166.666 291.741 164.257 296.951C161.848 302.16 159.335 307.443 156.857 312.678C154.38 317.914 151.996 322.912 149.278 327.881C147.841 330.509 146.327 333.099 144.821 335.693C143.345 338.235 141.81 340.765 139.925 343.032C139.396 343.664 140.304 344.585 140.837 343.944L140.825 343.953Z" fill="black"></path><path d="M178.879 237.857C178.225 231.292 177.364 224.671 175.188 218.412C174.151 215.44 172.796 212.609 171.195 209.899C169.784 207.512 168.189 205.21 166.279 203.192C164.364 201.175 162.106 199.45 159.542 198.349C156.995 197.256 154.358 196.942 151.622 197.428C149.045 197.884 146.4 199.037 144.615 201.003C142.769 203.038 141.823 205.743 140.967 208.303C140.532 209.602 140.059 210.893 139.646 212.196C139.13 213.822 138.889 215.517 138.644 217.199C138.398 218.881 138.05 220.563 137.654 222.245C137.258 223.927 136.996 225.609 136.923 227.317C136.85 229.025 137.048 230.845 137.147 232.613C137.245 234.381 137.284 236.097 137.357 237.839C137.504 241.393 137.856 244.881 138.764 248.327C139.637 251.64 140.79 254.883 142.244 257.985C143.582 260.841 145.2 263.478 147.338 265.81C149.445 268.103 151.928 270.112 154.668 271.613C155.941 272.31 157.309 272.942 158.716 273.334C160.019 273.695 161.439 273.639 162.764 273.463C165.276 273.132 167.788 272.276 169.333 270.163C170.077 269.148 170.606 267.969 171.195 266.864C171.957 265.44 172.736 264.025 173.475 262.592C174.994 259.65 176.319 256.621 177.102 253.395C177.928 249.996 178.685 246.564 178.934 243.066C179.059 241.328 179.042 239.59 178.879 237.857C178.801 237.035 177.511 237.031 177.588 237.857C177.911 241.246 177.614 244.636 176.986 247.975C176.375 251.214 175.652 254.479 174.418 257.542C173.256 260.424 171.729 263.138 170.262 265.874C169.664 266.984 169.131 268.15 168.434 269.204C167.823 270.125 167.001 270.791 166.007 271.265C164.85 271.815 163.538 272.103 162.269 272.233C161.035 272.357 159.804 272.344 158.617 271.953C155.825 271.032 153.248 269.423 151.011 267.535C148.792 265.668 146.808 263.483 145.294 261.005C143.604 258.252 142.326 255.206 141.281 252.156C140.184 248.968 139.31 245.686 138.958 242.326C138.605 238.966 138.626 235.641 138.428 232.303C138.33 230.604 138.145 228.922 138.226 227.218C138.308 225.515 138.583 223.91 138.979 222.293C139.375 220.675 139.655 219.217 139.883 217.642C140.111 216.068 140.347 214.394 140.812 212.824C141.19 211.547 141.672 210.295 142.094 209.026C142.515 207.757 142.945 206.466 143.5 205.24C144.021 204.079 144.636 202.926 145.488 201.971C146.284 201.076 147.269 200.388 148.331 199.85C150.607 198.701 153.334 198.224 155.864 198.577C158.398 198.929 160.832 200.233 162.837 201.781C164.958 203.425 166.739 205.485 168.262 207.684C169.862 209.989 171.286 212.459 172.456 215.01C175.093 220.757 176.323 227.055 177.098 233.297C177.287 234.811 177.446 236.329 177.601 237.848C177.683 238.665 178.973 238.674 178.891 237.848L178.879 237.857Z" fill="black"></path><path d="M160.153 208.905C158.72 208.295 157.227 208.381 155.911 209.237C154.818 209.942 153.967 210.979 153.283 212.076C152.53 213.289 152.061 214.64 151.665 216.003C150.998 218.309 150.603 220.697 150.258 223.067C148.972 231.903 148.749 241.13 151.278 249.777C152.276 253.193 153.739 256.527 156.053 259.267C157.034 260.424 158.316 261.629 159.852 261.947C161.521 262.291 163.25 261.426 164.575 260.484C166.167 259.349 167.182 257.847 167.973 256.075C168.881 254.049 169.673 251.941 170.413 249.846C171.191 247.643 171.845 245.385 172.168 243.066C172.49 240.748 172.374 238.321 172.168 235.942C171.75 231.232 171.084 226.444 169.681 221.918C169.014 219.763 168.167 217.741 166.885 215.874C166.261 214.967 165.637 214.046 164.932 213.199C164.265 212.398 163.504 211.689 162.725 211C161.947 210.312 161.146 209.615 160.411 208.862C159.83 208.269 158.918 209.181 159.499 209.774C160.893 211.203 162.532 212.386 163.839 213.896C164.51 214.67 165.087 215.535 165.668 216.373C166.244 217.208 166.79 218.068 167.225 218.985C168.137 220.907 168.718 223.028 169.208 225.093C169.698 227.158 170.077 229.417 170.378 231.606C170.998 236.097 171.514 240.666 170.468 245.127C169.969 247.269 169.251 249.351 168.455 251.399C167.707 253.33 167.04 255.361 165.964 257.142C165.113 258.553 163.839 259.598 162.342 260.282C161.706 260.57 160.953 260.82 160.247 260.704C159.606 260.596 159.017 260.252 158.505 259.865C157.249 258.91 156.281 257.572 155.455 256.243C154.629 254.913 153.971 253.567 153.425 252.134C150.491 244.426 150.22 235.942 150.977 227.816C151.192 225.515 151.489 223.226 151.893 220.951C152.298 218.675 152.741 216.541 153.536 214.442C153.584 214.317 153.635 214.188 153.683 214.063C153.691 214.037 153.825 213.732 153.726 213.956C153.752 213.896 153.777 213.835 153.807 213.779C153.889 213.607 153.975 213.44 154.07 213.272C154.315 212.82 154.59 212.381 154.896 211.968C155.588 211.035 156.513 210.119 157.675 209.835C158.281 209.684 158.922 209.761 159.499 210.007C159.821 210.144 160.187 210.101 160.381 209.774C160.544 209.503 160.471 209.026 160.148 208.893L160.153 208.905Z" fill="black"></path><path d="M68.7947 172.37C69.526 172.391 70.2573 172.482 70.9843 172.391C71.6295 172.31 72.2146 172.082 72.7996 171.798C73.0147 171.695 73.4922 171.368 73.7245 171.445C74.0687 171.557 74.215 172.348 74.2795 172.65C74.7699 174.994 73.6127 177.618 74.9935 179.786C75.2517 180.195 75.854 180.212 76.1078 179.786C76.6369 178.909 76.8261 177.838 77.1101 176.87C77.3209 176.16 77.6134 174.805 78.4092 174.495L77.7812 174.327C78.4178 175.041 79.2008 174.762 79.8546 174.25C80.1859 173.987 80.4311 173.781 80.8569 173.712C81.4205 173.617 81.997 173.648 82.5648 173.592C83.5026 173.501 84.4232 173.161 85.3696 173.402C86.2127 173.617 86.9871 174.104 87.7872 174.443C88.1099 174.581 88.4755 174.538 88.6691 174.211C88.8282 173.94 88.7594 173.463 88.4368 173.329C87.6366 172.989 86.8709 172.551 86.0536 172.262C85.2362 171.974 84.3458 171.991 83.4811 172.142C82.9305 172.237 82.4013 172.323 81.8421 172.348C81.3216 172.374 80.7752 172.387 80.2676 172.525C79.8675 172.632 79.5621 172.852 79.2438 173.106C79.1147 173.209 78.9556 173.303 78.8394 173.42C78.8136 173.445 78.7491 173.488 78.7103 173.497C78.7404 173.488 78.8824 173.626 78.7017 173.424C78.5641 173.269 78.2716 173.179 78.0737 173.256C75.7421 174.164 76.0905 177.321 75.0022 179.141H76.1164C75.4195 178.044 75.5657 176.646 75.6303 175.411C75.6991 174.099 75.7894 172.718 75.2646 171.479C74.7914 170.357 73.9181 169.901 72.7825 170.391C72.2533 170.619 71.7672 170.92 71.1994 171.058C70.4164 171.247 69.5948 171.109 68.799 171.088C67.9687 171.062 67.9687 172.353 68.799 172.379L68.7947 172.37Z" fill="black"></path><path d="M88.9575 174.525C90.3384 174.555 91.715 174.164 93.0872 174.258C94.2918 174.34 95.3844 174.99 96.6104 174.981C97.8751 174.968 99.0065 174.34 100.172 173.936C101.441 173.497 102.827 173.747 104.083 173.265C104.848 172.968 104.517 171.72 103.739 172.022C102.538 172.482 101.209 172.245 99.9874 172.641C98.8388 173.011 97.6859 173.738 96.4469 173.691C95.3027 173.648 94.2444 173.05 93.0915 172.972C91.715 172.882 90.3427 173.269 88.9618 173.239C88.1315 173.222 88.1315 174.512 88.9618 174.529L88.9575 174.525Z" fill="black"></path><path d="M104.108 173.067C104.091 176.405 104.203 179.743 104.087 183.081C104.057 183.912 105.347 183.912 105.377 183.081C105.494 179.743 105.378 176.405 105.399 173.067C105.399 172.237 104.113 172.237 104.108 173.067Z" fill="black"></path><path d="M105.657 184.63C105.812 183.309 105.894 181.976 106.066 180.655C106.238 179.335 106.444 178.074 106.995 176.917C107.352 176.173 106.238 175.515 105.881 176.267C104.651 178.844 104.689 181.847 104.367 184.63C104.328 184.979 104.694 185.275 105.012 185.275C105.395 185.275 105.618 184.979 105.657 184.63Z" fill="black"></path><path d="M109.744 174.091C109.757 174.039 109.77 173.983 109.791 173.936L109.727 174.091C109.748 174.039 109.778 173.992 109.813 173.944L109.714 174.074C109.744 174.035 109.783 173.996 109.821 173.966L109.692 174.065C109.74 174.03 109.787 174 109.843 173.979L109.688 174.043C109.761 174.013 109.834 173.996 109.912 173.983L109.74 174.005C109.817 173.996 109.899 173.992 109.976 173.996C110.067 173.996 110.148 173.979 110.226 173.94C110.307 173.914 110.376 173.871 110.432 173.807C110.497 173.747 110.54 173.678 110.566 173.6C110.604 173.523 110.626 173.441 110.622 173.351C110.613 173.183 110.561 173.011 110.432 172.895C110.303 172.779 110.153 172.714 109.976 172.706C109.817 172.697 109.649 172.718 109.494 172.753C109.447 172.761 109.4 172.779 109.357 172.796C109.266 172.83 109.167 172.869 109.086 172.921C108.914 173.032 108.793 173.157 108.681 173.325C108.625 173.407 108.591 173.506 108.557 173.596C108.535 173.643 108.522 173.695 108.509 173.747C108.484 173.833 108.479 173.919 108.496 174.005C108.496 174.091 108.527 174.172 108.574 174.246C108.613 174.319 108.669 174.383 108.742 174.426C108.802 174.482 108.875 174.521 108.961 174.542C109.125 174.581 109.309 174.573 109.46 174.478C109.598 174.392 109.722 174.258 109.757 174.091H109.744Z" fill="black"></path><path d="M139.323 344.452C138.975 345.523 139.048 346.736 139.323 347.816C139.598 348.895 140.14 350.014 141.027 350.724C141.298 350.943 141.672 350.99 141.939 350.724C142.167 350.496 142.21 350.031 141.939 349.812C141.207 349.222 140.803 348.388 140.566 347.471C140.442 346.985 140.386 346.598 140.381 346.091C140.377 345.583 140.407 345.273 140.566 344.796C140.674 344.465 140.442 344.09 140.115 344C139.766 343.905 139.431 344.116 139.319 344.452H139.323Z" fill="black"></path><path d="M215.909 238.227C216.051 238.085 216.24 237.775 216.334 237.736H215.685C217.13 238.851 218.442 240.171 219.346 241.771C220.21 243.307 220.641 245.037 220.77 246.783C220.985 249.721 220.619 252.96 219.44 255.679C218.873 256.996 217.995 258.376 216.511 258.729C215.702 258.919 216.046 260.166 216.855 259.972C220.137 259.194 221.273 255.008 221.755 252.139C222.34 248.659 222.336 244.89 220.748 241.664C219.742 239.621 218.124 237.999 216.339 236.622C216.145 236.472 215.887 236.54 215.689 236.622C215.336 236.773 215.25 237.07 215.001 237.315C214.412 237.9 215.324 238.812 215.913 238.227H215.909Z" fill="black"></path><path d="M221.299 400.233C222.65 400.453 223.579 401.933 224.215 403.047C225.17 404.716 225.85 406.548 226.366 408.398C226.797 409.934 227.188 411.564 227.154 413.169C227.111 415.341 225.872 417.312 224.332 418.77C222.348 420.646 219.707 421.867 216.993 422.168C216.175 422.259 216.167 423.549 216.993 423.459C219.711 423.162 222.28 422.104 224.418 420.4C226.31 418.89 227.919 416.752 228.324 414.322C228.625 412.528 228.263 410.665 227.833 408.923C227.313 406.824 226.581 404.737 225.558 402.827C224.749 401.313 223.493 399.3 221.634 398.999C220.821 398.865 220.473 400.109 221.29 400.242L221.299 400.233Z" fill="black"></path><defs><radialGradient id="paint0_radial_25_32957" cx="0" cy="0" r="1" gradientUnits="userSpaceOnUse" gradientTransform="translate(124.077 294.855) scale(154.988 250.933)"><stop stop-color="#A1FF85"></stop><stop offset="0.37" stop-color="#CEFFBF" stop-opacity="0.52"></stop><stop offset="0.67" stop-color="#F1FFED" stop-opacity="0.15"></stop><stop offset="0.81" stop-color="white" stop-opacity="0"></stop></radialGradient></defs></svg> 