<?xml version="1.0" encoding="UTF-8"?> <svg xmlns="http://www.w3.org/2000/svg" width="361" height="361" viewBox="0 0 361 361" fill="none"><g clip-path="url(#clip0_25_32405)"><mask id="mask0_25_32405" style="mask-type:luminance" maskUnits="userSpaceOnUse" x="-155" y="-598" width="1784" height="937"><path d="M1628.81 -598H-155V338.194H1628.81V-598Z" fill="white"></path></mask><g mask="url(#mask0_25_32405)"><path d="M242.936 162.158C241.317 168.152 240.867 174.17 241.432 180.248C228.71 181.225 215.873 182.6 203.136 182.608C192.232 182.608 181.457 180.217 170.606 180.057C170.209 177.132 169.812 174.208 169.415 171.283C169.102 168.931 167.872 163.968 170.247 162.211C170.461 162.051 170.652 161.883 170.828 161.707C185.581 161.356 200.296 159.836 214.865 157.179C217.37 160.302 223.792 159.31 223.8 154.163C223.8 153.01 223.8 151.864 223.8 150.711C223.891 150.184 223.891 149.619 223.8 149.016C223.8 147.023 223.807 145.038 223.815 143.045C223.815 141.181 222.975 139.868 221.784 139.089C221.524 137.844 221.272 136.592 221.013 135.347C219.73 129.093 210.162 131.743 211.437 137.989C212.078 141.135 212.727 144.282 213.369 147.428C213.185 147.443 212.995 147.466 212.804 147.504C186.986 152.269 160.61 153.109 134.525 150.253C133.38 150.131 132.448 150.352 131.715 150.803C130.86 148.802 128.875 147.466 126.217 148.497C121.185 150.459 115.985 151.811 110.594 152.3C104.278 152.865 104.225 162.799 110.594 162.227C116.893 161.662 122.949 160.371 128.852 158.073C129.432 157.843 129.928 157.546 130.348 157.202C131.058 158.722 132.448 159.959 134.525 160.18C142.917 161.096 151.332 161.623 159.748 161.761C158.197 167.564 159.526 174.475 160.618 180.698C158.312 181.264 156.495 182.867 156.464 185.509C156.441 187.915 158.77 190.824 161.428 190.473C175.409 188.602 189.147 192.55 203.113 192.542C205.068 192.542 207.031 192.504 208.993 192.443C208.932 196.246 209.192 199.491 207.962 203.294C207.138 205.837 208.329 207.769 210.139 208.723C209.726 208.586 209.283 208.487 208.802 208.448C188.307 206.898 167.788 207.784 147.492 210.9L131.57 209.701C131.005 209.655 130.493 209.701 130.028 209.808C130.028 209.647 130.02 209.494 130.012 209.334C130.784 208.548 131.288 207.448 131.318 206.043C131.425 201.232 130.913 196.437 129.829 191.756C132.922 191.954 136.014 192.267 139.076 192.733C141.749 193.145 144.384 192.053 145.185 189.266C145.857 186.922 144.361 183.562 141.719 183.157C128.882 181.195 116.168 181.225 103.339 183.287C97.047 184.295 99.7196 193.863 105.981 192.863C110.464 192.145 115 191.725 119.543 191.58C119.772 198.934 120.001 206.287 120.23 213.641C120.368 218.016 125.095 219.399 127.981 217.764C128.775 218.772 129.974 219.505 131.585 219.628C135.319 219.91 139.054 220.185 142.788 220.468C143.505 220.865 144.338 221.117 145.239 221.216C160.435 222.911 175.692 223.858 190.972 224.087C193.263 224.263 195.554 224.431 197.837 224.606C204.228 225.088 211.024 226.416 216.912 223.217C219.63 221.735 219.859 218.352 218.409 216.107C220.318 215.588 221.944 214.061 222.051 211.526C222.181 208.265 222.364 205.004 222.631 201.744C222.754 200.239 222.891 198.743 223.044 197.238C223.12 196.49 223.196 195.742 223.28 194.993C223.357 194.749 223.41 194.528 223.448 194.329C224.495 193.749 225.235 192.687 225.594 191.465C232.1 190.954 238.606 190.358 245.074 189.908C246.907 189.778 248.213 188.854 248.991 187.617C250.755 186.609 252.046 184.677 251.603 182.157C250.587 176.323 250.977 170.504 252.519 164.8C254.192 158.622 244.616 155.988 242.944 162.158H242.936ZM212.185 210.029C211.834 209.64 211.414 209.304 210.933 209.036C211.345 209.181 211.78 209.281 212.223 209.326C212.216 209.563 212.2 209.792 212.193 210.029H212.185Z" fill="#233244"></path><path d="M93.4273 156.889C99.5592 157.576 105.561 159.103 111.739 159.394C118.092 159.691 124.453 159.096 130.814 159.256C137.175 159.417 143.719 159.409 150.164 159.707C152.47 159.814 154.845 159.821 157.082 160.44C157.961 160.684 158.9 161.058 159.656 161.578C159.816 161.685 159.862 161.753 159.9 161.791C159.77 161.646 159.9 161.852 159.9 161.83C159.9 161.746 159.9 162.066 159.9 162.143C159.839 164.884 159.938 167.618 159.74 170.352C159.488 173.849 159.007 177.323 158.923 180.828C158.885 182.302 161.175 182.302 161.214 180.828C161.29 177.621 161.695 174.445 161.962 171.253C162.199 168.404 162.046 165.579 162.168 162.731C162.237 161.234 161.908 160.203 160.542 159.432C158.48 158.271 156.265 157.828 153.929 157.622C147.69 157.072 141.375 157.149 135.121 157.042C131.761 156.988 128.409 156.866 125.049 156.942C121.78 157.011 118.505 157.172 115.236 157.172C111.495 157.172 107.806 156.843 104.11 156.255C100.552 155.682 97.0163 154.995 93.435 154.598C91.9688 154.43 91.9841 156.729 93.435 156.889H93.4273Z" fill="black"></path><path d="M157.777 182.852C151.798 182.241 145.796 182.959 139.817 183.188C133.456 183.44 127.164 182.73 120.849 182.081C117.29 181.714 113.724 181.409 110.151 181.386C108.677 181.378 108.677 183.669 110.151 183.677C116.481 183.715 122.75 184.662 129.05 185.188C132.181 185.448 135.312 185.601 138.45 185.517C141.535 185.44 144.613 185.204 147.69 185.043C151.05 184.875 154.425 184.784 157.777 185.135C159.243 185.288 159.228 182.997 157.777 182.844V182.852Z" fill="black"></path><path d="M97.253 162.555C97.3752 165.105 97.024 167.503 96.3749 169.962C96.2145 170.558 96.5734 171.207 97.1767 171.375C97.7799 171.543 98.429 171.176 98.5894 170.573C99.2843 167.977 99.6814 165.243 99.5515 162.562C99.521 161.944 99.0476 161.417 98.4061 161.417C97.8105 161.417 97.2301 161.944 97.2607 162.562L97.253 162.555Z" fill="black"></path><path d="M135.358 154.315C135.961 150.596 136.159 146.824 136.709 143.098C137.259 139.371 138.091 135.63 140.252 132.529L138.962 133.056C156.998 136.828 175.18 131.14 193.324 132.468C198.478 132.842 203.556 133.881 208.382 135.759C209.757 136.294 210.352 134.079 208.993 133.553C191.606 126.749 172.882 131.712 154.906 132.079C149.767 132.186 144.613 131.903 139.573 130.849C139.038 130.735 138.588 130.933 138.282 131.376C133.815 137.806 134.357 146.313 133.158 153.704C132.922 155.148 135.129 155.766 135.365 154.315H135.358Z" fill="black"></path><path d="M212.529 136.027C212.361 138.982 212.651 141.945 212.574 144.907C212.513 147.275 212.529 150.757 210.558 152.452C209.436 153.414 211.062 155.025 212.177 154.071C214.483 152.085 214.728 148.382 214.842 145.572C214.972 142.395 214.636 139.203 214.819 136.027C214.903 134.553 212.613 134.56 212.529 136.027Z" fill="black"></path><path d="M203.808 152.597C197.806 154.499 191.392 154.262 185.176 154.041C178.319 153.796 171.461 153.895 164.612 153.666C160.534 153.529 156.464 153.292 152.401 152.91C150.935 152.773 150.943 155.064 152.401 155.201C159.656 155.889 166.941 156.087 174.218 156.141C177.54 156.163 180.861 156.179 184.183 156.301C187.413 156.415 190.651 156.538 193.881 156.423C197.44 156.301 201.013 155.889 204.411 154.812C205.809 154.369 205.213 152.154 203.8 152.605L203.808 152.597Z" fill="black"></path><path d="M135.617 155.163C136.671 155.11 137.74 155.132 138.794 155.163C139.389 155.186 139.97 154.621 139.939 154.018C139.909 153.376 139.435 152.895 138.794 152.872C137.74 152.834 136.671 152.811 135.617 152.872C135.312 152.887 135.022 152.987 134.808 153.208C134.609 153.407 134.456 153.735 134.472 154.018C134.495 154.613 134.976 155.194 135.617 155.163Z" fill="black"></path><path d="M168.025 160.89C168.071 167.396 169.751 174.139 168.025 180.546C167.643 181.974 169.85 182.577 170.232 181.156C172.019 174.513 170.362 167.633 170.316 160.89C170.308 159.416 168.018 159.416 168.025 160.89Z" fill="black"></path><path d="M170.652 162.784C172.057 161.753 173.897 161.44 175.585 161.196C177.288 160.944 179.006 160.844 180.716 160.692C185.741 160.234 190.758 160.218 195.798 160.279C200.891 160.34 205.946 159.676 210.986 159.05C216.026 158.424 220.967 157.996 226.014 158.08C231.153 158.164 236.361 158.424 241.454 157.561C241.027 157.003 240.592 156.438 240.164 155.881C239.645 156.744 239.774 157.912 239.874 158.867C240.011 160.256 240.256 161.631 240.439 163.013C240.92 166.648 240.301 170.306 239.713 173.887C239.477 175.33 241.684 175.949 241.92 174.498C242.508 170.962 243.195 167.282 242.814 163.685C242.676 162.387 242.447 161.104 242.279 159.814C242.195 159.187 242.126 158.554 242.104 157.927C242.096 157.691 242.088 157.462 242.111 157.225C242.126 157.08 242.111 157.118 242.149 157.049C242.707 156.125 241.79 155.209 240.859 155.369C236.3 156.141 231.596 155.911 226.999 155.827C221.975 155.736 217.049 156.041 212.063 156.645C207.076 157.248 201.869 157.981 196.729 158.004C191.606 158.027 186.512 157.905 181.404 158.347C179.357 158.523 177.295 158.668 175.256 158.958C173.302 159.233 171.141 159.623 169.506 160.814C168.33 161.677 169.468 163.662 170.66 162.792L170.652 162.784Z" fill="black"></path><path d="M240.042 178.072C233.918 179.538 227.557 178.935 221.326 179.439C218.141 179.698 215.095 180.492 211.948 180.989C208.802 181.478 205.618 181.63 202.434 181.661C198.738 181.699 195.042 181.569 191.346 181.554C189.872 181.554 189.872 183.837 191.346 183.845C197.837 183.868 204.366 184.257 210.834 183.432C214.071 183.02 217.217 182.127 220.463 181.806C223.662 181.493 226.885 181.493 230.1 181.409C233.643 181.317 237.201 181.103 240.653 180.279C242.088 179.935 241.478 177.728 240.042 178.072Z" fill="black"></path><path d="M181.365 182.447H180.006C179.846 182.439 179.701 182.47 179.563 182.546C179.418 182.592 179.296 182.669 179.197 182.783C179.082 182.89 179.006 183.012 178.96 183.15C178.891 183.287 178.853 183.432 178.861 183.592C178.876 183.89 178.968 184.196 179.197 184.402C179.426 184.608 179.693 184.738 180.006 184.738H181.365C181.526 184.746 181.671 184.715 181.808 184.639C181.953 184.593 182.076 184.516 182.175 184.402C182.289 184.295 182.366 184.173 182.412 184.035C182.48 183.898 182.519 183.753 182.511 183.592C182.496 183.295 182.404 182.989 182.175 182.783C181.946 182.577 181.679 182.447 181.365 182.447Z" fill="black"></path><path d="M124.201 189.61C135.808 190.854 147.148 187.64 158.541 185.983C161.435 185.563 164.345 185.257 167.269 185.158C170.049 185.066 172.561 185.593 175.234 186.296C178.006 187.021 180.663 187.456 183.534 187.342C186.459 187.22 189.353 186.884 192.285 187.075C199.082 187.51 205.855 188.167 212.659 188.426C214.132 188.48 214.132 186.189 212.659 186.135C206.595 185.899 200.555 185.364 194.507 184.936C191.537 184.723 188.666 184.723 185.703 184.921C182.763 185.12 180.006 185.127 177.135 184.417C174.455 183.753 171.79 182.89 168.995 182.836C166.215 182.783 163.413 183.066 160.664 183.402C154.998 184.096 149.408 185.272 143.78 186.219C137.313 187.311 130.761 188.021 124.209 187.311C122.743 187.151 122.758 189.449 124.209 189.602L124.201 189.61Z" fill="black"></path><path d="M211.055 189.549C211.032 192.107 211.231 194.65 211.368 197.2C211.483 199.239 211.674 201.392 211.315 203.416C210.856 205.989 209.276 207.311 206.87 208.089C203.159 209.288 199.219 210.029 195.378 210.663C190.537 211.457 185.634 211.885 180.739 212.106C175.188 212.358 169.629 212.358 164.07 212.343C162.596 212.343 162.596 214.634 164.07 214.634C174.379 214.656 184.71 214.611 194.92 213.038C199.12 212.389 203.427 211.602 207.481 210.296C210.131 209.441 212.323 207.967 213.224 205.226C213.911 203.141 213.812 200.82 213.728 198.659C213.613 195.62 213.308 192.596 213.338 189.549C213.354 188.075 211.063 188.075 211.047 189.549H211.055Z" fill="black"></path><path d="M128.493 193.016C128.477 197.254 127.973 201.476 128.012 205.715C128.027 207.188 130.318 207.188 130.302 205.715C130.257 201.476 130.768 197.254 130.784 193.016C130.784 191.542 128.5 191.542 128.493 193.016Z" fill="black"></path></g></g><defs><clipPath id="clip0_25_32405"><rect width="361" height="361" fill="white"></rect></clipPath></defs></svg> 