<?xml version="1.0" encoding="UTF-8"?> <svg xmlns="http://www.w3.org/2000/svg" width="361" height="361" viewBox="0 0 361 361" fill="none"><g clip-path="url(#clip0_25_32405)"><mask id="mask0_25_32405" style="mask-type:luminance" maskUnits="userSpaceOnUse" x="-135" y="-37" width="1784" height="937"><path d="M1648.81 -37H-135V899.194H1648.81V-37Z" fill="white"></path></mask><g mask="url(#mask0_25_32405)"><path d="M329.516 191.413C329.668 184.403 329.592 177.393 329.279 170.376C329.18 168.26 328.019 166.848 326.522 166.137C326.217 165.565 325.789 165.038 325.216 164.603C325.216 163.091 324.544 161.579 322.926 160.532C319.764 158.486 316.221 157.974 312.586 157.806C312.754 157.47 312.892 157.111 312.976 156.73C314.251 155.974 315.099 154.622 314.877 152.675C314.274 147.284 314.228 141.893 314.862 136.532C319.772 136.692 324.651 136.364 329.485 134.967C334.64 133.478 333.922 124.612 328.164 125.215C325.339 125.513 322.574 125.566 319.833 125.368C320.711 122.565 319.207 118.679 315.328 118.312C314.052 118.19 312.785 118.075 311.51 117.961C312.777 114.967 311.342 110.821 307.172 111.004C293.664 111.608 280.155 112.02 266.639 112.241C276.719 111.722 286.814 111.386 296.917 111.264C303.308 111.188 303.308 101.482 296.917 101.337C258.438 100.459 219.799 99.7944 181.741 106.461C179.037 106.934 177.991 108.973 178.174 111.058C176.922 111.004 175.67 110.951 174.417 110.897C169.843 110.684 168.553 115.716 170.531 118.702C170.225 119.328 170.042 120.068 170.034 120.924C170.034 123.36 170.027 125.788 170.019 128.224C169.988 128.346 169.958 128.468 169.935 128.598C168.843 136.135 168.69 143.527 169.454 151.003C164.353 149.445 160.329 157.111 165.537 160.044C169.484 162.266 173.486 164.289 178.006 165.007C183.031 165.801 188.216 165.702 193.286 165.885C193.485 165.885 193.683 165.901 193.874 165.908C193.431 168.062 194.256 170.322 196.837 171.009C196.998 173.048 197.295 175.087 197.44 176.988C197.891 182.937 198.342 188.886 198.792 194.834C196.707 195.132 194.669 195.613 192.691 196.277C160.466 197.408 128.142 196.453 95.91 195.926C96.4521 185.549 96.2765 175.171 95.3754 164.816C95.1845 162.663 93.9093 161.235 92.321 160.548C92.2751 154.561 82.7605 154.706 82.3939 160.937C81.5387 175.476 81.1951 190.031 81.3554 204.601C81.4241 210.557 90.0607 210.962 91.1603 205.792C118.185 206.197 145.278 206.953 172.333 206.647C172.18 213.566 172.134 220.484 172.188 227.402C167.873 226.914 163.544 226.585 159.214 226.364C149.951 225.89 140.673 225.898 131.403 225.829C112.74 225.692 94.0009 225.188 75.9948 219.782C69.863 217.941 67.2438 227.517 73.3527 229.357C78.6522 230.946 84.0205 232.137 89.4421 233.03C89.236 233.404 89.0756 233.794 88.9534 234.199C85.6164 233.511 82.3023 232.717 78.9958 231.808C72.8258 230.121 70.1913 239.689 76.3537 241.384C93.4129 246.058 111.121 248.089 128.791 247.356C128.807 247.699 128.86 248.058 128.952 248.425C129.914 252.289 129.234 256.26 128.852 260.169C128.631 262.46 128.41 264.751 128.196 267.042C119.055 266.828 109.915 266.507 100.774 266.095C97.5517 265.644 94.3369 265.072 91.1297 264.346C78.1788 261.406 65.5791 257.275 52.2769 256.107C49.9326 255.901 48.4817 257.153 47.8785 258.841C46.0305 258.856 44.1825 258.871 42.3346 258.886C39.4405 258.802 36.5387 258.825 33.637 258.955C30.5214 259.093 28.9255 261.49 28.8491 263.896C28.0321 266.5 29.3226 270.089 32.6519 270.913C32.713 271.02 32.7894 271.127 32.8657 271.234C32.7436 271.219 32.6214 271.203 32.4992 271.188C29.8266 270.822 27.1997 271.837 26.3903 274.655C25.7259 276.969 27.2073 280.397 29.8571 280.764C52.3991 283.864 75.0632 285.796 97.7808 286.506C98.3993 286.819 99.1171 287.026 99.9495 287.064C104.195 287.278 108.441 287.217 112.656 286.911L123.561 286.781C125.355 286.758 126.653 285.957 127.44 284.819C127.913 284.72 128.387 284.628 128.86 284.521C129.463 284.384 129.975 284.17 130.418 283.895C132.396 287.988 138.237 288.324 139.81 283.528C140.658 280.947 141.452 278.351 142.216 275.755C142.834 274.647 143.499 273.563 144.193 272.502C145.362 272.013 146.301 270.974 146.614 269.272C148.073 261.444 148.561 253.533 148.867 245.599C160.542 244.118 172.149 241.972 183.711 239.819C185.826 239.422 186.903 237.948 187.147 236.253C188.285 235.993 189.354 235.283 190.125 233.985C192.37 230.19 191.95 225.539 192.095 221.271C192.263 216.559 192.424 211.84 192.591 207.128C193.286 206.777 193.989 206.441 194.699 206.159C195.99 206.113 197.288 206.067 198.578 206.006C202.297 208.373 206.634 208.785 210.987 208.946C216.096 209.129 221.204 209.251 226.313 209.373C236.782 209.633 247.259 209.778 257.728 209.61C278.544 209.274 299.383 207.564 319.764 203.165C321.223 202.852 322.193 202.081 322.742 201.119C323.987 201.455 325.377 201.355 326.568 200.813C326.683 200.813 326.805 200.813 326.919 200.798C332.265 200.584 333.143 193.544 329.493 191.451L329.516 191.413ZM223.556 111.623C223.594 111.867 223.655 112.112 223.724 112.348C220.868 112.31 218.02 112.272 215.164 112.218C217.959 111.997 220.754 111.798 223.556 111.63V111.623ZM196.264 156.058C191.836 155.897 187.399 155.813 182.97 155.569C181.809 155.508 180.717 155.363 179.671 155.149C179.74 154.66 179.732 154.164 179.686 153.66C179.831 153.194 179.908 152.683 179.908 152.117C179.931 141.77 179.946 131.416 179.969 121.069C186.261 121.336 192.553 121.542 198.846 121.733C199.647 122.672 200.846 123.299 202.465 123.283C233.476 123.054 264.478 124.131 295.39 126.521C295.351 126.62 295.313 126.72 295.283 126.826C295.283 126.842 295.283 126.849 295.275 126.865C294.725 127.613 294.389 128.567 294.397 129.751C294.397 130.102 294.397 130.454 294.397 130.797C293.87 133.898 293.687 137.051 293.801 140.205C293.862 141.969 294.13 143.809 294.389 145.657C294.374 147.559 294.359 149.46 294.336 151.361C294.328 152.293 294.313 153.217 294.298 154.149C294.282 154.149 294.259 154.149 294.244 154.149C292.159 154.416 290.518 155.378 289.029 156.829C288.761 157.089 288.54 157.356 288.349 157.631C279.751 157.707 271.152 157.913 262.554 158.265C252.024 158.692 241.494 159.326 230.986 160.158C230.055 160.235 229.115 160.319 228.168 160.418C227.588 158.608 226.084 157.104 223.655 157.02L196.264 156.042V156.058ZM211.147 190.795C210.078 190.749 209.185 191.001 208.475 191.436C208.314 189.351 208.162 187.267 208.001 185.174C209.338 184.434 210.307 183.052 210.285 181.036C210.262 178.913 210.254 176.782 210.269 174.659C210.269 173.835 210.193 172.811 210.185 171.811C215.867 171.597 221.548 170.88 227.237 170.406C237.492 169.543 247.763 168.871 258.041 168.398C268.319 167.924 278.613 167.642 288.899 167.558C290.67 167.543 292.442 167.543 294.214 167.535C294.748 168.069 295.443 168.497 296.329 168.764C297.589 169.146 298.872 169.444 300.155 169.704C300.521 171.2 301.613 172.43 303.576 172.72C304.614 172.873 305.66 173.002 306.699 173.125C306.202 178.309 306.775 183.54 307.493 188.779C307.646 189.886 308.318 190.779 309.219 191.398C276.528 192.291 243.823 192.093 211.14 190.779L211.147 190.795Z" fill="#233244"></path><path d="M180.053 119.282C176.25 130.637 179.473 142.419 178.954 154.042C178.938 154.431 179.183 154.851 179.519 155.034C185.108 158.051 191.591 159.104 197.845 159.708C205.031 160.403 212.27 160.372 219.486 160.288C222.854 160.25 226.221 160.189 229.597 160.189C232.972 160.189 236.057 160.349 239.295 160.441C248.023 160.685 256.736 160.006 265.456 159.784C275.093 159.54 284.921 159.754 294.183 162.701C295.077 162.984 295.749 162.105 295.596 161.288C294.229 154.255 296.1 147.207 295.833 140.136C295.779 138.67 293.488 138.662 293.542 140.136C293.824 147.436 291.976 154.63 293.389 161.899L294.802 160.487C278.186 155.21 260.332 158.173 243.25 158.196C239.737 158.196 236.232 157.974 232.727 157.921C229.452 157.867 226.176 157.921 222.9 157.959C215.737 158.051 208.567 158.165 201.412 157.707C194.256 157.249 186.933 156.432 180.687 153.064L181.252 154.057C181.764 142.656 178.541 131.034 182.268 119.908C182.733 118.511 180.527 117.907 180.061 119.297L180.053 119.282Z" fill="black"></path><path d="M186.513 121.779C192.584 118.503 200.159 118.182 206.902 118.106C215.309 118.007 223.709 118.732 232.071 119.511C238.821 120.145 245.571 120.901 252.352 120.977C259.859 121.061 267.365 120.893 274.864 121.328C279.041 121.573 283.241 121.97 287.334 122.879C290.442 123.573 293.794 124.528 296.299 126.605C297.429 127.537 299.055 125.925 297.917 124.986C295.588 123.054 292.717 121.924 289.823 121.138C286.219 120.152 282.477 119.664 278.766 119.328C270.893 118.618 262.974 118.732 255.086 118.709C239.852 118.671 224.778 115.945 209.544 115.815C205.023 115.777 200.488 115.945 196.013 116.602C192.34 117.136 188.651 118.037 185.368 119.809C184.07 120.511 185.223 122.489 186.521 121.787L186.513 121.779Z" fill="black"></path><path d="M306.707 130.606C306.699 136.188 306.684 141.763 306.676 147.345C306.676 148.819 308.967 148.819 308.967 147.345C308.975 141.763 308.99 136.188 308.997 130.606C308.997 129.133 306.707 129.133 306.707 130.606Z" fill="black"></path><path d="M77.3694 163.518C91.2977 160.38 105.852 162.999 119.788 164.725C126.905 165.603 134.014 166.252 141.192 166.214C148.706 166.168 156.198 165.618 163.689 165.175C171.859 164.694 180.068 164.305 188.239 164.984C189.705 165.106 189.697 162.816 188.239 162.693C173.394 161.456 158.519 163.595 143.674 163.892C136.466 164.037 129.318 163.572 122.163 162.724C114.916 161.869 107.693 160.784 100.415 160.212C92.5272 159.586 84.5168 159.563 76.7661 161.311C75.3305 161.632 75.9338 163.847 77.377 163.518H77.3694Z" fill="black"></path><path d="M199.044 163.862C199.838 170.475 200.594 177.187 200.273 183.853C200.144 186.557 199.953 189.703 198.097 191.848C196.012 194.254 192.66 195.094 189.636 195.529C185.887 196.064 182.069 195.987 178.297 196.025C173.409 196.079 168.53 196.438 163.658 196.705C152.586 197.301 141.506 197.889 130.418 198.255C117.795 198.668 105.157 198.79 92.5348 198.362C91.061 198.316 91.061 200.607 92.5348 200.653C115.504 201.424 138.466 200.355 161.405 199.118C166.621 198.836 171.844 198.423 177.067 198.332C180.954 198.263 184.856 198.362 188.728 197.927C192.179 197.545 195.783 196.797 198.555 194.575C201.037 192.581 201.946 189.741 202.328 186.694C202.839 182.647 202.656 178.508 202.381 174.446C202.144 170.902 201.763 167.382 201.343 163.854C201.167 162.411 198.876 162.388 199.052 163.854L199.044 163.862Z" fill="black"></path><path d="M94.398 173.415C93.4205 173.896 93.1151 175.331 92.8936 176.286C92.4736 178.058 92.2446 179.883 92.0078 181.685C91.4962 185.518 91.2366 189.466 90.2515 193.223C89.8774 194.651 92.0842 195.262 92.4584 193.834C93.3976 190.26 93.6802 186.496 94.1536 182.838C94.375 181.127 94.5965 179.402 94.9325 177.706C95.0623 177.072 95.1998 176.439 95.4059 175.82C95.5128 175.492 95.4518 175.637 95.5739 175.423C95.6961 175.209 95.5739 175.393 95.5587 175.393C96.8797 174.736 95.719 172.766 94.4056 173.415H94.398Z" fill="black"></path><path d="M206.604 165.488C205.604 168.13 205.352 171.101 205.13 173.896C204.855 177.363 204.802 180.868 205.054 184.342C205.253 187.076 205.459 190.283 207.223 192.52C209.078 194.88 212.156 195.544 215.012 195.682C218.234 195.834 221.456 195.376 224.671 195.201C229.467 194.949 234.323 195.201 239.119 195.292C249.642 195.491 260.164 195.804 270.694 195.621C276.17 195.521 281.652 195.33 287.128 195.147C292.213 194.979 297.429 194.597 302.24 192.803C303.606 192.291 303.018 190.077 301.629 190.596C297.475 192.154 293.038 192.604 288.632 192.803C284.226 193.001 279.438 193.093 274.841 193.238C264.815 193.544 254.781 193.33 244.754 193.124C239.661 193.017 234.575 192.91 229.482 192.872C225.954 192.849 222.495 193.116 218.982 193.33C216.287 193.498 213.064 193.734 210.598 192.413C208.307 191.184 207.818 188.702 207.528 186.327C207.085 182.677 207.108 178.943 207.322 175.278C207.505 172.239 207.719 168.986 208.803 166.114C209.323 164.732 207.116 164.137 206.596 165.504L206.604 165.488Z" fill="black"></path><path d="M209.513 164.954C211.346 163.747 213.621 163.495 215.767 163.449C218.379 163.388 220.99 163.663 223.579 163.969C229.444 164.664 235.316 164.954 241.211 165.29C248.267 165.694 255.284 165.84 262.348 165.824C269.083 165.809 275.803 166.351 282.492 167.038C290.014 167.817 297.512 168.81 305.042 169.589C306.508 169.742 306.493 167.451 305.042 167.298C291.503 165.901 278.002 163.74 264.364 163.549C260.935 163.503 257.507 163.617 254.078 163.549C250.405 163.48 246.74 163.304 243.074 163.106C236.919 162.762 230.742 162.548 224.618 161.8C221.678 161.441 218.722 161.082 215.752 161.151C213.224 161.204 210.506 161.54 208.345 162.968C207.123 163.778 208.269 165.763 209.498 164.946L209.513 164.954Z" fill="black"></path><path d="M306.386 172.422C307.989 178.722 307.562 185.289 308.142 191.711C308.272 193.169 310.563 193.185 310.433 191.711C309.837 185.083 310.25 178.317 308.593 171.811C308.234 170.383 306.019 170.986 306.386 172.422Z" fill="black"></path><path d="M76.7815 207.037C82.1192 208.953 88.1136 208.152 93.6192 207.617C99.8733 207.014 106.127 207.159 112.397 206.899C118.666 206.64 125.355 205.983 131.846 205.609C138.13 205.242 144.43 205.151 150.715 205.303C157.687 205.471 164.674 205.907 171.592 206.846L170.752 205.739C171.065 212.039 172.463 218.43 171.63 224.737C171.317 227.128 170.493 228.892 168.347 230.106C165.926 231.465 163.001 231.961 160.275 232.259C154.189 232.923 148.073 232.503 141.964 232.442C137.695 232.404 133.427 232.603 129.15 232.542C123.805 232.465 118.467 232.29 113.122 232.343C110.312 232.374 107.54 232.503 104.753 232.893C102.21 233.252 99.69 233.779 97.1548 234.206C91.9851 235.077 86.8001 235.23 81.8901 233.107C80.5537 232.526 79.3854 234.504 80.737 235.084C85.2576 237.032 89.9768 237.459 94.8334 236.848C99.69 236.238 104.256 235 109.06 234.733C114.55 234.428 120.086 234.657 125.577 234.764C130.639 234.863 135.679 234.794 140.734 234.733C146.881 234.657 153.006 235.199 159.145 234.657C164.269 234.206 171.623 233.191 173.402 227.433C174.479 223.943 174.204 219.972 173.967 216.376C173.73 212.779 173.226 209.289 173.051 205.731C173.028 205.28 172.715 204.693 172.211 204.624C159.878 202.951 147.34 202.608 134.923 203.15C128.532 203.425 122.163 204.097 115.772 204.441C112.374 204.624 108.983 204.746 105.577 204.799C102.554 204.845 99.5525 204.799 96.5362 205.059C90.3204 205.578 83.4402 206.991 77.4 204.822C76.0102 204.326 75.4146 206.533 76.7891 207.029L76.7815 207.037Z" fill="black"></path><path d="M74.101 206.54C74.0704 215.681 72.9861 224.875 74.101 233.985C74.1774 234.588 74.5668 235.145 75.2464 235.13C76.3231 235.107 76.9646 236.1 77.942 236.428C79.347 236.894 79.9427 234.687 78.5529 234.221C78.1253 234.076 77.7358 233.611 77.3464 233.382C76.6973 233.007 76.0024 232.824 75.2541 232.847L76.3995 233.992C75.277 224.882 76.3613 215.689 76.3995 206.548C76.3995 205.074 74.1163 205.074 74.1086 206.548L74.101 206.54Z" fill="black"></path><path d="M47.3133 243.706C55.9193 242.102 64.7161 241.835 73.4443 241.842C77.8427 241.842 82.2411 241.926 86.6396 241.972C88.8312 241.995 91.0151 242.056 93.199 241.85C102.408 240.957 111.541 239.315 120.804 238.994C122.873 238.925 125.263 238.895 127.149 239.162C127.547 239.216 127.951 239.292 128.341 239.391C128.509 239.429 128.669 239.475 128.829 239.529C128.906 239.552 129.372 239.735 129.112 239.62C129.234 239.674 129.356 239.742 129.478 239.804C129.578 239.857 129.86 240.04 129.608 239.872C129.692 239.926 129.784 240.025 129.837 240.101C129.562 239.72 129.952 240.483 129.784 240.01C130.288 241.384 132.502 240.789 131.991 239.399C131.525 238.124 130.296 237.528 129.051 237.2C127.317 236.741 125.462 236.673 123.683 236.657C118.711 236.596 113.733 237.131 108.8 237.681C103.867 238.231 99.4378 238.857 94.7492 239.384C88.877 240.04 82.9208 239.613 77.0333 239.559C66.9001 239.475 56.6982 239.62 46.7024 241.484C45.2515 241.751 45.8701 243.965 47.3133 243.69V243.706Z" fill="black"></path><path d="M129.899 240.292C131.754 244.393 131.166 249.387 130.632 253.701C130.051 258.329 129.028 262.964 129.013 267.645L130.158 266.5C118.903 267.263 107.739 269.096 96.46 269.546C90.939 269.768 85.5173 269.501 80.0269 268.928C74.6358 268.37 69.2141 268.271 63.8001 268.042C57.8438 267.782 51.8571 267.393 46.046 265.988C44.6104 265.644 43.9995 267.851 45.4351 268.195C55.9806 270.738 66.9309 270.142 77.6673 271.005C80.3324 271.219 82.9745 271.593 85.6395 271.761C88.4573 271.944 91.2826 271.975 94.1004 271.914C99.7511 271.791 105.387 271.272 110.999 270.677C117.383 270.005 123.752 269.226 130.158 268.79C130.777 268.745 131.304 268.302 131.304 267.645C131.319 262.766 132.419 257.939 132.991 253.113C133.564 248.287 133.847 243.492 131.877 239.132C131.273 237.788 129.295 238.956 129.899 240.285V240.292Z" fill="black"></path></g></g><defs><clipPath id="clip0_25_32405"><rect width="361" height="361" fill="white"></rect></clipPath></defs></svg> 