<?xml version="1.0" encoding="UTF-8"?> <svg xmlns="http://www.w3.org/2000/svg" width="291" height="494" viewBox="0 0 291 494" fill="none"><path d="M278.24 462.626H278.212C278.196 462.318 278.162 461.998 278.112 461.656C277.949 460.653 277.204 459.869 276.29 459.426C275.685 458.866 274.889 458.518 273.937 458.518C272.054 458.518 270.176 460.188 270.294 462.161C270.283 462.419 270.294 462.548 270.311 462.542C270.294 462.592 270.288 462.626 270.277 462.654C270.204 462.732 270.103 462.895 270.35 462.721C270.35 462.721 270.35 462.721 270.35 462.727C269.806 463.158 269.352 463.685 269.05 464.262H268.876C269.123 462.279 267.968 460.099 265.396 460.121L236.165 460.351C231.598 460.384 226.986 460.603 222.424 460.373C218.922 460.199 215.139 459.392 213.043 456.4C212.443 450.639 212.286 444.839 212.539 439.039C212.639 436.752 210.118 434.802 207.926 435.525C206.553 435.979 205.18 436.433 203.807 436.887C199.582 438.288 201.117 444.76 205.152 444.054C205.152 448.588 205.405 453.099 205.892 457.605C205.881 457.924 205.915 458.255 206.004 458.591C206.083 459.247 206.172 459.902 206.256 460.558C202.614 460.463 201.37 466.437 205.421 467.782C207.517 468.477 209.641 469.02 211.788 469.446C211.087 470.78 210.807 472.36 210.779 473.946C210.745 475.908 210.863 477.891 211.009 479.875C209.568 479.842 208.089 480.004 206.682 480.24C204.839 480.542 203 480.794 201.157 481.002C200.557 480.464 199.784 480.139 198.881 480.206C194.191 480.531 189.495 480.856 184.804 481.175C180.063 480.615 175.417 479.505 170.654 479.13C168.25 478.939 165.952 479.197 163.851 479.931C162.399 479.438 160.696 479.769 159.698 481.478C159.367 482.044 158.969 482.638 158.616 483.238C158.23 483.63 157.86 484.056 157.507 484.504C156.823 484.297 155.59 484.527 154.901 484.51C153.78 484.482 152.659 484.459 151.538 484.431C147.431 484.336 143.323 484.246 139.215 484.151C131 483.966 122.784 483.776 114.569 483.591C113.067 483.557 112.002 484.381 111.447 485.479C110.663 485.412 109.878 485.345 109.093 485.266C104.431 484.801 104.464 492.092 109.093 492.552C115.897 493.23 122.711 493.549 129.537 493.521C131.823 493.644 134.127 493.616 136.458 493.37C136.531 493.37 136.604 493.37 136.677 493.364C136.677 493.359 136.677 493.353 136.677 493.347C137.002 493.314 137.321 493.28 137.646 493.235C138.851 493.073 139.607 492.361 139.983 491.453L143.144 491.526C147.812 491.633 152.48 491.778 157.148 491.845C159.087 491.874 160.959 491.834 162.511 490.501C162.707 490.332 162.892 490.153 163.066 489.957C167.263 489.666 171.461 489.38 175.658 489.088C176.084 490.372 177.188 491.386 178.97 491.33C184.855 491.139 190.61 490.517 196.141 488.752C198.058 488.662 199.974 488.505 201.88 488.281C203.426 488.102 211.182 486.012 211.95 487.435C213.626 490.545 218.95 489.212 218.737 485.597C218.714 485.222 218.692 484.846 218.669 484.471C218.692 484.448 218.714 484.431 218.731 484.409C220.367 484.073 221.925 482.784 222.054 480.901C222.29 477.527 222.525 474.154 222.76 470.78C225.327 470.931 227.905 471.004 230.477 471.043C228.561 474.086 231.788 478.81 235.117 476.289C237.392 474.563 240.833 475.173 243.535 475.168C246.981 475.162 250.433 475.157 253.88 475.151C260.778 475.14 267.677 475.129 274.57 475.117C277.512 475.117 278.605 472.243 277.848 470.107C278.078 469.637 278.207 469.11 278.212 468.561C278.224 466.571 278.229 464.587 278.24 462.598V462.626Z" fill="#233244"></path><path d="M280.768 270.648C280.213 269.757 279.232 269.157 277.803 269.27C273.538 269.611 269.268 269.987 264.998 270.329C264.393 269.718 263.575 269.331 262.549 269.32C261.523 269.309 260.386 269.88 259.652 270.732C256.541 270.951 253.437 271.141 250.321 271.265C241.943 271.595 232.937 270.11 224.845 272.8C221.819 273.809 221.303 277.709 223.976 279.458C225.798 280.651 227.826 281.021 229.905 281.06C227.849 281.285 225.803 281.632 223.786 282.148C221.987 282.607 221.191 283.935 221.174 285.325C220.317 284.894 219.482 284.406 218.68 283.823C215.609 281.61 212.651 285.286 213.598 288.222C211.037 289.954 211.731 294.499 215.593 294.852C226.005 295.81 236.445 295.687 246.802 294.555C249.335 294.69 251.862 294.863 254.389 295.076C257.494 295.34 261.266 295.978 263.603 293.305C263.619 293.283 263.636 293.26 263.653 293.244C265.368 293.132 267.038 291.96 267.133 289.741C267.301 285.936 267.234 282.153 266.943 278.376C267.01 278.376 267.083 278.365 267.15 278.359C271.779 278.623 276.514 279.396 280.7 276.992C283.099 275.619 282.847 271.926 280.762 270.643L280.768 270.648ZM258.688 282.966C250.949 281.918 242.952 280.623 235.106 280.752C235.42 280.724 235.734 280.696 236.042 280.674C238.098 280.522 240.155 280.371 242.212 280.214C242.974 280.78 243.966 281.066 245.132 280.848C247.799 280.338 250.472 279.833 253.157 279.407C255.124 279.262 257.096 279.116 259.063 278.97C258.985 280.304 258.862 281.638 258.693 282.971L258.688 282.966Z" fill="#233244"></path><path d="M139.731 359.831C139.607 358.267 139.49 356.709 139.366 355.146C139.008 350.5 131.717 350.461 132.081 355.146C132.221 356.928 132.356 358.704 132.496 360.487L131.263 365.665C131.207 365.911 131.173 366.147 131.162 366.376C130.77 366.376 130.383 366.376 129.991 366.371C129.173 366.371 128.5 366.584 127.968 366.948C112.461 368.327 96.9158 369.094 81.3533 369.251C80.9106 367.727 79.4592 366.864 77.8508 366.651C77.5594 366.612 77.2736 366.584 76.9822 366.545C77.083 363.3 77.0494 360.055 76.8869 356.805C80.098 356.894 83.3091 356.995 86.5203 357.13C87.8316 357.186 88.7731 356.653 89.3503 355.863C95.5764 355.93 101.819 355.858 107.956 354.664C111.212 354.031 113.773 352.809 113.93 349.144C114.092 345.451 113.666 341.629 113.543 337.936C113.38 333.262 106.095 333.24 106.258 337.936C106.364 341.012 106.784 344.33 106.712 347.496C106.157 347.614 105.602 347.726 105.047 347.821C104.061 347.99 103.08 348.118 102.083 348.219C99.7682 348.455 97.4425 348.55 95.1169 348.589C90.6056 348.668 86.0943 348.488 81.5831 348.505C77.4921 348.522 73.4068 348.735 69.3607 349.346C64.9727 349.273 60.5847 349.234 56.1968 349.239C55.1712 349.239 54.3698 349.592 53.7926 350.141C51.4613 350.394 49.2701 352.893 50.7776 355.583C54.4875 362.196 61.7392 358.48 67.2535 357.147C67.3488 360.016 67.4441 362.885 67.5393 365.749C63.6894 365.592 59.8394 365.637 55.9838 365.9C49.5728 366.348 42.1194 368.859 35.9493 366.309C34.1168 365.553 31.9648 367.133 31.4661 368.853C31.113 370.081 31.4325 371.151 32.1218 371.98C30.8609 371.779 29.6055 371.51 28.3671 371.151C23.8558 369.845 21.928 376.873 26.4281 378.179C37.9107 381.502 50.3741 378.621 61.9521 377.175C63.5493 376.974 65.2417 376.806 66.8949 376.503C67.5393 376.514 68.1894 376.52 68.8339 376.525C69.5568 377.826 70.7505 378.711 72.7847 378.632C74.309 378.571 75.413 377.764 75.9903 376.559C76.4946 376.559 76.9934 376.548 77.4977 376.548C80.395 379.232 84.3515 379.764 88.2295 379.535C93.1274 379.243 97.9973 378.717 102.901 378.509C104.851 378.425 106.801 378.375 108.752 378.341C108.124 378.918 107.676 379.725 107.563 380.762C107.266 384.22 106.969 387.672 106.678 391.13C106.633 391.639 106.549 392.172 106.493 392.704C105.787 392.659 105.081 392.693 104.425 392.771C97.9581 393.55 91.4966 394.425 85.024 395.17C83.2979 395.248 81.5775 395.321 79.8514 395.383C65.6564 395.865 51.4501 395.562 37.2887 394.537C33.2089 394.24 32.3179 400.819 36.3192 401.693C47.8916 404.209 59.7273 404.546 71.5126 403.744C76.0743 403.436 80.6248 402.971 85.1641 402.45C85.4219 402.438 85.674 402.433 85.9318 402.416C89.9836 402.214 94.0297 401.957 98.0758 401.631C101.763 401.334 106.185 401.525 109.732 400.455C112.075 399.749 112.977 398.095 113.403 396.145C114.793 395.758 116.009 394.57 116.211 392.732C116.743 387.946 117.017 383.149 117.051 378.341C122.879 378.431 128.708 378.711 134.525 379.187C137.618 379.439 138.655 376.335 137.646 374.093C138.884 373.947 140.011 373.141 140.426 371.504C141.406 367.587 141.266 363.58 139.725 359.831H139.731Z" fill="#233244"></path><path d="M280.482 172.992C280.431 171.367 279.619 170.313 278.554 169.815C278.291 165.32 271.207 165.365 271.28 170C271.347 174.247 271.415 178.495 271.482 182.743C267.621 183.41 263.793 184.419 259.965 185.377L232.786 184.071C228.101 183.847 228.112 191.132 232.786 191.357C233.823 191.407 234.859 191.457 235.89 191.508C235.991 193.155 237.174 194.775 239.393 195.044C244.661 195.683 249.755 194.994 254.793 193.906C258.861 193.604 262.936 193.307 267.004 193.004C268.921 192.864 270.058 191.637 270.406 190.225C270.82 190.146 271.241 190.073 271.655 190.006C272.322 193.772 277.697 193.665 278.722 190.062C279.608 189.49 280.263 188.532 280.331 187.193C280.572 182.463 280.622 177.733 280.482 172.998V172.992Z" fill="#233244"></path><path d="M282.113 22.0639C281.317 20.1865 278.767 19.8839 277.058 20.803C274.934 19.9848 271.947 21.0664 271.863 24.0533C271.74 28.3348 272.037 32.5715 272.687 36.7857C272.575 36.7857 272.463 36.7857 272.351 36.7857C272.423 36.2365 272.418 35.6537 272.311 35.0429C271.499 30.3915 267.01 30.9575 263.563 31.8934C260.448 32.7396 257.276 33.3392 254.076 33.7315C248.505 33.569 242.929 33.7539 237.381 34.2863C233.565 34.1574 229.749 33.894 225.938 33.5914C225.815 32.6051 225.669 31.6244 225.585 30.6829C225.473 29.3828 225.361 28.0826 225.249 26.7881C235.952 27.4494 246.662 27.3093 257.36 25.4712C260.756 24.8883 260.509 20.4331 258.228 18.8135C258.206 18.7967 258.184 18.7855 258.161 18.7687C258.156 18.5558 258.139 18.3372 258.111 18.1186C257.718 15.2606 257.332 12.4025 256.939 9.54445C256.939 9.30908 256.956 9.07371 256.951 8.83274C256.945 8.33398 256.839 7.88005 256.659 7.47095C256.48 6.17642 256.306 4.87628 256.127 3.58174C255.858 1.61472 253.364 0.583578 251.644 1.03751C249.536 1.59231 248.836 3.57614 249.099 5.52074C249.262 6.72561 249.43 7.93609 249.593 9.14096C249.43 10.3907 249.368 11.6123 249.413 12.8172C249.239 14.0613 248.97 15.2886 248.595 16.4935C248.348 16.5047 248.102 16.5159 247.855 16.5271C243.495 16.7793 239.158 17.1604 234.787 17.3005C229.805 17.4574 224.817 17.4406 219.835 17.2724C219.135 16.897 218.277 16.7457 217.296 16.9754C217.027 17.0371 216.764 17.0819 216.501 17.1323C213.34 16.981 210.185 16.7681 207.03 16.4935C205.887 16.3926 205.012 16.7961 204.424 17.4518C200.641 16.9642 196.875 16.4542 193.121 15.9667C191.154 15.7089 189.495 17.8216 189.478 19.6093C189.455 21.7893 191.176 22.9998 193.121 23.2519C201.364 24.3223 209.63 25.4431 217.907 26.2109C218.109 28.6038 218.316 31.0024 218.529 33.3953C215.974 34.6394 216.058 39.3132 219.28 40.2602C219.392 40.2939 219.51 40.3219 219.622 40.3555C220.519 42.457 222.228 43.7684 225.26 43.32C227.255 43.023 229.239 42.7428 231.217 42.4794C236.518 43.0286 241.893 43.1687 247.116 43.4321C248.83 43.5162 250.545 43.5834 252.26 43.6507C252.63 45.0349 253.756 46.2061 255.639 46.2902C262.056 46.5704 268.422 46.0268 274.721 44.7715C275.248 44.665 275.691 44.4745 276.049 44.2279C276.593 44.1326 277.136 44.043 277.68 43.9421C279.468 44.5137 281.777 43.9421 282.668 41.7173C285.251 35.2446 284.808 28.3965 282.113 22.0527V22.0639Z" fill="#233244"></path><path d="M15.7916 354.126C20.6167 354.67 25.3465 355.869 30.2108 356.093C35.2432 356.323 40.2869 355.863 45.3249 355.987C50.3517 356.104 55.3842 356.11 60.4054 356.34C62.2155 356.424 64.0929 356.429 65.8413 356.951C66.4858 357.141 67.1975 357.438 67.7523 357.825C67.8532 357.898 67.9653 358.027 67.898 357.903C67.926 357.959 67.9372 358.105 67.9316 357.959C67.9372 358.071 67.9428 358.189 67.9428 358.301C67.9316 360.442 67.9709 362.588 67.814 364.729C67.6122 367.469 67.2367 370.199 67.1751 372.95C67.1527 374.032 68.8339 374.032 68.8563 372.95C68.9123 370.417 69.2374 367.912 69.4447 365.39C69.5456 364.146 69.6185 362.902 69.6241 361.658C69.6241 360.7 69.5624 359.747 69.6072 358.789C69.6577 357.657 69.4503 356.861 68.4136 356.256C66.8108 355.331 65.0624 354.984 63.241 354.821C58.3879 354.39 53.4732 354.446 48.6089 354.367C45.9974 354.322 43.3915 354.227 40.78 354.283C38.1237 354.333 35.4618 354.474 32.8055 354.468C29.9026 354.468 27.0389 354.21 24.1808 353.751C21.3228 353.291 18.6104 352.764 15.8028 352.445C14.7268 352.322 14.738 354.008 15.8028 354.126H15.7916Z" fill="black"></path><path d="M66.2336 374.587C61.5374 374.105 56.8188 374.671 52.1226 374.856C47.1462 375.052 42.2202 374.491 37.2775 373.987C34.4923 373.701 31.7014 373.466 28.905 373.443C27.8234 373.438 27.8234 375.119 28.905 375.125C33.859 375.158 38.7625 375.892 43.6885 376.307C46.1599 376.514 48.6369 376.632 51.1139 376.565C53.5124 376.503 55.9053 376.318 58.3039 376.195C60.9434 376.06 63.5997 375.993 66.2336 376.262C67.3096 376.374 67.2984 374.693 66.2336 374.581V374.587Z" fill="black"></path><path d="M18.8514 358.626C18.9466 360.599 18.6664 362.543 18.1565 364.443C18.0388 364.88 18.3022 365.357 18.7449 365.48C19.1876 365.603 19.6639 365.334 19.7816 364.892C20.3252 362.863 20.639 360.728 20.5326 358.626C20.5102 358.172 20.1627 357.786 19.692 357.786C19.2548 357.786 18.8289 358.172 18.8514 358.626Z" fill="black"></path><path d="M48.6032 352.148C49.0796 349.228 49.2309 346.275 49.668 343.35C50.1051 340.424 50.7552 337.493 52.4476 335.061L51.5005 335.448C65.6675 338.412 79.9467 333.924 94.1921 334.988C98.2046 335.285 102.161 336.098 105.916 337.566C106.925 337.958 107.362 336.333 106.364 335.947C92.7127 330.6 78.0077 334.523 63.8911 334.792C59.8898 334.871 55.8773 334.646 51.9544 333.828C51.5622 333.744 51.2315 333.89 51.0074 334.215C47.5048 339.242 47.9363 345.916 46.9949 351.705C46.8211 352.764 48.4407 353.218 48.6144 352.154L48.6032 352.148Z" fill="black"></path><path d="M109.2 337.829C109.065 340.144 109.295 342.47 109.239 344.79C109.194 346.661 109.2 349.402 107.642 350.741C106.818 351.447 108.012 352.63 108.83 351.929C110.623 350.388 110.814 347.496 110.903 345.311C111.004 342.817 110.741 340.318 110.881 337.829C110.943 336.748 109.261 336.753 109.2 337.829Z" fill="black"></path><path d="M102.324 350.87C97.5884 352.372 92.5279 352.176 87.6244 352.002C82.2949 351.812 76.9599 351.89 71.6248 351.711C68.4193 351.604 65.2138 351.419 62.0139 351.111C60.9379 351.01 60.9435 352.691 62.0139 352.792C67.6796 353.33 73.3677 353.487 79.0558 353.532C81.6673 353.549 84.2787 353.566 86.8902 353.655C89.4345 353.745 91.9843 353.84 94.5342 353.751C97.3138 353.655 100.11 353.33 102.767 352.49C103.792 352.165 103.355 350.54 102.318 350.87H102.324Z" fill="black"></path><path d="M48.861 352.77C49.6904 352.731 50.5254 352.742 51.3492 352.77C51.7863 352.787 52.2122 352.372 52.1898 351.929C52.1674 351.459 51.82 351.105 51.3492 351.089C50.5198 351.055 49.6848 351.044 48.861 351.089C48.4239 351.111 47.998 351.459 48.0204 351.929C48.0372 352.366 48.3903 352.792 48.861 352.77Z" fill="black"></path><path d="M74.3202 357.315C74.3539 362.414 75.6764 367.705 74.3202 372.737C74.04 373.785 75.6596 374.228 75.9398 373.185C77.3408 367.985 76.0351 362.594 76.0015 357.32C75.9959 356.239 74.3146 356.239 74.3202 357.32V357.315Z" fill="black"></path><path d="M76.293 358.755C77.3689 357.965 78.7756 357.718 80.0701 357.516C81.4431 357.309 82.8329 357.231 84.2171 357.102C88.1007 356.743 91.9843 356.721 95.8791 356.777C99.858 356.833 103.809 356.328 107.748 355.841C111.705 355.348 115.639 354.989 119.629 355.056C123.686 355.124 127.794 355.331 131.812 354.653L130.865 353.42C130.467 354.076 130.568 354.983 130.641 355.706C130.748 356.805 130.944 357.898 131.084 358.99C131.454 361.837 130.972 364.707 130.507 367.509C130.333 368.568 131.952 369.022 132.126 367.957C132.586 365.183 133.124 362.302 132.821 359.478C132.709 358.441 132.53 357.416 132.395 356.385C132.339 355.931 132.283 355.471 132.266 355.012C132.261 354.821 132.249 354.625 132.266 354.429C132.277 354.289 132.283 354.305 132.305 354.261C132.72 353.582 132.042 352.91 131.358 353.028C127.738 353.644 124 353.454 120.341 353.386C116.368 353.313 112.467 353.577 108.522 354.059C104.498 354.552 100.474 355.107 96.4115 355.096C92.4999 355.084 88.5995 355.028 84.699 355.37C83.0683 355.516 81.4375 355.622 79.8179 355.858C78.3272 356.076 76.6853 356.379 75.4412 357.292C74.5781 357.926 75.4187 359.388 76.2874 358.744L76.293 358.755Z" fill="black"></path><path d="M130.725 370.837C125.911 371.992 120.907 371.515 116.009 371.913C113.504 372.121 111.111 372.754 108.634 373.135C106.168 373.516 103.663 373.634 101.175 373.656C98.3001 373.684 95.4252 373.583 92.5447 373.572C91.4632 373.572 91.4632 375.248 92.5447 375.253C97.6388 375.27 102.755 375.578 107.821 374.928C110.315 374.609 112.747 373.92 115.247 373.662C117.746 373.404 120.29 373.41 122.812 373.342C125.614 373.27 128.433 373.113 131.168 372.457C132.221 372.205 131.773 370.585 130.72 370.837H130.725Z" fill="black"></path><path d="M84.7214 374.273C84.3683 374.273 84.0097 374.273 83.6566 374.273C83.4437 374.273 83.2139 374.368 83.0626 374.519C82.9785 374.598 82.9225 374.687 82.8889 374.788C82.8384 374.889 82.8104 374.996 82.816 375.113C82.8272 375.332 82.8945 375.556 83.0626 375.707C83.2307 375.859 83.4269 375.954 83.6566 375.954C84.0097 375.954 84.3683 375.954 84.7214 375.954C84.9343 375.954 85.1641 375.859 85.3154 375.707C85.3995 375.629 85.4555 375.539 85.4891 375.438C85.5396 375.337 85.5676 375.231 85.562 375.113C85.5508 374.895 85.4835 374.67 85.3154 374.519C85.1473 374.368 84.9512 374.273 84.7214 374.273Z" fill="black"></path><path d="M39.917 379.77C48.9339 380.74 57.7491 378.274 66.5923 376.962C68.7947 376.637 71.0083 376.391 73.2331 376.301C74.3259 376.256 75.4243 376.223 76.5115 376.385C77.6211 376.553 78.7027 376.85 79.7842 377.136C81.9082 377.697 83.9593 378.072 86.1672 377.999C88.5378 377.921 90.8915 377.624 93.2676 377.781C98.597 378.128 103.915 378.638 109.256 378.845C110.338 378.885 110.338 377.203 109.256 377.164C104.515 376.979 99.7963 376.565 95.0665 376.223C92.696 376.055 90.3983 376.06 88.0278 376.223C85.7245 376.38 83.5726 376.363 81.3197 375.802C79.2462 375.287 77.1784 374.62 75.0208 374.586C72.8632 374.553 70.5039 374.777 68.2791 375.057C63.8351 375.617 59.4471 376.542 55.0312 377.276C50.0379 378.106 44.9831 378.638 39.9282 378.094C38.8523 377.977 38.8635 379.664 39.9282 379.776L39.917 379.77Z" fill="black"></path><path d="M108.051 379.781C108.029 381.754 108.186 383.721 108.292 385.694C108.382 387.341 108.55 389.084 108.242 390.721C108.073 391.617 107.754 392.469 107.093 393.113C106.465 393.719 105.63 394.072 104.818 394.341C101.87 395.31 98.7147 395.899 95.6549 396.397C91.8722 397.014 88.0558 397.345 84.2283 397.524C79.8795 397.726 75.5196 397.72 71.1652 397.714C70.0836 397.714 70.0836 399.396 71.1652 399.396C79.2743 399.412 87.4114 399.379 95.4476 398.129C98.7259 397.619 102.105 397.008 105.266 395.966C107.295 395.299 108.953 394.156 109.648 392.054C110.197 390.379 110.108 388.513 110.035 386.775C109.94 384.444 109.715 382.124 109.738 379.787C109.749 378.705 108.068 378.705 108.057 379.787L108.051 379.781Z" fill="black"></path><path d="M43.3355 382.494C43.3243 385.817 42.9264 389.123 42.96 392.446C42.9712 393.528 44.6524 393.528 44.6412 392.446C44.6076 389.123 45.0055 385.817 45.0167 382.494C45.0167 381.412 43.3411 381.412 43.3355 382.494Z" fill="black"></path><path d="M159.188 469.071C157.753 473.38 159.322 477.964 158.213 482.302C158.762 482.375 159.311 482.453 159.866 482.526C159.9 478.973 158.611 475.179 159.76 471.705C160.908 468.23 164.332 467.003 167.516 466.409C171.181 465.731 175.025 465.742 178.74 465.77C183.313 465.804 187.881 466.078 192.448 466.358C197.66 466.678 202.871 467.009 208.094 467.025C209.176 467.025 209.176 465.35 208.094 465.344C198.472 465.316 188.901 464.201 179.278 464.094C175.322 464.05 171.265 464.061 167.359 464.739C164.024 465.316 160.494 466.678 158.773 469.794C156.593 473.739 158.224 478.317 158.185 482.526C158.174 483.468 159.597 483.675 159.838 482.75C160.948 478.402 159.39 473.801 160.813 469.519C161.155 468.488 159.535 468.051 159.194 469.071H159.188Z" fill="black"></path><path d="M59.0492 397.445C57.1382 396.801 55.0479 396.65 53.0417 396.672C51.0242 396.694 48.9787 396.913 47.0285 397.423C45.9806 397.692 46.4233 399.317 47.4769 399.043C49.2926 398.572 51.1699 398.376 53.0473 398.353C54.9246 398.331 56.8244 398.465 58.6065 399.065C59.632 399.412 60.0748 397.787 59.0548 397.445H59.0492Z" fill="black"></path><path d="M153.04 423.443C152.323 425.404 152.205 427.606 152.222 429.674C152.239 431.742 152.413 433.939 152.945 435.979L154.565 435.53C153.382 432.073 151.695 428.486 151.561 424.782C151.505 423.308 151.919 421.705 153.517 421.274C155.114 420.842 156.918 421.341 158.493 421.649C163.604 422.641 168.956 422.266 174.112 421.862C179.99 421.397 185.841 420.786 191.747 420.876C194.656 420.921 197.559 421.05 200.462 421.195C202.076 421.274 203.908 421.162 205.455 421.459C205.623 421.492 206.027 421.616 206.027 421.616C206.273 421.733 206.29 421.728 206.441 421.918C206.665 422.198 206.845 422.759 206.94 423.258C207.265 424.933 207.248 426.721 207.405 428.425C207.584 430.397 207.797 432.409 207.635 434.393C207.517 435.867 206.867 436.713 205.517 437.318C203.914 438.035 202.07 438.26 200.338 438.4C198.478 438.545 196.612 438.551 194.746 438.506C183.252 438.226 171.775 435.715 160.264 437.077C158.857 437.245 157.456 437.464 156.072 437.744C155.013 437.957 155.461 439.577 156.52 439.364C168.563 436.937 180.792 439.593 192.885 440.126C195.071 440.221 197.273 440.266 199.459 440.143C201.42 440.036 203.443 439.829 205.309 439.196C206.845 438.674 208.403 437.8 208.991 436.197C209.613 434.488 209.389 432.387 209.271 430.61C209.137 428.677 208.935 426.755 208.806 424.821C208.711 423.42 208.61 421.655 207.523 420.618C206.593 419.733 205.186 419.71 203.981 419.665C201.409 419.57 198.842 419.43 196.27 419.329C193.176 419.211 190.077 419.127 186.984 419.234C183.907 419.34 180.836 419.609 177.771 419.878C174.706 420.147 171.64 420.411 168.563 420.517C165.795 420.613 162.903 420.708 160.163 420.254C156.997 419.733 152.082 418.102 150.362 421.991C149.594 423.723 149.88 425.712 150.255 427.511C150.692 429.596 151.393 431.624 152.11 433.625C152.39 434.41 152.682 435.194 152.951 435.984C153.298 436.999 154.845 436.595 154.57 435.536C154.077 433.631 153.92 431.641 153.909 429.68C153.898 427.718 153.993 425.723 154.665 423.896C155.041 422.877 153.416 422.439 153.046 423.448L153.04 423.443Z" fill="black"></path><path d="M207.237 440.714C206.189 443.141 205.903 445.831 205.819 448.448C205.73 451.227 205.898 454.013 206.183 456.775C206.396 458.871 206.705 461.135 208.089 462.822C209.148 464.111 210.717 464.627 212.32 464.834C214.36 465.097 216.439 465.013 218.49 465.114C222.077 465.288 225.658 465.647 229.227 466.039C236.462 466.829 243.703 467.782 250.993 467.804C255.079 467.815 259.125 467.451 263.171 466.896C267.212 466.342 271.235 465.652 275.298 465.26C276.363 465.159 276.374 463.472 275.298 463.579C268.366 464.246 261.529 465.77 254.558 466.056C247.541 466.347 240.536 465.619 233.57 464.84C227.372 464.145 221.197 463.5 214.965 463.327C213.486 463.287 211.788 463.31 210.443 462.592C208.997 461.825 208.453 460.233 208.145 458.709C207.585 455.912 207.495 452.914 207.489 450.073C207.484 447.232 207.568 444.178 208.7 441.555C209.126 440.574 207.674 439.717 207.248 440.709L207.237 440.714Z" fill="black"></path><path d="M206.212 441.555C206.234 441.516 206.122 441.577 206.189 441.577C206.357 441.572 206.172 441.549 206.402 441.488C206.682 441.415 206.895 441.398 207.282 441.398C208.167 441.392 209.058 441.51 209.933 441.656C212.146 442.02 214.326 442.552 216.512 443.034C217.38 443.225 218.255 443.415 219.14 443.55C220.474 443.752 221.836 443.746 223.186 443.763C227.019 443.808 230.847 443.589 234.68 443.561C242.369 443.505 249.951 444.749 257.561 445.685C260.117 445.999 262.678 446.055 265.233 446.335C267.156 446.542 269.857 446.873 271.101 448.571C271.846 449.585 272.093 451.014 272.261 452.231C272.468 453.721 272.496 455.234 272.507 456.736C272.53 459.774 272.306 462.873 272.832 465.882C273.017 466.947 274.637 466.493 274.452 465.434C273.981 462.721 274.2 459.886 274.189 457.145C274.177 454.405 274.189 451.508 273.174 448.963C272.25 446.654 270.221 445.584 267.89 445.063C265.401 444.508 262.835 444.491 260.307 444.301C256.648 444.026 253 443.399 249.363 442.933C245.401 442.429 241.422 441.981 237.426 441.891C233.43 441.801 229.395 442.031 225.377 442.076C222.659 442.104 220.126 442.087 217.526 441.532C215.027 441 212.544 440.361 210.017 439.974C208.56 439.75 205.724 439.123 204.766 440.703C204.2 441.628 205.657 442.474 206.217 441.549L206.212 441.555Z" fill="black"></path><path d="M117.186 472.349C121.08 471.553 125.205 471.71 129.156 471.833C133.684 471.974 138.156 472.321 142.678 471.884C147.313 471.441 151.908 470.606 156.532 470.068C159.39 469.738 163.576 469.284 164.859 472.601C165.7 474.77 165.677 477.241 165.638 479.528C165.599 481.971 165.408 484.431 165.627 486.869L166.468 486.028C162.864 485.956 159.384 486.897 155.898 487.67C154.167 488.052 152.418 488.388 150.642 488.5C148.787 488.618 146.932 488.528 145.088 488.349C141.345 487.99 137.64 487.25 133.874 487.144C130.221 487.037 126.578 487.379 122.941 487.665C118.822 487.99 114.647 488.259 110.534 487.659C109.474 487.502 109.02 489.122 110.085 489.279C117.483 490.36 124.858 488.836 132.272 488.802C136.043 488.786 139.736 489.402 143.474 489.85C147.212 490.299 150.877 490.36 154.587 489.654C158.532 488.903 162.405 487.626 166.468 487.71C166.893 487.721 167.347 487.317 167.308 486.869C166.91 482.403 167.88 477.835 166.854 473.419C166.445 471.654 165.605 470.018 163.974 469.104C162.5 468.28 160.74 468.129 159.087 468.18C157.17 468.236 155.265 468.538 153.371 468.785C150.743 469.127 148.12 469.547 145.492 469.883C142.863 470.219 140.33 470.455 137.736 470.472C135.46 470.488 133.191 470.309 130.921 470.214C126.242 470.023 121.361 469.788 116.743 470.729C115.684 470.948 116.132 472.568 117.191 472.349H117.186Z" fill="black"></path><path d="M110.584 470.522C109.732 471.447 109.486 472.73 109.351 473.941C109.172 475.588 109.267 477.258 109.396 478.906C109.648 482.089 110.287 485.283 110.298 488.483C110.298 489.565 111.985 489.565 111.98 488.483C111.974 485.463 111.385 482.448 111.122 479.444C110.982 477.858 110.881 476.255 110.971 474.669C111.027 473.694 111.156 472.383 111.767 471.721C112.501 470.926 111.313 469.738 110.578 470.533L110.584 470.522Z" fill="black"></path><path d="M241.394 256.067C250.915 256.067 260.358 254.609 269.896 255.091C274.06 255.299 278.229 255.596 282.376 255.091C283.878 254.912 285.436 254.694 286.949 254.862C287.465 254.918 288.081 255.019 288.49 255.36C288.742 255.568 288.838 255.842 288.927 256.123C289.258 257.148 289.297 258.269 289.297 259.339C289.297 260.729 289.191 262.119 289.006 263.492C288.821 264.865 288.557 266.21 288.193 267.532C287.941 268.446 287.655 269.404 287.128 270.206C287.072 270.29 287.061 270.329 286.904 270.469C286.697 270.654 286.45 270.8 286.204 270.928C285.582 271.259 284.898 271.455 284.22 271.623C282.623 272.01 280.981 272.156 279.344 272.251C275.197 272.492 271.034 272.626 266.881 272.666C262.033 272.711 257.197 272.374 252.35 272.436C247.429 272.498 242.503 272.722 237.583 272.643C236.373 272.621 235.168 272.582 233.963 272.52L234.775 273.136C234.03 269.712 232.304 266.462 232.82 262.87C232.887 262.416 232.707 261.973 232.231 261.833C231.839 261.721 231.262 261.973 231.194 262.422C230.914 264.355 231.066 266.232 231.57 268.115C232.074 269.998 232.741 271.724 233.15 273.585C233.229 273.955 233.604 274.184 233.963 274.201C239.068 274.459 244.179 274.285 249.29 274.173C251.89 274.117 254.49 274.072 257.091 274.117C259.624 274.162 262.151 274.325 264.684 274.347C269.229 274.381 273.774 274.179 278.313 273.983C280.017 273.91 281.72 273.787 283.402 273.501C284.887 273.249 286.49 272.867 287.717 271.96C288.535 271.354 288.95 270.463 289.308 269.533C289.774 268.323 290.076 267.045 290.323 265.778C290.855 262.999 291.208 260.034 290.849 257.21C290.721 256.201 290.519 255.086 289.807 254.312C288.866 253.281 287.257 253.141 285.952 253.136C284.382 253.13 282.824 253.371 281.267 253.545C279.176 253.78 277.041 253.718 274.94 253.646C272.435 253.562 269.935 253.377 267.43 253.304C264.942 253.231 262.448 253.287 259.966 253.405C255.034 253.646 250.114 254.133 245.182 254.312C243.916 254.357 242.655 254.385 241.388 254.38C240.307 254.38 240.307 256.061 241.388 256.061L241.394 256.067Z" fill="black"></path><path d="M261.294 277.182C262.375 279.088 262.622 281.733 262.471 283.874C262.409 284.754 262.263 285.942 261.568 286.569C260.823 287.247 259.556 287.404 258.609 287.556C256.088 287.953 253.51 287.864 250.965 288.049C247.093 288.335 243.198 288.318 239.32 288.049C234.966 287.741 230.634 287.102 226.392 286.071C225.338 285.813 224.89 287.438 225.943 287.69C234.002 289.646 242.447 290.33 250.719 289.747C253.555 289.545 256.418 289.618 259.226 289.147C260.38 288.951 261.658 288.665 262.588 287.903C263.519 287.141 263.866 285.986 264.04 284.882C264.281 283.302 264.18 281.699 263.928 280.125C263.72 278.83 263.395 277.485 262.745 276.336C262.213 275.395 260.756 276.241 261.294 277.182Z" fill="black"></path><path d="M228.011 264.478C224.57 264.652 221.202 265.521 217.75 265.56C214.203 265.599 210.639 265.694 207.097 265.498C206.626 265.47 206.284 265.907 206.256 266.339C206.06 269.595 206.643 272.806 207.035 276.028C207.164 277.087 208.845 277.104 208.716 276.028C208.324 272.812 207.741 269.595 207.937 266.339L207.097 267.179C210.639 267.376 214.203 267.28 217.75 267.241C221.202 267.202 224.57 266.339 228.011 266.16C229.087 266.103 229.093 264.422 228.011 264.478Z" fill="black"></path><path d="M214.416 469.446C214.091 469.054 213.525 468.931 213.104 469.261C212.74 469.547 212.701 470.007 212.69 470.438C212.656 471.777 212.651 473.117 212.617 474.462C212.544 477.695 212.354 480.957 211.625 484.112L212.662 483.524C210.51 483.053 208.307 483.081 206.122 483.143C203.757 483.21 201.414 483.109 199.055 483.086C194.045 483.042 189.046 483.456 184.036 483.468C182.955 483.468 182.955 485.154 184.036 485.149C188.951 485.132 193.86 484.74 198.775 484.762C201.061 484.773 203.331 484.902 205.617 484.835C207.814 484.773 210.05 484.667 212.213 485.138C212.645 485.233 213.138 485.014 213.25 484.549C213.85 481.966 214.096 479.309 214.231 476.67C214.298 475.364 214.304 474.053 214.354 472.741C214.377 472.209 214.405 471.682 214.393 471.155C214.393 470.937 214.382 470.718 214.382 470.505C214.382 469.99 214.483 470.438 214.091 470.623L213.441 470.707C213.166 470.505 213.099 470.477 213.239 470.629C213.923 471.464 215.111 470.27 214.427 469.441L214.416 469.446Z" fill="black"></path><path d="M274.458 169.193C274.441 175.508 274.172 181.914 275.511 188.129L276.548 187.092C272.384 185.394 267.665 186.033 263.328 186.548C258.57 187.109 253.79 187.142 249.021 187.535C246.286 187.759 243.546 188.089 240.867 188.706C239.813 188.947 240.262 190.566 241.315 190.325C246 189.255 250.836 189.048 255.617 188.835C257.853 188.739 260.072 188.611 262.291 188.353C264.499 188.095 266.707 187.804 268.932 187.72C271.37 187.624 273.819 187.787 276.1 188.717C276.738 188.975 277.254 188.241 277.136 187.68C275.831 181.622 276.128 175.351 276.144 169.193C276.144 168.111 274.469 168.111 274.463 169.193H274.458Z" fill="black"></path><path d="M255.796 163.936C249.34 165.684 242.526 163.689 235.997 164.956C234.45 165.253 232.988 165.774 231.581 166.48C230.724 166.912 229.777 167.354 229.093 168.055C227.759 169.417 228.454 171.423 228.835 173.037C229.289 174.959 229.726 176.881 230.354 178.759C230.998 180.692 231.789 182.575 232.663 184.413C233.128 185.388 234.574 184.536 234.114 183.567C232.618 180.412 231.503 177.15 230.729 173.749C230.488 172.684 230.158 171.608 230.018 170.521C229.945 169.943 229.978 169.585 230.225 169.31C230.78 168.683 231.693 168.313 232.439 167.937C233.778 167.259 235.185 166.811 236.664 166.542C239.701 165.993 242.84 166.161 245.905 166.256C249.357 166.368 252.888 166.469 256.25 165.555C257.293 165.275 256.85 163.65 255.802 163.936H255.796Z" fill="black"></path><path d="M197.335 6.01949C202.255 3.66579 207.954 3.02693 213.329 2.66267C219.23 2.25918 225.148 2.34324 231.054 2.36005C232.948 2.36005 234.831 2.36005 236.72 2.20875C238.861 2.04062 241.001 1.85008 243.153 1.75481C245.137 1.66515 247.233 1.54747 249.195 1.91733C249.536 1.98458 249.89 2.05744 250.215 2.19193C250.327 2.23677 250.59 2.40489 250.64 2.46653C250.691 2.52818 250.837 2.80838 250.904 3.00452C251.022 3.36878 251.1 3.74986 251.156 4.13093C251.784 8.54132 250.741 13.0414 250.556 17.4461L251.397 16.6055C243.91 17.0314 236.524 18.3652 229.082 19.217C225.361 19.6429 221.567 20.0408 217.818 19.9231C214.108 19.8055 210.42 19.0825 206.699 19.4132C202.737 19.7662 198.859 20.9879 194.903 19.9119C193.855 19.6261 193.412 21.2457 194.454 21.5315C198.002 22.501 201.459 21.8005 205.012 21.2905C208.7 20.7637 212.286 21.2233 215.968 21.4979C219.65 21.7725 223.668 21.4699 227.485 21.072C231.183 20.6853 234.859 20.1529 238.541 19.6485C242.812 19.0601 247.087 18.5277 251.391 18.2812C251.862 18.2531 252.21 17.9169 252.232 17.4405C252.406 13.2936 253.202 9.17458 252.916 5.00516C252.815 3.54251 252.652 1.5923 251.201 0.802128C249.615 -0.0552913 247.474 0.000748972 245.731 0.000748972C241.635 0.000748972 237.572 0.65082 233.486 0.667632C227.485 0.695652 221.488 0.549946 215.492 0.841356C209.109 1.15518 202.328 1.76042 196.489 4.55684C195.513 5.02197 196.365 6.47342 197.335 6.00829V6.01949Z" fill="black"></path><path d="M191.686 6.16521C191.266 7.90246 191.131 9.71258 191.053 11.4891C190.963 13.4617 190.98 15.4399 191.086 17.4069C191.142 18.4829 192.823 18.4885 192.767 17.4069C192.661 15.496 192.65 13.5794 192.728 11.6628C192.795 9.97036 192.913 8.25552 193.311 6.60793C193.569 5.55437 191.944 5.10604 191.691 6.1596L191.686 6.16521Z" fill="black"></path><path d="M232.147 22.7419C241.977 22.7531 251.744 21.5483 261.535 20.8982C263.788 20.7469 266.035 20.6516 268.288 20.5507C269.442 20.5003 270.619 20.3882 271.773 20.5059C271.841 20.5115 271.992 20.5283 272.177 20.5788C272.261 20.6012 272.345 20.6236 272.429 20.6516C272.564 20.6964 272.351 20.6012 272.519 20.6908C272.586 20.7301 272.653 20.7637 272.72 20.8085C272.855 20.8982 272.636 20.7301 272.754 20.8365C272.804 20.8814 272.849 20.9262 272.894 20.9767C272.95 21.0439 272.872 20.9206 272.967 21.0831C273.158 21.4082 273.219 21.5931 273.337 22.0302C273.477 22.557 273.567 23.095 273.656 23.6274C273.981 25.6504 274.25 27.6735 274.626 29.6853C275.097 32.224 275.472 34.7458 275.315 37.3349L276.156 36.4943C269.492 36.1076 263.059 38.2371 256.457 38.6966C253.022 38.9376 249.677 38.4781 246.281 38.0298C242.75 37.559 239.219 37.0715 235.666 36.7969C231.648 36.4943 227.625 36.5111 223.629 37.0547C223.175 37.1163 222.94 37.6935 223.041 38.0914C223.169 38.579 223.629 38.7415 224.077 38.6798C231.116 37.7215 238.222 38.635 245.21 39.5709C248.606 40.0248 252.008 40.5908 255.449 40.4395C258.727 40.2994 261.966 39.7054 265.194 39.1506C268.82 38.5285 272.468 37.9625 276.161 38.1755C276.632 38.2035 276.974 37.7664 277.002 37.3349C277.271 32.9077 276.06 28.5141 275.427 24.1598C275.164 22.3609 275.001 19.8334 273.017 19.0713C272.149 18.7406 271.157 18.763 270.243 18.7855C268.439 18.8303 266.629 18.9256 264.824 19.0152C259.697 19.2786 254.586 19.7494 249.475 20.1753C243.714 20.6516 237.942 21.0551 232.158 21.0495C231.077 21.0495 231.077 22.7307 232.158 22.7307L232.147 22.7419Z" fill="black"></path><path d="M221.382 25.7401C221.376 28.8616 221.37 31.9887 221.365 35.1101C221.365 36.1917 223.046 36.1917 223.046 35.1101C223.052 31.9887 223.057 28.8616 223.063 25.7401C223.063 24.6586 221.382 24.6586 221.382 25.7401Z" fill="black"></path><path d="M263.24 462.626H263.212C263.196 462.318 263.162 461.998 263.112 461.656C262.949 460.653 262.204 459.869 261.29 459.426C260.685 458.866 259.889 458.518 258.937 458.518C257.054 458.518 255.176 460.188 255.294 462.161C255.283 462.419 255.294 462.548 255.311 462.542C255.294 462.592 255.288 462.626 255.277 462.654C255.204 462.732 255.103 462.895 255.35 462.721C255.35 462.721 255.35 462.721 255.35 462.727C254.806 463.158 254.352 463.685 254.05 464.262H253.876C254.123 462.279 252.968 460.099 250.396 460.121L221.165 460.351C216.598 460.384 211.986 460.603 207.424 460.373C203.922 460.199 200.139 459.392 198.043 456.4C197.443 450.639 197.286 444.839 197.539 439.039C197.639 436.752 195.118 434.802 192.926 435.525C191.553 435.979 190.18 436.433 188.807 436.887C184.582 438.288 186.117 444.76 190.152 444.054C190.152 448.588 190.405 453.099 190.892 457.605C190.881 457.924 190.915 458.255 191.004 458.591C191.083 459.247 191.172 459.902 191.256 460.558C187.614 460.463 186.37 466.437 190.421 467.782C192.517 468.477 194.641 469.02 196.788 469.446C196.087 470.78 195.807 472.36 195.779 473.946C195.745 475.908 195.863 477.891 196.009 479.875C194.568 479.842 193.089 480.004 191.682 480.24C189.839 480.542 188 480.794 186.157 481.002C185.557 480.464 184.784 480.139 183.881 480.206C179.191 480.531 174.495 480.856 169.804 481.175C165.063 480.615 160.417 479.505 155.654 479.13C153.25 478.939 150.952 479.197 148.851 479.931C147.399 479.438 145.696 479.769 144.698 481.478C144.367 482.044 143.969 482.638 143.616 483.238C143.23 483.63 142.86 484.056 142.507 484.504C141.823 484.297 140.59 484.527 139.901 484.51C138.78 484.482 137.659 484.459 136.538 484.431C132.431 484.336 128.323 484.246 124.215 484.151C116 483.966 107.784 483.776 99.5686 483.591C98.0667 483.557 97.0019 484.381 96.4471 485.479C95.6626 485.412 94.878 485.345 94.0934 485.266C89.4309 484.801 89.4645 492.092 94.0934 492.552C100.897 493.23 107.711 493.549 114.537 493.521C116.823 493.644 119.127 493.616 121.458 493.37C121.531 493.37 121.604 493.37 121.677 493.364C121.677 493.359 121.677 493.353 121.677 493.347C122.002 493.314 122.321 493.28 122.646 493.235C123.851 493.073 124.607 492.361 124.983 491.453L128.144 491.526C132.812 491.633 137.48 491.778 142.148 491.845C144.087 491.874 145.959 491.834 147.511 490.501C147.707 490.332 147.892 490.153 148.066 489.957C152.263 489.666 156.461 489.38 160.658 489.088C161.084 490.372 162.188 491.386 163.97 491.33C169.855 491.139 175.61 490.517 181.141 488.752C183.058 488.662 184.974 488.505 186.88 488.281C188.426 488.102 196.182 486.012 196.95 487.435C198.626 490.545 203.95 489.212 203.737 485.597C203.714 485.222 203.692 484.846 203.669 484.471C203.692 484.448 203.714 484.431 203.731 484.409C205.367 484.073 206.925 482.784 207.054 480.901C207.29 477.527 207.525 474.154 207.76 470.78C210.327 470.931 212.905 471.004 215.477 471.043C213.561 474.086 216.788 478.81 220.117 476.289C222.392 474.563 225.833 475.173 228.535 475.168C231.981 475.162 235.433 475.157 238.88 475.151C245.778 475.14 252.677 475.129 259.57 475.117C262.512 475.117 263.605 472.243 262.848 470.107C263.078 469.637 263.207 469.11 263.212 468.561C263.224 466.571 263.229 464.587 263.24 462.598V462.626Z" fill="#233244"></path><path d="M265.768 270.648C265.213 269.757 264.232 269.157 262.803 269.27C258.538 269.611 254.268 269.987 249.998 270.329C249.393 269.718 248.575 269.331 247.549 269.32C246.523 269.309 245.386 269.88 244.652 270.732C241.541 270.951 238.437 271.141 235.321 271.265C226.943 271.595 217.937 270.11 209.845 272.8C206.819 273.809 206.303 277.709 208.976 279.458C210.798 280.651 212.826 281.021 214.905 281.06C212.849 281.285 210.803 281.632 208.786 282.148C206.987 282.607 206.191 283.935 206.174 285.325C205.317 284.894 204.482 284.406 203.68 283.823C200.609 281.61 197.651 285.286 198.598 288.222C196.037 289.954 196.731 294.499 200.593 294.852C211.005 295.81 221.445 295.687 231.802 294.555C234.335 294.69 236.862 294.863 239.389 295.076C242.494 295.34 246.266 295.978 248.603 293.305C248.619 293.283 248.636 293.26 248.653 293.244C250.368 293.132 252.038 291.96 252.133 289.741C252.301 285.936 252.234 282.153 251.943 278.376C252.01 278.376 252.083 278.365 252.15 278.359C256.779 278.623 261.514 279.396 265.7 276.992C268.099 275.619 267.847 271.926 265.762 270.643L265.768 270.648ZM243.688 282.966C235.949 281.918 227.952 280.623 220.106 280.752C220.42 280.724 220.734 280.696 221.042 280.674C223.098 280.522 225.155 280.371 227.212 280.214C227.974 280.78 228.966 281.066 230.132 280.848C232.799 280.338 235.472 279.833 238.157 279.407C240.124 279.262 242.096 279.116 244.063 278.97C243.985 280.304 243.862 281.638 243.693 282.971L243.688 282.966Z" fill="#233244"></path><path d="M124.731 359.831C124.607 358.267 124.49 356.709 124.366 355.146C124.008 350.5 116.717 350.461 117.081 355.146C117.221 356.928 117.356 358.704 117.496 360.487L116.263 365.665C116.207 365.911 116.173 366.147 116.162 366.376C115.77 366.376 115.383 366.376 114.991 366.371C114.173 366.371 113.5 366.584 112.968 366.948C97.4614 368.327 81.9158 369.094 66.3533 369.251C65.9106 367.727 64.4592 366.864 62.8508 366.651C62.5594 366.612 62.2736 366.584 61.9822 366.545C62.083 363.3 62.0494 360.055 61.8869 356.805C65.098 356.894 68.3091 356.995 71.5203 357.13C72.8316 357.186 73.7731 356.653 74.3503 355.863C80.5764 355.93 86.8193 355.858 92.9557 354.664C96.2117 354.031 98.7727 352.809 98.9297 349.144C99.0922 345.451 98.6663 341.629 98.543 337.936C98.3805 333.262 91.0952 333.24 91.2577 337.936C91.3642 341.012 91.7845 344.33 91.7116 347.496C91.1568 347.614 90.602 347.726 90.0472 347.821C89.0609 347.99 88.0802 348.118 87.0827 348.219C84.7682 348.455 82.4425 348.55 80.1169 348.589C75.6056 348.668 71.0943 348.488 66.5831 348.505C62.4921 348.522 58.4068 348.735 54.3607 349.346C49.9727 349.273 45.5847 349.234 41.1968 349.239C40.1712 349.239 39.3698 349.592 38.7926 350.141C36.4613 350.394 34.2701 352.893 35.7776 355.583C39.4875 362.196 46.7392 358.48 52.2535 357.147C52.3488 360.016 52.4441 362.885 52.5393 365.749C48.6894 365.592 44.8394 365.637 40.9838 365.9C34.5728 366.348 27.1194 368.859 20.9493 366.309C19.1168 365.553 16.9648 367.133 16.4661 368.853C16.113 370.081 16.4325 371.151 17.1218 371.98C15.8609 371.779 14.6055 371.51 13.3671 371.151C8.85579 369.845 6.928 376.873 11.4281 378.179C22.9107 381.502 35.3741 378.621 46.9521 377.175C48.5493 376.974 50.2417 376.806 51.8949 376.503C52.5393 376.514 53.1894 376.52 53.8339 376.525C54.5568 377.826 55.7505 378.711 57.7847 378.632C59.309 378.571 60.413 377.764 60.9903 376.559C61.4946 376.559 61.9934 376.548 62.4977 376.548C65.395 379.232 69.3515 379.764 73.2295 379.535C78.1274 379.243 82.9973 378.717 87.9009 378.509C89.8511 378.425 91.8013 378.375 93.7515 378.341C93.1239 378.918 92.6755 379.725 92.5635 380.762C92.2664 384.22 91.9694 387.672 91.678 391.13C91.6332 391.639 91.5491 392.172 91.4931 392.704C90.787 392.659 90.0809 392.693 89.4252 392.771C82.9581 393.55 76.4966 394.425 70.024 395.17C68.2979 395.248 66.5775 395.321 64.8514 395.383C50.6564 395.865 36.4501 395.562 22.2887 394.537C18.2089 394.24 17.3179 400.819 21.3192 401.693C32.8916 404.209 44.7273 404.546 56.5126 403.744C61.0743 403.436 65.6248 402.971 70.1641 402.45C70.4219 402.438 70.674 402.433 70.9318 402.416C74.9836 402.214 79.0297 401.957 83.0758 401.631C86.7633 401.334 91.1849 401.525 94.7322 400.455C97.0747 399.749 97.977 398.095 98.4029 396.145C99.7927 395.758 101.009 394.57 101.211 392.732C101.743 387.946 102.017 383.149 102.051 378.341C107.879 378.431 113.708 378.711 119.525 379.187C122.618 379.439 123.655 376.335 122.646 374.093C123.884 373.947 125.011 373.141 125.426 371.504C126.406 367.587 126.266 363.58 124.725 359.831H124.731Z" fill="#233244"></path><path d="M265.482 172.992C265.431 171.367 264.619 170.313 263.554 169.815C263.291 165.32 256.207 165.365 256.28 170C256.347 174.247 256.415 178.495 256.482 182.743C252.621 183.41 248.793 184.419 244.965 185.377L217.786 184.071C213.101 183.847 213.112 191.132 217.786 191.357C218.823 191.407 219.859 191.457 220.89 191.508C220.991 193.155 222.174 194.775 224.393 195.044C229.661 195.683 234.755 194.994 239.793 193.906C243.861 193.604 247.936 193.307 252.004 193.004C253.921 192.864 255.058 191.637 255.406 190.225C255.82 190.146 256.241 190.073 256.655 190.006C257.322 193.772 262.697 193.665 263.722 190.062C264.608 189.49 265.263 188.532 265.331 187.193C265.572 182.463 265.622 177.733 265.482 172.998V172.992Z" fill="#233244"></path><path d="M267.113 22.0639C266.317 20.1865 263.767 19.8839 262.058 20.803C259.934 19.9848 256.947 21.0664 256.863 24.0533C256.74 28.3348 257.037 32.5715 257.687 36.7857C257.575 36.7857 257.463 36.7857 257.351 36.7857C257.423 36.2365 257.418 35.6537 257.311 35.0429C256.499 30.3915 252.01 30.9575 248.563 31.8934C245.448 32.7396 242.276 33.3392 239.076 33.7315C233.505 33.569 227.929 33.7539 222.381 34.2863C218.565 34.1574 214.749 33.894 210.938 33.5914C210.815 32.6051 210.669 31.6244 210.585 30.6829C210.473 29.3828 210.361 28.0826 210.249 26.7881C220.952 27.4494 231.662 27.3093 242.36 25.4712C245.756 24.8883 245.509 20.4331 243.228 18.8135C243.206 18.7967 243.184 18.7855 243.161 18.7687C243.156 18.5558 243.139 18.3372 243.111 18.1186C242.718 15.2606 242.332 12.4025 241.939 9.54445C241.939 9.30908 241.956 9.07371 241.951 8.83274C241.945 8.33398 241.839 7.88005 241.659 7.47095C241.48 6.17642 241.306 4.87628 241.127 3.58174C240.858 1.61472 238.364 0.583578 236.644 1.03751C234.536 1.59231 233.836 3.57614 234.099 5.52074C234.262 6.72561 234.43 7.93609 234.593 9.14096C234.43 10.3907 234.368 11.6123 234.413 12.8172C234.239 14.0613 233.97 15.2886 233.595 16.4935C233.348 16.5047 233.102 16.5159 232.855 16.5271C228.495 16.7793 224.158 17.1604 219.787 17.3005C214.805 17.4574 209.817 17.4406 204.835 17.2724C204.135 16.897 203.277 16.7457 202.296 16.9754C202.027 17.0371 201.764 17.0819 201.501 17.1323C198.34 16.981 195.185 16.7681 192.03 16.4935C190.887 16.3926 190.012 16.7961 189.424 17.4518C185.641 16.9642 181.875 16.4542 178.121 15.9667C176.154 15.7089 174.495 17.8216 174.478 19.6093C174.455 21.7893 176.176 22.9998 178.121 23.2519C186.364 24.3223 194.63 25.4431 202.907 26.2109C203.109 28.6038 203.316 31.0024 203.529 33.3953C200.974 34.6394 201.058 39.3132 204.28 40.2602C204.392 40.2939 204.51 40.3219 204.622 40.3555C205.519 42.457 207.228 43.7684 210.26 43.32C212.255 43.023 214.239 42.7428 216.217 42.4794C221.518 43.0286 226.893 43.1687 232.116 43.4321C233.83 43.5162 235.545 43.5834 237.26 43.6507C237.63 45.0349 238.756 46.2061 240.639 46.2902C247.056 46.5704 253.422 46.0268 259.721 44.7715C260.248 44.665 260.691 44.4745 261.049 44.2279C261.593 44.1326 262.136 44.043 262.68 43.9421C264.468 44.5137 266.777 43.9421 267.668 41.7173C270.251 35.2446 269.808 28.3965 267.113 22.0527V22.0639Z" fill="#233244"></path><path d="M0.791575 354.126C5.61666 354.67 10.3465 355.869 15.2108 356.093C20.2432 356.323 25.2869 355.863 30.3249 355.987C35.3517 356.104 40.3842 356.11 45.4054 356.34C47.2155 356.424 49.0929 356.429 50.8413 356.951C51.4858 357.141 52.1975 357.438 52.7523 357.825C52.8532 357.898 52.9653 358.027 52.898 357.903C52.926 357.959 52.9372 358.105 52.9316 357.959C52.9372 358.071 52.9428 358.189 52.9428 358.301C52.9316 360.442 52.9709 362.588 52.814 364.729C52.6122 367.469 52.2367 370.199 52.1751 372.95C52.1527 374.032 53.8339 374.032 53.8563 372.95C53.9123 370.417 54.2374 367.912 54.4447 365.39C54.5456 364.146 54.6185 362.902 54.6241 361.658C54.6241 360.7 54.5624 359.747 54.6072 358.789C54.6577 357.657 54.4503 356.861 53.4136 356.256C51.8108 355.331 50.0624 354.984 48.241 354.821C43.3879 354.39 38.4732 354.446 33.6089 354.367C30.9974 354.322 28.3915 354.227 25.78 354.283C23.1237 354.333 20.4618 354.474 17.8055 354.468C14.9026 354.468 12.0389 354.21 9.18083 353.751C6.32277 353.291 3.61041 352.764 0.802785 352.445C-0.273192 352.322 -0.261984 354.008 0.802785 354.126H0.791575Z" fill="black"></path><path d="M51.2336 374.587C46.5374 374.105 41.8188 374.671 37.1226 374.856C32.1462 375.052 27.2202 374.491 22.2775 373.987C19.4923 373.701 16.7014 373.466 13.905 373.443C12.8234 373.438 12.8234 375.119 13.905 375.125C18.859 375.158 23.7625 375.892 28.6885 376.307C31.1599 376.514 33.6369 376.632 36.1139 376.565C38.5124 376.503 40.9053 376.318 43.3039 376.195C45.9434 376.06 48.5997 375.993 51.2336 376.262C52.3096 376.374 52.2984 374.693 51.2336 374.581V374.587Z" fill="black"></path><path d="M3.85135 358.626C3.94662 360.599 3.66642 362.543 3.15645 364.443C3.03877 364.88 3.30216 365.357 3.74488 365.48C4.1876 365.603 4.66394 365.334 4.78163 364.892C5.32522 362.863 5.63904 360.728 5.53257 358.626C5.51015 358.172 5.1627 357.786 4.69196 357.786C4.25485 357.786 3.82894 358.172 3.85135 358.626Z" fill="black"></path><path d="M33.6032 352.148C34.0796 349.228 34.2309 346.275 34.668 343.35C35.1051 340.424 35.7552 337.493 37.4476 335.061L36.5005 335.448C50.6675 338.412 64.9467 333.924 79.1921 334.988C83.2046 335.285 87.1611 336.098 90.9158 337.566C91.9245 337.958 92.3617 336.333 91.3641 335.947C77.7127 330.6 63.0077 334.523 48.8911 334.792C44.8898 334.871 40.8773 334.646 36.9544 333.828C36.5622 333.744 36.2315 333.89 36.0074 334.215C32.5048 339.242 32.9363 345.916 31.9949 351.705C31.8211 352.764 33.4407 353.218 33.6144 352.154L33.6032 352.148Z" fill="black"></path><path d="M94.1998 337.829C94.0653 340.144 94.2951 342.47 94.2391 344.79C94.1942 346.661 94.1998 349.402 92.6419 350.741C91.8181 351.447 93.0118 352.63 93.83 351.929C95.6233 350.388 95.8138 347.496 95.9035 345.311C96.0043 342.817 95.7409 340.318 95.881 337.829C95.9427 336.748 94.2615 336.753 94.1998 337.829Z" fill="black"></path><path d="M87.3238 350.87C82.5884 352.372 77.5279 352.176 72.6244 352.002C67.2949 351.812 61.9599 351.89 56.6248 351.711C53.4193 351.604 50.2138 351.419 47.0139 351.111C45.9379 351.01 45.9435 352.691 47.0139 352.792C52.6796 353.33 58.3677 353.487 64.0558 353.532C66.6673 353.549 69.2787 353.566 71.8902 353.655C74.4345 353.745 76.9843 353.84 79.5342 353.751C82.3138 353.655 85.1102 353.33 87.7665 352.49C88.792 352.165 88.3549 350.54 87.3182 350.87H87.3238Z" fill="black"></path><path d="M33.861 352.77C34.6904 352.731 35.5254 352.742 36.3492 352.77C36.7863 352.787 37.2122 352.372 37.1898 351.929C37.1674 351.459 36.82 351.105 36.3492 351.089C35.5198 351.055 34.6848 351.044 33.861 351.089C33.4239 351.111 32.998 351.459 33.0204 351.929C33.0372 352.366 33.3903 352.792 33.861 352.77Z" fill="black"></path><path d="M59.3202 357.315C59.3539 362.414 60.6764 367.705 59.3202 372.737C59.04 373.785 60.6596 374.228 60.9398 373.185C62.3408 367.985 61.0351 362.594 61.0015 357.32C60.9959 356.239 59.3146 356.239 59.3202 357.32V357.315Z" fill="black"></path><path d="M61.293 358.755C62.3689 357.965 63.7756 357.718 65.0701 357.516C66.4431 357.309 67.8329 357.231 69.2171 357.102C73.1007 356.743 76.9843 356.721 80.8791 356.777C84.858 356.833 88.8088 356.328 92.7485 355.841C96.7049 355.348 100.639 354.989 104.629 355.056C108.686 355.124 112.794 355.331 116.812 354.653L115.865 353.42C115.467 354.076 115.568 354.983 115.641 355.706C115.748 356.805 115.944 357.898 116.084 358.99C116.454 361.837 115.972 364.707 115.507 367.509C115.333 368.568 116.952 369.022 117.126 367.957C117.586 365.183 118.124 362.302 117.821 359.478C117.709 358.441 117.53 357.416 117.395 356.385C117.339 355.931 117.283 355.471 117.266 355.012C117.261 354.821 117.249 354.625 117.266 354.429C117.277 354.289 117.283 354.305 117.305 354.261C117.72 353.582 117.042 352.91 116.358 353.028C112.738 353.644 109 353.454 105.341 353.386C101.368 353.313 97.4671 353.577 93.5218 354.059C89.4981 354.552 85.4744 355.107 81.4115 355.096C77.4999 355.084 73.5995 355.028 69.699 355.37C68.0683 355.516 66.4375 355.622 64.8179 355.858C63.3272 356.076 61.6853 356.379 60.4412 357.292C59.5781 357.926 60.4187 359.388 61.2874 358.744L61.293 358.755Z" fill="black"></path><path d="M115.725 370.837C110.911 371.992 105.907 371.515 101.009 371.913C98.5039 372.121 96.1109 372.754 93.634 373.135C91.1682 373.516 88.6632 373.634 86.175 373.656C83.3001 373.684 80.4252 373.583 77.5447 373.572C76.4632 373.572 76.4632 375.248 77.5447 375.253C82.6388 375.27 87.7553 375.578 92.8214 374.928C95.3152 374.609 97.7473 373.92 100.247 373.662C102.746 373.404 105.29 373.41 107.812 373.342C110.614 373.27 113.433 373.113 116.168 372.457C117.221 372.205 116.773 370.585 115.72 370.837H115.725Z" fill="black"></path><path d="M69.7214 374.273C69.3683 374.273 69.0097 374.273 68.6566 374.273C68.4437 374.273 68.2139 374.368 68.0626 374.519C67.9785 374.598 67.9225 374.687 67.8889 374.788C67.8384 374.889 67.8104 374.996 67.816 375.113C67.8272 375.332 67.8945 375.556 68.0626 375.707C68.2307 375.859 68.4269 375.954 68.6566 375.954C69.0097 375.954 69.3683 375.954 69.7214 375.954C69.9343 375.954 70.1641 375.859 70.3154 375.707C70.3995 375.629 70.4555 375.539 70.4891 375.438C70.5396 375.337 70.5676 375.231 70.562 375.113C70.5508 374.895 70.4835 374.67 70.3154 374.519C70.1473 374.368 69.9512 374.273 69.7214 374.273Z" fill="black"></path><path d="M24.917 379.77C33.9339 380.74 42.7491 378.274 51.5923 376.962C53.7947 376.637 56.0083 376.391 58.2331 376.301C59.3259 376.256 60.4243 376.223 61.5115 376.385C62.6211 376.553 63.7027 376.85 64.7842 377.136C66.9082 377.697 68.9593 378.072 71.1672 377.999C73.5378 377.921 75.8915 377.624 78.2676 377.781C83.597 378.128 88.9153 378.638 94.2559 378.845C95.3375 378.885 95.3375 377.203 94.2559 377.164C89.5149 376.979 84.7963 376.565 80.0665 376.223C77.696 376.055 75.3983 376.06 73.0278 376.223C70.7245 376.38 68.5726 376.363 66.3197 375.802C64.2462 375.287 62.1784 374.62 60.0208 374.586C57.8632 374.553 55.5039 374.777 53.2791 375.057C48.8351 375.617 44.4471 376.542 40.0312 377.276C35.0379 378.106 29.9831 378.638 24.9282 378.094C23.8523 377.977 23.8635 379.664 24.9282 379.776L24.917 379.77Z" fill="black"></path><path d="M93.0511 379.781C93.0286 381.754 93.1856 383.721 93.292 385.694C93.3817 387.341 93.5498 389.084 93.2416 390.721C93.0735 391.617 92.754 392.469 92.0928 393.113C91.4651 393.719 90.6301 394.072 89.8175 394.341C86.8698 395.31 83.7147 395.899 80.6549 396.397C76.8722 397.014 73.0558 397.345 69.2283 397.524C64.8795 397.726 60.5196 397.72 56.1652 397.714C55.0836 397.714 55.0836 399.396 56.1652 399.396C64.2743 399.412 72.4114 399.379 80.4476 398.129C83.7259 397.619 87.1052 397.008 90.2658 395.966C92.2945 395.299 93.9533 394.156 94.6482 392.054C95.1974 390.379 95.1077 388.513 95.0349 386.775C94.9396 384.444 94.7155 382.124 94.7379 379.787C94.7491 378.705 93.0679 378.705 93.0567 379.787L93.0511 379.781Z" fill="black"></path><path d="M28.3355 382.494C28.3243 385.817 27.9264 389.123 27.96 392.446C27.9712 393.528 29.6524 393.528 29.6412 392.446C29.6076 389.123 30.0055 385.817 30.0167 382.494C30.0167 381.412 28.3411 381.412 28.3355 382.494Z" fill="black"></path><path d="M144.188 469.071C142.753 473.38 144.322 477.964 143.213 482.302C143.762 482.375 144.311 482.453 144.866 482.526C144.9 478.973 143.611 475.179 144.76 471.705C145.908 468.23 149.332 467.003 152.516 466.409C156.181 465.731 160.025 465.742 163.74 465.77C168.313 465.804 172.881 466.078 177.448 466.358C182.66 466.678 187.871 467.009 193.094 467.025C194.176 467.025 194.176 465.35 193.094 465.344C183.472 465.316 173.901 464.201 164.278 464.094C160.322 464.05 156.265 464.061 152.359 464.739C149.024 465.316 145.494 466.678 143.773 469.794C141.593 473.739 143.224 478.317 143.185 482.526C143.174 483.468 144.597 483.675 144.838 482.75C145.948 478.402 144.39 473.801 145.813 469.519C146.155 468.488 144.535 468.051 144.194 469.071H144.188Z" fill="black"></path><path d="M44.0492 397.445C42.1382 396.801 40.0479 396.65 38.0417 396.672C36.0242 396.694 33.9787 396.913 32.0285 397.423C30.9806 397.692 31.4233 399.317 32.4769 399.043C34.2926 398.572 36.1699 398.376 38.0473 398.353C39.9246 398.331 41.8244 398.465 43.6065 399.065C44.632 399.412 45.0748 397.787 44.0548 397.445H44.0492Z" fill="black"></path><path d="M138.04 423.443C137.323 425.404 137.205 427.606 137.222 429.674C137.239 431.742 137.413 433.939 137.945 435.979L139.565 435.53C138.382 432.073 136.695 428.486 136.561 424.782C136.505 423.308 136.919 421.705 138.517 421.274C140.114 420.842 141.918 421.341 143.493 421.649C148.604 422.641 153.956 422.266 159.112 421.862C164.99 421.397 170.841 420.786 176.747 420.876C179.656 420.921 182.559 421.05 185.462 421.195C187.076 421.274 188.908 421.162 190.455 421.459C190.623 421.492 191.027 421.616 191.027 421.616C191.273 421.733 191.29 421.728 191.441 421.918C191.665 422.198 191.845 422.759 191.94 423.258C192.265 424.933 192.248 426.721 192.405 428.425C192.584 430.397 192.797 432.409 192.635 434.393C192.517 435.867 191.867 436.713 190.517 437.318C188.914 438.035 187.07 438.26 185.338 438.4C183.478 438.545 181.612 438.551 179.746 438.506C168.252 438.226 156.775 435.715 145.264 437.077C143.857 437.245 142.456 437.464 141.072 437.744C140.013 437.957 140.461 439.577 141.52 439.364C153.563 436.937 165.792 439.593 177.885 440.126C180.071 440.221 182.273 440.266 184.459 440.143C186.42 440.036 188.443 439.829 190.309 439.196C191.845 438.674 193.403 437.8 193.991 436.197C194.613 434.488 194.389 432.387 194.271 430.61C194.137 428.677 193.935 426.755 193.806 424.821C193.711 423.42 193.61 421.655 192.523 420.618C191.593 419.733 190.186 419.71 188.981 419.665C186.409 419.57 183.842 419.43 181.27 419.329C178.176 419.211 175.077 419.127 171.984 419.234C168.907 419.34 165.836 419.609 162.771 419.878C159.706 420.147 156.64 420.411 153.563 420.517C150.795 420.613 147.903 420.708 145.163 420.254C141.997 419.733 137.082 418.102 135.362 421.991C134.594 423.723 134.88 425.712 135.255 427.511C135.692 429.596 136.393 431.624 137.11 433.625C137.39 434.41 137.682 435.194 137.951 435.984C138.298 436.999 139.845 436.595 139.57 435.536C139.077 433.631 138.92 431.641 138.909 429.68C138.898 427.718 138.993 425.723 139.665 423.896C140.041 422.877 138.416 422.439 138.046 423.448L138.04 423.443Z" fill="black"></path><path d="M192.237 440.714C191.189 443.141 190.903 445.831 190.819 448.448C190.73 451.227 190.898 454.013 191.183 456.775C191.396 458.871 191.705 461.135 193.089 462.822C194.148 464.111 195.717 464.627 197.32 464.834C199.36 465.097 201.439 465.013 203.49 465.114C207.077 465.288 210.658 465.647 214.227 466.039C221.462 466.829 228.703 467.782 235.993 467.804C240.079 467.815 244.125 467.451 248.171 466.896C252.212 466.342 256.235 465.652 260.298 465.26C261.363 465.159 261.374 463.472 260.298 463.579C253.366 464.246 246.529 465.77 239.558 466.056C232.541 466.347 225.536 465.619 218.57 464.84C212.372 464.145 206.197 463.5 199.965 463.327C198.486 463.287 196.788 463.31 195.443 462.592C193.997 461.825 193.453 460.233 193.145 458.709C192.585 455.912 192.495 452.914 192.489 450.073C192.484 447.232 192.568 444.178 193.7 441.555C194.126 440.574 192.674 439.717 192.248 440.709L192.237 440.714Z" fill="black"></path><path d="M191.212 441.555C191.234 441.516 191.122 441.577 191.189 441.577C191.357 441.572 191.172 441.549 191.402 441.488C191.682 441.415 191.895 441.398 192.282 441.398C193.167 441.392 194.058 441.51 194.933 441.656C197.146 442.02 199.326 442.552 201.512 443.034C202.38 443.225 203.255 443.415 204.14 443.55C205.474 443.752 206.836 443.746 208.186 443.763C212.019 443.808 215.847 443.589 219.68 443.561C227.369 443.505 234.951 444.749 242.561 445.685C245.117 445.999 247.678 446.055 250.233 446.335C252.156 446.542 254.857 446.873 256.101 448.571C256.846 449.585 257.093 451.014 257.261 452.231C257.468 453.721 257.496 455.234 257.507 456.736C257.53 459.774 257.306 462.873 257.832 465.882C258.017 466.947 259.637 466.493 259.452 465.434C258.981 462.721 259.2 459.886 259.189 457.145C259.177 454.405 259.189 451.508 258.174 448.963C257.25 446.654 255.221 445.584 252.89 445.063C250.401 444.508 247.835 444.491 245.307 444.301C241.648 444.026 238 443.399 234.363 442.933C230.401 442.429 226.422 441.981 222.426 441.891C218.43 441.801 214.395 442.031 210.377 442.076C207.659 442.104 205.126 442.087 202.526 441.532C200.027 441 197.544 440.361 195.017 439.974C193.56 439.75 190.724 439.123 189.766 440.703C189.2 441.628 190.657 442.474 191.217 441.549L191.212 441.555Z" fill="black"></path><path d="M102.186 472.349C106.08 471.553 110.205 471.71 114.156 471.833C118.684 471.974 123.156 472.321 127.678 471.884C132.313 471.441 136.908 470.606 141.532 470.068C144.39 469.738 148.576 469.284 149.859 472.601C150.7 474.77 150.677 477.241 150.638 479.528C150.599 481.971 150.408 484.431 150.627 486.869L151.468 486.028C147.864 485.956 144.384 486.897 140.898 487.67C139.167 488.052 137.418 488.388 135.642 488.5C133.787 488.618 131.932 488.528 130.088 488.349C126.345 487.99 122.64 487.25 118.874 487.144C115.221 487.037 111.578 487.379 107.941 487.665C103.822 487.99 99.6469 488.259 95.5336 487.659C94.4744 487.502 94.0205 489.122 95.0852 489.279C102.483 490.36 109.858 488.836 117.272 488.802C121.043 488.786 124.736 489.402 128.474 489.85C132.212 490.299 135.877 490.36 139.587 489.654C143.532 488.903 147.405 487.626 151.468 487.71C151.893 487.721 152.347 487.317 152.308 486.869C151.91 482.403 152.88 477.835 151.854 473.419C151.445 471.654 150.605 470.018 148.974 469.104C147.5 468.28 145.74 468.129 144.087 468.18C142.17 468.236 140.265 468.538 138.371 468.785C135.743 469.127 133.12 469.547 130.492 469.883C127.863 470.219 125.33 470.455 122.736 470.472C120.46 470.488 118.191 470.309 115.921 470.214C111.242 470.023 106.361 469.788 101.743 470.729C100.684 470.948 101.132 472.568 102.191 472.349H102.186Z" fill="black"></path><path d="M95.5841 470.522C94.7323 471.447 94.4857 472.73 94.3512 473.941C94.1719 475.588 94.2671 477.258 94.396 478.906C94.6482 482.089 95.2871 485.283 95.2983 488.483C95.2983 489.565 96.9851 489.565 96.9795 488.483C96.9739 485.463 96.3855 482.448 96.1221 479.444C95.982 477.858 95.8811 476.255 95.9708 474.669C96.0268 473.694 96.1557 472.383 96.7665 471.721C97.5007 470.926 96.3126 469.738 95.5785 470.533L95.5841 470.522Z" fill="black"></path><path d="M226.394 256.067C235.915 256.067 245.358 254.609 254.896 255.091C259.06 255.299 263.229 255.596 267.376 255.091C268.878 254.912 270.436 254.694 271.949 254.862C272.465 254.918 273.081 255.019 273.49 255.36C273.742 255.568 273.838 255.842 273.927 256.123C274.258 257.148 274.297 258.269 274.297 259.339C274.297 260.729 274.191 262.119 274.006 263.492C273.821 264.865 273.557 266.21 273.193 267.532C272.941 268.446 272.655 269.404 272.128 270.206C272.072 270.29 272.061 270.329 271.904 270.469C271.697 270.654 271.45 270.8 271.204 270.928C270.582 271.259 269.898 271.455 269.22 271.623C267.623 272.01 265.981 272.156 264.344 272.251C260.197 272.492 256.034 272.626 251.881 272.666C247.033 272.711 242.197 272.374 237.35 272.436C232.429 272.498 227.503 272.722 222.583 272.643C221.373 272.621 220.168 272.582 218.963 272.52L219.775 273.136C219.03 269.712 217.304 266.462 217.82 262.87C217.887 262.416 217.707 261.973 217.231 261.833C216.839 261.721 216.262 261.973 216.194 262.422C215.914 264.355 216.066 266.232 216.57 268.115C217.074 269.998 217.741 271.724 218.15 273.585C218.229 273.955 218.604 274.184 218.963 274.201C224.068 274.459 229.179 274.285 234.29 274.173C236.89 274.117 239.49 274.072 242.091 274.117C244.624 274.162 247.151 274.325 249.684 274.347C254.229 274.381 258.774 274.179 263.313 273.983C265.017 273.91 266.72 273.787 268.402 273.501C269.887 273.249 271.49 272.867 272.717 271.96C273.535 271.354 273.95 270.463 274.308 269.533C274.774 268.323 275.076 267.045 275.323 265.778C275.855 262.999 276.208 260.034 275.849 257.21C275.721 256.201 275.519 255.086 274.807 254.312C273.866 253.281 272.257 253.141 270.952 253.136C269.382 253.13 267.824 253.371 266.267 253.545C264.176 253.78 262.041 253.718 259.94 253.646C257.435 253.562 254.935 253.377 252.43 253.304C249.942 253.231 247.448 253.287 244.966 253.405C240.034 253.646 235.114 254.133 230.182 254.312C228.916 254.357 227.655 254.385 226.388 254.38C225.307 254.38 225.307 256.061 226.388 256.061L226.394 256.067Z" fill="black"></path><path d="M246.294 277.182C247.375 279.088 247.622 281.733 247.471 283.874C247.409 284.754 247.263 285.942 246.568 286.569C245.823 287.247 244.556 287.404 243.609 287.556C241.088 287.953 238.51 287.864 235.965 288.049C232.093 288.335 228.198 288.318 224.32 288.049C219.966 287.741 215.634 287.102 211.392 286.071C210.338 285.813 209.89 287.438 210.943 287.69C219.002 289.646 227.447 290.33 235.719 289.747C238.555 289.545 241.418 289.618 244.226 289.147C245.38 288.951 246.658 288.665 247.588 287.903C248.519 287.141 248.866 285.986 249.04 284.882C249.281 283.302 249.18 281.699 248.928 280.125C248.72 278.83 248.395 277.485 247.745 276.336C247.213 275.395 245.756 276.241 246.294 277.182Z" fill="black"></path><path d="M213.011 264.478C209.57 264.652 206.202 265.521 202.75 265.56C199.203 265.599 195.639 265.694 192.097 265.498C191.626 265.47 191.284 265.907 191.256 266.339C191.06 269.595 191.643 272.806 192.035 276.028C192.164 277.087 193.845 277.104 193.716 276.028C193.324 272.812 192.741 269.595 192.937 266.339L192.097 267.179C195.639 267.376 199.203 267.28 202.75 267.241C206.202 267.202 209.57 266.339 213.011 266.16C214.087 266.103 214.093 264.422 213.011 264.478Z" fill="black"></path><path d="M199.416 469.446C199.091 469.054 198.525 468.931 198.104 469.261C197.74 469.547 197.701 470.007 197.69 470.438C197.656 471.777 197.651 473.117 197.617 474.462C197.544 477.695 197.354 480.957 196.625 484.112L197.662 483.524C195.51 483.053 193.307 483.081 191.122 483.143C188.757 483.21 186.414 483.109 184.055 483.086C179.045 483.042 174.046 483.456 169.036 483.468C167.955 483.468 167.955 485.154 169.036 485.149C173.951 485.132 178.86 484.74 183.775 484.762C186.061 484.773 188.331 484.902 190.617 484.835C192.814 484.773 195.05 484.667 197.213 485.138C197.645 485.233 198.138 485.014 198.25 484.549C198.85 481.966 199.096 479.309 199.231 476.67C199.298 475.364 199.304 474.053 199.354 472.741C199.377 472.209 199.405 471.682 199.393 471.155C199.393 470.937 199.382 470.718 199.382 470.505C199.382 469.99 199.483 470.438 199.091 470.623L198.441 470.707C198.166 470.505 198.099 470.477 198.239 470.629C198.923 471.464 200.111 470.27 199.427 469.441L199.416 469.446Z" fill="black"></path><path d="M259.458 169.193C259.441 175.508 259.172 181.914 260.511 188.129L261.548 187.092C257.384 185.394 252.665 186.033 248.328 186.548C243.57 187.109 238.79 187.142 234.021 187.535C231.286 187.759 228.546 188.089 225.867 188.706C224.813 188.947 225.262 190.566 226.315 190.325C231 189.255 235.836 189.048 240.617 188.835C242.853 188.739 245.072 188.611 247.291 188.353C249.499 188.095 251.707 187.804 253.932 187.72C256.37 187.624 258.819 187.787 261.1 188.717C261.738 188.975 262.254 188.241 262.136 187.68C260.831 181.622 261.128 175.351 261.144 169.193C261.144 168.111 259.469 168.111 259.463 169.193H259.458Z" fill="black"></path><path d="M240.796 163.936C234.34 165.684 227.526 163.689 220.997 164.956C219.45 165.253 217.988 165.774 216.581 166.48C215.724 166.912 214.777 167.354 214.093 168.055C212.759 169.417 213.454 171.423 213.835 173.037C214.289 174.959 214.726 176.881 215.354 178.759C215.998 180.692 216.789 182.575 217.663 184.413C218.128 185.388 219.574 184.536 219.114 183.567C217.618 180.412 216.503 177.15 215.729 173.749C215.488 172.684 215.158 171.608 215.018 170.521C214.945 169.943 214.978 169.585 215.225 169.31C215.78 168.683 216.693 168.313 217.439 167.937C218.778 167.259 220.185 166.811 221.664 166.542C224.701 165.993 227.84 166.161 230.905 166.256C234.357 166.368 237.888 166.469 241.25 165.555C242.293 165.275 241.85 163.65 240.802 163.936H240.796Z" fill="black"></path><path d="M182.335 6.01949C187.255 3.66579 192.954 3.02693 198.329 2.66267C204.23 2.25918 210.148 2.34324 216.054 2.36005C217.948 2.36005 219.831 2.36005 221.72 2.20875C223.861 2.04062 226.001 1.85008 228.153 1.75481C230.137 1.66515 232.233 1.54747 234.195 1.91733C234.536 1.98458 234.89 2.05744 235.215 2.19193C235.327 2.23677 235.59 2.40489 235.64 2.46653C235.691 2.52818 235.837 2.80838 235.904 3.00452C236.022 3.36878 236.1 3.74986 236.156 4.13093C236.784 8.54132 235.741 13.0414 235.556 17.4461L236.397 16.6055C228.91 17.0314 221.524 18.3652 214.082 19.217C210.361 19.6429 206.567 20.0408 202.818 19.9231C199.108 19.8055 195.42 19.0825 191.699 19.4132C187.737 19.7662 183.859 20.9879 179.903 19.9119C178.855 19.6261 178.412 21.2457 179.454 21.5315C183.002 22.501 186.459 21.8005 190.012 21.2905C193.7 20.7637 197.286 21.2233 200.968 21.4979C204.65 21.7725 208.668 21.4699 212.485 21.072C216.183 20.6853 219.859 20.1529 223.541 19.6485C227.812 19.0601 232.087 18.5277 236.391 18.2812C236.862 18.2531 237.21 17.9169 237.232 17.4405C237.406 13.2936 238.202 9.17458 237.916 5.00516C237.815 3.54251 237.652 1.5923 236.201 0.802128C234.615 -0.0552913 232.474 0.000748972 230.731 0.000748972C226.635 0.000748972 222.572 0.65082 218.486 0.667632C212.485 0.695652 206.488 0.549946 200.492 0.841356C194.109 1.15518 187.328 1.76042 181.489 4.55684C180.513 5.02197 181.365 6.47342 182.335 6.00829V6.01949Z" fill="black"></path><path d="M176.686 6.16521C176.266 7.90246 176.131 9.71258 176.053 11.4891C175.963 13.4617 175.98 15.4399 176.086 17.4069C176.142 18.4829 177.823 18.4885 177.767 17.4069C177.661 15.496 177.65 13.5794 177.728 11.6628C177.795 9.97036 177.913 8.25552 178.311 6.60793C178.569 5.55437 176.944 5.10604 176.691 6.1596L176.686 6.16521Z" fill="black"></path><path d="M217.147 22.7419C226.977 22.7531 236.744 21.5483 246.535 20.8982C248.788 20.7469 251.035 20.6516 253.288 20.5507C254.442 20.5003 255.619 20.3882 256.773 20.5059C256.841 20.5115 256.992 20.5283 257.177 20.5788C257.261 20.6012 257.345 20.6236 257.429 20.6516C257.564 20.6964 257.351 20.6012 257.519 20.6908C257.586 20.7301 257.653 20.7637 257.72 20.8085C257.855 20.8982 257.636 20.7301 257.754 20.8365C257.804 20.8814 257.849 20.9262 257.894 20.9767C257.95 21.0439 257.872 20.9206 257.967 21.0831C258.158 21.4082 258.219 21.5931 258.337 22.0302C258.477 22.557 258.567 23.095 258.656 23.6274C258.981 25.6504 259.25 27.6735 259.626 29.6853C260.097 32.224 260.472 34.7458 260.315 37.3349L261.156 36.4943C254.492 36.1076 248.059 38.2371 241.457 38.6966C238.022 38.9376 234.677 38.4781 231.281 38.0298C227.75 37.559 224.219 37.0715 220.666 36.7969C216.648 36.4943 212.625 36.5111 208.629 37.0547C208.175 37.1163 207.94 37.6935 208.041 38.0914C208.169 38.579 208.629 38.7415 209.077 38.6798C216.116 37.7215 223.222 38.635 230.21 39.5709C233.606 40.0248 237.008 40.5908 240.449 40.4395C243.727 40.2994 246.966 39.7054 250.194 39.1506C253.82 38.5285 257.468 37.9625 261.161 38.1755C261.632 38.2035 261.974 37.7664 262.002 37.3349C262.271 32.9077 261.06 28.5141 260.427 24.1598C260.164 22.3609 260.001 19.8334 258.017 19.0713C257.149 18.7406 256.157 18.763 255.243 18.7855C253.439 18.8303 251.629 18.9256 249.824 19.0152C244.697 19.2786 239.586 19.7494 234.475 20.1753C228.714 20.6516 222.942 21.0551 217.158 21.0495C216.077 21.0495 216.077 22.7307 217.158 22.7307L217.147 22.7419Z" fill="black"></path><path d="M206.382 25.7401C206.376 28.8616 206.37 31.9887 206.365 35.1101C206.365 36.1917 208.046 36.1917 208.046 35.1101C208.052 31.9887 208.057 28.8616 208.063 25.7401C208.063 24.6586 206.382 24.6586 206.382 25.7401Z" fill="black"></path></svg> 