<?xml version="1.0" encoding="UTF-8"?> <svg xmlns="http://www.w3.org/2000/svg" width="727" height="131" viewBox="0 0 727 131" fill="none"><path d="M725.951 45.893L724.449 38.1304C724.449 38.1304 713.011 38.8531 711.577 36.7247C710.144 34.5964 708.19 16.2768 706.909 16.4067C705.627 16.5365 692.456 16.6664 692.547 18.0157C692.643 19.3593 694.065 36.5836 693.072 38.1304C692.078 39.6773 603.286 39.141 603.083 38.8474C602.88 38.5539 594.468 26.433 593.593 26.5685C592.718 26.6984 567.974 28.3751 562.56 27.2516C557.151 26.1338 556.158 22.6901 554.679 23.2829C553.2 23.8757 543.964 24.9313 543.964 24.9313C543.964 24.9313 544.235 30.001 544.483 30.3228C544.731 30.6502 516.758 30.797 516.758 30.797L381.002 39.8072C381.002 41.3766 381.12 53.249 381.12 53.249C381.12 53.249 397.091 53.2659 398.367 53.249C399.637 53.2321 398.508 50.4093 398.508 50.4093L543.958 52.0465C543.958 52.0465 541.971 57.4266 544.477 57.0202C546.657 56.6702 555.881 54.0789 558.258 53.4071C558.427 53.6837 558.597 53.9603 558.766 54.237C559.195 54.937 559.912 55.4507 560.708 55.6653C561.51 57.4041 562.537 58.9904 563.915 60.3566C564.654 61.0849 565.478 61.8075 566.365 62.1914C566.461 62.4737 566.608 62.7334 566.822 62.9479C566.958 63.0495 567.087 63.1512 567.223 63.2584C567.533 63.4391 567.861 63.5294 568.222 63.5294C568.284 63.5294 568.352 63.5294 568.414 63.5294C568.685 63.5407 568.939 63.4842 569.176 63.36C569.419 63.281 569.634 63.1455 569.814 62.9536C570.006 62.7729 570.142 62.564 570.221 62.3156C570.345 62.0785 570.401 61.8245 570.39 61.5535C570.367 61.3785 570.345 61.2035 570.317 61.0285C570.249 60.7913 570.13 60.5825 569.989 60.3905C569.967 59.8711 569.758 59.3461 569.419 59.0074C568.911 58.4993 568.296 58.3694 567.703 58.4936C567.059 58.1098 566.359 57.2347 565.947 56.7435C565.258 55.925 564.654 54.9652 564.236 53.9773C564.643 53.1022 564.626 52.0635 564.135 51.1037C563.915 50.6803 563.7 50.2625 563.48 49.8391C590.375 49.9633 720.847 50.5448 724.06 50.2117C727.644 49.8391 725.951 45.8873 725.951 45.8873V45.893Z" fill="#878787"></path><path d="M4.14989 41.5627C4.14989 41.5627 2.20221 87.1046 2.20221 87.6692C2.20221 88.2337 2.76676 112.509 2.76676 115.332C2.76676 118.155 4.4604 117.026 8.41222 117.59C12.364 118.155 30.9941 115.897 30.9941 115.897C30.9941 115.897 33.6644 115.112 33.4555 113.243C33.2466 111.374 34.9459 110.251 35.5105 110.251C36.075 110.251 59.786 109.122 60.3505 109.122C60.915 109.122 160.145 71.0094 160.495 71.1505C160.845 71.2917 173.429 65.7704 173.429 65.7704C173.429 65.7704 172.018 51.668 172.074 51.8826C172.131 52.0971 144.575 52.5262 144.575 52.5262C144.575 52.5262 142.419 60.458 143.164 60.2322C143.903 60.0064 155.2 61.6041 155.2 61.6041C155.2 61.6041 153.049 62.7953 153.275 63.0945C153.501 63.3937 76.1578 91.621 76.1578 91.621C76.1578 91.621 52.4694 100.541 51.6113 100.88C50.7532 101.218 35.4258 100.885 34.6185 100.49C33.8168 100.089 32.6877 98.9601 32.1232 98.9601C31.5586 98.9601 26.0995 98.9996 26.0091 98.7004C25.9188 98.4012 25.3543 71.5401 25.3543 71.5401C25.3543 71.5401 62.5071 71.7828 63.1224 71.5401C63.7378 71.2973 64.4604 73.1152 65.7927 72.4885C67.1251 71.8619 69.0558 71.0094 68.9372 70.5917C68.8187 70.1739 72.7705 63.3598 72.7705 63.0945C72.7705 62.8291 141.081 62.2646 141.081 62.2646L145.947 57.353C145.947 57.353 165.356 63.9582 167.05 63.9582C168.743 63.9582 173.824 65.6519 173.824 67.9101C173.824 70.1682 173.847 69.4005 174.4 70.0666C174.953 70.7328 176.083 70.9021 176.083 70.9021C176.083 70.9021 174.389 73.5555 176.083 75.2492C177.776 76.9428 183.986 83.1528 183.986 84.8465C183.986 86.5401 179.955 92.146 178.301 103.736C176.647 115.332 176.647 124.929 176.647 125.494C176.647 126.058 179.075 130.451 188.023 129.948C196.971 129.446 199.229 128.317 199.229 128.317C199.229 128.317 202.052 125.494 202.052 124.929C202.052 124.365 199.325 119.481 200.973 116.28C202.616 113.074 203.745 111.945 203.181 111.945C202.616 111.945 200.358 106.864 201.487 104.606C202.616 102.347 204.874 101.783 204.874 101.783C204.874 101.783 202.616 100.089 204.31 94.4437C206.004 88.7983 208.595 86.1393 212.101 85.778C215.601 85.411 219.157 82.7633 219.073 82.3963C218.988 82.0293 217.294 72.9966 218.424 72.4321C219.553 71.8675 224.763 67.9157 226.389 68.198C228.015 68.4803 229.681 67.9157 229.415 68.198C229.15 68.4803 310.383 65.6801 310.383 65.6801C310.383 65.6801 346.892 62.4509 348.71 63.2074C350.527 63.9639 373.296 64.5566 373.482 64.2574C373.668 63.9582 373.29 58.8547 373.482 58.5838C373.674 58.3128 377.693 58.5047 379.353 57.5619C381.013 56.6191 381.002 52.1028 381.007 52.1028C381.013 52.1028 381.244 49.5962 381.244 49.5962L381.007 39.8069L440.29 39.1182L516.504 36.86L516.854 31.271L515.94 17.6654C515.94 17.6654 515.375 5.24539 513.681 4.68084C511.988 4.1163 473.034 5.80994 472.469 5.80994C471.905 5.80994 408.676 5.24539 408.676 5.24539C408.676 5.24539 364.167 3.78322 363.839 3.94694C363.512 4.11066 362.947 1.85811 362.383 1.85811C361.818 1.85811 348.557 0.384646 348.41 0.836284C348.264 1.28792 348.41 3.94694 348.41 3.94694H340.1L338.599 23.5028H257.806C257.806 23.5028 255.684 14.2781 255.119 14.8427C254.555 15.4072 195.277 15.4072 193.583 15.4072C191.89 15.4072 191.325 17.6654 191.325 18.23C191.325 18.7945 190.366 24.9424 190.366 24.9424C190.366 24.9424 156.905 25.4731 156.611 25.8005C156.318 26.128 148.962 34.4324 148.973 33.9526C148.984 33.4727 145.174 28.0531 145.174 28.0531C145.174 28.0531 93.0716 26.8167 92.5184 27.0369C91.9651 27.2571 73.4875 29.9443 73.4875 29.9443C73.4875 29.9443 76.5756 44.0467 76.3667 43.8378C76.1578 43.6289 69.7897 49.1445 69.7897 49.1445L67.1815 48.6195C67.1815 48.6195 35.4427 49.0881 34.6298 48.6195C33.8168 48.1509 30.8642 41.8788 30.0852 41.9127C29.3061 41.9466 11.7261 41.1731 11.2011 40.9925C10.6761 40.8118 3.90149 42.5055 3.90149 41.9409L4.15554 41.5627H4.14989Z" fill="#4C4C4C"></path><path opacity="0.35" d="M73.7416 45.9664C73.7416 45.9664 77.1402 45.1816 76.3668 43.8437C75.5933 42.5057 75.1135 34.8674 75.1135 34.8674C75.1135 34.8674 144.756 35.1666 145.179 35.4489C145.603 35.7311 151.35 46.6608 151.581 46.5591C151.813 46.4575 152.835 44.1993 152.835 44.1993C152.835 44.1993 149.442 33.1681 149.78 33.6028C150.119 34.0375 153.292 29.3969 152.835 30.0236C152.377 30.6502 151.751 33.7157 152.626 34.1617C153.506 34.602 157.944 35.4489 157.944 35.4489L162.539 31.2148L337.549 27.2629C337.549 27.2629 340.789 32.756 338.604 33.9585C336.419 35.1666 336.244 36.911 336.244 36.911C336.244 36.911 159.152 42.5057 158.587 42.5057C158.023 42.5057 154.794 46.8132 154.794 46.8132L336.386 39.9709C336.386 39.9709 336.278 36.561 338.61 35.861C340.941 35.1666 347.411 35.4206 347.564 36.1433C347.716 36.8659 347.439 40.9814 348.422 40.6145C349.404 40.2475 379.771 39.9709 379.771 39.9709C379.771 39.9709 380.821 53.0401 380.358 53.1361C379.895 53.2321 373.363 54.587 373.527 53.9095C373.691 53.2321 373.527 45.9946 373.527 45.9946C373.527 45.9946 365.595 45.5034 365.973 45.9777C366.352 46.4519 367.024 57.9348 366.967 57.5565C366.911 57.1783 348.597 54.5814 348.721 53.9039C348.845 53.2264 348.422 45.0179 348.422 45.0179H341.421L341.839 53.9039L193.053 59.2727C193.053 59.2727 192.466 53.791 191.337 54.3555C190.208 54.9201 179.967 55.0782 180.006 55.5637C180.046 56.0492 180.006 61.4067 180.006 61.4067L171.561 62.0503C171.561 62.0503 170.99 55.0782 169.873 55.5637C168.755 56.0492 143.7 57.0146 143.7 57.0146C143.7 57.0146 143.559 52.4643 143.17 53.1248C142.78 53.7853 68.8752 56.8508 68.5704 57.0146C68.2655 57.1783 66.8767 61.8358 67.5711 62.0446C68.2655 62.2535 72.7762 64.4835 72.2173 64.2182C71.6584 63.9528 68.4688 71.2072 68.0849 71.529C67.701 71.8508 64.4548 72.4775 64.4548 72.4775C64.4548 72.4775 26.6754 70.5298 26.0205 70.908C25.3656 71.2863 27.6182 97.82 27.0536 97.82C26.4891 97.82 11.506 99.2031 11.0939 97.3853C10.6818 95.5674 10.3769 52.5716 11.0939 53.1813C11.8109 53.791 33.4725 54.3781 33.4725 54.3781L32.7951 58.1719H57.1552C57.1552 58.1719 59.4868 51.4368 60.774 51.1997C62.0612 50.9626 70.6761 52.0917 70.6761 52.0917L73.7529 45.9551L73.7416 45.9664Z" fill="black"></path><path opacity="0.35" d="M3.33137 109.122C5.58956 109.122 27.6916 110.251 27.652 108.558C27.6125 106.864 29.7352 105.131 30.0852 104.307C30.4352 103.482 46.0167 104.572 46.9765 104.307C47.9362 104.041 104.955 85.9757 105.52 85.9757C106.084 85.9757 172.136 64.5229 172.701 64.5229C173.266 64.5229 177.217 66.2166 177.217 66.7811C177.217 67.3457 179.961 66.99 180.001 66.8884C180.04 66.7868 180.695 67.7747 180.695 67.7747C180.695 67.7747 193.708 67.0747 193.934 67.7747C194.159 68.4748 185.234 74.1202 186.871 74.6848C188.508 75.2493 193.64 84.7619 193.047 85.6539C192.454 86.5459 186.25 102.912 184.556 111.38C182.863 119.849 182.863 127.752 182.863 127.752C182.863 127.752 176.371 125.212 176.653 125.494C176.935 125.776 177.725 106.378 178.742 101.117C179.758 95.8553 183.145 86.258 183.992 84.8466C184.839 83.4353 175.806 77.2252 176.088 75.2493C176.371 73.2734 176.365 70.7894 176.088 70.9023C175.812 71.0152 172.752 71.0209 173.435 69.3272C174.118 67.6336 173.887 67.1424 173.435 66.8207C172.983 66.4989 160.919 70.0273 160.919 70.0273C160.919 70.0273 60.0231 107.711 58.3577 108.558C56.6923 109.404 35.0871 110.771 33.4669 112.346C31.8466 113.921 32.7442 116.196 30.3223 117.037C27.9004 117.878 3.06039 117.314 2.49584 116.749C1.9313 116.185 3.34266 109.128 3.34266 109.128L3.33137 109.122Z" fill="black"></path><path opacity="0.35" d="M210.52 82.5887C210.656 82.3628 210.78 82.0749 210.893 81.7362C212.185 77.8465 212.078 67.2556 212.953 65.6748C213.907 63.9586 348.388 56.2977 348.896 57.0203C349.404 57.743 373.03 61.4125 373.03 61.4125C373.03 61.4125 376.113 63.4223 373.482 64.2522C370.851 65.0877 346 62.7957 346 62.7957C346 62.7957 226.028 67.5379 225.187 68.1476C224.346 68.7573 218.305 70.7275 219.067 72.28C219.829 73.8325 219.57 83.0008 218.288 83.4976C217.007 83.9944 207.409 85.688 207.409 85.688L210.514 82.583L210.52 82.5887Z" fill="black"></path><path opacity="0.35" d="M201.679 87.263C200.064 90.7294 200.285 95.0538 200.719 98.9153C199.641 100.231 198.597 101.574 197.626 102.969C196.88 104.041 195.683 105.419 195.373 106.706C194.893 108.682 196.875 111.07 198.247 112.888C198.263 113.063 198.309 113.232 198.376 113.396C197.326 115.078 196.271 117.003 196.028 118.816C195.904 119.764 196.265 120.464 196.638 121.316C197.253 122.722 197.772 124.1 198.241 125.562C199.043 128.04 202.413 126.979 202.052 124.512C202.023 124.309 201.995 124.105 201.961 123.908C201.882 123.383 201.651 123.027 201.346 122.796C200.838 121.683 200.273 120.537 200.087 119.51C199.805 117.997 201.86 115.265 202.718 113.943C203.44 112.826 202.853 111.759 201.933 111.29C201.035 110.122 199.522 108.332 199.522 107.287C199.522 106.858 200.798 105.323 201.035 104.973C201.617 104.137 202.232 103.33 202.865 102.534C203.948 102.664 205.055 102.054 204.88 100.677C204.462 97.3515 203.621 92.423 205.089 89.2672C206.156 86.9751 202.752 84.9653 201.679 87.2743V87.263Z" fill="black"></path><path opacity="0.35" d="M339.542 19.156C343.753 18.7947 347.033 18.9528 346.525 19.156C346.017 19.3593 346.576 4.39312 346.576 4.39312C346.576 4.39312 349.777 3.21887 349.873 3.95278C349.969 4.68669 349.873 21.544 349.873 21.544H360.3C360.3 21.544 359.905 1.48008 360.3 1.67202C360.695 1.86397 363.416 2.54706 363.416 2.54706L364.523 4.04311L370.196 5.01978L371.608 21.544L515.381 19.9295C515.381 19.9295 516.651 28.0646 516.86 28.5162C517.069 28.9678 516.86 34.5681 516.86 34.5681H544.438C544.438 34.5681 544.336 44.0582 543.969 43.8493C543.603 43.6404 399.107 43.4936 399.378 43.8493C399.649 44.205 399.175 49.602 398.565 49.4439C397.955 49.2859 382.148 48.1568 382.148 48.1568C382.148 48.1568 381.691 43.6969 381.07 43.9509C380.449 44.205 374.318 44.0582 373.996 43.8493C373.674 43.6404 373.42 40.8798 372.138 41.4104C370.857 41.9411 366.341 42.5113 366.341 42.5113L366.425 49.602L350.533 48.1568L348.416 40.6201L347.558 33.9359L339.547 34.3536V19.1617L339.542 19.156Z" fill="black"></path><path opacity="0.35" d="M543.885 47.2987C546.425 47.0221 557.152 47.0221 556.587 46.4576C556.022 45.893 556.085 26.2524 556.085 26.2524C556.085 26.2524 560.262 27.342 560.115 27.5848C559.969 27.8275 560.872 33.1117 561.549 32.4455C562.227 31.7794 593.26 32.4455 593.26 32.4455C593.26 32.4455 599.334 38.2716 597.714 38.1305C596.094 37.9894 568.019 38.8475 568.019 38.8475L568.73 43.8437L725.618 44.1994L723.123 49.8448H559.494C559.494 49.8448 559.827 53.5539 558.766 54.237C557.705 54.9201 543.286 57.1783 543.439 56.6138C543.591 56.0492 543.873 47.2931 543.873 47.2931L543.885 47.2987Z" fill="black"></path><path opacity="0.35" d="M59.2385 48.8456C49.8444 49.8956 40.3544 49.9182 30.949 48.9246C30.7176 47.931 30.4861 46.9318 30.2264 45.9438C29.9216 44.7808 29.1707 44.0526 27.9456 43.9905C26.7036 43.9227 25.4221 44.0582 24.1745 44.0977L20.2396 44.2219C17.7104 44.301 15.1756 44.4308 12.6464 44.4252C10.1681 44.4195 7.72358 44.1824 5.4033 43.2848C4.8331 43.0646 4.16694 43.5276 4.01452 44.0752C3.87903 44.5776 4.0879 45.0067 4.4605 45.2776C4.3984 45.4188 4.35889 45.5825 4.36453 45.7688C4.48873 52.7127 4.55648 59.6566 4.59035 66.6006C4.03145 66.6119 3.48384 66.9732 3.48948 67.6901C3.55158 77.6487 3.60804 87.6074 3.67014 97.566C3.68708 100.253 3.74918 102.952 4.36453 105.582C4.6581 106.847 6.56061 106.537 6.5832 105.283C6.5832 105.176 6.5832 105.074 6.5832 104.967C6.67352 104.995 6.7695 105.018 6.87676 105.024C10.8455 105.278 14.8199 105.351 18.7943 105.238C20.2452 105.199 20.2509 102.94 18.7943 102.98C14.8199 103.093 10.8455 103.019 6.87676 102.765C6.78079 102.76 6.69611 102.765 6.61708 102.777C6.87112 88.1493 6.93886 73.5163 6.79773 58.8889C6.75821 54.6096 6.69611 50.3303 6.62272 46.0454C10.4786 47.0277 14.6167 46.6664 18.5516 46.5422L25.8568 46.3108C26.4778 46.2882 27.1214 46.2317 27.7424 46.2543C27.8892 46.2543 27.9569 46.2825 27.9739 46.2769C28.0247 46.3898 28.0416 46.5366 28.0698 46.6495C28.3803 47.852 28.6513 49.0658 28.9392 50.2739C29.0634 50.7989 29.5377 51.0473 30.0288 51.1038C39.7277 52.199 49.5339 52.2046 59.2328 51.1151C59.8369 51.0473 60.3619 50.6465 60.3619 49.986C60.3619 49.4271 59.8425 48.7891 59.2328 48.8569L59.2385 48.8456Z" fill="white"></path><path opacity="0.35" d="M139.229 28.7758C123.518 30.221 107.739 30.8364 91.9651 30.5993C87.4826 30.5315 83.0058 30.3961 78.5289 30.1928C77.078 30.1251 77.078 32.3833 78.5289 32.451C94.2854 33.1623 110.081 33.0381 125.827 32.0671C130.298 31.7905 134.763 31.4461 139.229 31.034C139.839 30.9775 140.358 30.5541 140.358 29.9049C140.358 29.3403 139.839 28.7193 139.229 28.7758Z" fill="white"></path><path opacity="0.35" d="M334.133 23.0514C311.139 23.853 288.134 24.5136 265.128 25.0273C242.242 25.541 219.349 25.9136 196.457 26.1451C183.546 26.2749 170.629 26.3596 157.718 26.4048C156.267 26.4048 156.261 28.6686 157.718 28.663C180.729 28.5896 203.74 28.375 226.745 28.0137C249.637 27.6581 272.524 27.1613 295.411 26.5233C308.322 26.162 321.227 25.7556 334.133 25.3096C335.584 25.2588 335.589 23.0006 334.133 23.0514Z" fill="white"></path><path opacity="0.35" d="M191.715 61.1076C191.563 59.8995 191.337 58.6801 191.303 57.4607C191.286 56.8735 190.795 56.3033 190.174 56.3316C189.575 56.3598 189.028 56.8284 189.045 57.4607C189.067 58.2284 189.163 58.9962 189.271 59.764C186.549 59.9334 183.823 60.0576 181.102 60.114C179.651 60.1423 179.645 62.4005 181.102 62.3722C183.93 62.3158 186.753 62.1859 189.57 62.0053C189.688 62.9198 189.801 63.84 189.92 64.7546C189.993 65.3361 190.388 65.9119 191.049 65.8837C191.597 65.8611 192.257 65.3813 192.178 64.7546C192.026 63.5352 191.868 62.3214 191.715 61.102V61.1076Z" fill="white"></path><path opacity="0.35" d="M255.887 58.4541C248.559 58.7759 241.231 59.0977 233.903 59.4195C226.751 59.7356 219.581 59.9163 212.445 60.4582C208.42 60.7631 204.4 61.243 200.443 62.0672C199.02 62.3664 199.624 64.5399 201.041 64.2464C207.957 62.8011 215.031 62.5019 222.065 62.197L243.625 61.2542C247.712 61.0736 251.799 60.8986 255.887 60.7179C257.332 60.6558 257.343 58.3977 255.887 58.4598V58.4541Z" fill="white"></path><path opacity="0.35" d="M141.662 54.6773C141.527 54.4402 141.256 54.2201 140.985 54.158C140.443 54.0338 139.698 54.3217 139.596 54.9483C139.539 55.2927 139.46 55.6258 139.364 55.9589C139.336 56.0548 139.302 56.1508 139.268 56.2411C130.795 56.2129 122.321 56.1903 113.847 56.1621C105.277 56.1339 96.6904 56.0492 88.1657 57.1162C83.5139 57.6977 78.7265 58.5163 74.0747 57.4775C72.6576 57.1613 72.0536 59.3405 73.4762 59.6566C77.6765 60.5938 81.9388 60.1704 86.1616 59.6341C90.486 59.0808 94.8048 58.6856 99.1575 58.5388C107.868 58.2396 116.608 58.4316 125.319 58.4598C129.519 58.4711 133.719 58.488 137.925 58.4993C137.648 58.9397 137.637 59.5494 138.049 59.9276C138.478 60.3172 139.229 60.4018 139.647 59.9276C140.081 59.4365 140.46 58.8945 140.781 58.3243C141.092 58.1098 141.244 57.7485 141.244 57.3815C141.487 56.7944 141.668 56.1847 141.769 55.558C141.82 55.2475 141.82 54.9653 141.657 54.6886L141.662 54.6773Z" fill="white"></path><path opacity="0.35" d="M344.876 14.2616C344.724 13.793 344.334 13.4825 343.871 13.443C343.838 12.1445 343.821 10.8404 343.815 9.54197C343.815 8.9492 343.296 8.38465 342.686 8.41288C342.076 8.44111 341.557 8.90968 341.557 9.54197C341.557 11.0098 341.585 12.4776 341.63 13.9398C341.342 14.0132 341.06 14.0866 340.772 14.1543C340.202 14.3011 339.801 14.9729 339.982 15.5431C340.174 16.1359 340.755 16.4859 341.37 16.3335L341.709 16.2488C341.72 16.4464 341.72 16.644 341.732 16.8416C341.76 17.4287 342.229 17.9989 342.861 17.9707C343.448 17.9424 344.018 17.4739 343.99 16.8416C343.973 16.4577 343.962 16.0681 343.95 15.6842C343.996 15.673 344.041 15.6617 344.086 15.6504C344.656 15.5036 345.057 14.8318 344.876 14.2616Z" fill="white"></path><path opacity="0.35" d="M358.121 14.4195C357.923 13.8154 357.347 13.4936 356.732 13.6291C356.467 13.6912 356.201 13.742 355.93 13.7928C355.817 13.8154 355.699 13.8323 355.586 13.8493C355.586 13.8493 355.439 13.8718 355.383 13.8775C354.897 13.9452 354.4 13.9791 353.909 14.0017C352.899 14.0412 351.882 13.9904 350.883 13.8549C350.296 13.7759 349.731 14.4307 349.754 14.984C349.782 15.6615 350.251 16.0284 350.883 16.1131C353.034 16.401 355.219 16.2768 357.33 15.8026C357.906 15.6728 358.301 14.9727 358.121 14.4138V14.4195Z" fill="white"></path><path opacity="0.35" d="M510.718 13.5162C510.531 12.5395 510.232 11.5911 509.842 10.6653C509.741 10.4225 509.408 10.2136 509.165 10.1459C508.894 10.0725 508.533 10.1064 508.296 10.2588C508.053 10.4169 507.844 10.6483 507.776 10.9362C507.703 11.2524 507.765 11.5121 507.889 11.8056C507.765 11.5121 507.906 11.8564 507.929 11.9129C507.957 11.9863 507.985 12.0653 508.013 12.1387C508.081 12.3194 508.138 12.4944 508.194 12.675C508.273 12.9291 508.335 13.1944 508.397 13.4541C504.575 13.9961 500.686 13.8662 496.835 13.742C492.432 13.6009 488.028 13.4767 483.625 13.3807C474.716 13.1831 465.802 13.0702 456.894 13.0589C439.167 13.0251 421.434 13.3581 403.719 14.0582C394.139 14.4364 384.564 14.9219 375 15.5091L375.181 10.5693C375.204 9.95957 374.645 9.44019 374.052 9.44019C373.42 9.44019 372.946 9.95957 372.923 10.5693L372.612 19.0262C372.59 19.6359 373.149 20.1553 373.742 20.1553C374.374 20.1553 374.848 19.6359 374.871 19.0262L374.916 17.7672C392.377 16.6946 409.856 15.9663 427.345 15.5994C445.162 15.2268 462.991 15.2155 480.808 15.5768C485.776 15.6784 490.75 15.8083 495.718 15.9663C500.048 16.1018 504.389 16.2712 508.691 15.6784C508.719 16.2599 509.205 16.8075 509.814 16.7793C510.413 16.7511 510.96 16.2825 510.943 15.6502C510.943 15.4639 510.926 15.2832 510.915 15.1026C511.288 14.6679 511.158 13.9283 510.706 13.5219L510.718 13.5162Z" fill="white"></path><path opacity="0.35" d="M556.102 37.3063C552.658 36.9168 549.186 37.1087 545.799 37.8257C545.2 37.9499 544.856 38.6499 545.008 39.2145C545.178 39.8298 545.799 40.129 546.397 40.0048C549.587 39.3274 552.861 39.1975 556.102 39.5645C556.706 39.6322 557.231 38.9943 557.231 38.4354C557.231 37.7692 556.711 37.374 556.102 37.3063Z" fill="white"></path><path opacity="0.35" d="M654.88 40.2813C643.996 40.4281 633.111 40.5749 622.227 40.7217C611.387 40.8685 600.554 41.0153 589.715 41.162C583.567 41.2467 577.424 41.3258 571.276 41.4104C569.826 41.4274 569.82 43.6856 571.276 43.6686C582.161 43.5218 593.045 43.3751 603.93 43.2283L636.442 42.7879C642.59 42.7033 648.732 42.6242 654.88 42.5395C656.331 42.5226 656.337 40.2644 654.88 40.2813Z" fill="white"></path><path opacity="0.35" d="M718.109 40.9364C704.402 40.8065 690.695 40.9025 676.993 41.2243C673.143 41.3146 669.299 41.4219 665.448 41.5517C663.997 41.5969 663.992 43.8551 665.448 43.8099C679.15 43.3583 692.857 43.1324 706.564 43.1381C710.414 43.1381 714.265 43.1607 718.109 43.1946C719.56 43.2058 719.566 40.9477 718.109 40.9364Z" fill="white"></path><path opacity="0.35" d="M707.197 19.3198C707.09 19.3085 706.977 19.3086 706.869 19.2973C707.078 18.6537 706.734 17.773 705.842 17.7109C701.687 17.4173 697.521 17.2818 693.36 17.3101C691.909 17.3213 691.903 19.5795 693.36 19.5682C693.953 19.5682 694.551 19.5682 695.144 19.5739C694.89 19.7715 694.726 20.065 694.726 20.4264C694.726 21.0022 695.245 21.6006 695.855 21.5555C699.632 21.2619 703.42 21.2675 707.197 21.578C707.807 21.6288 708.326 21.0248 708.326 20.4489C708.326 19.7941 707.807 19.3706 707.197 19.3198Z" fill="white"></path><path d="M176.562 70.4734C175.45 71.9299 174.88 73.7308 175.501 75.5204C176.083 77.2027 177.37 78.5407 178.668 79.7093C179.899 80.8158 181.412 81.7078 182.479 82.9837C183.591 84.3047 182.947 85.7387 182.293 87.1275C181.497 88.8155 180.797 90.4583 180.255 92.2479C179.639 94.2859 179.165 96.3635 178.787 98.4636C178.008 102.805 177.635 107.197 177.234 111.584C177.008 114.085 176.743 116.574 176.416 119.064C176.088 121.554 175.783 124.1 175.834 126.64C175.84 127.035 176.094 127.329 176.455 127.459C177.946 127.978 179.295 128.757 180.718 129.423C182.101 130.073 183.529 130.456 185.065 130.479C187.125 130.507 189.231 130.191 191.28 130.005C193.465 129.807 195.65 129.559 197.801 129.113C198.433 128.983 198.614 128.119 198.173 127.696C197.914 127.442 197.614 127.244 197.315 127.047C196.406 126.437 195.559 127.905 196.463 128.509C196.649 128.633 196.818 128.74 196.976 128.898L197.349 127.481C195.3 127.905 193.228 128.136 191.145 128.322C189.141 128.503 187.074 128.814 185.059 128.785C182.067 128.746 179.634 126.787 176.896 125.827L177.517 126.646C177.426 122.225 178.329 117.833 178.747 113.447C179.165 109.06 179.464 104.775 180.147 100.485C180.774 96.5102 181.615 92.3608 183.388 88.7251C184.043 87.3815 184.895 85.846 184.81 84.2991C184.72 82.6337 183.422 81.4143 182.202 80.4376C180.729 79.2633 179.171 78.1117 178.008 76.61C177.466 75.9099 176.991 75.08 176.924 74.1824C176.845 73.1041 177.381 72.1613 178.013 71.3315C178.674 70.4677 177.206 69.6209 176.551 70.479L176.562 70.4734Z" fill="black"></path><path d="M218.474 71.687C217.915 72.2459 217.808 73.1097 217.724 73.8549C217.605 74.9332 217.628 76.0228 217.661 77.1067C217.724 79.2012 218 81.3126 217.904 83.407L218.525 82.5884C215.093 83.3111 212.084 85.0611 208.821 86.2523C207.579 86.704 206.133 87.1387 205.275 88.2169C204.474 89.2218 204.174 90.6332 203.858 91.8526C203.463 93.3713 203.011 94.873 202.989 96.4537C202.978 97.3118 203.074 98.1812 203.254 99.0224C203.401 99.6772 203.723 100.27 203.915 100.908C203.943 101.01 204.022 101.179 204.005 101.286C203.994 101.405 203.982 101.354 204.039 101.281C203.937 101.41 203.599 101.506 203.441 101.574C202.853 101.828 202.294 102.026 201.798 102.432C200.781 103.262 200.048 104.425 199.822 105.724C199.314 108.67 201.019 111.629 203.09 113.593V112.396C202.294 113.243 201.402 113.994 200.731 114.948C200.002 115.981 199.72 117.223 199.748 118.471C199.805 120.972 200.55 123.772 202.035 125.816L202.769 124.54C200.781 124.737 199.652 126.262 198.907 127.972C198.839 128.125 198.631 128.576 198.636 128.571C198.794 128.452 198.439 128.593 198.427 128.599C198.218 128.65 198.004 128.695 197.789 128.729C196.609 128.909 195.418 128.893 194.244 129.118C193.177 129.327 193.629 130.959 194.696 130.75C195.785 130.541 196.903 130.552 197.998 130.394C198.681 130.298 199.494 130.197 199.963 129.621C200.392 129.09 200.561 128.345 200.9 127.752C201.312 127.035 201.888 126.313 202.774 126.228C203.345 126.171 203.92 125.528 203.508 124.952C202.221 123.179 201.555 120.82 201.459 118.646C201.414 117.607 201.589 116.648 202.204 115.789C202.819 114.931 203.61 114.316 204.299 113.582C204.603 113.255 204.637 112.707 204.299 112.385C202.695 110.867 201.194 108.586 201.448 106.277C201.566 105.187 202.227 104.041 203.198 103.499C204.056 103.019 205.388 102.878 205.659 101.749C205.93 100.62 205.049 99.4063 204.835 98.2941C204.519 96.6287 204.756 95.048 205.191 93.4334C205.507 92.2591 205.733 91.0228 206.224 89.905C206.715 88.7872 207.889 88.3694 209.001 87.9686C212.349 86.7548 215.448 84.9426 218.966 84.2087C219.338 84.1296 219.57 83.7514 219.587 83.3901C219.671 81.465 219.434 79.5229 219.361 77.5978C219.321 76.5647 219.293 75.5316 219.355 74.4985C219.378 74.1259 219.406 73.7533 219.485 73.3863C219.507 73.2791 219.581 73.025 219.587 73.0024C219.609 72.929 219.699 72.8331 219.666 72.8669C220.439 72.0992 219.242 70.8967 218.469 71.6701L218.474 71.687Z" fill="black"></path><path d="M5.5161 42.8219C10.5744 41.371 15.7852 41.9299 20.9621 42.1388C23.4461 42.2404 25.9358 42.3759 28.4198 42.4097C28.9956 42.4154 29.6505 42.342 30.1699 42.5396C30.5368 42.6751 30.836 43.2058 31.0618 43.6517C31.7732 45.0688 31.8635 46.9713 33.0208 48.1286C34.4886 49.6021 36.9218 49.5738 38.8469 49.5061C44.0859 49.3198 49.3306 49.4214 54.5752 49.4327C56.7374 49.4327 58.894 49.269 61.0505 49.2521C63.0265 49.2351 65.3185 49.2012 67.1251 50.1214C68.0961 50.6126 68.9542 49.1561 67.9775 48.6593C66.3234 47.8181 64.4096 47.6374 62.5861 47.5753C60.5537 47.5076 58.5214 47.6374 56.4947 47.7052C51.2895 47.8858 46.0731 47.5641 40.8624 47.7165C39.722 47.7504 38.5872 47.8463 37.4469 47.8181C36.4702 47.7955 35.3411 47.7221 34.5056 47.1576C33.9128 46.7567 33.7209 46.1075 33.5233 45.4526C33.2466 44.5381 32.9474 43.6404 32.5184 42.7823C31.8635 41.4726 30.9546 40.8008 29.4868 40.7217C27.2342 40.6032 24.9704 40.575 22.7122 40.4959C16.824 40.2927 10.8172 39.5193 5.05882 41.1734C4.01441 41.4726 4.4604 43.1098 5.51046 42.8049L5.5161 42.8219Z" fill="black"></path><path d="M3.43856 40.9984C2.52399 43.8494 3.12805 46.9431 3.1337 49.8731C3.1337 53.5539 3.21274 57.2461 2.89659 60.9156C2.27559 68.2321 1.02795 75.4922 0.988428 82.8483C0.94891 90.2043 1.20295 97.5603 1.20295 104.916C1.20295 108.4 1.457 111.866 1.61507 115.344C1.66588 116.467 1.98767 117.314 2.92482 117.986C3.86197 118.652 5.01364 118.72 6.13145 118.736C9.6147 118.776 13.1375 118.398 16.6038 118.155C20.7193 117.867 24.8349 117.528 28.9448 117.122L28.719 115.456C28.3859 115.507 28.0979 115.637 27.81 115.806C26.8729 116.36 27.7197 117.822 28.6625 117.269C28.8544 117.156 28.9504 117.122 29.1706 117.088C30.1077 116.947 29.8932 115.332 28.9448 115.423C22.0573 116.094 15.1585 116.574 8.25414 116.969C7.17021 117.032 6.04676 117.116 4.96283 116.975C4.16682 116.873 3.41598 116.501 3.32565 115.637C3.17322 114.192 3.17322 112.701 3.08854 111.251C2.98692 109.467 2.90223 107.677 2.89659 105.887C2.86272 98.7628 2.699 91.6382 2.68207 84.5136C2.66513 77.3665 3.61921 70.3266 4.36441 63.2302C4.77653 59.2784 4.83863 55.3435 4.82734 51.3748C4.82734 49.6586 4.75395 47.9536 4.6862 46.243C4.61846 44.6397 4.57894 42.9913 5.07574 41.4501C5.40882 40.4113 3.77728 39.9653 3.4442 40.9984H3.43856Z" fill="black"></path><path d="M13.4706 69.2708C13.4537 78.5294 13.6739 87.7823 13.4142 97.0408C13.3859 98.1304 15.0796 98.1304 15.1078 97.0408C15.3675 87.7879 15.1473 78.5294 15.1643 69.2708C15.1643 68.1812 13.4706 68.1812 13.4706 69.2708Z" fill="black"></path><path d="M23.8809 70.2982C25.6197 78.6535 25.1172 87.291 25.0947 95.7705C25.0947 96.8601 26.7883 96.8601 26.7883 95.7705C26.8109 87.1329 27.2851 78.3599 25.5124 69.8522C25.2922 68.7852 23.6551 69.2368 23.8809 70.3038V70.2982Z" fill="black"></path><path d="M23.6946 71.4049C29.6844 72.4437 35.7928 72.7429 41.8673 72.6638C46.9144 72.5961 51.9501 71.992 56.9972 72.0654C59.3852 72.0993 62.0273 72.1952 64.2347 73.2171C65.217 73.6744 66.0808 72.2122 65.0872 71.7549C63.0717 70.8178 60.8248 70.5468 58.6287 70.4226C56.1052 70.2871 53.576 70.3943 51.0582 70.5411C45.5143 70.8629 39.9987 71.1113 34.4436 70.846C30.9942 70.6823 27.5504 70.3605 24.1462 69.7733C23.0792 69.587 22.622 71.2186 23.6946 71.4049Z" fill="black"></path><path d="M63.5967 51.211C63.5911 58.2226 64.0822 65.223 64.0709 72.2347C64.0709 73.3243 65.7646 73.3243 65.7646 72.2347C65.7702 65.223 65.2791 58.2226 65.2904 51.211C65.2904 50.1214 63.5967 50.1214 63.5967 51.211Z" fill="black"></path><path d="M65.1436 73.5672C66.0977 73.2736 67.1026 73.0535 67.9945 72.5906C68.9148 72.1107 69.5866 71.309 70.1059 70.4227C71.427 68.1645 72.2286 65.6071 73.0247 63.1288C73.3577 62.09 71.7205 61.644 71.3931 62.6771C70.6705 64.9297 69.9479 67.233 68.7962 69.3105C68.3897 70.0445 67.9324 70.7106 67.1929 71.1058C66.4533 71.501 65.5275 71.6816 64.7032 71.9357C63.6645 72.2518 64.1048 73.889 65.1549 73.5672H65.1436Z" fill="black"></path><path d="M13.7416 99.7055C17.8177 99.903 21.888 100.597 25.9584 100.027C27.3641 99.8297 28.7642 99.6151 30.1869 99.5587C30.9885 99.5304 32.716 99.4006 33.2524 100.106C33.9016 100.964 35.3751 100.118 34.7145 99.2538C33.8847 98.1642 32.541 97.9158 31.2369 97.865C29.628 97.8029 28.0134 98.04 26.4214 98.2659C24.8293 98.4917 23.1865 98.6102 21.5098 98.5538C18.9129 98.4635 16.3329 98.1417 13.7416 98.0118C12.6521 97.961 12.6577 99.6546 13.7416 99.7055Z" fill="black"></path><path d="M33.8902 99.203C32.9869 98.5425 31.7901 98.2828 30.8812 99.0845C30.0682 99.7958 29.7634 100.976 29.5714 101.998C29.0407 104.899 29.1819 107.948 29.419 110.878C29.5037 111.962 29.5884 113.063 29.7972 114.13C29.8593 114.457 30.2715 114.79 30.6158 114.751C31.3949 114.66 32.174 114.728 32.9474 114.564L32.4958 112.933C32.0441 113.08 31.6151 113.266 31.186 113.475C30.2094 113.96 31.0675 115.417 32.0385 114.937C32.3321 114.79 32.6256 114.666 32.9418 114.564C33.9805 114.22 33.5571 112.701 32.4901 112.933C31.8748 113.063 31.2368 112.984 30.6102 113.063L31.4288 113.684C31.4062 113.571 31.3893 113.452 31.3723 113.339C31.361 113.26 31.3497 113.187 31.3385 113.108C31.3667 113.305 31.3385 113.068 31.3215 112.995C31.2651 112.526 31.2143 112.052 31.1691 111.578C31.0505 110.285 30.9715 108.992 30.9376 107.694C30.9037 106.328 30.915 104.95 31.0449 103.59C31.0957 103.036 31.1747 102.489 31.3046 101.941C31.4175 101.467 31.5417 101.032 31.7223 100.727C31.7788 100.631 31.8296 100.535 31.8974 100.451C31.7844 100.603 31.9651 100.383 32.0046 100.349C32.1401 100.242 31.9086 100.372 32.1006 100.287C32.1796 100.253 31.9707 100.287 32.1966 100.264C32.0611 100.276 32.1796 100.236 32.3038 100.276C32.095 100.214 32.3829 100.298 32.445 100.321C32.5805 100.372 32.4732 100.321 32.6426 100.417C32.778 100.496 32.9079 100.581 33.0377 100.676C33.9184 101.32 34.7653 99.8466 33.8902 99.2143V99.203Z" fill="black"></path><path d="M30.74 117.009C31.7506 116.574 32.9248 116.134 33.512 115.135C34.0201 114.277 33.9128 113.232 34.3475 112.374C34.4548 112.165 34.5394 112.131 34.8048 112.019C35.1209 111.877 35.4653 111.798 35.7984 111.719C36.6621 111.516 37.5485 111.392 38.4292 111.296C43.0584 110.782 47.6934 110.743 52.3452 110.613C54.7333 110.545 57.2681 110.568 59.5884 109.918C60.4973 109.664 61.3949 109.365 62.2926 109.072C65.5161 108.005 68.7171 106.864 71.9181 105.718C76.5699 104.053 81.2105 102.353 85.8454 100.643C91.4119 98.588 96.967 96.5161 102.522 94.4329C108.489 92.1917 114.445 89.9391 120.401 87.6753C126.25 85.4453 132.087 83.2097 137.925 80.9459C143.136 78.9248 148.346 76.8981 153.54 74.8375C157.605 73.2285 161.664 71.6026 165.701 69.9316C168.156 68.9154 170.635 67.9162 173.023 66.7419C173.299 66.6064 173.576 66.4653 173.847 66.3129C174.79 65.7709 173.943 64.3087 172.994 64.8507C171.182 65.8894 169.178 66.6516 167.259 67.4645C167.078 67.5436 167.298 67.4476 167.112 67.5266C167.027 67.5605 166.948 67.5944 166.864 67.6282C166.655 67.7129 166.451 67.8033 166.243 67.8879C165.847 68.0517 165.452 68.221 165.051 68.3847C164.154 68.7573 163.262 69.1243 162.364 69.4912C160.326 70.3211 158.282 71.1454 156.239 71.9583C151.259 73.9455 146.269 75.8989 141.278 77.8465C135.542 80.0765 129.801 82.2895 124.054 84.4856C118.081 86.7664 112.102 89.0358 106.118 91.2884C100.428 93.4337 94.7314 95.562 89.0295 97.6734C84.1348 99.4856 79.2402 101.287 74.3343 103.059C70.7607 104.352 67.1815 105.634 63.5854 106.859C61.8804 107.44 60.119 108.163 58.3351 108.49C55.9809 108.919 53.5082 108.908 51.1258 108.959C48.2523 109.015 45.3731 109.01 42.5052 109.252C40.8511 109.393 39.1857 109.506 37.5372 109.721C36.1766 109.901 34.1612 110.02 33.1676 111.115C32.5184 111.827 32.5071 112.86 32.253 113.74C31.9425 114.83 30.8304 115.152 29.8706 115.564C28.9109 115.976 29.7352 117.449 30.7231 117.026L30.74 117.009Z" fill="black"></path><path d="M155.431 60.9156C154.139 62.231 152.405 63.027 150.819 63.936C150.599 64.0602 150.379 64.1787 150.147 64.2973C149.436 64.6529 148.708 64.9634 147.979 65.2796C147.923 65.3022 147.867 65.3304 147.81 65.353C147.613 65.4377 147.979 65.2796 147.782 65.3643C147.68 65.4038 147.584 65.449 147.483 65.4885C147.206 65.6014 146.929 65.7199 146.653 65.8329C146.083 66.0643 145.512 66.2958 144.937 66.5216C143.599 67.0523 142.255 67.5717 140.906 68.091C133.409 70.9589 125.855 73.6857 118.301 76.4068C109.201 79.6812 100.078 82.916 90.9602 86.1509C82.8082 89.0414 74.6561 91.9206 66.5154 94.8393C61.7845 96.5329 57.0028 98.1531 52.3622 100.073C52.0856 100.185 51.8033 100.304 51.5267 100.428C50.5331 100.874 51.3968 102.336 52.3791 101.89C52.4808 101.845 52.588 101.8 52.6953 101.755C52.9211 101.659 52.5259 101.823 52.7122 101.749C52.78 101.721 52.8477 101.693 52.9155 101.665C53.2429 101.529 53.576 101.399 53.9091 101.269C54.8236 100.908 55.7438 100.564 56.6697 100.219C59.3964 99.2032 62.1345 98.2096 64.8782 97.2273C72.7762 94.3876 80.6855 91.5931 88.5948 88.7873C97.7517 85.5412 106.914 82.295 116.06 79.015C123.885 76.2092 131.709 73.3865 139.483 70.4452C142.142 69.4403 144.801 68.4241 147.432 67.3402C149.092 66.6571 150.712 65.9514 152.27 65.0651C153.8 64.2013 155.386 63.394 156.628 62.1238C157.39 61.3447 156.194 60.1479 155.431 60.9269V60.9156Z" fill="black"></path><path d="M33.6813 102.049C37.0404 100.998 40.6196 101.388 44.0803 101.461C45.4634 101.49 46.8466 101.433 48.2241 101.461C49.2064 101.484 50.629 101.405 51.4533 101.992C52.3452 102.624 53.1921 101.157 52.3057 100.53C51.3234 99.8299 49.8274 99.8299 48.6757 99.7791C47.1909 99.717 45.7005 99.7847 44.2158 99.7621C40.5575 99.7057 36.7863 99.2935 33.2297 100.406C32.1909 100.727 32.6369 102.365 33.6813 102.037V102.049Z" fill="black"></path><path d="M50.8097 100.784C50.6912 101.258 50.8831 101.732 51.3404 101.936C51.6565 102.071 51.9953 102.015 52.3114 101.902C53.0171 101.648 53.6663 101.258 54.3325 100.925C55.2583 100.462 56.235 100.095 57.1778 99.6775C58.2617 99.1976 59.3287 98.6952 60.3675 98.1307C61.3272 97.6113 60.4691 96.1491 59.515 96.6685C57.844 97.5774 56.0882 98.3282 54.3438 99.0734C53.7849 99.3162 53.2486 99.5815 52.7066 99.8638C52.4413 99.9993 52.1816 100.135 51.9106 100.253C51.7807 100.31 52.0178 100.214 51.8993 100.253C51.8485 100.27 51.792 100.287 51.7412 100.31C51.7073 100.327 51.6678 100.321 51.634 100.338C51.7751 100.327 51.8146 100.321 51.7525 100.321C51.4928 100.327 51.6961 100.445 52.3566 100.677L52.4695 101.106C52.4638 101.027 52.4526 101.066 52.4469 101.23C52.7122 100.174 51.0807 99.7227 50.8154 100.778L50.8097 100.784Z" fill="black"></path><path d="M72.9795 29.9444C72.94 32.4849 73.9053 34.8277 74.4812 37.2609C75.057 39.6941 74.9723 42.2289 75.5482 44.6678L76.1409 43.6234C74.0352 44.1145 72.5109 45.9098 70.9415 47.2703C69.1011 48.868 66.7356 49.9858 64.5339 50.9964C63.5459 51.448 64.404 52.9102 65.3863 52.4585C67.5542 51.4649 69.8124 50.3528 71.681 48.8511C73.1997 47.626 74.6054 45.7178 76.5926 45.2549C77.0499 45.1476 77.287 44.6452 77.1854 44.2105C76.6321 41.8563 76.6998 39.4119 76.1748 37.0521C75.6498 34.6922 74.6392 32.4058 74.6788 29.9388C74.6957 28.8492 73.0021 28.8492 72.9851 29.9388L72.9795 29.9444Z" fill="black"></path><path d="M72.2738 30.0122C78.3145 30.0009 84.2083 28.454 90.2208 28.0702C96.3348 27.675 102.522 27.9008 108.642 28.025C114.852 28.1548 121.045 28.9283 127.261 28.6178C130.213 28.471 133.155 28.2226 136.113 28.1831C137.592 28.1605 139.077 28.1831 140.55 28.2677C141.871 28.3468 143.271 28.392 144.553 28.7533C146.506 29.3009 146.963 31.2316 147.629 32.9196C148.792 35.8496 150.097 38.7627 151.886 41.3709L152.191 40.2136C150.74 40.97 150.051 42.5225 150.576 44.092C150.921 45.1195 152.558 44.6791 152.208 43.6404C151.926 42.7935 152.208 42.1104 153.043 41.6701C153.427 41.4668 153.597 40.8741 153.348 40.5128C151.694 38.1022 150.469 35.4375 149.374 32.739C148.708 31.0961 148.239 29.1372 146.777 27.9911C145.992 27.3758 145.044 27.0766 144.067 26.9298C142.645 26.7152 141.205 26.5967 139.771 26.5346C136.762 26.4047 133.753 26.5346 130.75 26.7096C127.65 26.8959 124.579 27.054 121.474 26.9524C118.25 26.8507 115.038 26.6023 111.82 26.4499C108.665 26.2975 105.509 26.3144 102.353 26.2636C99.214 26.2128 96.0695 26.1563 92.9306 26.2523C89.4473 26.3596 86.0092 26.7548 82.5655 27.2798C79.15 27.7992 75.7345 28.3186 72.2682 28.3242C71.1786 28.3242 71.1786 30.0178 72.2682 30.0178L72.2738 30.0122Z" fill="black"></path><path d="M155.494 25.9815C154.156 27.3872 152.62 28.5897 151.282 30.0011C150.097 31.2487 148.747 32.8238 148.719 34.6416C148.691 36.4595 150.192 38.2773 151.141 39.7847C151.717 40.7049 152.14 41.6646 152.541 42.6751C153.038 43.9228 153.506 45.2156 153.653 46.5592C153.772 47.6319 155.465 47.6431 155.347 46.5592C155.098 44.2784 154.235 41.8791 153.156 39.8581C152.705 39.0112 152.146 38.2265 151.638 37.4192C151.175 36.6853 150.576 35.8441 150.435 34.9634C150.198 33.4617 151.751 31.9488 152.688 30.989C153.975 29.668 155.426 28.5163 156.696 27.184C157.447 26.3936 156.25 25.1968 155.499 25.9871L155.494 25.9815Z" fill="black"></path><path d="M156.385 26.6194C160.445 27.8726 165.034 27.0767 169.172 26.6702C174.457 26.1508 179.792 26.179 185.098 26.1847C190.936 26.1903 196.762 26.1847 202.594 25.9927C208.301 25.8064 214.003 25.5411 219.705 25.383C228.969 25.1233 238.25 25.1798 247.515 25.0669C259.387 24.9201 271.259 24.7676 283.132 24.6322C295.021 24.5023 306.905 24.3781 318.794 24.3499C323.057 24.3386 327.319 24.3386 331.581 24.3951C333.755 24.4233 335.973 24.3838 338.136 24.6378C337.859 24.6039 338.48 24.8241 338.175 24.6265C339.09 25.2249 339.942 23.7571 339.028 23.1643C338.57 22.8651 337.853 22.9103 337.334 22.8708C336.261 22.7974 335.177 22.7692 334.105 22.7466C330.345 22.6562 326.579 22.6506 322.819 22.6506C311.359 22.6449 299.899 22.7579 288.439 22.8764C276.239 23.0063 264.039 23.1587 251.839 23.3111C244.24 23.4071 236.636 23.5426 229.031 23.5369C217.475 23.5313 205.936 24.3499 194.385 24.4797C188.576 24.5475 182.767 24.4176 176.958 24.5531C174.445 24.6096 171.939 24.6999 169.438 24.9427C167.23 25.1572 165.029 25.4056 162.816 25.4959C160.823 25.575 158.768 25.575 156.843 24.9765C155.798 24.6547 155.352 26.2863 156.391 26.6081L156.385 26.6194Z" fill="black"></path><path d="M337.955 24.0958C338.17 27.9743 338.186 31.8583 338.164 35.7424L338.785 34.9238C336.753 35.2343 336.465 38.0458 336.323 39.6434C336.143 41.6871 336.493 43.9848 335.934 45.9099C335.64 46.9204 335.002 47.1519 334.031 47.3213C333.467 47.4172 332.897 47.4793 332.326 47.564C331.615 47.6656 332.394 47.564 332.163 47.5866C331.852 47.6205 331.547 47.6431 331.237 47.66C328.081 47.8689 324.908 47.9536 321.747 48.0665C316.073 48.2641 310.399 48.4334 304.726 48.5915C297.262 48.806 289.794 48.998 282.325 49.1843C273.76 49.3988 265.196 49.602 256.632 49.794C247.757 49.9916 238.888 50.1835 230.014 50.3585C221.529 50.5279 213.043 50.686 204.558 50.8271C197.163 50.9513 189.767 51.0586 182.372 51.1432C176.833 51.2053 171.29 51.2562 165.746 51.2449C162.804 51.2449 159.835 51.307 156.899 51.0868C156.753 51.0755 156.606 51.0586 156.459 51.0473C156.29 51.0303 156.685 51.0981 156.369 51.0303C155.307 50.7932 154.856 52.4248 155.917 52.6619C156.662 52.8256 157.464 52.82 158.226 52.8482C159.711 52.899 161.19 52.9159 162.675 52.9272C167.648 52.9667 172.628 52.9272 177.601 52.882C184.602 52.8199 191.602 52.724 198.602 52.6167C206.941 52.4869 215.273 52.3401 223.612 52.182C232.486 52.0127 241.367 51.8264 250.241 51.6344C258.952 51.4425 267.663 51.2449 276.38 51.0303C284.193 50.8384 292.007 50.6408 299.82 50.4263C306.002 50.2569 312.183 50.0762 318.365 49.8787C322.182 49.7545 326.004 49.6359 329.82 49.4383C330.61 49.3988 331.412 49.3706 332.197 49.2802C333.839 49.0883 336.053 49.0657 337.063 47.5189C338.175 45.8083 337.865 43.392 337.921 41.4556C337.955 40.3661 337.995 39.2595 338.226 38.1925C338.356 37.5998 338.52 36.6683 339.237 36.561C339.598 36.5046 339.858 36.0868 339.858 35.7424C339.874 31.8583 339.858 27.9743 339.649 24.0958C339.587 23.0119 337.893 23.0063 337.955 24.0958Z" fill="black"></path><path d="M191.184 23.4014C191.636 21.9223 191.467 20.398 191.478 18.8794C191.489 17.5583 191.749 16.5647 193.177 16.2655C195.65 15.7461 198.337 15.876 200.844 16.0058C203.378 16.1357 205.908 16.3841 208.448 16.497C211 16.6043 213.467 16.2599 216.002 16.0566C218.548 15.8478 221.117 16.0962 223.663 16.2034C226.288 16.3107 228.907 16.3559 231.538 16.2542C234.101 16.1583 236.664 15.9945 239.227 16.0171C242.056 16.0453 244.861 16.1413 247.69 16.0679C250.473 15.9946 253.256 15.9212 256.028 16.2034L255.181 15.3566C255.356 17.5301 256.683 19.5625 256.485 21.7586C256.384 22.8425 258.083 22.8368 258.179 21.7586C258.382 19.506 257.05 17.5527 256.875 15.3566C256.835 14.8655 256.514 14.5606 256.028 14.5098C250.953 13.9904 245.827 14.5775 240.735 14.3574C238.036 14.2445 235.332 14.3912 232.639 14.5098C229.969 14.6227 227.31 14.634 224.639 14.538C221.997 14.442 219.31 14.1541 216.668 14.3065C214.026 14.459 211.491 14.905 208.86 14.809C203.599 14.6227 198.264 13.7025 193.019 14.5719C191.167 14.8824 190.05 16.0849 189.846 17.9366C189.66 19.602 190.061 21.3126 189.564 22.9441C189.242 23.9885 190.879 24.4345 191.196 23.3957L191.184 23.4014Z" fill="black"></path><path d="M218.892 72.8784C221.066 70.9138 223.798 69.7169 226.429 68.5031C226.846 68.3112 226.948 67.7128 226.734 67.3458C226.485 66.9168 225.994 66.849 225.576 67.041C222.793 68.3225 219.987 69.604 217.695 71.6815C216.888 72.4155 218.085 73.6066 218.892 72.8784Z" fill="black"></path><path d="M227.643 68.9941C243.501 69.0167 259.331 67.7013 275.189 67.515C283.109 67.4247 291.03 67.1706 298.939 66.7359C306.826 66.3069 314.684 65.6181 322.554 64.9124C331.293 64.1277 340.078 64.0318 348.851 64.0487C349.94 64.0487 349.94 62.3551 348.851 62.3551C341.032 62.3381 333.207 62.4171 325.405 62.9873C321.499 63.2753 317.598 63.7043 313.697 64.0261C309.711 64.3592 305.719 64.6415 301.728 64.8842C285.955 65.827 270.153 65.748 254.374 66.465C245.471 66.8714 236.563 67.3118 227.648 67.2948C226.559 67.2948 226.559 68.9885 227.648 68.9885L227.643 68.9941Z" fill="black"></path><path d="M339.496 4.78827C338.587 7.01823 339.062 9.58126 338.904 11.9241C338.712 14.7186 338.209 17.4793 338.119 20.2851C338.029 23.0909 338.04 25.9249 338.13 28.7307C338.192 30.7235 338.853 32.9591 338.237 34.9068C338.074 35.4262 338.52 35.9908 339.056 35.9795C341.963 35.9061 344.837 35.381 347.75 35.4939L346.903 34.6471C346.931 36.448 347.248 38.2377 347.208 40.0386C347.197 40.6031 347.756 40.987 348.281 40.8571C348.93 40.6934 349.794 40.7047 350.578 40.6934C351.719 40.6709 352.865 40.6821 354.005 40.6708C354.976 40.6596 355.959 40.6483 356.924 40.5241C357.652 40.4337 358.414 40.2926 358.708 39.5305C359.103 38.5143 357.466 38.0739 357.076 39.0788C357.02 39.2312 357.33 38.6385 357.325 38.7232C357.325 38.7344 357.472 38.6949 357.347 38.7175C357.223 38.7401 357.105 38.7853 356.98 38.8079C356.715 38.8587 356.365 38.8869 356.021 38.9038C355.038 38.9659 354.05 38.9659 353.068 38.9716C351.374 38.9772 349.494 38.7966 347.835 39.2143C348.19 39.4853 348.552 39.7563 348.907 40.0329C348.941 38.232 348.631 36.4424 348.603 34.6415C348.597 34.1729 348.219 33.8116 347.756 33.7947C344.843 33.6818 341.969 34.2068 339.062 34.2802L339.88 35.3528C340.513 33.3543 339.971 31.1469 339.852 29.1089C339.694 26.3765 339.745 23.5764 339.813 20.8383C339.88 18.1003 340.338 15.2606 340.569 12.4605C340.671 11.2297 340.659 10.0103 340.654 8.77397C340.648 7.53761 340.676 6.36335 341.139 5.22861C341.551 4.21808 339.914 3.78338 339.508 4.77698L339.496 4.78827Z" fill="black"></path><path d="M339.541 4.56249C342.675 4.48345 345.723 5.38672 348.856 5.33591C349.381 5.32462 349.85 4.7996 349.675 4.26328C349.489 3.69309 349.257 3.14546 349.031 2.59221C348.947 2.38897 348.89 2.18009 348.811 1.97686C348.727 1.76233 348.851 1.97686 348.738 1.97686C348.67 1.97686 348.743 1.95992 348.845 1.92605C349.122 1.82443 349.427 1.74539 349.72 1.71152C350.471 1.62684 351.233 1.81879 351.961 1.96557C353.644 2.3043 355.349 2.34381 357.054 2.48494C358.99 2.64866 360.921 2.83497 362.863 2.89707L362.044 2.27606C364.494 11.2241 363.518 20.59 363.365 29.7356C363.32 32.3156 363.343 34.8956 363.523 37.4699L364.37 36.6231C364.054 36.6231 363.896 36.3521 363.698 36.1263C362.981 35.3021 361.785 36.5045 362.501 37.3231C363.021 37.9159 363.552 38.3111 364.37 38.3167C364.805 38.3167 365.251 37.9272 365.217 37.4699C364.573 28.1944 365.962 18.8907 365.07 9.62647C364.816 6.99004 364.381 4.37618 363.681 1.82443C363.58 1.45748 363.235 1.21472 362.863 1.20343C360.644 1.13004 358.437 0.898571 356.229 0.723561C355.185 0.638879 354.107 0.650175 353.074 0.463875C352.193 0.305802 351.318 0.0743445 350.42 0.0122444C349.359 -0.0611467 347.535 0.170307 347.163 1.39537C346.841 2.45672 347.727 3.74953 348.049 4.71491L348.868 3.64227C345.74 3.69873 342.686 2.79546 339.553 2.86885C338.463 2.89708 338.463 4.59072 339.553 4.56249H339.541Z" fill="black"></path><path d="M363.636 5.09881C365.273 4.52297 367.277 4.78832 368.971 4.90123C371.173 5.04801 373.374 5.20043 375.576 5.35286C381.284 5.7424 386.969 5.64078 392.682 5.669C398.44 5.69723 404.193 5.79885 409.946 5.96821C415.693 6.14322 421.44 6.43678 427.193 6.52711C438.721 6.70212 450.249 6.34081 461.777 6.29564C467.507 6.27306 473.237 6.32387 478.956 6.56098C484.59 6.79244 490.185 6.94488 495.808 6.41421C501.724 5.85531 507.674 5.59562 513.619 5.84966C513.755 5.85531 513.89 5.86659 514.026 5.87223C514.37 5.88352 513.811 5.83273 513.67 5.65772L513.54 4.63024C513.517 4.66976 514.093 4.19553 514.009 4.25199C514.065 4.21247 514.24 4.27457 514.139 4.23505C514.099 4.21812 513.975 4.24634 513.93 4.25199C512.846 4.31409 512.84 6.00773 513.93 5.94563C514.342 5.92304 514.765 5.89482 514.997 5.48835C515.2 5.13268 515.104 4.76008 514.867 4.46087C514.505 4.00923 513.354 4.14473 512.851 4.13344C511.553 4.09956 510.254 4.09391 508.956 4.09391C505.738 4.09391 502.503 4.1165 499.291 4.3649C497.123 4.53427 494.966 4.82782 492.787 4.95767C489.936 5.12703 487.074 5.16656 484.218 5.09317C478.425 4.94639 472.65 4.63588 466.858 4.60765C455.183 4.54555 443.508 4.92944 431.828 4.88428C420.175 4.83911 408.534 4.14473 396.877 4.01489C391.05 3.95279 385.19 4.20119 379.37 3.90762C376.756 3.77778 374.142 3.60276 371.528 3.41082C369.53 3.26404 367.526 3.04951 365.516 3.12855C364.731 3.15677 363.913 3.21887 363.167 3.47856C362.146 3.83987 362.586 5.47706 363.619 5.11011L363.636 5.09881Z" fill="black"></path><path d="M513.461 6.83212C514.427 8.75158 514.76 10.9928 515.008 13.1042C515.268 15.3286 515.381 17.5698 515.573 19.7998C515.81 22.5039 516.041 25.1742 516.002 27.8954C515.962 30.9326 515.742 33.9642 515.578 36.9958L516.425 36.149C514.523 36.2393 512.614 36.2676 510.712 36.3184C506.833 36.4144 502.949 36.4991 499.071 36.5837C493.719 36.7023 488.362 36.8152 483.01 36.9224C476.596 37.0579 470.177 37.1878 463.764 37.3176C456.86 37.4588 449.961 37.5943 443.057 37.7298C436.152 37.8653 429.084 38.0064 422.095 38.1419C415.529 38.2717 408.964 38.4016 402.398 38.5314C396.753 38.6443 391.107 38.7572 385.462 38.8701C381.171 38.9548 376.881 39.0451 372.59 39.1355C370.157 39.1863 367.724 39.2371 365.296 39.2992C365.042 39.3048 364.782 39.3105 364.528 39.3218C363.439 39.3556 363.439 41.0493 364.528 41.0154C366.436 40.9533 368.345 40.9194 370.247 40.8799C374.131 40.7952 378.01 40.7162 381.894 40.6372C387.251 40.5299 392.603 40.4226 397.961 40.3154C404.38 40.1855 410.793 40.0613 417.212 39.9371C424.116 39.8016 431.021 39.6662 437.919 39.525C444.908 39.3839 451.892 39.2484 458.881 39.1073C465.447 38.9774 472.012 38.8419 478.578 38.7064C484.223 38.5879 489.869 38.475 495.514 38.3508C499.805 38.2604 504.09 38.1645 508.38 38.0628C510.808 38.0064 513.241 37.9556 515.669 37.8709C515.923 37.8596 516.182 37.854 516.436 37.8427C516.911 37.8201 517.255 37.4701 517.283 36.9958C517.453 33.8683 517.684 30.7407 517.712 27.6018C517.741 24.8412 517.47 22.137 517.244 19.3933C517.052 17.0674 516.928 14.7358 516.628 12.4211C516.329 10.1065 515.945 7.98379 514.935 5.97965C514.444 5.00863 512.981 5.8611 513.473 6.83212H513.461Z" fill="black"></path><path d="M516.6 31.1414C520.541 32.4117 524.944 32.1915 529.026 32.0165C533.61 31.8189 538.188 31.7342 542.773 31.7455C543.862 31.7455 543.862 30.0519 542.773 30.0519C538.256 30.0462 533.74 30.1196 529.223 30.3172C525.226 30.4922 520.913 30.7576 517.046 29.5099C516.007 29.1768 515.561 30.8084 516.594 31.1414H516.6Z" fill="black"></path><path d="M544.398 31.6777C544.381 29.5945 543.354 27.5226 543.642 25.4395L542.823 26.0605C545.194 26.1508 547.554 25.9363 549.925 25.829C551.133 25.7726 552.342 25.7556 553.555 25.8177C554.193 25.8516 554.927 25.7895 555.542 25.9815C555.83 26.0718 556.022 26.4839 556.175 26.896C556.53 27.8501 556.609 28.8493 556.655 29.8599C556.751 32.1745 556.993 34.4666 557.106 36.7812C557.208 38.9604 557.101 41.1508 557.242 43.3243C557.343 44.8994 557.626 46.4632 557.801 48.0326C557.976 49.6021 558.196 51.2449 557.784 52.7466C557.643 53.266 557.451 53.5934 556.937 53.8079C556.271 54.0846 555.503 54.1467 554.797 54.1918C552.974 54.316 551.291 54.3047 549.553 54.9653C547.667 55.6822 545.612 56.992 543.523 56.7549L544.257 58.0308C545.629 55.1233 545.415 51.8772 544.596 48.8399C544.314 47.7899 542.676 48.2359 542.964 49.2916C543.653 51.849 543.958 54.7056 542.795 57.1783C542.501 57.7993 542.863 58.3808 543.529 58.4542C545.55 58.68 547.503 57.6243 549.31 56.8791C550.168 56.5234 551.066 56.1565 551.997 56.0436C552.776 55.9476 553.572 55.9589 554.357 55.9194C555.836 55.8403 557.812 55.7613 558.817 54.4911C559.777 53.2829 559.731 51.386 559.658 49.9352C559.568 48.0778 559.246 46.243 559.037 44.4026C558.8 42.3194 558.924 40.208 558.856 38.1136C558.772 35.5562 558.456 33.0157 558.377 30.464C558.32 28.7251 558.314 26.3428 557.022 24.9766C556.519 24.4402 555.847 24.2878 555.142 24.2201C553.984 24.1071 552.799 24.0846 551.641 24.0959C548.706 24.1297 545.781 24.491 542.84 24.3781C542.513 24.3668 542.072 24.6491 542.022 24.9991C541.7 27.3025 542.699 29.4082 542.716 31.689C542.722 32.7786 544.415 32.7786 544.41 31.689L544.398 31.6777Z" fill="black"></path><path d="M559.387 53.678C560.686 55.891 562.108 58.0363 563.7 60.0461C565.292 62.0559 567.003 63.9415 569.222 65.0818C569.673 65.3133 570.356 65.1439 570.463 64.5738C570.768 63.0325 571.276 61.5478 571.734 60.0461C571.818 59.7582 571.728 59.4307 571.514 59.2219C570.362 58.0758 568.951 57.2629 567.584 56.3991C566.292 55.5805 564.993 54.6998 564.214 53.3449C563.672 52.4021 562.204 53.2546 562.752 54.1974C564.468 57.1838 567.98 58.0928 570.311 60.4187L570.091 59.5945C569.634 61.0961 569.126 62.5809 568.821 64.1221L570.063 63.614C567.968 62.5414 566.325 60.6615 564.886 58.8436C563.446 57.0258 562.057 54.9031 560.832 52.8199C560.279 51.8827 558.817 52.7296 559.37 53.6724L559.387 53.678Z" fill="black"></path><path d="M556.835 27.0708C564.694 29.058 572.931 28.5951 580.941 28.1999C582.934 28.1039 584.871 27.6918 586.841 27.4378C588.811 27.1837 590.578 27.2515 592.436 27.641C593.988 27.9685 594.829 28.9169 595.524 30.317C595.891 31.0565 596.19 31.8187 596.574 32.5469C596.991 33.3429 597.556 33.9978 598.104 34.7035C598.866 35.6802 599.498 36.8375 600.418 37.6843C601.457 38.644 602.835 39.0844 604.173 39.4513C605.223 39.7392 605.674 38.1077 604.624 37.8198C603.546 37.5206 602.366 37.2101 601.536 36.4084C600.763 35.6632 600.209 34.6809 599.555 33.8284C599.063 33.1905 598.533 32.5921 598.143 31.8864C597.669 31.0339 597.33 30.1194 596.884 29.2556C596.207 27.9402 595.247 26.7998 593.836 26.2692C592.3 25.6877 590.42 25.5353 588.794 25.5748C586.824 25.6256 584.905 26.0659 582.957 26.32C580.953 26.5797 578.909 26.5966 576.899 26.6813C574.923 26.7603 572.942 26.8224 570.966 26.8281C566.37 26.8394 561.752 26.5571 557.281 25.428C556.226 25.1627 555.774 26.7942 556.83 27.0595L556.835 27.0708Z" fill="black"></path><path d="M691.7 16.4069C692.016 19.3369 692.615 22.233 692.727 25.1799C692.823 27.743 692.536 30.3399 692.383 32.8973C692.315 34.0038 692.259 35.1103 692.163 36.2168C692.152 36.3184 692.14 36.4201 692.135 36.5217C692.135 36.5725 692.242 36.3749 692.135 36.4709C692.135 36.4709 692.135 36.4822 692.135 36.4878L692.902 36.3918C693.382 36.0813 693.665 36.1152 693.749 36.4878C693.749 36.4822 693.749 36.4652 693.744 36.4596C693.698 36.3862 693.772 36.7475 693.755 36.5555C693.715 36.0926 693.687 35.641 693.258 35.3644C692.338 34.7716 691.491 36.2338 692.406 36.8265C692.349 36.7927 692.005 36.3015 692.05 36.4144C692.123 36.6064 692.027 36.166 692.044 36.358C692.05 36.4539 692.061 36.5499 692.073 36.6459C692.135 37.1257 692.372 37.5717 692.942 37.5774C693.405 37.5774 693.699 37.233 693.789 36.8209C693.969 36.0023 693.941 35.0934 693.998 34.2635C694.15 31.8698 694.303 29.4761 694.421 27.0825C694.596 23.4919 693.783 19.9579 693.399 16.4012C693.286 15.3286 691.587 15.3173 691.706 16.4012L691.7 16.4069Z" fill="black"></path><path d="M692.513 17.7446C697.351 16.7171 702.872 16.8244 707.592 18.343L706.999 17.7502C707.705 21.7416 708.196 25.7668 708.687 29.792C708.845 31.0792 708.919 32.3494 708.975 33.6422C709.009 34.489 709.071 35.3923 709.517 36.1375C710.025 36.99 710.934 37.4473 711.854 37.7239C713.52 38.2207 715.343 38.3167 717.065 38.4634C719.007 38.6272 720.96 38.7457 722.88 39.107C723.552 39.2312 724.257 39.3611 724.901 39.5869C725.042 39.6377 725.161 39.6885 725.296 39.7563C725.194 39.7054 725.257 39.6716 725.268 39.7901C725.375 40.8176 725.098 42.3362 725.065 43.4823C725.014 45.0291 725.11 46.8244 724.54 48.2922C724.099 49.4269 722.4 49.3535 721.372 49.4495C720.373 49.5455 719.368 49.5568 718.369 49.585C714.129 49.6979 709.89 49.7205 705.65 49.7374C699.084 49.7713 692.513 49.7713 685.947 49.76C677.908 49.7487 669.869 49.7205 661.83 49.6866C653.113 49.6471 644.402 49.6019 635.691 49.5455C627.116 49.4947 618.54 49.4326 609.959 49.3705C602.332 49.314 594.705 49.2576 587.078 49.1955C581.212 49.1503 575.352 49.0995 569.487 49.0543C566.196 49.0261 562.899 48.9979 559.607 48.9809C559.291 48.9809 558.975 48.9809 558.659 48.9809C557.569 48.9809 557.569 50.6746 558.659 50.6746C561.239 50.6802 563.824 50.7085 566.404 50.731C571.785 50.7762 577.159 50.8157 582.539 50.8609C589.946 50.9173 597.347 50.9794 604.754 51.0302C613.256 51.0923 621.753 51.1544 630.255 51.2053C639.124 51.2617 647.987 51.3125 656.856 51.3577C665.138 51.3972 673.425 51.4311 681.707 51.448C688.674 51.4649 695.646 51.4706 702.613 51.448C707.343 51.4311 712.069 51.4141 716.8 51.3182C718.087 51.2899 719.38 51.2674 720.667 51.194C721.068 51.1714 721.457 51.1375 721.858 51.0867C722.874 50.9569 724.037 50.9173 724.946 50.3867C725.776 49.9011 726.154 49.0035 726.346 48.1059C726.702 46.4405 726.719 44.7186 726.775 43.0193C726.815 41.8846 727.159 40.5127 726.911 39.3836C726.719 38.5142 726.002 38.1473 725.211 37.9102C723.535 37.4134 721.768 37.1932 720.034 37.0238C718.092 36.8319 716.139 36.7416 714.203 36.4706C713.26 36.3351 711.702 36.2391 711.058 35.3923C710.618 34.8221 710.686 33.9132 710.663 33.2414C710.618 31.7623 710.454 30.317 710.273 28.8492C709.799 24.9877 709.314 21.1318 708.636 17.3042C708.585 17.0107 708.309 16.7961 708.044 16.7115C703.036 15.1081 697.187 15.0291 692.061 16.113C690.994 16.3389 691.446 17.9704 692.513 17.7446Z" fill="black"></path><path d="M347.552 64.5681C348.461 64.5681 349.347 64.777 350.239 64.9068C351.261 65.0592 352.244 65.1044 353.277 65.048C355.495 64.9294 357.691 65.1778 359.899 65.3923C364.246 65.827 368.598 65.2907 372.945 65.1044C373.42 65.0818 373.77 64.7318 373.792 64.2576C373.979 60.8082 373.809 57.3588 373.854 53.9095C373.866 52.8199 372.172 52.8199 372.161 53.9095C372.121 57.3588 372.285 60.8082 372.099 64.2576L372.945 63.4108C368.604 63.5971 364.246 64.1334 359.899 63.6987C357.742 63.4842 355.586 63.2414 353.418 63.343C352.368 63.3938 351.369 63.3769 350.33 63.2132C349.41 63.0664 348.489 62.8688 347.552 62.8688C346.463 62.8688 346.463 64.5681 347.552 64.5625V64.5681Z" fill="black"></path><path d="M373.939 59.3122C375.023 58.6121 376.305 58.9 377.524 58.8379C378.585 58.7815 379.732 58.5218 380.533 57.7766C381.922 56.4781 381.397 54.3385 381.132 52.7013L380.313 53.774C382.87 53.5877 385.422 53.8361 387.968 54.1014C390.136 54.3272 392.327 54.4345 394.483 54.7393C395.962 54.9539 398.141 55.2757 399.067 53.7457C399.795 52.5489 399.276 50.8101 398.96 49.5681C398.723 48.6197 398.435 47.6825 398.181 46.7341C397.995 46.0453 397.769 45.3283 397.746 44.6114C397.718 43.5218 396.024 43.5218 396.053 44.6114C396.086 45.955 396.578 47.2986 396.939 48.5801C397.278 49.7883 397.91 51.3859 397.695 52.6336C397.633 52.9949 397.244 53.1586 396.758 53.2094C395.979 53.2828 395.177 53.1417 394.415 53.0231C392.411 52.7239 390.373 52.6505 388.358 52.4416C385.687 52.165 383 51.8771 380.313 52.0747C379.72 52.1198 379.404 52.5771 379.494 53.1473C379.669 54.2256 380.257 56.1281 379.02 56.783C378.128 57.2516 377.089 57.15 376.118 57.1387C375.04 57.1274 374.007 57.2516 373.087 57.8443C372.172 58.4315 373.025 59.8993 373.939 59.3065V59.3122Z" fill="black"></path><path d="M398.875 50.5391C399.66 49.9915 399.615 48.8059 398.503 48.7495C398.045 48.7269 397.323 48.8624 396.995 49.2068C396.606 49.6132 396.702 50.2738 397.182 50.556C397.458 50.7197 397.78 50.6859 398.085 50.6689C398.164 50.6689 398.243 50.6576 398.322 50.6576C399.044 50.6238 399.767 50.6238 400.49 50.6181C403.651 50.5899 406.807 50.5955 409.968 50.5955C414.931 50.6012 419.893 50.6238 424.856 50.6464C431.105 50.6746 437.355 50.7085 443.604 50.748C450.548 50.7931 457.492 50.8383 464.436 50.8891C471.572 50.9399 478.708 50.9964 485.844 51.0585C492.596 51.1149 499.347 51.1714 506.099 51.2335C511.897 51.2843 517.695 51.3407 523.493 51.4028C527.823 51.448 532.159 51.4932 536.489 51.5553C538.775 51.5835 541.067 51.6061 543.354 51.6682C543.546 51.6682 543.732 51.6795 543.924 51.6908C545.014 51.7529 545.008 50.0592 543.924 49.9971C542.309 49.9068 540.689 49.9237 539.075 49.9012C535.399 49.8447 531.724 49.8052 528.049 49.7656C522.838 49.7092 517.628 49.6584 512.422 49.6076C506.145 49.5455 499.861 49.489 493.583 49.4382C486.775 49.3818 479.967 49.3253 473.158 49.2689C466.299 49.2181 459.44 49.1672 452.58 49.1164C446.167 49.0713 439.754 49.0317 433.335 48.9979C427.865 48.9696 422.388 48.9414 416.918 48.9245C412.887 48.9132 408.851 48.9019 404.82 48.9075C402.72 48.9075 400.614 48.8906 398.514 48.964C398.418 48.964 398.322 48.9696 398.226 48.9753C397.961 48.9922 397.52 48.8737 398.034 49.0995L398.424 49.6076V49.5963C398.344 49.8729 398.277 50.1439 398.203 50.4205C398.011 50.6576 397.898 50.5673 398.277 50.4826C398.435 50.4488 398.339 50.4826 398.361 50.4657C398.548 50.3471 398.706 50.7706 398.192 50.3754L397.802 49.8673C397.735 49.5116 397.808 49.2576 398.034 49.0882C397.148 49.7092 397.994 51.177 398.886 50.5504L398.875 50.5391Z" fill="black"></path><path d="M558.659 39.4854C560.279 39.4854 561.899 39.4967 563.514 39.508C567.206 39.5249 570.893 39.5362 574.585 39.5532C579.818 39.5757 585.051 39.5927 590.285 39.6096C596.596 39.6322 602.914 39.6491 609.225 39.6604C616.073 39.6774 622.916 39.6886 629.764 39.6943C636.668 39.6999 643.567 39.6999 650.471 39.6943C656.93 39.6886 663.388 39.6717 669.846 39.6435C675.362 39.6209 680.878 39.587 686.393 39.5306C690.469 39.4911 694.545 39.4402 698.621 39.3443C700.755 39.2935 702.917 39.2991 705.04 39.062C705.277 39.0338 705.526 39.0168 705.757 38.9491C706.802 38.6442 706.356 37.0127 705.306 37.3176C705.238 37.3401 705.164 37.3458 705.091 37.3627C704.876 37.4079 705.243 37.3458 705.147 37.3571C705.085 37.3627 705.023 37.374 704.956 37.3797C704.622 37.4135 704.295 37.4361 703.962 37.4587C702.867 37.5264 701.771 37.566 700.676 37.5998C697.007 37.7127 693.337 37.7635 689.668 37.8087C684.44 37.8708 679.212 37.9103 673.99 37.9386C667.707 37.9724 661.423 37.9894 655.134 38.0007C648.292 38.0119 641.45 38.012 634.602 38.012C627.697 38.012 620.793 38.0007 613.888 37.9837C607.447 37.9724 601.006 37.9555 594.558 37.9329C589.026 37.916 583.493 37.899 577.961 37.8765C573.862 37.8595 569.769 37.8426 565.671 37.8256C563.508 37.8144 561.34 37.8087 559.178 37.7974C559.003 37.7974 558.823 37.7974 558.648 37.7974C557.558 37.7974 557.558 39.4911 558.648 39.4911L558.659 39.4854Z" fill="black"></path><path d="M68.7116 63.3939C71.3254 63.8681 73.9788 63.823 76.6265 63.7552C79.3702 63.6818 82.1139 63.7101 84.8632 63.7157C90.6442 63.727 96.4308 63.7157 102.212 63.6988C107.959 63.6818 113.706 63.6649 119.453 63.6536C122.281 63.6536 125.11 63.648 127.938 63.6536C130.62 63.6536 133.324 63.5576 135.994 63.7778C137.293 63.8851 138.608 64.0318 139.912 63.8794C140.646 63.7947 141.651 63.6875 142.187 63.106C142.47 62.8011 142.599 62.389 142.757 62.0164C143.034 61.3672 143.311 60.7236 143.57 60.0631C144.124 58.6404 144.587 57.1896 144.858 55.6879C145.05 54.6209 143.418 54.1636 143.226 55.2362C142.814 57.5113 142.012 59.8203 140.979 61.8866C140.906 62.0334 140.883 61.9939 140.996 61.9205C140.928 61.9656 140.911 61.9543 140.748 61.9938C140.296 62.1124 139.844 62.1971 139.376 62.2253C138.252 62.2874 137.123 62.1689 136 62.0729C133.465 61.864 130.896 61.9543 128.35 61.9487C125.618 61.9487 122.885 61.9487 120.153 61.9487C109.048 61.9656 97.9438 62.0277 86.8335 62.0164C83.8188 62.0164 80.7985 61.9487 77.7838 62.0164C74.9159 62.0842 72.0029 62.2592 69.1632 61.7511C68.0962 61.5591 67.6389 63.1907 68.7116 63.3826V63.3939Z" fill="black"></path><path d="M143.39 61.8133C144.316 61.5536 145.315 61.6778 146.258 61.7568C147.353 61.8528 148.397 61.8979 149.493 61.7907C150.576 61.6834 151.66 61.5479 152.75 61.5197C153.106 61.5084 153.467 61.5084 153.828 61.5197C153.986 61.5197 154.144 61.5253 154.303 61.5423C154.534 61.5592 154.302 61.5705 154.393 61.5479C154.415 61.5479 154.438 61.5536 154.455 61.5592C154.658 61.6157 154.523 61.5028 154.06 61.2318L153.975 60.5769L154.161 60.2495C153.348 60.9834 154.551 62.1746 155.358 61.4463C155.799 61.0455 155.686 60.3228 155.183 60.0349C154.861 59.8486 154.438 59.8486 154.077 59.8317C152.981 59.7809 151.886 59.8599 150.797 59.9672C149.419 60.1027 148.104 60.2269 146.721 60.1083C145.467 60.0011 144.169 59.8317 142.938 60.1817C141.894 60.4753 142.334 62.1125 143.39 61.8133Z" fill="black"></path><path d="M69.3607 61.4574C67.7574 59.9614 67.8534 57.4322 68.2881 55.4563C68.7453 53.3731 69.6599 51.1206 71.2915 49.6866C72.11 48.964 70.9076 47.7728 70.0946 48.4898C68.1808 50.1721 67.063 52.882 66.5888 55.3321C66.1033 57.8217 66.1767 60.8138 68.1639 62.6599C68.9599 63.3995 70.1624 62.2083 69.3607 61.4631V61.4574Z" fill="black"></path><path d="M72.7706 49.4156C75.1586 49.1503 77.5579 49.3309 79.946 49.4212C82.334 49.5116 84.722 49.3083 87.144 49.0091C89.5094 48.7212 91.8862 48.4841 94.2629 48.3486C96.6396 48.2131 99.0841 48.2639 101.5 48.2809C106.451 48.3091 111.38 47.8631 116.325 47.8236C121.254 47.7841 126.154 48.2357 131.077 47.7897C133.629 47.5582 136.192 47.5865 138.743 47.4227C139.692 47.3606 140.64 47.2929 141.589 47.2873C142.39 47.2816 143.384 47.2139 144.141 47.5413C145.129 47.9647 145.992 46.5082 144.993 46.0791C143.457 45.4186 141.64 45.5598 140.002 45.6501C137.959 45.763 135.909 45.842 133.866 45.9267C131.359 46.0283 128.87 46.3162 126.357 46.3275C123.862 46.3332 121.372 46.209 118.877 46.1525C113.841 46.0396 108.817 46.4912 103.787 46.5759C101.359 46.6154 98.926 46.4969 96.4985 46.5646C94.0201 46.6324 91.5531 46.8243 89.086 47.0897C86.3818 47.3832 83.7228 47.8236 80.9904 47.7615C78.2411 47.6994 75.4917 47.4115 72.7537 47.722C71.681 47.8405 71.6697 49.5342 72.7537 49.4156H72.7706Z" fill="black"></path><path d="M143.802 47.4114C143.966 47.5526 144.112 47.6994 144.253 47.8687C144.18 47.784 144.214 47.8179 144.265 47.8857C144.293 47.9252 144.316 47.9591 144.338 47.9986C144.389 48.0833 144.44 48.1679 144.485 48.2583C144.513 48.3091 144.536 48.3542 144.558 48.4051C144.57 48.422 144.62 48.5575 144.581 48.4559C144.536 48.343 144.603 48.518 144.609 48.5405C144.626 48.5801 144.637 48.6252 144.654 48.6647C144.722 48.8623 144.773 49.0712 144.812 49.2744C144.835 49.3704 144.852 49.472 144.869 49.5737C144.874 49.6188 144.886 49.664 144.891 49.7092C144.891 49.7317 144.925 49.9237 144.903 49.7995C144.886 49.6866 144.903 49.8333 144.908 49.8559C144.914 49.9124 144.92 49.9688 144.931 50.0253C144.942 50.1269 144.954 50.2285 144.965 50.3301C145.016 50.7987 145.061 51.2616 145.134 51.7246C145.202 52.1649 145.778 52.4472 146.179 52.3174C146.658 52.1593 146.839 51.7472 146.771 51.2729C146.771 51.2447 146.743 51.0584 146.76 51.1883C146.777 51.3181 146.749 51.1092 146.749 51.1036C146.737 51.002 146.726 50.9003 146.715 50.8044C146.692 50.5898 146.67 50.3753 146.647 50.1608C146.596 49.6753 146.534 49.1841 146.427 48.7043C146.212 47.7615 145.755 46.8638 145.004 46.2259C144.666 45.938 144.135 45.8702 143.807 46.2259C143.52 46.542 143.446 47.1179 143.807 47.4227L143.802 47.4114Z" fill="black"></path><path d="M147.901 53.3452C149.882 52.8033 152.033 53.2944 154.077 53.0404C154.528 52.9839 154.924 52.6904 154.924 52.1936C154.924 51.7814 154.534 51.2903 154.077 51.3467C151.875 51.6177 149.622 51.1153 147.449 51.708C146.399 51.996 146.845 53.6275 147.901 53.3396V53.3452Z" fill="black"></path><path d="M216.572 81.002C211.705 83.932 205.868 85.6539 200.206 86.0434C199.122 86.1168 199.116 87.8104 200.206 87.737C206.167 87.3306 212.298 85.5523 217.424 82.4642C218.356 81.9053 217.509 80.4374 216.572 81.002Z" fill="black"></path><path d="M191.466 53.136C191.365 55.5749 191.918 57.9968 192.093 60.4187C192.302 63.3261 192.217 66.2843 192.104 69.1974L192.951 68.3506C190.806 68.3224 188.74 69.0337 186.589 69.0055C184.54 68.9772 182.468 68.6893 180.458 69.2482C179.408 69.5418 179.854 71.1733 180.909 70.8798C182.835 70.3434 184.867 70.6991 186.832 70.6991C188.898 70.6991 190.891 70.0103 192.951 70.0386C193.42 70.0442 193.781 69.6434 193.798 69.1918C193.911 66.2787 193.996 63.3205 193.787 60.4131C193.612 57.9912 193.059 55.5636 193.16 53.1304C193.205 52.0408 191.512 52.0408 191.466 53.1304V53.136Z" fill="black"></path><path d="M171.34 51.4537C170.849 52.3005 170.765 53.3505 170.719 54.3046C170.669 55.4111 170.719 56.5176 170.787 57.6241C170.911 59.6113 170.776 61.6381 171.064 63.614C171.188 64.4665 171.414 65.3979 172.097 65.9794C172.436 66.2673 172.859 66.4875 173.288 66.6117C173.373 66.6343 173.497 66.6795 173.587 66.6795H173.61C173.858 66.7642 173.717 66.6174 173.181 66.2391C173.153 66.2448 173.203 66.0415 173.153 66.3069C172.994 67.2214 172.859 68.232 172.819 69.1578C172.78 70.1684 173.057 71.0491 174.039 71.4499C174.999 71.8394 176.105 71.9015 177.127 71.958C178.075 72.0144 179.041 72.0427 179.989 71.958C181.068 71.8564 181.073 70.1627 179.989 70.2643C178.431 70.4111 176.687 70.3829 175.162 70.0329C174.999 69.9934 174.846 69.9425 174.688 69.8974C174.609 69.8748 174.513 69.7732 174.575 69.8748C174.434 69.6603 174.513 69.107 174.536 68.8135C174.615 67.9497 174.846 67.0859 174.846 66.2222C174.846 65.5334 174.502 65.2117 173.886 65.0254C173.232 64.8278 172.983 64.5511 172.819 63.885C172.385 62.101 172.644 60.1815 172.526 58.3637C172.453 57.2911 172.39 56.2184 172.396 55.1458C172.396 54.2595 172.34 53.1134 172.803 52.3231C173.356 51.3803 171.888 50.5278 171.34 51.4706V51.4537Z" fill="black"></path><path d="M177.483 52.2949C178.499 55.1007 177.867 58.2791 177.957 61.1922C178.008 62.9479 178.087 64.6924 178.081 66.4481C178.081 67.7353 178.465 69.316 177.968 70.5298C177.556 71.5347 179.193 71.975 179.6 70.9814C180.142 69.666 179.769 68.091 179.775 66.7191C179.775 64.873 179.707 63.0383 179.656 61.1922C179.566 58.1211 180.198 54.8015 179.12 51.8489C178.753 50.8328 177.116 51.2731 177.488 52.3006L177.483 52.2949Z" fill="black"></path><path d="M230.781 57.4492C230.77 57.342 230.765 57.2404 230.77 57.1331C230.77 57.0879 230.793 56.9186 230.77 57.0766C230.748 57.2347 230.776 57.0484 230.787 57.0089C230.798 56.9637 230.81 56.9186 230.821 56.8734C230.832 56.8395 230.894 56.6758 230.832 56.8282C230.77 56.9807 230.832 56.8282 230.855 56.7944C230.877 56.7492 230.906 56.7097 230.928 56.6645C230.985 56.5798 231.075 56.5347 230.906 56.6871C230.934 56.6645 230.951 56.6307 230.979 56.6024C231.013 56.5686 231.047 56.5347 231.081 56.5008C231.16 56.4331 231.25 56.4218 231.047 56.5177C231.12 56.4839 231.188 56.4218 231.261 56.3766C231.295 56.3597 231.323 56.3427 231.357 56.3258C231.38 56.3145 231.402 56.3032 231.425 56.2919C231.544 56.2298 231.244 56.354 231.34 56.3258C231.425 56.2976 231.504 56.2693 231.583 56.2468C231.623 56.2355 231.668 56.2242 231.707 56.2185C231.724 56.2185 231.741 56.2129 231.764 56.2072C231.899 56.179 231.696 56.2185 231.668 56.2185C231.837 56.2242 232.029 56.2185 232.204 56.2129C232.232 56.2129 231.973 56.1734 232.142 56.2072C232.182 56.2129 232.227 56.2242 232.266 56.2355C232.357 56.2581 232.436 56.2863 232.526 56.3145C232.65 56.354 232.328 56.2185 232.469 56.2919C232.509 56.3089 232.543 56.3314 232.582 56.3484C232.622 56.3653 232.656 56.3935 232.69 56.4161C232.707 56.4274 232.729 56.4443 232.746 56.4556C232.819 56.4952 232.605 56.3258 232.661 56.3879C232.718 56.45 232.786 56.5008 232.842 56.5629C232.961 56.6871 232.746 56.4105 232.808 56.5177C232.836 56.5573 232.865 56.5968 232.887 56.6419C232.91 56.6815 232.927 56.7436 232.955 56.7774C232.91 56.721 232.887 56.5855 232.927 56.721C232.955 56.8169 232.961 56.9524 233.006 57.0371C233.006 57.0371 232.989 56.8339 232.989 56.9186C232.989 56.9524 232.994 56.9807 232.994 57.0145C232.994 57.071 232.994 57.1218 232.994 57.1783C232.994 57.2234 232.994 57.2686 232.994 57.3138C233.034 57.15 232.983 57.5339 232.994 57.3138C232.972 57.3984 232.944 57.4831 232.921 57.5678C232.921 57.5904 233.028 57.3702 232.944 57.5113C232.921 57.5509 232.893 57.5904 232.876 57.6299C232.825 57.7315 233.028 57.4662 232.915 57.5791C232.887 57.6073 232.865 57.6355 232.836 57.6638C232.808 57.692 232.69 57.7823 232.825 57.6807C232.961 57.5791 232.825 57.6807 232.791 57.6976C232.757 57.7202 232.724 57.7372 232.69 57.7541C232.549 57.8331 232.774 57.7259 232.752 57.7315C232.667 57.7485 232.588 57.788 232.503 57.8105C232.464 57.8218 232.424 57.8275 232.379 57.8331C232.204 57.867 232.571 57.8162 232.441 57.8275C232.345 57.8275 232.255 57.8388 232.159 57.8388C232.063 57.8388 231.978 57.8331 231.888 57.8218C231.702 57.8106 232.074 57.8557 231.939 57.8275C231.888 57.8162 231.832 57.8106 231.781 57.7993C231.561 57.7541 231.352 57.6864 231.137 57.6073C230.973 57.5452 231.312 57.692 231.154 57.613C231.103 57.5904 231.058 57.5678 231.007 57.5452C230.906 57.4944 230.81 57.438 230.714 57.3759C230.669 57.3476 230.629 57.3194 230.584 57.2855C230.426 57.1783 230.697 57.3815 230.601 57.3025C230.527 57.2347 230.448 57.1726 230.381 57.0992C230.347 57.0654 230.313 57.0258 230.285 56.992C230.155 56.8452 230.381 57.1444 230.296 57.0089C230.245 56.9242 230.194 56.8452 230.149 56.7548C229.957 56.354 229.353 56.2185 228.992 56.45C228.58 56.7153 228.484 57.1783 228.687 57.6073C229.127 58.5332 230.172 59.1372 231.131 59.3856C232.114 59.6397 233.378 59.5945 234.101 58.7816C234.942 57.8331 234.857 56.3032 234.045 55.3717C233.344 54.5701 232.136 54.3499 231.137 54.6096C229.867 54.9427 228.964 56.1113 229.093 57.4436C229.139 57.8839 229.455 58.313 229.94 58.2904C230.364 58.2735 230.832 57.9178 230.787 57.4436L230.781 57.4492Z" fill="black"></path><path d="M349.342 63.6253C349.98 59.6791 349.652 55.6934 349.658 51.7247C349.658 50.6351 347.964 50.6351 347.964 51.7247C347.964 55.5353 348.32 59.3968 347.71 63.1793C347.541 64.2463 349.173 64.7036 349.342 63.631V63.6253Z" fill="black"></path><path d="M365.11 40.0782C365.217 47.2705 366.109 54.4233 366.103 61.6212C366.103 62.7108 367.797 62.7108 367.797 61.6212C367.797 54.4289 366.911 47.2705 366.803 40.0782C366.786 38.9886 365.093 38.9886 365.11 40.0782Z" fill="black"></path><path d="M372.669 40.8405C373.397 43.6463 373.476 46.565 373.657 49.4386C373.685 49.8959 374.024 50.2854 374.504 50.2854C374.938 50.2854 375.379 49.8959 375.35 49.4386C375.158 46.4126 375.068 43.3358 374.3 40.3889C374.024 39.3332 372.392 39.7792 372.669 40.8405Z" fill="black"></path><path d="M380.161 41.4048C380.161 44.9558 380.403 48.4955 380.398 52.0465C380.398 53.1361 382.091 53.1361 382.091 52.0465C382.091 48.4955 381.849 44.9558 381.854 41.4048C381.854 40.3153 380.161 40.3153 380.161 41.4048Z" fill="black"></path><path d="M543.427 25.9082C543.422 34.2014 544.319 42.6583 542.626 50.8556C542.406 51.9169 544.037 52.3742 544.257 51.3072C545.985 42.9519 545.11 34.3708 545.115 25.9082C545.115 24.8187 543.422 24.8187 543.422 25.9082H543.427Z" fill="black"></path></svg> 