<?xml version="1.0" encoding="UTF-8"?> <svg xmlns="http://www.w3.org/2000/svg" width="301" height="225" viewBox="0 0 301 225" fill="none"><mask id="mask0_25_32321" style="mask-type:luminance" maskUnits="userSpaceOnUse" x="-786" y="-198" width="1784" height="937"><path d="M997.809 -198H-786V738.194H997.809V-198Z" fill="white"></path></mask><g mask="url(#mask0_25_32321)"><path d="M268.425 135.304C268.814 128.484 268.532 121.719 267.7 114.968C267.7 114.953 267.7 114.938 267.7 114.923C267.684 114.487 267.631 114.083 267.539 113.708C267.425 112.861 267.31 112.013 267.18 111.166C266.944 109.615 265.722 108.485 264.271 107.936C264.958 106.546 265.042 104.851 264.508 103.453C265.645 100.559 264.172 96.466 260.094 96.3591C249.442 96.0842 238.789 96.1147 228.144 96.466C228.58 95.6795 228.793 94.7708 228.793 93.8621C231.038 93.6177 233.062 92.0447 232.963 89.1124L232.222 67.4791C232.039 62.088 224.899 61.2404 222.845 64.9821C219.935 65.0203 216.866 67.4562 217.713 71.175C219.027 76.9861 219.523 82.9194 219.126 88.8298C195.996 88.6618 172.897 89.6775 149.889 91.8232C147.842 91.64 145.796 91.4414 143.749 91.22C141.909 91.0214 140.611 91.7239 139.84 92.8236C135.441 93.297 131.043 93.8086 126.652 94.3661C123.231 94.1293 119.81 93.7857 116.389 93.3123C113.716 92.9381 111.089 93.9613 110.28 96.7791C109.616 99.0928 111.097 102.514 113.747 102.888C114.633 103.01 115.518 103.117 116.404 103.224C117.603 104.728 119.642 105.217 121.65 104.942C123.575 104.675 125.506 104.423 127.431 104.179C140.863 104.889 154.257 104.079 167.643 102.888C168.735 102.926 169.827 102.949 170.919 102.98C169.773 104.201 169.407 106.019 169.659 107.806C169.666 107.874 169.674 107.943 169.682 108.012C169.567 108.806 169.682 109.6 169.98 110.333C170.766 116.984 171.049 123.681 170.919 130.371C169.445 132.089 169.033 134.639 170.995 136.701C168.124 136.701 165.26 136.861 162.42 137.19C161.427 135.388 159.472 134.059 156.922 134.494C152.737 135.204 148.728 136.334 144.788 137.915C142.146 138.977 141.031 141.535 141.405 143.772C140.886 144.284 140.489 144.948 140.313 145.765C124.804 144.902 109.333 143.459 93.9309 141.42C91.2506 141.069 88.9903 143.955 88.9674 146.384C88.9369 149.354 91.2812 150.996 93.9309 151.347C96.2981 151.66 98.6577 151.958 101.025 152.241C101.117 152.668 101.262 153.096 101.445 153.501C97.5658 155.952 100.3 163.359 105.851 162.404C107.875 162.061 109.906 161.732 111.929 161.396C121.559 159.93 131.257 159.083 140.993 158.808C141.13 160.801 141.268 162.794 141.397 164.787C141.344 167.337 141.291 169.88 141.245 172.431C140.871 173.087 140.649 173.874 140.649 174.813C138.144 176.356 137.213 179.998 138.847 182.159C132.379 182.182 125.934 182.625 119.489 183.091C106.576 182.213 93.6408 182.06 80.728 182.633C73.4279 181.663 66.1811 180.151 58.9954 178.051C53.1003 176.325 50.4506 185.061 55.6584 187.359C53.8869 187.611 52.1153 187.917 50.3513 188.283C45.4718 189.284 46.0521 194.828 49.2593 197.095C49.9695 198.699 51.4586 199.906 53.612 199.799C57.7584 199.592 61.8973 199.386 66.0437 199.18C80.8884 199.89 95.779 199.234 110.616 198.249C130.142 196.95 149.652 195.469 169.17 194.072C173.653 193.751 175.004 188.726 173.118 185.954C173.355 185.954 173.591 185.954 173.828 185.954C174.836 186.634 176.111 186.97 177.585 186.703C179.456 186.367 181.327 186.031 183.198 185.695C185 185.626 186.802 185.55 188.604 185.473C195.943 185.152 203.281 184.824 210.612 184.503C212.696 184.633 214.766 184.626 216.759 184.236C223.15 183.954 229.542 183.671 235.933 183.389C242.294 183.106 242.332 173.179 235.933 173.462C234.826 173.507 233.711 173.561 232.604 173.607C233.65 173.072 234.49 172.087 234.826 170.544C236.261 163.954 237.025 157.273 237.04 150.53C237.04 149.637 236.85 148.873 236.514 148.232C246.616 147.063 256.726 146.009 266.86 145.116C272.594 144.612 273.19 136.388 268.417 135.296L268.425 135.304ZM219.454 166.154C219.202 166.963 219.149 167.704 219.248 168.376C215.109 169.766 210.795 170.659 206.48 171.461C194.599 170.644 182.717 171.102 170.873 172.828C164.558 172.942 158.243 173.248 151.935 173.729C151.897 173.225 151.867 172.721 151.828 172.217C151.989 169.422 152.088 166.627 152.103 163.825C152.63 162.74 152.775 161.427 152.592 160.136C152.477 159.342 152.371 158.548 152.256 157.754C154.218 156.234 154.608 153.233 153.44 151.126C153.47 150.454 153.363 149.782 153.127 149.163C155.234 148.568 157.357 148.071 159.503 147.682C160.885 147.628 162.267 147.552 163.642 147.46C164.26 147.743 164.978 147.903 165.81 147.888C183.022 147.605 200.287 147.552 217.538 147.239C218.21 148.56 219.431 149.675 220.844 149.95C220.829 150.37 220.852 150.797 220.913 151.217C221.631 156.28 220.982 161.297 219.447 166.146L219.454 166.154ZM179.28 137.778C180.105 136.93 180.655 135.777 180.716 134.425C180.716 134.311 180.716 134.204 180.724 134.089C181.357 133.333 181.785 132.348 181.846 131.119C182.167 125.102 181.976 119.138 181.38 113.182C181.609 112.8 181.8 112.372 181.945 111.883C182.732 109.111 189.101 108.76 192.964 108.615C193.995 109.356 195.355 109.692 196.951 109.287C202.128 107.974 207.389 108.585 212.635 109.173C217.79 109.753 222.952 110.242 228.129 110.555C238.026 111.158 247.937 111.189 257.841 110.73C257.521 111.677 257.452 112.739 257.612 113.792C257.673 114.174 257.719 114.564 257.773 114.946C257.49 117.275 257.208 119.611 256.917 121.94C256.765 123.17 257.284 124.3 258.116 125.178C258.238 128.706 258.353 132.241 258.475 135.769C232.146 137.419 205.679 137.48 179.28 137.778Z" fill="#233244"></path><path d="M109.608 118.252C109.852 119.825 109.623 121.513 109.463 123.086C109.257 125.102 108.974 127.11 108.806 129.134C108.554 132.234 108.241 136.525 111.021 138.648C113.8 140.771 117.725 140.435 120.894 140.061C124.781 139.603 128.569 138.664 132.387 137.839C137.03 136.838 141.924 136.64 146.743 136.38C151.813 136.105 156.914 135.777 161.954 136.518C164.978 136.961 168.712 137.801 171.316 135.685C173.92 133.57 173.897 129.882 174.561 126.927C175.34 123.452 176.15 119.97 176.486 116.419C176.745 113.724 176.929 109.974 174.737 107.951C174.248 107.5 173.668 107.187 173.034 106.996C171.621 106.553 171.018 108.768 172.423 109.203C173.271 109.47 173.729 110.204 174.004 111.166C174.378 112.494 174.355 113.915 174.279 115.282C174.088 118.634 173.332 121.94 172.599 125.209C172.316 126.461 172.019 127.713 171.789 128.973C171.515 130.493 171.354 132.188 170.346 133.433C168.605 135.586 164.986 134.67 162.664 134.326C160.877 134.067 159.083 133.799 157.273 133.761C154.501 133.7 151.699 133.853 148.927 133.975C143.872 134.204 138.664 134.372 133.677 135.25C130.363 135.831 127.11 136.724 123.804 137.32C120.497 137.915 116.931 138.541 113.778 137.526C112.502 137.113 111.655 136.35 111.288 135.044C110.776 133.227 110.922 131.226 111.067 129.37C111.364 125.522 112.395 121.497 111.8 117.641C111.578 116.19 109.371 116.809 109.593 118.252H109.608Z" fill="black"></path><path d="M114.419 108.829C119.924 111.341 126.476 110.715 132.349 110.44C135.327 110.303 138.305 110.165 141.283 110.387C145.261 110.692 149.247 110.967 153.241 111.097C157.724 111.242 162.214 111.196 166.681 110.799C168.139 110.669 168.154 108.378 166.681 108.508C158.884 109.203 151.042 108.821 143.253 108.249C140.229 108.027 137.259 107.943 134.227 108.065C131.195 108.188 128.004 108.394 124.888 108.363C121.772 108.333 118.458 108.157 115.587 106.851C114.258 106.24 113.09 108.218 114.434 108.829H114.419Z" fill="black"></path><path d="M181.106 113.052C181.075 117.382 179.8 121.581 178.861 125.774C178.54 127.209 180.747 127.82 181.067 126.385C182.053 121.994 183.366 117.588 183.396 113.052C183.404 111.578 181.113 111.578 181.106 113.052Z" fill="black"></path><path d="M179.074 130.363C179.372 133.181 180.143 136.258 182.885 137.648C185.626 139.038 188.955 138.786 191.895 138.862C201.922 139.137 211.925 139.565 221.959 139.496C231.474 139.435 241.019 139.656 250.503 138.74C252.908 138.511 255.36 138.243 257.696 137.602C259.01 137.235 260.98 136.625 261.324 135.074C261.644 133.639 259.437 133.028 259.117 134.464C259.048 134.761 259.155 134.372 259.124 134.464C259.056 134.7 259.269 134.288 259.101 134.494C259.04 134.57 258.75 134.769 259.04 134.563C258.941 134.632 258.834 134.7 258.727 134.761C258.254 135.006 257.834 135.174 257.085 135.38C255.199 135.899 253.237 136.151 251.297 136.357C246.066 136.915 240.782 137.06 235.521 137.151C223.112 137.358 210.696 137.174 198.287 136.762C195.652 136.678 193.018 136.594 190.376 136.525C188.78 136.479 187.146 136.487 185.58 136.159C184.496 135.93 183.442 135.533 182.724 134.647C181.777 133.478 181.503 131.814 181.35 130.363C181.197 128.912 178.906 128.897 179.059 130.363H179.074Z" fill="black"></path><path d="M261.438 134.777C261.003 127.843 259.453 120.986 259.582 114.014C259.613 112.54 257.322 112.54 257.292 114.014C257.162 120.986 258.712 127.843 259.147 134.777C259.239 136.243 261.53 136.25 261.438 134.777Z" fill="black"></path><path d="M192.834 106.783C206.77 105.965 220.691 106.935 234.574 108.111C238.506 108.447 242.447 108.783 246.379 109.104C247.845 109.218 247.838 106.928 246.379 106.813C232.543 105.706 218.721 104.247 204.823 104.179C200.822 104.163 196.821 104.263 192.827 104.492C191.361 104.576 191.353 106.867 192.827 106.783H192.834Z" fill="black"></path><path d="M157.166 146.391C166.07 145.872 174.981 146.475 183.885 146.429C187.963 146.407 192.025 146.193 196.08 145.78C200.135 145.368 203.96 144.918 207.916 144.704C212.177 144.482 216.507 144.52 220.661 145.597C222.089 145.971 222.7 143.757 221.272 143.39C213.697 141.428 205.671 142.489 198.004 143.291C193.919 143.719 189.849 144.039 185.741 144.116C181.296 144.192 176.844 144.07 172.4 143.978C167.314 143.871 162.229 143.81 157.158 144.108C155.692 144.192 155.685 146.483 157.158 146.399L157.166 146.391Z" fill="black"></path><path d="M221.699 145.001C222.096 151.53 222.661 158.075 222.638 164.626C222.638 165.405 222.623 166.184 222.57 166.963C222.554 167.246 222.532 167.528 222.493 167.811C222.524 167.574 222.432 168.101 222.394 168.223C221.989 169.643 224.196 170.247 224.601 168.834C224.899 167.788 224.891 166.619 224.914 165.535C224.952 163.802 224.906 162.068 224.845 160.343C224.715 156.517 224.486 152.691 224.242 148.865C224.158 147.582 224.066 146.292 223.99 145.009C223.898 143.543 221.608 143.535 221.699 145.009V145.001Z" fill="black"></path><path d="M152.18 151.928C150.324 158.724 152.134 165.558 152.821 172.37C152.882 172.996 153.295 173.5 153.967 173.515C162.458 173.675 171.003 173.042 179.471 172.545C190.017 171.927 200.562 171.209 211.1 170.483C215.232 170.201 219.363 169.911 223.494 169.666C224.96 169.575 224.968 167.284 223.494 167.375C214.949 167.887 206.412 168.521 197.867 169.094C187.344 169.796 176.814 170.483 166.268 170.942C162.175 171.117 158.06 171.3 153.959 171.224L155.104 172.37C154.44 165.795 152.592 159.083 154.379 152.531C154.768 151.103 152.561 150.5 152.172 151.92L152.18 151.928Z" fill="black"></path><path d="M131.807 92.1134C140.474 92.1363 149.125 92.5181 157.785 92.625C162.16 92.6785 166.543 92.6632 170.919 92.4952C175.294 92.3273 179.349 91.9073 183.572 91.6018C187.795 91.2964 191.796 91.1513 195.912 91.0902C199.936 91.0291 203.945 90.9756 207.947 91.3498C211.268 91.6629 214.682 91.9913 218.004 91.4185C219.806 91.1055 220.615 89.9753 221.127 88.3106C221.638 86.6459 222.142 85.1187 222.379 83.4693C222.692 81.3388 222.631 79.2083 222.425 77.0778C222.013 72.7863 221.165 68.4642 222.471 64.2414C222.906 62.8287 220.699 62.2255 220.264 63.6305C218.026 70.8849 221.738 78.3531 219.538 85.5921C219.248 86.5467 219.057 87.5852 218.645 88.5015C218.477 88.8757 218.362 88.9902 217.82 89.12C215.003 89.7844 211.834 89.4179 208.993 89.1506C201.112 88.4175 193.079 88.7001 185.183 89.1964C181.052 89.456 176.936 89.9066 172.797 90.1127C168.613 90.3189 164.421 90.3724 160.228 90.3495C150.752 90.296 141.283 89.8455 131.807 89.8149C130.333 89.8149 130.333 92.0982 131.807 92.1058V92.1134Z" fill="black"></path><path d="M129.286 90.0517C128.576 86.6994 127.752 83.286 127.744 79.8421C127.744 77.4062 128.271 74.8404 130.386 73.3514C131.738 72.3968 133.402 71.9616 135.021 71.7401C137.595 71.3812 140.26 71.4576 142.848 71.4194C145.727 71.3736 148.598 71.3354 151.477 71.2209C154.165 71.114 156.868 70.7551 159.556 70.7703C165.115 70.7933 170.888 72.1678 176.31 70.3885C177.707 69.9304 177.104 67.7159 175.699 68.1817C170.705 69.8158 165.306 68.6017 160.182 68.4871C157.281 68.426 154.379 68.8155 151.477 68.93C148.575 69.0446 145.475 69.0751 142.474 69.1286C138.221 69.2049 133.12 68.8155 129.378 71.2743C126.805 72.9696 125.69 75.7262 125.491 78.712C125.224 82.7133 126.255 86.7758 127.08 90.6549C127.385 92.0982 129.592 91.4873 129.286 90.044V90.0517Z" fill="black"></path><path d="M218.339 68.2275C208.29 68.2046 198.187 67.6853 188.413 65.1806C186.985 64.8141 186.374 67.021 187.802 67.3875C197.775 69.938 208.091 70.4878 218.339 70.5107C219.813 70.5107 219.813 68.2275 218.339 68.2198V68.2275Z" fill="black"></path><path d="M44.8838 158.426C50.0993 160.228 55.9181 159.785 61.3322 159.465C67.5709 159.09 73.802 159.113 80.0484 158.907C86.8599 158.686 93.6637 158.617 100.475 158.579C106.706 158.548 112.93 158.289 119.161 158.281C126.056 158.273 133.013 158.502 139.786 159.877L138.984 158.464C138.511 160.167 138.435 162 138.351 163.756C138.251 166.001 138.236 168.246 138.16 170.491C138.083 172.736 138.007 174.836 137.633 176.967C137.488 177.807 137.304 178.662 136.984 179.456C136.785 179.937 136.411 180.525 136.228 180.663C135.197 181.464 133.211 181.518 131.837 181.594C129.515 181.724 127.179 181.648 124.857 181.541C120.497 181.342 116.099 181.167 111.754 180.762C104.889 180.12 97.5047 178.845 90.7925 181.098C89.4027 181.564 89.9984 183.778 91.4034 183.305C97.5047 181.258 104.255 182.312 110.509 182.93C115.076 183.381 119.688 183.572 124.277 183.801C126.652 183.923 129.034 184.007 131.409 183.9C133.219 183.824 135.235 183.725 136.892 182.923C138.305 182.236 139.015 180.747 139.443 179.311C140.031 177.318 140.206 175.18 140.328 173.118C140.496 170.461 140.504 167.803 140.588 165.138C140.649 163.13 140.641 161.022 141.191 159.075C141.352 158.51 141 157.792 140.389 157.662C128.248 155.196 115.709 156.059 103.407 156.242C96.7411 156.341 90.09 156.265 83.4237 156.486C79.9721 156.601 76.5205 156.723 73.0613 156.777C70.0603 156.822 67.0745 156.815 64.0735 156.983C57.9951 157.334 51.367 158.22 45.4795 156.196C44.0821 155.715 43.4864 157.93 44.8686 158.403L44.8838 158.426Z" fill="black"></path><path d="M47.6633 160.358C47.0754 168.674 49.6259 176.799 49.5037 185.099C49.4961 185.702 50.0382 186.267 50.6491 186.245C54.8948 186.069 59.5071 186.092 63.5695 187.497C64.967 187.978 65.5625 185.771 64.1804 185.29C59.9423 183.824 55.0857 183.77 50.6491 183.954L51.7945 185.099C51.9167 176.799 49.3662 168.674 49.9542 160.358C50.0611 158.884 47.7626 158.892 47.6633 160.358Z" fill="black"></path></g></svg> 