<?xml version="1.0" encoding="UTF-8"?> <svg xmlns="http://www.w3.org/2000/svg" width="30" height="30" viewBox="0 0 30 30" fill="none"><path d="M14.2556 0.00936833C10.2356 0.227219 6.53176 1.99703 3.84075 4.98752C1.04919 8.09144 -0.316428 12.2036 0.0619955 16.3662C0.31245 19.1262 1.32889 21.7638 2.99981 23.9891C4.38553 25.8363 6.17711 27.3415 8.24107 28.3893C11.9449 30.2726 16.3105 30.5156 20.2336 29.0591C21.9027 28.4379 23.4566 27.5179 24.8021 26.3495C25.3725 25.8544 25.5188 25.6581 25.5992 25.2782C25.7345 24.6391 25.3707 23.9675 24.7583 23.7299C24.5188 23.6362 24.2829 23.6128 24.0343 23.656C23.7418 23.7083 23.559 23.8091 23.2263 24.1061C22.0106 25.1864 20.7272 25.9606 19.2611 26.5025C16.7693 27.4225 14.0491 27.5089 11.4897 26.7474C9.59206 26.182 7.8535 25.1558 6.4495 23.7749C6.01806 23.35 5.87181 23.1843 5.89557 23.1483C5.90471 23.1321 7.33614 20.8654 9.07287 18.1126C10.8096 15.3597 12.2429 13.0948 12.2557 13.0804C12.2776 13.0588 12.2812 13.4603 12.2812 15.601C12.2812 17.2196 12.2886 18.2242 12.2995 18.3556C12.4366 19.8356 13.0034 20.689 14.0143 20.9338C14.2136 20.9824 14.581 20.986 14.7785 20.9428C15.4476 20.7952 16.0691 20.3199 16.6669 19.5007C16.7986 19.3188 17.3781 18.4024 19.8552 14.4487C20.2665 13.7898 20.6468 13.1902 20.698 13.1164L20.7912 12.9814L20.8022 14.6918C20.8095 15.8674 20.8186 16.458 20.8351 16.5822C20.9411 17.4392 21.1367 18.0928 21.4713 18.7157C21.932 19.5709 22.6468 20.2371 23.4877 20.5935C24.7674 21.1373 26.2354 21.0418 27.4145 20.3379C28.2573 19.8356 28.8898 19.1478 29.3469 18.2386C29.5827 17.7687 29.7162 17.3978 29.8332 16.8793C29.9611 16.3175 29.9959 15.9269 29.9995 15.0068C30.0032 14.2741 29.9867 13.9806 29.9136 13.3235C29.5717 10.2951 28.3067 7.43789 26.2884 5.13155C23.8003 2.2869 20.3397 0.479277 16.6231 0.0831854C16.4421 0.0633808 16.1752 0.038175 16.0289 0.0273725C15.6633 0.00036625 14.6213 -0.00863583 14.2556 0.00936833ZM15.837 2.7478C18.7236 2.94405 21.4201 4.14493 23.5133 6.16679C25.6303 8.21027 26.9301 10.8911 27.2171 13.8006C27.2811 14.4559 27.2957 15.5236 27.2445 15.898C27.1714 16.449 26.9977 16.9333 26.7363 17.3114C26.5974 17.5112 26.3067 17.7903 26.1019 17.9217C25.7893 18.1198 25.5206 18.2008 25.1696 18.199C24.2976 18.1936 23.7564 17.6138 23.5681 16.4832C23.5389 16.3139 23.5352 16.0619 23.5243 14.1606C23.5133 12.1028 23.5115 12.0181 23.4731 11.7895C23.3469 11.0135 23.1056 10.4806 22.6925 10.0593C22.4329 9.79283 22.1385 9.61999 21.7839 9.52277C21.5535 9.45976 21.1733 9.44355 20.9411 9.48676C20.1221 9.6398 19.3397 10.2789 18.5353 11.451C18.3324 11.7481 18.2666 11.8525 17.1349 13.6565C16.7657 14.2453 16.1386 15.2481 15.7401 15.8836C15.3397 16.521 15.0088 17.0413 15.0015 17.0413C14.9942 17.0413 14.9851 15.5488 14.9814 13.7231C14.9759 10.6102 14.9741 10.3942 14.943 10.2087C14.8333 9.56058 14.645 9.11948 14.3379 8.799C14.1734 8.62616 14.0399 8.53074 13.8278 8.43532C13.0893 8.10044 12.305 8.32009 11.656 9.04206C11.4604 9.25811 11.316 9.46696 10.8425 10.2177C10.6012 10.5994 9.62862 12.1388 8.67982 13.6385C7.73102 15.1383 6.86266 16.512 6.74931 16.6902C6.63779 16.8685 6.3782 17.2772 6.17528 17.5994C5.79502 18.2008 5.63598 18.4528 4.71277 19.913C4.41844 20.3775 4.1753 20.7628 4.17164 20.7664C4.16067 20.7772 3.87183 20.1812 3.74569 19.8896C3.20456 18.6347 2.91023 17.4464 2.77129 15.9611C2.73656 15.5776 2.74204 14.3911 2.78043 13.9626C2.8499 13.2262 2.95045 12.6213 3.11498 11.9731C3.9998 8.48933 6.38186 5.55465 9.61217 3.96848C11.188 3.19611 12.8151 2.79101 14.6395 2.7208C14.8681 2.71359 15.5445 2.728 15.837 2.7478Z" fill="white"></path></svg> 