<?xml version="1.0" encoding="UTF-8"?> <svg xmlns="http://www.w3.org/2000/svg" width="472" height="527" viewBox="0 0 472 527" fill="none"><path d="M15.9034 12.8161C17.3493 12.5359 18.7951 12.3062 20.241 12.1269C20.4259 12.5191 20.6893 12.8834 21.0872 13.2029C24.8811 16.2739 28.9665 15.9713 33.5842 15.6238C38.5998 15.2427 43.6211 14.9513 48.6479 14.7496C56.9195 15.1811 65.1798 15.8816 73.4122 16.8567C73.3785 17.8878 73.3449 18.919 73.3169 19.9501C72.5827 24.8088 72.4202 29.746 72.8573 34.6663C73.2664 39.2785 79.9913 39.4242 80.1426 34.6663C80.165 33.9995 80.1819 33.3382 80.2043 32.6769C80.5405 32.6881 80.8936 32.6881 81.269 32.6601C85.9148 32.3014 85.954 25.0106 81.269 25.3748C81.4371 25.3636 81.3363 24.4446 81.3755 23.7161C81.4484 22.4159 81.6333 21.1102 81.7678 19.81C81.9583 17.9383 82.1489 16.0665 82.3394 14.1948C85.2087 12.5808 84.6819 7.53156 80.6358 7.39707C79.2011 7.34663 77.7665 7.30735 76.3262 7.27373C76.4607 7.2401 76.5953 7.21773 76.7241 7.18411C81.2746 6.0577 79.3468 -0.969801 74.7851 0.156612C70.0217 1.33346 64.8716 0.963628 59.9961 1.03088C54.6722 1.10933 49.3484 1.18214 44.0245 1.26059C34.4752 1.39509 24.1358 0.599346 15.074 4.16352C14.0317 4.57262 13.3536 5.29554 12.9837 6.13055C9.71095 7.78374 11.6892 13.6455 15.9034 12.8217V12.8161Z" fill="#233244"></path><path d="M7.99582 31.8027C8.75797 27.3251 9.2063 22.8362 9.29596 18.3194C9.80033 17.574 10.0413 16.6213 9.81153 15.5061C9.58176 14.4077 9.352 13.3037 9.11663 12.2053C8.27602 8.19843 1.79216 9.07826 1.96029 13.1748C2.19566 18.7677 1.90984 24.3437 0.968358 29.8637C0.189395 34.4478 7.20565 36.4204 7.99582 31.8027Z" fill="#233244"></path><path d="M118.088 29.3816C118.502 30.7153 119.612 31.8193 121.411 31.8585C138.694 32.2452 156.363 33.5229 173.568 31.1244C173.366 31.5671 173.237 32.0939 173.215 32.6935C173.136 34.7334 173.17 36.7621 173.299 38.7795C173.08 41.5199 172.503 44.2042 171.533 46.9054C169.947 51.327 176.986 53.2324 178.561 48.8444C178.611 48.7099 178.65 48.5698 178.695 48.4353C180.035 47.9141 181.183 46.7317 181.318 45.1345C181.75 39.9788 181.867 34.8287 181.682 29.6786C183.223 29.191 183.896 27.9525 183.901 26.6412C183.991 26.6412 184.081 26.6299 184.17 26.6243C185.134 26.6131 186.098 26.5964 187.062 26.5851C191.753 26.5179 191.753 19.4008 187.062 19.2999C186.07 19.2775 185.084 19.2999 184.103 19.3447C182.96 19.3615 181.811 19.3783 180.668 19.3951C179.805 17.5122 177.731 16.6884 175.574 17.7027C168.389 21.0876 159.249 19.2663 151.583 19.3615C147.173 19.4176 142.768 19.6361 138.374 20.0228C135.679 20.2582 133.168 20.4151 131.072 21.6368C127.357 22.0963 123.68 22.8584 120.083 23.9064C117.393 24.691 117 27.5266 118.088 29.3927V29.3816Z" fill="#233244"></path><path d="M208.133 64.1997H208.161C208.178 64.5079 208.212 64.8273 208.262 65.1692C208.425 66.1723 209.17 66.9569 210.084 67.3996C210.689 67.96 211.485 68.3074 212.437 68.3074C214.32 68.3074 216.198 66.6374 216.08 64.6648C216.091 64.407 216.08 64.2781 216.063 64.2837C216.08 64.2333 216.085 64.1997 216.097 64.1717C216.17 64.0932 216.27 63.9307 216.024 64.1044C216.024 64.1044 216.024 64.1044 216.024 64.0988C216.567 63.6673 217.021 63.1405 217.324 62.5633H217.498C217.251 64.5471 218.406 66.7271 220.978 66.7047L250.209 66.4749C254.776 66.4413 259.388 66.2227 263.95 66.4525C267.452 66.6262 271.235 67.4332 273.331 70.4258C273.93 76.1868 274.087 81.9869 273.835 87.7871C273.734 90.0736 276.256 92.0238 278.447 91.3009C279.82 90.8469 281.193 90.393 282.566 89.9391C286.792 88.5381 285.256 82.0654 281.221 82.7715C281.221 78.2378 280.969 73.7266 280.482 69.2209C280.493 68.9015 280.459 68.5708 280.37 68.2346C280.291 67.5789 280.201 66.9233 280.117 66.2676C283.76 66.3629 285.004 60.3889 280.952 59.044C278.856 58.3491 276.732 57.8055 274.586 57.3795C275.287 56.0458 275.567 54.4655 275.595 52.8795C275.628 50.9181 275.511 48.9343 275.365 46.9504C276.805 46.984 278.285 46.8216 279.691 46.5862C281.535 46.2836 283.373 46.0314 285.217 45.824C285.817 46.362 286.59 46.6871 287.492 46.6198C292.183 46.2948 296.879 45.9697 301.57 45.6503C306.311 46.2107 310.956 47.3203 315.72 47.6958C318.124 47.8863 320.422 47.6285 322.523 46.8944C323.975 47.3876 325.678 47.0569 326.676 45.3477C327.006 44.7817 327.404 44.1876 327.757 43.588C328.144 43.1957 328.514 42.7698 328.867 42.3215C329.551 42.5288 330.784 42.2991 331.473 42.3159C332.594 42.3439 333.714 42.3663 334.835 42.3943C338.943 42.4896 343.051 42.5793 347.159 42.6745C355.374 42.8595 363.59 43.05 371.805 43.2349C373.307 43.2686 374.372 42.4448 374.927 41.3464C375.711 41.4136 376.496 41.4809 377.28 41.5593C381.943 42.0245 381.909 34.7336 377.28 34.2741C370.477 33.596 363.662 33.2766 356.837 33.3046C354.55 33.1813 352.247 33.2093 349.916 33.4559C349.843 33.4559 349.77 33.4559 349.697 33.4615C349.697 33.4671 349.697 33.4727 349.697 33.4783C349.372 33.5119 349.053 33.5456 348.728 33.5904C347.523 33.7529 346.766 34.4646 346.391 35.3725L343.23 35.2996C338.562 35.1931 333.894 35.0474 329.226 34.9802C327.287 34.9522 325.415 34.9914 323.863 36.3252C323.666 36.4933 323.481 36.6726 323.308 36.8687C319.11 37.1602 314.913 37.446 310.715 37.7374C310.29 36.454 309.186 35.4397 307.403 35.4957C301.519 35.6863 295.764 36.3084 290.233 38.0736C288.316 38.1633 286.399 38.3202 284.494 38.5444C282.947 38.7237 275.191 40.814 274.424 39.3906C272.748 36.2803 267.424 37.6141 267.637 41.2287C267.66 41.6042 267.682 41.9796 267.704 42.3551C267.682 42.3775 267.66 42.3944 267.643 42.4168C266.006 42.753 264.448 44.0419 264.32 45.9249C264.084 49.2985 263.849 52.6721 263.613 56.0458C261.047 55.8945 258.469 55.8216 255.897 55.7824C257.813 52.7394 254.585 48.0152 251.256 50.537C248.981 52.2631 245.54 51.6522 242.839 51.6578C239.393 51.6634 235.941 51.669 232.494 51.6746C225.596 51.6858 218.697 51.697 211.804 51.7083C208.862 51.7083 207.769 54.5831 208.526 56.7183C208.296 57.189 208.167 57.7158 208.161 58.265C208.15 60.2544 208.145 62.2383 208.133 64.2277V64.1997Z" fill="#233244"></path><path d="M205.606 256.178C206.161 257.069 207.142 257.668 208.571 257.556C212.835 257.214 217.106 256.839 221.376 256.497C221.981 257.108 222.799 257.495 223.825 257.506C224.85 257.517 225.988 256.945 226.722 256.093C229.832 255.875 232.937 255.684 236.053 255.561C244.431 255.23 253.437 256.716 261.529 254.026C264.555 253.017 265.071 249.116 262.397 247.368C260.576 246.174 258.547 245.804 256.468 245.765C258.525 245.541 260.571 245.194 262.588 244.678C264.387 244.219 265.183 242.89 265.199 241.501C266.057 241.932 266.892 242.42 267.693 243.002C270.764 245.216 273.723 241.54 272.776 238.603C275.337 236.872 274.642 232.327 270.781 231.974C260.369 231.015 249.928 231.139 239.572 232.271C237.039 232.136 234.512 231.962 231.984 231.749C228.88 231.486 225.108 230.847 222.771 233.52C222.754 233.543 222.738 233.565 222.721 233.582C221.006 233.694 219.336 234.865 219.241 237.085C219.073 240.89 219.14 244.672 219.431 248.45C219.364 248.45 219.291 248.461 219.224 248.466C214.595 248.203 209.859 247.43 205.673 249.834C203.275 251.207 203.527 254.9 205.612 256.183L205.606 256.178ZM227.686 243.86C235.425 244.908 243.422 246.202 251.268 246.073C250.954 246.101 250.64 246.129 250.332 246.152C248.275 246.303 246.219 246.455 244.162 246.611C243.4 246.045 242.408 245.76 241.242 245.978C238.575 246.488 235.902 246.993 233.217 247.418C231.25 247.564 229.278 247.71 227.31 247.856C227.389 246.522 227.512 245.188 227.68 243.854L227.686 243.86Z" fill="#233244"></path><path d="M346.643 166.995C346.766 168.558 346.884 170.116 347.007 171.68C347.366 176.326 354.657 176.365 354.292 171.68C354.152 169.898 354.018 168.121 353.878 166.339L355.111 161.161C355.167 160.914 355.2 160.679 355.211 160.449C355.604 160.449 355.99 160.449 356.383 160.455C357.201 160.455 357.873 160.242 358.406 159.878C373.912 158.499 389.458 157.731 405.02 157.574C405.463 159.099 406.914 159.962 408.523 160.175C408.814 160.214 409.1 160.242 409.391 160.281C409.291 163.526 409.324 166.771 409.487 170.021C406.276 169.931 403.064 169.83 399.853 169.696C398.542 169.64 397.6 170.172 397.023 170.962C390.797 170.895 384.554 170.968 378.418 172.162C375.162 172.795 372.601 174.017 372.444 177.682C372.281 181.375 372.707 185.197 372.831 188.89C372.993 193.564 380.278 193.586 380.116 188.89C380.009 185.813 379.589 182.496 379.662 179.329C380.217 179.212 380.772 179.1 381.326 179.004C382.313 178.836 383.293 178.707 384.291 178.606C386.605 178.371 388.931 178.276 391.257 178.237C395.768 178.158 400.279 178.337 404.79 178.321C408.881 178.304 412.967 178.091 417.013 177.48C421.401 177.553 425.789 177.592 430.177 177.586C431.202 177.586 432.004 177.233 432.581 176.684C434.912 176.432 437.103 173.933 435.596 171.243C431.886 164.63 424.634 168.345 419.12 169.679C419.025 166.81 418.929 163.941 418.834 161.077C422.684 161.234 426.534 161.189 430.39 160.926C436.801 160.477 444.254 157.967 450.424 160.517C452.257 161.273 454.409 159.693 454.907 157.972C455.261 156.745 454.941 155.675 454.252 154.845C455.513 155.047 456.768 155.316 458.006 155.675C462.518 156.98 464.446 149.953 459.945 148.647C448.463 145.324 435.999 148.204 424.421 149.65C422.824 149.852 421.132 150.02 419.479 150.323C418.834 150.312 418.184 150.306 417.54 150.3C416.817 149 415.623 148.115 413.589 148.193C412.065 148.255 410.961 149.062 410.383 150.267C409.879 150.267 409.38 150.278 408.876 150.278C405.979 147.594 402.022 147.061 398.144 147.291C393.246 147.582 388.376 148.109 383.473 148.317C381.522 148.401 379.572 148.451 377.622 148.485C378.25 147.907 378.698 147.1 378.81 146.064C379.107 142.606 379.404 139.154 379.696 135.696C379.74 135.186 379.824 134.654 379.88 134.121C380.587 134.166 381.293 134.133 381.948 134.054C388.415 133.275 394.877 132.401 401.35 131.656C403.076 131.577 404.796 131.504 406.522 131.443C420.717 130.961 434.923 131.263 449.085 132.289C453.165 132.586 454.056 126.007 450.054 125.133C438.482 122.616 426.646 122.28 414.861 123.081C410.299 123.39 405.749 123.855 401.209 124.376C400.952 124.387 400.7 124.393 400.442 124.41C396.39 124.611 392.344 124.869 388.298 125.194C384.61 125.491 380.189 125.301 376.641 126.371C374.299 127.077 373.397 128.73 372.971 130.681C371.581 131.067 370.365 132.255 370.163 134.093C369.631 138.879 369.356 143.676 369.322 148.485C363.494 148.395 357.666 148.115 351.849 147.638C348.756 147.386 347.719 150.491 348.728 152.732C347.489 152.878 346.363 153.685 345.948 155.322C344.967 159.239 345.107 163.246 346.648 166.995H346.643Z" fill="#233244"></path><path d="M205.892 353.834C205.942 355.459 206.755 356.512 207.819 357.011C208.083 361.506 215.166 361.461 215.093 356.826C215.026 352.578 214.959 348.33 214.892 344.083C218.753 343.416 222.58 342.407 226.408 341.449L253.588 342.754C258.273 342.979 258.261 335.693 253.588 335.469C252.551 335.419 251.514 335.368 250.483 335.318C250.382 333.67 249.2 332.051 246.98 331.782C241.713 331.143 236.619 331.832 231.581 332.919C227.512 333.222 223.438 333.519 219.369 333.822C217.453 333.962 216.315 335.189 215.968 336.601C215.553 336.68 215.133 336.752 214.718 336.82C214.051 333.054 208.677 333.16 207.651 336.764C206.766 337.335 206.11 338.294 206.043 339.633C205.802 344.363 205.751 349.093 205.892 353.828V353.834Z" fill="#233244"></path><path d="M204.261 504.762C205.057 506.639 207.606 506.942 209.316 506.023C211.44 506.841 214.427 505.759 214.511 502.772C214.634 498.491 214.337 494.254 213.687 490.04C213.799 490.04 213.911 490.04 214.023 490.04C213.95 490.589 213.956 491.172 214.062 491.783C214.875 496.434 219.364 495.868 222.81 494.932C225.926 494.086 229.098 493.486 232.298 493.094C237.868 493.257 243.444 493.072 248.992 492.539C252.809 492.668 256.625 492.932 260.436 493.234C260.559 494.221 260.705 495.201 260.789 496.143C260.901 497.443 261.013 498.743 261.125 500.038C250.421 499.376 239.712 499.516 229.014 501.355C225.618 501.937 225.864 506.393 228.145 508.012C228.168 508.029 228.19 508.04 228.213 508.057C228.218 508.27 228.235 508.488 228.263 508.707C228.655 511.565 229.042 514.423 229.434 517.281C229.434 517.517 229.417 517.752 229.423 517.993C229.429 518.492 229.535 518.946 229.714 519.355C229.894 520.649 230.068 521.949 230.247 523.244C230.516 525.211 233.01 526.242 234.73 525.788C236.837 525.233 237.538 523.25 237.274 521.305C237.112 520.1 236.944 518.89 236.781 517.685C236.944 516.435 237.005 515.213 236.96 514.008C237.134 512.764 237.403 511.537 237.779 510.332C238.025 510.321 238.272 510.31 238.518 510.299C242.878 510.046 247.216 509.665 251.587 509.525C256.569 509.368 261.557 509.385 266.539 509.553C267.239 509.929 268.097 510.08 269.077 509.85C269.346 509.789 269.61 509.744 269.873 509.693C273.034 509.845 276.189 510.058 279.344 510.332C280.487 510.433 281.361 510.03 281.95 509.374C285.733 509.861 289.498 510.371 293.253 510.859C295.22 511.117 296.879 509.004 296.896 507.216C296.918 505.036 295.198 503.826 293.253 503.574C285.01 502.503 276.744 501.383 268.466 500.615C268.265 498.222 268.057 495.823 267.844 493.43C270.4 492.186 270.316 487.513 267.093 486.565C266.981 486.532 266.864 486.504 266.752 486.47C265.855 484.369 264.146 483.057 261.114 483.506C259.119 483.803 257.135 484.083 255.157 484.346C249.855 483.797 244.481 483.657 239.258 483.394C237.543 483.309 235.828 483.242 234.114 483.175C233.744 481.791 232.617 480.62 230.734 480.535C224.318 480.255 217.952 480.799 211.653 482.054C211.126 482.161 210.683 482.351 210.324 482.598C209.781 482.693 209.237 482.783 208.694 482.884C206.906 482.312 204.597 482.884 203.706 485.108C201.123 491.581 201.565 498.429 204.261 504.773V504.762Z" fill="#233244"></path><path d="M470.582 172.7C465.757 172.156 461.027 170.957 456.163 170.733C451.13 170.503 446.087 170.962 441.049 170.839C436.022 170.721 430.989 170.716 425.968 170.486C424.158 170.402 422.281 170.396 420.532 169.875C419.888 169.685 419.176 169.388 418.621 169.001C418.52 168.928 418.408 168.799 418.476 168.922C418.448 168.866 418.436 168.721 418.442 168.866C418.436 168.754 418.431 168.637 418.431 168.525C418.442 166.384 418.403 164.237 418.56 162.097C418.761 159.356 419.137 156.627 419.198 153.876C419.221 152.794 417.54 152.794 417.517 153.876C417.461 156.409 417.136 158.914 416.929 161.435C416.828 162.68 416.755 163.924 416.749 165.168C416.749 166.126 416.811 167.079 416.766 168.037C416.716 169.169 416.923 169.965 417.96 170.57C419.563 171.495 421.311 171.842 423.132 172.005C427.986 172.436 432.9 172.38 437.765 172.459C440.376 172.503 442.982 172.599 445.594 172.543C448.25 172.492 450.912 172.352 453.568 172.358C456.471 172.358 459.335 172.615 462.193 173.075C465.051 173.535 467.763 174.061 470.571 174.381C471.647 174.504 471.636 172.817 470.571 172.7H470.582Z" fill="black"></path><path d="M420.14 152.239C424.836 152.721 429.555 152.155 434.251 151.97C439.227 151.774 444.153 152.334 449.096 152.839C451.881 153.125 454.672 153.36 457.469 153.382C458.55 153.388 458.55 151.707 457.469 151.701C452.515 151.667 447.611 150.933 442.685 150.519C440.214 150.311 437.737 150.194 435.26 150.261C432.861 150.323 430.468 150.507 428.07 150.631C425.43 150.765 422.774 150.832 420.14 150.563C419.064 150.451 419.075 152.133 420.14 152.245V152.239Z" fill="black"></path><path d="M467.522 168.199C467.427 166.227 467.707 164.282 468.217 162.382C468.335 161.945 468.071 161.469 467.629 161.346C467.186 161.222 466.71 161.491 466.592 161.934C466.048 163.963 465.734 166.098 465.841 168.199C465.863 168.653 466.211 169.04 466.682 169.04C467.119 169.04 467.545 168.653 467.522 168.199Z" fill="black"></path><path d="M437.77 174.678C437.294 177.597 437.143 180.551 436.705 183.476C436.268 186.401 435.618 189.332 433.926 191.765L434.873 191.378C420.706 188.413 406.427 192.902 392.181 191.837C388.169 191.54 384.212 190.728 380.458 189.259C379.449 188.867 379.012 190.492 380.009 190.879C393.661 196.225 408.366 192.302 422.482 192.034C426.484 191.955 430.496 192.179 434.419 192.997C434.811 193.081 435.142 192.936 435.366 192.611C438.869 187.584 438.437 180.909 439.379 175.12C439.552 174.061 437.933 173.607 437.759 174.672L437.77 174.678Z" fill="black"></path><path d="M377.174 188.996C377.308 186.682 377.078 184.356 377.135 182.036C377.179 180.164 377.174 177.424 378.732 176.084C379.555 175.378 378.362 174.196 377.544 174.896C375.75 176.438 375.56 179.329 375.47 181.515C375.369 184.009 375.633 186.508 375.493 188.996C375.431 190.078 377.112 190.072 377.174 188.996Z" fill="black"></path><path d="M384.05 175.956C388.785 174.454 393.846 174.65 398.749 174.823C404.079 175.014 409.414 174.936 414.749 175.115C417.954 175.221 421.16 175.406 424.36 175.715C425.436 175.815 425.43 174.134 424.36 174.033C418.694 173.495 413.006 173.338 407.318 173.294C404.706 173.277 402.095 173.26 399.483 173.17C396.939 173.081 394.389 172.985 391.839 173.075C389.06 173.17 386.263 173.495 383.607 174.336C382.581 174.661 383.019 176.286 384.055 175.956H384.05Z" fill="black"></path><path d="M437.513 174.056C436.683 174.095 435.848 174.084 435.024 174.056C434.587 174.039 434.161 174.454 434.184 174.896C434.206 175.367 434.554 175.72 435.024 175.737C435.854 175.771 436.689 175.782 437.513 175.737C437.95 175.715 438.376 175.367 438.353 174.896C438.336 174.459 437.983 174.033 437.513 174.056Z" fill="black"></path><path d="M412.054 169.511C412.02 164.411 410.697 159.121 412.054 154.089C412.334 153.041 410.714 152.598 410.434 153.64C409.033 158.841 410.339 164.232 410.372 169.505C410.378 170.587 412.059 170.587 412.054 169.505V169.511Z" fill="black"></path><path d="M410.081 168.071C409.005 168.861 407.598 169.107 406.303 169.309C404.93 169.517 403.541 169.595 402.156 169.724C398.273 170.083 394.389 170.105 390.494 170.049C386.516 169.993 382.565 170.497 378.625 170.985C374.669 171.478 370.735 171.837 366.744 171.769C362.687 171.702 358.579 171.495 354.561 172.173L355.508 173.406C355.906 172.75 355.805 171.842 355.733 171.119C355.626 170.021 355.43 168.928 355.29 167.835C354.92 164.988 355.402 162.119 355.867 159.317C356.041 158.258 354.421 157.804 354.247 158.869C353.788 161.643 353.25 164.523 353.553 167.348C353.665 168.385 353.844 169.41 353.978 170.441C354.035 170.895 354.091 171.355 354.107 171.814C354.113 172.005 354.124 172.201 354.107 172.397C354.096 172.537 354.091 172.52 354.068 172.565C353.653 173.243 354.332 173.916 355.015 173.798C358.635 173.182 362.373 173.372 366.033 173.439C370.006 173.512 373.906 173.249 377.852 172.767C381.875 172.274 385.899 171.719 389.962 171.73C393.874 171.741 397.774 171.797 401.675 171.456C403.305 171.31 404.936 171.203 406.556 170.968C408.046 170.749 409.688 170.447 410.932 169.533C411.795 168.9 410.955 167.437 410.086 168.082L410.081 168.071Z" fill="black"></path><path d="M355.649 155.988C360.462 154.834 365.467 155.31 370.365 154.912C372.87 154.705 375.263 154.072 377.74 153.691C380.206 153.31 382.711 153.192 385.199 153.17C388.074 153.141 390.948 153.242 393.829 153.254C394.911 153.254 394.911 151.578 393.829 151.572C388.735 151.556 383.618 151.247 378.552 151.897C376.059 152.217 373.626 152.906 371.127 153.164C368.628 153.422 366.083 153.416 363.561 153.483C360.759 153.556 357.941 153.713 355.206 154.369C354.152 154.621 354.601 156.241 355.654 155.988H355.649Z" fill="black"></path><path d="M401.652 152.553C402.005 152.553 402.364 152.553 402.717 152.553C402.93 152.553 403.16 152.458 403.311 152.307C403.395 152.228 403.451 152.138 403.485 152.038C403.535 151.937 403.563 151.83 403.557 151.712C403.546 151.494 403.479 151.27 403.311 151.118C403.143 150.967 402.947 150.872 402.717 150.872C402.364 150.872 402.005 150.872 401.652 150.872C401.439 150.872 401.209 150.967 401.058 151.118C400.974 151.197 400.918 151.287 400.884 151.387C400.834 151.488 400.806 151.595 400.811 151.712C400.823 151.931 400.89 152.155 401.058 152.307C401.226 152.458 401.422 152.553 401.652 152.553Z" fill="black"></path><path d="M446.456 147.056C437.44 146.086 428.624 148.552 419.781 149.863C417.579 150.188 415.365 150.435 413.14 150.524C412.048 150.569 410.949 150.603 409.862 150.44C408.752 150.272 407.671 149.975 406.589 149.689C404.465 149.129 402.414 148.754 400.206 148.826C397.836 148.905 395.482 149.202 393.106 149.045C387.776 148.698 382.458 148.188 377.118 147.98C376.036 147.941 376.036 149.622 377.118 149.661C381.859 149.846 386.577 150.261 391.307 150.603C393.678 150.771 395.975 150.765 398.346 150.603C400.649 150.446 402.801 150.463 405.054 151.023C407.127 151.539 409.195 152.206 411.353 152.239C413.51 152.273 415.87 152.049 418.094 151.769C422.538 151.208 426.926 150.284 431.342 149.549C436.336 148.72 441.39 148.188 446.445 148.731C447.521 148.849 447.51 147.162 446.445 147.05L446.456 147.056Z" fill="black"></path><path d="M378.323 147.044C378.345 145.072 378.188 143.105 378.082 141.132C377.992 139.484 377.824 137.742 378.132 136.105C378.3 135.209 378.62 134.357 379.281 133.712C379.908 133.107 380.743 132.754 381.556 132.485C384.504 131.515 387.659 130.927 390.719 130.428C394.501 129.812 398.318 129.481 402.145 129.302C406.494 129.1 410.854 129.106 415.208 129.111C416.29 129.111 416.29 127.43 415.208 127.43C407.099 127.413 398.962 127.447 390.926 128.697C387.648 129.207 384.268 129.817 381.108 130.86C379.079 131.527 377.42 132.67 376.725 134.771C376.176 136.447 376.266 138.313 376.339 140.05C376.434 142.382 376.658 144.702 376.636 147.039C376.624 148.12 378.306 148.12 378.317 147.039L378.323 147.044Z" fill="black"></path><path d="M443.038 144.332C443.049 141.009 443.447 137.702 443.414 134.379C443.402 133.298 441.721 133.298 441.732 134.379C441.766 137.702 441.368 141.009 441.357 144.332C441.357 145.414 443.032 145.414 443.038 144.332Z" fill="black"></path><path d="M327.185 57.7549C328.62 53.4454 327.051 48.8612 328.161 44.5237C327.611 44.4508 327.062 44.3724 326.507 44.2996C326.474 47.8525 327.763 51.6465 326.614 55.121C325.465 58.5955 322.041 59.8228 318.858 60.4168C315.193 61.0949 311.348 61.0837 307.633 61.0556C303.06 61.022 298.493 60.7474 293.925 60.4672C288.714 60.1478 283.502 59.8172 278.279 59.8003C277.197 59.8003 277.197 61.4759 278.279 61.4816C287.901 61.5096 297.473 62.6248 307.095 62.7313C311.051 62.7761 315.109 62.7649 319.015 62.0868C322.349 61.5096 325.88 60.1478 327.6 57.0319C329.78 53.0867 328.149 48.5082 328.189 44.2996C328.2 43.3581 326.776 43.1507 326.535 44.0754C325.426 48.4241 326.984 53.025 325.56 57.3065C325.218 58.3377 326.838 58.7748 327.18 57.7549H327.185Z" fill="black"></path><path d="M174.795 28.457C158.823 25.089 142.582 28.8437 126.639 30.4409C122.184 30.8892 117.706 31.1694 113.228 31.0741C112.562 31.0573 112.22 31.7914 112.5 32.3406C113.469 34.218 113.688 36.3755 113.839 38.4547C113.991 40.5338 114.058 42.7361 114.529 44.8265L116.148 44.3781C115.123 41.8619 116.137 39.2784 116.154 36.6838C116.159 35.6022 114.478 35.6022 114.473 36.6838C114.456 39.4465 113.436 42.1365 114.529 44.8208C114.926 45.8015 116.395 45.4541 116.148 44.3725C115.195 40.1134 116.019 35.4789 113.951 31.4888L113.223 32.7553C129.312 33.0972 145.071 28.7316 161.143 28.7821C165.576 28.7933 170.003 29.1631 174.341 30.0766C175.394 30.3008 175.848 28.6812 174.789 28.457H174.795Z" fill="black"></path><path d="M229.967 202.082C229.378 202.009 228.784 202.037 228.196 201.958L228.42 201.986C228.285 201.97 228.151 201.947 228.022 201.897L228.224 201.981C228.224 201.981 228.168 201.958 228.145 201.936L228.314 202.065C228.314 202.065 228.297 202.048 228.286 202.037L228.414 202.205C228.414 202.205 228.409 202.194 228.403 202.188L228.487 202.39C228.487 202.39 228.487 202.379 228.487 202.367L228.515 202.592C228.515 202.592 228.515 202.575 228.515 202.569L228.487 202.793C228.487 202.793 228.487 202.777 228.493 202.771L228.409 202.973C228.409 202.973 228.42 202.95 228.431 202.939L228.302 203.107C228.302 203.107 228.347 203.062 228.37 203.04L228.201 203.169C228.291 203.102 228.398 203.051 228.498 203.001C228.678 202.917 228.835 202.681 228.885 202.496C228.941 202.295 228.913 202.026 228.801 201.846C228.689 201.667 228.515 201.51 228.297 201.46L228.073 201.432C227.921 201.432 227.781 201.471 227.647 201.544C227.299 201.701 226.969 201.947 226.862 202.328C226.772 202.653 226.873 203.001 227.114 203.23C227.26 203.376 227.445 203.46 227.635 203.522C227.904 203.606 228.19 203.623 228.47 203.651C228.728 203.673 228.986 203.684 229.244 203.696C229.479 203.707 229.72 203.712 229.955 203.74C230.152 203.763 230.415 203.628 230.55 203.494C230.695 203.348 230.807 203.107 230.796 202.9C230.785 202.693 230.718 202.457 230.55 202.306L230.381 202.177C230.253 202.098 230.107 202.065 229.955 202.065L229.967 202.082Z" fill="black"></path><path d="M214.404 106C214.034 104.891 213.564 103.809 212.986 102.789C212.768 102.408 212.213 102.245 211.837 102.486C211.462 102.727 211.305 103.226 211.535 103.635C211.798 104.1 212.039 104.582 212.258 105.07C212.286 105.126 212.308 105.188 212.336 105.244C212.37 105.328 212.364 105.311 212.314 105.193C212.331 105.227 212.342 105.26 212.359 105.294C212.409 105.412 212.454 105.535 212.499 105.653C212.6 105.911 212.695 106.174 212.779 106.443C212.919 106.858 213.367 107.177 213.816 107.031C214.23 106.897 214.55 106.443 214.404 105.995V106Z" fill="black"></path><path d="M71.0299 33.7752C62.8816 33.7584 54.7334 33.5399 46.5851 33.2316C42.539 33.0803 38.4928 32.901 34.4467 32.7161C32.4348 32.6264 30.4174 32.5311 28.4056 32.4359C27.2231 32.3798 26.035 32.2789 24.8526 32.335C20.4534 32.5367 16.071 33.2596 11.655 33.0747C10.7976 33.0355 9.929 32.9739 9.0996 32.7385C8.74094 32.6376 8.63445 32.6096 8.34303 32.419C8.21975 32.3238 8.31501 32.4022 8.34303 32.419C8.28699 32.3742 8.23658 32.3238 8.18614 32.2733C8.06845 32.1388 8.11327 32.2229 7.99559 31.9987C7.22783 30.5809 7.18302 28.5355 7.14379 26.8655C7.03732 22.0572 7.79945 17.3217 7.99559 12.5359L7.15498 13.3765C19.7305 12.7656 32.2835 13.8248 44.8366 14.4413C49.785 14.6822 54.7558 15.0129 59.6929 14.5534C61.7048 14.3628 63.7166 14.1611 65.7341 14.0602C67.561 13.9705 69.4552 13.8977 71.2597 14.2395C71.9658 14.374 72.7279 14.5533 73.3107 14.996C74.1626 15.6405 74.5549 16.6829 74.723 17.7028C75.1265 20.2302 74.4932 22.8529 74.4708 25.3916C74.4596 26.4732 76.1408 26.4732 76.152 25.3916C76.1856 21.6705 77.9677 15.3995 73.6694 13.2532C72.1507 12.4966 70.3518 12.3734 68.6818 12.3341C66.5915 12.2837 64.5012 12.4406 62.4221 12.6255C60.5447 12.7937 58.673 13.0178 56.79 13.1075C54.044 13.2476 51.2588 13.0459 48.5184 12.9338C42.0458 12.676 35.5843 12.2332 29.1172 11.9082C21.804 11.5439 14.4739 11.3478 7.15498 11.7065C6.68424 11.7289 6.33118 12.0763 6.31437 12.5471C6.13504 16.907 5.48499 21.2334 5.45697 25.6045C5.44576 27.6388 5.44577 29.8468 6.09023 31.8026C6.61701 33.3998 7.64255 34.2067 9.27894 34.515C11.4421 34.9241 13.7061 34.8232 15.8917 34.7055C18.2566 34.5822 20.6103 34.3468 22.9696 34.1563C25.441 33.9545 27.8564 34.1059 30.3333 34.2236C34.4635 34.4141 38.5937 34.6046 42.7239 34.7728C52.1555 35.1594 61.5927 35.4452 71.0355 35.4677C72.1171 35.4677 72.1171 33.7864 71.0355 33.7864L71.0299 33.7752Z" fill="black"></path><path d="M427.324 129.38C429.235 130.025 431.326 130.176 433.332 130.154C435.349 130.131 437.395 129.913 439.345 129.403C440.393 129.134 439.95 127.509 438.897 127.783C437.081 128.254 435.204 128.45 433.326 128.472C431.449 128.495 429.549 128.36 427.767 127.761C426.742 127.413 426.299 129.038 427.319 129.38H427.324Z" fill="black"></path><path d="M333.333 103.383C334.051 101.422 334.168 99.2193 334.152 97.1515C334.135 95.0836 333.961 92.8868 333.429 90.8469L331.809 91.2952C332.991 94.7529 334.678 98.3395 334.813 102.044C334.869 103.518 334.454 105.12 332.857 105.552C331.26 105.983 329.455 105.485 327.881 105.176C322.77 104.185 317.418 104.56 312.262 104.963C306.383 105.429 300.533 106.039 294.626 105.95C291.718 105.905 288.815 105.776 285.912 105.63C284.298 105.552 282.465 105.664 280.919 105.367C280.751 105.333 280.347 105.21 280.347 105.21C280.1 105.092 280.084 105.098 279.932 104.907C279.708 104.627 279.529 104.067 279.434 103.568C279.109 101.892 279.125 100.105 278.968 98.4011C278.789 96.4285 278.576 94.4167 278.739 92.4329C278.856 90.959 279.506 90.1128 280.857 89.5075C282.46 88.7902 284.304 88.566 286.035 88.4259C287.896 88.2802 289.762 88.2746 291.628 88.3195C303.122 88.5997 314.599 91.1103 326.11 89.7485C327.516 89.5804 328.917 89.3618 330.302 89.0816C331.361 88.8687 330.912 87.2491 329.853 87.4621C317.81 89.8886 305.582 87.2323 293.489 86.6999C291.303 86.6046 289.101 86.5598 286.915 86.6831C284.954 86.7896 282.931 86.9969 281.064 87.6302C279.529 88.1514 277.971 89.0256 277.383 90.6283C276.76 92.3376 276.985 94.4391 277.102 96.2156C277.237 98.149 277.439 100.071 277.567 102.005C277.663 103.406 277.764 105.171 278.851 106.208C279.781 107.093 281.188 107.115 282.393 107.16C284.965 107.256 287.531 107.396 290.104 107.497C293.197 107.614 296.296 107.698 299.39 107.592C302.466 107.485 305.537 107.216 308.603 106.947C311.668 106.678 314.733 106.415 317.81 106.308C320.579 106.213 323.47 106.118 326.211 106.572C329.377 107.093 334.292 108.724 336.012 104.835C336.78 103.103 336.494 101.114 336.119 99.3146C335.681 97.2299 334.981 95.2012 334.264 93.2006C333.983 92.416 333.692 91.6315 333.423 90.8413C333.076 89.827 331.529 90.2304 331.803 91.2896C332.297 93.195 332.453 95.1844 332.465 97.1458C332.476 99.1073 332.381 101.102 331.708 102.929C331.333 103.949 332.958 104.386 333.328 103.378L333.333 103.383Z" fill="black"></path><path d="M279.137 86.1114C280.185 83.6849 280.47 80.995 280.554 78.3779C280.644 75.5983 280.476 72.8131 280.19 70.0503C279.977 67.9543 279.669 65.6903 278.285 64.0035C277.226 62.7145 275.656 62.199 274.054 61.9916C272.014 61.7282 269.935 61.8123 267.884 61.7114C264.297 61.5377 260.716 61.179 257.146 60.7867C249.911 59.9966 242.671 59.0439 235.38 59.0215C231.295 59.0103 227.249 59.3745 223.203 59.9293C219.162 60.4841 215.138 61.1734 211.075 61.5657C210.011 61.6666 209.999 63.3534 211.075 63.2469C218.008 62.5801 224.845 61.0558 231.816 60.77C238.832 60.4785 245.837 61.2071 252.803 61.986C259.001 62.6809 265.177 63.3254 271.409 63.4991C272.888 63.5384 274.586 63.5159 275.931 64.2333C277.377 65.001 277.921 66.5926 278.229 68.1169C278.789 70.9133 278.879 73.9114 278.884 76.7527C278.89 79.5939 278.806 82.6481 277.674 85.2708C277.248 86.2515 278.699 87.109 279.125 86.1171L279.137 86.1114Z" fill="black"></path><path d="M280.162 85.2709C280.14 85.3101 280.252 85.2485 280.185 85.2485C280.016 85.2541 280.201 85.2765 279.972 85.3381C279.691 85.411 279.479 85.4278 279.092 85.4278C278.206 85.4334 277.315 85.3157 276.441 85.17C274.228 84.8057 272.048 84.2733 269.862 83.7914C268.993 83.6009 268.119 83.4103 267.234 83.2758C265.9 83.0741 264.538 83.0797 263.188 83.0629C259.354 83.018 255.527 83.2366 251.694 83.2646C244.005 83.3207 236.423 82.0766 228.812 81.1407C226.257 80.8269 223.696 80.7708 221.14 80.4906C219.218 80.2833 216.517 79.9526 215.273 78.2546C214.528 77.2403 214.281 75.8112 214.113 74.5952C213.906 73.1045 213.878 71.5914 213.866 70.0895C213.844 67.0521 214.068 63.9531 213.541 60.9437C213.356 59.879 211.737 60.3329 211.922 61.392C212.392 64.1044 212.174 66.94 212.185 69.6804C212.196 72.4208 212.185 75.3181 213.199 77.8623C214.124 80.1712 216.153 81.2416 218.484 81.7627C220.972 82.3175 223.539 82.3343 226.066 82.5249C229.726 82.7995 233.374 83.4271 237.011 83.8923C240.973 84.3966 244.952 84.845 248.948 84.9346C252.943 85.0243 256.978 84.7945 260.996 84.7497C263.714 84.7217 266.247 84.7385 268.848 85.2933C271.347 85.8257 273.83 86.4645 276.357 86.8512C277.814 87.0754 280.65 87.703 281.608 86.1227C282.174 85.198 280.717 84.3518 280.157 85.2765L280.162 85.2709Z" fill="black"></path><path d="M369.188 54.4767C365.293 55.2725 361.169 55.1156 357.218 54.9923C352.69 54.8522 348.218 54.5047 343.695 54.9418C339.061 55.3845 334.465 56.2195 329.842 56.7575C326.984 57.0882 322.798 57.5421 321.514 54.2245C320.674 52.0557 320.696 49.5843 320.735 47.2979C320.775 44.8545 320.965 42.3944 320.747 39.9566L319.906 40.7972C323.509 40.8701 326.989 39.9286 330.475 39.1552C332.207 38.7742 333.955 38.4379 335.732 38.3258C337.587 38.2081 339.442 38.2978 341.285 38.4771C345.029 38.8358 348.733 39.5755 352.499 39.682C356.153 39.7885 359.796 39.4466 363.433 39.1608C367.552 38.8358 371.727 38.5668 375.84 39.1664C376.899 39.3233 377.353 37.7038 376.288 37.5469C368.891 36.4653 361.516 37.9896 354.102 38.0232C350.33 38.04 346.637 37.4236 342.899 36.9752C339.161 36.5269 335.496 36.4653 331.787 37.1714C327.841 37.9223 323.969 39.2001 319.906 39.116C319.48 39.1048 319.026 39.5083 319.065 39.9566C319.463 44.423 318.494 48.9903 319.519 53.4063C319.928 55.1716 320.769 56.808 322.4 57.7214C323.874 58.5452 325.633 58.6965 327.287 58.6461C329.203 58.59 331.108 58.2875 333.003 58.0409C335.631 57.699 338.254 57.2787 340.882 56.9425C343.51 56.6062 346.043 56.3709 348.638 56.3541C350.913 56.3372 353.183 56.5165 355.452 56.6118C360.132 56.8024 365.013 57.0377 369.631 56.0963C370.69 55.8777 370.242 54.2581 369.182 54.4767H369.188Z" fill="black"></path><path d="M375.789 56.3036C376.641 55.3789 376.888 54.0956 377.022 52.8851C377.202 51.2375 377.106 49.5675 376.977 47.9199C376.725 44.7368 376.086 41.5425 376.075 38.3426C376.075 37.261 374.388 37.261 374.394 38.3426C374.4 41.3632 374.988 44.3782 375.251 47.3819C375.391 48.9679 375.492 50.5706 375.403 52.1566C375.347 53.1317 375.218 54.443 374.607 55.1043C373.873 55.9001 375.061 57.0881 375.795 56.2923L375.789 56.3036Z" fill="black"></path><path d="M244.98 270.759C235.458 270.759 226.016 272.216 216.478 271.734C212.314 271.527 208.144 271.23 203.997 271.734C202.495 271.914 200.938 272.132 199.424 271.964C198.909 271.908 198.292 271.807 197.883 271.465C197.631 271.258 197.536 270.983 197.446 270.703C197.116 269.678 197.076 268.557 197.076 267.486C197.076 266.097 197.183 264.707 197.368 263.334C197.553 261.961 197.816 260.616 198.18 259.293C198.432 258.38 198.718 257.422 199.245 256.62C199.301 256.536 199.312 256.497 199.469 256.357C199.677 256.172 199.923 256.026 200.17 255.897C200.792 255.567 201.476 255.37 202.154 255.202C203.751 254.816 205.393 254.67 207.029 254.575C211.176 254.334 215.34 254.199 219.493 254.16C224.34 254.115 229.176 254.451 234.024 254.39C238.944 254.328 243.87 254.104 248.79 254.182C250.001 254.205 251.206 254.244 252.411 254.306L251.598 253.689C252.343 257.113 254.069 260.364 253.554 263.956C253.487 264.41 253.666 264.852 254.142 264.993C254.535 265.105 255.112 264.853 255.179 264.404C255.459 262.471 255.308 260.593 254.804 258.71C254.299 256.827 253.632 255.101 253.223 253.241C253.145 252.871 252.769 252.641 252.411 252.624C247.305 252.367 242.195 252.54 237.084 252.652C234.483 252.709 231.883 252.753 229.283 252.709C226.75 252.664 224.222 252.501 221.689 252.479C217.144 252.445 212.6 252.647 208.06 252.843C206.357 252.916 204.653 253.039 202.972 253.325C201.487 253.577 199.884 253.958 198.657 254.866C197.838 255.471 197.424 256.362 197.065 257.293C196.6 258.503 196.297 259.781 196.051 261.047C195.518 263.827 195.165 266.791 195.524 269.616C195.653 270.625 195.855 271.74 196.566 272.513C197.508 273.544 199.116 273.684 200.422 273.69C201.991 273.696 203.549 273.455 205.107 273.281C207.197 273.046 209.332 273.107 211.434 273.18C213.939 273.264 216.438 273.449 218.943 273.522C221.432 273.595 223.925 273.539 226.408 273.421C231.339 273.18 236.26 272.693 241.191 272.513C242.458 272.468 243.719 272.44 244.985 272.446C246.067 272.446 246.067 270.765 244.985 270.765L244.98 270.759Z" fill="black"></path><path d="M225.08 249.643C223.998 247.738 223.752 245.093 223.903 242.952C223.964 242.072 224.11 240.884 224.805 240.256C225.55 239.578 226.817 239.421 227.764 239.27C230.286 238.872 232.864 238.962 235.408 238.777C239.28 238.491 243.175 238.508 247.053 238.777C251.407 239.085 255.739 239.724 259.982 240.755C261.035 241.013 261.484 239.388 260.43 239.136C252.371 237.18 243.926 236.496 235.655 237.079C232.819 237.281 229.955 237.208 227.148 237.679C225.993 237.875 224.715 238.16 223.785 238.923C222.855 239.685 222.507 240.839 222.334 241.943C222.093 243.524 222.194 245.126 222.446 246.701C222.653 247.996 222.978 249.341 223.628 250.489C224.161 251.431 225.618 250.585 225.08 249.643Z" fill="black"></path><path d="M258.363 262.347C261.803 262.174 265.171 261.305 268.624 261.266C272.171 261.227 275.735 261.131 279.277 261.327C279.748 261.355 280.089 260.918 280.117 260.487C280.314 257.231 279.731 254.02 279.339 250.797C279.21 249.738 277.528 249.721 277.657 250.797C278.05 254.014 278.632 257.231 278.436 260.487L279.277 259.646C275.735 259.45 272.171 259.545 268.624 259.585C265.171 259.624 261.803 260.487 258.363 260.666C257.287 260.722 257.281 262.403 258.363 262.347Z" fill="black"></path><path d="M271.958 57.3795C272.283 57.7717 272.849 57.895 273.269 57.5644C273.633 57.2786 273.673 56.8191 273.684 56.3876C273.717 55.0482 273.723 53.7088 273.757 52.3639C273.829 49.1303 274.02 45.8687 274.749 42.7137L273.712 43.3021C275.864 43.7728 278.066 43.7448 280.252 43.6832C282.617 43.6159 284.959 43.7168 287.318 43.7392C292.328 43.7841 297.327 43.3694 302.337 43.3581C303.419 43.3581 303.419 41.6713 302.337 41.6769C297.423 41.6937 292.513 42.086 287.599 42.0636C285.312 42.0524 283.043 41.9235 280.756 41.9908C278.559 42.0524 276.323 42.1589 274.16 41.6881C273.729 41.5929 273.235 41.8114 273.123 42.2766C272.524 44.86 272.277 47.5164 272.143 50.1559C272.075 51.4616 272.07 52.7729 272.019 54.0843C271.997 54.6167 271.969 55.1434 271.98 55.6702C271.98 55.8888 271.991 56.1074 271.991 56.3203C271.991 56.8359 271.89 56.3876 272.283 56.2026L272.933 56.1185C273.207 56.3203 273.275 56.3483 273.135 56.197C272.451 55.362 271.263 56.5557 271.947 57.3851L271.958 57.3795Z" fill="black"></path><path d="M176.437 31.7017C177.137 32.5816 176.935 34.1899 176.879 35.221C176.801 36.6221 176.655 37.9838 176.812 39.3792C176.907 40.2367 177.047 41.0941 177.081 41.9627C177.115 42.8314 176.963 43.6327 176.862 44.4789C176.846 44.6415 176.818 44.7984 176.818 44.8096C176.84 44.8712 176.975 44.6583 176.98 44.6415C176.98 44.5854 177.131 44.5966 176.924 44.6415C176.862 44.6527 176.806 44.6695 176.745 44.6807C176.448 44.7479 176.145 44.8096 175.848 44.8768C172.85 45.5717 169.678 45.2691 166.641 45.0561C163.037 44.7984 159.428 44.6415 155.814 44.5742C151.386 44.4958 146.959 44.6134 142.555 45.0786C141.49 45.1907 141.479 46.8719 142.555 46.7598C150.692 45.9024 158.924 46.1994 167.072 46.7654C168.776 46.8831 170.485 46.9896 172.189 46.9615C173.78 46.9335 175.288 46.7038 176.84 46.3731C177.63 46.205 178.286 45.992 178.46 45.1066C178.779 43.4534 178.785 41.817 178.583 40.147C178.381 38.477 178.482 36.7678 178.572 35.0249C178.65 33.4726 178.639 31.7802 177.625 30.5081C176.952 29.6618 175.77 30.8555 176.437 31.6961V31.7017Z" fill="black"></path><path d="M211.916 357.633C211.933 351.317 212.202 344.912 210.862 338.697L209.826 339.734C213.989 341.432 218.708 340.793 223.046 340.277C227.803 339.717 232.584 339.683 237.353 339.291C240.088 339.067 242.828 338.736 245.507 338.12C246.56 337.879 246.112 336.259 245.058 336.5C240.373 337.571 235.537 337.778 230.757 337.991C228.521 338.086 226.302 338.215 224.082 338.473C221.874 338.731 219.666 339.022 217.442 339.106C215.004 339.201 212.555 339.039 210.274 338.109C209.635 337.851 209.12 338.585 209.237 339.145C210.543 345.203 210.246 351.474 210.229 357.633C210.229 358.715 211.905 358.715 211.91 357.633H211.916Z" fill="black"></path><path d="M230.577 362.89C237.033 361.141 243.848 363.136 250.376 361.87C251.923 361.573 253.386 361.052 254.792 360.346C255.65 359.914 256.597 359.471 257.281 358.771C258.614 357.409 257.919 355.403 257.538 353.789C257.084 351.867 256.647 349.944 256.02 348.067C255.375 346.134 254.585 344.251 253.711 342.413C253.246 341.437 251.8 342.289 252.259 343.259C253.756 346.414 254.871 349.675 255.644 353.077C255.885 354.142 256.216 355.218 256.356 356.305C256.429 356.882 256.395 357.241 256.149 357.515C255.594 358.143 254.68 358.513 253.935 358.888C252.596 359.567 251.189 360.015 249.71 360.284C246.672 360.833 243.534 360.665 240.468 360.57C237.016 360.458 233.486 360.357 230.123 361.27C229.081 361.55 229.524 363.176 230.572 362.89H230.577Z" fill="black"></path><path d="M289.039 520.806C284.119 523.16 278.419 523.799 273.045 524.163C267.144 524.567 261.226 524.482 255.319 524.466C253.425 524.466 251.542 524.466 249.654 524.617C247.513 524.785 245.372 524.976 243.22 525.071C241.236 525.161 239.14 525.278 237.179 524.908C236.837 524.841 236.484 524.768 236.159 524.634C236.047 524.589 235.784 524.421 235.733 524.359C235.683 524.298 235.537 524.017 235.47 523.821C235.352 523.457 235.274 523.076 235.218 522.695C234.59 518.284 235.632 513.784 235.817 509.38L234.977 510.22C242.464 509.794 249.85 508.46 257.292 507.609C261.013 507.183 264.807 506.785 268.556 506.903C272.266 507.02 275.953 507.743 279.675 507.413C283.637 507.059 287.515 505.838 291.471 506.914C292.519 507.2 292.962 505.58 291.919 505.294C288.372 504.325 284.914 505.025 281.361 505.535C277.674 506.062 274.087 505.602 270.405 505.328C266.724 505.053 262.705 505.356 258.889 505.754C255.19 506.14 251.514 506.673 247.832 507.177C243.562 507.766 239.286 508.298 234.982 508.545C234.511 508.573 234.164 508.909 234.142 509.385C233.968 513.532 233.172 517.651 233.458 521.821C233.559 523.283 233.721 525.233 235.173 526.024C236.759 526.881 238.899 526.825 240.642 526.825C244.739 526.825 248.802 526.175 252.887 526.158C258.889 526.13 264.885 526.276 270.882 525.984C277.265 525.671 284.046 525.065 289.885 522.269C290.86 521.804 290.008 520.352 289.039 520.817V520.806Z" fill="black"></path><path d="M294.688 520.66C295.108 518.923 295.242 517.113 295.321 515.337C295.411 513.364 295.394 511.386 295.287 509.419C295.231 508.343 293.55 508.337 293.606 509.419C293.713 511.33 293.724 513.246 293.645 515.163C293.578 516.855 293.46 518.57 293.063 520.218C292.805 521.271 294.43 521.72 294.682 520.666L294.688 520.66Z" fill="black"></path><path d="M254.226 504.084C244.397 504.073 234.629 505.277 224.839 505.927C222.586 506.079 220.339 506.174 218.086 506.275C216.931 506.325 215.755 506.437 214.6 506.32C214.533 506.314 214.381 506.297 214.197 506.247C214.113 506.225 214.028 506.202 213.944 506.174C213.81 506.129 214.023 506.225 213.855 506.135C213.787 506.096 213.72 506.062 213.653 506.017C213.518 505.927 213.737 506.096 213.619 505.989C213.569 505.944 213.524 505.899 213.479 505.849C213.423 505.782 213.502 505.905 213.406 505.743C213.216 505.418 213.154 505.233 213.037 504.795C212.896 504.269 212.807 503.731 212.717 503.198C212.392 501.175 212.123 499.152 211.748 497.14C211.277 494.602 210.901 492.08 211.058 489.491L210.218 490.331C216.881 490.718 223.314 488.589 229.916 488.129C233.351 487.888 236.697 488.348 240.093 488.796C243.623 489.267 247.154 489.754 250.707 490.029C254.725 490.331 258.749 490.315 262.744 489.771C263.198 489.709 263.434 489.132 263.333 488.734C263.204 488.247 262.744 488.084 262.296 488.146C255.257 489.104 248.151 488.191 241.163 487.255C237.767 486.801 234.366 486.235 230.925 486.386C227.646 486.526 224.407 487.12 221.179 487.675C217.553 488.297 213.905 488.863 210.212 488.65C209.741 488.622 209.4 489.059 209.371 489.491C209.102 493.918 210.313 498.312 210.946 502.666C211.21 504.465 211.372 506.992 213.356 507.754C214.225 508.085 215.217 508.063 216.13 508.04C217.934 507.995 219.745 507.9 221.549 507.81C226.677 507.547 231.788 507.076 236.899 506.65C242.66 506.174 248.432 505.771 254.215 505.776C255.297 505.776 255.297 504.095 254.215 504.095L254.226 504.084Z" fill="black"></path><path d="M264.992 501.086C264.998 497.964 265.003 494.837 265.009 491.716C265.009 490.634 263.328 490.634 263.328 491.716C263.322 494.837 263.316 497.964 263.311 501.086C263.311 502.167 264.992 502.167 264.992 501.086Z" fill="black"></path></svg> 