<?xml version="1.0" encoding="UTF-8"?> <svg xmlns="http://www.w3.org/2000/svg" width="490" height="330" viewBox="0 0 490 330" fill="none"><g clip-path="url(#clip0_25_32405)"><mask id="mask0_25_32405" style="mask-type:luminance" maskUnits="userSpaceOnUse" x="-685" y="-522" width="1784" height="937"><path d="M1098.81 -522H-685V414.194H1098.81V-522Z" fill="white"></path></mask><g mask="url(#mask0_25_32405)"><path d="M371.243 99.7522C370.54 93.4753 360.605 93.3989 361.315 99.7522C361.369 100.218 361.407 100.684 361.461 101.15C360.896 101.936 360.582 102.868 360.705 103.845C361.545 110.466 361.743 117.071 361.308 123.73C361.216 125.097 361.606 126.166 362.27 126.945C362.27 127.052 362.27 127.151 362.262 127.258C362.255 127.441 362.262 127.617 362.262 127.792C361.842 127.685 361.384 127.617 360.888 127.617L326.701 127.731C321.249 127.746 315.796 127.769 310.352 127.785C307.725 127.792 303.617 128.327 300.165 127.876C301.051 119.835 300.623 111.848 299.073 103.899C300.997 103.807 302.922 103.654 304.854 103.433C316.224 102.119 327.212 99.0956 338.102 95.7204C339.751 95.4378 341.393 95.0178 343.004 94.4069C345.822 95.0484 349.243 93.5059 349.281 89.7565C349.327 84.6937 348.998 79.6997 348.403 74.6904C353.733 74.8584 359.063 75.0263 364.385 75.1943C367.417 75.2936 368.997 73.1937 369.15 70.9028C371.273 70.0552 372.808 67.7873 372.197 65.0459C370.41 57.005 369.059 48.8877 368.211 40.6941C368.127 39.9152 367.906 39.228 367.577 38.64C367.547 37.9451 367.524 37.2502 367.493 36.5553C367.249 30.1868 357.314 30.1562 357.566 36.5553C357.734 40.8316 357.894 45.1078 358.062 49.3841C358.139 51.3924 358.215 53.4083 358.299 55.4166C358.337 56.4246 358.376 57.425 358.414 58.4329C358.429 58.8224 358.444 59.2118 358.46 59.6013C358.299 59.7998 358.162 60.006 358.047 60.2198C357.994 60.2198 357.948 60.2198 357.895 60.2198C356.688 60.2198 355.474 60.2198 354.267 60.2122C351.602 60.1969 348.945 60.1587 346.28 60.1129C340.958 60.0289 335.635 59.9373 330.313 59.9831C319.759 60.0747 309.222 60.8307 298.875 63.007C298.592 63.0681 298.332 63.1445 298.088 63.2361C294.934 63.2896 291.811 63.6179 288.787 64.6564C282.778 66.7182 285.359 76.3092 291.429 74.2322C296.805 72.3919 302.8 73.2471 308.382 73.4227C314.605 73.6213 320.821 73.8122 327.044 74.0107C330.847 74.1329 334.642 74.2474 338.445 74.3696C338.453 74.4613 338.461 74.5529 338.476 74.6446C338.942 78.0579 339.186 81.5018 339.278 84.9457C337.85 85.4039 336.422 85.8544 334.986 86.305C329.297 86.9846 323.02 85.3657 317.606 84.8541C308.504 83.9989 299.34 84.1363 290.238 84.8541C281.38 85.5566 272.568 86.8013 263.802 88.214C259.144 88.97 254.486 89.7565 249.843 90.5965C246.002 91.2914 243.199 92.5284 240.824 95.7051C237.006 100.829 245.62 105.785 249.4 100.714C249.805 100.172 253.164 100.05 253.951 99.9126C255.906 99.569 257.861 99.233 259.823 98.897C259.915 98.8817 260.014 98.8665 260.106 98.8512C260.579 101.012 262.649 103.173 264.97 102.875C269.605 102.28 274.194 102.501 278.799 102.914C278.791 103.387 278.837 103.883 278.975 104.403C280.265 109.313 280.968 114.215 281.143 119.194C270.529 119.958 259.938 123.188 249.308 123.547C235.876 123.997 222.139 123.211 209.371 128.166C203.476 130.45 206.042 140.056 212.013 137.742C214.945 136.604 217.931 135.803 220.94 135.222C221.551 136.482 222.605 137.505 223.987 137.704C245.215 140.674 266.749 138.651 286.848 131.343C287.405 132.626 288.535 133.634 289.833 134.161C293.781 136.956 298.34 137.551 303.227 137.704C308.496 137.872 313.788 137.765 319.072 137.704C319.821 144.195 320.218 150.701 320.271 157.23C320.271 157.734 320.271 158.238 320.271 158.742C320.271 159.116 320.302 159.459 320.363 159.788C319.752 159.505 319.034 159.345 318.209 159.353C311.627 159.414 305.358 161.651 298.768 161.613C291.796 161.567 284.816 160.536 277.86 160.162C263.634 159.391 249.385 159.574 235.151 159.75C228.767 159.834 228.752 169.761 235.151 169.677C248.338 169.509 261.534 169.356 274.714 169.944C274.607 170.417 274.569 170.937 274.622 171.517C275.164 177.748 275.355 183.979 275.202 190.226C267.345 190.569 259.487 190.913 251.63 191.249C251.057 190.699 250.27 190.294 249.232 190.119C237.129 188.095 225.453 190.348 213.51 191.898C210.318 191.676 207.134 191.333 203.98 190.798C204.812 183.544 204.98 176.29 204.293 168.966C203.705 162.659 193.77 162.598 194.366 168.966C194.969 175.465 195 181.994 194.335 188.477C193.816 188.317 193.297 188.156 192.785 187.981C188.73 186.583 186.233 190.424 186.821 193.731C185.096 193.769 183.362 193.792 181.636 193.807C176.803 192.883 171.9 193.326 166.967 193.7C165.677 193.799 164.386 193.899 163.096 193.998C162.683 193.853 162.271 193.7 161.866 193.555C155.406 191.218 149.045 188.828 142.066 189.08C139.164 189.187 137.583 191.302 137.324 193.555C134.72 193.066 132.139 192.44 129.504 191.936C124.06 190.898 118.592 190.646 113.064 190.516C101.678 190.249 90.2926 189.996 78.9071 189.729C72.5156 189.584 72.5156 199.511 78.9071 199.656C90.2926 199.916 101.678 200.176 113.064 200.443C118.447 200.565 123.686 200.817 128.97 201.947C132.414 202.68 135.842 203.451 139.309 203.887C139.111 209.453 138.92 215.02 138.721 220.587C110.444 222.634 81.9692 222.412 53.6466 222.885C47.2628 222.992 47.2475 232.919 53.6466 232.812C66.9794 232.591 80.3427 232.522 93.6983 232.301C93.7213 232.446 93.7441 232.591 93.7747 232.744C94.5688 236.249 95.2256 239.769 95.5921 243.35C95.7601 245 95.8899 246.657 95.9739 248.314C96.0045 248.932 95.7449 251.009 95.9587 251.903C94.8056 253.522 94.8362 256.042 96.0121 257.905C95.2714 257.928 94.5307 257.943 93.79 257.936C76.1199 257.737 58.3734 256.133 40.7339 255.171C34.35 254.82 34.373 264.747 40.7339 265.098C57.9229 266.037 75.1577 267.435 92.3697 267.84C100.372 268.031 108.093 266.824 115.943 265.404C122.441 264.228 128.916 263.273 135.3 264.617C135.231 266.618 135.186 268.619 135.163 270.627C135.094 271.001 135.056 271.398 135.071 271.826C135.094 272.46 135.109 273.093 135.132 273.727C135.132 275.636 135.147 277.545 135.178 279.454C123.953 280.18 112.735 280.897 101.51 281.623C95.5539 282.005 89.5977 282.387 83.6339 282.776C80.4954 282.982 77.4562 283.211 74.501 283.883C73.9665 283.906 73.4625 284.044 73.0043 284.265C71.4924 284.7 70.0033 285.265 68.5372 286.037C63.7951 288.526 66.5518 294.948 70.8967 295.215C71.0418 295.299 71.1945 295.376 71.3625 295.452C78.9834 298.835 87.032 298.865 95.1187 298.262C97.0888 298.262 99.0666 298.193 101.044 298.048C111.613 297.292 122.342 294.887 132.941 296.62C135.125 296.979 136.873 296.04 137.958 294.627C139.798 294.475 141.638 294.322 143.478 294.169C148.251 293.772 149.595 288.732 146.915 285.853C147.251 285.212 147.449 284.448 147.449 283.555C147.465 275.758 147.48 267.954 147.495 260.158C147.503 256.088 143.479 254.614 140.554 255.729C132.2 253.003 123.617 253.988 115.003 255.408C115.271 254.988 115.5 254.515 115.645 253.949C117.577 246.588 117.363 238.929 114.751 231.797C125.22 231.43 135.682 230.873 146.113 229.957C149.412 229.666 151.26 226.948 150.916 224.313C152.703 223.718 154.2 222.229 154.352 219.839C154.551 216.624 154.536 213.417 154.322 210.225C154.536 208.354 154.612 206.475 154.559 204.589C156.972 204.406 159.385 204.223 161.798 204.039C162.569 204.291 163.34 204.536 164.111 204.757C171.137 206.75 178.376 207.033 184.989 203.703C192.885 203.581 200.773 203.261 208.63 202.428C210.135 202.268 211.647 202.077 213.166 201.871C219.642 202.291 226.178 202.214 232.654 201.978C236.548 201.84 240.45 201.672 244.345 201.512C244.108 202.115 244.001 202.833 244.07 203.65C244.49 208.636 244.016 213.34 242.558 218.121C242.138 219.48 242.298 220.663 242.802 221.618C242.512 222.053 242.298 222.534 242.145 223.038C213.663 224.367 185.134 224.481 156.643 223.336C150.252 223.076 150.267 233.003 156.643 233.263C187.837 234.515 219.077 234.286 250.247 232.576C250.82 232.545 251.332 232.431 251.805 232.255C253.012 233.179 254.661 233.462 256.295 233.233C264.97 232.011 273.698 230.842 282.48 231.01C286.618 231.087 290.704 231.499 294.759 232.347C299.104 233.248 303.136 233.958 307.534 233.042C309.443 233.301 311.352 233.591 313.261 233.882C313.284 235.241 313.276 236.592 313.231 237.952L312.994 240.189C312.635 243.633 312.276 247.085 311.917 250.528C311.711 250.582 311.505 250.643 311.291 250.719C298.569 255.492 285.58 254.835 272.224 254.644L231.432 254.064C225.04 253.972 225.04 263.899 231.432 263.991C245.536 264.19 259.632 264.388 273.736 264.594C287.443 264.785 300.883 265.19 313.925 260.295C315.865 259.57 316.888 258.058 317.186 256.424C319.362 256.072 321.424 254.515 321.714 251.758L321.997 249.047C322.562 245.55 322.936 242.06 323.089 238.563L323.295 236.577C323.769 232.057 324.547 228.46 321.623 224.68C320.256 222.916 317.553 222.908 315.674 223.916C315.468 223.993 315.262 224.084 315.071 224.191C297.676 221.542 280.151 219.984 262.572 219.602C262.473 213.783 261.732 208.01 260.381 202.321C260.251 201.764 260.045 201.275 259.793 200.855C266.192 200.573 272.591 200.282 278.99 200.008C281.006 199.924 282.38 198.87 283.121 197.472C284.175 196.678 284.931 195.441 285.007 193.761C285.015 193.593 285.023 193.425 285.023 193.265C285.549 193.219 286.069 193.097 286.55 192.898C289.352 194.044 293.606 192.585 294.049 188.546C294.69 182.765 294.552 177.076 293.819 171.364C295.232 171.448 296.652 171.517 298.065 171.548C304.93 171.685 311.413 169.371 318.209 169.302C321.943 169.264 323.494 165.866 322.867 163.048C325.792 164.415 330.16 162.995 330.198 158.757C330.198 158.681 330.198 158.612 330.198 158.535C330.198 158.413 330.213 158.299 330.213 158.169C330.213 157.863 330.198 157.55 330.198 157.245C330.236 150.716 330.061 144.187 329.694 137.666C340.087 137.635 350.487 137.597 360.88 137.567C364.37 137.559 365.951 134.581 365.63 131.893C368.448 132.611 372.021 131.068 372.182 127.281C372.571 118.087 372.258 108.916 371.243 99.7675V99.7522Z" fill="#233244"></path><path d="M454.683 246.596C453.507 246.97 452.468 247.871 451.835 248.871C449.681 252.262 451.193 257.683 451.209 261.502C451.231 266.518 450.918 271.551 450.223 276.514C450.216 276.568 450.223 276.629 450.208 276.682C450.071 276.736 449.933 276.782 449.803 276.843C449.391 277.026 449.032 277.301 448.719 277.637C448.146 277.652 447.566 277.675 446.993 277.69C445.016 277.744 443.038 277.789 441.06 277.82C437.601 277.873 434.134 277.889 430.675 277.866C423.008 277.812 415.341 277.568 407.69 277.125C392.578 276.255 377.519 274.628 362.568 272.238C356.321 271.238 353.626 280.806 359.926 281.814C379.91 285.006 400.061 286.999 420.29 287.602C430.163 287.9 440.09 287.991 449.956 287.518C453.667 287.342 458.448 285.975 458.371 281.524C459.112 280.913 459.662 280.103 459.792 279.141C460.013 277.568 460.204 276.003 460.38 274.43C460.639 273.864 460.807 273.215 460.838 272.482C461.174 265.259 461.517 258.035 461.853 250.811C462.052 246.535 457.676 245.137 454.668 246.58L454.683 246.596Z" fill="#233244"></path><path d="M110.123 159.926C112.88 158.039 116.843 158.047 120.043 158.039C124.373 158.024 128.702 158.421 133.009 158.849C143.936 159.918 154.925 159.994 165.883 160.605C171.602 160.926 177.299 161.529 183.011 161.896C185.935 162.087 189.395 161.987 192.014 163.515C194.977 165.248 195.427 169.112 195.641 172.212C195.809 174.686 196.298 177.145 196.626 179.596C197.046 182.735 197.428 185.957 197.222 189.126C197.153 190.18 196.954 191.532 196.557 192.326C196.328 192.784 196.168 193.005 195.923 193.181C195.679 193.357 195.481 193.425 195.106 193.418C194.664 193.418 194.159 193.265 193.61 193.044C192.243 192.494 191.647 194.708 192.999 195.251C195.603 196.304 197.924 195.281 198.879 192.654C199.91 189.821 199.619 186.454 199.36 183.514C199.077 180.314 198.543 177.145 198.115 173.968C197.687 170.792 197.756 167.126 195.923 164.217C194.091 161.308 191.082 160.407 187.928 160.002C186.042 159.758 184.133 159.681 182.239 159.551C179.429 159.361 176.635 159.055 173.824 158.834C166.982 158.307 160.125 158.009 153.275 157.726C147.678 157.497 142.05 157.406 136.476 156.886C132.077 156.474 127.687 155.978 123.273 155.802C119.295 155.642 114.881 155.512 111.086 156.902C110.345 157.169 109.627 157.497 108.978 157.94C107.772 158.765 108.917 160.75 110.131 159.918L110.123 159.926Z" fill="black"></path><path d="M118.409 194.448C128.916 194.471 139.424 194.563 149.923 195.052C158.056 195.434 166.158 196.48 174.306 196.342C178.475 196.274 182.774 195.938 186.737 194.548C188.119 194.059 187.524 191.845 186.126 192.341C182.621 193.578 178.88 193.929 175.184 194.036C171.098 194.151 167.013 193.945 162.935 193.662C159.094 193.395 155.253 193.036 151.405 192.845C146.296 192.585 141.188 192.425 136.071 192.326C130.184 192.211 124.289 192.173 118.401 192.165C116.927 192.165 116.927 194.456 118.401 194.456L118.409 194.448Z" fill="black"></path><path d="M201.124 174.923C200.628 179.367 200.75 184.124 202.613 188.263C203.453 190.134 204.713 191.776 206.362 192.99C208.248 194.38 210.593 194.983 212.868 195.41C221.428 197.022 230.195 195.785 238.839 196.182C244.574 196.449 250.308 196.732 256.051 196.525C261.747 196.319 267.963 195.861 273.133 193.242C275.095 192.249 276.966 190.768 277.951 188.752C279.066 186.476 278.997 183.91 278.28 181.52C278.051 180.764 277.76 180.031 277.447 179.306C276.867 177.954 274.889 179.123 275.47 180.459C276.378 182.566 276.89 184.88 276.226 186.957C275.683 188.637 274.286 189.966 272.629 190.913C268.154 193.471 262.404 193.921 257.326 194.181C251.744 194.456 246.147 194.242 240.572 193.975C238.671 193.883 236.777 193.769 234.876 193.776C229.477 193.776 224.071 194.151 218.672 193.815C213.976 193.524 208.157 193.036 205.415 188.652C202.918 184.659 202.911 179.451 203.415 174.923C203.575 173.456 201.284 173.472 201.124 174.923Z" fill="black"></path><path d="M202.682 175.305C202.315 173.044 201.407 170.784 201.491 168.47C201.529 167.508 201.857 166.683 202.659 166.126C202.865 165.981 202.88 165.981 203.262 165.889C203.583 165.813 203.911 165.775 204.247 165.744C207.89 165.446 211.532 166.088 215.167 166.141C221.711 166.233 228.171 167.409 234.708 167.684C241.405 167.959 248.109 167.921 254.806 168.081C258.479 168.172 262.145 168.333 265.802 168.699C269.384 169.058 272.965 169.478 276.569 169.425L275.424 168.279C275.989 173.136 275.279 178.107 276.539 182.88C276.913 184.3 279.127 183.697 278.746 182.269C277.539 177.71 278.249 172.915 277.715 168.272C277.646 167.661 277.249 167.119 276.569 167.126C273.202 167.18 269.857 166.821 266.513 166.477C263.176 166.134 259.839 165.927 256.479 165.828C249.408 165.622 242.336 165.675 235.265 165.408C228.194 165.141 221.818 163.98 215.045 163.843C211.227 163.766 207.363 163.033 203.552 163.522C201.223 163.827 199.559 165.408 199.253 167.783C198.902 170.517 200.04 173.243 200.467 175.908C200.704 177.359 202.911 176.74 202.674 175.297L202.682 175.305Z" fill="black"></path><path d="M154.115 202.772C166.204 201.512 178.314 200.252 190.479 199.977C202.17 199.717 213.792 200.832 225.46 201.443C231.905 201.779 238.373 201.963 244.818 201.573C246.284 201.489 246.292 199.191 244.818 199.282C233.333 199.97 221.833 198.923 210.379 198.198C204.507 197.824 198.634 197.572 192.739 197.64C186.714 197.709 180.689 198.045 174.68 198.511C167.815 199.046 160.965 199.763 154.108 200.473C152.657 200.626 152.642 202.917 154.108 202.764L154.115 202.772Z" fill="black"></path><path d="M245.085 201.428C246.162 204.047 245.895 207.063 245.398 209.782C244.902 212.5 244.039 215.333 242.993 217.99C242.451 219.365 244.665 219.961 245.2 218.601C246.307 215.791 247.193 212.867 247.697 209.881C248.201 206.895 248.46 203.657 247.3 200.817C247.063 200.236 246.544 199.847 245.887 200.015C245.345 200.16 244.856 200.855 245.085 201.428Z" fill="black"></path><path d="M241.611 222.03C241.886 223.45 241.764 224.947 240.542 225.802C239.221 226.719 237.411 226.856 235.853 226.925C233.921 227.009 231.997 226.887 230.065 226.803C227.705 226.696 225.376 226.818 223.017 226.894C215.587 227.131 208.149 227.116 200.719 226.856C197.107 226.726 193.503 226.543 189.914 226.1C186.302 225.657 182.713 225.031 179.124 224.405C171.076 223 162.966 221.541 154.765 221.778C153.291 221.824 153.291 224.115 154.765 224.069C162.401 223.847 169.946 225.115 177.444 226.428C184.943 227.742 192.373 228.834 199.986 229.124C207.722 229.414 215.465 229.437 223.192 229.185C225.621 229.109 228.003 229.002 230.432 229.116C232.455 229.208 234.486 229.33 236.51 229.185C238.534 229.04 240.687 228.689 242.275 227.352C244.047 225.863 244.23 223.565 243.818 221.427C243.543 219.984 241.336 220.594 241.611 222.038V222.03Z" fill="black"></path><path d="M152.283 203.68C151.733 209.751 152.771 215.86 153.665 221.855C153.757 222.473 154.528 222.801 155.078 222.656C155.734 222.481 155.971 221.855 155.879 221.244C155.017 215.448 154.054 209.553 154.581 203.68C154.711 202.214 152.42 202.222 152.29 203.68H152.283Z" fill="black"></path><path d="M240.893 235.164C239.045 240.708 241.061 246.596 239.641 252.185L241.893 252.491C241.939 247.932 240.282 243.06 241.748 238.601C243.153 234.324 247.59 232.591 251.652 231.835C256.295 230.972 261.159 230.98 265.863 231.01C271.819 231.041 277.768 231.4 283.717 231.766C290.421 232.179 297.133 232.606 303.853 232.621C305.327 232.621 305.327 230.338 303.853 230.331C291.421 230.292 279.036 228.849 266.604 228.727C261.488 228.674 256.226 228.689 251.179 229.605C246.903 230.384 242.39 232.217 240.274 236.279C237.625 241.35 239.656 247.123 239.61 252.498C239.595 253.781 241.542 254.064 241.863 252.804C243.283 247.214 241.29 241.289 243.115 235.783C243.581 234.378 241.366 233.782 240.908 235.172L240.893 235.164Z" fill="black"></path><path d="M236.159 255.805C256.509 260.096 277.196 255.332 297.508 253.285C303.227 252.712 308.977 252.346 314.727 252.46C315.636 252.483 316.102 251.483 315.72 250.735C313.223 245.908 314.292 239.998 313.139 234.821L310.932 235.432C312.23 238.631 310.94 241.922 310.924 245.229C310.917 246.703 313.208 246.703 313.215 245.229C313.238 241.701 314.536 238.265 313.147 234.828C312.604 233.492 310.611 233.965 310.94 235.439C312.154 240.876 311.115 246.794 313.75 251.895L314.743 250.169C294.255 249.734 274.187 255.286 253.714 255.24C248.033 255.225 242.352 254.759 236.785 253.59C235.349 253.285 234.731 255.492 236.174 255.797L236.159 255.805Z" fill="black"></path><path d="M281.502 30.4693C280.571 33.3711 280.754 36.6394 280.991 39.6327C281.281 43.2523 281.846 46.8413 282.503 50.4074C283.068 53.4847 283.61 56.608 284.542 59.5937C285.122 61.4569 285.901 63.427 287.367 64.7863C288.833 66.1455 290.582 66.5961 292.445 66.8022C295.003 67.0924 297.622 66.8939 300.188 66.7793C309.466 66.367 318.522 64.2441 327.724 63.2285C332.978 62.6482 338.216 62.6023 343.485 62.9765C348.754 63.3507 354.023 64.015 359.315 64.3205C359.956 64.3587 360.422 63.763 360.46 63.1751C360.705 59.0439 361.086 54.9204 361.148 50.7739C361.209 46.742 361.025 42.5727 359.781 38.7088C359.33 37.3114 357.116 37.907 357.574 39.3197C358.796 43.0996 358.925 47.1467 358.849 51.087C358.773 55.0273 358.406 59.1432 358.169 63.1751L359.315 62.0296C350.281 61.5027 341.309 59.9908 332.237 60.5406C323.226 61.0827 314.414 63.1979 305.442 64.1067C302.059 64.4503 298.623 64.6412 295.217 64.6335C293.514 64.6335 291.437 64.5801 290.024 63.8623C288.612 63.1445 287.894 61.9991 287.275 60.5024C286.252 57.9901 285.763 55.2411 285.236 52.5913C284.48 48.7656 283.793 44.9093 283.396 41.0225C283.068 37.8077 282.686 34.1958 283.694 31.0573C284.144 29.6523 281.938 29.049 281.487 30.4464L281.502 30.4693Z" fill="black"></path><path d="M281.792 31.9124C290.81 31.1336 299.798 32.8975 308.702 34.1117C313.184 34.7226 317.659 35.1196 322.18 35.2953C326.7 35.4709 331.664 35.5778 336.406 35.8451C341.606 36.1353 346.791 36.6545 351.907 37.6777C353.351 37.9679 353.961 35.761 352.518 35.4709C343.309 33.6229 333.924 33.4091 324.57 33.0884C319.874 32.928 315.216 32.6684 310.557 32.0652C305.899 31.4619 301.562 30.7441 297.041 30.1943C291.986 29.5758 286.878 29.1863 281.792 29.6216C280.333 29.7514 280.318 32.0423 281.792 31.9124Z" fill="black"></path><path d="M356.253 38.5407C357.009 38.6323 357.772 38.6018 358.528 38.7011L358.223 38.6629C358.391 38.6858 358.567 38.7163 358.735 38.7774L358.46 38.6629C358.46 38.6629 358.528 38.6934 358.559 38.7163L358.33 38.5407C358.33 38.5407 358.353 38.5636 358.36 38.5712L358.185 38.3422C358.185 38.3422 358.192 38.3575 358.2 38.3651L358.085 38.0902C358.085 38.0902 358.085 38.1055 358.085 38.1131L358.047 37.8076C358.047 37.8076 358.047 37.8229 358.047 37.8382L358.085 37.5327C358.085 37.5327 358.085 37.5557 358.078 37.5633L358.192 37.2884C358.192 37.2884 358.177 37.3189 358.162 37.3342L358.338 37.1051C358.338 37.1051 358.284 37.1662 358.246 37.1891L358.475 37.0135C358.36 37.1051 358.223 37.1662 358.093 37.2273C357.849 37.3419 357.635 37.6625 357.566 37.9145C357.49 38.1894 357.528 38.556 357.681 38.8004C357.833 39.0447 358.07 39.2585 358.368 39.3273L358.673 39.3654C358.88 39.3654 359.071 39.312 359.254 39.2127C359.712 39.0065 360.155 38.6705 360.292 38.1589C360.407 37.7236 360.277 37.2502 359.956 36.9371C359.758 36.7462 359.513 36.6317 359.254 36.5477C358.903 36.4408 358.528 36.4178 358.162 36.3797C357.833 36.3491 357.497 36.3339 357.162 36.3186C356.856 36.3033 356.551 36.2957 356.245 36.2575C355.978 36.227 355.619 36.4102 355.436 36.5935C355.237 36.792 355.084 37.1204 355.1 37.4029C355.115 37.6855 355.207 38.0062 355.436 38.2124L355.665 38.388C355.84 38.4949 356.039 38.5407 356.245 38.5407H356.253Z" fill="black"></path><path d="M290.933 65.2977C279.211 61.9912 266.36 63.4269 254.745 66.5042C252.439 67.1151 250.102 68.2148 247.682 67.9628C245.925 67.7795 244.619 68.0162 243.382 69.406C241.809 71.1928 241.618 73.3386 241.618 75.6371C241.618 77.9356 241.68 80.2493 241.588 82.5707C241.313 89.2447 241.428 96.2471 244.169 102.455C244.352 102.875 245.032 103.15 245.459 102.982C249.102 101.57 253.18 101.768 257.013 101.982C261.136 102.211 265.298 102.723 269.429 102.387C274.003 102.012 278.539 100.798 282.961 99.6147C287.664 98.3547 292.33 96.9649 297.08 95.8882C302.379 94.6817 307.793 93.9028 313.238 94.2999C314.712 94.4068 314.704 92.116 313.238 92.0091C303.441 91.2989 293.865 94.2541 284.526 96.8198C279.906 98.0874 275.225 99.3703 270.468 99.9965C266.367 100.531 262.167 100.027 258.074 99.7674C253.729 99.4925 249.003 99.1794 244.856 100.783L246.147 101.31C243.879 96.1784 243.688 90.3062 243.802 84.7929C243.856 82.4562 244.016 80.1424 243.947 77.8058C243.894 75.9807 243.543 73.5066 244.413 71.8267C244.726 71.2158 245.406 70.414 246.04 70.2002C246.437 70.0703 247.132 70.2001 247.674 70.2612C249.942 70.4979 252.011 69.6427 254.157 69.0395C259.655 67.5046 265.306 66.4279 271.002 65.9773C277.463 65.4734 284.053 65.7406 290.314 67.5046C291.735 67.9093 292.346 65.6948 290.925 65.2977H290.933Z" fill="black"></path><path d="M338.048 69.7423C337.872 76.7981 338.598 83.8311 338.911 90.8716L339.751 89.7644C336.422 90.9403 333.039 92.3988 329.427 92.0552C327.961 91.9178 327.968 94.2086 329.427 94.3461C333.237 94.705 336.842 93.2235 340.362 91.9788C340.82 91.8185 341.225 91.3985 341.202 90.8716C340.889 83.8311 340.163 76.7981 340.339 69.7423C340.377 68.2685 338.086 68.2685 338.048 69.7423Z" fill="black"></path><path d="M287.016 103.944C288.123 108.549 288.512 113.383 288.443 118.11C288.405 120.568 288.237 123.05 287.68 125.448C287.283 127.151 286.718 129.052 285.435 130.312C283.984 131.732 281.166 131.855 279.135 131.992C275.92 132.214 272.69 132.084 269.475 132.053C266.39 132.023 263.389 132.168 260.335 132.611C256.494 133.168 252.637 133.634 248.774 133.939C240.114 134.619 231.264 134.543 222.803 132.359C221.375 131.992 220.764 134.199 222.192 134.565C230.057 136.597 238.274 136.879 246.345 136.391C250.339 136.154 254.317 135.719 258.288 135.184C261.61 134.741 264.825 134.321 268.185 134.329C271.606 134.329 275.034 134.489 278.455 134.313C280.922 134.184 284.068 134.077 286.191 132.634C289.871 130.136 290.414 124.432 290.658 120.416C291.002 114.757 290.559 108.847 289.238 103.333C288.894 101.898 286.687 102.509 287.031 103.944H287.016Z" fill="black"></path><path d="M249.079 99.989C243.39 101.845 237.388 102.639 231.447 103.112C225.033 103.624 218.588 103.708 212.158 103.57C208.943 103.502 205.728 103.372 202.514 103.196C201.719 103.15 201.277 103.96 201.406 104.647C202.972 112.52 201.819 120.607 201.231 128.525C201.124 129.999 203.415 129.991 203.522 128.525C204.125 120.378 205.224 112.146 203.613 104.036L202.506 105.487C215.022 106.19 227.774 106.335 240.183 104.387C243.398 103.883 246.59 103.204 249.682 102.196C251.08 101.738 250.484 99.5308 249.071 99.989H249.079Z" fill="black"></path><path d="M292.773 105.586C293.827 109.282 292.85 113.123 293.148 116.888C293.445 120.652 294.713 124.264 295.668 127.922C295.897 128.808 296.111 129.694 296.286 130.595C296.492 131.664 296.851 131.985 297.867 132.305C299.18 132.725 300.578 132.909 301.952 132.993C305.144 133.199 308.351 132.817 311.513 132.382C318.591 131.404 325.815 129.793 332.993 130.274C335.024 130.411 337.033 130.755 339.056 130.938C341.049 131.122 343.058 131.221 345.058 131.267C348.777 131.343 352.504 130.999 356.215 131.183C357.681 131.251 359.246 131.282 360.56 130.534C361.873 129.785 362.637 128.48 362.874 127.074C363.385 124.096 362.599 121.103 362.576 118.125C362.568 116.651 360.277 116.651 360.285 118.125C360.3 120.019 360.613 121.905 360.713 123.799C360.789 125.349 361.003 127.64 359.407 128.556C358.651 128.991 357.696 128.945 356.856 128.922C355.802 128.892 354.756 128.8 353.702 128.838C350.763 128.938 347.83 129.045 344.883 128.976C339.194 128.846 333.566 127.655 327.869 127.998C322.753 128.304 317.66 129.19 312.597 129.938C310.008 130.32 307.397 130.663 304.778 130.747C302.426 130.824 300.028 130.717 297.813 129.869L298.615 130.671C297.874 126.364 296.11 122.287 295.545 117.942C294.98 113.627 296.194 109.236 294.98 104.983C294.576 103.57 292.369 104.166 292.773 105.594V105.586Z" fill="black"></path><path d="M363.369 103.479C360.262 98.3165 354.168 97.7667 348.7 97.8202C345.814 97.8431 342.958 97.8201 340.072 97.7132C336.231 97.5682 332.412 98.202 328.617 98.6754C324.41 99.2023 320.088 99.5765 315.972 98.3241C314.559 97.8965 313.956 100.103 315.361 100.531C322.562 102.73 329.992 100.371 337.269 100.019C340.239 99.8743 343.218 100.203 346.188 100.149C348.876 100.103 351.625 99.9659 354.29 100.394C357.192 100.859 359.819 102.035 361.384 104.632C362.14 105.892 364.125 104.746 363.362 103.479H363.369Z" fill="black"></path><path d="M107.818 160.445C106.626 162.858 106.962 165.584 107.314 168.157C107.734 171.212 107.84 174.274 108.008 177.351C108.176 180.428 108.444 183.651 108.612 186.805C108.688 188.217 108.81 189.653 109.177 191.02C109.398 191.844 109.704 193.013 110.322 193.647C110.941 194.28 111.804 194.128 112.628 194.044C114.4 193.876 116.202 193.998 117.981 194.005C119.455 194.013 119.455 191.722 117.981 191.715C116.202 191.707 114.4 191.577 112.628 191.753C112.399 191.776 112.163 191.799 111.933 191.837C111.849 191.844 111.765 191.852 111.681 191.86C111.536 191.86 111.544 191.86 111.704 191.89C111.788 191.921 111.872 191.967 111.941 192.028C112.025 192.135 112.033 192.119 111.949 191.99C111.972 191.913 111.75 191.493 111.727 191.44C110.589 188.416 110.895 185.018 110.605 181.849C110.261 178.023 110.315 174.159 109.895 170.349C109.589 167.645 108.52 164.194 109.788 161.605C110.437 160.284 108.459 159.123 107.81 160.452L107.818 160.445Z" fill="black"></path><path d="M62.2297 198.74C69.2016 200.206 76.4178 200.145 83.5041 199.824C91.3159 199.473 99.0666 200.061 106.863 200.458C110.788 200.656 114.721 200.679 118.646 200.573C120.608 200.519 122.578 200.481 124.526 200.252C126.473 200.023 128.237 199.71 130.115 199.641C131.421 199.595 132.727 199.717 134.033 199.755C135.239 199.794 136.499 199.794 137.675 200.091C139.118 200.45 139.493 202.283 139.722 203.688C140.142 206.2 139.989 208.842 139.767 211.37C139.592 213.424 139.317 215.478 138.897 217.502C138.599 218.937 140.806 219.556 141.104 218.113C141.974 213.936 142.478 209.484 142.173 205.223C142.035 203.253 141.76 201.023 140.539 199.397C139.126 197.503 136.522 197.564 134.369 197.48C133.071 197.434 131.757 197.32 130.459 197.342C128.458 197.381 126.488 197.732 124.51 197.961C120.54 198.427 116.454 198.373 112.46 198.335C104.336 198.251 96.2413 197.327 88.1087 197.396C79.6479 197.465 71.1946 198.289 62.8254 196.533C61.3898 196.228 60.7713 198.442 62.2145 198.74H62.2297Z" fill="black"></path><path d="M60.9466 197.335C59.2666 198.816 58.9688 201.351 58.9001 203.459C58.8161 206.109 59.1673 208.751 59.4804 211.378C59.6026 212.439 59.74 213.508 59.7935 214.577C59.8546 215.891 59.6408 217.212 59.7477 218.525C59.8699 220.03 60.4808 221.32 61.7789 222.152C62.8862 222.863 64.2454 223.214 65.5206 223.473C68.3078 224.046 71.1485 224.168 73.9662 224.527C78.0821 225.054 82.2133 225.451 86.3521 225.688C94.6755 226.169 103.029 226.1 111.353 225.657C115.866 225.421 120.364 225.069 124.854 224.627C129.374 224.176 133.903 223.695 138.454 223.825C139.927 223.871 139.927 221.58 138.454 221.534C130.871 221.312 123.281 222.595 115.728 223.107C107.848 223.641 99.9445 223.871 92.0487 223.649C84.8554 223.443 77.7614 222.611 70.6063 221.893C69.1936 221.748 67.7733 221.595 66.3759 221.32C65.2381 221.099 63.8941 220.854 62.9243 220.175C61.8018 219.388 61.9774 217.907 62.0385 216.693C62.092 215.608 62.0996 214.554 62.0004 213.478C61.7484 210.79 61.3208 208.125 61.2062 205.422C61.1222 203.444 60.9084 200.412 62.5578 198.954C63.665 197.976 62.0385 196.365 60.9389 197.335H60.9466Z" fill="black"></path><path d="M138.973 223.573C138.973 223.573 139.011 223.573 139.027 223.573C139.034 223.573 139.042 223.573 139.05 223.573C139.05 223.573 139.05 223.573 139.057 223.573C139.156 223.565 139.271 223.542 139.363 223.535C139.378 223.535 139.393 223.535 139.408 223.527C139.408 223.527 139.408 223.527 139.416 223.527C139.447 223.512 139.66 223.428 139.691 223.412C139.691 223.412 139.706 223.412 139.706 223.405C139.706 223.405 139.714 223.405 139.722 223.397C139.76 223.367 139.828 223.313 139.844 223.305C139.851 223.298 139.928 223.244 139.966 223.214C139.966 223.214 139.966 223.214 139.973 223.214C139.973 223.214 139.981 223.206 139.989 223.199C140.058 223.122 140.119 223.038 140.18 222.954C140.18 222.954 140.18 222.947 140.187 222.939C140.233 222.847 140.271 222.748 140.31 222.649C140.31 222.633 140.317 222.618 140.317 222.611C140.317 222.611 140.317 222.611 140.317 222.603C140.332 222.511 140.348 222.389 140.355 222.297C140.355 222.297 140.355 222.297 140.355 222.29C140.355 222.282 140.355 222.275 140.355 222.267C140.355 222.244 140.355 222.221 140.355 222.206C140.355 222.045 140.325 221.9 140.256 221.763C140.21 221.618 140.134 221.496 140.019 221.396C139.912 221.282 139.79 221.206 139.653 221.16C139.515 221.091 139.37 221.053 139.21 221.06L138.904 221.099C138.714 221.152 138.546 221.251 138.4 221.396L138.225 221.625C138.118 221.801 138.072 222 138.072 222.206C138.072 222.236 138.072 222.275 138.072 222.305L138.11 222C138.11 222 138.11 222.038 138.095 222.061L138.21 221.786C138.21 221.786 138.194 221.809 138.187 221.824L138.362 221.595C138.362 221.595 138.347 221.61 138.339 221.618L138.568 221.442C138.568 221.442 138.546 221.457 138.53 221.465L138.805 221.351C138.805 221.351 138.767 221.366 138.752 221.366L139.057 221.328C139.057 221.328 138.988 221.328 138.958 221.328C138.798 221.328 138.652 221.358 138.515 221.427C138.37 221.473 138.248 221.549 138.148 221.664C138.034 221.771 137.958 221.893 137.912 222.03C137.843 222.168 137.805 222.313 137.812 222.473L137.851 222.779C137.904 222.969 138.003 223.137 138.148 223.283L138.378 223.458C138.553 223.565 138.752 223.611 138.958 223.611L138.973 223.573Z" fill="black"></path><path d="M11.64 233.072C16.97 233.492 22.3154 233.408 27.6607 233.309C33.0289 233.21 38.3513 233.263 43.7119 233.462C54.4178 233.866 65.0626 232.774 75.7075 231.827C78.3419 231.591 80.984 231.438 83.6262 231.583C85.6421 231.698 87.5893 231.973 89.6053 231.98C90.9034 231.98 93.0645 231.766 93.9884 232.912C94.8895 234.027 95.1339 235.775 95.3401 237.142C95.9433 241.113 95.6684 245.153 95.3629 249.131C95.2713 250.345 95.2026 251.559 95.1109 252.773C95.0651 253.384 95.027 254.117 94.7062 254.652C94.3092 255.309 92.9117 255.355 91.9725 255.469C86.4363 256.156 80.9993 255.736 75.4631 255.248C69.8123 254.744 64.1768 254.087 58.6101 252.995C57.1668 252.712 56.5559 254.919 57.9992 255.202C63.2987 256.248 68.6669 256.905 74.0428 257.409C79.2888 257.905 84.6952 258.569 89.9565 258.02C91.5449 257.852 93.4005 257.806 94.9124 257.241C96.18 256.775 96.9055 255.752 97.188 254.453C97.4018 253.445 97.4171 252.407 97.4858 251.384C97.5851 249.879 97.7149 248.383 97.8218 246.878C97.9745 244.702 98.0356 242.526 97.9287 240.342C97.8371 238.593 97.6691 236.829 97.2873 235.119C96.9513 233.63 96.432 231.95 95.2331 230.919C93.8128 229.697 91.6441 229.697 89.8725 229.682C88.9791 229.682 88.0857 229.712 87.1922 229.651C86.001 229.567 84.8174 229.361 83.6262 229.292C77.9525 228.972 72.2177 229.896 66.5746 230.369C60.962 230.842 55.3342 231.209 49.6987 231.255C43.3454 231.308 37.0074 230.865 30.6464 230.965C24.3084 231.064 17.9628 231.285 11.6324 230.781C10.1662 230.667 10.1739 232.958 11.6324 233.072H11.64Z" fill="black"></path><path d="M16.4202 257.164C23.0942 259.02 30.0279 257.47 36.8164 257.447C40.5123 257.432 44.2158 257.851 47.9118 258.019C51.6077 258.187 55.105 258.233 58.694 258.004C60.8245 257.867 62.9168 257.706 65.055 257.722C67.1931 257.737 69.1632 257.699 71.1868 257.279C72.6301 256.981 72.0191 254.766 70.5759 255.072C68.8119 255.438 67.0251 255.439 65.2306 255.431C63.4055 255.431 61.611 255.492 59.7936 255.637C56.2581 255.912 52.7073 255.912 49.1641 255.782C45.6209 255.652 41.9326 255.309 38.3131 255.179C34.9761 255.064 31.6391 255.408 28.3097 255.622C24.5374 255.866 20.7041 255.981 17.0311 254.957C15.6108 254.56 14.9999 256.767 16.4202 257.164Z" fill="black"></path><path d="M62.2069 264.327C64.9636 263.029 68.1555 262.869 71.1488 262.838C74.2949 262.807 77.4411 262.96 80.5872 262.983C84.4893 263.006 88.3837 263.098 92.2858 263.25C96.2337 263.403 100.182 263.686 104.137 263.701C110.59 263.716 116.966 263.128 123.327 262.067C125.725 261.67 128.283 261.227 130.711 261.54C131.482 261.639 132.315 261.822 132.872 262.403C133.468 263.021 133.788 263.884 134.017 264.694C134.758 267.29 134.659 270.123 134.422 272.78C134.208 275.163 133.827 277.568 133.132 279.859C132.704 281.272 134.911 281.875 135.339 280.47C136.728 275.881 137.309 270.596 136.591 265.847C136.285 263.8 135.575 261.357 133.727 260.158C131.788 258.898 129.039 259.089 126.847 259.295C124.358 259.532 121.914 260.028 119.448 260.417C115.805 260.998 111.903 261.219 108.154 261.349C99.9601 261.624 91.7589 260.853 83.5652 260.73C79.625 260.669 75.6847 260.547 71.7445 260.547C68.1173 260.547 64.3679 260.784 61.0385 262.349C59.7022 262.976 60.8706 264.953 62.1916 264.327H62.2069Z" fill="black"></path><path d="M62.4588 265.174C61.6952 264.831 60.9468 264.693 60.1221 264.594C59.5571 264.525 58.908 265.182 58.9767 265.74C59.1982 267.473 59.2745 269.214 59.3432 270.955C59.389 272.299 59.4807 273.635 59.3814 274.979C59.2134 277.117 58.6483 279.958 60.0152 281.837C61.0537 283.257 62.9551 283.623 64.5969 283.776C66.7503 283.982 68.9495 283.784 71.0953 283.578C73.0578 283.387 75.0279 283.089 76.998 283.005C79.9838 282.883 83.0535 283.364 86.024 283.631C89.6283 283.952 93.2631 284.242 96.8826 284.059C100.456 283.883 103.946 283.127 107.535 283.379C111.399 283.654 115.141 284.234 119.035 284.021C122.785 283.814 126.656 283.341 130.337 284.349C131.757 284.738 132.368 282.531 130.948 282.142C127.847 281.287 124.617 281.394 121.433 281.585C118.088 281.783 114.858 281.859 111.521 281.493C109.834 281.31 108.146 281.088 106.451 281.027C104.756 280.966 103.068 281.126 101.38 281.325C97.8982 281.73 94.4849 281.905 90.9799 281.714C85.4895 281.417 79.9762 280.347 74.4781 280.92C72.3629 281.142 70.2477 281.409 68.1172 281.516C66.3761 281.607 64.3296 281.753 62.6802 281.058C61.9624 280.752 61.7028 280.416 61.5501 279.607C61.3134 278.309 61.5119 276.904 61.6264 275.598C61.9013 272.36 61.6952 268.954 61.2828 265.74L60.1374 266.885C60.5268 266.938 60.9545 266.992 61.3134 267.152C62.6497 267.755 63.8104 265.778 62.4664 265.174H62.4588Z" fill="black"></path><path d="M131.36 284.311C131.398 284.356 131.444 284.395 131.49 284.433C131.604 284.525 131.719 284.631 131.849 284.692C132.116 284.83 132.375 284.914 132.681 284.914C132.704 284.914 132.727 284.914 132.75 284.914C132.872 284.899 132.994 284.891 133.109 284.861C133.131 284.861 133.154 284.845 133.177 284.838C133.284 284.799 133.399 284.754 133.506 284.7C133.635 284.631 133.758 284.525 133.864 284.441C133.918 284.402 133.964 284.356 134.002 284.311C134.117 284.204 134.193 284.082 134.239 283.944C134.307 283.807 134.346 283.662 134.338 283.501C134.338 283.341 134.307 283.196 134.239 283.058C134.193 282.913 134.117 282.791 134.002 282.692L133.773 282.516C133.597 282.409 133.399 282.363 133.192 282.363L132.887 282.402C132.696 282.455 132.528 282.554 132.383 282.699C132.337 282.745 132.291 282.791 132.238 282.837L132.467 282.661C132.414 282.699 132.36 282.73 132.307 282.753L132.582 282.638C132.536 282.654 132.49 282.669 132.444 282.677L132.75 282.638C132.704 282.638 132.658 282.638 132.612 282.638L132.918 282.677C132.872 282.677 132.826 282.654 132.78 282.638L133.055 282.753C132.994 282.73 132.94 282.692 132.895 282.654L133.124 282.829C133.07 282.791 133.024 282.745 132.979 282.692C132.872 282.577 132.75 282.501 132.612 282.455C132.475 282.386 132.33 282.348 132.169 282.356C132.009 282.356 131.864 282.386 131.726 282.455C131.581 282.501 131.459 282.577 131.36 282.692L131.184 282.921C131.077 283.097 131.031 283.295 131.031 283.501L131.07 283.807C131.123 283.998 131.222 284.166 131.367 284.311H131.36Z" fill="black"></path><path d="M277.638 185.537C277.638 185.537 277.562 185.537 277.531 185.537C277.516 185.537 277.501 185.537 277.478 185.537C277.478 185.537 277.462 185.537 277.455 185.537C277.348 185.545 277.241 185.568 277.126 185.583C277.096 185.583 277.073 185.591 277.042 185.606C277.042 185.606 277.027 185.606 277.02 185.606C276.928 185.644 276.821 185.682 276.737 185.728C276.722 185.728 276.714 185.743 276.699 185.743C276.691 185.743 276.676 185.759 276.668 185.766C276.63 185.797 276.577 185.835 276.546 185.858C276.516 185.881 276.462 185.919 276.424 185.95C276.424 185.95 276.416 185.957 276.409 185.965C276.317 186.049 276.248 186.148 276.187 186.247C276.187 186.255 276.172 186.27 276.172 186.278C276.118 186.377 276.08 186.484 276.042 186.583C276.035 186.606 276.027 186.637 276.019 186.667C276.019 186.667 276.019 186.683 276.019 186.69C276.004 186.797 275.989 186.912 275.973 187.019C275.973 187.034 275.973 187.057 275.973 187.072C275.973 187.118 275.973 187.156 275.973 187.194C275.973 187.355 276.004 187.5 276.073 187.637C276.118 187.782 276.195 187.904 276.309 188.004C276.416 188.118 276.538 188.195 276.676 188.24C276.813 188.309 276.958 188.347 277.119 188.34L277.424 188.302C277.615 188.248 277.783 188.149 277.928 188.004L278.104 187.775C278.211 187.599 278.257 187.4 278.257 187.194C278.257 187.126 278.249 187.064 278.257 186.996L278.218 187.301C278.218 187.263 278.234 187.217 278.249 187.179L278.134 187.454C278.134 187.454 278.157 187.4 278.18 187.378L278.005 187.607C278.005 187.607 278.035 187.568 278.058 187.553L277.829 187.729C277.829 187.729 277.875 187.698 277.905 187.683L277.63 187.798C277.63 187.798 277.707 187.775 277.745 187.767L277.44 187.805C277.508 187.798 277.577 187.805 277.638 187.805C277.798 187.805 277.944 187.775 278.081 187.706C278.226 187.66 278.348 187.584 278.448 187.469C278.562 187.362 278.638 187.24 278.684 187.103C278.753 186.965 278.791 186.82 278.784 186.66L278.745 186.354C278.692 186.163 278.593 185.995 278.448 185.85L278.218 185.675C278.043 185.568 277.844 185.522 277.638 185.522V185.537Z" fill="black"></path><path d="M200.994 127.96C203.048 130.938 206.37 131.595 209.791 131.366C213.212 131.137 216.572 130.114 219.817 130.938C221.245 131.305 221.856 129.098 220.428 128.732C217.313 127.937 214.075 128.663 210.952 128.976C208.134 129.258 204.774 129.411 202.972 126.8C202.14 125.593 200.154 126.739 200.994 127.953V127.96Z" fill="black"></path><path d="M219.206 133.962C219.81 134.168 220.413 134.367 221.016 134.573C221.291 134.665 221.658 134.596 221.902 134.459C222.146 134.321 222.368 134.046 222.429 133.771C222.498 133.481 222.482 133.153 222.314 132.886C222.146 132.618 221.925 132.458 221.627 132.359C221.024 132.152 220.421 131.954 219.817 131.748C219.542 131.656 219.176 131.725 218.931 131.862C218.687 132 218.466 132.275 218.405 132.55C218.336 132.84 218.351 133.168 218.519 133.435C218.687 133.703 218.909 133.863 219.206 133.962Z" fill="black"></path><path d="M246.108 140.102C253.24 139.445 260.357 138.628 267.497 138.155C274.637 137.681 281.54 137.834 288.55 137.254C295.285 136.696 302.173 135.894 308.908 136.925C311.474 137.315 314.406 137.834 316.651 139.239C317.965 140.064 318.469 141.339 318.591 142.843C318.751 144.79 318.576 146.768 318.606 148.723C318.644 150.976 318.69 153.244 318.507 155.489C318.43 156.436 318.308 157.382 318.033 158.299C317.942 158.612 317.835 158.91 317.667 159.192C317.545 159.391 317.377 159.543 317.277 159.62C316.056 160.467 314.261 160.681 312.795 160.865C308.419 161.422 303.975 161.307 299.577 161.399C297.561 161.437 295.598 161.636 293.598 161.842C289.917 162.224 286.229 162.445 282.541 162.651C278.913 162.858 275.294 163.148 271.674 163.377C268.268 163.583 264.863 163.468 261.472 163.201C258.082 162.934 254.676 162.422 251.255 162.537C247.765 162.651 244.314 163.186 240.824 163.323C239.152 163.392 237.487 163.346 235.83 163.132L236.937 164.583C237.884 159.521 239.098 154.427 238.778 149.242C238.686 147.776 236.395 147.769 236.487 149.242C236.792 154.236 235.639 159.101 234.73 163.98C234.578 164.782 235.059 165.332 235.838 165.431C239.381 165.897 242.939 165.515 246.475 165.179C250.133 164.835 253.645 164.79 257.303 165.133C260.785 165.462 264.275 165.775 267.78 165.79C271.521 165.805 275.248 165.393 278.974 165.164C282.724 164.935 286.481 164.751 290.23 164.454C292.91 164.24 295.575 163.827 298.263 163.736C302.753 163.583 307.259 163.728 311.741 163.285C313.627 163.102 315.59 162.88 317.361 162.155C319.018 161.475 319.912 160.315 320.355 158.581C321.416 154.412 320.775 149.96 320.92 145.714C320.989 143.691 321.027 141.492 320.08 139.636C319.194 137.91 317.453 136.956 315.704 136.291C309.366 133.871 302.219 133.985 295.56 134.436C292.009 134.672 288.466 135.039 284.908 135.276C281.349 135.512 277.661 135.459 274.034 135.574C266.512 135.81 259.021 136.582 251.53 137.33C249.728 137.505 247.918 137.689 246.116 137.849C244.657 137.987 244.65 140.277 246.116 140.14L246.108 140.102Z" fill="black"></path><path d="M9.99048 232.194C10.3494 234.989 10.2577 237.791 10.2654 240.601C10.273 243.412 10.5632 246.038 10.8763 248.764C11.029 250.078 11.1664 251.391 11.2581 252.705C11.3497 254.018 11.197 255.332 11.3421 256.599C11.4719 257.729 12.9839 258.272 13.9613 258.508C15.2136 258.814 16.3896 258.653 17.5579 258.142C18.9019 257.554 17.7412 255.576 16.4049 256.164C15.2518 256.668 14.0682 256.24 13.0678 255.607L13.633 256.599C13.7628 252.605 13.0755 248.681 12.709 244.717C12.3271 240.548 12.8006 236.356 12.2737 232.194C12.0904 230.751 9.79957 230.735 9.98284 232.194H9.99048Z" fill="black"></path><path d="M368.562 249.016C379.016 249.039 389.47 249.314 399.916 249.711C405.139 249.91 410.355 250.139 415.578 250.375C418.083 250.49 420.587 250.604 423.092 250.727C424.589 250.795 426.093 250.918 427.597 250.849C433.202 250.574 438.784 249.658 444.412 249.917C445.512 249.971 446.627 250.055 447.68 250.375C448.398 250.597 448.643 250.742 448.956 251.299C449.948 253.048 449.956 255.736 450.002 257.805C450.132 263.922 449.169 269.955 448.917 276.048L450.063 274.903C434.035 275.682 418.044 274.338 402.047 273.551C395.716 273.238 389.355 272.818 383.033 273.406C380.482 273.643 377.939 273.902 375.381 274.032C373.067 274.154 370.654 274.246 368.363 273.826C367.47 273.666 366.5 273.444 365.752 272.902C364.645 272.1 364.141 270.772 363.927 269.473C363.4 266.251 364.209 262.891 364.248 259.653C364.263 258.18 361.972 258.18 361.957 259.653C361.911 264.426 359.658 272.352 365.088 275.17C367.02 276.17 369.349 276.338 371.479 276.392C374.167 276.46 376.863 276.254 379.543 276.018C381.902 275.811 384.254 275.529 386.622 275.407C390.127 275.216 393.693 275.475 397.198 275.621C405.429 275.949 413.654 276.514 421.885 276.926C431.27 277.4 440.678 277.652 450.07 277.194C450.712 277.163 451.193 276.69 451.216 276.048C451.445 270.535 452.262 265.067 452.308 259.539C452.331 256.927 452.323 254.125 451.544 251.612C450.91 249.558 449.651 248.413 447.543 247.985C444.794 247.42 441.884 247.558 439.097 247.695C436.073 247.848 433.065 248.146 430.056 248.39C427.047 248.634 423.825 248.474 420.664 248.329C415.326 248.077 409.988 247.832 404.651 247.619C392.631 247.122 380.604 246.763 368.57 246.733C367.096 246.733 367.096 249.024 368.57 249.024L368.562 249.016Z" fill="black"></path></g></g><defs><clipPath id="clip0_25_32405"><rect width="490" height="330" fill="white" transform="matrix(-1 0 0 1 490 0)"></rect></clipPath></defs></svg> 