<?xml version="1.0" encoding="UTF-8"?> <svg xmlns="http://www.w3.org/2000/svg" width="145" height="194" viewBox="0 0 145 194" fill="none"><path d="M45.9906 2.8391L45.4294 8.42492C45.4294 8.42492 41.5739 8.95493 41.6363 11.1269C41.6986 13.2989 41.5687 24.9122 41.5687 24.9122L36.0141 29.0639L35.7179 141.934L33.0471 142.635L32.7821 192.196L117.141 192.783L118.996 191.063L118.643 138.125L116.668 136.265L111.212 133.443L113.706 79.9182L108.282 25.8942L105.361 24.9434H102.446L97.1567 7.15707C97.1567 7.15707 88.3597 4.75127 82.4621 4.4447C76.5645 4.13813 61.6673 0.396943 57.4948 2.26754C53.3223 4.13814 49.6799 -1.20346 48.1366 0.8542L46.5934 2.91185L46.001 2.8495L45.9906 2.8391Z" fill="#2B3A4C"></path><path d="M72.2257 150.008C112.115 150.008 144.452 117.672 144.452 77.7826C144.452 37.8933 112.115 5.55667 72.2257 5.55667C32.3364 5.55667 -0.000244141 37.8933 -0.000244141 77.7826C-0.000244141 117.672 32.3364 150.008 72.2257 150.008Z" fill="url(#paint0_radial_11_21813)"></path><path d="M48.9472 28.8872C47.804 30.498 45.6424 124.823 48.0223 132.482C50.4021 140.141 95.577 138.541 97.1514 138.821C98.7259 139.102 98.9129 116.374 98.9129 116.374C98.9129 116.374 102.363 65.3171 100.804 50.2484C99.2455 35.1797 98.3258 30.6383 98.3258 30.6383C98.3258 30.6383 60.2747 32.062 59.2355 31.5424C58.1962 31.0228 48.9472 28.8924 48.9472 28.8924V28.8872Z" fill="#E9FDFF"></path><path d="M53.0364 90.7365C53.0624 90.5026 53.0987 90.2636 53.1039 90.0298C53.1195 89.0062 53.1143 87.9825 53.1299 86.9589C53.1455 85.8989 53.1767 84.8337 53.2078 83.7737C53.213 83.5762 53.2546 83.3788 53.2754 83.1813C53.2962 83.0047 53.3845 82.8955 53.5508 82.8176C54.1899 82.5266 54.8238 82.2304 55.463 81.9395C57.0166 81.2328 58.5702 80.5313 60.1239 79.8298C63.5533 78.2762 66.9827 76.7278 70.4122 75.1793C72.8647 74.0725 75.3121 72.9658 77.7647 71.8538C80.2016 70.7522 82.6438 69.6507 85.0808 68.5439C85.5744 68.3205 86.0576 68.0762 86.5409 67.8372C86.6136 67.8008 86.6812 67.7541 86.7799 67.6917C86.702 67.6294 86.65 67.5774 86.5877 67.5359C86.1356 67.2605 85.6887 66.9851 85.2315 66.7201C84.2494 66.1537 83.2673 65.5873 82.2853 65.0209C82.1398 64.9378 82.0047 64.8443 81.8332 64.7352C81.9475 64.6728 82.0255 64.626 82.1086 64.5897C82.9712 64.1844 83.8285 63.7739 84.6963 63.379C86.1408 62.7295 87.5853 62.0903 89.035 61.446C89.0506 61.4356 89.0714 61.4304 89.087 61.42C89.2533 61.3265 89.4039 61.3369 89.5754 61.42C90.1574 61.7162 90.7549 61.9968 91.3369 62.293C92.4437 62.8542 93.5452 63.4257 94.6572 63.9869C94.7975 64.0597 94.8546 64.1376 94.8494 64.2987C94.8339 65.3379 94.8339 66.3719 94.8235 67.4111C94.8131 68.6011 94.7975 69.791 94.7871 70.9861C94.7871 71.3082 94.7663 71.6304 94.7715 71.9525C94.7715 72.098 94.7195 72.1708 94.5896 72.2279C93.6907 72.6332 92.797 73.0437 91.9033 73.449C86.3123 75.9795 80.7212 78.51 75.125 81.0353C71.2955 82.7656 67.4608 84.4804 63.6312 86.2055C62.8622 86.5536 62.1036 86.9225 61.3449 87.2863C61.2358 87.3382 61.1371 87.4058 60.9968 87.4837C61.08 87.5565 61.1267 87.6188 61.1943 87.6448C62.3426 88.18 63.3922 88.8763 64.5042 89.4738C64.8627 89.6661 65.2109 89.8687 65.5642 90.0662C65.6421 90.1078 65.7045 90.1701 65.8032 90.2428C65.7097 90.3 65.6421 90.3468 65.5694 90.3831C64.8315 90.7365 64.1041 91.1002 63.361 91.4431C61.7814 92.1654 60.1966 92.8721 58.617 93.5943C58.4715 93.6619 58.3624 93.6515 58.2221 93.5839C56.5853 92.7422 54.9433 91.9108 53.3014 91.0742C53.213 91.0326 53.1247 90.9963 53.0364 90.9547C53.0364 90.8768 53.0364 90.7988 53.0364 90.7209V90.7365Z" fill="#00AAFF"></path><path d="M73.6026 68.4192C73.4986 68.4815 73.4207 68.5335 73.3376 68.5751C72.6153 68.9128 71.8879 69.2453 71.1656 69.5779C69.7782 70.2118 68.3909 70.8354 67.0035 71.4745C66.8684 71.5368 66.7645 71.5368 66.6294 71.4641C64.3639 70.2274 62.0932 69.0011 59.8277 67.7697C59.7653 67.7385 59.703 67.7073 59.6094 67.6605C59.6043 67.7593 59.5939 67.832 59.5939 67.9047C59.5939 68.6322 59.5939 69.3597 59.5939 70.0871C59.5939 71.5888 59.5939 73.0853 59.5939 74.587C59.5939 74.7532 59.5523 74.8364 59.3964 74.9039C57.4531 75.7561 55.5097 76.6134 53.5664 77.4708C53.4469 77.5227 53.3222 77.5695 53.1767 77.6267C53.1715 77.5383 53.1611 77.476 53.1611 77.4136C53.1455 76.4783 53.1299 75.5482 53.1143 74.6129C53.1091 74.218 53.1091 73.8283 53.1091 73.4334C53.0987 70.4249 53.0883 67.4215 53.0779 64.413C53.0779 64.07 53.0676 64.1272 53.3326 63.9869C54.8186 63.2231 56.3099 62.4592 57.8012 61.7006C58.2273 61.4876 58.6638 61.3005 59.095 61.0979C59.2613 61.0199 59.412 61.0251 59.5731 61.103C60.5395 61.5707 61.5164 62.0228 62.4725 62.506C64.5769 63.566 66.6762 64.6312 68.7702 65.712C70.1316 66.4135 71.4722 67.1565 72.818 67.884C73.0206 67.9931 73.2129 68.1282 73.4051 68.2529C73.4675 68.2945 73.5194 68.3464 73.6026 68.4192Z" fill="#00AAFF"></path><path d="M74.4652 86.4861C74.5795 86.4237 74.6627 86.3769 74.7458 86.3354C75.7435 85.8833 76.7411 85.4364 77.7388 84.9844C78.7208 84.5427 79.7029 84.1114 80.6798 83.6646C80.9707 83.5295 81.2461 83.5139 81.5319 83.6542C81.9944 83.8828 82.4568 84.1114 82.9089 84.3453C84.5509 85.1974 86.1876 86.0496 87.8244 86.9017C88.0011 86.9953 88.1829 87.068 88.3856 87.1615C88.4116 87.0836 88.4376 87.0317 88.4428 86.9797C88.4687 86.6835 88.4999 86.3925 88.5103 86.0964C88.5311 85.4572 88.5519 84.8233 88.5571 84.1842C88.5726 82.8696 88.5882 81.5549 88.5934 80.2455C88.5934 80.1 88.6506 80.0429 88.7701 79.9909C90.1627 79.3674 91.55 78.7387 92.9374 78.1047C93.483 77.8553 94.0234 77.5955 94.5638 77.3461C94.6573 77.3045 94.7508 77.2682 94.8703 77.2214C94.8859 77.2786 94.9067 77.3253 94.9067 77.3721C94.9223 77.7566 94.9431 78.1463 94.9483 78.5308C94.9639 81.5186 94.9742 84.5063 94.9794 87.4941C94.9794 88.2579 94.9586 89.0269 94.9431 89.7908C94.9431 90.0298 94.9171 90.2688 94.9119 90.5027C94.9119 90.6274 94.8599 90.7105 94.756 90.7676C94.4079 90.9651 94.0701 91.173 93.7168 91.36C92.08 92.2226 90.4432 93.0747 88.8117 93.9321C88.6973 93.9944 88.6142 93.9789 88.5103 93.9269C86.2448 92.7474 83.9741 91.573 81.7086 90.3935C79.8536 89.4219 78.009 88.445 76.1591 87.4629C75.6603 87.1979 75.1719 86.9121 74.6783 86.6316C74.6159 86.5952 74.5535 86.5484 74.4652 86.4861Z" fill="#00AAFF"></path><path d="M84.946 59.1234C84.8473 59.1805 84.7798 59.2325 84.707 59.2637C84.0887 59.5546 83.4755 59.8456 82.852 60.1262C81.1581 60.8952 79.4641 61.6591 77.7702 62.4177C77.3753 62.5944 77.5208 62.5944 77.1519 62.4073C76.1542 61.8981 75.1566 61.3889 74.1641 60.8693C74.0238 60.7965 73.9147 60.8017 73.7744 60.8693C72.8859 61.3213 71.9921 61.7682 71.1036 62.2099C70.9893 62.267 70.8698 62.3138 70.7503 62.3657C70.6359 62.4177 70.5268 62.4125 70.4125 62.3657C70.0436 62.1943 69.6747 62.0332 69.3109 61.8565C67.4767 60.9628 65.6529 60.0483 63.8654 59.0714C63.7407 59.0039 63.6264 58.9311 63.4757 58.8428C63.564 58.7856 63.6264 58.7441 63.6939 58.7129C65.1333 57.9387 66.5726 57.1593 68.0171 56.4006C69.5811 55.5796 71.1608 54.769 72.73 53.9584C73.0625 53.787 73.4055 53.6363 73.7276 53.4492C73.9459 53.3245 74.1277 53.3349 74.3408 53.4492C74.9071 53.7662 75.4839 54.0676 76.0607 54.3689C77.9261 55.3562 79.7967 56.3383 81.6621 57.3255C82.6701 57.8607 83.6678 58.4063 84.6706 58.9467C84.759 58.9935 84.8421 59.0506 84.9564 59.1234H84.946Z" fill="#00AAFF"></path><path d="M63.4236 95.9066C64.0679 95.6884 64.6499 95.413 65.237 95.1532C65.8242 94.8934 66.4061 94.618 66.9933 94.353C68.0377 93.8802 69.0821 93.4125 70.1266 92.9448C70.2669 92.8825 70.4072 92.8565 70.5578 92.9085C70.8696 93.0228 71.1918 93.1215 71.4931 93.2618C72.0855 93.532 72.6623 93.8282 73.2494 94.1088C73.4105 94.1867 73.582 94.2491 73.7483 94.3114C73.9821 94.3946 74.2159 94.3894 74.4497 94.3062C74.668 94.2283 74.881 94.1399 75.094 94.0464C76.1281 93.5995 77.1621 93.1579 78.1909 92.7058C78.3156 92.6539 78.4092 92.6539 78.5339 92.7162C80.3006 93.6151 82.0672 94.5089 83.8339 95.4026C84.1665 95.5689 84.499 95.7455 84.8264 95.917C84.8887 95.9482 84.9459 95.9846 85.0394 96.0417C84.8835 96.1249 84.764 96.1976 84.6393 96.26C83.4234 96.8679 82.2127 97.4758 80.9968 98.0786C78.7573 99.1854 76.5178 100.282 74.2783 101.383C73.9457 101.544 74.0808 101.55 73.7379 101.378C71.727 100.37 69.7109 99.362 67.7052 98.3384C66.4685 97.7097 65.2214 97.0861 64.0315 96.3743C63.8757 96.2807 63.7302 96.1768 63.5847 96.0677C63.5327 96.0261 63.4911 95.9742 63.4288 95.9066H63.4236Z" fill="#00AAFF"></path><path d="M95.3694 63.6544C95.3538 63.4933 95.2187 63.4049 95.0888 63.4049C94.3821 62.6931 93.4884 62.2358 92.5375 61.9344C92.0179 61.7682 91.4879 61.6487 90.9527 61.5395C90.4331 61.4356 89.8615 61.2693 89.3263 61.3317C88.7339 61.4044 88.1416 61.7058 87.5908 61.9189C86.9777 62.1527 86.3645 62.3917 85.7566 62.6359C84.5355 63.1244 83.3248 63.6284 82.1193 64.1532C81.8127 64.2883 82.0777 64.7351 82.3791 64.6001C83.5222 64.1012 84.6758 63.6232 85.8345 63.1607C86.3853 62.9425 86.9361 62.7242 87.4921 62.5112C88.0429 62.2982 88.5936 62.0488 89.1652 61.8929C89.2379 61.8721 89.3107 61.8617 89.3835 61.8513C89.399 61.8773 89.4146 61.9033 89.4406 61.9292C90.7396 63.0464 92.3608 63.7167 94.0548 63.8518C94.1639 65.9718 93.4416 68.0295 93.4936 70.1495C93.4988 70.4041 93.8469 70.508 93.9768 70.2794C94.273 69.7598 94.5224 69.2142 94.7302 68.653C94.6575 69.6922 94.564 70.7263 94.4341 71.7603C94.3249 71.4953 94.0288 71.3082 93.7118 71.4953C85.3824 76.5095 75.9775 79.3362 67.5234 84.1114C65.2423 85.4001 62.9353 87.0524 60.2125 87.0628C59.589 87.0628 59.5526 87.8786 60.0722 88.0813C61.6622 88.71 63.2107 89.4167 64.7279 90.1961C62.795 91.0223 60.8412 91.7913 58.8615 92.5031C56.9286 91.8536 55.0008 91.1989 53.0678 90.5494C53.1666 89.0737 53.2653 87.598 53.364 86.1223C53.4108 85.4312 53.4576 84.7454 53.5043 84.0543C53.5251 83.7529 53.5043 83.3892 53.5978 83.0982C53.7122 82.7345 54.0239 82.6098 54.3409 82.4591C56.913 81.2276 59.6201 80.3391 62.2702 79.305C67.5026 77.2578 72.5273 74.7169 77.6143 72.3475C80.576 70.9705 83.5638 69.6507 86.6295 68.5231C87.253 68.2945 86.9828 67.2916 86.3541 67.5203C80.7735 69.5727 75.4579 72.2435 70.0799 74.7688C67.3416 76.0523 64.5876 77.2993 61.7661 78.3905C59.059 79.4401 56.2531 80.3183 53.655 81.6381C52.2417 82.3552 52.4703 83.9763 52.3768 85.3429C52.2572 87.1512 52.1325 88.9594 52.013 90.7676C51.9974 91.0378 52.1533 91.1885 52.3508 91.2405C52.4079 91.3496 52.5015 91.4432 52.647 91.4951C54.3513 92.0719 56.0556 92.6434 57.7599 93.2202C57.7288 93.4956 57.895 93.7814 58.2536 93.7866C58.6952 93.7918 59.1369 93.8022 59.5838 93.8074C59.9735 93.8126 60.1398 93.4644 60.067 93.1631C62.1351 92.3992 64.1823 91.5731 66.2036 90.6793C66.5621 90.5182 66.5206 89.9519 66.2036 89.7804C64.889 89.0737 63.5432 88.4242 62.1766 87.8318C63.7666 87.4317 65.2423 86.6315 66.6661 85.8002C68.7861 84.5687 70.9425 83.4203 73.156 82.3707C77.6454 80.2351 82.27 78.4061 86.775 76.3017C89.3263 75.1118 91.8308 73.8335 94.2418 72.3838C94.3769 72.3007 94.4497 72.1864 94.4756 72.0669C94.6003 72.1968 94.9121 72.1344 94.9433 71.8902C95.2083 69.8481 95.3538 67.7956 95.3798 65.7432C95.4421 65.0469 95.4421 64.3454 95.3642 63.644L95.3694 63.6544ZM94.0703 68.918C94.221 67.2345 94.6627 65.5717 94.5796 63.8726C94.6731 63.8726 94.7614 63.8778 94.8549 63.8726C94.8705 64.4805 94.8757 65.0937 94.8653 65.7016C94.7718 66.8084 94.5016 67.8892 94.0703 68.9128V68.918Z" fill="#00AAFF"></path><path d="M85.6006 58.5778C83.8339 57.3515 82.0516 56.1148 80.0927 55.2055C79.1574 54.7742 78.1909 54.4884 77.2245 54.1403C76.206 53.7714 75.6292 52.9296 74.8031 52.2853C74.5381 52.0774 74.2159 52.1658 74.034 52.358C74.0185 52.358 74.0029 52.358 73.9873 52.3632C69.9551 53.8753 66.2035 55.9849 62.8157 58.6453C62.3168 59.035 62.9559 59.7105 63.4652 59.4351C63.5067 59.5131 63.5587 59.5858 63.6522 59.6378C64.5615 60.1834 65.4657 60.7445 66.3802 61.2745C66.8115 61.524 67.2635 61.7578 67.7364 61.9189C68.1416 62.0592 68.5781 62.0955 68.9834 62.2358C69.7421 62.4956 70.3448 63.0256 71.171 62.6307C71.5971 62.4281 71.9764 62.1423 72.4128 61.95C72.8961 61.7318 73.4053 61.5655 73.9093 61.4044C74.0704 61.3525 74.3562 61.2174 74.5329 61.2122C74.8187 61.207 75.0785 61.4512 75.3019 61.6019C75.7695 61.9189 76.2424 62.2306 76.71 62.5476C76.9802 62.7294 77.2608 62.9737 77.5986 62.9893C78.035 63.01 78.5443 62.6775 78.9236 62.5216C80.9916 61.6643 83.0597 60.8121 85.1277 59.9547C85.3252 59.8716 85.4291 59.7105 85.4603 59.539C85.8084 59.4247 85.9955 58.8531 85.5902 58.5674L85.6006 58.5778ZM79.0171 61.3785C78.695 61.5136 77.9935 61.95 77.6453 61.9292C77.4843 61.9189 77.1673 61.6123 77.0426 61.524C76.8399 61.3889 76.6373 61.2538 76.4398 61.1187C75.7799 60.677 75.1148 60.0223 74.2627 60.2197C73.4261 60.412 72.5687 60.7445 71.7945 61.1083C71.4204 61.2849 70.9631 61.711 70.5578 61.7578C70.2253 61.7942 69.768 61.4304 69.4667 61.3109C69.0666 61.155 68.6457 61.1031 68.2404 60.9888C67.7675 60.8537 67.3363 60.625 66.9102 60.3808C66.032 59.8768 65.1695 59.3416 64.3017 58.8168C65.315 58.0581 66.3646 57.3463 67.4506 56.6864C67.4817 57.0137 67.8351 57.3307 68.23 57.1332C70.0434 56.2187 71.8465 55.2782 73.4677 54.0571C74.4082 54.7326 75.411 55.2938 76.4398 55.8082C76.4658 55.9797 76.5749 56.1356 76.7984 56.1876C77.1985 56.2863 77.5882 56.4058 77.9727 56.5409C79.3133 57.1696 80.6539 57.7932 81.9009 58.5934C82.4777 58.9623 82.9558 58.0841 82.4258 57.6944C82.3998 57.6736 82.3686 57.6581 82.3426 57.6373C83.0856 58.1049 83.8131 58.5985 84.5354 59.0974C82.696 59.856 80.8565 60.6198 79.0223 61.3785H79.0171Z" fill="#00AAFF"></path><path d="M73.3325 68.2425C70.2512 65.8159 66.8841 63.5088 63.278 61.9344C62.4258 61.5655 61.5581 61.2381 60.654 61.0251C59.9421 60.8536 59.012 60.5886 58.3105 60.916C57.9624 61.0771 57.8117 61.3369 57.5935 61.6175C56.9232 61.8929 56.3048 62.3137 55.6813 62.7035C54.8655 63.0568 54.0393 63.3893 53.2028 63.6907C53.0261 63.7531 52.9222 63.9037 52.8754 64.07C52.6156 64.1635 52.3558 64.2675 52.0908 64.3558C51.514 64.5533 51.7011 65.4106 52.2259 65.3742C52.2103 65.6237 52.1895 65.8783 52.1739 66.1277C52.1272 66.1848 52.0908 66.2628 52.0804 66.3563C51.8154 68.2425 51.9349 70.1235 52.044 72.0149C52.1583 73.9894 52.2726 75.9691 52.3818 77.9436C52.4025 78.2918 52.8286 78.6503 53.1612 78.3905C54.9175 77.0395 56.7569 75.808 58.6691 74.6909C58.6431 74.7948 58.6171 74.8935 58.5755 74.9974C58.3209 75.6158 59.3238 75.886 59.5784 75.2728C59.833 74.6597 59.8434 74.0102 59.859 73.3555C59.8798 72.5968 59.9005 71.8382 59.9161 71.0796C59.9369 70.2638 59.9837 69.4324 59.9057 68.6218C60.6384 69.1778 61.423 69.6662 62.2648 70.0507C63.4443 70.5859 64.9356 70.7938 65.8189 71.807C65.9592 71.9681 66.271 72.0097 66.4476 71.8902C68.4585 70.508 70.6981 69.5727 73.0935 69.1102C73.452 69.0427 73.6235 68.4763 73.3221 68.2425H73.3325ZM63.278 69.3545C61.8491 68.7933 60.5604 67.9411 59.4537 66.8863C59.1003 66.5538 58.3989 66.8811 58.5859 67.3903C59.0224 68.5751 58.9133 69.8377 58.8821 71.0796C58.8665 71.7551 58.8457 72.4254 58.8301 73.1009C58.8301 73.2048 58.8301 73.3139 58.8249 73.4178C58.799 73.4282 58.773 73.4282 58.747 73.4438C57.2193 74.2856 55.6709 75.0858 54.1069 75.8548C53.8003 76.0055 53.7899 76.3121 53.9302 76.5355C53.7432 76.6706 53.5561 76.8109 53.369 76.9512C53.2963 75.7145 53.2287 74.4778 53.156 73.2463C53.4366 73.2463 53.712 73.0385 53.6964 72.7319C53.5925 70.0663 53.7016 67.4007 54.0081 64.7507C55.8736 64.0337 57.6922 63.2127 59.4589 62.2774C59.6303 62.1838 59.7083 62.0332 59.7135 61.8773C59.9785 61.924 60.2435 61.9864 60.4981 62.0539C61.423 62.2878 62.3167 62.6255 63.1845 63.0256C66.2294 64.4338 69.1132 66.3095 71.7892 68.3464C69.8303 68.8452 67.9701 69.6662 66.271 70.7782C65.4344 70.0352 64.3224 69.765 63.2884 69.3597L63.278 69.3545Z" fill="#00AAFF"></path><path d="M79.4901 92.976C79.012 92.6123 78.508 92.3473 77.8845 92.42C77.2609 92.4928 76.6426 92.6434 76.0451 92.8149C75.1253 93.0851 74.2368 93.4489 73.3898 93.8957C72.9378 93.7346 72.4909 93.5632 72.0492 93.3709C71.2075 93.002 70.3761 92.4408 69.42 92.5032C68.4483 92.5655 67.513 93.1267 66.6765 93.5787C65.7412 94.0828 64.837 94.6492 63.9693 95.2623C63.4289 95.6468 63.9485 96.5457 64.4941 96.1612C65.3099 95.5844 66.1517 95.0544 67.0246 94.5712C67.778 94.1555 68.7133 93.5216 69.6019 93.5372C70.4229 93.5476 71.2698 94.1711 72.0129 94.4829C72.1376 94.5348 72.2675 94.5764 72.3922 94.6284C72.2675 95.0233 72.678 95.5221 73.13 95.2467C73.2495 95.174 73.3691 95.1064 73.4886 95.0389C73.925 95.1895 74.3667 95.3246 74.8188 95.4494C75.1929 95.5533 75.5774 95.1947 75.4579 94.8102C75.3851 94.5764 75.25 94.3894 75.0682 94.2698C75.4059 94.1295 75.7489 93.9996 76.1022 93.8905C76.6062 93.7346 77.1258 93.6047 77.6454 93.5112C77.8585 93.4696 78.0871 93.4125 78.3054 93.4748C78.5496 93.5424 78.7678 93.7294 78.9653 93.8801C79.1887 94.0516 79.5472 93.9165 79.6771 93.6931C79.833 93.4281 79.7135 93.1527 79.4901 92.9812V92.976Z" fill="#00AAFF"></path><path d="M83.3092 96.0677C80.4981 97.9383 77.4688 99.4503 74.2835 100.567C73.6548 100.786 73.925 101.794 74.5589 101.57C77.8273 100.427 80.9502 98.884 83.834 96.9666C84.39 96.5977 83.8704 95.6987 83.3092 96.0677Z" fill="#00AAFF"></path><path d="M95.4264 86.2418C95.3536 83.3372 95.2808 80.4326 95.2081 77.5332C95.1925 76.8681 94.1533 76.8629 94.1689 77.5332C94.226 79.8402 94.2832 82.1473 94.3456 84.4492C94.3767 85.6027 94.4027 86.7562 94.4339 87.9098C94.4495 88.4658 94.4807 89.0218 94.4755 89.5777C94.4755 90.2221 94.0078 90.3416 93.4882 90.6014C92.5061 91.0846 91.5241 91.573 90.542 92.0563C90.0536 92.2953 89.5547 92.6175 89.0403 92.7889C88.4584 92.9864 87.8608 92.5343 87.3464 92.2745C85.3459 91.2665 83.3662 90.1753 81.3189 89.266C80.3057 88.8139 79.1885 88.5957 78.2272 88.0345C77.3699 87.5305 76.5281 86.9953 75.6863 86.4653C76.6424 86.0288 77.5361 85.504 78.4507 84.9792C78.9807 84.6726 79.547 84.3712 80.1654 84.3089C80.8513 84.2413 81.3137 84.6207 81.8853 84.9116C82.9245 85.4416 84.13 85.5923 85.216 86.0236C86.4111 86.4964 87.5283 87.146 88.5571 87.915C89.0923 88.3151 89.6119 87.411 89.0819 87.0161C88.0375 86.2366 86.9047 85.5975 85.6992 85.1039C84.4418 84.5895 83.0856 84.3972 81.9009 83.7217C80.8513 83.119 79.8068 83.1813 78.7156 83.6698C77.4062 84.2569 76.2579 85.1351 74.9173 85.6859C74.7562 85.7534 74.6575 85.8729 74.6107 86.008C74.2626 86.1431 74.0911 86.6939 74.5068 86.9537C75.5408 87.598 76.5645 88.2579 77.6089 88.8815C78.5805 89.4582 79.6562 89.6765 80.685 90.1181C82.9713 91.1002 85.164 92.3473 87.388 93.4644C87.7725 93.6567 88.1778 93.8905 88.6194 93.9217C89.1806 93.9581 89.6795 93.6515 90.1627 93.4125C91.2954 92.8513 92.4282 92.2953 93.5609 91.7341C94.3871 91.3288 95.4108 91.0067 95.5095 89.9519C95.6186 88.7464 95.4627 87.4681 95.4315 86.2574L95.4264 86.2418Z" fill="#00AAFF"></path><path d="M33.5563 192.19C33.6758 188.247 33.0003 184.339 32.9691 180.401C32.938 176.462 33.5875 172.658 33.7901 168.782C33.9928 164.843 33.6758 160.889 33.6187 156.945C33.5875 154.945 33.6135 152.939 33.759 150.944C33.8525 149.66 33.9252 148.398 33.92 147.114C33.92 145.441 33.5511 141.658 36.0037 141.528C37.0013 141.476 37.0065 139.918 36.0037 139.97C33.3641 140.11 32.5794 142.443 32.4132 144.729C32.3248 145.982 32.3716 147.239 32.3508 148.496C32.3196 150.253 32.1014 151.999 32.0598 153.76C31.9611 157.927 32.2677 162.089 32.2833 166.257C32.2988 170.33 31.613 174.352 31.4415 178.416C31.244 183.025 32.1326 187.587 31.9923 192.196C31.9611 193.199 33.5199 193.199 33.5511 192.196L33.5563 192.19Z" fill="black"></path><path d="M35.2346 29.0587C35.2346 45.5044 35.3178 61.95 35.3957 78.3905C35.4736 94.7635 35.5256 111.131 35.5256 127.504C35.5256 130.346 35.562 133.183 35.5776 136.026C35.5828 137.262 35.5828 138.499 35.5048 139.731C35.4788 140.162 35.4477 140.578 35.3749 140.952C35.3437 141.102 35.2658 141.274 35.2554 141.419C35.271 141.185 35.3178 141.404 35.2502 141.409C35.3593 141.399 35.6035 141.128 35.7179 141.144C34.7254 141.03 34.7306 142.588 35.7179 142.703C37.3027 142.885 37.1 139.299 37.1208 138.432C37.1728 136.405 37.1 134.384 37.0844 132.357C37.0169 124.179 37.0844 116 37.0689 107.821C37.0273 91.043 36.9286 74.27 36.8558 57.4918C36.8194 48.0141 36.7883 38.5312 36.7883 29.0535C36.7883 28.0506 35.2294 28.0506 35.2294 29.0535L35.2346 29.0587Z" fill="black"></path><path d="M34.9334 27.9675C37.0741 26.8191 39.4696 26.3567 41.7714 25.6604C42.2131 25.5253 42.3794 25.1304 42.317 24.6991C42.0364 22.8077 42.0676 20.8956 42.1767 18.9886C42.2703 17.357 42.4365 15.7514 42.2754 14.125C42.1819 13.2001 41.787 11.6673 42.7691 11.1165C43.8239 10.5241 45.0294 10.3786 45.7932 9.34462C46.4895 8.40412 46.609 7.07392 46.5207 5.94636C46.4479 4.94871 46.1102 3.91468 46.1829 2.91184C46.2557 1.90899 47.2533 1.72713 48.1263 1.61801C49.8618 1.40497 51.6388 1.69594 53.3328 2.05967C55.1202 2.44418 56.8817 2.9534 58.6796 3.30154C60.4878 3.64968 62.3168 3.87831 64.1511 4.0342C67.9962 4.36155 71.8569 4.36674 75.7124 4.51743C79.5679 4.66812 83.7248 5.16695 87.6946 5.78528C89.612 6.08666 91.5242 6.40881 93.4363 6.73616C94.7977 6.96999 96.2422 7.0999 97.1723 8.25343C97.9569 9.2303 98.2063 10.5605 98.4558 11.7556C98.7571 13.2001 99.0845 14.6187 99.5106 16.032C99.9678 17.5441 100.425 19.0613 100.773 20.6046C101.064 21.9036 101.412 23.4053 101.106 24.7355C100.877 25.7124 102.379 26.128 102.607 25.1512C102.904 23.8781 102.727 22.5375 102.498 21.2645C102.223 19.742 101.802 18.2507 101.36 16.775C100.971 15.4604 100.55 14.1562 100.264 12.8156C99.9782 11.475 99.7912 10.1968 99.3079 8.9601C98.8507 7.79097 98.1388 6.75695 97.032 6.12303C95.5148 5.25528 93.5558 5.18772 91.8671 4.90194C87.7102 4.20046 83.5377 3.54056 79.3341 3.18723C75.2551 2.84429 71.1606 2.88066 67.0765 2.67282C65.0448 2.5689 63.0079 2.4182 60.9918 2.12722C58.9757 1.83624 57.2091 1.38418 55.3281 0.926919C53.4731 0.474857 51.5817 0.0591742 49.6643 0.00721308C48.2925 -0.0291597 46.5207 0.038391 45.4399 1.01526C43.7615 2.53772 45.1697 5.19812 44.9618 7.0999C44.8943 7.72343 44.7228 8.38334 44.1928 8.76266C43.6628 9.14197 42.9561 9.31863 42.3482 9.59402C40.8517 10.2643 40.5347 11.5218 40.6231 13.0598C40.6646 13.8289 40.7997 14.5979 40.8153 15.3721C40.8361 16.4165 40.7062 17.4817 40.6439 18.5261C40.5088 20.7397 40.488 22.922 40.8153 25.12L41.3609 24.1587C38.924 24.8966 36.4142 25.411 34.1487 26.6269C33.2654 27.0997 34.05 28.4507 34.9334 27.9727V27.9675Z" fill="black"></path><path d="M102.234 25.4006C103.242 25.5409 104.265 25.5721 105.273 25.702C105.985 25.7903 107.263 25.8579 107.752 26.4814C108.323 27.2036 108.245 28.617 108.266 29.4743C108.292 30.5084 108.24 31.5424 108.266 32.5764C108.334 36.0682 108.718 39.5704 108.988 43.0518C109.274 46.7202 109.591 50.3887 109.721 54.0623C109.851 57.736 109.809 61.5032 109.898 65.2236C109.981 68.8764 110.334 72.5033 110.537 76.151C110.942 83.358 111.181 90.6118 111.119 97.8291C111.056 105.057 110.625 112.28 110.345 119.502C110.21 123.03 110.142 126.553 110.069 130.081C110.022 132.123 109.976 134.389 112.252 135.148C113 135.397 113.795 135.449 114.538 135.709C115.494 136.041 116.169 136.732 116.632 137.621C117.687 139.663 117.635 142.235 117.552 144.469C117.458 146.938 117.131 149.39 116.985 151.858C116.803 154.929 117.11 158.042 117.266 161.107C117.578 167.156 117.796 173.188 117.853 179.242C117.874 181.273 117.874 183.3 117.796 185.332C117.728 187.192 117.661 189.12 117.204 190.933C117.136 191.198 117.068 191.473 116.954 191.728C116.907 191.837 116.85 191.946 116.783 192.05C116.803 192.019 116.637 192.201 116.746 192.118C115.951 192.71 116.725 194.066 117.531 193.464C118.648 192.632 118.835 190.949 119.012 189.67C119.303 187.556 119.375 185.41 119.407 183.274C119.485 178.197 119.386 173.105 119.162 168.034C118.882 161.653 118.196 155.262 118.778 148.886C119.017 146.298 119.277 143.669 119.048 141.071C118.861 138.941 118.336 136.519 116.59 135.096C115.858 134.498 114.99 134.176 114.075 133.973C113.447 133.833 112.589 133.802 112.096 133.329C111.285 132.56 111.607 130.887 111.628 129.915C111.67 128.102 111.696 126.293 111.737 124.48C111.924 117.117 112.392 109.759 112.589 102.397C112.787 95.0336 112.584 87.5253 112.283 80.1C112.132 76.3536 111.794 72.6228 111.592 68.8816C111.389 65.1404 111.415 61.3317 111.363 57.5593C111.254 49.9834 110.428 42.4438 109.955 34.8835C109.804 32.4725 110.022 30.0044 109.69 27.6141C109.565 26.7256 109.352 25.7591 108.635 25.1564C107.84 24.4913 106.681 24.325 105.694 24.1899C104.686 24.0548 103.662 24.034 102.654 23.8937C101.646 23.7534 101.251 25.2603 102.239 25.3954L102.234 25.4006Z" fill="black"></path><path d="M48.7392 30.1031C51.3372 31.0384 54.1224 31.3657 56.8659 31.506C59.9108 31.6619 62.9661 31.5528 66.0162 31.4385C68.8845 31.3294 71.7632 31.1839 74.6366 31.2826C78.2791 31.4073 81.9111 31.4229 85.5588 31.3501C89.7884 31.267 94.0181 31.1683 98.2425 31.3969L97.4891 30.8253C99.4896 43.6857 100.118 56.7123 100.139 69.713C100.16 82.7137 99.5727 95.7143 99.1518 108.705C98.918 115.953 98.731 123.207 98.731 130.461C98.731 131.464 100.29 131.464 100.29 130.461C100.29 117.444 100.887 104.444 101.303 91.4379C101.719 78.4061 101.963 65.3535 101.246 52.332C100.841 44.9899 100.129 37.6686 98.996 30.4045C98.944 30.0563 98.5595 29.8485 98.2425 29.8329C90.8537 29.4328 83.4544 30.0563 76.0655 29.7809C70.1368 29.5575 64.2236 30.1446 58.2948 29.994C55.2135 29.916 52.0803 29.6458 49.1601 28.591C48.2144 28.2481 47.8091 29.7549 48.7444 30.0927L48.7392 30.1031Z" fill="black"></path><path d="M99.1209 138.53C95.4889 137.081 91.3735 138.005 87.6219 138.369C85.5279 138.572 83.4858 138.489 81.3866 138.348C79.0224 138.187 76.6582 137.99 74.2939 137.751C71.592 137.475 68.89 137.148 66.1984 136.769C65.7775 136.712 65.367 136.873 65.2371 137.314C65.1332 137.678 65.367 138.213 65.7827 138.276C70.4592 138.93 75.1513 139.45 79.859 139.803C82.0153 139.964 84.1873 140.177 86.3489 140.037C88.3546 139.907 90.3395 139.595 92.34 139.434C94.4808 139.263 96.6736 139.232 98.7001 140.042C99.6302 140.411 100.035 138.904 99.1157 138.541L99.1209 138.53Z" fill="black"></path><path d="M46.9883 30.5291C47.1338 40.0744 46.8844 49.6197 46.5259 59.1597C46.1673 68.7257 45.7049 78.2866 45.4347 87.8578C45.1645 97.4291 45.0865 106.974 45.497 116.52C45.601 118.905 45.7361 121.29 45.9023 123.669C46.0582 125.857 46.131 128.102 46.4999 130.263C46.9312 132.835 48.4121 135.013 50.6256 136.384C52.8391 137.756 55.6398 138.328 58.2743 138.619C61.1373 138.93 64.0264 138.91 66.905 138.894C67.5805 138.894 68.256 138.889 68.9315 138.894C69.9343 138.894 69.9343 137.34 68.9315 137.335C66.1516 137.325 63.3665 137.398 60.5865 137.247C57.9781 137.107 55.2709 136.81 52.8443 135.782C50.6672 134.857 48.9265 133.246 48.251 130.934C47.7158 129.105 47.7262 127.088 47.5807 125.202C47.3988 122.864 47.2533 120.526 47.139 118.182C46.6818 108.85 46.7077 99.5023 46.9364 90.1649C47.1702 80.8067 47.6067 71.4589 47.9756 62.1059C48.3445 52.7321 48.6407 43.3583 48.5887 33.9742C48.5835 32.8258 48.5679 31.6775 48.5524 30.5291C48.5368 29.5263 46.9779 29.5263 46.9935 30.5291H46.9883Z" fill="black"></path><path d="M96.3983 137.138C96.4191 137.195 96.4294 137.252 96.445 137.309C96.3983 137.148 96.4398 137.299 96.445 137.356C96.445 137.496 96.4399 137.631 96.4347 137.772C96.4191 138.089 96.4294 138.416 96.5178 138.723C96.5957 138.982 96.7984 139.195 97.0634 139.268C97.3076 139.336 97.6557 139.279 97.822 139.065C98.3884 138.333 98.8248 137.538 98.9703 136.613C99.1054 135.745 99.0795 134.867 99.1106 133.989C99.1262 133.578 98.7417 133.189 98.3312 133.209C97.8999 133.23 97.5674 133.552 97.5518 133.989C97.5362 134.394 97.5362 134.805 97.5258 135.215C97.5258 135.392 97.5154 135.574 97.5051 135.75C97.4999 135.839 97.4946 135.932 97.4843 136.021C97.4791 136.083 97.4739 136.343 97.4739 136.14C97.4739 136.462 97.3232 136.826 97.2192 137.122C97.2556 137.023 97.2452 137.065 97.2089 137.138C97.1933 137.179 97.1725 137.216 97.1517 137.252C97.1049 137.34 97.0582 137.429 97.0114 137.517C96.9647 137.6 96.9127 137.678 96.8607 137.756C96.8243 137.808 96.7932 137.86 96.7568 137.907C96.7464 137.922 96.6477 138.052 96.7152 137.964L98.0195 138.307C97.9987 138.239 97.9779 138.12 97.9935 138.26C97.9883 138.193 97.9831 138.125 97.9831 138.057C97.9831 137.917 97.9883 137.777 97.9987 137.637C98.0091 137.335 98.0091 137.013 97.9051 136.727C97.7648 136.343 97.3699 136.047 96.9439 136.182C96.5697 136.301 96.2476 136.732 96.3983 137.143V137.138Z" fill="black"></path><defs><radialGradient id="paint0_radial_11_21813" cx="0" cy="0" r="1" gradientUnits="userSpaceOnUse" gradientTransform="translate(72.2257 77.7826) scale(72.2259)"><stop stop-color="#00FFFF"></stop><stop offset="0.09" stop-color="#06FDFF" stop-opacity="0.97"></stop><stop offset="0.22" stop-color="#19F9FF" stop-opacity="0.9"></stop><stop offset="0.37" stop-color="#38F2FF" stop-opacity="0.78"></stop><stop offset="0.53" stop-color="#63E8FF" stop-opacity="0.61"></stop><stop offset="0.71" stop-color="#9ADBFF" stop-opacity="0.39"></stop><stop offset="0.9" stop-color="#DCCCFF" stop-opacity="0.14"></stop><stop offset="1" stop-color="#FFC5FF" stop-opacity="0"></stop></radialGradient></defs></svg> 