<?xml version="1.0" encoding="UTF-8"?> <svg xmlns="http://www.w3.org/2000/svg" width="186" height="209" viewBox="0 0 186 209" fill="none"><path d="M161.546 19.3193C161.25 19.0548 157.645 18.2656 152.497 17.2252C151.609 16.6736 150.69 16.1759 149.739 15.732C148.129 14.7723 146.331 14.2432 144.389 14.2163C144.241 14.2163 144.102 14.2253 143.968 14.2477C143.761 14.1131 143.555 13.9786 143.349 13.8441C143.134 13.9786 142.856 14.0459 142.519 14.0145C140.353 13.8037 138.197 13.8889 136.035 13.9562C136.035 13.9741 136.035 13.9921 136.031 14.0055C135.954 13.9921 135.878 13.9786 135.806 13.9607C135.071 13.9831 134.331 14.0055 133.591 14.01C132.972 14.0145 132.56 13.7096 132.34 13.2925C121.587 11.2118 111.923 9.31052 111.672 8.90694C111.112 8.00561 92.381 0.700775 92.381 0.700775C92.381 0.700775 79.1435 3.09536 66.8747 4.20297C54.6058 5.31506 49.4668 5.44959 47.3278 6.27917C45.1889 7.10876 43.7046 4.58413 43.7763 6.51684C43.8481 8.44955 43.7763 17.1759 43.7763 17.1759C43.7763 17.1759 47.839 18.3194 43.6014 18.992C39.3638 19.6646 23.7362 22.548 23.7362 22.548C23.7362 22.548 23.8618 19.1669 21.9739 16.2745C20.0861 13.3822 16.4763 14.9382 9.98756 16.4046C3.49438 17.8709 1.39575 18.7095 1.39575 18.7095L3.08183 208.819L156.864 206.016C156.864 206.016 155.739 176.263 156.075 171.73C156.412 167.196 156.044 132.094 156.452 126.775C156.86 121.457 159.08 99.4752 158.864 90.287C158.654 81.0988 160.308 62.4039 160.6 54.0408C160.891 45.6732 161.317 43.3863 161.107 36.2339C160.896 29.0815 162.667 20.3104 161.555 19.3149L161.546 19.3193Z" fill="#2B3A4C"></path><path d="M14.5212 27.2878C11.7768 27.5838 9.03696 27.6152 6.28812 27.373C3.41372 27.1219 3.43165 31.6062 6.28812 31.8573C9.04144 32.0994 11.7768 32.0725 14.5212 31.7721C17.3597 31.4627 17.3911 26.9784 14.5212 27.2878Z" fill="#293A4F"></path><path d="M12.454 34.9425C10.2388 34.7452 8.1222 35.2295 6.12223 36.1577C5.02359 36.6689 4.74556 38.2518 5.31954 39.2249C5.97873 40.3505 7.28364 40.5433 8.38676 40.0276C9.67822 39.4267 11.0504 39.3012 12.454 39.4222C13.6602 39.5299 14.6961 38.3146 14.6961 37.1801C14.6961 35.8797 13.6647 35.0456 12.454 34.938V34.9425Z" fill="#293A4F"></path><path d="M15.6241 44.4311C15.2698 43.1352 14.0725 42.7002 12.8663 42.8661C10.9246 43.1307 8.9829 43.3952 7.04122 43.6598C5.83945 43.8257 5.18475 45.3638 5.47623 46.4176C5.83048 47.7136 7.02777 48.1485 8.23403 47.9826C10.1757 47.7181 12.1174 47.4535 14.0591 47.1889C15.2608 47.023 15.9155 45.4849 15.6241 44.4311Z" fill="#293A4F"></path><path d="M14.3821 53.7942C11.5033 55.2426 8.42258 56.0856 5.2029 56.2964C2.33747 56.4847 2.31505 60.969 5.2029 60.7806C9.23872 60.5161 13.0324 59.4847 16.6422 57.6641C19.2206 56.3682 16.9516 52.4982 14.3777 53.7942H14.3821Z" fill="#293A4F"></path><path d="M15.2521 67.8658C14.9606 66.7985 13.6243 65.8478 12.4943 66.3007C11.2431 66.803 9.95617 67.1438 8.6109 67.229C7.40015 67.3052 6.36877 68.2066 6.36877 69.4711C6.36877 70.628 7.39567 71.7895 8.6109 71.7132C10.3597 71.6056 12.0593 71.2738 13.6871 70.6236C14.8126 70.1751 15.5973 69.1258 15.2521 67.8658Z" fill="#293A4F"></path><path d="M13.5213 74.2558C11.4406 74.8791 9.35992 75.5024 7.27923 76.1257C4.52142 76.9508 5.69629 81.2826 8.47204 80.4485C10.5527 79.8252 12.6334 79.2019 14.7141 78.5786C17.4719 77.7535 16.297 73.4217 13.5213 74.2558Z" fill="#293A4F"></path><path d="M14.5256 86.7713C14.1848 85.5337 12.9606 84.9642 11.7678 85.2063C10.1625 85.5292 8.55261 85.852 6.94726 86.1749C5.75893 86.4126 5.07733 87.8251 5.38226 88.9327C5.72306 90.1704 6.94726 90.7399 8.14007 90.4977C9.74542 90.1749 11.3553 89.852 12.9606 89.5291C14.1489 89.2915 14.8305 87.8789 14.5256 86.7713Z" fill="#293A4F"></path><path d="M12.7766 95.8384C11.2834 96.2779 9.79011 96.7173 8.29686 97.1568C5.53456 97.9684 6.70944 102.296 9.48967 101.48C10.9829 101.04 12.4762 100.601 13.9694 100.161C16.7317 99.3496 15.5568 95.0223 12.7766 95.8384Z" fill="#293A4F"></path><path d="M12.7407 107.829C10.965 108.314 9.26097 109.067 7.72287 110.085C6.71392 110.753 6.28343 112.067 6.92019 113.152C7.50762 114.157 8.97397 114.627 9.98741 113.955C11.2295 113.134 12.4986 112.542 13.9335 112.152C16.7138 111.394 15.5344 107.067 12.7407 107.829Z" fill="#293A4F"></path><path d="M12.3776 117.793C10.6422 118.237 8.96955 118.905 7.38661 119.753C6.31936 120.327 5.98752 121.802 6.58393 122.82C7.21621 123.901 8.57941 124.197 9.65115 123.623C10.9067 122.95 12.1892 122.47 13.5704 122.116C16.3641 121.403 15.1802 117.076 12.3776 117.793Z" fill="#293A4F"></path><path d="M14.1669 133.533C13.4673 132.443 12.2341 132.183 11.0996 132.73C9.94718 133.286 8.79473 133.842 7.6378 134.394C6.57952 134.905 6.21181 136.502 6.83512 137.461C7.53466 138.551 8.76782 138.811 9.90234 138.264C11.0548 137.708 12.2072 137.152 13.3642 136.6C14.4225 136.089 14.7902 134.493 14.1669 133.533Z" fill="#293A4F"></path><path d="M12.0055 143.968C10.0594 144.537 8.11322 145.107 6.16258 145.676C3.40028 146.483 4.57516 150.815 7.35539 149.999C9.30155 149.43 11.2477 148.86 13.1984 148.291C15.9606 147.483 14.7858 143.152 12.0055 143.968Z" fill="#293A4F"></path><path d="M15.7634 158.223C15.454 157.093 14.1625 156.282 13.0056 156.658C11.3868 157.183 9.76795 157.708 8.14914 158.232C6.99669 158.604 6.25231 159.784 6.58414 160.99C6.89355 162.12 8.18501 162.932 9.34195 162.555C10.9608 162.03 12.5796 161.506 14.1984 160.981C15.3508 160.609 16.0952 159.429 15.7634 158.223Z" fill="#293A4F"></path><path d="M15.028 169.819C14.7006 168.627 13.4495 167.958 12.2702 168.254C10.3509 168.734 8.67831 169.658 7.15366 170.896C6.21197 171.658 6.35995 173.272 7.15366 174.066C8.0819 174.994 9.38233 174.833 10.324 174.066C11.2209 173.34 12.315 172.864 13.463 172.577C14.6379 172.281 15.3464 170.967 15.028 169.819Z" fill="#293A4F"></path><path d="M12.1534 181.178C9.83955 181.429 7.78129 182.304 6.12212 183.967C4.08179 186.012 7.25215 189.182 9.29248 187.138C10.0862 186.344 11.1445 185.77 12.1534 185.662C13.3552 185.532 14.3955 184.725 14.3955 183.42C14.3955 182.308 13.3642 181.048 12.1534 181.178Z" fill="#293A4F"></path><path d="M17.8261 193.308C17.1714 192.187 15.8575 191.985 14.7588 192.505C13.1849 193.25 11.4584 193.765 9.73199 193.976C8.53021 194.12 7.48987 194.904 7.48987 196.218C7.48987 197.317 8.52124 198.608 9.73199 198.46C12.3015 198.151 14.6781 197.487 17.0234 196.38C18.1175 195.864 18.4 194.29 17.8261 193.312V193.308Z" fill="#293A4F"></path><path opacity="0.65" d="M2.59741 31.3147C3.03687 30.8797 19.1801 27.7408 19.1801 28.1892C19.1801 28.6376 19.6286 34.5658 19.1801 34.5165C18.7317 34.4671 2.59741 37.2698 2.59741 37.2698V31.3147Z" fill="#3579BC"></path><path opacity="0.65" d="M2.5885 42.0769C3.02796 41.6419 19.1712 38.5029 19.1712 38.9514C19.1712 39.3998 19.6197 45.328 19.1712 45.2786C18.7228 45.2293 2.5885 48.032 2.5885 48.032V42.0769Z" fill="#3579BC"></path><path opacity="0.65" d="M3.03687 53.2875C3.47632 52.8525 19.6196 49.7135 19.6196 50.162C19.6196 50.6104 20.068 56.5386 19.6196 56.4892C19.1712 56.4399 3.03687 59.2426 3.03687 59.2426V53.2875Z" fill="#3579BC"></path><path opacity="0.65" d="M3.03687 65.3949C3.47632 64.96 19.6196 61.821 19.6196 62.2694C19.6196 62.7179 20.068 68.646 19.6196 68.5967C19.1712 68.5474 3.03687 71.35 3.03687 71.35V65.3949Z" fill="#3579BC"></path><path opacity="0.65" d="M3.03687 76.6055C3.47632 76.1706 19.6196 73.0316 19.6196 73.48C19.6196 73.9285 20.068 79.8566 19.6196 79.8073C19.1712 79.758 3.03687 82.5606 3.03687 82.5606V76.6055Z" fill="#3579BC"></path><path opacity="0.65" d="M3.03687 88.713C3.47632 88.278 19.6196 85.139 19.6196 85.5875C19.6196 86.0359 20.068 91.9641 19.6196 91.9147C19.1712 91.8654 3.03687 94.6681 3.03687 94.6681V88.713Z" fill="#3579BC"></path><path opacity="0.65" d="M3.03687 100.82C3.47632 100.385 19.6196 97.2465 19.6196 97.6949C19.6196 98.1434 20.068 104.072 19.6196 104.022C19.1712 103.973 3.03687 106.776 3.03687 106.776V100.82Z" fill="#3579BC"></path><path opacity="0.65" d="M2.5885 113.376C3.02796 112.941 19.1712 109.802 19.1712 110.251C19.1712 110.699 19.6197 116.627 19.1712 116.578C18.7228 116.529 2.5885 119.331 2.5885 119.331V113.376Z" fill="#3579BC"></path><path opacity="0.65" d="M2.5885 125.932C3.02796 125.497 19.1712 122.358 19.1712 122.807C19.1712 123.255 19.6197 129.183 19.1712 129.134C18.7228 129.085 2.5885 131.887 2.5885 131.887V125.932Z" fill="#3579BC"></path><path opacity="0.65" d="M2.14014 138.488C2.57959 138.053 18.7229 134.914 18.7229 135.363C18.7229 135.811 19.1713 141.739 18.7229 141.69C18.2744 141.64 2.14014 144.443 2.14014 144.443V138.488Z" fill="#3579BC"></path><path opacity="0.65" d="M2.14014 151.044C2.57959 150.609 18.7229 147.47 18.7229 147.918C18.7229 148.367 19.1713 154.295 18.7229 154.246C18.2744 154.196 2.14014 156.999 2.14014 156.999V151.044Z" fill="#3579BC"></path><path opacity="0.65" d="M2.14014 163.6C2.57959 163.165 18.7229 160.026 18.7229 160.474C18.7229 160.923 19.1713 166.851 18.7229 166.802C18.2744 166.752 2.14014 169.555 2.14014 169.555V163.6Z" fill="#3579BC"></path><path opacity="0.65" d="M2.14014 175.259C2.57959 174.824 18.7229 171.685 18.7229 172.133C18.7229 172.582 19.1713 178.51 18.7229 178.461C18.2744 178.411 2.14014 181.214 2.14014 181.214V175.259Z" fill="#3579BC"></path><path opacity="0.65" d="M2.5885 188.712C3.02796 188.277 19.1712 185.138 19.1712 185.586C19.1712 186.035 19.6197 191.963 19.1712 191.913C18.7228 191.864 2.5885 194.667 2.5885 194.667V188.712Z" fill="#3579BC"></path><path d="M46.9825 22.3462C48.0184 21.9112 87.2241 13.1714 87.6098 12.9427C87.6098 12.9427 88.2196 21.0637 87.1614 21.0144C86.1031 20.9651 46.9825 28.3013 46.9825 28.3013V22.3462Z" fill="#316189"></path><path d="M47.431 33.1084C48.4669 32.6734 87.6726 23.9336 88.0583 23.7049C88.0583 23.7049 88.6681 31.8259 87.6098 31.7766C86.5516 31.7272 47.431 39.0635 47.431 39.0635V33.1084Z" fill="#316189"></path><path d="M46.9825 44.7674C48.0184 44.3324 87.2241 35.5926 87.6098 35.364C87.6098 35.364 88.2196 43.4849 87.1614 43.4356C86.1031 43.3863 46.9825 50.7225 46.9825 50.7225V44.7674Z" fill="#316189"></path><path d="M46.5339 56.8749C47.5698 56.4399 86.7755 47.7001 87.1612 47.4714C87.1612 47.4714 87.771 55.5924 86.7127 55.543C85.6545 55.4937 46.5339 62.8299 46.5339 62.8299V56.8749Z" fill="#316189"></path><path d="M87.1613 59.5789C87.0357 59.6506 82.9058 60.6057 77.3229 61.8748C77.3677 62.0183 77.4036 62.1708 77.4036 62.3456C77.4305 64.6192 77.7578 66.8658 77.991 69.1258C82.8564 68.2514 86.399 67.637 86.7084 67.6505C87.7667 67.6998 87.1568 59.5789 87.1568 59.5789H87.1613Z" fill="#316189"></path><path d="M71.7354 67.9061C72.1704 66.2694 71.982 64.7492 71.547 63.1932C60.3499 65.7402 47.1303 68.7357 46.5339 68.9868V74.9419C46.5339 74.9419 61.592 72.1168 73.278 69.9868C73.278 69.9061 73.269 69.8299 73.2645 69.7491C72.3676 69.7581 71.4304 69.0317 71.7309 67.9061H71.7354Z" fill="#316189"></path><path d="M49.9285 86.6188C50.0989 84.6547 49.7581 82.7355 49.516 80.7938C47.7895 81.2019 46.6954 81.4709 46.5339 81.5427V87.4978C46.5339 87.4978 47.8254 87.2556 49.933 86.861C49.9285 86.7848 49.924 86.7085 49.933 86.6233L49.9285 86.6188Z" fill="#316189"></path><path d="M87.1613 72.1347C86.8967 72.2917 68.036 76.5293 56.1035 79.2647C55.96 81.3409 56.5295 83.3991 56.5698 85.4709C56.5698 85.5247 56.5608 85.5695 56.5564 85.6189C68.2244 83.4485 86.0044 80.1705 86.7129 80.2019C87.7712 80.2512 87.1613 72.1302 87.1613 72.1302V72.1347Z" fill="#316189"></path><path d="M60.9196 97.6097C61.1124 95.6053 61.0945 93.4304 60.6864 91.4259C53.6013 93.0448 47.8212 94.3811 47.431 94.5425V100.498C47.431 100.498 53.5027 99.3586 60.9286 97.9819C60.9107 97.8653 60.9062 97.7443 60.9196 97.6097Z" fill="#316189"></path><path d="M88.0582 85.1391C87.8743 85.2512 78.6951 87.3318 69.1078 89.5112C69.4082 89.6726 69.6594 89.9417 69.7984 90.3453C70.4396 92.2421 70.3544 94.2421 70.5024 96.2151C79.2018 94.6187 87.1434 93.1883 87.6098 93.2107C88.6681 93.26 88.0582 85.1391 88.0582 85.1391Z" fill="#316189"></path><path d="M74.601 104.269C74.6055 103.269 74.7624 101.762 74.175 100.879C74.0136 100.637 73.9463 100.399 73.9328 100.175C62.5294 102.767 48.4937 105.946 47.8794 106.206V112.161C47.8794 112.161 62.7716 109.367 74.4306 107.242C74.5472 106.26 74.592 105.264 74.601 104.273V104.269Z" fill="#316189"></path><path d="M88.5065 96.7981C88.3899 96.8698 84.5918 97.7443 79.3677 98.9371C79.4618 99.1388 79.5067 99.381 79.4663 99.6725C79.1703 101.874 79.4932 104.072 79.8026 106.264C84.4259 105.435 87.7577 104.861 88.0536 104.874C89.1119 104.924 88.502 96.8026 88.502 96.8026L88.5065 96.7981Z" fill="#316189"></path><path d="M53.821 122.34C53.821 120.376 53.7941 118.417 53.673 116.457C50.3592 117.224 48.1171 117.762 47.8794 117.861V123.816C47.8794 123.816 50.2605 123.367 53.8614 122.699C53.8345 122.587 53.821 122.47 53.821 122.34Z" fill="#316189"></path><path d="M88.5066 108.457C88.2465 108.61 70.601 112.578 58.6505 115.314C58.8075 117.461 58.8478 119.614 58.8568 121.771C70.5158 119.605 87.3721 116.502 88.0582 116.533C89.1165 116.583 88.5066 108.462 88.5066 108.462V108.457Z" fill="#316189"></path><path d="M72.628 125.479C61.3905 128.035 48.0274 131.062 47.431 131.313V137.268C47.431 137.268 61.6775 134.596 73.2065 132.488C73.0764 130.147 72.8163 127.816 72.628 125.479Z" fill="#316189"></path><path d="M88.0583 121.91C87.9328 121.982 83.8073 122.937 78.2289 124.206C78.8163 126.506 78.7042 129.067 78.61 131.506C83.6189 130.605 87.2915 129.964 87.6054 129.981C88.6637 130.031 88.0539 121.91 88.0539 121.91H88.0583Z" fill="#316189"></path><path d="M88.5065 134.017C88.2957 134.143 76.5246 136.802 65.7041 139.264C66.3947 141.143 66.5202 143.129 66.8207 145.098C66.9148 145.223 66.9956 145.362 67.0539 145.528C67.0853 145.618 67.1032 145.708 67.1256 145.797C77.1838 143.941 87.5244 142.067 88.0625 142.089C89.1208 142.138 88.511 134.017 88.511 134.017H88.5065Z" fill="#316189"></path><path d="M55.6506 141.771C55.6371 141.703 55.6237 141.636 55.6147 141.569C51.2515 142.573 48.1619 143.304 47.8794 143.421V149.376C47.8794 149.376 50.7493 148.838 54.9555 148.053C54.7313 146.43 54.4847 144.806 54.2784 143.179C54.1528 142.201 54.8838 141.739 55.6506 141.771Z" fill="#316189"></path><path d="M57.96 153.587C52.395 154.86 48.2112 155.838 47.8794 155.977V161.932C47.8794 161.932 52.265 161.111 58.1349 160.017C58.081 157.873 57.9914 155.73 57.96 153.587Z" fill="#316189"></path><path d="M78.5515 148.901C74.2108 149.892 69.0091 151.071 64.1347 152.178C64.1257 152.282 64.1078 152.394 64.0719 152.506C63.4621 154.6 63.637 156.793 63.8746 158.954C68.9239 158.021 74.3319 157.026 78.7578 156.228C78.9103 153.802 78.5829 151.335 78.5515 148.905V148.901Z" fill="#316189"></path><path d="M88.5067 146.573C88.4036 146.636 85.5426 147.3 81.3812 148.255C81.4709 148.439 81.5292 148.654 81.5292 148.905C81.5606 151.179 81.7893 153.443 81.731 155.694C85.3318 155.053 87.8027 154.636 88.0583 154.645C89.1165 154.694 88.5067 146.573 88.5067 146.573Z" fill="#316189"></path><path d="M54.7625 166.981C51.0989 167.828 48.5832 168.429 48.3276 168.532V174.488C48.3276 174.488 51.2648 173.936 55.5473 173.138C55.4217 171.066 55.2782 168.994 54.7625 166.981Z" fill="#316189"></path><path d="M88.9551 159.129C88.7084 159.277 72.6459 162.891 60.7896 165.6C61.8927 167.515 62.0227 169.788 61.7626 171.985C73.193 169.864 87.8654 167.174 88.5066 167.201C89.5649 167.25 88.9551 159.129 88.9551 159.129Z" fill="#316189"></path><path d="M65.9553 185.541C65.749 183.712 65.1751 181.913 64.9598 180.097C56.7895 181.958 49.6596 183.6 49.2246 183.779V189.734C49.2246 189.734 57.4532 188.191 66.462 186.523C66.1975 186.29 66.0046 185.963 65.9553 185.537V185.541Z" fill="#316189"></path><path d="M68.1528 179.371C68.0407 179.398 67.9286 179.42 67.812 179.447C67.8613 180.689 68.1887 181.967 68.4846 183.218C68.4757 181.931 68.3546 180.644 68.1528 179.371Z" fill="#316189"></path><path d="M81.5336 176.326C78.9865 176.909 76.0538 177.573 73.009 178.268C73.1839 180.586 73.2422 182.913 73.4844 185.232C76.6368 184.653 79.6457 184.106 82.1838 183.653C82.0672 181.2 81.6277 178.775 81.5336 176.326Z" fill="#316189"></path><path d="M89.8519 174.375C89.7622 174.429 87.6771 174.918 84.4888 175.649C84.5157 178.156 84.9686 180.631 85.1345 183.129C87.5919 182.698 89.1972 182.438 89.399 182.447C90.4573 182.496 89.8474 174.375 89.8474 174.375H89.8519Z" fill="#316189"></path><path d="M53.821 197.676C53.7537 197.025 54.0586 196.604 54.4936 196.398C51.4667 197.102 49.4488 197.586 49.2246 197.68V203.635C49.2246 203.635 51.1887 203.267 54.2425 202.698C54.2514 201.021 53.9958 199.339 53.821 197.676Z" fill="#316189"></path><path d="M89.8519 188.277C89.556 188.451 66.3007 193.662 55.1035 196.259C55.8658 196.236 56.6954 196.707 56.7986 197.676C56.96 199.191 57.1259 200.671 57.1618 202.155C68.6549 200.016 88.6501 196.317 89.4035 196.348C90.4618 196.398 89.8519 188.277 89.8519 188.277Z" fill="#316189"></path><path d="M99.9415 29.6466C99.4483 30.8797 99.9415 106.166 99.9415 106.166L100.462 137.125L132.775 137.676L150.923 138.824C150.923 138.824 152.125 127.793 151.573 126.65C151.017 125.502 151.425 77.3589 151.425 77.3589L151.806 54.0498L152.941 39.4357C152.941 39.4357 144.564 36.216 134.878 33.5748C127.233 31.4896 123.659 32.5568 118.287 31.3326C102.403 27.7094 99.946 29.651 99.946 29.651L99.9415 29.6466Z" fill="#97FFFF"></path><path d="M143.775 99.0537C144.232 95.0403 143.986 91.2645 143.403 87.2825C142.205 79.1481 143.004 70.7446 143.228 62.5564C143.259 61.4578 142.627 60.7807 141.833 60.5161L142.048 57.7583C142.048 57.7583 139.721 57.3502 136.277 56.6955C136.08 56.1753 135.649 55.7359 134.941 55.5296C135.25 54.3816 134.811 52.9557 133.457 52.6462C132.703 52.4714 131.945 52.301 131.192 52.1261C131.179 52.0319 131.156 51.9377 131.129 51.8436C130.851 50.9153 130.174 50.2337 129.246 49.9647C128.363 49.7091 127.336 50.0992 126.802 50.8436C126.717 50.875 126.632 50.9064 126.546 50.9333C126.479 50.9557 126.421 50.9871 126.354 51.014C126.008 50.9333 125.663 50.8525 125.313 50.7763C124.623 50.6194 124.035 50.7584 123.573 51.0723C122.654 50.8884 121.73 50.6956 120.816 50.4938C119.659 50.2382 118.65 50.9333 118.201 51.848C117.618 51.6956 117.035 51.5431 116.457 51.3817C115.403 51.0947 114.582 51.5341 114.112 52.2292C111.497 51.866 110.744 51.9826 110.744 51.9826C110.704 52.0902 110.672 53.135 110.65 54.8346C110.112 55.0588 109.677 55.5206 109.502 56.2785C107.56 64.7716 107.408 74.1302 108.206 82.7893C108.394 84.8162 108.793 86.8117 108.762 88.852C108.731 90.9775 108.417 93.0896 108.273 95.2062C107.95 99.8743 108.018 104.547 108.408 109.206C108.497 110.278 109.188 110.95 110 111.224C110.215 111.336 110.448 111.399 110.69 111.412C110.789 111.435 110.883 111.444 110.982 111.448V111.488C110.461 112.291 110.412 113.457 111.031 114.264L111.053 115.466L112.937 115.497C113.04 116.242 113.538 116.892 114.533 117.067C121.582 118.305 128.694 119.107 135.847 119.439C137.739 119.529 138.385 117.627 137.797 116.273L140.86 116.466C140.86 116.466 140.887 116.224 140.927 115.834C141.694 115.47 142.286 114.735 142.228 113.834C142.179 113.103 142.196 112.381 142.286 111.654C142.326 111.332 142.205 110.946 142.026 110.614C142.12 110.421 142.196 110.21 142.237 109.955C142.766 106.323 143.367 102.69 143.784 99.0447L143.775 99.0537Z" fill="#303030"></path><path d="M123.663 147.47C158.087 147.47 185.994 119.563 185.994 85.139C185.994 50.7146 158.087 22.8081 123.663 22.8081C89.2386 22.8081 61.332 50.7146 61.332 85.139C61.332 119.563 89.2386 147.47 123.663 147.47Z" fill="url(#paint0_radial_11_21714)"></path><path d="M125.829 105.941C124.331 102.883 122.856 99.8743 121.354 96.816C120.416 97.9236 119.497 99.0043 118.551 100.121C117.654 98.2958 116.78 96.5156 115.883 94.6905C114.659 95.9281 113.461 97.1434 112.26 98.3631C112.242 98.3496 112.224 98.3317 112.206 98.3182C112.345 97.9505 112.488 97.5873 112.627 97.2151C114.165 93.0268 114.793 88.6054 114.78 84.0135C114.775 82.0853 114.766 80.1526 114.838 78.2243C114.919 76.202 115.452 74.3275 116.264 72.4935C116.547 72.9464 116.798 73.3679 117.067 73.7715C117.322 74.1571 117.582 74.5473 117.86 74.9015C118.04 75.1257 118.067 75.3141 117.941 75.6011C117.511 76.6055 117.327 77.6818 117.524 78.8118C117.86 80.7535 119.286 82.1705 121.026 82.3229C121.197 82.3364 121.367 82.3499 121.555 82.3633C121.524 83.009 121.511 83.6279 121.448 84.2377C121.434 84.3722 121.277 84.5157 121.161 84.6009C120.206 85.305 119.246 86 118.286 86.6951C118.174 86.7758 118.067 86.87 117.919 86.9866C118.623 87.4843 119.26 88.009 119.946 88.4036C121.313 89.1883 122.165 90.5471 122.811 92.1793C123.842 94.7891 124.488 97.5783 125.143 100.359C125.358 101.269 125.569 102.184 125.856 103.085C126.233 101.48 126.6 99.8743 126.99 98.2779C127.528 96.0627 128.116 93.8744 128.981 91.8161C129.582 90.3856 130.367 89.2107 131.56 88.4977C132.282 88.0673 132.959 87.5247 133.717 86.991C133.569 86.87 133.461 86.7713 133.345 86.6861C132.385 85.9911 131.43 85.287 130.466 84.6054C130.273 84.4664 130.179 84.314 130.179 84.0225C130.174 83.4889 130.12 82.9552 130.084 82.3723C131.533 82.3185 132.824 81.7848 133.663 80.1884C134.537 78.5338 134.264 76.8656 133.587 75.2603C134.192 74.3455 134.775 73.4576 135.385 72.5383C135.448 72.6594 135.515 72.776 135.564 72.9016C136.367 74.8522 136.838 76.9149 136.856 79.1212C136.878 81.4709 136.856 83.8207 136.923 86.1659C137.049 90.2915 137.838 94.2196 139.291 97.9281C139.335 98.0402 139.371 98.1613 139.358 98.3272C138.17 97.1254 136.981 95.9192 135.762 94.686C134.874 96.4932 133.999 98.2734 133.093 100.116C132.156 99.0088 131.237 97.9281 130.291 96.8115C128.798 99.8563 127.322 102.865 125.815 105.937L125.829 105.941Z" fill="white"></path><path d="M136.331 67.2873C136.192 67.6595 136.071 68.0451 135.914 68.4039C135.161 70.1886 134.111 71.6819 132.954 73.063C131.475 74.8253 129.86 76.3499 128.049 77.5428C127.798 77.7087 127.623 77.7132 127.367 77.5203C126.327 76.7356 125.273 76.7535 124.224 77.5383C124.098 77.6324 123.874 77.7042 123.766 77.6324C120.484 75.4083 117.668 72.5249 115.744 68.4308C115.565 68.0451 115.439 67.6191 115.313 67.2694C115.493 67.4577 115.686 67.6954 115.91 67.8747C116.421 68.2918 116.932 68.7043 117.466 69.072C117.699 69.2335 117.932 69.1572 118.148 68.8926C120.228 66.3321 122.753 65.0317 125.641 64.9734C128.573 64.9151 131.161 66.1393 133.327 68.6729C133.806 69.2379 133.932 69.3231 134.511 68.9106C135.04 68.5384 135.502 68.0227 135.986 67.5608C136.084 67.4667 136.143 67.3097 136.219 67.1842C136.255 67.2155 136.291 67.2514 136.327 67.2828L136.331 67.2873Z" fill="white"></path><path d="M121.555 86.9283C121.955 86.6368 122.309 86.3408 122.69 86.1121C123.12 85.8565 123.259 85.4799 123.268 84.879C123.282 83.9463 123.354 83.0046 123.493 82.0898C123.645 81.0898 124.107 80.2781 124.757 79.6593C125.448 79.0046 126.21 79.0046 126.896 79.6593C127.878 80.5876 128.255 81.8969 128.358 83.3678C128.398 83.9193 128.398 84.4754 128.389 85.027C128.38 85.4799 128.502 85.7938 128.824 86.009C129.241 86.2915 129.649 86.6009 130.12 86.9417C127.425 88.9148 126.717 92.3452 125.833 95.7802C125.721 95.3676 125.65 95.0537 125.555 94.7533C125.111 93.3183 124.712 91.8565 124.197 90.4663C123.668 89.0448 122.816 87.9283 121.739 87.1032C121.685 87.0628 121.641 87.009 121.555 86.9283Z" fill="white"></path><path d="M122.901 79.5876C122.013 80.4306 120.336 80.2243 119.596 79.1526C119.152 78.5113 119.112 77.5965 119.479 76.8656C120.623 77.7759 121.771 78.6862 122.905 79.5876H122.901Z" fill="white"></path><path d="M132.192 76.8611C132.685 78.0943 132.362 79.2602 131.34 79.8073C130.434 80.2916 129.56 80.1705 128.712 79.619C129.874 78.6952 131.022 77.7894 132.192 76.8611Z" fill="white"></path><path d="M161.586 24.3013C161.528 23.4807 161.806 22.6422 161.99 21.8485C162.174 21.0548 162.443 20.1579 162.263 19.3552C161.909 17.7723 159.492 17.2745 158.192 16.9113C156.012 16.3059 153.855 15.6154 151.667 15.0279C149.106 14.3418 146.515 13.7948 143.887 13.4315C141.129 13.0504 138.353 12.9831 135.586 12.6916C132.82 12.4002 129.959 11.9159 127.179 11.3284C121.672 10.167 116.268 8.57959 110.865 7.01459C107.959 6.17155 105.044 5.39578 102.112 4.65588C99.1789 3.91598 96.3359 3.12227 93.6857 1.73215C92.9189 1.32857 92.2373 2.48999 93.0086 2.89357C97.605 5.31058 102.829 6.11326 107.775 7.52579C113.076 9.03698 118.349 10.6468 123.712 11.9248C126.398 12.5661 129.102 13.1266 131.833 13.5436C134.564 13.9607 137.286 14.1714 140.03 14.3687C145.362 14.7454 150.506 16.0055 155.595 17.5884C156.519 17.8754 157.465 18.0907 158.398 18.3642C159.178 18.5974 160.236 18.8351 160.824 19.4449C161.205 19.835 160.815 20.9471 160.694 21.4852C160.487 22.3866 160.178 23.3597 160.245 24.2969C160.308 25.1534 161.653 25.1623 161.591 24.2969L161.586 24.3013Z" fill="black"></path><path d="M94.013 1.41827C93.3673 1.05953 91.0445 -0.693814 90.6454 0.848765C90.5333 1.28374 90.6499 1.78597 90.6364 2.22991C90.6274 2.57968 90.5826 2.92497 90.5647 3.27025C90.4525 5.31507 90.4839 7.36885 90.4974 9.41815C90.5333 15.3687 90.6723 21.3193 90.8337 27.2654C90.892 29.3372 90.9413 31.4134 91.031 33.4851C91.0669 34.3461 92.4122 34.3505 92.3763 33.4851C92.188 29.1219 92.1072 24.7498 92.0131 20.3821C91.901 15.1356 91.7485 9.87555 91.8651 4.62898C91.883 3.86218 91.9458 3.09986 91.9817 2.33754C91.9951 2.04158 91.9817 1.74561 91.9682 1.44965C91.9682 1.35997 91.9817 1.2389 91.9592 1.1537C91.9279 1.04159 91.9817 1.1806 91.9458 1.20751C91.9682 1.13127 91.9458 1.15818 91.8875 1.28374C91.8158 1.45862 91.6678 1.54831 91.4481 1.55279C91.4032 1.61109 91.3135 1.45414 91.3898 1.54831C91.3898 1.54831 91.5602 1.61109 91.4615 1.57073C91.6095 1.63799 91.7485 1.70974 91.892 1.78597C92.3763 2.04157 92.8516 2.31511 93.3314 2.58416C94.0893 3.00568 94.7664 1.84427 94.0085 1.42275L94.013 1.41827Z" fill="black"></path><path d="M92.2015 0.0550417C82.8564 3.97427 72.3722 2.93393 62.489 3.48549C60.0002 3.6245 57.5159 3.85768 55.0586 4.27023C53.8972 4.46754 52.7582 4.73659 51.6057 4.99668C50.7582 5.1895 49.8882 5.2478 49.0273 5.35094C47.4174 5.54376 45.2336 5.68277 44.1933 7.12221C43.1529 8.56165 43.3188 10.7679 43.4803 12.4719C43.6955 14.7499 43.9018 16.9965 43.9107 19.288C43.9242 22.1624 43.7493 25.0323 43.5161 27.8932C43.0498 33.6151 42.8704 39.328 42.9466 45.0679C43.0991 56.7717 43.7359 68.4756 44.1753 80.1705C44.6193 92.0403 44.9646 103.919 44.8031 115.798C44.7807 117.269 44.7538 118.739 44.7179 120.21C44.6955 121.076 46.0408 121.076 46.0632 120.21C46.3502 108.453 46.0991 96.6905 45.6955 84.9373C45.2919 73.341 44.7314 61.7493 44.404 50.153C44.2426 44.4804 44.1888 38.7989 44.4847 33.1308C44.7852 27.4672 45.4757 21.8529 45.1708 16.1669C45.0677 14.2566 44.7045 12.3508 44.7269 10.4361C44.7359 9.63339 44.7852 8.70515 45.2246 8.00561C45.6148 7.3823 46.3905 7.18499 47.0677 7.02356C48.8389 6.60652 50.6775 6.61101 52.4487 6.17604C54.8209 5.59309 57.2424 5.2478 59.6773 5.03255C69.5068 4.15364 79.6995 5.34645 89.2868 2.51689C90.3989 2.18954 91.493 1.79941 92.5648 1.35099C93.3495 1.01915 93.0042 -0.281276 92.206 0.0550417H92.2015Z" fill="black"></path><path d="M160.586 19.9561C161.259 21.844 161.308 23.8888 161.223 25.8708C161.129 28.1399 160.824 30.391 160.546 32.642C160.29 34.7272 160.048 36.8124 160.071 38.9155C160.098 41.5209 160.29 44.1172 160.353 46.7181C160.42 49.6553 160.34 52.6149 159.618 55.4758C159.407 56.3144 160.703 56.6731 160.914 55.8345C162.228 50.6149 161.568 45.1934 161.434 39.8841C161.322 35.3954 162.263 31.0098 162.537 26.548C162.676 24.2386 162.671 21.7992 161.887 19.5929C161.6 18.7813 160.299 19.131 160.591 19.9516L160.586 19.9561Z" fill="black"></path><path d="M153.815 39.2384C150.268 36.5254 145.528 35.7272 141.286 34.7631C138.645 34.1622 136.008 33.6017 133.336 33.1577C130.506 32.6869 127.663 32.2833 124.833 31.79C122.004 31.2968 119.206 30.6376 116.367 30.1847C113.529 29.7318 110.636 29.382 107.78 28.9426C105.977 28.6645 104.291 27.8977 102.479 27.6601C101.735 27.5614 100.923 27.5524 100.287 28.0098C99.6499 28.4672 99.3001 29.2789 99.1252 30.0412C98.7261 31.79 98.9145 33.6017 98.8338 35.3774C98.6992 38.346 98.6006 41.3191 98.5378 44.2921C98.4122 50.2337 98.4122 56.1798 98.466 62.1215C98.5737 73.9643 98.892 85.8027 98.8293 97.6411C98.7979 103.52 98.78 109.381 99.0131 115.26C99.2418 121.089 99.5736 126.919 99.7171 132.753C99.753 134.21 99.7754 135.668 99.7844 137.12C99.7889 137.986 101.134 137.986 101.13 137.12C101.067 125.618 99.9952 114.143 100.125 102.637C100.26 90.9865 100.031 79.3409 99.8741 67.6909C99.7979 61.8972 99.7485 56.0991 99.7934 50.3055C99.8158 47.4087 99.8651 44.5118 99.9458 41.615C100.018 39.0904 100.206 36.5568 100.197 34.0322C100.197 33.1129 100.184 32.1936 100.278 31.2789C100.345 30.6197 100.444 29.7407 100.919 29.234C101.345 28.7766 102.148 28.947 102.69 29.0502C103.614 29.2251 104.515 29.5165 105.412 29.7856C107.65 30.4627 110.049 30.6286 112.363 30.947C115.152 31.3371 117.937 31.7676 120.69 32.3595C126.152 33.5344 131.721 34.1129 137.196 35.225C139.506 35.6958 141.806 36.2384 144.098 36.7855C146.389 37.3326 148.506 37.8976 150.551 38.8572C151.461 39.2832 152.331 39.7855 153.129 40.3953C153.815 40.92 154.488 39.7541 153.806 39.2339L153.815 39.2384Z" fill="black"></path><path d="M153.151 41.5791C151.133 53.2875 151.358 65.238 151.47 77.0719C151.586 89.4798 151.313 101.888 151.214 114.296C151.187 117.766 151.151 121.242 151.237 124.708C151.322 128.201 151.488 131.69 151.51 135.183C151.515 136.049 152.86 136.049 152.855 135.183C152.837 132.094 152.707 129.004 152.618 125.914C152.528 122.82 152.528 119.726 152.546 116.632C152.582 110.376 152.68 104.125 152.761 97.8699C152.837 91.7444 152.887 85.6144 152.842 79.4889C152.797 73.3635 152.694 67.6236 152.81 61.691C152.941 55.0857 153.326 48.458 154.452 41.9379C154.6 41.0904 153.299 40.7271 153.156 41.5791H153.151Z" fill="black"></path><path d="M150.873 137.188C148.936 138.407 146.295 137.99 144.156 137.681C142.223 137.403 140.317 137.067 138.358 137.107C135.752 137.161 133.147 137.188 130.542 137.201C122.95 137.25 115.336 137.246 107.753 136.82C106.049 136.726 104.345 136.609 102.65 136.407C101.627 136.286 100.511 136.152 99.4749 135.807C98.6498 135.533 98.3 136.833 99.1162 137.102C100.067 137.421 101.08 137.551 102.071 137.681C103.515 137.869 104.968 137.986 106.421 138.085C110.17 138.331 113.928 138.43 117.681 138.493C124.416 138.605 131.161 138.582 137.896 138.457C139.869 138.421 141.761 138.681 143.712 138.963C146.246 139.331 149.254 139.789 151.546 138.345C152.277 137.883 151.604 136.721 150.869 137.183L150.873 137.188Z" fill="black"></path><path d="M159.918 54.0453C160.035 56.283 159.568 58.4802 159.165 60.6686C158.748 62.9152 158.532 65.1528 158.42 67.4308C158.183 72.3097 158.295 77.1975 158.304 82.0763C158.322 91.8609 157.743 101.637 156.784 111.372C155.833 120.995 155.564 130.641 155.618 140.304C155.671 149.995 155.99 159.685 156.035 169.376C156.057 174.263 155.882 179.142 155.779 184.026C155.73 186.259 155.658 188.505 155.779 190.738C155.882 192.703 156.066 194.671 155.941 196.64C155.882 197.559 155.734 198.46 155.42 199.33C155.129 200.146 156.429 200.501 156.716 199.689C157.99 196.12 157.053 192.052 157.066 188.357C157.084 183.411 157.313 178.47 157.375 173.519C157.497 163.779 157.12 154.035 157.003 144.295C156.887 134.587 156.954 124.86 157.775 115.179C158.183 110.327 158.703 105.489 159.026 100.632C159.357 95.6994 159.568 90.7578 159.631 85.8162C159.694 80.9284 159.559 76.0405 159.649 71.1527C159.694 68.7402 159.761 66.3142 160.012 63.9152C160.241 61.7044 160.806 59.5385 161.102 57.3368C161.25 56.2426 161.331 55.1485 161.268 54.0453C161.223 53.1844 159.878 53.1799 159.923 54.0453H159.918Z" fill="black"></path><path d="M91.0626 6.52584C91.0671 20.1579 91.5603 33.7855 91.7845 47.4132C92.0088 60.9825 91.8384 74.5204 90.9011 88.0628C90.4303 94.8789 90.0267 101.699 89.8922 108.529C89.7577 115.358 90.1881 122.179 90.2509 129.017C90.3137 135.802 89.9101 142.578 89.7308 149.358C89.5693 155.389 89.9281 161.394 89.9056 167.416C89.8653 178.662 88.807 189.873 88.5469 201.111C88.52 202.353 88.5021 203.595 88.5021 204.837C88.5021 205.702 89.8473 205.702 89.8473 204.837C89.8518 193.716 90.9236 182.622 91.1926 171.51C91.3316 165.806 90.9729 160.129 90.9953 154.43C91.0177 147.654 91.4437 140.887 91.5693 134.111C91.6949 127.336 91.1926 120.479 91.1881 113.659C91.1836 106.825 91.4886 99.9954 91.9101 93.1749C92.3316 86.3543 92.8473 79.5607 93.0536 72.7357C93.2554 66.0003 93.2733 59.256 93.2016 52.5162C93.0581 38.8931 92.5424 25.2745 92.4303 11.6468C92.4168 9.93834 92.4078 8.22984 92.4078 6.52135C92.4078 5.65589 91.0626 5.65589 91.0626 6.52135V6.52584Z" fill="black"></path><path d="M2.05935 18.714C2.05038 18.4001 2.09074 18.001 1.94276 17.7095C1.70061 17.2252 0.79031 17.2925 0.714078 17.8709C0.646814 18.3777 0.700625 18.9068 0.714078 19.4135C0.740983 20.6646 0.76789 21.9112 0.799279 23.1623C0.888964 27.0502 0.992094 30.9425 1.09972 34.8303C1.30599 42.3145 1.62887 49.7853 1.99209 57.2605C2.19388 61.4354 2.10868 65.6147 2.0728 69.794C2.03693 73.9285 2.18939 78.0495 2.29253 82.1795C2.50329 90.5874 2.39566 99.0043 2.06383 107.408C1.73648 115.748 1.44501 124.058 1.54367 132.407C1.64232 140.757 1.92482 149.161 2.04141 157.537C2.2432 172.452 1.25666 187.339 1.77235 202.254C1.82616 203.819 1.89343 205.384 1.98311 206.949C2.03244 207.81 3.37771 207.814 3.32838 206.949C2.94274 200.142 2.87547 193.312 2.94722 186.496C3.02794 178.949 3.4405 171.42 3.43153 163.869C3.41807 147.143 2.36876 130.412 3.12211 113.69C3.49431 105.421 3.78578 97.1523 3.74094 88.87C3.71852 84.6593 3.55709 80.462 3.44947 76.2513C3.34633 72.1303 3.45843 68.0092 3.46739 63.8882C3.47636 59.3143 3.13556 54.7718 2.94722 50.2068C2.78579 46.2472 2.66472 42.2921 2.54813 38.3325C2.35531 31.7183 2.15352 25.0995 2.0459 18.4808C2.0459 18.3732 2.0728 17.8351 2.01899 18.2342C1.61093 18.288 1.19837 18.3418 0.790302 18.3956C0.557122 17.9292 0.73649 18.01 0.7051 18.2297C0.682679 18.3821 0.714068 18.566 0.718553 18.7185C0.745458 19.5839 2.09073 19.5839 2.06383 18.7185L2.05935 18.714Z" fill="black"></path><path d="M45.6864 156.421C45.6057 169.707 46.8254 182.954 47.3725 196.218C47.5295 199.976 47.6236 203.734 47.6281 207.496C47.6281 208.362 48.9734 208.362 48.9734 207.496C48.9644 194.218 47.7268 180.985 47.229 167.725C47.09 163.959 47.0093 160.192 47.0317 156.421C47.0362 155.555 45.6909 155.555 45.6864 156.421Z" fill="black"></path><path d="M43.4353 17.4808C41.0811 18.9203 38.2739 19.3418 35.5744 19.6153C32.7 19.9068 29.7808 20.001 26.9602 20.6646C25.5028 21.0054 24.0724 21.5256 22.7988 22.3238L23.8123 22.9067C23.6329 21.3014 23.6374 19.6781 23.3459 18.0817C23.2159 17.3732 23.032 16.6109 22.6105 16.0145C22.1486 15.3598 21.4132 14.9786 20.6733 14.723C19.0321 14.158 17.1352 14.1087 15.4133 14.1535C13.4043 14.2028 11.4671 14.9338 9.60619 15.6288C7.74523 16.3239 5.70939 17.297 3.69596 17.0683C2.83499 16.9696 2.84395 18.3194 3.69596 18.4135C5.34168 18.5974 7.01878 18.0055 8.54343 17.4539C10.3282 16.8082 12.0994 16.0459 13.9694 15.6692C15.5433 15.3553 17.3101 15.436 18.893 15.6826C19.6554 15.7992 20.5163 15.9696 21.1531 16.436C21.6419 16.7947 21.8033 17.3463 21.9423 17.9158C22.3325 19.5525 22.2831 21.2476 22.4715 22.9067C22.5253 23.3821 23.0096 23.7812 23.4849 23.4897C25.7943 22.0458 28.5745 21.6287 31.2382 21.3597C34.1215 21.0682 37.0497 20.9651 39.8883 20.3104C41.3726 19.9651 42.821 19.4449 44.1259 18.6467C44.8658 18.1983 44.1887 17.0324 43.4488 17.4853L43.4353 17.4808Z" fill="black"></path><path d="M20.1712 17.2701C21.6376 24.9247 21.3237 32.7945 21.1802 40.5433C21.0277 48.7046 21.1981 56.8704 21.3147 65.0317C21.382 69.7402 21.4403 74.4486 21.4403 79.1616C21.4403 80.027 22.7856 80.027 22.7856 79.1616C22.7856 70.785 22.6017 62.4084 22.512 54.0364C22.4672 49.9557 22.4358 45.875 22.503 41.7989C22.5703 37.7227 22.6824 33.8976 22.6241 29.9425C22.5613 25.5794 22.2878 21.2072 21.4672 16.9158C21.3058 16.0683 20.0098 16.427 20.1712 17.2745V17.2701Z" fill="black"></path><path d="M22.086 113.426C22.0815 125.269 21.2071 137.089 21.1219 148.932C21.0367 160.833 21.5658 172.73 21.2474 184.626C21.0681 191.281 20.7945 197.927 20.79 204.586C20.79 205.451 22.1353 205.451 22.1353 204.586C22.1353 198.667 22.3102 192.761 22.521 186.851C22.7317 180.94 22.7227 174.972 22.6555 169.03C22.5882 163.075 22.4671 157.116 22.4582 151.161C22.4492 145.205 22.66 139.322 22.8931 133.403C23.1532 126.744 23.4268 120.085 23.4313 113.421C23.4313 112.556 22.086 112.556 22.086 113.421V113.426Z" fill="black"></path><path d="M45.081 130.201C44.9151 135.887 46.2917 141.618 45.1034 147.264C44.924 148.107 46.2245 148.47 46.3994 147.622C47.6146 141.842 46.2559 136.026 46.4218 130.201C46.4487 129.336 45.1034 129.336 45.0765 130.201H45.081Z" fill="black"></path><path d="M7.73191 30.7856C10.4852 29.4717 13.6915 29.7093 16.6242 29.1309C17.4717 28.9605 17.1129 27.6645 16.2654 27.8349C13.1848 28.4448 9.94712 28.243 7.05479 29.6286C6.27453 30.0008 6.95614 31.1622 7.73191 30.79V30.7856Z" fill="black"></path><path d="M7.82158 36.0501C10.0233 36.1442 12.1175 35.4223 14.2878 35.1891C14.6511 35.1487 14.9605 34.9066 14.9605 34.5164C14.9605 34.1846 14.6511 33.8034 14.2878 33.8438C12.122 34.0815 10.0144 34.799 7.82158 34.7048C6.95612 34.6689 6.95612 36.0142 7.82158 36.0501Z" fill="black"></path><path d="M7.39104 47.2562C8.89775 47.4266 10.4403 47.2786 11.8798 46.8033C12.2116 46.6912 12.4672 46.3324 12.3506 45.9737C12.243 45.6419 11.8798 45.3862 11.521 45.5028C10.1623 45.9557 8.826 46.0723 7.39104 45.9109C7.04127 45.8705 6.70496 46.2472 6.71841 46.5835C6.73635 46.9826 7.01437 47.2113 7.39104 47.2562Z" fill="black"></path><path d="M10.4088 59.3233H10.8393C10.9335 59.3233 11.0187 59.3054 11.0994 59.265C11.1846 59.2381 11.2563 59.1933 11.3146 59.126C11.3819 59.0632 11.4267 58.9915 11.4536 58.9108C11.494 58.83 11.5164 58.7448 11.5119 58.6507L11.4895 58.4713C11.4581 58.3592 11.3998 58.2605 11.3146 58.1753L11.1801 58.0722C11.077 58.0094 10.9604 57.9825 10.8393 57.9825H10.4088C10.3146 57.9825 10.2294 58.0005 10.1487 58.0408C10.0635 58.0677 9.99176 58.1126 9.93347 58.1798C9.86621 58.2426 9.82136 58.3143 9.79446 58.3951C9.7541 58.4758 9.73168 58.561 9.73616 58.6551L9.75858 58.8345C9.78997 58.9466 9.84827 59.0453 9.93347 59.1305L10.068 59.2336C10.1711 59.2964 10.2877 59.3233 10.4088 59.3233Z" fill="black"></path><path d="M9.50326 70.7626C9.99205 71.3321 10.6737 71.785 11.4494 71.776C12.2252 71.767 12.9292 71.3097 13.4718 70.7626C13.7184 70.5115 13.7409 70.0586 13.4718 69.8119C13.2028 69.5653 12.7857 69.5473 12.5212 69.8119C12.409 69.924 12.2925 70.0272 12.1714 70.1303C12.1086 70.1841 12.27 70.063 12.1624 70.1303C12.1355 70.1482 12.1086 70.1662 12.0817 70.1841C12.0234 70.2245 11.9606 70.2603 11.8978 70.2962C11.8709 70.3097 11.844 70.3231 11.8171 70.3366C11.7633 70.3635 11.6961 70.359 11.8351 70.3321C11.7813 70.3411 11.7274 70.3724 11.6736 70.3859C11.6153 70.4038 11.5526 70.4128 11.4898 70.4263C11.4046 70.4442 11.6333 70.4173 11.5481 70.4173C11.5167 70.4173 11.4808 70.4218 11.4494 70.4218C11.4091 70.4218 11.3283 70.3994 11.288 70.4128C11.3239 70.3994 11.4494 70.4397 11.3283 70.4128C11.3014 70.4083 11.2745 70.3993 11.2476 70.3949C11.1893 70.3814 11.131 70.3455 11.0727 70.3366C11.1041 70.3411 11.1983 70.3949 11.1176 70.3545C11.0907 70.3411 11.0638 70.3276 11.0414 70.3142C10.9831 70.2828 10.9248 70.2469 10.8665 70.2065C10.853 70.1976 10.7678 70.1303 10.8396 70.1886C10.9203 70.2514 10.8082 70.1617 10.7947 70.1482C10.6736 70.0406 10.5615 69.924 10.4584 69.8029C10.2297 69.5339 9.74092 69.5518 9.50774 69.8029C9.24317 70.0899 9.26559 70.4666 9.50774 70.7536L9.50326 70.7626Z" fill="black"></path><path d="M10.364 79.8163C10.9246 80.3768 11.6689 80.7311 12.4761 80.7221C13.2833 80.7131 14.0142 80.3903 14.6285 79.9239C14.9066 79.7132 15.0815 79.3365 14.8707 79.0047C14.6913 78.7311 14.2519 78.5338 13.9514 78.7625C13.8169 78.8656 13.6824 78.9598 13.5389 79.045C13.4761 79.0854 13.4088 79.1212 13.3416 79.1526C13.3102 79.1706 13.2743 79.184 13.2429 79.202C13.2295 79.2064 13.1174 79.2558 13.1981 79.2244C13.2788 79.193 13.1667 79.2333 13.1532 79.2378C13.1129 79.2513 13.068 79.2692 13.0277 79.2827C12.9604 79.3051 12.8931 79.323 12.8259 79.3365C12.7945 79.3454 12.6375 79.3544 12.6241 79.3768C12.6375 79.3589 12.7586 79.3634 12.651 79.3724C12.6106 79.3724 12.5703 79.3768 12.5254 79.3813C12.4582 79.3813 12.3954 79.3813 12.3281 79.3813C12.2967 79.3813 12.2609 79.3768 12.2295 79.3724C12.1353 79.3679 12.355 79.3993 12.2609 79.3724C12.2205 79.3634 11.8483 79.2916 11.8573 79.2603C11.8573 79.2603 11.9784 79.3185 11.8797 79.2692C11.8483 79.2558 11.8169 79.2378 11.79 79.2244C11.7272 79.193 11.6689 79.1571 11.6106 79.1168C11.5972 79.1078 11.4716 79.0226 11.5479 79.0764C11.6151 79.1212 11.521 79.054 11.5075 79.045C11.4403 78.9912 11.382 78.9329 11.3192 78.8701C11.0681 78.619 10.6152 78.6011 10.3685 78.8701C10.1219 79.1392 10.1039 79.5562 10.3685 79.8208L10.364 79.8163Z" fill="black"></path><path d="M55.4129 19.6467C61.8657 17.8934 68.202 15.5975 74.8073 14.4764C75.6593 14.3329 75.296 13.037 74.4485 13.1804C67.8387 14.3015 61.507 16.5974 55.0542 18.3508C54.2201 18.5795 54.5744 19.8754 55.4129 19.6467Z" fill="black"></path><path d="M56.5292 30.0143C63.3677 30.6645 69.6366 27.2699 76.1029 25.678C76.9414 25.4717 76.5872 24.1758 75.7442 24.3821C69.399 25.9426 63.2376 29.3058 56.5292 28.669C55.6682 28.5883 55.6727 29.9336 56.5292 30.0143Z" fill="black"></path><path d="M63.332 36.8169C66.5741 35.3057 70.3274 35.6913 73.7668 34.9918C77.2063 34.2923 80.8519 32.7183 84.547 33.0322C85.4079 33.1039 85.4034 31.7587 84.547 31.6869C80.7309 31.364 77.0852 32.947 73.4126 33.6958C69.74 34.4447 66.0495 34.077 62.6594 35.66C61.8746 36.0277 62.5562 37.1846 63.3365 36.8214L63.332 36.8169Z" fill="black"></path><path d="M57.0497 50.6104C59.7761 52.1395 63.3366 51.6732 66.2872 51.2248C70.0181 50.6553 73.6683 49.6687 77.3543 48.8795C79.009 48.5252 80.6906 48.1755 82.3901 48.1172C83.2556 48.0858 83.2556 46.7405 82.3901 46.7719C79.166 46.884 75.9553 47.8078 72.8297 48.5252C69.3231 49.3324 65.7312 50.2248 62.1079 50.2741C60.6326 50.2965 59.0452 50.1844 57.7268 49.449C56.969 49.0275 56.2919 50.1889 57.0497 50.6104Z" fill="black"></path><path d="M60.8387 68.3725C62.888 68.3635 64.9193 68.0407 66.9597 67.8837C68.8655 67.7357 70.9193 67.6147 72.7264 68.3501C73.5291 68.6774 73.8788 67.3725 73.0851 67.0541C71.2287 66.3008 69.0942 66.3815 67.1345 66.5295C65.0359 66.6864 62.9463 67.0227 60.8387 67.0317C59.9732 67.0317 59.9732 68.3815 60.8387 68.377V68.3725Z" fill="black"></path><path d="M66.2646 76.5383C68.8251 77.1795 71.4798 76.2468 74.0223 76.9688C74.8564 77.2064 75.2107 75.9105 74.3811 75.6728C73.0807 75.3006 71.7354 75.3006 70.3946 75.3724C69.1345 75.4396 67.861 75.5517 66.6233 75.2378C65.7848 75.0271 65.4261 76.323 66.2646 76.5338V76.5383Z" fill="black"></path><path d="M70.1029 88.5695C70.1478 88.7219 70.215 88.8744 70.2957 89.0089C70.3495 89.0986 70.4168 89.1793 70.4796 89.2601C70.511 89.3004 70.5469 89.3408 70.5872 89.3811C70.6993 89.4932 70.8338 89.5964 70.9684 89.6816C71.1119 89.7713 71.2733 89.8385 71.4302 89.9013C71.5199 89.9282 71.6096 89.9327 71.6993 89.9147C71.789 89.9147 71.8742 89.8834 71.9504 89.834C72.0267 89.7937 72.0939 89.7354 72.1388 89.6591C72.1971 89.5964 72.2374 89.5201 72.2598 89.4305C72.3002 89.2601 72.2912 89.0672 72.1926 88.9103L72.0894 88.7757C72.0042 88.6905 71.9056 88.6367 71.7935 88.6009C71.7755 88.5964 71.7621 88.5874 71.7442 88.5829L71.9056 88.6502C71.7755 88.5964 71.6545 88.5246 71.5424 88.4394L71.6769 88.5426C71.5827 88.4708 71.502 88.3901 71.4302 88.2959L71.5334 88.4305C71.4706 88.3497 71.4213 88.2601 71.3764 88.1659L71.4437 88.3273C71.4258 88.287 71.4123 88.2466 71.3989 88.2018C71.3495 88.0358 71.2419 87.8879 71.0895 87.7982C71.0132 87.7489 70.928 87.722 70.8383 87.7175C70.7487 87.6995 70.659 87.6995 70.5693 87.7309C70.4078 87.7847 70.2509 87.8834 70.1657 88.0403C70.0805 88.1973 70.0446 88.3856 70.0984 88.5605L70.1029 88.5695Z" fill="black"></path><defs><radialGradient id="paint0_radial_11_21714" cx="0" cy="0" r="1" gradientUnits="userSpaceOnUse" gradientTransform="translate(123.663 85.139) scale(62.331)"><stop stop-color="#00FFFF"></stop><stop offset="0.09" stop-color="#06FDFF" stop-opacity="0.97"></stop><stop offset="0.22" stop-color="#19F9FF" stop-opacity="0.9"></stop><stop offset="0.37" stop-color="#38F2FF" stop-opacity="0.78"></stop><stop offset="0.53" stop-color="#63E8FF" stop-opacity="0.61"></stop><stop offset="0.71" stop-color="#9ADBFF" stop-opacity="0.39"></stop><stop offset="0.9" stop-color="#DCCCFF" stop-opacity="0.14"></stop><stop offset="1" stop-color="#FFC5FF" stop-opacity="0"></stop></radialGradient></defs></svg> 