<?xml version="1.0" encoding="UTF-8"?> <svg xmlns="http://www.w3.org/2000/svg" width="111" height="38" viewBox="0 0 111 38" fill="none"><rect x="3" y="3" width="105" height="32" rx="3" fill="#FF00D5"></rect><path d="M26.7134 20.284C27.8909 20.8296 28.5227 21.8707 28.6089 23.4071C28.6376 24.0102 28.4581 24.6061 28.0704 25.1949C27.6827 25.7692 27.1873 26.1713 26.5842 26.4011C25.9955 26.6164 25.3565 26.5877 24.6672 26.3149C23.9923 25.999 23.4682 25.7118 23.0949 25.4533C23.0087 26.1713 22.901 26.5518 22.7718 26.5949C22.5708 26.6523 22.3769 26.6882 22.1902 26.7026C22.0179 26.7026 21.8887 26.6954 21.8025 26.6811C21.7307 26.6667 21.6015 26.638 21.4148 26.5949C21.2282 26.5375 21.1133 26.5016 21.0702 26.4872C20.8692 26.4298 20.7256 25.2523 20.6394 22.9548C20.5676 20.643 20.5605 18.3167 20.6179 15.9762C20.6753 13.6356 20.7543 12.372 20.8548 12.1853C20.9697 11.9986 21.3359 11.8981 21.9533 11.8837C22.5708 11.8694 22.9441 11.9555 23.0733 12.1422C23.0733 12.1566 23.0805 12.1925 23.0949 12.2499C23.1667 12.2356 23.4323 12.1853 23.8918 12.0991C24.3657 11.9986 24.8252 11.9196 25.2703 11.8622C25.7155 11.8048 26.1893 11.7761 26.6919 11.7761C27.2088 11.7761 27.6396 11.8837 27.9842 12.0991C28.3289 12.3002 28.5371 12.6017 28.6089 13.0038C28.7381 13.7505 28.6089 14.9136 28.2212 16.4931C27.8478 18.0583 27.3452 19.3219 26.7134 20.284ZM26.498 13.9946C26.4262 13.9084 26.2898 13.8653 26.0888 13.8653C25.9021 13.851 25.6724 13.8725 25.3996 13.93C25.1411 13.9874 24.8826 14.052 24.6241 14.1238C24.38 14.1956 24.1216 14.2746 23.8487 14.3607C23.5759 14.4325 23.3821 14.4756 23.2672 14.49C23.3246 16.1126 23.3462 17.886 23.3318 19.8101C23.5328 19.8388 23.7267 19.8173 23.9134 19.7455C24.1575 19.645 24.5093 19.1424 24.9688 18.2378C25.4283 17.3331 25.816 16.4285 26.1319 15.5238C26.4621 14.6192 26.5842 14.1094 26.498 13.9946ZM25.5288 24.6349C25.816 24.6923 26.0314 24.599 26.175 24.3548C26.3186 24.0964 26.376 23.6225 26.3473 22.9333C26.3329 22.603 26.175 22.3445 25.8734 22.1579C25.5862 21.9712 25.2631 21.8994 24.9042 21.9425C24.6744 21.9712 24.1359 22.1507 23.2887 22.4809C23.2744 22.7969 23.26 23.0984 23.2456 23.3856C24.1359 24.1036 24.897 24.52 25.5288 24.6349ZM32.1421 23.7087C32.257 23.9384 32.537 24.0964 32.9821 24.1825C33.4416 24.2543 33.8868 24.2615 34.3176 24.2041C34.7483 24.1323 35.014 24.0389 35.1145 23.9241C35.3442 23.6656 35.495 22.9045 35.5668 21.6409C35.6386 20.3629 35.6458 19.0347 35.5884 17.6562C35.5309 16.2777 35.4663 14.9925 35.3945 13.8007C35.3371 12.5945 35.3155 11.9699 35.3299 11.9268C35.3873 11.6827 35.7463 11.575 36.4068 11.6037C37.0674 11.6181 37.4694 11.7043 37.613 11.8622C37.6561 11.9053 37.7135 12.3863 37.7853 13.3053C37.8715 14.2243 37.9433 15.3444 38.0007 16.6654C38.0582 17.9865 38.0869 19.3147 38.0869 20.6501C38.0869 21.9856 38.0151 23.1702 37.8715 24.2041C37.7279 25.2236 37.5053 25.8267 37.2038 26.0133C36.8017 26.2575 36.2058 26.4369 35.416 26.5518C34.6263 26.6523 33.8222 26.6739 33.0037 26.6164C32.1995 26.559 31.4672 26.3723 30.8067 26.0564C30.1462 25.7262 29.7513 25.2954 29.622 24.7641C29.4354 24.003 29.4067 21.7055 29.5359 17.8716C29.6795 14.0233 29.8662 11.9986 30.0959 11.7976C30.2395 11.6684 30.5769 11.6109 31.1082 11.6253C31.6395 11.6253 32.0631 11.7043 32.379 11.8622C32.5083 11.9196 32.5226 12.9176 32.4221 14.8561C32.336 16.7946 32.2354 18.6255 32.1206 20.3486C32.0201 22.0573 32.0272 23.1774 32.1421 23.7087ZM45.5236 11.733C45.9974 11.6612 46.658 11.8909 47.5052 12.4222C48.1226 12.8099 48.3595 13.0612 48.2159 13.1761C48.1872 13.1904 48.1585 13.1976 48.1298 13.1976C48.058 13.212 47.9934 13.4561 47.9359 13.93C47.8785 14.4038 47.7995 14.971 47.699 15.6315C47.5985 16.2921 47.4621 16.7946 47.2898 17.1393C46.8446 18.1157 46.0046 18.6757 44.7697 18.8193C44.8702 20.126 44.8774 21.7343 44.7912 23.6441C44.7194 25.5395 44.5471 26.5159 44.2743 26.5734C44.0733 26.6164 43.8794 26.6452 43.6927 26.6595C43.5204 26.6595 43.3912 26.6595 43.305 26.6595C43.2189 26.6452 43.0825 26.6236 42.8958 26.5949C42.7235 26.5518 42.6158 26.5231 42.5727 26.5087C42.343 26.48 42.1922 25.5251 42.1204 23.6441C42.063 21.763 42.0773 20.1691 42.1635 18.8624C41.0865 18.7475 40.2968 18.2449 39.7942 17.3547C39.5932 17.0244 39.4137 16.5362 39.2557 15.89C39.0978 15.2438 38.9685 14.691 38.868 14.2315C38.7675 13.7576 38.6813 13.5135 38.6095 13.4992C38.3367 13.4705 38.4516 13.2479 38.9542 12.8315C39.6578 12.2427 40.2896 11.9053 40.8496 11.8191C40.9214 11.8048 40.9932 11.8048 41.065 11.8191C41.1081 11.8191 41.1942 12.0632 41.3235 12.5515C41.4527 13.0397 41.5963 13.5782 41.7542 14.1669C41.9122 14.7556 42.1563 15.3085 42.4866 15.8254C42.8168 16.3423 43.183 16.6223 43.585 16.6654C43.9297 16.5075 44.2312 16.1557 44.4897 15.61C44.7482 15.0643 44.9276 14.5115 45.0282 13.9515C45.143 13.3915 45.2436 12.8889 45.3297 12.4438C45.4159 11.9843 45.4805 11.7473 45.5236 11.733ZM63.5139 12.1422C63.5857 12.2858 63.6287 13.1115 63.6431 14.6192C63.6575 16.1126 63.6431 17.728 63.6 19.4655C63.5713 21.203 63.4995 22.7969 63.3846 24.2471C63.2698 25.6831 63.1405 26.4154 62.9969 26.4441C62.9395 26.4585 62.8174 26.4944 62.6308 26.5518C62.4585 26.5949 62.3292 26.6236 62.2431 26.638C62.1569 26.6523 62.0205 26.6523 61.8338 26.638C61.6615 26.6236 61.482 26.5805 61.2953 26.5087C60.922 26.3795 60.7856 23.9456 60.8861 19.207C60.6851 19.1065 60.3548 18.805 59.8953 18.3024C59.4502 17.7854 58.9189 17.1536 58.3014 16.4069C57.6983 15.6603 57.2245 15.1074 56.8798 14.7484C56.9804 16.8162 56.9875 19.2573 56.9014 22.0717C56.8296 24.8718 56.6573 26.3221 56.3844 26.4226C56.1834 26.48 55.9896 26.5159 55.8029 26.5303C55.6306 26.5303 55.5013 26.5231 55.4152 26.5087C55.3434 26.4944 55.2142 26.4657 55.0275 26.4226C54.8408 26.3652 54.7259 26.3293 54.6829 26.3149C54.4818 26.2575 54.3454 25.08 54.2736 22.7825C54.2018 20.4706 54.1875 18.1444 54.2305 15.8039C54.288 13.4633 54.367 12.1997 54.4675 12.013C54.5393 11.8837 54.7331 11.7976 55.049 11.7545C55.3649 11.6971 55.688 11.6899 56.0183 11.733C56.0614 11.7186 56.0973 11.7043 56.126 11.6899C56.4706 11.6037 56.8583 11.654 57.2891 11.8407C57.7199 12.013 58.1578 12.293 58.603 12.6807C59.0481 13.054 59.4645 13.4633 59.8522 13.9084C60.2543 14.3392 60.642 14.7987 61.0153 15.2869C61.1159 13.2766 61.2164 12.1997 61.3169 12.0561C61.4318 11.8837 61.7979 11.812 62.4154 11.8407C63.0328 11.855 63.399 11.9555 63.5139 12.1422ZM72.4791 11.7545C72.7951 11.9412 73.0751 12.6448 73.3192 13.8653C73.5776 15.0715 73.7571 16.3926 73.8576 17.8285C73.9725 19.2645 74.0084 20.643 73.9653 21.964C73.9223 23.2851 73.7787 24.1395 73.5346 24.5272C72.9602 25.5036 72.192 26.121 71.2299 26.3795C71.1006 26.4369 70.8565 26.5016 70.4976 26.5734C70.1386 26.6452 69.6719 26.6954 69.0975 26.7241C68.5231 26.7385 67.9488 26.7026 67.3744 26.6164C66.8144 26.5303 66.2687 26.3221 65.7374 25.9918C65.2205 25.6615 64.8328 25.2164 64.5743 24.6564C64.4307 24.3692 64.3733 23.8451 64.402 23.084C64.4451 22.323 64.5241 21.4614 64.6389 20.4994C64.7538 19.5229 64.9405 18.5034 65.199 17.4408C65.4574 16.3782 65.7303 15.4018 66.0174 14.5115C66.319 13.6212 66.6564 12.8817 67.0298 12.293C67.4175 11.6899 67.7908 11.374 68.1498 11.3453C68.6237 11.2878 69.3416 11.295 70.3037 11.3668C71.1653 11.3094 71.8473 11.4171 72.3499 11.6899C72.4073 11.7043 72.4504 11.7258 72.4791 11.7545ZM67.0729 23.4717C67.5754 23.96 68.7242 23.96 70.5191 23.4717C70.7058 23.3856 70.8637 23.2923 70.993 23.1917C71.0791 23.1199 71.1437 22.6533 71.1868 21.7917C71.2299 20.9158 71.2442 19.9609 71.2299 18.927C71.2155 17.8931 71.1581 16.9167 71.0576 15.9977C70.9571 15.0643 70.8206 14.5187 70.6483 14.3607C69.9016 14.2315 69.3847 14.2315 69.0975 14.3607H69.076C68.8319 14.4756 68.5231 15.2726 68.1498 16.7516C67.7908 18.2162 67.4965 19.6737 67.2667 21.124C67.037 22.5743 66.9723 23.3569 67.0729 23.4717ZM90.8481 12.7238C90.8624 12.7812 90.7978 13.3628 90.6542 14.4684C90.5106 15.5741 90.3024 16.9813 90.0296 18.6901C89.7567 20.3845 89.4839 21.8707 89.2111 23.1487C89.1967 23.2348 89.1752 23.3569 89.1465 23.5148C89.1321 23.6584 89.1106 23.7948 89.0819 23.9241C89.0675 24.0533 89.0388 24.2041 88.9957 24.3764C88.9526 24.5487 88.9095 24.7066 88.8665 24.8502C88.8234 24.9938 88.7588 25.1518 88.6726 25.3241C88.6008 25.4821 88.5147 25.6256 88.4141 25.7549C88.328 25.8841 88.2131 26.0133 88.0695 26.1426C87.9403 26.2575 87.7895 26.358 87.6172 26.4441C87.4593 26.5303 87.2654 26.6021 87.0357 26.6595C86.8203 26.717 86.5833 26.7529 86.3249 26.7672C86.009 26.7816 85.7218 26.7744 85.4633 26.7457C85.2192 26.717 85.0038 26.6811 84.8171 26.638C84.6448 26.5949 84.4869 26.5159 84.3433 26.4011C84.1997 26.2862 84.0848 26.1857 83.9986 26.0995C83.9269 26.0133 83.8407 25.8698 83.7402 25.6687C83.654 25.4677 83.5894 25.3169 83.5463 25.2164C83.5176 25.1015 83.4602 24.9077 83.374 24.6349C83.2879 24.362 83.2232 24.161 83.1802 24.0318C83.0366 23.601 82.893 23.1415 82.7494 22.6533C82.6489 23.0697 82.5484 23.4717 82.4478 23.8594C82.4048 23.9887 82.3545 24.1754 82.2971 24.4195C82.2396 24.6492 82.1894 24.8215 82.1463 24.9364C82.1176 25.0513 82.0673 25.202 81.9955 25.3887C81.9381 25.561 81.8806 25.6974 81.8232 25.798C81.7658 25.8841 81.6868 25.9918 81.5863 26.121C81.4858 26.2359 81.3709 26.3293 81.2417 26.4011C81.1124 26.4585 80.9616 26.5231 80.7893 26.5949C80.617 26.6523 80.416 26.6954 80.1862 26.7241C79.9565 26.7385 79.7052 26.7457 79.4324 26.7457C79.0016 26.7457 78.6211 26.6811 78.2908 26.5518C77.9605 26.4082 77.6949 26.2575 77.4939 26.0995C77.3072 25.9272 77.1349 25.6903 76.9769 25.3887C76.8333 25.0728 76.7328 24.8287 76.6754 24.6564C76.6323 24.4697 76.5749 24.2041 76.5031 23.8594C76.4313 23.5148 76.3882 23.3138 76.3738 23.2564C76.0436 21.9927 75.6989 20.5137 75.34 18.8193C74.9953 17.1249 74.7225 15.7321 74.5215 14.6407C74.3348 13.5494 74.2487 12.9751 74.263 12.9176C74.3348 12.6592 74.6076 12.4079 75.0815 12.1638C75.5554 11.9196 75.9359 11.7617 76.2231 11.6899C76.4672 11.6325 76.7185 12.0202 76.9769 12.853C77.2498 13.6715 77.4939 14.6838 77.7093 15.89C77.939 17.0962 78.1544 18.3096 78.3554 19.5301C78.5708 20.7363 78.779 21.763 78.9801 22.6102C79.1954 23.443 79.3821 23.8523 79.5401 23.8379C79.698 23.8092 79.8775 23.4215 80.0785 22.6748C80.2796 21.9138 80.4591 21.0881 80.617 20.1978C80.775 19.2932 80.9473 18.4244 81.134 17.5916C81.335 16.7587 81.5073 16.2633 81.6509 16.1054C81.8232 15.9474 82.175 15.8828 82.7063 15.9115C83.2376 15.9403 83.5679 16.0049 83.6971 16.1054C83.7402 16.1198 83.7545 16.2346 83.7402 16.45C83.9269 16.7946 84.171 17.5988 84.4725 18.8624C84.7741 20.1117 85.0684 21.2532 85.3556 22.2871C85.6428 23.321 85.8797 23.8451 86.0664 23.8594C86.1669 23.8738 86.2674 23.7087 86.3679 23.364C86.4828 23.0051 86.5833 22.5384 86.6695 21.964C86.77 21.3753 86.8705 20.7076 86.971 19.9609C87.0859 19.2142 87.1864 18.4532 87.2726 17.6777C87.3731 16.9023 87.4808 16.1413 87.5957 15.3946C87.7105 14.6479 87.8254 13.9874 87.9403 13.413C88.0695 12.8386 88.2059 12.3863 88.3495 12.0561C88.5075 11.7114 88.6654 11.5535 88.8234 11.5822C89.1106 11.6396 89.4983 11.7832 89.9865 12.013C90.4747 12.2284 90.7619 12.4653 90.8481 12.7238Z" fill="#042382"></path><path fill-rule="evenodd" clip-rule="evenodd" d="M0.542904 27.1452C0.243066 27.1452 -4.63997e-07 27.3883 -4.50891e-07 27.6881L-4.74622e-08 36.9175V36.9175C-2.12496e-08 37.5172 0.486133 38.0033 1.08581 38.0033V38.0033L9.22937 38.0033C9.52921 38.0033 9.77228 37.7602 9.77228 37.4604V37.4604C9.77228 37.1606 9.52921 36.9175 9.22937 36.9175L5.42904 36.9175C3.03034 36.9175 1.08581 34.973 1.08581 32.5743L1.08581 27.6881C1.08581 27.3883 0.842742 27.1452 0.542904 27.1452V27.1452Z" fill="#FF00D5"></path><path fill-rule="evenodd" clip-rule="evenodd" d="M110.229 27.1452C110.529 27.1452 110.772 27.3883 110.772 27.6881L110.772 36.9175V36.9175C110.772 37.5172 110.286 38.0033 109.686 38.0033V38.0033L101.543 38.0033C101.243 38.0033 101 37.7602 101 37.4604V37.4604C101 37.1606 101.243 36.9175 101.543 36.9175L105.343 36.9175C107.742 36.9175 109.686 34.973 109.686 32.5743L109.686 27.6881C109.686 27.3883 109.929 27.1452 110.229 27.1452V27.1452Z" fill="#FF00D5"></path><path fill-rule="evenodd" clip-rule="evenodd" d="M0.542904 10.8581C0.243066 10.8581 -4.63997e-07 10.615 -4.50891e-07 10.3152L-4.74622e-08 1.08581V1.08581C-2.12496e-08 0.486133 0.486133 2.12496e-08 1.08581 4.74622e-08V4.74622e-08L9.22937 4.03429e-07C9.52921 4.16535e-07 9.77228 0.243067 9.77228 0.542905V0.542905C9.77228 0.842742 9.52921 1.08581 9.22937 1.08581L5.42904 1.08581C3.03034 1.08581 1.08581 3.03034 1.08581 5.42904L1.08581 10.3152C1.08581 10.615 0.842742 10.8581 0.542904 10.8581V10.8581Z" fill="#FF00D5"></path><path fill-rule="evenodd" clip-rule="evenodd" d="M110.229 10.8581C110.529 10.8581 110.772 10.615 110.772 10.3152L110.772 1.08581V1.08581C110.772 0.486133 110.286 2.12496e-08 109.686 4.74622e-08V4.74622e-08L101.543 4.03429e-07C101.243 4.16535e-07 101 0.243067 101 0.542905V0.542905C101 0.842742 101.243 1.08581 101.543 1.08581L105.343 1.08581C107.742 1.08581 109.686 3.03034 109.686 5.42904L109.686 10.3152C109.686 10.615 109.929 10.8581 110.229 10.8581V10.8581Z" fill="#FF00D5"></path></svg> 