<?xml version="1.0" encoding="UTF-8"?> <svg xmlns="http://www.w3.org/2000/svg" width="146" height="146" viewBox="0 0 146 146" fill="none"><g clip-path="url(#clip0_25_32956)"><mask id="mask0_25_32956" style="mask-type:luminance" maskUnits="userSpaceOnUse" x="-424" y="-30" width="1331" height="706"><path d="M-424 675.55H906.961V-30.0001H-424V675.55Z" fill="white"></path></mask><g mask="url(#mask0_25_32956)"><path d="M10.1566 67.8635C11.4399 68.211 12.7289 68.4688 14.0234 68.6537C13.7712 69.1244 13.6199 69.6905 13.6087 70.3461C13.5471 75.0143 13.5863 79.6769 13.7264 84.3394C13.8665 88.9516 20.95 89.03 21.006 84.5243C21.0509 84.4347 21.0957 84.345 21.135 84.2497C22.6873 84.2385 24.2284 83.4315 24.6207 81.6831C24.8448 80.6912 24.9737 79.7105 25.0185 78.7466C25.1698 77.6426 25.3156 76.533 25.4669 75.429C25.5734 74.6612 25.6854 73.8879 25.7919 73.1201C25.8199 72.9072 25.8536 72.6942 25.8816 72.4756C26.7894 71.6799 27.1088 70.0939 26.7614 68.9843C26.7278 68.8722 26.683 68.777 26.6437 68.6761C32.6176 68.1157 38.5803 67.5553 44.5711 67.219C54.4398 66.6642 64.3197 66.5522 74.1941 66.8324C75.6623 66.8996 77.125 66.978 78.5932 67.0621C80.2352 67.1574 81.8828 67.2583 83.5248 67.3704C84.1132 67.4096 84.7017 67.4544 85.2901 67.4936C85.2789 67.5665 85.262 67.645 85.2508 67.7178C84.5671 68.3174 84.1468 69.1917 84.2701 70.3069C84.3766 71.2652 84.4495 72.2178 84.5055 73.1705C84.3486 74.9806 84.2758 76.7964 84.3094 78.6233C84.2926 78.6233 84.2813 78.6233 84.2645 78.6233C80.224 78.1413 79.2489 85.1016 83.295 85.7796C85.0659 86.0767 86.8424 86.3232 88.6189 86.5474C89.2241 86.822 89.9246 86.8893 90.6083 86.7828C96.8456 87.4553 103.117 87.657 109.399 87.2591C112.077 87.091 114.728 86.738 117.39 86.4297C118.825 86.3064 120.259 86.1719 121.694 86.015C122.238 85.9814 122.77 85.959 123.297 85.9534C123.358 86.3905 123.482 86.8332 123.695 87.2984C123.016 85.8189 123.347 88.6882 123.353 88.8563C123.381 89.8874 123.426 90.9186 123.493 91.9497C123.616 93.8271 123.824 95.6988 124.07 97.565C124.597 101.488 125.398 105.338 126.48 109.143C127.758 113.649 134.785 111.732 133.507 107.204C132.375 103.214 131.495 99.1509 131.047 95.0263C130.823 92.9752 130.688 90.913 130.638 88.8507C130.632 88.6097 130.632 88.3799 130.632 88.1502C132.207 89.1645 134.555 88.2006 135.441 86.7267C136.562 84.8606 135.682 82.9384 134.135 81.7448C132.213 80.2597 130.094 79.4359 127.886 79.0268C127.326 78.5616 126.62 78.2534 125.802 78.231C123.762 78.1694 121.722 78.1021 119.677 78.0405C118.427 78.0012 117.513 78.4888 116.931 79.2285C116.807 79.2453 116.684 79.2565 116.561 79.2734C108.849 79.9122 101.093 79.9571 93.3711 79.4639C92.8891 76.9645 92.4072 74.4595 91.9197 71.9601C92.0486 70.9345 92.2111 69.9034 92.4184 68.8778C92.4577 68.6761 92.4801 68.48 92.4913 68.2838C93.3487 67.6169 94.038 66.4737 93.9259 65.3921C93.6345 62.5677 91.7572 60.8977 89 60.511C86.5734 60.1692 84.0796 60.0459 81.6026 59.9394C74.0091 56.2071 65.0595 57.0813 56.8439 57.4232C48.2081 57.7818 39.5891 58.4824 30.9981 59.4799C24.3573 59.7657 17.7277 60.1748 11.1037 60.7296C7.17527 61.0546 5.95921 66.7483 10.1342 67.886L10.1566 67.8635Z" fill="#233244"></path><path d="M33.0941 91.9833C41.6627 90.4927 50.321 89.8706 59.0129 90.0163C61.6916 90.0611 62.8404 87.7019 62.4538 85.6564C62.9301 85.6116 63.4064 85.5667 63.8827 85.5331C68.5733 85.1744 68.5621 78.6345 63.8827 78.2478C56.166 77.6146 48.466 78.2142 40.9174 79.9122C38.771 80.3942 38.0593 82.2043 38.3843 83.8799C35.969 84.1825 33.5592 84.5412 31.1551 84.9615C26.543 85.7629 28.4988 92.7847 33.0941 91.989V91.9833Z" fill="#233244"></path><path d="M127.982 106.369C124.014 105.086 119.671 105.489 115.597 105.926C111.192 106.397 106.86 106.969 102.427 106.672C92.553 106.01 82.6338 103.808 72.7371 105.22C70.7701 105.5 68.7862 105.797 66.7968 105.786C65.2837 105.775 63.3839 105.612 62.3808 104.307C61.4337 103.068 61.5402 101.202 61.5121 99.7337C61.4729 97.8339 61.2824 95.979 61.047 94.096C60.8117 92.2131 60.5258 90.1732 60.7332 88.2286C60.8677 86.9845 61.4057 85.264 62.689 84.7653C63.9051 84.2889 65.4855 84.726 66.7296 84.8718C69.1281 85.152 71.5602 85.1632 73.9699 85.2977C84.7017 85.8861 95.4223 86.7771 106.171 86.9789C107.51 87.0013 108.844 87.0181 110.183 87.0181C111.265 87.0181 111.265 85.3369 110.183 85.3369C99.0088 85.3145 87.868 84.4291 76.7215 83.7678C73.9475 83.6053 71.1736 83.4876 68.4052 83.3363C66.7968 83.2466 65.1716 82.8319 63.5576 82.9159C59.7133 83.1177 58.8783 87.3039 59.024 90.4534C59.1193 92.4877 59.4611 94.4995 59.674 96.5226C59.8758 98.4055 59.7469 100.311 59.971 102.194C60.1728 103.892 60.7668 105.45 62.2575 106.414C63.7762 107.4 65.7376 107.512 67.4917 107.462C69.5652 107.4 71.6274 107.064 73.6785 106.778C75.8697 106.47 78.0553 106.397 80.2633 106.436C85.744 106.531 91.1856 107.266 96.6327 107.843C99.3003 108.123 101.985 108.414 104.669 108.482C106.838 108.538 109.006 108.342 111.164 108.112C115.625 107.641 120.209 106.834 124.698 107.378C125.667 107.495 126.62 107.703 127.545 108.005C128.576 108.342 129.019 106.716 127.993 106.386L127.982 106.369Z" fill="black"></path><path d="M129.08 104.8C129.08 101.718 129.288 98.641 129.282 95.5588C129.271 92.7175 129.226 89.6185 128.133 86.9454C127.73 85.959 126.105 86.3905 126.514 87.3937C127.578 90.0052 127.601 92.9921 127.601 95.7717C127.601 98.7811 127.394 101.79 127.399 104.8C127.399 105.881 129.08 105.881 129.08 104.8Z" fill="black"></path><path d="M126.149 84.4515C121.806 85.0847 117.418 85.3257 113.03 85.3481C111.949 85.3537 111.949 87.0349 113.03 87.0293C117.569 87.0069 122.103 86.7323 126.598 86.071C127.051 86.0038 127.292 85.4378 127.186 85.0343C127.057 84.5524 126.597 84.3842 126.149 84.4459V84.4515Z" fill="black"></path><path d="M63.7147 81.9409C58.8616 80.6015 53.5545 81.5374 48.679 82.2827C43.5065 83.0729 38.3284 83.6445 33.0998 83.9191C30.0007 84.0817 26.8456 84.1545 23.7634 83.7174L24.3799 84.53C24.2397 81.4365 24.5872 78.3487 24.7105 75.2609C24.8338 72.173 24.8562 69.1861 23.8475 66.3672L23.259 67.404C26.6215 66.1711 30.2417 65.79 33.8003 65.6387C37.5718 65.4762 41.3545 65.6107 45.1204 65.7844C49.1778 65.9694 53.2183 66.2215 57.2644 66.597C61.7589 67.0173 66.2477 67.488 70.759 67.6954C75.741 67.9251 80.7453 67.8131 85.6601 66.9332C86.7249 66.7427 86.271 65.1231 85.2118 65.3137C76.3686 66.8996 67.3013 65.8685 58.4357 65.0278C54.3055 64.6356 50.1753 64.3442 46.0339 64.148C42.296 63.9687 38.5525 63.8118 34.8146 63.9239C30.7909 64.0416 26.6215 64.3946 22.8164 65.7901C22.4129 65.9358 22.0654 66.3673 22.2279 66.8268C23.2142 69.584 23.147 72.6102 23.0181 75.5018C22.8892 78.3935 22.5585 81.5262 22.693 84.5412C22.7098 84.8718 22.9396 85.2977 23.3095 85.3538C28.7734 86.1271 34.3439 85.5891 39.8134 85.1072C44.9355 84.6589 49.9736 83.5941 55.0957 83.157C57.808 82.9272 60.6156 82.8431 63.2607 83.5773C64.3031 83.8631 64.7514 82.2435 63.7091 81.9577L63.7147 81.9409Z" fill="black"></path><path d="M87.6832 80.4167C87.6888 76.449 87.7 72.4757 87.7056 68.5081C87.7056 67.4265 86.0244 67.4265 86.0244 68.5081C86.0187 72.4757 86.0076 76.449 86.002 80.4167C86.002 81.4982 87.6832 81.4982 87.6832 80.4167Z" fill="black"></path></g></g><defs><clipPath id="clip0_25_32956"><rect width="146" height="146" fill="white"></rect></clipPath></defs></svg> 