<?xml version="1.0" encoding="UTF-8"?> <svg xmlns="http://www.w3.org/2000/svg" width="169" height="131" viewBox="0 0 169 131" fill="none"><path d="M147.142 46.0276C145.214 38.653 141.712 31.5961 136.486 25.9967C131.774 20.9506 125.785 17.3949 119.66 14.3157C116.707 12.2118 113.513 10.4257 110.324 8.68887C109.234 8.09715 107.962 8.17385 106.932 8.68339C96.6869 3.4072 84.688 1.70327 73.1933 1.46768C59.1454 1.18278 43.7935 4.1304 32.8576 13.324C29.0224 16.2223 25.5597 19.7069 22.1354 23.0655C22.2066 21.5259 22.4203 19.9973 22.2943 18.4468C21.9327 13.9103 14.8102 13.8664 15.1718 18.4468C15.2923 19.9809 15.106 21.504 15.0293 23.0272C15.0019 23.1148 14.98 23.2025 14.9581 23.2901C14.3937 26.2323 14.1088 28.9334 14.8923 31.7003C13.6157 33.7329 12.5364 35.8971 11.6762 38.1763C11.5009 38.4393 11.331 38.7023 11.1612 38.9653C10.0544 39.2173 9.0518 39.957 8.56965 41.2993C7.40265 44.5538 6.25753 47.8247 4.84945 50.986C4.6029 51.5394 4.34538 52.0872 4.0824 52.6406C4.19197 52.7666 4.25774 52.942 4.23582 53.1666C4.17007 53.9172 4.00573 54.6295 3.77561 55.3253C3.83588 55.4623 3.86326 55.6266 3.83039 55.8074C3.14552 59.8618 1.98946 63.8121 0.800537 67.7405C1.00874 71.4935 1.73195 75.2685 2.65241 78.7531C5.16723 88.3028 10.1859 97.1512 17.062 104.225C16.5086 107.43 16.7004 110.624 17.6975 113.791C17.7633 114.004 17.8619 114.185 17.966 114.344C18.3605 117.719 18.8645 121.094 19.9603 124.195C20.5301 125.806 22.497 126.031 23.4668 124.655C24.4091 123.313 25.0831 122.316 26.3925 124.02C26.6062 124.299 26.7925 124.633 26.9623 124.984C27.0171 125.033 27.0664 125.083 27.1212 125.137C27.3239 125.088 27.5485 125.105 27.7129 125.214C28.6991 125.872 29.6415 126.595 30.6222 127.269C30.7976 127.126 30.9455 126.946 31.0441 126.721C32.107 124.261 32.2331 121.702 32.496 119.061C32.6823 117.193 32.8686 115.33 33.0494 113.462C33.1426 113.325 33.2247 113.177 33.2905 113.002C33.4713 112.503 34.0684 112.311 34.9012 112.322C38.5721 114.476 42.3854 116.459 46.7631 116.075C46.8014 116.075 46.8398 116.059 46.8837 116.053C47.6343 116.864 48.4068 117.511 49.3272 117.878C49.4258 121.719 49.6833 125.532 50.7353 129.258C51.201 130.912 53.3432 131.06 54.2418 129.718C55.6608 127.597 56.9977 125.154 58.5866 123.039C60.0933 124.436 61.2383 126.009 62.115 127.877C62.7615 129.252 64.712 128.989 65.4242 127.877C67.4021 124.798 69.2101 121.675 69.8512 118.108C73.6371 116.273 78.5736 116.459 82.6225 116.174C87.8823 115.807 93.1584 115.632 98.4292 115.588C102.588 115.555 106.867 115.922 111.053 115.758C112.844 114.963 114.647 114.278 116.679 114.684C116.811 114.711 116.926 114.782 117.014 114.87C117.162 114.826 117.309 114.788 117.457 114.739C117.616 115.599 117.775 116.459 117.934 117.325C117.972 117.544 118.022 117.757 118.066 117.977C117.551 119.061 117.578 120.448 118.159 121.439C119.161 123.154 121.106 123.499 122.81 122.809C122.887 123.072 122.969 123.335 123.046 123.598C123.791 126.069 127.122 127.192 128.996 125.17C130.24 123.828 131.259 122.371 132.124 120.831C133.9 123.066 138.502 122.343 138.557 118.661C138.617 114.607 140.408 110.909 141.477 107.057C142.518 103.315 142.255 99.6003 142.534 95.8199C142.748 95.5952 142.951 95.3377 143.126 95.0254C143.148 94.9871 143.164 94.9542 143.186 94.9159C143.033 94.8446 142.901 94.735 142.819 94.5981C142.584 94.1981 142.759 93.7543 143.11 93.5023C143.34 93.3379 143.553 93.1516 143.756 92.9544C144.726 90.604 145.718 88.259 146.819 85.9633C148.084 81.4597 148.704 76.7752 149.027 72.0579C149.613 63.3738 149.361 54.4816 147.153 46.0221L147.142 46.0276ZM125.051 116.032C125.046 116.108 125.04 116.185 125.04 116.262C124.81 114.958 124.476 113.692 124.29 112.678C124.279 112.618 124.262 112.563 124.246 112.509C124.624 112.415 125.007 112.328 125.391 112.251C125.292 113.511 125.183 114.771 125.057 116.026L125.051 116.032Z" fill="#BA7B8C"></path><path d="M51.0092 63.2642C53.0199 60.859 53.6884 57.6593 51.8639 54.5199C49.9134 51.1613 45.8262 49.1396 42.4128 47.5891C37.027 45.1455 31.4221 44.3182 26.2062 45.8961C24.5789 45.929 22.9956 46.181 21.5163 46.7782C19.6589 47.5234 18.1029 48.8273 16.9962 50.3998C14.191 52.0818 12.2295 54.9637 11.9884 58.5579C11.6323 63.7902 14.9361 68.6116 19.5164 70.9402C28.4854 75.4932 39.7555 74.2001 48.2424 69.2198C50.5928 67.8391 51.2886 65.6202 50.9161 63.5546C50.9544 63.4615 50.9818 63.3629 51.0146 63.2642H51.0092ZM31.444 59.3742C30.6825 59.429 29.9592 59.3742 29.2525 59.2975C29.9812 59.3249 30.7153 59.3468 31.444 59.3742Z" fill="#D34F78"></path><path d="M53.7705 4.60148C38.4515 9.6859 25.3734 19.9095 16.8044 33.6013C13.9882 38.0995 21.0998 42.2251 23.8995 37.7488C31.3015 25.9199 42.6976 16.9235 55.9511 12.5295C60.9479 10.8694 58.8056 2.93042 53.765 4.60696L53.7705 4.60148Z" fill="#D8ABB9"></path><path d="M12.2513 81.5418C9.93922 77.4162 7.26002 72.1236 9.29818 67.346C9.85155 66.0475 9.67625 64.5791 8.36679 63.7902C7.28197 63.1382 5.36436 63.434 4.81099 64.7216C1.9236 71.4771 4.3672 78.1011 7.76412 84.1607C9.39684 87.0755 13.884 84.462 12.2513 81.5363V81.5418Z" fill="#D8ABB9"></path><path opacity="0.45" d="M16.9906 97.4416C29.0442 106.756 69.5771 105.468 107.387 100.356C145.197 95.2446 147.142 46.0276 147.142 46.0276C147.142 46.0276 149.547 58.3497 149.29 69.4061C149.032 80.4625 142.814 94.6036 142.814 94.6036C142.814 94.6036 143 107.068 141.088 113.489C139.176 119.911 136.979 123.954 136.979 123.954C136.979 123.954 134.612 116.229 133.33 118.618C132.048 121.006 125.758 128.381 125.758 128.381C125.758 128.381 125.615 121.669 124.174 122.157C122.733 122.645 120.18 123.017 120.18 123.017C120.18 123.017 118.893 122.294 118.624 123.017C118.356 123.74 117.539 112.892 117.539 112.892L69.8511 118.103L64.5749 129.049C64.5749 129.049 58.5262 122.88 58.581 123.034C58.6358 123.187 52.1432 129.833 50.7352 129.252C49.3216 128.671 49.1244 114.815 49.1244 114.815C49.1244 114.815 39.739 112.92 36.3147 113.122C32.8849 113.33 32.8849 110.591 32.8849 113.33C32.8849 116.07 30.6221 127.263 30.6221 127.263L24.9405 121.932C24.9405 121.932 19.741 126.387 20.0095 125.335C20.278 124.283 17.1166 113.396 16.7824 106.783C16.4482 100.17 15.851 99.4743 13.9608 97.3594C12.0651 95.2446 9.70366 92.0559 10.8871 93.6502C12.0706 95.2446 17.0016 97.4362 17.0016 97.4362L16.9906 97.4416Z" fill="#664650"></path><path d="M100.571 4.66187C100.067 4.38245 99.5522 4.12494 99.0317 3.87839C95.4759 3.60445 91.9146 3.3579 88.3534 3.13327C88.0027 2.70044 87.4712 2.39362 86.759 2.34979C80.3267 1.94983 73.522 0.837598 67.15 2.16349C64.8818 2.63468 65.2488 5.72479 67.1281 6.34938C67.4568 6.91371 68.0595 7.30271 68.9362 7.24245C71.5825 7.0726 74.2233 6.94658 76.8696 6.85892C84.8633 7.24792 92.8515 7.75748 100.829 8.38755C102.237 8.49713 102.938 7.45613 102.933 6.35487C102.193 5.70288 101.399 5.14404 100.566 4.65094L100.571 4.66187Z" fill="#664650"></path><path d="M20.4915 55.2486C20.6997 58.1415 21.4996 60.9631 21.5544 63.8724C21.5763 64.9298 23.22 64.9298 23.1981 63.8724C23.1433 60.9631 22.3434 58.1415 22.1352 55.2486C22.1023 54.8048 21.7791 54.4268 21.3133 54.4268C20.8915 54.4268 20.4586 54.8048 20.4915 55.2486Z" fill="black"></path><path d="M35.5751 56.8978C35.2956 59.7468 35.5641 62.6616 35.5586 65.5216C35.5586 66.579 37.2023 66.579 37.2023 65.5216C37.2023 62.6616 36.9393 59.7523 37.2187 56.8978C37.2626 56.454 36.8078 56.0759 36.3969 56.0759C35.9148 56.0759 35.6189 56.454 35.5751 56.8978Z" fill="black"></path><path d="M13.5443 55.6432C13.5059 53.9009 14.4976 52.3942 15.6372 51.1614C16.8207 49.8794 18.2178 48.7452 19.6752 47.7864C22.8858 45.6715 26.6882 45.0086 30.4741 44.8936C34.2984 44.773 38.1665 45.2826 41.7935 46.5317C45.2069 47.7097 48.5928 49.6438 50.6036 52.7339C52.4828 55.6267 52.9157 59.1606 51.7761 62.4206C50.6529 65.6257 48.1381 67.9761 45.3055 69.7239C42.4127 71.5046 39.1965 72.7538 35.9092 73.5811C32.3534 74.4741 28.6113 74.6988 25.0281 73.8167C18.3767 72.1785 12.8485 65.9545 13.5169 58.8976C13.5881 58.1635 13.7361 57.4402 13.9278 56.728C14.2018 55.7034 12.6129 55.2706 12.3444 56.2897C11.4568 59.6318 11.7253 63.1383 13.2101 66.2722C14.8702 69.7678 18.0644 72.7592 21.5764 74.3536C28.7756 77.619 37.3994 75.7124 44.1713 72.2497C47.3491 70.6225 50.4831 68.3761 52.2911 65.2258C54.1813 61.9275 54.6416 57.8895 53.2499 54.3172C50.1927 46.4715 40.7251 43.6005 33.0382 43.2663C29.0003 43.091 24.6555 43.4635 20.9518 45.1894C19.1766 46.0167 17.5767 47.1947 16.092 48.4603C14.6072 49.7259 13.2375 51.1669 12.4649 52.9421C12.0924 53.8023 11.8842 54.7008 11.9061 55.6377C11.928 56.6951 13.5717 56.6951 13.5497 55.6377L13.5443 55.6432Z" fill="black"></path><path d="M15.1113 30.2866C14.4374 28.873 14.8484 27.0157 14.8319 25.509C14.8046 23.3667 14.7059 21.2025 15.084 19.0822C15.325 17.718 15.6811 16.1455 16.4098 14.9402C16.6235 14.584 16.9248 14.206 17.3796 14.2279C18.0316 14.2553 18.6781 14.847 19.1055 15.2853C20.3766 16.5838 21.0614 18.3645 21.7189 20.0246C22.1079 20.9944 23.6968 20.5725 23.3023 19.5863C22.5846 17.7892 21.8559 15.9647 20.5848 14.4745C19.5328 13.2472 17.6864 11.9542 16.0756 12.9459C14.7881 13.7348 14.3224 15.4607 13.9334 16.8194C13.2376 19.2411 13.1225 21.7285 13.1609 24.2379C13.1773 25.4104 13.1499 26.5774 13.1334 27.7498C13.117 28.9223 13.1882 30.0674 13.6923 31.1194C14.147 32.0727 15.5661 31.2399 15.1113 30.2921V30.2866Z" fill="black"></path><path d="M68.3717 30.7963C69.1387 30.6703 69.7469 29.7279 70.1742 29.1636C70.8317 28.2979 71.4289 27.3884 72.0316 26.4899C72.5411 25.7338 73.1 25.0051 73.6369 24.2654C74.3273 23.3176 75.0559 22.3259 75.9983 21.6136C76.8201 20.9945 77.8228 20.6877 78.7761 21.2082C79.6473 21.6794 80.1568 22.6601 80.4746 23.5587C81.2416 25.7229 81.4279 28.1664 81.4882 30.4511C81.5813 33.859 81.2581 37.3929 79.9979 40.5871C79.6089 41.5733 81.1978 42.0007 81.5813 41.0254C82.7867 37.9737 83.1483 34.5877 83.1428 31.3278C83.1428 28.7801 82.9565 26.0406 82.2059 23.5861C81.5266 21.3616 79.9212 18.9947 77.2804 19.3235C74.6396 19.6522 73.0562 22.2876 71.6481 24.2216C71.0016 25.1092 70.3824 26.0132 69.7633 26.9173C69.3962 27.4542 69.0237 28.0021 68.6127 28.5061C68.4593 28.6979 68.3004 28.8842 68.1251 29.054C68.1415 29.0376 67.9005 29.2622 68.0101 29.1691C67.8457 29.306 67.9827 29.2019 67.9279 29.2129C66.8869 29.3827 67.3307 30.9661 68.3662 30.7963H68.3717Z" fill="black"></path><path d="M100.489 6.67257C101.492 7.5218 102.659 7.96011 103.93 8.24502C105.305 8.55183 106.637 8.85863 107.946 9.39009C109.305 9.94346 110.609 10.6229 111.924 11.2584C113.239 11.894 114.597 12.4364 115.918 13.061C121.304 15.6196 126.158 19.148 131.072 22.4902C135.571 25.5474 139.132 29.7771 141.86 34.4506C144.808 39.4967 147.832 44.9427 148.314 50.8764C148.462 52.6899 148.501 54.5089 148.583 56.3224C148.665 58.1359 148.841 59.8399 148.961 61.6041C149.082 63.3683 149.169 65.1325 149.251 66.8912C149.334 68.6499 149.098 70.5127 149.147 72.3263C149.175 73.3837 150.818 73.3837 150.791 72.3263C150.747 70.7319 150.999 69.143 150.928 67.5487C150.857 65.9543 150.775 64.2887 150.676 62.6615C150.473 59.3961 150.243 56.1361 150.084 52.8652C149.936 49.808 149.471 46.8987 148.419 44.0168C147.367 41.1349 146.024 38.5105 144.567 35.8861C141.838 30.9825 138.644 26.3692 134.245 22.808C132.004 20.989 129.527 19.4384 127.139 17.8221C124.646 16.1346 122.12 14.491 119.479 13.0445C116.559 11.4392 113.469 10.1517 110.461 8.72168C108.976 8.0149 107.447 7.34647 105.837 6.97391C104.407 6.63969 102.812 6.49725 101.651 5.51105C100.851 4.83166 99.6838 5.98771 100.489 6.67257Z" fill="black"></path><path d="M148.298 41.0748C148.315 38.1655 148.841 35.1192 150.61 32.7304C151.476 31.5634 152.615 30.6375 153.974 30.1115C155.256 29.6184 156.878 29.3225 158.155 29.991C159.261 30.5717 160.034 31.662 160.648 32.714C161.261 33.7659 161.826 34.9768 162.187 36.1766C162.642 37.6943 162.653 40.5598 160.319 39.9516C158.127 39.3763 157.579 36.467 157.475 34.5385C157.371 32.6099 157.53 30.643 157.963 28.7582C158.357 27.0269 159.031 24.9449 160.598 23.9149C162.357 22.7588 165.025 23.6026 166.302 25.1257C166.537 25.4106 166.603 25.7065 166.767 26.0243C166.767 26.0352 166.795 26.227 166.789 26.227C166.735 26.2105 167.069 25.8708 167.096 25.9694C167.096 25.9694 166.176 25.575 166.044 25.4764C165.102 24.7531 164.664 23.4875 164.412 22.3753C163.825 19.7892 164.044 16.5293 165.617 14.3158C166.231 13.4502 164.806 12.6283 164.198 13.4885C162.434 15.9705 162.193 19.5646 162.757 22.4739C163.025 23.8546 163.562 25.3175 164.559 26.3475C165.266 27.0762 166.713 28.035 167.759 27.4597C169.206 26.6653 168.082 24.5778 167.272 23.7669C166.137 22.6328 164.554 21.9315 162.971 21.7726C160.45 21.5151 158.478 23.1423 157.421 25.312C156.303 27.6131 155.908 30.2594 155.826 32.7962C155.744 35.3329 155.996 38.4888 157.93 40.4064C158.933 41.4035 160.554 41.9898 161.941 41.546C163.245 41.1296 163.869 39.8859 164.034 38.6038C164.198 37.2998 163.913 36.0342 163.447 34.8234C162.85 33.2783 162.127 31.7661 161.108 30.4567C160.083 29.1472 158.779 28.1994 157.097 28.0131C155.311 27.8159 153.399 28.3911 151.887 29.328C148.753 31.2785 147.274 34.9165 146.824 38.4394C146.715 39.3161 146.665 40.1982 146.66 41.0803C146.654 42.1377 148.298 42.1377 148.304 41.0803L148.298 41.0748Z" fill="black"></path><path d="M64.0817 3.7086C64.4597 3.85653 64.6899 4.38251 64.8816 4.70576C65.1391 5.14955 65.4021 5.56595 65.7144 5.97687C66.4486 6.94116 67.2923 7.85612 67.7799 8.9793C67.9278 9.32447 68.3826 9.42309 68.7059 9.35734C71.0235 8.8752 73.2314 7.88354 75.5928 7.59864C78.1241 7.29182 80.7759 7.38495 83.3181 7.4507C88.4738 7.58219 93.602 8.17393 98.7302 8.6999C101.607 8.99576 104.489 9.41213 107.387 9.45596C108.143 9.46692 108.412 8.56838 107.968 8.05336C107.842 7.91091 107.721 7.79585 107.573 7.67532C106.762 7.01237 105.59 8.16845 106.412 8.83688C106.56 8.95741 106.68 9.07244 106.806 9.21489L107.387 7.81229C104.795 7.77394 102.231 7.41235 99.6562 7.14936C97.0592 6.88638 94.4622 6.60147 91.8597 6.35492C86.6712 5.87277 81.4224 5.56047 76.2174 5.90016C73.467 6.08096 70.9467 7.2206 68.273 7.77397L69.199 8.15201C68.6292 6.8316 67.5772 5.82893 66.7718 4.66192C66.0979 3.6812 65.7089 2.58545 64.52 2.12522C63.5338 1.74717 63.1064 3.33603 64.0817 3.7086Z" fill="black"></path><path d="M65.1502 3.76883C65.2433 3.65926 65.3529 3.56061 65.4679 3.47295L65.3036 3.59896C65.605 3.37432 65.9501 3.21545 66.2953 3.073L66.098 3.15517C66.3555 3.04559 66.6185 2.9415 66.8761 2.82644C67.0514 2.74426 67.2048 2.51413 67.2541 2.33333C67.3089 2.13609 67.2815 1.87312 67.1719 1.69779C67.0623 1.52247 66.8924 1.36906 66.6788 1.31975L66.4597 1.29236C66.3117 1.29236 66.1747 1.33072 66.0433 1.40194C65.9501 1.44577 65.8625 1.48411 65.7693 1.52246L65.9665 1.4403C65.2652 1.73616 64.5037 2.01007 63.9887 2.60728C63.8462 2.77164 63.7476 2.9634 63.7476 3.18804C63.7476 3.39076 63.8353 3.63186 63.9887 3.76883C64.1421 3.90581 64.3502 4.02083 64.5694 4.00987C64.7886 3.99892 65.0077 3.9332 65.1502 3.76883Z" fill="black"></path><path d="M108.642 40.6693C107.836 38.0887 108.209 35.2835 107.968 32.6263C107.929 32.1825 107.617 31.8044 107.146 31.8044C106.73 31.8044 106.286 32.1825 106.324 32.6263C106.576 35.437 106.209 38.3791 107.053 41.1076C107.365 42.1157 108.954 41.6829 108.636 40.6693H108.642Z" fill="black"></path><path d="M113.589 41.513C110.653 41.3706 107.803 40.2419 104.872 41.1843C103.744 41.5459 102.785 42.2088 101.908 42.9923C100.916 43.8744 100.001 44.8497 99.4919 46.0879C98.5824 48.274 99.355 50.6025 101.037 52.175C102.998 54.0049 105.574 54.5912 108.154 54.9144C110.735 55.2377 113.381 55.276 115.847 56.1636C118.224 57.0128 120.564 58.9524 121.15 61.5001C122.147 65.8394 117.43 69.839 113.523 70.2006C111.595 70.3759 109.557 70.1567 107.721 69.5376C106.291 69.0555 104.68 68.1241 105.174 66.4201C105.469 65.401 103.881 64.9682 103.59 65.9818C102.385 70.1622 107.793 71.5429 110.833 71.8223C112.647 71.9867 114.449 71.8881 116.159 71.2142C118.498 70.2992 120.619 68.6555 121.862 66.4475C123.046 64.3491 123.259 61.8946 122.251 59.6811C121.095 57.1443 118.597 55.3363 116.005 54.4816C113.414 53.6214 110.647 53.6105 107.962 53.2488C105.524 52.9201 102.741 52.2243 101.333 49.9998C99.6946 47.4138 101.87 44.8168 104.034 43.3978C106.954 41.4801 110.433 42.9978 113.595 43.1512C114.652 43.206 114.647 41.5568 113.595 41.5075L113.589 41.513Z" fill="black"></path><path d="M110.767 70.929C111.25 73.274 111.261 75.6902 111.261 78.0736C111.261 79.131 112.904 79.131 112.904 78.0736C112.904 75.5368 112.866 72.9836 112.351 70.4907C112.263 70.0579 111.748 69.8059 111.337 69.9155C110.888 70.0415 110.674 70.4907 110.762 70.929H110.767Z" fill="black"></path><path d="M13.9168 47.2767C15.6658 47.2767 17.0836 45.8589 17.0836 44.1099C17.0836 42.3609 15.6658 40.9431 13.9168 40.9431C12.1678 40.9431 10.75 42.3609 10.75 44.1099C10.75 45.8589 12.1678 47.2767 13.9168 47.2767Z" fill="black"></path><path d="M58.2359 48.8602C59.9849 48.8602 61.4027 47.4424 61.4027 45.6934C61.4027 43.9444 59.9849 42.5266 58.2359 42.5266C56.4869 42.5266 55.0691 43.9444 55.0691 45.6934C55.0691 47.4424 56.4869 48.8602 58.2359 48.8602Z" fill="black"></path><path d="M101.453 5.06736C88.5342 0.497958 74.4644 -0.690979 60.8877 0.90886C58.1263 1.23759 55.4143 1.77453 52.6748 2.24571C50.6202 2.59636 48.5711 2.90319 46.5878 3.55518C44.7688 4.15238 43.0155 4.93586 41.2951 5.77413C39.5747 6.6124 37.7174 7.52736 36.0189 8.53C34.43 9.46689 32.9562 10.5791 31.5317 11.7461C28.5567 14.1733 25.8227 16.7703 23.3189 19.6851C20.815 22.5998 18.2837 25.3995 16.01 28.4623C13.7691 31.4757 11.7474 34.6479 9.91742 37.9243C8.06555 41.2445 6.31776 44.636 5.17815 48.274C4.87133 49.2492 4.60288 50.2354 4.36729 51.2271C4.14813 52.1476 4.06049 53.0899 3.84682 54.0049C3.64958 54.8487 3.25509 55.5829 2.88801 56.3609C2.47709 57.221 2.15383 58.0922 1.92372 59.0181C0.970387 62.8917 0.756691 66.8639 0.877227 70.8416C0.997763 74.8193 1.41969 78.6326 2.50451 82.3692C3.5455 85.9634 5.25486 89.3384 7.30397 92.4559C15.2758 104.614 27.8335 114.245 42.3526 116.716C44.1496 117.023 45.9631 117.237 47.7766 117.396C48.8286 117.489 48.8231 115.845 47.7766 115.752C44.1934 115.44 40.6322 114.865 37.1804 113.835C33.7342 112.805 30.5127 111.298 27.4226 109.468C24.3325 107.638 21.2204 105.583 18.5303 103.107C15.8402 100.63 13.4897 97.9841 11.2926 95.1898C9.13942 92.4559 7.24373 89.5082 5.75895 86.3579C4.12076 82.8897 3.2277 79.1202 2.82226 75.3178C2.41683 71.5155 2.31816 67.7515 2.71265 64.0204C2.91537 62.1027 3.20579 60.0865 3.8523 58.262C4.1372 57.4566 4.55356 56.7115 4.90969 55.939C5.29869 55.0733 5.49599 54.2131 5.6494 53.2817C6.26851 49.5013 7.62729 45.8961 9.35314 42.4883C11.0023 39.2338 12.8158 36.056 14.8266 33.0152C16.8702 29.9196 19.122 26.9665 21.5765 24.1942C24.0147 21.4438 26.2884 18.5016 29.0443 16.0471C31.8002 13.5925 34.6164 11.0996 37.8982 9.37377C41.2239 7.62052 44.577 5.77413 48.2259 4.77697C50.3518 4.1962 52.5543 3.95514 54.7129 3.52231C55.984 3.27028 57.2661 3.05111 58.5482 2.85935C70.7442 1.05679 83.4717 1.63755 95.3773 4.88107C97.2785 5.40156 99.1633 5.99327 101.021 6.65074C102.018 7.00139 102.451 5.41801 101.459 5.06736H101.453Z" fill="black"></path><path d="M14.9194 101.967C14.9084 104.909 14.7605 107.863 15.2098 110.783C15.6372 113.561 16.5905 116.185 17.3521 118.875C17.9109 120.848 18.0807 122.973 19.0834 124.798C19.9435 126.365 21.5269 127.192 23.061 125.959C24.4691 124.831 25.1595 123.056 26.1019 121.565C25.669 121.62 25.2417 121.675 24.8088 121.73C26.0361 123.088 26.3868 124.995 27.8825 126.162C28.5509 126.683 29.4166 127.11 30.2823 126.874C31.0603 126.661 31.5589 125.987 31.8712 125.285C32.7697 123.236 32.5889 120.864 32.7587 118.683C32.819 117.922 32.9231 117.16 33.0491 116.404C33.1094 116.037 33.1751 115.664 33.2573 115.303C33.2956 115.128 33.3559 114.958 33.3942 114.782C33.4107 114.7 33.5203 114.585 33.4052 114.7C34.1449 113.944 32.9833 112.777 32.2437 113.539C31.8711 113.922 31.7506 114.503 31.641 115.013C31.4986 115.67 31.4 116.338 31.3068 117.007C31.0274 118.99 31.137 121.017 30.8082 122.99C30.6986 123.642 30.5781 124.524 30.1398 125.055C29.6796 125.609 28.9892 125.006 28.6002 124.617C27.4551 123.472 27.0662 121.773 25.9704 120.568C25.6033 120.163 24.9513 120.305 24.6774 120.733C23.9541 121.872 23.4172 123.154 22.5241 124.184C22.2666 124.486 21.79 125.017 21.4065 124.951C20.8312 124.847 20.4367 123.91 20.2395 123.445C19.5162 121.724 19.3463 119.823 18.8094 118.042C18.0917 115.664 17.2918 113.298 16.8644 110.838C16.3549 107.912 16.5411 104.915 16.5521 101.962C16.5521 100.904 14.9139 100.904 14.9084 101.962L14.9194 101.967Z" fill="black"></path><path d="M48.7463 108.958C48.1546 112.35 48.2916 115.779 48.4286 119.204C48.4998 120.924 48.2642 122.644 48.4286 124.359C48.5272 125.433 48.697 126.513 48.9491 127.559C49.3162 129.071 50.138 131.329 52.1323 130.813C53.6116 130.435 54.6416 128.786 55.458 127.625C56.4004 126.282 57.2332 124.754 58.4495 123.631C58.6522 123.444 58.7508 123.346 59.0248 123.225C58.8275 123.313 59.348 123.138 59.085 123.198C59.1891 123.176 59.2659 123.253 59.1344 123.181C59.2221 123.231 59.2275 123.264 59.1563 123.181C59.2878 123.335 59.1563 123.138 59.3152 123.302C59.4138 123.401 59.5069 123.505 59.5891 123.614C59.7097 123.768 59.9343 124.14 60.0767 124.381C60.8876 125.756 61.5012 127.329 62.5915 128.518C63.0408 129.005 63.6435 129.411 64.3339 129.373C65.1338 129.334 65.72 128.715 66.1309 128.085C66.9582 126.808 67.5335 125.291 68.0485 123.866C68.6293 122.261 69.0841 120.606 69.4019 118.93C70.021 115.659 70.1579 112.273 69.4566 109.002C69.232 107.966 67.6486 108.405 67.8732 109.44C69.0293 114.804 67.8403 120.793 65.5227 125.702C65.2762 126.222 65.0351 126.776 64.7119 127.252C64.5639 127.471 64.3557 127.685 64.2845 127.723C64.2297 127.751 64.2298 127.723 64.2024 127.734C64.2736 127.712 64.1914 127.723 64.1585 127.707C64.0215 127.641 63.8353 127.46 63.66 127.247C62.7395 126.151 62.1806 124.694 61.441 123.45C60.8219 122.42 59.9617 121.236 58.5974 121.642C57.2332 122.047 56.3237 123.51 55.5676 124.584C54.6472 125.888 53.8308 127.307 52.7295 128.469C52.5432 128.66 52.3132 128.885 52.1543 128.995C52.0392 129.071 51.9187 129.153 51.7926 129.208C51.968 129.131 51.4694 129.285 51.705 129.236C51.5461 129.268 51.4968 129.252 51.3598 129.137C51.2502 129.044 51.0201 128.649 50.916 128.386C49.8805 125.784 50.0668 122.984 50.0942 120.256C50.138 116.618 49.7052 113.018 50.3352 109.396C50.516 108.361 48.9326 107.917 48.7518 108.958H48.7463Z" fill="black"></path><path d="M68.9197 118.25C70.8921 118.256 72.8644 118.338 74.8368 118.442C76.7928 118.546 78.7652 118.727 80.7267 118.694C82.6607 118.661 84.5893 118.426 86.5234 118.377C88.4574 118.327 90.2435 118.563 92.1118 118.453C95.9197 118.24 99.5851 117.149 103.377 116.848C107.086 116.552 110.718 115.643 114.406 115.111C117.912 114.607 121.599 114.284 124.722 112.454C125.632 111.917 124.81 110.498 123.895 111.035C121.172 112.635 117.912 112.985 114.838 113.407C113.162 113.637 111.502 113.928 109.831 114.213C107.946 114.536 106.078 114.98 104.176 115.144C102.335 115.303 100.549 115.533 98.7303 115.884C96.8401 116.251 94.9445 116.59 93.0214 116.755C91.0983 116.919 89.4107 116.755 87.5808 116.733C85.7508 116.711 83.8113 116.914 81.9266 117.012C79.7843 117.122 77.653 116.957 75.5162 116.842C73.3794 116.727 71.1277 116.623 68.9252 116.612C67.8677 116.612 67.8677 118.251 68.9252 118.256L68.9197 118.25Z" fill="black"></path><path d="M123.38 106.444C124.284 108.756 123.796 111.506 123.917 113.933C123.999 115.539 124.169 117.138 124.152 118.749C124.136 120.36 124.043 121.894 124.092 123.472C124.131 124.71 124.218 125.948 124.257 127.187C124.284 128.085 124.613 129.192 125.709 129.203C126.53 129.208 127.193 128.447 127.675 127.877C128.19 127.269 128.76 126.425 129.182 125.899C130.163 124.666 131.198 123.488 132.102 122.195C133.056 120.842 133.636 119.281 134.557 117.911L133.056 117.714C133.658 119.944 133.752 122.294 135.406 124.069C135.664 124.349 136.086 124.36 136.403 124.195C137.636 123.565 138.425 122.239 139.039 121.05C139.702 119.768 140.211 118.409 140.726 117.062C142.238 113.1 143.252 108.931 143.449 104.685C143.553 102.444 143.482 100.198 143.575 97.9567C143.652 96.1049 143.416 94.0777 144.008 92.2915C144.26 91.53 144.726 90.8177 145.093 90.1055C145.444 89.4315 145.789 88.7522 146.117 88.0728C146.764 86.7414 147.372 85.3881 147.904 84.0074C149.344 80.2544 150.117 76.3205 150.594 72.3429C150.72 71.2964 149.076 71.3019 148.95 72.3429C148.534 75.8494 147.843 79.3285 146.654 82.6596C145.696 85.3443 144.408 87.8865 143.082 90.4068C142.211 92.0614 142.003 93.7161 141.981 95.5679C141.959 97.6444 141.882 99.7155 141.866 101.792C141.849 103.868 141.795 106.022 141.46 108.115C141.126 110.208 140.65 112.18 140.019 114.152C139.477 115.834 138.858 117.522 138.135 119.138C137.576 120.398 136.874 122.113 135.576 122.776L136.573 122.902C135.171 121.395 135.16 119.16 134.65 117.27C134.458 116.552 133.532 116.503 133.149 117.073C132.431 118.141 131.949 119.341 131.292 120.448C130.634 121.554 129.779 122.617 128.947 123.625C127.895 124.902 126.947 126.277 125.791 127.466C125.615 127.647 125.577 127.504 125.813 127.565C126.114 127.641 125.906 127.74 125.922 127.477C125.944 127.083 125.922 126.655 125.906 126.261C125.862 124.94 125.725 123.625 125.714 122.299C125.703 120.848 125.824 119.396 125.791 117.944C125.758 116.492 125.61 115.095 125.55 113.665C125.446 111.172 125.895 108.389 124.963 106.005C124.585 105.03 122.991 105.457 123.38 106.444Z" fill="black"></path><path d="M116.734 113.489C116.575 115.593 117.485 117.555 117.655 119.62C117.824 121.686 117.589 123.658 118.274 125.559C118.411 125.937 118.849 126.315 119.287 126.135C120.328 125.702 120.909 124.847 121.38 123.855C121.764 123.056 122.081 121.943 122.914 121.494L121.791 121.198C122.372 122.064 122.29 123.203 123.155 123.91C123.517 124.206 123.955 124.223 124.317 123.91C125.254 123.099 125.703 121.987 126.152 120.858C126.547 119.878 124.952 119.45 124.569 120.42C124.224 121.291 123.884 122.119 123.161 122.743H124.322C123.654 122.195 123.687 121.072 123.21 120.365C122.958 119.987 122.498 119.85 122.087 120.07C121.177 120.557 120.679 121.483 120.257 122.382C119.95 123.045 119.6 124.228 118.849 124.54C119.189 124.732 119.523 124.924 119.863 125.116C119.211 123.297 119.468 121.324 119.287 119.434C119.095 117.44 118.23 115.506 118.383 113.484C118.465 112.426 116.822 112.432 116.74 113.484L116.734 113.489Z" fill="black"></path></svg> 