<?xml version="1.0" encoding="UTF-8"?> <svg xmlns="http://www.w3.org/2000/svg" width="891" height="415" viewBox="0 0 891 415" fill="none"><path d="M5.99737 3.7631L1.38392 172.268L1 274.027C1 274.027 1.40312 373.677 2.10057 383.867C2.79803 394.058 2.63806 406.976 2.63806 406.976L6.06136 407.822L14.4692 412.807L235.896 407.822L456.215 406.029L784.922 403.019L887.07 400.46L887.121 277.44C887.121 277.44 889.668 140.722 889.982 133.373C890.295 126.024 886.52 30.1836 886.52 30.1836C886.52 30.1836 888.529 11.3473 880.134 5.20068C871.739 -0.945962 863.401 1.2104 859.255 1.81499C855.102 2.41958 839.003 5.62389 839.003 5.62389L545.208 4.11242H141.822L7.8018 3.29958L6.00377 3.7631H5.99737Z" fill="#AAAAAA"></path><path d="M53.1069 19.8108C56.9983 11.6996 59.8739 8.33808 58.7567 8.31767C57.6331 8.29725 41.5027 8.31767 41.5027 8.31767C34.6786 26.6087 20.5986 30.603 13 32.3518C13.5396 35.9991 13.7237 39.7009 13.6411 43.423C27.6386 32.0388 42.9754 27.8199 53.1069 40.0275C64.6159 53.8954 49.2156 27.922 53.1069 19.8176V19.8108Z" fill="#918B80"></path><path d="M28.8447 16.9696C28.8447 16.9696 28.8388 16.9422 28.8328 16.9354C28.7014 16.5798 28.57 16.2241 28.4387 15.8754C28.4387 15.8685 28.4387 15.8617 28.4327 15.8549C28.2714 15.5061 28.0445 15.1915 27.7997 14.9111C27.5548 14.6307 27.2801 14.3845 26.9815 14.1862C26.4202 13.8101 25.6438 13.5365 24.9869 13.5639C24.975 13.5639 24.969 13.5639 24.9571 13.5639L23.924 13.7212C23.924 13.7212 23.912 13.7212 23.906 13.7212C23.7448 13.7691 23.3566 13.9879 23.4223 13.9537C23.3805 13.9742 23.07 14.0973 22.9207 14.1999C22.4668 14.4803 22.1025 14.8632 21.8338 15.342C21.4934 15.7728 21.2605 16.272 21.1411 16.8533C21.0157 17.3047 20.9739 17.7629 21.0157 18.2142C20.9858 18.7134 21.0157 19.2127 21.1351 19.7187C21.2665 20.0744 21.3979 20.43 21.5293 20.7787C21.8756 21.4489 22.3414 21.9755 22.9207 22.3722C23.4701 22.7688 24.336 23.0492 24.9869 23.015C25.3333 22.9603 25.6737 22.9124 26.0201 22.8577C26.0201 22.8577 26.032 22.8577 26.038 22.8577C26.3664 22.7688 26.6949 22.6115 26.9756 22.4063C27.1308 22.2969 27.083 22.3174 27.3876 22.0439C27.2264 22.1875 27.6802 21.8114 27.7937 21.6814C27.7937 21.6814 27.7997 21.6678 27.8056 21.6678C28.0087 21.3669 28.2117 21.066 28.4148 20.7651C28.4148 20.7582 28.4267 20.7445 28.4327 20.7377C28.6238 20.3958 28.7492 20.006 28.8447 19.6162C28.9522 19.1922 29 18.734 29 18.2894C29 17.8449 28.9403 17.3936 28.8447 16.9627V16.9696Z" fill="#918B80"></path><path d="M25.1405 386.294C23.4364 383.364 19.7751 382.495 17.0769 384.404C14.3663 386.321 13.0821 390.226 14.7368 393.395C16.2125 396.226 19.2564 397.625 22.1769 396.823C23.8378 396.366 25.0912 394.582 25.1405 392.752C26.3384 390.929 26.2334 388.171 25.1405 386.294Z" fill="#918B80"></path><path d="M49.9841 395.327C32.1602 382.472 30.2635 357.01 24.9371 337.105C23.6965 332.466 17.5776 333.472 16.7202 337.267C14.5117 333.648 7.99012 336.025 9.13335 340.987C14.5572 364.653 22.131 392.336 45.7165 402.903C50.6466 405.111 54.531 398.609 49.9776 395.321L49.9841 395.327Z" fill="#918B80"></path><path d="M22.9996 62.3236C23.058 57.5451 15.9205 57.5451 15.8621 62.3236C15.2068 116.311 14.9213 170.306 15.0186 224.307C15.0251 229.086 22.1626 229.092 22.1561 224.307C22.0588 170.313 22.3443 116.318 22.9996 62.3236Z" fill="#918B80"></path><path d="M22.9731 298.934C21.5454 285.597 20.5347 272.218 19.9535 258.806C19.745 254.025 12.7961 253.998 13.0046 258.806C13.5858 272.218 14.5965 285.597 16.0242 298.934C16.5296 303.647 23.4848 303.701 22.9731 298.934Z" fill="#918B80"></path><path d="M106.526 10.4926C97.207 12.3693 87.8875 14.2395 78.5746 16.1161C74.0678 17.0223 75.9733 23.8411 80.4736 22.9349C89.793 21.0583 99.1125 19.1881 108.425 17.3115C112.932 16.4053 111.027 9.58645 106.526 10.4926Z" fill="#918B80"></path><path d="M878.12 33.0449C877.769 33.4693 877.425 33.9003 877.08 34.3314C876.806 33.2672 876.046 32.3714 874.668 32.0683C865.6 30.0746 857.451 24.9961 851.675 17.3918C852.358 14.8324 850.571 11.6129 847.559 12.7444C837.942 16.3681 828.242 19.7088 818.459 22.7802C814.809 23.9252 815.307 30.3912 819.391 30.0544C825.224 29.5762 831.082 29.2462 836.934 29.226C841.178 29.2125 845.638 29.3674 849.633 31.058C854.266 33.0247 856.519 37.1737 858.114 41.9491C860.086 47.8763 861.229 54.0055 861.573 60.2694C861.758 63.6641 866.468 65.6645 868.114 62.1419C872.141 53.5273 877.112 45.5256 883.092 38.2783C886.046 34.6951 881.101 29.4347 878.127 33.0382L878.12 33.0449ZM869.008 38.9586C869.135 38.8172 868.937 38.4669 868.644 38.0628C868.995 38.1773 869.346 38.2851 869.697 38.3928C869.454 38.5478 869.225 38.7229 869.008 38.9586Z" fill="#918B80"></path><path d="M873.872 15.0835C873.465 13.9043 872.531 12.8847 871.503 12.628C869.497 12.1217 867.999 13.3078 867.259 15.2916C866.538 17.2268 866.199 19.2106 866.011 21.2915C865.836 23.2059 867.735 25.3006 869.459 25.1064C872.5 24.7665 874.888 22.8452 875.847 19.5782C876.405 17.6846 875.364 15.8257 873.872 15.0835Z" fill="#918B80"></path><path d="M795.623 22.0543C787.586 23.8024 779.556 25.5505 771.519 27.2986C767.109 28.2607 768.974 35.4429 773.377 34.4875C781.414 32.7394 789.444 30.9913 797.481 29.2432C801.891 28.2811 800.026 21.099 795.623 22.0543Z" fill="#918B80"></path><path d="M863.109 78.1815C856.914 86.6867 851.648 95.8267 847.366 105.54C845.446 109.895 851.609 113.718 853.549 109.328C857.838 99.6151 863.096 90.4751 869.292 81.9699C872.091 78.1337 865.875 74.3863 863.109 78.1815Z" fill="#918B80"></path><path d="M861.991 372.999C861.751 372.861 861.512 372.743 861.272 372.631C860.619 371.798 859.797 371.095 858.814 370.59C855.986 369.139 852.058 369.448 850 372.106C848.816 373.642 848.525 375.716 850 377.212C850.317 377.534 850.731 377.79 851.184 377.974C850.939 378.971 850.874 380.041 851.042 381.144C851.56 384.484 854.504 387.484 857.992 386.263C858.063 386.237 858.128 386.204 858.192 386.178C858.587 386.315 859.008 386.401 859.454 386.427C862.78 386.644 865.595 383.933 865.957 380.632C866.294 377.553 864.611 374.534 861.991 372.992V372.999Z" fill="#918B80"></path><path d="M859.925 295.516C859.912 295.664 859.899 295.804 859.886 295.952C858.09 296.059 856.319 297.355 856.448 299.556C856.916 307.541 857.128 315.541 857.096 323.533C856.339 319.339 849.936 319.413 850.103 324.03C850.167 325.734 850.199 327.439 850.219 329.143C850.174 330.888 850.026 332.633 849.763 334.378C849.615 335.331 849.795 336.169 850.161 336.867C850.071 340.209 849.898 343.551 849.648 346.893C849.532 346.98 849.417 347.081 849.307 347.188C847.537 348.906 845.76 350.618 843.976 352.322C843.842 352.168 843.713 352.013 843.585 351.859C839.659 341.894 834.822 332.371 829.029 323.432C826.854 320.077 821.478 322.07 822.581 326.278C825.449 337.223 830.568 347.249 837.574 355.859C837.702 356.194 837.818 356.53 837.946 356.865C837.824 357.301 837.773 357.758 837.792 358.214C834.193 361.616 830.575 364.999 826.937 368.354C825.571 369.448 824.217 370.542 822.844 371.622C822.408 371.964 822.081 372.36 821.844 372.783C816.711 371.595 811.701 369.965 806.89 367.737C802.771 365.838 799.178 372.193 803.329 374.112C807.326 375.957 811.387 377.514 815.563 378.742C814.748 379.48 813.94 380.219 813.125 380.95C812.811 381.232 812.58 381.574 812.42 381.937C810.033 382.259 807.64 382.574 805.254 382.883C792.968 383.252 780.689 383.628 768.404 383.997C763.875 384.131 763.856 391.519 768.404 391.379C769.078 391.358 769.751 391.338 770.425 391.318C770.701 392.835 771.798 394.07 773.729 393.875C784.263 392.821 794.777 391.613 805.273 390.265L823.268 389.721C824.686 389.681 825.924 388.641 826.501 387.339C828.471 387.05 830.44 386.755 832.41 386.46C833.519 386.292 834.668 385.003 834.873 383.883C837.221 371.273 847.036 361.724 859.168 359.979C860.085 359.845 860.733 359.442 861.144 358.885C861.182 358.885 861.214 358.885 861.253 358.885C866.398 358.758 866.667 353.476 866.385 349.356C865.974 343.457 865.724 337.538 865.628 331.626C865.436 319.567 865.904 307.521 866.982 295.516C867.405 290.792 860.348 290.818 859.925 295.516ZM828.573 379.635C827.836 379.749 827.104 379.85 826.366 379.957C827.361 378.977 828.362 377.997 829.362 377.024C829.067 377.883 828.798 378.749 828.573 379.628V379.635ZM857.288 352.859C856.955 352.906 856.627 352.96 856.294 353.02C857.699 351.624 857.506 349.913 856.55 348.692C856.627 347.806 856.698 346.927 856.762 346.041C856.903 346.343 857.089 346.611 857.307 346.839C857.34 348.839 857.416 350.839 857.545 352.832C857.461 352.839 857.378 352.846 857.288 352.859Z" fill="#918B80"></path><path d="M271.605 387.361C233.533 387.086 195.467 386.817 157.396 386.541C152.871 386.506 152.865 394.091 157.396 394.125C195.467 394.401 233.533 394.67 271.605 394.946C276.129 394.98 276.135 387.396 271.605 387.361Z" fill="#918B80"></path><path d="M383.62 390.897C373.842 390.515 364.083 390.844 354.349 391.89C349.909 392.364 349.858 399.606 354.349 399.126C364.083 398.086 373.842 397.758 383.62 398.132C388.13 398.31 388.124 391.075 383.62 390.897Z" fill="#918B80"></path><path d="M681.605 389.288C647.872 390.181 614.119 389.964 580.393 388.645C575.866 388.468 575.872 395.686 580.393 395.863C614.113 397.189 647.865 397.399 681.605 396.506C686.125 396.388 686.138 389.17 681.605 389.288Z" fill="#918B80"></path><path d="M759.618 16.1057C750.195 15.0591 740.637 15.0808 731.169 14.7055L702.411 13.565C697.86 13.3846 697.866 21.3242 702.411 21.5047L731.169 22.6451C740.63 23.0204 750.189 22.9988 759.618 24.0454C764.143 24.5506 764.111 16.6038 759.618 16.1057Z" fill="#918B80"></path><path d="M394.597 16.5883C350.703 17.4398 306.797 17.2506 262.91 15.9697C250.403 15.6059 237.895 15.1547 225.395 14.6161C220.865 14.4196 220.872 22.425 225.395 22.6215C269.263 24.4991 313.169 25.3288 357.069 25.0741C369.582 25.0013 382.096 24.8412 394.603 24.5937C399.126 24.5064 399.139 16.501 394.603 16.5883H394.597Z" fill="#918B80"></path><path d="M556.609 25.6286C536.568 24.3422 516.489 23.8513 496.403 24.1558C491.872 24.2241 491.859 31.06 496.403 30.9916C516.489 30.6871 536.568 31.178 556.609 32.4644C561.14 32.7565 561.121 25.9207 556.609 25.6286Z" fill="#918B80"></path><path d="M8.71474 18.759C8.13879 13.575 7.15966 8.45165 6.98047 3.2274C6.93568 1.92302 5.13101 1.93647 5.06062 3.2274C2.27683 55.954 1.03533 108.755 0.48497 161.548C-0.0653883 214.181 0.0626012 266.813 0.0242041 319.446C0.0114051 334.049 -0.110186 348.646 0.34418 363.243C0.804945 377.914 1.55369 392.578 1.63688 407.256C1.64328 408.554 3.56313 408.554 3.55674 407.256C3.47994 394.152 2.87839 381.061 2.42402 367.963C1.96966 354.987 1.92486 342.024 1.93766 329.04C1.96966 302.61 1.93766 276.172 1.96966 249.742C2.02725 197.11 2.28963 144.47 3.60793 91.8513C4.35028 62.2943 5.42539 32.7441 6.98687 3.22068H5.06702C5.24621 8.44493 6.22533 13.5683 6.80129 18.7522C6.94208 20.023 8.86193 20.0432 8.72114 18.7522L8.71474 18.759Z" fill="black"></path><path d="M6.02054 4.92843C16.1446 3.87283 26.307 4.33675 36.4502 4.70655C46.8238 5.08308 57.191 5.04274 67.571 5.05618C89.3614 5.07635 111.152 5.06291 132.936 5.05618C176.356 5.04946 219.771 5.05618 263.191 5.05618C350.5 5.05618 437.808 5.05619 525.117 5.04946C612.681 5.04946 700.246 5.04274 787.811 5.04946C798.683 5.04946 809.563 5.04946 820.435 5.05618C830.054 5.05618 840.069 5.9437 849.617 4.53846C859.728 3.05254 870.531 -0.921113 879.714 5.99749C883.208 8.62642 884.11 11.6991 884.475 16.009C884.885 20.7626 885.301 25.5229 885.634 30.2899C887.221 53.0157 887.201 75.8626 888.245 98.622C889.288 121.381 889.236 144.417 888.744 167.31C887.829 209.777 885.838 252.176 885.64 294.662C885.499 324.455 884.91 354.261 885.474 384.053C885.576 389.553 885.723 395.046 886.037 400.539C886.113 401.83 888.033 401.837 887.957 400.539C886.273 371.265 887.195 341.741 887.432 312.433C887.745 273.49 888.603 234.627 889.87 195.704C890.612 172.817 891.195 149.91 890.939 127.002C890.683 103.853 889.307 80.7305 888.712 57.5878C888.411 46.0501 887.995 34.5191 886.965 23.0284C886.44 17.1856 887.035 10.2535 882.619 5.88319C877.013 0.336204 869.206 -0.631989 861.898 0.322764C857.207 0.934613 852.618 2.20537 847.921 2.75671C842.546 3.38873 837.036 3.07945 831.634 3.066C742.924 2.79706 654.208 3.02566 565.498 3.03238C477.057 3.03238 388.622 3.0391 300.181 3.0391C255.544 3.0391 210.907 3.0391 166.271 3.0391C144.404 3.0391 122.543 3.0391 100.676 3.0391C79.2758 3.0391 57.8246 3.46269 36.4374 2.68275C26.2942 2.31295 16.1254 1.84902 6.00774 2.90463C4.79183 3.03238 4.77903 5.04946 6.00774 4.92171L6.02054 4.92843Z" fill="black"></path><path d="M884.674 390.017C885.474 392.753 885.506 395.584 886.21 398.28C886.229 398.361 886.561 400.183 886.766 399.8C886.657 400.001 886.805 399.658 886.555 399.827C886.274 400.022 885.461 399.921 885.134 399.948C883.458 400.062 881.781 400.122 880.104 400.19C874.121 400.418 868.131 400.546 862.141 400.68C840.677 401.144 819.207 401.433 797.736 401.716C766.334 402.133 734.938 402.482 703.535 402.819C665.375 403.229 627.221 403.612 589.061 403.988C547.317 404.405 505.579 404.809 463.835 405.232C421.829 405.656 379.822 406.08 337.816 406.537C298.414 406.967 259.012 407.411 219.617 407.915C186.148 408.339 152.672 408.803 119.202 409.361C94.897 409.771 70.5917 410.201 46.2927 410.873C34.2104 411.203 21.9042 411.068 9.87948 412.46C9.09234 412.554 8.17081 412.554 7.42847 412.884C6.30216 413.375 6.80132 415.331 7.94043 414.827C9.93708 413.953 13.156 414.181 15.5303 414.04C21.7186 413.67 27.9197 413.455 34.1208 413.254C55.8344 412.534 77.5607 412.124 99.2871 411.727C130.785 411.149 162.284 410.692 193.789 410.268C231.923 409.757 270.058 409.307 308.199 408.877C349.681 408.413 391.169 407.982 432.65 407.559C474.785 407.128 516.919 406.718 559.054 406.301C598.123 405.918 637.198 405.528 676.267 405.118C709.564 404.768 742.867 404.412 776.164 404.002C800.405 403.706 824.646 403.39 848.881 402.953C860.88 402.738 872.969 402.812 884.949 401.971C885.762 401.918 886.619 401.911 887.413 401.709C887.829 401.608 888.104 401.171 888.117 400.734C888.238 396.801 887.637 393.231 886.536 389.472C886.171 388.235 884.322 388.766 884.686 390.01L884.674 390.017Z" fill="black"></path><path d="M24.0032 19.5725C24.1568 20.85 23.9712 22.1275 24.1632 23.4049C24.2272 23.8353 24.7007 24.1445 25.0911 24.1445C26.3582 24.158 27.6125 23.7949 28.5724 22.9007C29.3724 22.1544 29.7947 21.092 29.9163 19.9961C30.1211 18.1269 29.1356 15.7871 27.1965 15.4643C25.7374 15.2223 24.4511 16.0022 23.408 17.0041C23.0368 17.3604 23.0368 18.0731 23.408 18.4295C23.8048 18.8127 24.3679 18.8127 24.7647 18.4295C24.8799 18.3219 24.9951 18.2143 25.1103 18.1135C25.1359 18.0866 25.1679 18.0664 25.1935 18.0395C25.1871 18.0462 25.0015 18.1874 25.1231 18.0933C25.1807 18.0529 25.2319 18.0059 25.2895 17.9655C25.4943 17.8176 25.7118 17.6899 25.9358 17.5756C26.1406 17.4747 25.7566 17.6428 25.8974 17.589C25.9486 17.5688 25.9998 17.5487 26.051 17.5285C26.147 17.4949 26.243 17.4613 26.3454 17.4411C26.3902 17.4276 26.4414 17.4209 26.4862 17.4142C26.6014 17.3873 26.2046 17.4344 26.403 17.4276C26.4926 17.4276 26.5822 17.4142 26.6718 17.4142C26.7166 17.4142 26.7614 17.4142 26.7998 17.4209C26.9981 17.4209 26.5694 17.3739 26.7038 17.4075C26.787 17.4276 26.8638 17.4411 26.947 17.468C26.9853 17.4814 27.0237 17.4949 27.0621 17.5083C27.2413 17.5688 26.8574 17.4008 26.9725 17.468C27.0493 17.5083 27.1261 17.5487 27.1965 17.5957C27.2285 17.6159 27.2541 17.6361 27.2861 17.6563C27.3053 17.6697 27.3181 17.6831 27.3373 17.6899C27.4397 17.7504 27.2093 17.5823 27.2157 17.589C27.2733 17.6562 27.3501 17.7033 27.4077 17.7706C27.4653 17.8243 27.5101 17.8916 27.5613 17.9454C27.6893 18.0933 27.4461 17.7705 27.5101 17.8714C27.5357 17.9117 27.5677 17.9521 27.5933 17.9924C27.6893 18.1404 27.7597 18.3017 27.8365 18.4631C27.7021 18.1874 27.7917 18.3488 27.8365 18.4967C27.8685 18.5908 27.8941 18.685 27.9197 18.7791C27.9389 18.8665 27.9581 18.9539 27.9773 19.0346C27.9837 19.0817 27.9901 19.1287 28.0029 19.1758C28.0285 19.317 27.9709 18.8598 27.9901 19.1018C28.0029 19.2968 28.0157 19.4851 28.0029 19.6801C28.0029 19.7742 27.9901 19.8616 27.9837 19.9557C27.9773 20.0768 28.0285 19.6532 27.9965 19.8683C27.9901 19.9221 27.9773 19.9759 27.9709 20.0297C27.9325 20.2247 27.8813 20.4129 27.8173 20.5945C27.7469 20.8029 27.8621 20.4936 27.8493 20.5272C27.8301 20.5676 27.8173 20.6079 27.7981 20.6483C27.7533 20.7424 27.7085 20.8365 27.6509 20.9306C27.5997 21.0181 27.5357 21.092 27.4909 21.1794C27.4781 21.2063 27.6573 20.9643 27.5421 21.1122C27.5037 21.1593 27.4717 21.1996 27.4333 21.2399C27.3565 21.3273 27.2797 21.408 27.1965 21.4887C27.1517 21.5291 27.1069 21.5627 27.0621 21.603C27.2925 21.3744 27.1645 21.5223 27.0877 21.5761C26.9917 21.6501 26.8894 21.7106 26.7806 21.7711C26.723 21.8047 26.6718 21.8316 26.6142 21.8585C26.403 21.9661 26.8126 21.7846 26.627 21.8585C26.371 21.9594 26.1086 22.04 25.8398 22.0871C25.8078 22.0871 25.7758 22.1006 25.7438 22.1073C25.5839 22.1342 25.7758 22.0938 25.827 22.0938C25.7566 22.0871 25.667 22.114 25.5967 22.114C25.4239 22.1274 25.2575 22.1342 25.0847 22.1275L26.0126 22.8671C26.0062 22.82 25.9934 22.7057 26.0062 22.82C25.9998 22.7527 25.9934 22.6788 25.987 22.6116C25.9742 22.4704 25.9678 22.3292 25.9678 22.1947C25.9614 21.8989 25.9678 21.603 25.9678 21.3072C25.9806 20.7289 25.987 20.1507 25.9166 19.5725C25.8526 19.048 25.5199 18.537 24.9567 18.5639C24.4895 18.5841 23.9328 19.0144 23.9968 19.5725H24.0032Z" fill="black"></path><path d="M19.8371 387.758C20.4323 387.744 21.021 387.758 21.6162 387.818C21.6802 387.825 21.7442 387.832 21.8082 387.838C21.8466 387.838 21.8786 387.852 21.917 387.852C21.9298 387.852 21.693 387.818 21.7954 387.832C21.9234 387.852 22.0513 387.872 22.1857 387.899C22.4097 387.939 22.6337 387.993 22.8513 388.054C23.0561 388.114 23.2609 388.181 23.4656 388.262C23.5104 388.282 23.5552 388.302 23.6 388.316C23.7408 388.37 23.3824 388.215 23.5232 388.282C23.6128 388.329 23.7024 388.37 23.792 388.417C23.952 388.504 24.1056 388.598 24.2528 388.706C24.2848 388.733 24.3168 388.753 24.3552 388.78C24.4384 388.84 24.464 388.934 24.2848 388.719C24.336 388.78 24.4064 388.827 24.464 388.881C24.5792 388.988 24.6815 389.109 24.7839 389.23C24.9183 389.392 24.6303 389.008 24.7839 389.23C24.8287 389.297 24.8671 389.365 24.9055 389.432C24.9759 389.56 25.0271 389.694 25.0975 389.822C25.0719 389.768 24.9951 389.553 25.0527 389.708C25.0655 389.741 25.0783 389.775 25.0847 389.808C25.1103 389.882 25.1295 389.956 25.1487 390.03C25.1871 390.171 25.1999 390.313 25.2319 390.447C25.2447 390.487 25.1999 390.131 25.2127 390.313C25.2127 390.346 25.2191 390.387 25.2255 390.42C25.2255 390.494 25.2383 390.575 25.2383 390.649C25.2383 390.797 25.2383 390.938 25.2255 391.086C25.2255 391.16 25.2063 391.234 25.2063 391.308C25.2063 391.254 25.2511 390.998 25.2191 391.18C25.2127 391.22 25.2063 391.261 25.1999 391.308C25.1487 391.61 25.0719 391.906 24.9695 392.195C24.9439 392.269 24.9183 392.336 24.8927 392.41C24.9951 392.175 24.8031 392.646 24.8927 392.41C24.8287 392.552 24.7647 392.7 24.6943 392.834C24.5536 393.11 24.4 393.372 24.2272 393.621C24.208 393.654 24.1824 393.681 24.1632 393.708C24.0672 393.849 24.3104 393.52 24.2272 393.621C24.1824 393.674 24.1376 393.735 24.0928 393.796C23.9968 393.91 23.9008 394.024 23.8048 394.132C23.7088 394.239 23.6064 394.34 23.4976 394.434C23.4528 394.475 23.4016 394.515 23.3568 394.562C23.1585 394.737 23.5424 394.421 23.3632 394.562C23.1585 394.717 22.9473 394.851 22.7169 394.972C22.4993 395.086 22.9345 394.891 22.7617 394.952C22.7041 394.972 22.6465 394.999 22.5889 395.019C22.4865 395.053 22.3777 395.08 22.2689 395.1C22.0577 395.147 22.5569 395.08 22.3457 395.086C22.2881 395.086 22.2305 395.093 22.1793 395.093C22.1281 395.093 22.0833 395.093 22.0322 395.093C21.8274 395.086 22.3137 395.16 22.1025 395.1C22.0002 395.073 21.8978 395.033 21.7954 395.006C21.821 395.006 22.0705 395.147 21.9298 395.066C21.9042 395.053 21.885 395.039 21.8594 395.026C21.8146 394.999 21.7634 394.965 21.7186 394.939C21.5138 394.804 21.8786 395.086 21.757 394.972C21.7122 394.925 21.661 394.885 21.6162 394.838C21.5714 394.791 21.533 394.744 21.4882 394.696C21.469 394.67 21.4498 394.643 21.4306 394.616C21.4818 394.676 21.5906 394.851 21.4946 394.703C21.4178 394.575 21.341 394.454 21.277 394.32C21.2386 394.246 21.213 394.172 21.1746 394.098C21.1106 393.964 21.2642 394.347 21.2194 394.206C21.2002 394.159 21.181 394.111 21.1682 394.064C21.0274 393.668 20.9314 393.258 20.861 392.841C20.8418 392.733 20.829 392.626 20.8098 392.518C20.7906 392.39 20.8354 392.76 20.8226 392.632C20.8226 392.605 20.8162 392.579 20.8162 392.552C20.8098 392.478 20.8034 392.404 20.7906 392.336C20.7394 391.812 20.3875 391.301 19.8307 391.328C19.3572 391.348 18.8132 391.772 18.8708 392.336C19.0308 393.943 19.4403 396.088 21.0082 396.841C22.3457 397.48 23.7152 396.888 24.7775 395.954C25.8399 395.019 26.5886 393.708 26.947 392.343C27.3565 390.783 27.1582 389.15 26.1662 387.879C24.9119 386.265 22.6849 385.848 20.8162 385.774C20.4899 385.761 20.1635 385.761 19.8371 385.774C19.338 385.788 18.8516 386.231 18.8772 386.783C18.9028 387.334 19.2996 387.805 19.8371 387.791V387.758Z" fill="black"></path><path d="M865.072 17.6494C864.893 21.6298 866.429 25.906 870.006 27.7281C870.467 27.9634 871.049 27.8693 871.318 27.3651C872.387 25.3883 872.854 22.8938 871.913 20.7625C870.972 18.6311 868.713 18.026 866.653 18.5302C865.449 18.8261 865.961 20.7692 867.165 20.4733C867.587 20.3725 867.907 20.3254 868.368 20.3523C868.393 20.3523 868.675 20.3859 868.508 20.359C868.604 20.3725 868.694 20.3927 868.79 20.4196C868.886 20.4465 868.969 20.4733 869.052 20.5002C869.315 20.5876 868.905 20.4128 869.155 20.5406C869.308 20.6213 869.462 20.7087 869.603 20.8162C869.443 20.6952 869.654 20.87 869.673 20.8835C869.731 20.944 869.795 21.0112 869.852 21.0718C869.865 21.0852 870.038 21.3071 869.916 21.1457C869.968 21.2197 870.012 21.2936 870.057 21.3676C870.102 21.4415 870.147 21.5222 870.185 21.6029C870.191 21.6164 870.307 21.8853 870.236 21.697C870.543 22.4837 870.575 23.0552 870.473 23.9293C870.492 23.7679 870.447 24.1041 870.447 24.1041C870.428 24.2184 870.409 24.326 870.383 24.4403C870.339 24.6487 870.281 24.8571 870.217 25.0588C870.076 25.5228 869.904 25.8926 869.667 26.3363L870.979 25.9733C867.984 24.447 866.845 20.9776 866.992 17.636C867.017 17.0914 866.531 16.6274 866.032 16.6274C865.494 16.6274 865.097 17.0914 865.072 17.636V17.6494Z" fill="black"></path><path d="M857.341 377.82C857.258 377.625 857.124 377.255 857.034 376.946C856.989 376.791 856.951 376.637 856.913 376.482C856.893 376.408 856.881 376.334 856.868 376.26C856.861 376.213 856.81 375.89 856.842 376.139C856.81 375.89 856.797 375.635 856.81 375.386C856.81 375.326 856.849 374.976 856.829 375.124C856.81 375.265 856.874 374.929 856.887 374.862C856.913 374.754 856.951 374.66 856.983 374.559C856.893 374.848 856.996 374.532 857.034 374.465C857.079 374.378 857.143 374.297 857.188 374.209C857.265 374.068 857.156 374.256 857.143 374.27C857.188 374.223 857.226 374.169 857.271 374.115C857.335 374.048 857.405 373.981 857.476 373.914C857.565 373.826 857.271 374.048 857.437 373.947C857.469 373.927 857.495 373.9 857.527 373.88C857.604 373.826 857.687 373.779 857.77 373.732C857.821 373.705 857.873 373.685 857.924 373.651C858.077 373.557 857.719 373.705 857.905 373.658C858.09 373.611 858.276 373.53 858.468 373.49C858.506 373.483 858.544 373.477 858.583 373.47C858.794 373.423 858.353 373.483 858.57 373.47C858.685 373.47 858.794 373.45 858.909 373.45C859.114 373.45 859.312 373.463 859.511 373.477C859.735 373.49 859.293 373.429 859.511 373.477C859.556 373.483 859.6 373.49 859.639 373.497C859.767 373.524 859.901 373.551 860.029 373.584C860.253 373.645 860.464 373.725 860.675 373.806C860.72 373.826 860.842 373.887 860.637 373.786C860.688 373.813 860.746 373.833 860.797 373.86C860.912 373.92 861.027 373.981 861.143 374.048C861.354 374.169 861.552 374.31 861.744 374.451C861.936 374.593 861.635 374.357 861.751 374.451C861.795 374.492 861.847 374.532 861.891 374.573C862 374.673 862.109 374.781 862.218 374.889C862.295 374.969 862.371 375.057 862.448 375.144C862.487 375.191 862.531 375.245 862.57 375.292C862.73 375.487 862.493 375.178 862.583 375.305C862.743 375.534 862.89 375.776 863.018 376.025C863.082 376.146 863.139 376.274 863.197 376.401C863.306 376.65 863.152 376.28 863.21 376.435C863.235 376.502 863.261 376.569 863.28 376.637C863.376 376.933 863.453 377.235 863.511 377.544C863.523 377.618 863.536 377.699 863.549 377.773C863.523 377.578 863.549 377.786 863.549 377.833C863.562 377.988 863.574 378.143 863.581 378.304C863.594 378.687 863.581 379.071 863.555 379.454C863.536 379.656 863.555 379.514 863.555 379.474C863.542 379.568 863.53 379.656 863.511 379.75C863.485 379.898 863.453 380.039 863.415 380.187C863.376 380.335 863.338 380.456 863.293 380.59C863.28 380.644 863.254 380.691 863.235 380.745C863.318 380.523 863.235 380.745 863.21 380.799C863.101 381.027 862.979 381.242 862.845 381.451C862.711 381.659 862.979 381.289 862.826 381.478C862.794 381.511 862.768 381.552 862.736 381.585C862.647 381.686 862.551 381.78 862.455 381.881C862.275 382.063 862.557 381.827 862.339 381.975C862.256 382.029 862.179 382.09 862.096 382.137C862.007 382.19 861.904 382.237 861.815 382.291C861.757 382.325 861.61 382.372 861.84 382.285C861.783 382.305 861.719 382.332 861.661 382.352C861.456 382.426 861.251 382.466 861.04 382.52C860.829 382.574 861.213 382.506 861.072 382.52C861.021 382.52 860.963 382.533 860.912 382.533C860.784 382.547 860.65 382.547 860.522 382.547C860.426 382.547 860.324 382.547 860.228 382.533C860.125 382.527 859.888 382.479 860.119 382.527C859.876 382.479 859.639 382.432 859.402 382.352C859.274 382.311 859.146 382.258 859.018 382.211C858.967 382.19 858.858 382.13 859.056 382.231C858.986 382.197 858.909 382.164 858.839 382.123C858.602 381.995 858.378 381.847 858.161 381.693C858.122 381.666 858.084 381.632 858.045 381.605C858.256 381.767 858.007 381.565 857.969 381.531C857.879 381.451 857.796 381.363 857.713 381.276C857.61 381.168 857.514 381.061 857.425 380.947C857.425 380.94 857.271 380.745 857.367 380.873C857.45 380.987 857.284 380.752 857.271 380.731C857.117 380.496 856.989 380.247 856.874 379.992C856.765 379.75 856.945 380.193 856.855 379.938C856.829 379.864 856.804 379.79 856.778 379.709C856.727 379.555 856.682 379.393 856.65 379.239C856.618 379.104 856.593 378.963 856.573 378.822C856.529 378.539 856.586 379.037 856.567 378.748C856.561 378.66 856.554 378.573 856.548 378.479C856.529 378.102 856.548 377.726 856.586 377.356C856.644 376.811 856.106 376.348 855.626 376.348C855.057 376.348 854.724 376.811 854.666 377.356C854.372 380.079 855.684 382.822 858.103 383.972C860.33 385.028 863.037 384.651 864.515 382.466C865.341 381.249 865.578 379.656 865.501 378.19C865.418 376.643 864.938 375.198 864.022 373.981C862.595 372.085 860.055 370.962 857.776 371.554C856.561 371.87 855.575 372.744 855.133 373.981C854.564 375.568 855.063 377.329 855.684 378.802C855.895 379.299 856.586 379.414 856.996 379.165C857.482 378.862 857.553 378.284 857.341 377.786V377.82Z" fill="black"></path></svg> 