<?xml version="1.0" encoding="UTF-8"?> <svg xmlns="http://www.w3.org/2000/svg" width="97" height="105" viewBox="0 0 97 105" fill="none"><path d="M87.1269 52.072L87.4822 56.5201L96.5686 63.3176L91.2326 67.3532L87.9242 71.4795L81.0136 72.8215L80.6571 78.3971L83.8898 89.2636L79.1969 93.0051L68.9265 86.3567L69.1289 100.032L61.4391 94.6638L55.5128 89.6606L50.9394 100.062L44.6064 104.303L42.0772 87.9987L34.4408 95.5728L27.9588 95.8497L30.0164 82.3968L19.2109 87.8843L15.6872 83.3026L12.7347 78.4427L5.40403 75.9758L1.90606 70.6688L11.9567 61.6845L0 58.2501L14.22 52.072L13.7491 47.5461L9.91703 41.9577L17.141 39.2557L5.52802 28.2324L15.3191 27.4872L18.5377 23.3667L24.8925 22.6665L20.6943 8.26474L33.5716 18.9649L35.9254 12.4816L41.323 13.0758L44.7388 0.946289L50.9394 8.45939L56.4668 6.54498L62.7522 4.13397L67.9224 7.29339L71.7165 12.4829L77.6583 13.3656L80.3751 18.846L84.3131 22.5065L89.7897 25.2542L94.5938 29.1575L85.1226 39.1099L91.1478 42.1575L92.8618 46.9776L87.1269 52.072Z" fill="url(#paint0_radial_11_24287)"></path><path d="M49.2781 83.5634C65.4034 83.5634 78.4755 70.4913 78.4755 54.366C78.4755 38.2408 65.4034 25.1687 49.2781 25.1687C33.1529 25.1687 20.0808 38.2408 20.0808 54.366C20.0808 70.4913 33.1529 83.5634 49.2781 83.5634Z" fill="#CCCCCC"></path><path d="M49.2782 83.3462C65.2835 83.3462 78.2584 70.3713 78.2584 54.366C78.2584 38.3606 65.2835 25.3857 49.2782 25.3857C33.2728 25.3857 20.298 38.3606 20.298 54.366C20.298 70.3713 33.2728 83.3462 49.2782 83.3462Z" fill="url(#paint1_linear_11_24287)"></path><path d="M49.2782 83.1292C65.1636 83.1292 78.0413 70.2515 78.0413 54.3661C78.0413 38.4807 65.1636 25.603 49.2782 25.603C33.3928 25.603 20.5151 38.4807 20.5151 54.3661C20.5151 70.2515 33.3928 83.1292 49.2782 83.1292Z" fill="url(#paint2_linear_11_24287)"></path><path d="M49.2782 82.9114C65.0433 82.9114 77.8235 70.1312 77.8235 54.3661C77.8235 38.601 65.0433 25.8208 49.2782 25.8208C33.5131 25.8208 20.7329 38.601 20.7329 54.3661C20.7329 70.1312 33.5131 82.9114 49.2782 82.9114Z" fill="url(#paint3_linear_11_24287)"></path><path d="M49.2782 82.6941C64.9234 82.6941 77.6064 70.0112 77.6064 54.366C77.6064 38.7208 64.9234 26.0378 49.2782 26.0378C33.633 26.0378 20.9501 38.7208 20.9501 54.366C20.9501 70.0112 33.633 82.6941 49.2782 82.6941Z" fill="url(#paint4_linear_11_24287)"></path><path d="M49.2782 82.4772C64.8035 82.4772 77.3893 69.8914 77.3893 54.3661C77.3893 38.8409 64.8035 26.2551 49.2782 26.2551C33.753 26.2551 21.1672 38.8409 21.1672 54.3661C21.1672 69.8914 33.753 82.4772 49.2782 82.4772Z" fill="url(#paint5_linear_11_24287)"></path><path d="M49.2782 82.2593C64.6832 82.2593 77.1715 69.7711 77.1715 54.3661C77.1715 38.9611 64.6832 26.4729 49.2782 26.4729C33.8732 26.4729 21.385 38.9611 21.385 54.3661C21.385 69.7711 33.8732 82.2593 49.2782 82.2593Z" fill="url(#paint6_linear_11_24287)"></path><path d="M49.2783 82.0421C64.5633 82.0421 76.9543 69.6511 76.9543 54.366C76.9543 39.081 64.5633 26.6899 49.2783 26.6899C33.9932 26.6899 21.6022 39.081 21.6022 54.366C21.6022 69.6511 33.9932 82.0421 49.2783 82.0421Z" fill="url(#paint7_linear_11_24287)"></path><path d="M49.2782 81.8251C64.4433 81.8251 76.7371 69.5314 76.7371 54.3662C76.7371 39.201 64.4433 26.9072 49.2782 26.9072C34.113 26.9072 21.8192 39.201 21.8192 54.3662C21.8192 69.5314 34.113 81.8251 49.2782 81.8251Z" fill="url(#paint8_linear_11_24287)"></path><path d="M49.2782 81.6071C64.323 81.6071 76.5193 69.4108 76.5193 54.3659C76.5193 39.321 64.323 27.1248 49.2782 27.1248C34.2333 27.1248 22.037 39.321 22.037 54.3659C22.037 69.4108 34.2333 81.6071 49.2782 81.6071Z" fill="url(#paint9_linear_11_24287)"></path><path d="M49.2782 81.3904C64.2031 81.3904 76.3022 69.2913 76.3022 54.3663C76.3022 39.4414 64.2031 27.3423 49.2782 27.3423C34.3532 27.3423 22.2542 39.4414 22.2542 54.3663C22.2542 69.2913 34.3532 81.3904 49.2782 81.3904Z" fill="url(#paint10_linear_11_24287)"></path><path d="M49.2782 81.1729C64.0833 81.1729 76.0851 69.171 76.0851 54.366C76.0851 39.5609 64.0833 27.5591 49.2782 27.5591C34.4732 27.5591 22.4713 39.5609 22.4713 54.366C22.4713 69.171 34.4732 81.1729 49.2782 81.1729Z" fill="url(#paint11_linear_11_24287)"></path><path d="M49.2782 80.9551C63.963 80.9551 75.8673 69.0507 75.8673 54.366C75.8673 39.6812 63.963 27.7769 49.2782 27.7769C34.5934 27.7769 22.6891 39.6812 22.6891 54.366C22.6891 69.0507 34.5934 80.9551 49.2782 80.9551Z" fill="url(#paint12_linear_11_24287)"></path><path d="M49.2782 80.7379C63.8431 80.7379 75.6502 68.9307 75.6502 54.3659C75.6502 39.801 63.8431 27.9939 49.2782 27.9939C34.7134 27.9939 22.9062 39.801 22.9062 54.3659C22.9062 68.9307 34.7134 80.7379 49.2782 80.7379Z" fill="url(#paint13_linear_11_24287)"></path><path d="M49.2781 80.5209C63.7231 80.5209 75.433 68.811 75.433 54.366C75.433 39.9211 63.7231 28.2112 49.2781 28.2112C34.8332 28.2112 23.1233 39.9211 23.1233 54.366C23.1233 68.811 34.8332 80.5209 49.2781 80.5209Z" fill="url(#paint14_linear_11_24287)"></path><path d="M49.2781 80.3031C63.6028 80.3031 75.2152 68.6907 75.2152 54.366C75.2152 40.0414 63.6028 28.429 49.2781 28.429C34.9535 28.429 23.3411 40.0414 23.3411 54.366C23.3411 68.6907 34.9535 80.3031 49.2781 80.3031Z" fill="url(#paint15_linear_11_24287)"></path><path d="M49.2781 80.0861C63.4829 80.0861 74.9981 68.5709 74.9981 54.3662C74.9981 40.1614 63.4829 28.6462 49.2781 28.6462C35.0734 28.6462 23.5582 40.1614 23.5582 54.3662C23.5582 68.5709 35.0734 80.0861 49.2781 80.0861Z" fill="url(#paint16_linear_11_24287)"></path><path d="M49.2782 79.8689C63.363 79.8689 74.781 68.4509 74.781 54.3661C74.781 40.2813 63.363 28.8633 49.2782 28.8633C35.1934 28.8633 23.7754 40.2813 23.7754 54.3661C23.7754 68.4509 35.1934 79.8689 49.2782 79.8689Z" fill="url(#paint17_linear_11_24287)"></path><path d="M49.2782 79.6511C63.2427 79.6511 74.5632 68.3306 74.5632 54.3661C74.5632 40.4015 63.2427 29.0811 49.2782 29.0811C35.3136 29.0811 23.9932 40.4015 23.9932 54.3661C23.9932 68.3306 35.3136 79.6511 49.2782 79.6511Z" fill="url(#paint18_linear_11_24287)"></path><path d="M49.2782 79.4341C63.1228 79.4341 74.3461 68.2108 74.3461 54.3662C74.3461 40.5216 63.1228 29.2983 49.2782 29.2983C35.4336 29.2983 24.2103 40.5216 24.2103 54.3662C24.2103 68.2108 35.4336 79.4341 49.2782 79.4341Z" fill="url(#paint19_linear_11_24287)"></path><path d="M49.2782 79.2168C63.0029 79.2168 74.129 68.0908 74.129 54.3661C74.129 40.6414 63.0029 29.5154 49.2782 29.5154C35.5535 29.5154 24.4275 40.6414 24.4275 54.3661C24.4275 68.0908 35.5535 79.2168 49.2782 79.2168Z" fill="url(#paint20_linear_11_24287)"></path><path d="M49.2782 78.9991C62.8826 78.9991 73.9112 67.9705 73.9112 54.3661C73.9112 40.7617 62.8826 29.7332 49.2782 29.7332C35.6738 29.7332 24.6453 40.7617 24.6453 54.3661C24.6453 67.9705 35.6738 78.9991 49.2782 78.9991Z" fill="url(#paint21_linear_11_24287)"></path><path d="M49.2782 78.7818C62.7627 78.7818 73.6941 67.8505 73.6941 54.366C73.6941 40.8815 62.7627 29.9502 49.2782 29.9502C35.7938 29.9502 24.8624 40.8815 24.8624 54.366C24.8624 67.8505 35.7938 78.7818 49.2782 78.7818Z" fill="url(#paint22_linear_11_24287)"></path><path d="M49.2781 78.5648C62.6427 78.5648 73.4768 67.7307 73.4768 54.3662C73.4768 41.0016 62.6427 30.1675 49.2781 30.1675C35.9136 30.1675 25.0795 41.0016 25.0795 54.3662C25.0795 67.7307 35.9136 78.5648 49.2781 78.5648Z" fill="url(#paint23_linear_11_24287)"></path><path d="M49.2781 78.347C62.5224 78.347 73.259 67.6104 73.259 54.3662C73.259 41.1219 62.5224 30.3853 49.2781 30.3853C36.0338 30.3853 25.2972 41.1219 25.2972 54.3662C25.2972 67.6104 36.0338 78.347 49.2781 78.347Z" fill="url(#paint24_linear_11_24287)"></path><path d="M49.2782 78.1298C62.4025 78.1298 73.0419 67.4904 73.0419 54.3661C73.0419 41.2417 62.4025 30.6023 49.2782 30.6023C36.1538 30.6023 25.5144 41.2417 25.5144 54.3661C25.5144 67.4904 36.1538 78.1298 49.2782 78.1298Z" fill="url(#paint25_linear_11_24287)"></path><path d="M49.2783 77.9126C62.2827 77.9126 72.8249 67.3704 72.8249 54.366C72.8249 41.3615 62.2827 30.8193 49.2783 30.8193C36.2739 30.8193 25.7317 41.3615 25.7317 54.366C25.7317 67.3704 36.2739 77.9126 49.2783 77.9126Z" fill="url(#paint26_linear_11_24287)"></path><path d="M49.2782 77.6948C62.1623 77.6948 72.607 67.2501 72.607 54.366C72.607 41.4818 62.1623 31.0371 49.2782 31.0371C36.394 31.0371 25.9493 41.4818 25.9493 54.366C25.9493 67.2501 36.394 77.6948 49.2782 77.6948Z" fill="url(#paint27_linear_11_24287)"></path><path d="M49.2782 77.4778C62.0424 77.4778 72.3899 67.1303 72.3899 54.3661C72.3899 41.6019 62.0424 31.2544 49.2782 31.2544C36.514 31.2544 26.1665 41.6019 26.1665 54.3661C26.1665 67.1303 36.514 77.4778 49.2782 77.4778Z" fill="url(#paint28_linear_11_24287)"></path><path d="M49.2782 77.2606C61.9225 77.2606 72.1728 67.0103 72.1728 54.366C72.1728 41.7217 61.9225 31.4714 49.2782 31.4714C36.6339 31.4714 26.3837 41.7217 26.3837 54.366C26.3837 67.0103 36.6339 77.2606 49.2782 77.2606Z" fill="url(#paint29_linear_11_24287)"></path><path d="M49.2782 77.0428C61.8023 77.0428 71.955 66.89 71.955 54.366C71.955 41.842 61.8023 31.6892 49.2782 31.6892C36.7542 31.6892 26.6014 41.842 26.6014 54.366C26.6014 66.89 36.7542 77.0428 49.2782 77.0428Z" fill="url(#paint30_linear_11_24287)"></path><path d="M49.2782 76.8255C61.6824 76.8255 71.7379 66.77 71.7379 54.3659C71.7379 41.9618 61.6824 31.9062 49.2782 31.9062C36.8741 31.9062 26.8186 41.9618 26.8186 54.3659C26.8186 66.77 36.8741 76.8255 49.2782 76.8255Z" fill="url(#paint31_linear_11_24287)"></path><path d="M56.2105 75.6116L52.9296 75.8481L49.7985 76.6781L46.6782 75.2834L43.5387 75.3373L40.6472 74.1591L37.5167 73.4216L35.1397 71.2927L32.0291 69.9622L30.4089 67.0944L29.674 63.8817L27.6774 61.3628L27.6067 58.1584L26.6514 55.1628L26.0437 51.9699L26.5968 48.7913L26.8519 45.4359L29.3984 43.0602L30.9511 40.2869L33.6288 38.4855L35.3614 35.6473L37.7769 33.3205L40.9279 32.2772L44.0899 31.3785L47.3624 31.1305L50.6452 31.0059L53.8746 31.6194L56.842 33.0109L59.7945 34.3111L63.015 35.4186L65.5101 37.662L66.7564 40.8895L68.4717 43.5896L70.7709 46.1657L71.6388 49.406L71.3504 52.7723L71.0561 56.0031L71.3844 59.3809L70.2364 62.5114L67.5864 64.8139L66.1397 67.6302L64.8253 70.823L61.743 72.2402L58.8303 73.5784L56.2105 75.6116Z" fill="black"></path><path d="M40.256 55.8148L43.4897 63.8986L47.6996 59.6887L54.9177 65.4258L60 42.5742L34 53.4041L40.256 55.8148ZM52.5705 49.1306L44.6123 56.3893L43.6211 60.1251L41.79 55.5464L52.5705 49.1306Z" fill="#D6D6D6"></path><defs><radialGradient id="paint0_radial_11_24287" cx="0" cy="0" r="1" gradientUnits="userSpaceOnUse" gradientTransform="translate(48.2843 52.6245) rotate(180) scale(57.7008 53.9113)"><stop offset="0.59" stop-color="#CCCCCC"></stop><stop offset="1" stop-color="#44556D"></stop></radialGradient><linearGradient id="paint1_linear_11_24287" x1="49.2779" y1="83.3464" x2="49.2779" y2="25.386" gradientUnits="userSpaceOnUse"><stop offset="0.251" stop-color="#CECECE"></stop><stop offset="0.7922" stop-color="#C5C5C5"></stop></linearGradient><linearGradient id="paint2_linear_11_24287" x1="49.2779" y1="83.1292" x2="49.2779" y2="25.6035" gradientUnits="userSpaceOnUse"><stop offset="0.251" stop-color="#CFCFCF"></stop><stop offset="0.7922" stop-color="#BFBFBF"></stop></linearGradient><linearGradient id="paint3_linear_11_24287" x1="49.2779" y1="82.9118" x2="49.2779" y2="25.8209" gradientUnits="userSpaceOnUse"><stop offset="0.251" stop-color="#D1D1D1"></stop><stop offset="0.7922" stop-color="#B8B8B8"></stop></linearGradient><linearGradient id="paint4_linear_11_24287" x1="49.278" y1="82.6944" x2="49.278" y2="26.0381" gradientUnits="userSpaceOnUse"><stop offset="0.251" stop-color="#D3D3D3"></stop><stop offset="0.7922" stop-color="#B2B2B2"></stop></linearGradient><linearGradient id="paint5_linear_11_24287" x1="49.278" y1="82.4772" x2="49.278" y2="26.2556" gradientUnits="userSpaceOnUse"><stop offset="0.251" stop-color="#D4D4D4"></stop><stop offset="0.7922" stop-color="#ABABAB"></stop></linearGradient><linearGradient id="paint6_linear_11_24287" x1="49.278" y1="82.2598" x2="49.278" y2="26.473" gradientUnits="userSpaceOnUse"><stop offset="0.251" stop-color="#D6D6D6"></stop><stop offset="0.7922" stop-color="#A5A5A5"></stop></linearGradient><linearGradient id="paint7_linear_11_24287" x1="49.278" y1="82.0424" x2="49.278" y2="26.6902" gradientUnits="userSpaceOnUse"><stop offset="0.251" stop-color="#D8D8D8"></stop><stop offset="0.7922" stop-color="#9E9E9E"></stop></linearGradient><linearGradient id="paint8_linear_11_24287" x1="49.2779" y1="81.8252" x2="49.2779" y2="26.9077" gradientUnits="userSpaceOnUse"><stop offset="0.251" stop-color="#D9D9D9"></stop><stop offset="0.7922" stop-color="#979797"></stop></linearGradient><linearGradient id="paint9_linear_11_24287" x1="49.2779" y1="81.6076" x2="49.2779" y2="27.1248" gradientUnits="userSpaceOnUse"><stop offset="0.251" stop-color="#DBDBDB"></stop><stop offset="0.7922" stop-color="#919191"></stop></linearGradient><linearGradient id="paint10_linear_11_24287" x1="49.2779" y1="81.3906" x2="49.2779" y2="27.3425" gradientUnits="userSpaceOnUse"><stop offset="0.251" stop-color="#DCDCDC"></stop><stop offset="0.7922" stop-color="#8A8A8A"></stop></linearGradient><linearGradient id="paint11_linear_11_24287" x1="49.278" y1="81.1729" x2="49.278" y2="27.5595" gradientUnits="userSpaceOnUse"><stop offset="0.251" stop-color="#DEDEDE"></stop><stop offset="0.7922" stop-color="#848484"></stop></linearGradient><linearGradient id="paint12_linear_11_24287" x1="49.2779" y1="80.9555" x2="49.2779" y2="27.7769" gradientUnits="userSpaceOnUse"><stop offset="0.251" stop-color="#E0E0E0"></stop><stop offset="0.7922" stop-color="#7D7D7D"></stop></linearGradient><linearGradient id="paint13_linear_11_24287" x1="49.278" y1="80.7381" x2="49.278" y2="27.9942" gradientUnits="userSpaceOnUse"><stop offset="0.251" stop-color="#E1E1E1"></stop><stop offset="0.7922" stop-color="#767676"></stop></linearGradient><linearGradient id="paint14_linear_11_24287" x1="49.2779" y1="80.5209" x2="49.2779" y2="28.2116" gradientUnits="userSpaceOnUse"><stop offset="0.251" stop-color="#E3E3E3"></stop><stop offset="0.7922" stop-color="#707070"></stop></linearGradient><linearGradient id="paint15_linear_11_24287" x1="49.2779" y1="80.3035" x2="49.2779" y2="28.429" gradientUnits="userSpaceOnUse"><stop offset="0.251" stop-color="#E5E5E5"></stop><stop offset="0.7922" stop-color="#696969"></stop></linearGradient><linearGradient id="paint16_linear_11_24287" x1="49.2779" y1="80.0863" x2="49.2779" y2="28.6465" gradientUnits="userSpaceOnUse"><stop offset="0.251" stop-color="#E6E6E6"></stop><stop offset="0.7922" stop-color="#636363"></stop></linearGradient><linearGradient id="paint17_linear_11_24287" x1="49.2779" y1="79.8689" x2="49.2779" y2="28.8637" gradientUnits="userSpaceOnUse"><stop offset="0.251" stop-color="#E8E8E8"></stop><stop offset="0.7922" stop-color="#5C5C5C"></stop></linearGradient><linearGradient id="paint18_linear_11_24287" x1="49.2779" y1="79.6516" x2="49.2779" y2="29.0811" gradientUnits="userSpaceOnUse"><stop offset="0.251" stop-color="#EAEAEA"></stop><stop offset="0.7922" stop-color="#565656"></stop></linearGradient><linearGradient id="paint19_linear_11_24287" x1="49.2779" y1="79.4343" x2="49.2779" y2="29.2986" gradientUnits="userSpaceOnUse"><stop offset="0.251" stop-color="#EBEBEB"></stop><stop offset="0.7922" stop-color="#4F4F4F"></stop></linearGradient><linearGradient id="paint20_linear_11_24287" x1="49.278" y1="79.2169" x2="49.278" y2="29.5158" gradientUnits="userSpaceOnUse"><stop offset="0.251" stop-color="#EDEDED"></stop><stop offset="0.7922" stop-color="#484848"></stop></linearGradient><linearGradient id="paint21_linear_11_24287" x1="49.278" y1="78.9996" x2="49.278" y2="29.7332" gradientUnits="userSpaceOnUse"><stop offset="0.251" stop-color="#EFEFEF"></stop><stop offset="0.7922" stop-color="#424242"></stop></linearGradient><linearGradient id="paint22_linear_11_24287" x1="49.278" y1="78.7821" x2="49.278" y2="29.9505" gradientUnits="userSpaceOnUse"><stop offset="0.251" stop-color="#F0F0F0"></stop><stop offset="0.7922" stop-color="#3B3B3B"></stop></linearGradient><linearGradient id="paint23_linear_11_24287" x1="49.2779" y1="78.5649" x2="49.2779" y2="30.1679" gradientUnits="userSpaceOnUse"><stop offset="0.251" stop-color="#F2F2F2"></stop><stop offset="0.7922" stop-color="#353535"></stop></linearGradient><linearGradient id="paint24_linear_11_24287" x1="49.2779" y1="78.3475" x2="49.2779" y2="30.3853" gradientUnits="userSpaceOnUse"><stop offset="0.251" stop-color="#F3F3F3"></stop><stop offset="0.7922" stop-color="#2E2E2E"></stop></linearGradient><linearGradient id="paint25_linear_11_24287" x1="49.2779" y1="78.1301" x2="49.2779" y2="30.6025" gradientUnits="userSpaceOnUse"><stop offset="0.251" stop-color="#F5F5F5"></stop><stop offset="0.7922" stop-color="#272727"></stop></linearGradient><linearGradient id="paint26_linear_11_24287" x1="49.2781" y1="77.9126" x2="49.2781" y2="30.8198" gradientUnits="userSpaceOnUse"><stop offset="0.251" stop-color="#F7F7F7"></stop><stop offset="0.7922" stop-color="#212121"></stop></linearGradient><linearGradient id="paint27_linear_11_24287" x1="49.2779" y1="77.6953" x2="49.2779" y2="31.0372" gradientUnits="userSpaceOnUse"><stop offset="0.251" stop-color="#F8F8F8"></stop><stop offset="0.7922" stop-color="#1A1A1A"></stop></linearGradient><linearGradient id="paint28_linear_11_24287" x1="49.2779" y1="77.478" x2="49.2779" y2="31.2547" gradientUnits="userSpaceOnUse"><stop offset="0.251" stop-color="#FAFAFA"></stop><stop offset="0.7922" stop-color="#141414"></stop></linearGradient><linearGradient id="paint29_linear_11_24287" x1="49.278" y1="77.2606" x2="49.278" y2="31.4719" gradientUnits="userSpaceOnUse"><stop offset="0.251" stop-color="#FCFCFC"></stop><stop offset="0.7922" stop-color="#0D0D0D"></stop></linearGradient><linearGradient id="paint30_linear_11_24287" x1="49.278" y1="77.0433" x2="49.278" y2="31.6893" gradientUnits="userSpaceOnUse"><stop offset="0.251" stop-color="#FDFDFD"></stop><stop offset="0.7922" stop-color="#070707"></stop></linearGradient><linearGradient id="paint31_linear_11_24287" x1="49.278" y1="76.8258" x2="49.278" y2="31.9065" gradientUnits="userSpaceOnUse"><stop offset="0.251" stop-color="white"></stop><stop offset="0.7922"></stop></linearGradient></defs></svg> 