<?xml version="1.0" encoding="UTF-8"?> <svg xmlns="http://www.w3.org/2000/svg" width="143" height="226" viewBox="0 0 143 226" fill="none"><path d="M141.333 220.049L140.647 35.8833C140.647 35.8833 130.145 32.684 129.405 32.982C128.669 33.2801 126.861 34.8798 126.861 34.8798L126.195 35.3468V35.4312C126.195 36.1118 125.793 36.6037 125.271 36.857C124.476 37.8357 122.693 37.9152 122.45 36.3751C122.261 35.1779 122.266 33.9359 122.415 32.7187C122.291 31.7301 122.221 30.7465 122.246 29.7479L97.9676 26.4144L98.683 19.2507L77.0725 19.0371L60.5244 26.8914L50.2159 27.1298C50.1662 29.8026 50.3451 128.272 50.3451 128.272C50.3451 128.272 47.7965 223.388 49.7291 223.219C51.6616 223.05 142.436 222.657 142.436 222.657L141.333 220.044V220.049Z" fill="#2B3A4C"></path><path d="M121.436 38.879C113.328 37.5376 104.878 36.1218 100.501 35.317C100.7 37.3886 100.978 39.4652 101.201 41.5219C101.683 42.0783 101.986 42.8235 101.967 43.7823C101.957 44.2543 101.937 44.7212 101.922 45.1932C106.92 45.9732 114.247 47.1158 121.252 48.2286C121.331 46.4948 121.406 44.756 121.411 43.0222C121.411 41.6411 121.376 40.2551 121.441 38.879H121.436Z" fill="#3F6B89"></path><path d="M128.252 49.3414C132.162 49.9674 135.614 50.5337 138.034 50.9461C138.272 47.8361 138.461 44.7362 138.277 41.6312C135.878 41.2437 132.365 40.6724 128.391 40.0166C128.356 41.5418 128.49 43.1017 128.446 44.5821C128.396 46.1669 128.322 47.7567 128.257 49.3414H128.252Z" fill="#3F6B89"></path><path d="M137.666 63.1771C137.666 61.8358 137.671 60.4994 137.691 59.168C135.535 58.8202 132.102 58.2588 128.108 57.608C128.138 60.7378 128.222 63.8627 128.341 66.9875C132.266 67.6234 135.605 68.1699 137.716 68.5424C137.691 66.754 137.671 64.9655 137.666 63.1771Z" fill="#3F6B89"></path><path d="M102.25 62.8641C107.486 63.6789 114.55 64.7867 121.167 65.8399C121.058 62.7101 121.004 59.5704 121.013 56.4456C114.143 55.3129 106.895 54.1007 101.971 53.2363C102.14 56.4456 102.27 59.6548 102.245 62.8691L102.25 62.8641Z" fill="#3F6B89"></path><path d="M102.19 81.1113C102.19 81.151 102.19 81.1908 102.19 81.2355C107.65 82.085 115.117 83.2574 121.987 84.3504C121.923 81.2057 121.809 78.061 121.61 74.9213C114.655 73.7737 107.223 72.5367 102.16 71.6474C102.136 74.802 102.131 77.9567 102.185 81.1113H102.19Z" fill="#3F6B89"></path><path d="M137.994 86.8691C137.994 83.7691 137.939 80.6741 137.88 77.5791C135.848 77.2512 132.579 76.7196 128.739 76.0887C128.883 79.2135 128.967 82.3433 129.012 85.4731C132.817 86.0891 136.022 86.6207 137.994 86.9685C137.994 86.9337 137.994 86.9039 137.994 86.8691Z" fill="#3F6B89"></path><path d="M103.04 88.6924C103.005 91.4297 102.687 94.162 102.498 96.9043C102.468 97.3216 102.444 97.7439 102.424 98.1662C107.854 99.0107 115.201 100.163 121.968 101.241C122.017 98.1264 122.052 95.0066 122.062 91.8917C115.375 90.7888 108.182 89.5916 103.045 88.6973L103.04 88.6924Z" fill="#3F6B89"></path><path d="M137.979 94.485C136.012 94.167 132.827 93.6503 129.057 93.0343C129.047 96.1442 129.017 99.2542 128.977 102.359C132.743 102.97 135.918 103.492 137.905 103.845C137.939 100.725 137.964 97.6048 137.979 94.485Z" fill="#3F6B89"></path><path d="M137.81 110.854C135.803 110.526 132.624 110.015 128.883 109.399C128.848 112.33 128.818 115.256 128.813 118.187C128.813 118.376 128.798 118.55 128.773 118.723C132.47 119.32 135.609 119.841 137.641 120.194C137.706 117.079 137.76 113.964 137.805 110.854H137.81Z" fill="#3F6B89"></path><path d="M102.185 104.937C102.15 106.194 102.106 107.451 102.036 108.708C101.932 110.665 101.932 112.578 101.991 114.491C107.357 115.325 114.729 116.483 121.57 117.571C121.476 115.459 121.416 113.467 121.739 111.346C121.754 111.237 121.784 111.127 121.813 111.023C121.828 110.099 121.838 109.175 121.853 108.246C114.843 107.094 107.307 105.832 102.185 104.937Z" fill="#3F6B89"></path><path d="M102.424 122.777C102.508 125.962 102.165 129.116 101.932 132.291C107.173 133.106 114.526 134.258 121.421 135.351C121.212 132.226 121.103 129.106 121.267 125.952C114.456 124.829 107.287 123.632 102.424 122.777Z" fill="#3F6B89"></path><path d="M137.279 136.042C137.343 133.563 137.403 131.079 137.462 128.6C135.232 128.237 131.983 127.71 128.272 127.104C128.143 130.244 128.312 133.369 128.56 136.494C132.038 137.055 135.068 137.552 137.224 137.924C137.239 137.298 137.264 136.673 137.279 136.047V136.042Z" fill="#3F6B89"></path><path d="M137.006 145.257C134.889 144.914 132.177 144.472 129.161 143.975C129.4 147.125 129.618 150.275 129.802 153.419C132.43 153.842 134.79 154.229 136.707 154.552C136.807 151.452 136.906 148.352 137.006 145.252V145.257Z" fill="#3F6B89"></path><path d="M101.356 148.933C106.691 149.763 115.012 151.065 122.708 152.287C122.499 149.122 122.266 145.963 122.012 142.803C114.337 141.536 106.259 140.185 101.554 139.335C101.43 142.525 101.366 145.729 101.356 148.933Z" fill="#3F6B89"></path><path d="M101.773 165.392C107.302 166.252 115.768 167.578 123.478 168.805C123.393 165.66 123.274 162.521 123.12 159.381C115.052 158.05 106.329 156.594 101.415 155.71C101.485 158.939 101.604 162.173 101.773 165.397V165.392Z" fill="#3F6B89"></path><path d="M136.618 165.134C136.494 164.761 136.419 164.344 136.434 163.877C136.444 163.554 136.454 163.231 136.464 162.913C136.429 162.456 136.399 162.004 136.365 161.547C134.606 161.259 132.494 160.916 130.179 160.538C130.324 163.668 130.443 166.803 130.532 169.938C133.021 170.34 135.242 170.703 137.04 171.006C136.901 169.049 136.767 167.091 136.623 165.139L136.618 165.134Z" fill="#3F6B89"></path><path d="M123.617 177.345C115.882 176.068 107.456 174.662 102.319 173.753C102.573 177.017 102.871 180.271 103.209 183.505C108.738 184.365 116.503 185.582 123.612 186.714C123.642 183.595 123.642 180.47 123.612 177.35L123.617 177.345Z" fill="#3F6B89"></path><path d="M138.242 189.094C138.044 185.939 137.84 182.79 137.626 179.635C135.768 179.332 133.374 178.945 130.671 178.502C130.701 181.612 130.701 184.727 130.671 187.842C133.687 188.329 136.32 188.766 138.242 189.094Z" fill="#3F6B89"></path><path d="M102.891 191.24C103.055 194.459 103.179 197.679 103.263 200.898C108.673 201.742 116.21 202.92 123.175 204.028C123.219 203.074 123.259 202.12 123.294 201.166C123.368 199.015 123.428 196.859 123.478 194.708C116.066 193.486 108.037 192.144 102.891 191.24Z" fill="#3F6B89"></path><path d="M137.89 197.068C135.952 196.755 133.374 196.332 130.448 195.855C130.318 198.95 130.169 202.045 130.08 205.135C132.822 205.578 135.267 205.98 137.194 206.303C137.423 203.223 137.78 200.153 137.89 197.068Z" fill="#3F6B89"></path><path d="M122.961 212.245C122.961 212.001 122.961 211.758 122.961 211.514C115.926 210.357 108.425 209.1 103.392 208.221C103.417 211.415 103.407 214.609 103.367 217.804C108.499 218.604 115.509 219.701 122.131 220.75C122.121 220.079 122.325 219.393 122.812 218.758C122.837 218.658 122.867 218.504 122.877 218.266C122.891 217.978 122.936 217.208 122.956 216.765C123.016 215.26 122.986 213.75 122.961 212.24V212.245Z" fill="#3F6B89"></path><path d="M138.545 223.422C137.348 222.449 136.757 220.804 137.825 219.105C137.358 219.85 137.716 218.618 137.671 217.983C137.616 217.208 137.507 216.438 137.403 215.667C137.323 215.051 137.249 214.45 137.184 213.844C135.257 213.531 132.817 213.134 130.09 212.687C130.249 215.697 130.477 219.324 129.191 221.882C132.991 222.493 136.305 223.04 138.545 223.427V223.422Z" fill="#3F6B89"></path><path d="M53.5642 122.524C52.3271 122.032 87.5199 115.479 87.5199 115.479V124.904L54.831 129.956C54.831 129.956 53.7231 122.583 53.5592 122.519L53.5642 122.524Z" fill="#3F6B89"></path><path d="M88.8862 134.571C88.3149 134.328 59.8536 137.209 59.8536 137.209C59.8536 137.209 57.2852 146.539 58.2689 146.658C59.2525 146.777 89.0749 144.432 89.0749 144.432L88.8812 134.571H88.8862Z" fill="#3F6B89"></path><path d="M89.383 153.946C88.8117 153.703 60.3505 156.584 60.3505 156.584C60.3505 156.584 57.782 165.914 58.7657 166.033C59.7493 166.152 89.5718 163.807 89.5718 163.807L89.378 153.946H89.383Z" fill="#3F6B89"></path><path d="M89.383 172.327C88.8117 172.084 60.3505 174.965 60.3505 174.965C60.3505 174.965 57.782 184.295 58.7657 184.414C59.7493 184.534 89.5718 182.189 89.5718 182.189L89.378 172.327H89.383Z" fill="#3F6B89"></path><path d="M89.383 188.722C88.8117 188.478 60.3505 191.359 60.3505 191.359C60.3505 191.359 57.782 200.689 58.7657 200.808C59.7493 200.928 89.5718 198.583 89.5718 198.583L89.378 188.722H89.383Z" fill="#3F6B89"></path><path d="M90.3765 204.619C89.8052 204.375 61.344 207.257 61.344 207.257C61.344 207.257 58.7756 216.587 59.7592 216.706C60.7429 216.825 90.5653 214.48 90.5653 214.48L90.3716 204.619H90.3765Z" fill="#3F6B89"></path><path d="M54.7414 38.3027C54.1502 40.2402 55.0246 112.722 55.3326 115.976C55.6406 119.23 86.4566 107.138 86.4566 107.138L85.319 27.6316L54.7464 38.3027H54.7414Z" fill="#28A7E8"></path><path d="M69.0541 138.108C107.192 138.108 138.108 107.192 138.108 69.0541C138.108 30.9166 107.192 0 69.0541 0C30.9166 0 0 30.9166 0 69.0541C0 107.192 30.9166 138.108 69.0541 138.108Z" fill="url(#paint0_radial_11_21637)"></path><path d="M80.9771 56.6194C80.9622 57.4143 80.9026 58.2042 80.8529 58.9891C80.7585 60.4348 80.6492 61.8804 80.53 63.3211C80.3859 65.0351 80.2468 66.749 80.0978 68.4629C79.9239 70.4551 79.7401 72.4423 79.5563 74.4294C79.4321 75.7956 79.3029 77.1618 79.1588 78.523C79.0297 79.7501 78.9253 80.9871 78.8011 82.2191C78.6819 83.4164 78.5478 84.6087 78.4335 85.806C78.3491 86.6654 78.2397 87.5149 78.051 88.3247C77.9317 88.8265 77.7827 89.2984 77.5641 89.6909C77.2959 90.1827 76.963 90.3566 76.5805 90.3367C75.9943 90.3019 75.4776 89.9095 74.9858 89.3829C74.4393 88.8016 73.9425 88.0962 73.4159 87.4752C71.6175 85.3787 69.8539 83.1879 68.0655 81.0666C67.7574 80.7039 67.4743 80.2816 67.2507 79.7451C67.0619 79.2831 66.9824 78.7714 67.0619 78.22C67.1166 77.8374 67.2408 77.5046 67.3749 77.1866C67.5786 76.7147 67.8171 76.2924 68.0605 75.89C68.3437 75.428 68.597 74.9213 68.8852 74.4642C69.7595 73.0732 70.609 71.6374 71.4635 70.2116C72.4124 68.6269 73.3613 67.0322 74.2704 65.3729C74.4691 65.0053 74.6678 64.6327 74.8516 64.2352C74.9262 64.0713 74.9758 63.8974 74.956 63.6739C74.9162 63.2715 74.7821 63.0777 74.5536 63.1125C74.4393 63.1324 74.33 63.187 74.2306 63.2913C73.5103 64.0514 72.8148 64.886 72.1193 65.7058C70.4898 67.6234 68.8702 69.5708 67.2507 71.5133C66.4062 72.5267 65.5616 73.5451 64.7171 74.5536C64.2501 75.11 63.7583 75.577 63.2168 75.8552C62.869 76.0341 62.5212 76.0688 62.1636 76.0341C61.7562 75.9893 61.3637 75.8304 60.9713 75.6664C60.5192 75.4777 60.0721 75.2491 59.6249 75.0206C59.2523 74.8269 58.8798 74.6033 58.5121 74.3946C58.1992 74.2208 57.8862 74.0568 57.5732 73.8631C57.29 73.6892 57.0068 73.4954 56.7535 73.1924C56.4951 72.8794 56.3411 72.4671 56.3859 71.8809C56.4157 71.4834 56.5597 71.2003 56.7237 70.9568C56.9522 70.6041 57.2155 70.3309 57.4887 70.1073C57.9259 69.7496 58.3681 69.4217 58.8052 69.079C59.2126 68.761 59.62 68.448 60.0273 68.1351C60.5142 67.7575 61.0011 67.3849 61.4879 67.0123C61.8357 66.7441 62.1834 66.4708 62.5312 66.2025C63.3509 65.5716 64.1756 64.9407 64.9953 64.3098C67.1066 62.6853 69.218 61.0458 71.3443 59.4611C73.0383 58.1992 74.7374 56.9324 76.4463 55.75C77.2611 55.1887 78.0708 54.6173 78.9204 54.2249C79.2731 54.0609 79.6308 53.9318 80.0034 54.0262C80.6095 54.1851 80.8926 54.6919 80.9721 55.7798C80.992 56.0531 81.0019 56.3263 81.0019 56.6045L80.9771 56.6194Z" fill="#FEFEFE"></path><path d="M50.2407 27.9098C49.4161 30.5676 49.416 33.4341 49.5353 36.1913C49.6545 38.9485 49.9675 41.7753 49.9725 44.5722C49.9874 51.5174 50.4593 58.4476 50.4444 65.3978C50.4295 72.3479 50.36 79.3725 50.3003 86.3574C50.2705 89.8449 50.2457 93.3324 50.2258 96.8149C50.2109 100.094 50.2556 103.378 50.1612 106.656C50.0669 109.935 49.8532 113.522 49.8781 116.96C49.888 118.644 49.9576 120.333 50.1314 122.007C50.2159 122.807 50.3252 123.607 50.4643 124.397C50.5239 124.725 50.5338 125.152 50.6729 125.455C50.8468 125.823 51.751 125.117 51.3486 124.998C51.1548 124.938 50.9313 124.968 50.7524 125.043C50.3798 125.197 50.1215 125.534 50.2308 125.962C50.3252 126.314 50.7773 126.637 51.1499 126.483L51.0306 126.459C51.1151 126.483 51.2045 126.498 51.2939 126.503C51.4132 126.503 51.5324 126.473 51.6367 126.429C51.91 126.309 52.1087 126.036 52.1732 125.743C52.2378 125.42 52.1136 125.092 52.049 124.779C51.9696 124.392 51.9 124.004 51.8354 123.617C51.6019 122.196 51.4877 120.75 51.4231 119.315C51.284 116.225 51.4082 113.13 51.5274 110.04C51.7858 103.383 51.7063 96.7156 51.7559 90.0585C51.8106 82.9941 51.8851 75.9298 51.9199 68.8703C51.9348 65.3431 51.9646 61.8209 51.8652 58.2936C51.7659 54.7664 51.5821 51.3534 51.5026 47.8809C51.4628 46.1322 51.4926 44.3834 51.4132 42.6397C51.3386 41.045 51.2095 39.4503 51.1101 37.8556C50.9164 34.701 50.7226 31.3774 51.6715 28.3172C51.9547 27.3981 50.5189 27.0056 50.2358 27.9197L50.2407 27.9098Z" fill="black"></path><path d="M50.5238 28.3519C51.6565 28.7941 53.0078 28.6898 54.1901 28.5755C55.4818 28.4463 56.7635 28.2178 58.0403 28.0092C59.6002 27.7558 61.0856 27.3683 62.571 26.8168C64.1856 26.2207 65.7654 25.5302 67.3999 24.9986C68.9449 24.4968 70.4402 24.0149 71.8958 23.2797C73.257 22.5941 74.5636 21.8042 75.9248 21.1087C77.4599 20.3238 79.0347 19.7177 80.7636 19.5438C82.4924 19.3699 84.2809 19.4842 86.0395 19.5289C88.1161 19.5786 90.1579 19.6581 92.2196 19.9661C94.2813 20.2741 96.2734 20.7063 98.2755 21.1832C99.2095 21.4068 99.6069 19.9711 98.6729 19.7475C95.0613 18.888 91.39 18.1627 87.669 18.0584C84.2759 17.969 80.6145 17.5616 77.3804 18.8185C74.4941 19.9412 71.9803 21.834 69.074 22.9021C67.4446 23.5032 65.7803 23.9653 64.1608 24.6012C62.5412 25.2371 60.9217 25.8978 59.2226 26.2803C57.8068 26.5983 56.3313 26.8069 54.8956 26.9907C53.6337 27.1547 52.1384 27.3782 50.9163 26.9013C50.0221 26.5535 49.6346 27.9942 50.5188 28.337L50.5238 28.3519Z" fill="black"></path><path d="M98.4444 19.7525C98.4345 21.3273 98.8866 22.927 98.4345 24.472L98.9561 23.9504C97.1577 24.5862 96.2933 26.4095 95.7816 28.1234C95.091 30.4335 94.8923 32.8976 94.7979 35.2971C94.7135 37.3936 94.7483 39.5 94.8427 41.5964C95.0016 45.2677 94.6936 48.934 94.9172 52.6004C95.0513 54.7465 95.0513 56.9026 95.101 59.0487C95.2202 64.116 95.3295 69.1783 95.4388 74.2456C95.5928 81.4541 95.7418 88.6576 95.8909 95.866C96.0648 104.346 96.2386 112.831 96.4175 121.312C96.6013 130.324 96.7901 139.33 96.9789 148.342C97.1577 157.001 97.3415 165.665 97.5303 174.324C97.6942 181.891 97.8582 189.452 98.0321 197.018C98.1612 202.617 98.2904 208.221 98.4444 213.819C98.5239 216.681 98.5587 219.552 98.7276 222.409C98.7425 222.667 98.7623 222.921 98.7971 223.174C98.9362 224.118 100.372 223.716 100.233 222.777C100.288 223.164 100.218 222.474 100.213 222.32C100.188 221.877 100.173 221.44 100.153 220.998C100.094 219.508 100.054 218.012 100.009 216.522C99.8603 211.41 99.741 206.303 99.6168 201.191C99.4479 193.973 99.289 186.759 99.13 179.541C98.9412 170.951 98.7623 162.362 98.5785 153.772C98.3897 144.76 98.201 135.748 98.0172 126.737C97.8383 118.028 97.6595 109.314 97.4806 100.605C97.3266 93.0542 97.1676 85.5029 97.0087 77.9517C96.8894 72.4025 96.7752 66.8533 96.646 61.3042C96.5814 58.537 96.5467 55.7649 96.4274 53.0028C96.2436 48.7304 96.4075 44.4629 96.2784 40.1905C96.2088 37.8258 96.2188 35.4511 96.4225 33.0913C96.6112 30.9203 96.8745 28.4165 98.0718 26.5287C98.2705 26.2157 98.504 25.9127 98.8021 25.6842C99.125 25.4358 99.5622 25.3811 99.8006 25.0433C100.183 24.4968 100.148 23.4039 100.129 22.773C100.099 21.7595 99.9298 20.7609 99.9348 19.7475C99.9397 18.7887 98.4494 18.7887 98.4444 19.7475V19.7525Z" fill="black"></path><path d="M97.0783 28.3519C99.2443 28.958 101.49 29.0226 103.725 29.0474C105.961 29.0723 108.132 29.1865 110.338 29.4648C112.543 29.743 114.903 30.041 117.218 30.051C118.247 30.051 119.608 29.9218 120.542 30.4534C121.878 31.2184 121.605 33.4441 121.61 34.8599C121.62 38.2033 121.62 41.5467 121.62 44.8852C121.62 51.0653 121.62 57.2454 121.62 63.4255C121.62 71.6226 121.62 79.8196 121.62 88.0167C121.62 97.4359 121.625 106.86 121.63 116.279C121.635 126.066 121.645 135.853 121.655 145.635C121.665 155.417 121.684 164.264 121.704 173.579C121.724 181.563 121.749 189.551 121.789 197.535C121.819 203.397 121.848 209.259 121.913 215.126C121.943 218.037 121.898 220.973 122.087 223.879C122.102 224.103 122.102 224.356 122.161 224.57C122.43 225.489 123.865 225.097 123.597 224.173C123.617 224.421 123.542 223.979 123.597 224.173C123.587 224.048 123.577 223.919 123.572 223.795C123.547 223.368 123.537 222.941 123.523 222.513C123.478 220.988 123.458 219.463 123.438 217.938C123.364 212.642 123.334 207.341 123.304 202.045C123.259 194.37 123.234 186.695 123.21 179.019C123.185 169.878 123.165 160.732 123.15 151.591C123.135 141.799 123.125 132.013 123.12 122.221C123.115 112.429 123.11 103.035 123.105 93.4417C123.105 84.8869 123.105 76.3321 123.105 67.7774C123.105 61.0856 123.105 54.3988 123.105 47.707C123.105 43.7823 123.105 39.8527 123.095 35.928C123.095 35.2425 123.1 34.5519 123.085 33.8663C123.041 32.0183 122.827 29.7479 120.86 28.963C119.802 28.5407 118.584 28.5606 117.467 28.5556C115.186 28.5407 112.956 28.3023 110.695 28.0141C108.435 27.726 106.309 27.5769 104.088 27.5571C101.867 27.5372 99.6318 27.5124 97.4658 26.9112C96.5417 26.6529 96.1443 28.0886 97.0683 28.347L97.0783 28.3519Z" fill="black"></path><path d="M122.867 38.1388C124.143 38.5511 125.862 38.4617 126.95 37.6171C128.113 36.713 128.033 35.3766 128.361 34.07L127.641 34.6165C129.946 34.5171 132.276 34.6264 134.566 34.8699C135.843 35.004 137.13 35.1878 138.367 35.5405C139.082 35.7442 140.16 36.0125 140.498 36.7626C140.622 37.0359 141.059 37.2147 141.337 37.1054C141.472 37.0558 141.601 37.0011 141.735 36.9465C141.501 36.9961 141.531 37.016 141.829 37.016L141.109 36.0721C140.672 37.7264 141.094 39.3857 140.975 41.0599C140.851 42.8682 140.488 44.6517 140.404 46.4749C140.394 46.7283 140.389 46.9767 140.384 47.2301C140.364 48.2882 140.354 49.3514 140.344 50.4095C140.309 54.4783 140.299 58.547 140.289 62.6157C140.274 68.7213 140.269 74.8219 140.264 80.9275C140.259 88.444 140.259 95.9654 140.259 103.482C140.259 111.818 140.259 120.154 140.269 128.495C140.274 136.956 140.284 145.416 140.289 153.876C140.299 161.86 140.304 169.843 140.314 177.832C140.324 184.712 140.329 191.588 140.339 198.469C140.344 203.61 140.354 208.757 140.359 213.899C140.359 216.681 140.369 219.458 140.369 222.24C140.369 222.488 140.369 222.737 140.369 222.99C140.369 223.949 141.859 223.949 141.859 222.99C141.859 220.889 141.859 218.787 141.849 216.686C141.844 212.066 141.834 207.446 141.829 202.825C141.819 196.312 141.814 189.805 141.804 183.292C141.795 175.522 141.785 167.752 141.78 159.977C141.77 151.576 141.765 143.176 141.755 134.775C141.75 126.404 141.745 118.033 141.74 109.662C141.74 101.882 141.74 94.1074 141.74 86.3276C141.74 79.8047 141.75 73.2819 141.76 66.759C141.77 62.1239 141.78 57.4839 141.804 52.8488C141.814 50.7324 141.79 48.6062 141.879 46.4898C141.954 44.8107 142.202 43.1613 142.406 41.4971C142.609 39.8328 142.093 38.109 142.53 36.4695C142.664 35.9628 142.291 35.5753 141.809 35.5256C141.467 35.4909 141.238 35.5455 140.925 35.6697L141.765 36.0125C141.362 35.1183 140.344 34.6562 139.479 34.3433C138.178 33.8663 136.777 33.6577 135.406 33.4838C132.837 33.1559 130.209 33.0218 127.621 33.1361C127.298 33.151 126.985 33.3596 126.901 33.6825C126.702 34.4724 126.777 35.6598 126.2 36.2857C125.52 37.0259 124.124 36.9961 123.239 36.713C122.355 36.4298 121.933 37.8556 122.842 38.1487L122.867 38.1388Z" fill="black"></path><path d="M126.642 34.5171C126.672 34.5966 126.682 34.6761 126.702 34.7556C126.712 34.8053 126.717 34.8599 126.727 34.9146C126.772 35.1381 126.702 34.7109 126.732 34.9593C126.777 35.3666 126.811 35.774 126.841 36.1814C126.94 37.5476 127 38.9187 127.055 40.2899C127.244 44.9597 127.353 49.6345 127.452 54.3044C127.596 60.9813 127.706 67.6631 127.805 74.34C127.924 82.393 128.023 90.4411 128.118 98.4941C128.217 107.302 128.307 116.115 128.391 124.923C128.476 133.732 128.55 142.704 128.62 151.591C128.684 159.878 128.749 168.164 128.808 176.456C128.858 183.55 128.908 190.644 128.957 197.738C128.992 202.94 129.027 208.146 129.067 213.347C129.087 216.045 129.097 218.748 129.136 221.445C129.136 221.644 129.136 221.848 129.146 222.046C129.176 223.005 130.666 223.005 130.637 222.046C130.572 220.059 130.592 218.072 130.577 216.085C130.542 211.41 130.507 206.74 130.478 202.065C130.433 195.359 130.383 188.657 130.339 181.95C130.279 173.862 130.219 165.78 130.16 157.692C130.09 148.879 130.016 140.066 129.941 131.253C129.862 122.365 129.777 113.477 129.678 104.59C129.588 96.2784 129.489 87.972 129.375 79.6607C129.275 72.5814 129.166 65.5021 129.027 58.4277C128.928 53.2313 128.813 48.0398 128.64 42.8434C128.55 40.1955 128.54 37.5029 128.207 34.8699C128.177 34.6264 128.158 34.3482 128.073 34.1147C127.74 33.2255 126.3 33.608 126.637 34.5122L126.642 34.5171Z" fill="black"></path><path d="M54.5427 40.2451C54.503 40.3594 54.6123 40.1507 54.6024 40.1607C54.6967 40.0564 54.7961 39.957 54.9054 39.8676C55.1588 39.654 55.4469 39.4801 55.735 39.3161C56.5051 38.8641 57.3248 38.4915 58.1445 38.1437C59.8038 37.4383 61.5078 36.8471 63.1869 36.2012C65.7156 35.2275 68.1996 34.1396 70.7332 33.1907C72.8893 32.3859 75.1 31.75 77.2611 30.9651C79.6457 30.1006 81.9756 29.0623 83.9528 27.4478C84.698 26.8417 83.6349 25.7935 82.8997 26.3946C79.2929 29.3455 74.4244 30.205 70.1669 31.8195C67.5438 32.8131 64.9654 33.9309 62.3424 34.9344C60.6632 35.5753 58.9692 36.1764 57.3198 36.8868C56.4057 37.2793 55.4866 37.6966 54.6471 38.2331C54.0062 38.6405 53.3703 39.1224 53.1021 39.8527C52.7692 40.7519 54.2099 41.1443 54.5378 40.2501L54.5427 40.2451Z" fill="black"></path><path d="M84.5938 27.3931C84.9018 38.5412 84.4398 49.6942 84.6335 60.8422C84.7329 66.4907 84.9217 72.1392 85.0757 77.7927C85.1552 80.6394 85.2197 83.486 85.2645 86.3376C85.3042 88.8762 85.2446 91.4247 85.3489 93.9633C85.4532 96.5019 85.6668 98.8071 85.7066 101.236C85.7463 103.666 85.6768 105.946 84.8621 108.137C84.5292 109.036 85.9649 109.424 86.2978 108.534C87.0082 106.622 87.1672 104.525 87.197 102.503C87.2268 100.258 87.0678 98.0171 86.9337 95.7816C86.7946 93.4168 86.8045 91.0621 86.7797 88.6924C86.7499 85.8457 86.6952 82.9941 86.6257 80.1475C86.3425 68.8455 85.9947 57.5633 86.109 46.2564C86.1736 39.9719 86.258 33.6825 86.0842 27.3981C86.0593 26.4393 84.5689 26.4393 84.5938 27.3981V27.3931Z" fill="black"></path><path d="M56.0035 107.615C56.4804 104.003 56.0333 100.268 56.0035 96.641C55.9687 91.8072 55.914 86.9685 55.8594 82.1347C55.8047 77.2164 55.7898 72.2932 55.9737 67.375C56.1575 62.4567 55.7551 57.618 55.765 52.7295C55.7749 48.4174 56.6543 43.7128 54.7068 39.6689C54.2895 38.8045 53.0028 39.5596 53.4201 40.419C54.2547 42.1479 54.4286 44.1251 54.4535 46.0179C54.4783 47.9107 54.3293 49.9376 54.2845 51.8949C54.1753 56.6492 54.682 61.3986 54.5329 66.1578C54.2249 75.8552 54.4882 85.5327 54.5131 95.2301C54.5181 97.3961 54.5876 99.5522 54.6422 101.718C54.6919 103.671 54.7714 105.663 54.5131 107.61C54.4584 108.013 54.8956 108.35 55.2583 108.355C55.7054 108.355 55.9488 108.008 56.0035 107.61V107.615Z" fill="black"></path><path d="M54.0611 108.529C54.4833 111.137 54.5131 113.79 54.841 116.413C54.8758 116.711 55.0447 117.079 55.3875 117.134C59.5754 117.775 63.7932 115.758 67.5639 114.198C69.5659 113.368 71.5531 112.563 73.6844 112.146C76.1832 111.659 78.846 111.54 81.1959 110.487C82.1994 110.035 83.1284 109.463 84.2064 109.19C84.5889 109.096 84.9764 109.006 85.3639 108.917C85.513 108.882 85.662 108.852 85.8111 108.822C86.1489 108.748 85.9949 108.847 85.7614 108.768L85.5825 107.407C85.7465 107.297 85.7564 107.342 85.6272 107.377C84.7131 107.655 85.1006 109.091 86.0247 108.812C86.124 108.783 86.2482 108.748 86.3327 108.693C86.8841 108.326 86.7699 107.551 86.1538 107.332C85.7266 107.178 84.9764 107.481 84.5641 107.575C83.8438 107.739 83.1582 107.918 82.4776 108.211C81.2952 108.728 80.2321 109.359 78.9702 109.677C77.7084 109.995 76.3869 110.189 75.0853 110.397C72.7951 110.76 70.6589 111.341 68.5127 112.21C66.5057 113.02 64.5235 113.9 62.4767 114.61C60.4299 115.32 58.0354 116.046 55.7949 115.698L56.3413 116.418C55.9985 113.666 55.9538 110.879 55.5067 108.137C55.3527 107.193 53.917 107.595 54.071 108.534L54.0611 108.529Z" fill="black"></path><defs><radialGradient id="paint0_radial_11_21637" cx="0" cy="0" r="1" gradientUnits="userSpaceOnUse" gradientTransform="translate(69.0541 69.0541) scale(69.0541)"><stop stop-color="#00FFFF"></stop><stop offset="0.09" stop-color="#06FDFF" stop-opacity="0.97"></stop><stop offset="0.22" stop-color="#19F9FF" stop-opacity="0.9"></stop><stop offset="0.37" stop-color="#38F2FF" stop-opacity="0.78"></stop><stop offset="0.53" stop-color="#63E8FF" stop-opacity="0.61"></stop><stop offset="0.71" stop-color="#9ADBFF" stop-opacity="0.39"></stop><stop offset="0.9" stop-color="#DCCCFF" stop-opacity="0.14"></stop><stop offset="1" stop-color="#FFC5FF" stop-opacity="0"></stop></radialGradient></defs></svg> 