<?xml version="1.0" encoding="UTF-8"?> <svg xmlns="http://www.w3.org/2000/svg" width="643" height="644" viewBox="0 0 643 644" fill="none"><path d="M550.5 323.5C550.5 263.13 526.99 206.38 484.31 163.69C441.62 121 384.87 97.5 324.5 97.5C264.13 97.5 207.38 121.01 164.69 163.69C157.04 171.34 150.01 179.45 143.62 187.95C131.51 201.12 122.56 216.94 115.06 233.18C109.96 244.21 105.17 255.54 102.61 267.46C100.31 278.14 99.9 289.09 99.71 299.99C98.91 307.75 98.5 315.59 98.5 323.5C98.5 330.57 98.83 337.58 99.47 344.53C99.75 356.04 100.5 367.5 102.18 378.73C104.02 391.02 108.16 402.7 112.76 414.19C117.21 425.3 121.74 436.42 127.03 447.16C130.09 453.37 133.5 459.49 137.31 465.33C138.14 467.09 139.18 469.1 140.68 470.26C150.11 483.45 161.85 494.83 176.72 502C177.36 502.31 178.14 502.38 178.88 502.24C180.63 503.54 182.36 504.83 184.03 506.1C194.3 513.92 204.9 521.37 216.27 527.52C228.19 533.97 241.18 537.95 253.22 544.11C254 544.51 254.75 544.54 255.42 544.35C260.13 546.13 265.01 547.24 270.02 547.63C271.71 548.12 273.42 548.52 275.18 548.76C282.73 549.78 290.39 548.81 297.94 548.21C298.38 548.18 298.81 548.14 299.25 548.11C307.57 549.03 316 549.51 324.49 549.51C384.86 549.51 441.61 526 484.3 483.32C491.05 476.57 497.32 469.47 503.09 462.05C504 462.32 505.04 462.21 505.96 461.47C519.9 450.21 528.22 434.15 533.93 417.46C540.69 397.7 544.9 376.93 549.29 356.54C549.54 355.37 549.16 354.41 548.48 353.75C549.8 343.81 550.49 333.71 550.49 323.51L550.5 323.5ZM532.33 315.61C532.43 318.23 532.5 320.85 532.5 323.5C532.5 324.11 532.49 324.72 532.48 325.34C532.29 326.66 532.11 327.98 531.92 329.29C532.16 324.73 532.3 320.17 532.33 315.62V315.61ZM131.72 443.1C130.58 440.76 129.48 438.4 128.41 436.02C129.86 438.54 131.36 441.03 132.91 443.49C132.54 443.25 132.14 443.12 131.72 443.1ZM395.5 519.01C394.86 518.25 393.85 517.82 392.59 518.22C382.42 521.41 372.18 524.35 361.87 527.01C358.72 527.82 355.48 528.76 352.18 529.65C343.12 530.86 333.88 531.5 324.5 531.5C321.69 531.5 318.9 531.43 316.11 531.32C311.23 530.47 306.35 529.56 301.45 529.22C297.94 528.97 294.43 528.84 290.92 528.78C192.14 512.68 116.49 426.77 116.49 323.5C116.49 272.21 135.16 225.21 166.04 188.91C179.41 177.97 192.7 166.94 206.16 156.12C219.02 145.79 232.61 137.04 248.17 131.35C277.54 120.63 309.32 119.14 340.25 117.77C344.88 117.56 349.5 117.43 354.1 117.61C361.5 118.67 368.78 120.11 375.91 121.93C382.9 124.53 389.53 128.03 396 131.75C397.36 132.53 398.66 132.14 399.51 131.27C403.87 132.61 406.27 136.36 410.27 138.62C414.89 141.22 420.36 141.21 424.92 144.08C429.14 146.74 432.79 150.05 437.27 152.31C441.03 154.21 444.99 155.64 448.99 156.97C474.31 175.95 495.18 200.57 509.73 228.94C509.07 229.79 508.81 230.95 509.41 232.17C536.04 286.18 526 347.96 515.92 404.82C493.4 457.61 449.68 499.26 395.5 519V519.01Z" fill="#FF0000"></path><path d="M311.52 10.3498C309.5 75.6098 308.94 140.89 309.84 206.16C310.01 218.64 333.01 218.41 332.84 205.9C331.93 140.63 332.49 75.3498 334.52 10.0898C334.91 -2.40022 311.91 -2.13021 311.52 10.3498Z" fill="#FF0000"></path><path d="M311.52 438.16C309.5 503.42 308.94 568.7 309.84 633.97C310.01 646.45 333.01 646.22 332.84 633.71C331.93 568.44 332.49 503.16 334.52 437.9C334.91 425.41 311.91 425.68 311.52 438.16Z" fill="#FF0000"></path><path d="M9.58003 335.99C74.85 337.53 140.14 337.61 205.4 336.22C217.88 335.95 217.47 312.96 204.97 313.22C139.71 314.61 74.43 314.53 9.15003 312.99C-3.34997 312.69 -2.89997 335.69 9.58003 335.99Z" fill="#FF0000"></path><path d="M437.38 332.84C502.65 334.38 567.94 334.46 633.2 333.07C645.68 332.8 645.27 309.81 632.77 310.07C567.51 311.46 502.23 311.38 436.95 309.84C424.45 309.54 424.9 332.54 437.38 332.84Z" fill="#FF0000"></path></svg> 