<?xml version="1.0" encoding="UTF-8"?> <svg xmlns="http://www.w3.org/2000/svg" width="98" height="105" viewBox="0 0 98 105" fill="none"><path d="M9.88431 52.072L9.52907 56.5201L0.442671 63.3176L5.77861 67.3532L9.08707 71.4795L15.9976 72.8215L16.3541 78.3971L13.1215 89.2636L17.8143 93.0051L28.0847 86.3567L27.8824 100.032L35.5721 94.6638L41.4984 89.6606L46.0718 100.062L52.4048 104.303L54.934 87.9987L62.5705 95.5728L69.0525 95.8497L66.9948 82.3968L77.8003 87.8843L81.324 83.3026L84.2765 78.4427L91.6072 75.9758L95.1052 70.6688L85.0545 61.6845L97.0112 58.2501L82.7913 52.072L83.2622 47.5461L87.0942 41.9577L79.8702 39.2557L91.4832 28.2324L81.6921 27.4872L78.4736 23.3667L72.1188 22.6665L76.317 8.26474L63.4397 18.9649L61.0858 12.4816L55.6882 13.0758L52.2725 0.946289L46.0718 8.45939L40.5445 6.54498L34.259 4.13397L29.0888 7.29339L25.2947 12.4829L19.3529 13.3656L16.6362 18.846L12.6981 22.5065L7.22149 25.2542L2.41747 29.1575L11.8887 39.1099L5.8634 42.1575L4.14943 46.9776L9.88431 52.072Z" fill="url(#paint0_radial_11_24288)"></path><path d="M47.7331 83.5634C31.6078 83.5634 18.5357 70.4913 18.5357 54.366C18.5357 38.2408 31.6078 25.1687 47.7331 25.1687C63.8583 25.1687 76.9304 38.2408 76.9304 54.366C76.9304 70.4913 63.8583 83.5634 47.7331 83.5634Z" fill="#CCCCCC"></path><path d="M47.7331 83.3462C31.7277 83.3462 18.7529 70.3713 18.7529 54.366C18.7529 38.3606 31.7277 25.3857 47.7331 25.3857C63.7384 25.3857 76.7133 38.3606 76.7133 54.366C76.7133 70.3713 63.7384 83.3462 47.7331 83.3462Z" fill="url(#paint1_linear_11_24288)"></path><path d="M47.7332 83.1292C31.8477 83.1292 18.9701 70.2515 18.9701 54.3661C18.9701 38.4807 31.8477 25.603 47.7332 25.603C63.6186 25.603 76.4962 38.4807 76.4962 54.3661C76.4962 70.2515 63.6186 83.1292 47.7332 83.1292Z" fill="url(#paint2_linear_11_24288)"></path><path d="M47.733 82.9114C31.9679 82.9114 19.1877 70.1312 19.1877 54.3661C19.1877 38.601 31.9679 25.8208 47.733 25.8208C63.4982 25.8208 76.2783 38.601 76.2783 54.3661C76.2783 70.1312 63.4982 82.9114 47.733 82.9114Z" fill="url(#paint3_linear_11_24288)"></path><path d="M47.7331 82.6941C32.0879 82.6941 19.405 70.0112 19.405 54.366C19.405 38.7208 32.0879 26.0378 47.7331 26.0378C63.3783 26.0378 76.0613 38.7208 76.0613 54.366C76.0613 70.0112 63.3783 82.6941 47.7331 82.6941Z" fill="url(#paint4_linear_11_24288)"></path><path d="M47.733 82.4772C32.2077 82.4772 19.622 69.8914 19.622 54.3661C19.622 38.8409 32.2077 26.2551 47.733 26.2551C63.2583 26.2551 75.844 38.8409 75.844 54.3661C75.844 69.8914 63.2583 82.4772 47.733 82.4772Z" fill="url(#paint5_linear_11_24288)"></path><path d="M47.7331 82.2593C32.3281 82.2593 19.8399 69.7711 19.8399 54.3661C19.8399 38.9611 32.3281 26.4729 47.7331 26.4729C63.1381 26.4729 75.6263 38.9611 75.6263 54.3661C75.6263 69.7711 63.1381 82.2593 47.7331 82.2593Z" fill="url(#paint6_linear_11_24288)"></path><path d="M47.733 82.0421C32.4479 82.0421 20.0569 69.6511 20.0569 54.366C20.0569 39.081 32.4479 26.6899 47.733 26.6899C63.0181 26.6899 75.4091 39.081 75.4091 54.366C75.4091 69.6511 63.0181 82.0421 47.733 82.0421Z" fill="url(#paint7_linear_11_24288)"></path><path d="M47.7331 81.8251C32.5679 81.8251 20.2741 69.5314 20.2741 54.3662C20.2741 39.201 32.5679 26.9072 47.7331 26.9072C62.8982 26.9072 75.192 39.201 75.192 54.3662C75.192 69.5314 62.8982 81.8251 47.7331 81.8251Z" fill="url(#paint8_linear_11_24288)"></path><path d="M47.7331 81.6071C32.6882 81.6071 20.4919 69.4108 20.4919 54.3659C20.4919 39.321 32.6882 27.1248 47.7331 27.1248C62.778 27.1248 74.9742 39.321 74.9742 54.3659C74.9742 69.4108 62.778 81.6071 47.7331 81.6071Z" fill="url(#paint9_linear_11_24288)"></path><path d="M47.733 81.3904C32.8081 81.3904 20.709 69.2913 20.709 54.3663C20.709 39.4414 32.8081 27.3423 47.733 27.3423C62.658 27.3423 74.7571 39.4414 74.7571 54.3663C74.7571 69.2913 62.658 81.3904 47.733 81.3904Z" fill="url(#paint10_linear_11_24288)"></path><path d="M47.7331 81.1729C32.9281 81.1729 20.9262 69.171 20.9262 54.366C20.9262 39.5609 32.9281 27.5591 47.7331 27.5591C62.5382 27.5591 74.54 39.5609 74.54 54.366C74.54 69.171 62.5382 81.1729 47.7331 81.1729Z" fill="url(#paint11_linear_11_24288)"></path><path d="M47.733 80.9551C33.0483 80.9551 21.1439 69.0507 21.1439 54.366C21.1439 39.6812 33.0483 27.7769 47.733 27.7769C62.4178 27.7769 74.3221 39.6812 74.3221 54.366C74.3221 69.0507 62.4178 80.9551 47.733 80.9551Z" fill="url(#paint12_linear_11_24288)"></path><path d="M47.7331 80.7379C33.1683 80.7379 21.3611 68.9307 21.3611 54.3659C21.3611 39.801 33.1683 27.9939 47.7331 27.9939C62.298 27.9939 74.1051 39.801 74.1051 54.3659C74.1051 68.9307 62.298 80.7379 47.7331 80.7379Z" fill="url(#paint13_linear_11_24288)"></path><path d="M47.7331 80.5209C33.2882 80.5209 21.5782 68.811 21.5782 54.366C21.5782 39.9211 33.2882 28.2112 47.7331 28.2112C62.178 28.2112 73.8879 39.9211 73.8879 54.366C73.8879 68.811 62.178 80.5209 47.7331 80.5209Z" fill="url(#paint14_linear_11_24288)"></path><path d="M47.7331 80.3031C33.4085 80.3031 21.7961 68.6907 21.7961 54.366C21.7961 40.0414 33.4085 28.429 47.7331 28.429C62.0578 28.429 73.6702 40.0414 73.6702 54.366C73.6702 68.6907 62.0578 80.3031 47.7331 80.3031Z" fill="url(#paint15_linear_11_24288)"></path><path d="M47.7331 80.0861C33.5284 80.0861 22.0131 68.5709 22.0131 54.3662C22.0131 40.1614 33.5284 28.6462 47.7331 28.6462C61.9378 28.6462 73.453 40.1614 73.453 54.3662C73.453 68.5709 61.9378 80.0861 47.7331 80.0861Z" fill="url(#paint16_linear_11_24288)"></path><path d="M47.7332 79.8689C33.6484 79.8689 22.2304 68.4509 22.2304 54.3661C22.2304 40.2813 33.6484 28.8633 47.7332 28.8633C61.818 28.8633 73.236 40.2813 73.236 54.3661C73.236 68.4509 61.818 79.8689 47.7332 79.8689Z" fill="url(#paint17_linear_11_24288)"></path><path d="M47.7331 79.6511C33.7685 79.6511 22.4481 68.3306 22.4481 54.3661C22.4481 40.4015 33.7685 29.0811 47.7331 29.0811C61.6976 29.0811 73.0181 40.4015 73.0181 54.3661C73.0181 68.3306 61.6976 79.6511 47.7331 79.6511Z" fill="url(#paint18_linear_11_24288)"></path><path d="M47.7332 79.4341C33.8886 79.4341 22.6653 68.2108 22.6653 54.3662C22.6653 40.5216 33.8886 29.2983 47.7332 29.2983C61.5778 29.2983 72.801 40.5216 72.801 54.3662C72.801 68.2108 61.5778 79.4341 47.7332 79.4341Z" fill="url(#paint19_linear_11_24288)"></path><path d="M47.733 79.2168C34.0083 79.2168 22.8823 68.0908 22.8823 54.3661C22.8823 40.6414 34.0083 29.5154 47.733 29.5154C61.4577 29.5154 72.5837 40.6414 72.5837 54.3661C72.5837 68.0908 61.4577 79.2168 47.733 79.2168Z" fill="url(#paint20_linear_11_24288)"></path><path d="M47.7331 78.9991C34.1287 78.9991 23.1002 67.9705 23.1002 54.3661C23.1002 40.7617 34.1287 29.7332 47.7331 29.7332C61.3375 29.7332 72.3661 40.7617 72.3661 54.3661C72.3661 67.9705 61.3375 78.9991 47.7331 78.9991Z" fill="url(#paint21_linear_11_24288)"></path><path d="M47.733 78.7818C34.2485 78.7818 23.3172 67.8505 23.3172 54.366C23.3172 40.8815 34.2485 29.9502 47.733 29.9502C61.2175 29.9502 72.1488 40.8815 72.1488 54.366C72.1488 67.8505 61.2175 78.7818 47.733 78.7818Z" fill="url(#paint22_linear_11_24288)"></path><path d="M47.7331 78.5648C34.3685 78.5648 23.5344 67.7307 23.5344 54.3662C23.5344 41.0016 34.3685 30.1675 47.7331 30.1675C61.0976 30.1675 71.9318 41.0016 71.9318 54.3662C71.9318 67.7307 61.0976 78.5648 47.7331 78.5648Z" fill="url(#paint23_linear_11_24288)"></path><path d="M47.7331 78.347C34.4888 78.347 23.7522 67.6104 23.7522 54.3662C23.7522 41.1219 34.4888 30.3853 47.7331 30.3853C60.9774 30.3853 71.714 41.1219 71.714 54.3662C71.714 67.6104 60.9774 78.347 47.7331 78.347Z" fill="url(#paint24_linear_11_24288)"></path><path d="M47.7331 78.1298C34.6087 78.1298 23.9693 67.4904 23.9693 54.3661C23.9693 41.2417 34.6087 30.6023 47.7331 30.6023C60.8574 30.6023 71.4968 41.2417 71.4968 54.3661C71.4968 67.4904 60.8574 78.1298 47.7331 78.1298Z" fill="url(#paint25_linear_11_24288)"></path><path d="M47.733 77.9126C34.7286 77.9126 24.1864 67.3704 24.1864 54.366C24.1864 41.3615 34.7286 30.8193 47.733 30.8193C60.7375 30.8193 71.2797 41.3615 71.2797 54.366C71.2797 67.3704 60.7375 77.9126 47.733 77.9126Z" fill="url(#paint26_linear_11_24288)"></path><path d="M47.7331 77.6948C34.8489 77.6948 24.4042 67.2501 24.4042 54.366C24.4042 41.4818 34.8489 31.0371 47.7331 31.0371C60.6172 31.0371 71.0619 41.4818 71.0619 54.366C71.0619 67.2501 60.6172 77.6948 47.7331 77.6948Z" fill="url(#paint27_linear_11_24288)"></path><path d="M47.7332 77.4778C34.9689 77.4778 24.6214 67.1303 24.6214 54.3661C24.6214 41.6019 34.9689 31.2544 47.7332 31.2544C60.4974 31.2544 70.8448 41.6019 70.8448 54.3661C70.8448 67.1303 60.4974 77.4778 47.7332 77.4778Z" fill="url(#paint28_linear_11_24288)"></path><path d="M47.733 77.2606C35.0887 77.2606 24.8384 67.0103 24.8384 54.366C24.8384 41.7217 35.0887 31.4714 47.733 31.4714C60.3773 31.4714 70.6276 41.7217 70.6276 54.366C70.6276 67.0103 60.3773 77.2606 47.733 77.2606Z" fill="url(#paint29_linear_11_24288)"></path><path d="M47.7331 77.0428C35.2091 77.0428 25.0563 66.89 25.0563 54.366C25.0563 41.842 35.2091 31.6892 47.7331 31.6892C60.2572 31.6892 70.4099 41.842 70.4099 54.366C70.4099 66.89 60.2572 77.0428 47.7331 77.0428Z" fill="url(#paint30_linear_11_24288)"></path><path d="M47.733 76.8255C35.3289 76.8255 25.2733 66.77 25.2733 54.3659C25.2733 41.9618 35.3289 31.9062 47.733 31.9062C60.1371 31.9062 70.1926 41.9618 70.1926 54.3659C70.1926 66.77 60.1371 76.8255 47.733 76.8255Z" fill="url(#paint31_linear_11_24288)"></path><path d="M40.8008 75.6116L44.0816 75.8481L47.2128 76.6781L50.333 75.2834L53.4725 75.3373L56.364 74.1591L59.4946 73.4216L61.8715 71.2927L64.9821 69.9622L66.6023 67.0944L67.3372 63.8817L69.3339 61.3628L69.4045 58.1584L70.3598 55.1628L70.9675 51.9699L70.4144 48.7913L70.1594 45.4359L67.6128 43.0602L66.0601 40.2869L63.3825 38.4855L61.6499 35.6473L59.2344 33.3205L56.0833 32.2772L52.9213 31.3785L49.6488 31.1305L46.366 31.0059L43.1366 31.6194L40.1693 33.0109L37.2167 34.3111L33.9963 35.4186L31.5011 37.662L30.2548 40.8895L28.5395 43.5896L26.2403 46.1657L25.3724 49.406L25.6609 52.7723L25.9551 56.0031L25.6268 59.3809L26.7748 62.5114L29.4248 64.8139L30.8715 67.6302L32.1859 70.823L35.2682 72.2402L38.181 73.5784L40.8008 75.6116Z" fill="black"></path><g clip-path="url(#clip0_11_24288)"><path d="M48 35C37.507 35 29 43.507 29 54C29 64.493 37.507 73 48 73C58.493 73 67 64.493 67 54C67 43.507 58.493 35 48 35Z" fill="black"></path><path d="M50.0786 52.2806L58.2123 42.8259H56.2849L49.2224 51.0354L43.5816 42.8259H37.0757L45.6056 55.24L37.0757 65.1548H39.0032L46.4614 56.4853L52.4184 65.1548H58.9244L50.0781 52.2806H50.0786ZM39.6977 44.277H42.6583L56.2858 63.7697H53.3252L39.6977 44.277Z" fill="#D6D6D6"></path></g><defs><radialGradient id="paint0_radial_11_24288" cx="0" cy="0" r="1" gradientUnits="userSpaceOnUse" gradientTransform="translate(48.727 52.6245) scale(57.7008 53.9113)"><stop offset="0.59" stop-color="#CCCCCC"></stop><stop offset="1" stop-color="#44556D"></stop></radialGradient><linearGradient id="paint1_linear_11_24288" x1="47.7333" y1="83.3464" x2="47.7333" y2="25.386" gradientUnits="userSpaceOnUse"><stop offset="0.251" stop-color="#CECECE"></stop><stop offset="0.7922" stop-color="#C5C5C5"></stop></linearGradient><linearGradient id="paint2_linear_11_24288" x1="47.7334" y1="83.1292" x2="47.7334" y2="25.6035" gradientUnits="userSpaceOnUse"><stop offset="0.251" stop-color="#CFCFCF"></stop><stop offset="0.7922" stop-color="#BFBFBF"></stop></linearGradient><linearGradient id="paint3_linear_11_24288" x1="47.7333" y1="82.9118" x2="47.7333" y2="25.8209" gradientUnits="userSpaceOnUse"><stop offset="0.251" stop-color="#D1D1D1"></stop><stop offset="0.7922" stop-color="#B8B8B8"></stop></linearGradient><linearGradient id="paint4_linear_11_24288" x1="47.7334" y1="82.6944" x2="47.7334" y2="26.0381" gradientUnits="userSpaceOnUse"><stop offset="0.251" stop-color="#D3D3D3"></stop><stop offset="0.7922" stop-color="#B2B2B2"></stop></linearGradient><linearGradient id="paint5_linear_11_24288" x1="47.7332" y1="82.4772" x2="47.7332" y2="26.2556" gradientUnits="userSpaceOnUse"><stop offset="0.251" stop-color="#D4D4D4"></stop><stop offset="0.7922" stop-color="#ABABAB"></stop></linearGradient><linearGradient id="paint6_linear_11_24288" x1="47.7334" y1="82.2598" x2="47.7334" y2="26.473" gradientUnits="userSpaceOnUse"><stop offset="0.251" stop-color="#D6D6D6"></stop><stop offset="0.7922" stop-color="#A5A5A5"></stop></linearGradient><linearGradient id="paint7_linear_11_24288" x1="47.7332" y1="82.0424" x2="47.7332" y2="26.6902" gradientUnits="userSpaceOnUse"><stop offset="0.251" stop-color="#D8D8D8"></stop><stop offset="0.7922" stop-color="#9E9E9E"></stop></linearGradient><linearGradient id="paint8_linear_11_24288" x1="47.7333" y1="81.8252" x2="47.7333" y2="26.9077" gradientUnits="userSpaceOnUse"><stop offset="0.251" stop-color="#D9D9D9"></stop><stop offset="0.7922" stop-color="#979797"></stop></linearGradient><linearGradient id="paint9_linear_11_24288" x1="47.7333" y1="81.6076" x2="47.7333" y2="27.1248" gradientUnits="userSpaceOnUse"><stop offset="0.251" stop-color="#DBDBDB"></stop><stop offset="0.7922" stop-color="#919191"></stop></linearGradient><linearGradient id="paint10_linear_11_24288" x1="47.7333" y1="81.3906" x2="47.7333" y2="27.3425" gradientUnits="userSpaceOnUse"><stop offset="0.251" stop-color="#DCDCDC"></stop><stop offset="0.7922" stop-color="#8A8A8A"></stop></linearGradient><linearGradient id="paint11_linear_11_24288" x1="47.7334" y1="81.1729" x2="47.7334" y2="27.5595" gradientUnits="userSpaceOnUse"><stop offset="0.251" stop-color="#DEDEDE"></stop><stop offset="0.7922" stop-color="#848484"></stop></linearGradient><linearGradient id="paint12_linear_11_24288" x1="47.7333" y1="80.9555" x2="47.7333" y2="27.7769" gradientUnits="userSpaceOnUse"><stop offset="0.251" stop-color="#E0E0E0"></stop><stop offset="0.7922" stop-color="#7D7D7D"></stop></linearGradient><linearGradient id="paint13_linear_11_24288" x1="47.7334" y1="80.7381" x2="47.7334" y2="27.9942" gradientUnits="userSpaceOnUse"><stop offset="0.251" stop-color="#E1E1E1"></stop><stop offset="0.7922" stop-color="#767676"></stop></linearGradient><linearGradient id="paint14_linear_11_24288" x1="47.7334" y1="80.5209" x2="47.7334" y2="28.2116" gradientUnits="userSpaceOnUse"><stop offset="0.251" stop-color="#E3E3E3"></stop><stop offset="0.7922" stop-color="#707070"></stop></linearGradient><linearGradient id="paint15_linear_11_24288" x1="47.7334" y1="80.3035" x2="47.7334" y2="28.429" gradientUnits="userSpaceOnUse"><stop offset="0.251" stop-color="#E5E5E5"></stop><stop offset="0.7922" stop-color="#696969"></stop></linearGradient><linearGradient id="paint16_linear_11_24288" x1="47.7333" y1="80.0863" x2="47.7333" y2="28.6465" gradientUnits="userSpaceOnUse"><stop offset="0.251" stop-color="#E6E6E6"></stop><stop offset="0.7922" stop-color="#636363"></stop></linearGradient><linearGradient id="paint17_linear_11_24288" x1="47.7334" y1="79.8689" x2="47.7334" y2="28.8637" gradientUnits="userSpaceOnUse"><stop offset="0.251" stop-color="#E8E8E8"></stop><stop offset="0.7922" stop-color="#5C5C5C"></stop></linearGradient><linearGradient id="paint18_linear_11_24288" x1="47.7333" y1="79.6516" x2="47.7333" y2="29.0811" gradientUnits="userSpaceOnUse"><stop offset="0.251" stop-color="#EAEAEA"></stop><stop offset="0.7922" stop-color="#565656"></stop></linearGradient><linearGradient id="paint19_linear_11_24288" x1="47.7334" y1="79.4343" x2="47.7334" y2="29.2986" gradientUnits="userSpaceOnUse"><stop offset="0.251" stop-color="#EBEBEB"></stop><stop offset="0.7922" stop-color="#4F4F4F"></stop></linearGradient><linearGradient id="paint20_linear_11_24288" x1="47.7333" y1="79.2169" x2="47.7333" y2="29.5158" gradientUnits="userSpaceOnUse"><stop offset="0.251" stop-color="#EDEDED"></stop><stop offset="0.7922" stop-color="#484848"></stop></linearGradient><linearGradient id="paint21_linear_11_24288" x1="47.7334" y1="78.9996" x2="47.7334" y2="29.7332" gradientUnits="userSpaceOnUse"><stop offset="0.251" stop-color="#EFEFEF"></stop><stop offset="0.7922" stop-color="#424242"></stop></linearGradient><linearGradient id="paint22_linear_11_24288" x1="47.7332" y1="78.7821" x2="47.7332" y2="29.9505" gradientUnits="userSpaceOnUse"><stop offset="0.251" stop-color="#F0F0F0"></stop><stop offset="0.7922" stop-color="#3B3B3B"></stop></linearGradient><linearGradient id="paint23_linear_11_24288" x1="47.7333" y1="78.5649" x2="47.7333" y2="30.1679" gradientUnits="userSpaceOnUse"><stop offset="0.251" stop-color="#F2F2F2"></stop><stop offset="0.7922" stop-color="#353535"></stop></linearGradient><linearGradient id="paint24_linear_11_24288" x1="47.7334" y1="78.3475" x2="47.7334" y2="30.3853" gradientUnits="userSpaceOnUse"><stop offset="0.251" stop-color="#F3F3F3"></stop><stop offset="0.7922" stop-color="#2E2E2E"></stop></linearGradient><linearGradient id="paint25_linear_11_24288" x1="47.7333" y1="78.1301" x2="47.7333" y2="30.6025" gradientUnits="userSpaceOnUse"><stop offset="0.251" stop-color="#F5F5F5"></stop><stop offset="0.7922" stop-color="#272727"></stop></linearGradient><linearGradient id="paint26_linear_11_24288" x1="47.7333" y1="77.9126" x2="47.7333" y2="30.8198" gradientUnits="userSpaceOnUse"><stop offset="0.251" stop-color="#F7F7F7"></stop><stop offset="0.7922" stop-color="#212121"></stop></linearGradient><linearGradient id="paint27_linear_11_24288" x1="47.7333" y1="77.6953" x2="47.7333" y2="31.0372" gradientUnits="userSpaceOnUse"><stop offset="0.251" stop-color="#F8F8F8"></stop><stop offset="0.7922" stop-color="#1A1A1A"></stop></linearGradient><linearGradient id="paint28_linear_11_24288" x1="47.7334" y1="77.478" x2="47.7334" y2="31.2547" gradientUnits="userSpaceOnUse"><stop offset="0.251" stop-color="#FAFAFA"></stop><stop offset="0.7922" stop-color="#141414"></stop></linearGradient><linearGradient id="paint29_linear_11_24288" x1="47.7333" y1="77.2606" x2="47.7333" y2="31.4719" gradientUnits="userSpaceOnUse"><stop offset="0.251" stop-color="#FCFCFC"></stop><stop offset="0.7922" stop-color="#0D0D0D"></stop></linearGradient><linearGradient id="paint30_linear_11_24288" x1="47.7334" y1="77.0433" x2="47.7334" y2="31.6893" gradientUnits="userSpaceOnUse"><stop offset="0.251" stop-color="#FDFDFD"></stop><stop offset="0.7922" stop-color="#070707"></stop></linearGradient><linearGradient id="paint31_linear_11_24288" x1="47.7332" y1="76.8258" x2="47.7332" y2="31.9065" gradientUnits="userSpaceOnUse"><stop offset="0.251" stop-color="white"></stop><stop offset="0.7922"></stop></linearGradient><clipPath id="clip0_11_24288"><rect width="38" height="38" fill="white" transform="translate(29 35)"></rect></clipPath></defs></svg> 