<?xml version="1.0" encoding="UTF-8"?> <svg xmlns="http://www.w3.org/2000/svg" width="71" height="189" viewBox="0 0 71 189" fill="none"><path d="M0.587969 2.58028C-0.632557 3.72155 3.73176 125.299 3.73176 125.299C3.73176 125.299 3.86913 188.322 3.73176 187.693C3.59438 187.065 69.4288 185.987 69.4288 185.987L68.277 124.617C68.277 124.617 65.3023 13.8873 64.8268 12.2388C64.3512 10.5903 55.1048 1.87227 55.1048 1.87227L15.9898 0.598907L0.58268 2.57499L0.587969 2.58028Z" fill="#2B3A4C"></path><path d="M48.7115 101.205C35.3597 100.65 22.0026 100.302 8.6402 100.164C4.56121 100.122 4.55593 106.462 8.6402 106.505C22.0026 106.642 35.3597 106.991 48.7115 107.546C52.7905 107.715 52.7852 101.374 48.7115 101.205Z" fill="#3579BC"></path><path d="M49.4988 113.727C36.6806 113.136 23.8572 113.263 11.0548 114.113C7.00227 114.383 6.97585 120.723 11.0548 120.454C23.8572 119.603 36.6859 119.476 49.4988 120.068C53.5778 120.258 53.5672 113.918 49.4988 113.727Z" fill="#3579BC"></path><path d="M48.347 127.211C36.3266 126.303 24.2006 128.791 12.2278 127.042C8.23865 126.461 6.51089 132.569 10.5423 133.155C23.1333 134.989 35.7243 132.595 48.347 133.552C52.4154 133.858 52.3995 127.518 48.347 127.211Z" fill="#3579BC"></path><path d="M49.8316 141.588C36.8866 141.097 23.9364 141.092 10.9914 141.572C6.92295 141.726 6.90182 148.066 10.9914 147.913C23.9364 147.432 36.8919 147.437 49.8316 147.929C53.9106 148.082 53.9053 141.741 49.8316 141.588Z" fill="#3579BC"></path><path d="M47.38 153.112C36.168 153.133 24.9667 153.476 13.7706 154.132C9.71274 154.369 9.68632 160.71 13.7706 160.472C24.9614 159.817 36.168 159.473 47.38 159.452C51.459 159.442 51.4642 153.101 47.38 153.112Z" fill="#3579BC"></path><path d="M44.9285 165.164C33.9807 165.275 23.0488 165.883 12.1539 166.982C8.13303 167.388 8.09076 173.734 12.1539 173.322C23.0488 172.223 33.9807 171.615 44.9285 171.504C49.0075 171.462 49.018 165.122 44.9285 165.164Z" fill="#3579BC"></path><path d="M31.1433 177.829C24.2746 176.888 17.5221 177.147 10.7748 178.796C6.81206 179.763 8.49227 185.881 12.4603 184.909C18.0187 183.551 23.7779 183.165 29.4579 183.942C31.1698 184.175 32.8394 183.53 33.3572 181.728C33.7799 180.254 32.8394 178.061 31.1433 177.829Z" fill="#3579BC"></path><path d="M65.6352 23.3821C64.5626 21.5645 63.1255 20.1115 61.3977 18.9227C60.0292 17.9769 57.8207 18.6215 57.0598 20.0587C56.2091 21.6755 56.7375 23.3874 58.1958 24.3966C58.2275 24.4177 58.312 24.4811 58.3913 24.5339C58.4388 24.5709 58.4864 24.6132 58.5075 24.6291C58.7823 24.8668 59.0465 25.1204 59.2948 25.3846C59.3899 25.485 59.4797 25.5907 59.5696 25.6963C59.5696 25.6858 59.5643 25.6805 59.5643 25.6699C59.5643 25.6805 59.5696 25.6911 59.5696 25.6963C59.5696 25.6963 59.5801 25.7069 59.5854 25.7122C59.8971 26.0768 59.6647 25.9447 59.5854 25.7545C59.6805 26.0081 60.0398 26.3832 60.156 26.584C61.0014 28.0106 63.0515 28.6499 64.4939 27.72C65.9311 26.7954 66.5334 24.9091 65.6299 23.3821H65.6352Z" fill="#3579BC"></path><path d="M59.5696 25.6964C59.5696 25.6964 59.5748 25.7331 59.5853 25.7541C59.5801 25.7331 59.5748 25.7174 59.5696 25.6964Z" fill="#3579BC"></path><path d="M65.0645 34.6151C64.8637 34.4989 64.6682 34.3827 64.4727 34.2559C64.367 34.1872 64.2455 34.1026 64.1927 34.0656C63.8862 33.812 63.5903 33.5373 63.3103 33.252C63.1835 33.1199 63.062 32.9772 62.9404 32.8398C62.9087 32.8028 62.8823 32.7764 62.8612 32.75C62.8559 32.7394 62.8506 32.7342 62.8453 32.7183C62.5759 32.285 62.2958 31.8729 62.0581 31.4185C61.2866 29.9497 59.1151 29.3843 57.7202 30.2825C56.2249 31.2494 55.7599 33.0459 56.5842 34.6204C57.7783 36.8977 59.6487 38.7998 61.8678 40.0943C63.2997 40.9291 65.4026 40.4694 66.2057 38.9583C67.0088 37.4419 66.5967 35.5134 65.0697 34.6204L65.0645 34.6151Z" fill="#3579BC"></path><path d="M68.5834 52.0248C67.4315 49.7264 65.5453 47.8032 63.3155 46.5404C61.8731 45.7267 59.7861 46.1494 58.9777 47.6764C58.1851 49.1769 58.5708 51.1424 60.1136 52.0142C60.4201 52.1886 60.716 52.3788 61.0066 52.5796C61.0119 52.5954 61.35 52.8596 61.4029 52.9072C61.5667 53.0551 61.7199 53.2136 61.8731 53.3721C62.0052 53.5095 62.1267 53.6575 62.2535 53.8001C62.2905 53.8477 62.3328 53.9058 62.3751 53.9639C62.6498 54.3655 62.8876 54.7882 63.1042 55.2214C63.8492 56.7061 66.0683 57.2451 67.4421 56.3574C68.9638 55.3799 69.3759 53.6099 68.5781 52.0195L68.5834 52.0248Z" fill="#3579BC"></path><path d="M68.3615 65.6303C67.2573 64.5788 66.153 63.5221 65.0487 62.4706C63.8493 61.3241 61.7411 61.1867 60.5629 62.4706C59.4216 63.7123 59.2842 65.7306 60.5629 66.9565C61.6671 68.0079 62.7714 69.0646 63.8757 70.1161C65.0751 71.2626 67.1833 71.4 68.3615 70.1161C69.5028 68.8744 69.6402 66.8561 68.3615 65.6303Z" fill="#3579BC"></path><path d="M67.7222 77.2543C66.4224 75.8489 64.9694 74.6231 63.2892 73.598C61.8731 72.7315 59.7438 73.2387 58.9513 74.734C58.1376 76.2768 58.5761 78.1473 60.0873 79.0719C60.51 79.3308 60.9274 79.6003 61.3342 79.8909C61.3765 79.9173 61.3976 79.9331 61.4187 79.949C61.4399 79.9648 61.4504 79.9754 61.4821 80.0018C61.6935 80.1762 61.9048 80.3558 62.1109 80.5408C62.4385 80.8367 62.7555 81.1484 63.0567 81.4654C63.2469 81.6662 63.4318 81.8722 63.6115 82.0836C63.659 82.1364 64.0817 82.6701 63.8387 82.3478C64.6893 83.4679 66.1054 84.2288 67.4685 83.8113C67.2678 81.6292 67.2783 79.3942 67.7222 77.2543Z" fill="#3579BC"></path><path d="M67.4633 94.31C67.495 93.8186 67.5372 93.3272 67.5901 92.8306C66.6654 91.6735 65.7461 90.5163 64.8214 89.3592C63.7805 88.0541 61.4082 88.1968 60.3356 89.3592C59.0675 90.7435 59.226 92.4502 60.3356 93.8451C61.4663 95.2611 62.597 96.6771 63.7224 98.0931C64.5572 99.1446 66.2639 99.2555 67.4527 98.6532C67.384 97.2055 67.3629 95.7577 67.4527 94.31H67.4633Z" fill="#3579BC"></path><path d="M67.9388 107.091C67.9388 106.822 67.9229 106.552 67.9123 106.283C67.2096 105.422 66.5069 104.566 65.8042 103.704C64.721 102.378 62.449 102.579 61.3183 103.704C60.008 105.015 60.2299 106.859 61.3183 108.19C62.7185 109.902 64.1187 111.614 65.5189 113.326C66.0842 114.018 66.9771 114.293 67.8595 114.235C67.6904 111.852 67.6429 109.469 67.9335 107.096L67.9388 107.091Z" fill="#3579BC"></path><path d="M68.7577 128.612C68.7577 128.184 68.9849 127.793 69.323 127.56C69.323 127.354 69.3178 127.148 69.3125 126.942C68.9902 126.746 68.763 126.403 68.7577 125.912C68.7577 124.686 68.689 123.46 68.5992 122.229C67.7221 121.288 66.7605 120.443 65.6826 119.65C64.3406 118.668 62.0897 119.381 61.3447 120.786C60.4729 122.435 61.0488 124.073 62.4807 125.124C62.5071 125.145 62.5177 125.151 62.5388 125.167C62.6603 125.272 62.7819 125.367 62.9034 125.473C63.2151 125.743 63.5163 126.028 63.8016 126.318C64.0605 126.583 64.3036 126.863 64.5466 127.143C64.5889 127.19 64.6153 127.222 64.6417 127.243C64.7474 127.386 64.8531 127.539 64.9482 127.682C65.7883 128.886 67.3575 129.615 68.7577 129.082C68.7577 128.923 68.7577 128.765 68.7577 128.606V128.612Z" fill="#3579BC"></path><path d="M68.8318 136.479C68.2453 135.776 67.6588 135.068 67.0723 134.365C66.005 133.087 63.6749 133.182 62.5865 134.365C61.3395 135.723 61.4505 137.483 62.5865 138.851C63.9338 140.468 65.2811 142.09 66.6338 143.707C67.2625 144.463 68.3351 144.737 69.3284 144.589C69.0431 141.895 68.9004 139.189 68.8318 136.479Z" fill="#3579BC"></path><path d="M69.0167 152.214C67.96 151.115 66.9032 150.016 65.8465 148.911C64.6946 147.712 62.5072 147.664 61.3606 148.911C60.1824 150.195 60.1296 152.119 61.3606 153.397C62.4174 154.496 63.4741 155.595 64.5308 156.7C65.6827 157.899 67.8701 157.947 69.0167 156.7C70.1949 155.416 70.2478 153.492 69.0167 152.214Z" fill="#3579BC"></path><path d="M69.2386 166.11C69.2386 165.925 69.2387 165.74 69.2334 165.555L67.8755 163.864C66.8346 162.564 64.4622 162.696 63.3896 163.864C62.1216 165.243 62.2748 166.96 63.3896 168.35L67.3471 173.28C67.8807 173.945 68.7631 174.231 69.6349 174.199C69.413 171.51 69.2915 168.81 69.2334 166.11H69.2386Z" fill="#3579BC"></path><path d="M8.51343 16.0695C7.82127 17.4591 10.5001 91.9588 10.5001 91.9588C10.5001 91.9588 51.105 91.8795 51.3904 91.1239C51.6757 90.3684 53.0441 84.2446 52.8909 82.818C52.7377 81.3914 53.171 17.6387 53.171 17.6387C53.171 17.6387 38.9526 14.6905 30.7894 14.4844C22.6261 14.2783 8.51871 16.0642 8.51871 16.0642L8.51343 16.0695Z" fill="#424242"></path><path d="M47.3695 68.029C47.3272 68.0132 47.2796 68.0026 47.2374 67.9868C47.2268 67.8336 47.1845 67.6803 47.0894 67.5535C42.4504 61.3716 38.1706 54.9308 34.266 48.2629C34.2078 48.1677 34.1444 48.0885 34.0705 48.0198C35.0427 46.8944 36.0149 45.7637 36.9871 44.6383C37.3305 44.3212 37.6687 43.9937 37.9857 43.6502C38.5774 43.0056 39.1111 42.3082 39.6131 41.5896C41.6631 39.212 43.7132 36.8343 45.7632 34.4567C46.0221 34.1555 46.2705 33.849 46.5822 33.4844C45.7579 33.4844 45.0129 33.4739 44.2732 33.495C44.1094 33.495 43.9034 33.5901 43.7977 33.7117C43.7237 33.7962 43.655 33.8754 43.5811 33.96C43.1372 33.5162 42.3183 33.4105 41.9009 34.1132C41.1347 35.3918 40.3475 36.6599 39.5338 37.9122C38.7148 39.1697 37.9117 40.48 36.9501 41.6372C35.5393 43.3332 33.7482 44.6488 32.1367 46.1494C31.7668 45.5418 31.2437 45.0293 30.9954 44.3424C30.7893 43.7717 30.6308 43.1958 30.3614 42.6463C30.1025 42.118 29.7537 41.6371 29.3997 41.1669C27.8516 39.101 26.2824 37.0509 24.729 34.9956C24.4912 34.6786 24.1425 34.4778 23.7779 34.4778C23.7356 34.3985 23.6828 34.3246 23.6405 34.2506C23.482 33.9705 23.1914 33.7962 22.885 33.7486C22.7476 33.5743 22.5891 33.4633 22.3091 33.4686C19.2604 33.4897 16.2117 33.4845 13.163 33.4897C13.0045 33.4897 12.8513 33.5056 12.6505 33.5109C13.4166 34.6099 14.1405 35.6508 14.8644 36.6864C18.6686 42.1338 22.4675 47.5866 26.2771 53.0287C25.8914 53.5254 25.5057 54.0273 25.1199 54.524C23.9047 56.1091 22.7846 57.7576 21.6433 59.3955C19.123 62.3174 16.6027 65.2446 14.0824 68.1664C13.8446 68.3831 13.6068 68.6102 13.3638 68.8216C13.1577 69.0012 13.0573 69.202 13.0309 69.4028C12.9411 69.5138 12.846 69.6353 12.7403 69.7727C12.8513 69.7727 12.9517 69.7727 13.0573 69.7727C13.2528 70.4278 14.1616 70.9245 14.8591 70.3169C17.0518 68.4095 19.0702 66.3066 20.8666 64.0187C21.9181 62.682 22.8797 61.2818 23.8466 59.8869C24.9456 58.6136 26.0393 57.3402 27.1383 56.0668C27.7724 55.3324 27.8727 55.3377 28.4275 56.1355C31.5079 60.5527 34.583 64.9698 37.6475 69.3922C37.8483 69.6828 38.0544 69.7832 38.3925 69.7832C40.8811 69.7727 43.3697 69.7832 45.8636 69.7832C46.1754 69.873 46.4871 69.9734 46.7988 70.0844C47.2691 70.2535 47.6389 70.0844 47.8556 69.7832H47.9665C47.9454 69.7251 47.9348 69.6934 47.9242 69.6723C48.2201 69.1386 48.1092 68.3144 47.3589 68.0449L47.3695 68.029ZM23.408 43.2223C22.4676 41.7692 21.4795 40.3479 20.3858 39.0006C19.4559 37.854 18.4467 36.792 17.8285 35.4394C18.3199 35.4394 18.8113 35.4394 19.3026 35.4394C19.905 35.4394 20.5126 35.4183 21.1149 35.45C21.284 35.4605 21.5059 35.5768 21.6063 35.7142C23.1703 37.9491 24.729 40.1841 26.2876 42.4191C26.3035 42.4403 26.3193 42.4667 26.3352 42.4878C27.6455 44.3635 28.9559 46.2392 30.2662 48.1149C29.553 48.9392 28.8555 49.7846 28.1633 50.6299C26.573 48.1625 24.9984 45.6844 23.4028 43.2223H23.408ZM42.7938 67.1044C42.0594 67.0621 41.325 67.078 40.5958 67.152C40.2946 67.1784 39.9935 67.2154 39.6976 67.2523C39.4492 67.284 39.3911 67.0886 39.1534 66.761C37.3146 64.209 35.5024 61.6358 33.727 59.0415C32.3691 57.0602 31.0482 55.0524 29.7379 53.0446C29.7484 53.0287 29.759 53.0182 29.7749 53.0023C30.3455 52.3524 30.9108 51.6972 31.4762 51.0421C31.8355 50.6352 32.0204 50.6299 32.3322 51.0791C33.6002 52.8808 34.8577 54.6931 36.1153 56.5001C38.5986 60.056 41.0819 63.6119 43.5599 67.1731C43.3063 67.1467 43.0474 67.1203 42.7938 67.1044Z" fill="white"></path><path d="M0.0490112 3.34113C0.0542949 16.3759 0.80985 29.3896 1.45974 42.4033C2.09906 55.3482 2.41609 68.2721 2.27872 81.2329C2.14134 94.2096 1.79789 107.186 1.67108 120.168C1.60768 126.63 1.59184 133.087 1.68695 139.549C1.7345 142.719 1.75563 145.894 1.94585 149.059C2.13606 152.235 2.49006 155.4 2.72254 158.57C3.02371 162.733 2.87577 166.855 2.67499 171.013C2.52177 174.178 2.49535 177.448 1.95113 180.576C1.91415 180.788 1.87188 180.999 1.81904 181.21C1.74507 181.501 1.72921 181.348 1.97755 181.168C1.15858 181.76 1.95113 183.134 2.77538 182.537C3.52038 181.998 3.53095 180.751 3.63134 179.926C3.83211 178.31 3.94307 176.677 4.04346 175.05C4.24424 171.853 4.43445 168.641 4.51899 165.439C4.68806 159.04 3.58906 152.694 3.4147 146.312C3.23506 139.76 3.19279 133.203 3.21921 126.646C3.26676 113.548 3.60492 100.455 3.79513 87.3619C3.99062 74.1792 3.91665 61.0282 3.31431 47.856C2.71197 34.6838 1.86131 21.4905 1.68166 8.29192C1.66053 6.64341 1.64996 4.99492 1.64467 3.34641C1.64467 2.32667 0.0595728 2.32667 0.0595728 3.34641L0.0490112 3.34113Z" fill="black"></path><path d="M1.20617 4.16539C4.61413 2.48518 8.60858 1.95681 12.3494 1.7032C16.2171 1.43901 20.016 1.72434 23.8731 1.98852C30.8422 2.46405 37.8537 2.45877 44.8334 2.52218C48.2572 2.55388 51.6863 2.56972 55.1101 2.65954C56.1299 2.68596 56.1299 1.10087 55.1101 1.07445C48.3523 0.894804 41.5892 0.937069 34.8314 0.804977C31.4182 0.741573 28.0049 0.657038 24.5969 0.445692C20.8297 0.21321 17.1206 -0.135514 13.3375 0.0546975C8.97843 0.271328 4.36579 0.836676 0.403041 2.79163C-0.511032 3.24074 0.29209 4.60921 1.20088 4.1601L1.20617 4.16539Z" fill="black"></path><path d="M54.1642 2.27913C55.073 5.11118 54.9673 8.15458 54.8405 11.0923C54.6979 14.3101 54.6186 17.4961 54.719 20.7191C54.8247 24.1799 55.1259 27.6196 55.4006 31.0698C55.6754 34.5201 55.4217 38.1394 55.4693 41.6741C55.5116 44.5537 55.7705 47.4386 55.8444 50.3235C55.9448 54.4606 56.0188 58.5924 56.0928 62.7295C56.1984 68.6261 56.2883 74.5227 56.3781 80.4193C56.4838 87.4465 56.5842 94.4791 56.6793 101.506C56.7796 108.946 56.88 116.385 56.9699 123.83C57.0597 131.275 57.1495 138.275 57.2393 145.498C57.3133 151.844 57.3926 158.19 57.4612 164.53C57.5141 169.354 57.5722 174.178 57.6198 179.002C57.6462 181.601 57.6779 184.206 57.6937 186.811C57.6937 187.038 57.6937 187.266 57.6937 187.493C57.6937 188.512 59.2788 188.512 59.2788 187.493C59.2788 185.517 59.2471 183.535 59.226 181.559C59.1837 177.205 59.1362 172.852 59.0833 168.493C59.0146 162.459 58.9459 156.42 58.872 150.386C58.7874 143.284 58.7029 136.178 58.6131 129.077C58.518 121.627 58.4229 114.182 58.3225 106.732C58.2274 99.5408 58.127 92.3445 58.0213 85.1534C57.9315 78.9134 57.8364 72.6734 57.7307 66.4387C57.6514 61.8208 57.5722 57.2028 57.4718 52.5849C57.419 50.2654 57.4137 47.93 57.2605 45.6105C56.917 40.4695 57.3714 35.3073 56.8906 30.1769C56.5683 26.7372 56.3517 23.287 56.2618 19.8315C56.1826 16.6454 56.3252 13.4964 56.4415 10.3156C56.5472 7.49412 56.5472 4.58282 55.6806 1.8723C55.3689 0.905388 53.8419 1.31751 54.1537 2.29499L54.1642 2.27913Z" fill="black"></path><path d="M56.1457 3.14036C57.9157 4.82585 59.4427 6.80723 60.9908 8.69878C62.5389 10.5903 64.0712 12.4819 65.5242 14.4263C65.7831 14.7697 66.2058 14.9388 66.6073 14.7116C66.9455 14.5161 67.1463 13.9719 66.8926 13.6284C65.3868 11.6101 63.7964 9.64455 62.206 7.69487C60.6315 5.76634 59.0728 3.7427 57.2711 2.02551C56.5314 1.32278 55.4112 2.44292 56.151 3.14565L56.1457 3.14036Z" fill="black"></path><path d="M65.3076 14.2572C65.297 17.0628 65.3446 19.8631 65.3815 22.6688C65.4449 27.2814 65.5295 31.8993 65.614 36.512C65.725 42.4719 65.8465 48.4266 65.968 54.3866C66.1107 61.3029 66.2586 68.2192 66.4066 75.1303C66.5651 82.538 66.7289 89.9457 66.8874 97.3586C67.0512 104.793 67.2097 112.222 67.3735 119.656C67.5267 126.736 67.6799 133.816 67.8279 140.896C67.96 147.152 68.092 153.408 68.2136 159.664C68.314 164.657 68.4091 169.65 68.4936 174.643C68.5464 177.924 68.6046 181.205 68.6257 184.486C68.6257 184.988 68.631 185.485 68.631 185.987C68.631 187.007 70.2161 187.007 70.2161 185.987C70.2161 183.176 70.1685 180.36 70.1263 177.549C70.0576 172.926 69.9678 168.302 69.8779 163.679C69.7617 157.714 69.6402 151.754 69.5186 145.789C69.376 138.872 69.228 131.951 69.0748 125.034C68.9163 117.621 68.7525 110.214 68.5887 102.801C68.4249 95.372 68.2664 87.9379 68.1026 80.509C67.9494 73.4342 67.7962 66.3541 67.6482 59.2793C67.5161 53.0287 67.3893 46.7781 67.2678 40.5223C67.1727 35.5345 67.0776 30.552 66.9983 25.5642C66.9455 22.2936 66.8927 19.023 66.8821 15.7524C66.8821 15.2558 66.8821 14.7591 66.8821 14.2625C66.8821 13.2427 65.3023 13.2427 65.297 14.2625L65.3076 14.2572Z" fill="black"></path><path d="M7.41446 18.5739C6.90194 22.9277 8.31797 27.218 8.70367 31.5242C9.14222 36.4433 8.45006 41.3835 8.68782 46.3079C9.18449 56.5107 9.17919 66.724 9.18447 76.9373C9.18447 79.6425 9.08409 82.3478 9.14221 85.0477C9.16863 86.3475 9.24788 87.6473 9.41696 88.9365C9.5332 89.8294 9.48564 91.8161 10.722 91.9112C11.1711 91.9429 11.4829 91.5202 11.5146 91.1187C11.5199 91.05 11.5146 90.9601 11.4934 90.8967C11.43 90.7118 11.5885 90.8122 11.4195 91.087C11.9478 90.2099 10.5794 89.412 10.051 90.2891C9.95061 90.4529 9.90306 90.6273 9.90306 90.8228C9.90306 90.9602 9.92947 91.1239 9.92947 91.1187L10.722 90.3261H10.6956C10.8805 90.4001 11.0707 90.4793 11.2557 90.5586C11.1764 90.4688 11.1659 89.9932 11.1394 89.84C11.0866 89.5547 11.0443 89.2641 11.0021 88.9735C10.9228 88.3923 10.8647 87.8111 10.8224 87.2299C10.7379 86.0992 10.7115 84.9685 10.7115 83.8378C10.7115 81.4918 10.7696 79.1512 10.7696 76.8052C10.7696 71.8439 10.7696 66.8878 10.7115 61.9264C10.6533 57.0232 10.5424 52.1252 10.3152 47.2273C10.2042 44.8285 10.1989 42.4455 10.294 40.0468C10.3839 37.6797 10.4948 35.3073 10.3839 32.9349C10.1514 28.1479 8.43421 23.3874 8.99956 18.5739C9.1158 17.5648 7.5307 17.57 7.41446 18.5739Z" fill="black"></path><path d="M8.12776 17.2002C8.17532 17.1051 8.19118 17.1051 8.17004 17.1209C8.29157 17.0522 8.50291 16.9201 8.56103 16.899C8.97315 16.7194 9.43284 16.6243 9.87138 16.5344C11.0285 16.2967 12.2173 16.2016 13.3956 16.1223C15.657 15.9691 17.9184 15.948 20.1745 15.6785C22.3408 15.4196 24.523 15.2135 26.7051 15.1713C28.9084 15.1237 31.08 15.335 33.2727 15.5041C37.5895 15.8317 41.9221 15.9268 46.2283 16.3548C47.3484 16.4658 48.4686 16.5978 49.5834 16.7669C50.2544 16.8673 50.9624 16.9677 51.5965 17.2319C52.3573 17.5489 52.5475 17.9663 52.5687 18.7377C52.6057 20.0164 52.389 21.3056 52.3468 22.5842C52.2675 24.7822 52.3785 26.9855 52.4894 29.1835C52.6004 31.3815 52.6902 33.5901 52.6004 35.7934C52.5106 37.9967 52.426 40.2053 52.3573 42.4085C52.22 46.8363 52.1407 51.264 52.1143 55.697C52.0879 60.1247 52.0931 64.5524 52.0931 68.9801C52.0931 71.12 52.0826 73.2652 52.1407 75.405C52.1988 77.4181 52.2834 79.4365 52.1196 81.4443C52.0403 82.4429 51.8818 83.4256 51.6229 84.3925C51.364 85.3594 52.891 85.798 53.1499 84.8152C54.2172 80.7838 53.6994 76.4935 53.6782 72.3775C53.6571 67.7279 53.6888 63.073 53.6835 58.4233C53.6835 53.8265 53.7469 49.2245 53.8685 44.6277C53.99 40.0309 54.3334 35.4552 54.1432 30.8743C54.0481 28.5442 53.8843 26.2194 53.8949 23.884C53.9054 22.3148 54.0957 20.7666 54.1432 19.2027C54.1696 18.2411 54.0481 17.2319 53.3401 16.5133C52.4207 15.5834 50.9624 15.3879 49.7366 15.203C45.2931 14.5478 40.8072 14.3787 36.332 14.1198C34.0177 13.9877 31.7088 13.7182 29.3892 13.6126C27.1225 13.5122 24.8506 13.6231 22.5944 13.8345C21.0675 13.9772 19.551 14.2255 18.0188 14.31C16.8511 14.3734 15.6781 14.4104 14.5104 14.4738C13.1842 14.5425 11.8528 14.6429 10.5371 14.8278C9.53852 14.9652 8.4395 15.129 7.55185 15.6362C7.22954 15.8211 6.92309 16.0748 6.74873 16.4076C6.27849 17.3111 7.64695 18.1142 8.1172 17.2055L8.12776 17.2002Z" fill="black"></path><path d="M10.4367 89.9827C11.2187 90.8386 12.4656 91.0711 13.5646 91.2032C14.9014 91.367 16.254 91.3406 17.5961 91.33C21.2312 91.293 24.8505 91.9799 28.4646 92.2969C32.7126 92.672 36.9343 92.503 41.1771 92.0908C42.8097 91.9323 44.3842 91.9852 46.0222 92.0591C47.4963 92.1225 49.1343 92.2176 50.5344 91.647C53.8526 90.2997 52.146 86.4532 52.1724 83.8325C52.1829 82.8127 50.5978 82.8127 50.5873 83.8325C50.5767 85.1111 50.9096 86.3528 51.0152 87.6209C51.0998 88.6512 51.0469 89.7343 49.9585 90.1834C48.7063 90.696 47.1476 90.5269 45.832 90.4635C44.3525 90.3948 42.9101 90.3367 41.436 90.4793C37.5525 90.8598 33.6584 91.0869 29.7591 90.8122C27.746 90.6695 25.7435 90.4318 23.741 90.2046C22.0819 90.0144 20.3964 89.7607 18.7268 89.7396C17.3794 89.7238 16.0374 89.7872 14.6901 89.7132C13.7231 89.6604 12.2807 89.6339 11.5674 88.8572C10.8541 88.0805 9.75511 89.2271 10.4473 89.9774L10.4367 89.9827Z" fill="black"></path></svg> 