<?xml version="1.0" encoding="UTF-8"?> <svg xmlns="http://www.w3.org/2000/svg" width="1200" height="712" viewBox="0 0 1200 712" fill="none"><mask id="mask0_17_30809" style="mask-type:luminance" maskUnits="userSpaceOnUse" x="0" y="0" width="1200" height="712"><path d="M1200 0H0V712H1200V0Z" fill="white"></path></mask><g mask="url(#mask0_17_30809)"><path d="M-97.5552 715.895L1244.9 715.895V-80.3237L-97.5552 -80.3237V715.895Z" fill="url(#paint0_linear_17_30809)"></path><path fill-rule="evenodd" clip-rule="evenodd" d="M627.956 142.942C627.956 143.587 627.647 144.12 627.262 144.12C626.877 144.12 626.568 143.595 626.568 142.942C626.568 142.288 626.877 141.764 627.262 141.764C627.647 141.764 627.956 142.288 627.956 142.942Z" fill="#09B9EA"></path><path fill-rule="evenodd" clip-rule="evenodd" d="M614.528 269.313C614.528 269.958 614.219 270.491 613.834 270.491C613.449 270.491 613.14 269.967 613.14 269.313C613.14 268.66 613.449 268.135 613.834 268.135C614.219 268.135 614.528 268.66 614.528 269.313Z" fill="#09B9EA"></path><path fill-rule="evenodd" clip-rule="evenodd" d="M557.202 330.951C557.202 331.596 556.893 332.129 556.508 332.129C556.123 332.129 555.814 331.605 555.814 330.951C555.814 330.298 556.123 329.773 556.508 329.773C556.893 329.773 557.202 330.298 557.202 330.951Z" fill="#09B9EA"></path><path fill-rule="evenodd" clip-rule="evenodd" d="M576.785 474.933C576.785 475.578 576.476 476.111 576.091 476.111C575.706 476.111 575.397 475.587 575.397 474.933C575.397 474.28 575.706 473.755 576.091 473.755C576.476 473.755 576.785 474.28 576.785 474.933Z" fill="#09B9EA"></path><path fill-rule="evenodd" clip-rule="evenodd" d="M343.593 543.554C343.593 544.199 343.284 544.732 342.899 544.732C342.514 544.732 342.205 544.207 342.205 543.554C342.205 542.9 342.514 542.376 342.899 542.376C343.284 542.376 343.593 542.9 343.593 543.554Z" fill="#0970C0"></path><path fill-rule="evenodd" clip-rule="evenodd" d="M513.629 282.848C513.629 283.493 513.32 284.026 512.935 284.026C512.55 284.026 512.241 283.502 512.241 282.848C512.241 282.195 512.55 281.67 512.935 281.67C513.32 281.67 513.629 282.195 513.629 282.848Z" fill="#0970C0"></path><path fill-rule="evenodd" clip-rule="evenodd" d="M480.912 256.062C480.912 256.707 480.603 257.24 480.218 257.24C479.833 257.24 479.524 256.716 479.524 256.062C479.524 255.408 479.833 254.884 480.218 254.884C480.603 254.884 480.912 255.408 480.912 256.062Z" fill="#0970C0"></path><path fill-rule="evenodd" clip-rule="evenodd" d="M440.272 202.387C440.272 203.032 439.963 203.565 439.578 203.565C439.193 203.565 438.884 203.04 438.884 202.387C438.884 201.733 439.193 201.209 439.578 201.209C439.963 201.209 440.272 201.733 440.272 202.387Z" fill="#095CC0"></path><path fill-rule="evenodd" clip-rule="evenodd" d="M398.421 114.522C398.421 115.167 398.112 115.7 397.727 115.7C397.342 115.7 397.033 115.175 397.033 114.522C397.033 113.868 397.342 113.344 397.727 113.344C398.112 113.344 398.421 113.868 398.421 114.522Z" fill="#095CC0"></path><path fill-rule="evenodd" clip-rule="evenodd" d="M480.218 74.3473C480.218 74.9922 479.909 75.5253 479.524 75.5253C479.139 75.5253 478.83 75.0008 478.83 74.3473C478.83 73.6937 479.139 73.1692 479.524 73.1692C479.909 73.1692 480.218 73.6937 480.218 74.3473Z" fill="#095CC0"></path><path fill-rule="evenodd" clip-rule="evenodd" d="M410.072 379.493C410.072 380.138 409.763 380.671 409.378 380.671C408.993 380.671 408.684 380.146 408.684 379.493C408.684 378.839 408.993 378.315 409.378 378.315C409.763 378.315 410.072 378.839 410.072 379.493Z" fill="#095CC0"></path><path fill-rule="evenodd" clip-rule="evenodd" d="M524.201 281.679C524.201 282.323 523.892 282.857 523.507 282.857C523.122 282.857 522.813 282.332 522.813 281.679C522.813 281.025 523.122 280.501 523.507 280.501C523.892 280.501 524.201 281.025 524.201 281.679Z" fill="#095CC0"></path><path fill-rule="evenodd" clip-rule="evenodd" d="M529.93 64.5444C529.93 65.1893 529.621 65.7224 529.236 65.7224C528.851 65.7224 528.542 65.1979 528.542 64.5444C528.542 63.8908 528.851 63.3663 529.236 63.3663C529.621 63.3663 529.93 63.8908 529.93 64.5444Z" fill="#095CC0"></path><path d="M389.947 556.125C390.33 556.125 390.641 555.598 390.641 554.947C390.641 554.297 390.33 553.769 389.947 553.769C389.564 553.769 389.253 554.297 389.253 554.947C389.253 555.598 389.564 556.125 389.947 556.125Z" fill="#09FFFF"></path><path fill-rule="evenodd" clip-rule="evenodd" d="M711.237 91.3905C711.237 92.0355 710.928 92.5686 710.543 92.5686C710.158 92.5686 709.849 92.0441 709.849 91.3905C709.849 90.737 710.158 90.2125 710.543 90.2125C710.928 90.2125 711.237 90.737 711.237 91.3905Z" fill="#0970C0"></path><path fill-rule="evenodd" clip-rule="evenodd" d="M548.758 246.036C548.758 246.68 548.449 247.214 548.064 247.214C547.679 247.214 547.37 246.689 547.37 246.036C547.37 245.382 547.679 244.857 548.064 244.857C548.449 244.857 548.758 245.382 548.758 246.036Z" fill="#0970C0"></path><path fill-rule="evenodd" clip-rule="evenodd" d="M372.025 189.712C372.025 190.357 371.716 190.89 371.331 190.89C370.946 190.89 370.637 190.365 370.637 189.712C370.637 189.058 370.946 188.534 371.331 188.534C371.716 188.534 372.025 189.058 372.025 189.712Z" fill="#0970C0"></path><path fill-rule="evenodd" clip-rule="evenodd" d="M810.003 80.8653C810.003 81.5103 809.694 82.0434 809.309 82.0434C808.924 82.0434 808.615 81.5189 808.615 80.8653C808.615 80.2118 808.924 79.6873 809.309 79.6873C809.694 79.6873 810.003 80.2118 810.003 80.8653Z" fill="#0970C0"></path><path fill-rule="evenodd" clip-rule="evenodd" d="M408.572 251.178C408.572 251.823 408.263 252.356 407.878 252.356C407.493 252.356 407.184 251.831 407.184 251.178C407.184 250.524 407.493 250 407.878 250C408.263 250 408.572 250.524 408.572 251.178Z" fill="#0970C0"></path><path fill-rule="evenodd" clip-rule="evenodd" d="M472.24 569.523C472.24 570.168 471.931 570.701 471.546 570.701C471.161 570.701 470.852 570.176 470.852 569.523C470.852 568.869 471.161 568.345 471.546 568.345C471.931 568.345 472.24 568.869 472.24 569.523Z" fill="#0970C0"></path><path fill-rule="evenodd" clip-rule="evenodd" d="M857.871 65.7224C857.871 66.3674 857.562 66.9005 857.177 66.9005C856.792 66.9005 856.483 66.376 856.483 65.7224C856.483 65.0689 856.792 64.5444 857.177 64.5444C857.562 64.5444 857.871 65.0689 857.871 65.7224Z" fill="#0970C0"></path><path fill-rule="evenodd" clip-rule="evenodd" d="M417.635 106.258C417.635 106.903 417.326 107.436 416.941 107.436C416.556 107.436 416.247 106.912 416.247 106.258C416.247 105.605 416.556 105.08 416.941 105.08C417.326 105.08 417.635 105.605 417.635 106.258Z" fill="#0970C0"></path><path fill-rule="evenodd" clip-rule="evenodd" d="M413.825 415.643C413.825 416.288 413.516 416.821 413.131 416.821C412.746 416.821 412.437 416.296 412.437 415.643C412.437 414.989 412.746 414.465 413.131 414.465C413.516 414.465 413.825 414.989 413.825 415.643Z" fill="#0970C0"></path><path fill-rule="evenodd" clip-rule="evenodd" d="M708.623 406.889C708.623 407.534 708.314 408.067 707.929 408.067C707.544 408.067 707.235 407.543 707.235 406.889C707.235 406.236 707.544 405.711 707.929 405.711C708.314 405.711 708.623 406.236 708.623 406.889Z" fill="#0970C0"></path><path fill-rule="evenodd" clip-rule="evenodd" d="M331.877 243.757C331.877 244.402 331.568 244.935 331.183 244.935C330.798 244.935 330.489 244.41 330.489 243.757C330.489 243.103 330.798 242.579 331.183 242.579C331.568 242.579 331.877 243.103 331.877 243.757Z" fill="#0970C0"></path><path fill-rule="evenodd" clip-rule="evenodd" d="M347.574 76.6948C347.574 77.3397 347.265 77.8729 346.88 77.8729C346.496 77.8729 346.187 77.3483 346.187 76.6948C346.187 76.0413 346.496 75.5167 346.88 75.5167C347.265 75.5167 347.574 76.0413 347.574 76.6948Z" fill="#0970C0"></path><path fill-rule="evenodd" clip-rule="evenodd" d="M651.531 355.02C651.531 355.665 651.222 356.198 650.837 356.198C650.452 356.198 650.143 355.673 650.143 355.02C650.143 354.366 650.452 353.842 650.837 353.842C651.222 353.842 651.531 354.366 651.531 355.02Z" fill="#0970C0"></path><path fill-rule="evenodd" clip-rule="evenodd" d="M440.961 159.546C440.961 160.191 440.652 160.725 440.267 160.725C439.882 160.725 439.573 160.2 439.573 159.546C439.573 158.893 439.882 158.368 440.267 158.368C440.652 158.368 440.961 158.893 440.961 159.546Z" fill="#0970C0"></path><path fill-rule="evenodd" clip-rule="evenodd" d="M602.751 439.789C602.751 440.434 602.442 440.967 602.057 440.967C601.672 440.967 601.363 440.443 601.363 439.789C601.363 439.135 601.672 438.611 602.057 438.611C602.442 438.611 602.751 439.135 602.751 439.789Z" fill="#0970C0"></path><path fill-rule="evenodd" clip-rule="evenodd" d="M719.27 165.394C719.27 166.039 718.962 166.572 718.577 166.572C718.192 166.572 717.883 166.047 717.883 165.394C717.883 164.74 718.192 164.216 718.577 164.216C718.962 164.216 719.27 164.74 719.27 165.394Z" fill="#09B9EA"></path><path fill-rule="evenodd" clip-rule="evenodd" d="M753.199 175.154C753.199 175.799 752.89 176.332 752.505 176.332C752.12 176.332 751.811 175.807 751.811 175.154C751.811 174.5 752.12 173.976 752.505 173.976C752.89 173.976 753.199 174.5 753.199 175.154Z" fill="#0970C0"></path><path d="M672.836 480.867C673.219 480.867 673.53 480.339 673.53 479.689C673.53 479.038 673.219 478.51 672.836 478.51C672.453 478.51 672.142 479.038 672.142 479.689C672.142 480.339 672.453 480.867 672.836 480.867Z" fill="#0970C0"></path><path fill-rule="evenodd" clip-rule="evenodd" d="M387.399 209.154C387.399 209.799 387.09 210.332 386.705 210.332C386.32 210.332 386.011 209.808 386.011 209.154C386.011 208.501 386.32 207.976 386.705 207.976C387.09 207.976 387.399 208.501 387.399 209.154Z" fill="#09FFFF"></path><path fill-rule="evenodd" clip-rule="evenodd" d="M608.525 224.478C608.525 225.123 608.216 225.656 607.831 225.656C607.446 225.656 607.137 225.131 607.137 224.478C607.137 223.824 607.446 223.3 607.831 223.3C608.216 223.3 608.525 223.824 608.525 224.478Z" fill="#09FFFF"></path><path fill-rule="evenodd" clip-rule="evenodd" d="M445.074 75.5167C445.074 76.1617 444.765 76.6948 444.38 76.6948C443.995 76.6948 443.686 76.1703 443.686 75.5167C443.686 74.8632 443.995 74.3387 444.38 74.3387C444.765 74.3387 445.074 74.8632 445.074 75.5167Z" fill="#09FFFF"></path><path d="M327.612 165.402C327.995 165.402 328.306 164.875 328.306 164.224C328.306 163.574 327.995 163.046 327.612 163.046C327.228 163.046 326.918 163.574 326.918 164.224C326.918 164.875 327.228 165.402 327.612 165.402Z" fill="#09FFFF"></path><path fill-rule="evenodd" clip-rule="evenodd" d="M493.504 393.956C493.504 394.601 493.195 395.134 492.81 395.134C492.425 395.134 492.116 394.61 492.116 393.956C492.116 393.303 492.425 392.778 492.81 392.778C493.195 392.778 493.504 393.303 493.504 393.956Z" fill="#92FFFF"></path><path fill-rule="evenodd" clip-rule="evenodd" d="M621.381 119.32C621.381 119.965 621.072 120.498 620.687 120.498C620.302 120.498 619.993 119.974 619.993 119.32C619.993 118.667 620.302 118.142 620.687 118.142C621.072 118.142 621.381 118.667 621.381 119.32Z" fill="#09FFFF"></path><path fill-rule="evenodd" clip-rule="evenodd" d="M752.51 280.019C752.51 280.664 752.201 281.197 751.816 281.197C751.431 281.197 751.122 280.672 751.122 280.019C751.122 279.365 751.431 278.841 751.816 278.841C752.201 278.841 752.51 279.365 752.51 280.019Z" fill="#09FFFF"></path><path fill-rule="evenodd" clip-rule="evenodd" d="M455.549 397.817C455.549 398.462 455.24 398.995 454.855 398.995C454.47 398.995 454.161 398.471 454.161 397.817C454.161 397.164 454.47 396.639 454.855 396.639C455.24 396.639 455.549 397.164 455.549 397.817Z" fill="#09FFFF"></path><path fill-rule="evenodd" clip-rule="evenodd" d="M360.03 408.067C360.03 408.712 359.721 409.245 359.336 409.245C358.951 409.245 358.642 408.721 358.642 408.067C358.642 407.414 358.951 406.889 359.336 406.889C359.721 406.889 360.03 407.414 360.03 408.067Z" fill="#09FFFF"></path><path fill-rule="evenodd" clip-rule="evenodd" d="M751.816 58.869C751.816 59.5139 751.507 60.0471 751.122 60.0471C750.737 60.0471 750.428 59.5225 750.428 58.869C750.428 58.2155 750.737 57.6909 751.122 57.6909C751.507 57.6909 751.816 58.2155 751.816 58.869Z" fill="#09FFFF"></path><path fill-rule="evenodd" clip-rule="evenodd" d="M548.378 141.764C548.378 142.409 548.069 142.942 547.684 142.942C547.299 142.942 546.99 142.417 546.99 141.764C546.99 141.11 547.299 140.586 547.684 140.586C548.069 140.586 548.378 141.11 548.378 141.764Z" fill="#09FFFF"></path><path fill-rule="evenodd" clip-rule="evenodd" d="M524.895 209.154C524.895 209.799 524.586 210.332 524.201 210.332C523.816 210.332 523.507 209.808 523.507 209.154C523.507 208.501 523.816 207.976 524.201 207.976C524.586 207.976 524.895 208.501 524.895 209.154Z" fill="#09FFFF"></path><path fill-rule="evenodd" clip-rule="evenodd" d="M455.625 217.814C455.625 218.458 455.316 218.992 454.931 218.992C454.546 218.992 454.237 218.467 454.237 217.814C454.237 217.16 454.546 216.635 454.931 216.635C455.316 216.635 455.625 217.16 455.625 217.814Z" fill="#09FFFF"></path><path fill-rule="evenodd" clip-rule="evenodd" d="M475.649 414.465C475.649 415.11 475.34 415.643 474.955 415.643C474.57 415.643 474.261 415.118 474.261 414.465C474.261 413.811 474.57 413.287 474.955 413.287C475.34 413.287 475.649 413.811 475.649 414.465Z" fill="#09FFFF"></path><path fill-rule="evenodd" clip-rule="evenodd" d="M209.592 310.709C209.592 311.354 209.283 311.887 208.898 311.887C208.513 311.887 208.204 311.362 208.204 310.709C208.204 310.055 208.513 309.531 208.898 309.531C209.283 309.531 209.592 310.055 209.592 310.709Z" fill="#09B9EA"></path><path fill-rule="evenodd" clip-rule="evenodd" d="M166.025 262.614C166.025 263.259 165.716 263.793 165.331 263.793C164.946 263.793 164.637 263.268 164.637 262.614C164.637 261.961 164.946 261.436 165.331 261.436C165.716 261.436 166.025 261.961 166.025 262.614Z" fill="#0970C0"></path><path fill-rule="evenodd" clip-rule="evenodd" d="M133.302 235.828C133.302 236.473 132.993 237.007 132.608 237.007C132.223 237.007 131.914 236.482 131.914 235.828C131.914 235.175 132.223 234.65 132.608 234.65C132.993 234.65 133.302 235.175 133.302 235.828Z" fill="#0970C0"></path><path d="M91.973 183.331C92.3563 183.331 92.667 182.804 92.667 182.153C92.667 181.503 92.3563 180.975 91.973 180.975C91.5898 180.975 91.2791 181.503 91.2791 182.153C91.2791 182.804 91.5898 183.331 91.973 183.331Z" fill="#095CC0"></path><path fill-rule="evenodd" clip-rule="evenodd" d="M50.8113 94.2798C50.8113 94.9247 50.5023 95.4579 50.1174 95.4579C49.7324 95.4579 49.4234 94.9333 49.4234 94.2798C49.4234 93.6263 49.7324 93.1017 50.1174 93.1017C50.5023 93.1017 50.8113 93.6263 50.8113 94.2798Z" fill="#095CC0"></path><path fill-rule="evenodd" clip-rule="evenodd" d="M132.613 54.1051C132.613 54.7501 132.304 55.2832 131.919 55.2832C131.534 55.2832 131.225 54.7587 131.225 54.1051C131.225 53.4516 131.534 52.9271 131.919 52.9271C132.304 52.9271 132.613 53.4516 132.613 54.1051Z" fill="#095CC0"></path><path d="M61.7729 360.437C62.1561 360.437 62.4668 359.91 62.4668 359.259C62.4668 358.608 62.1561 358.081 61.7729 358.081C61.3896 358.081 61.0789 358.608 61.0789 359.259C61.0789 359.91 61.3896 360.437 61.7729 360.437Z" fill="#095CC0"></path><path d="M175.902 262.614C176.285 262.614 176.596 262.087 176.596 261.436C176.596 260.786 176.285 260.258 175.902 260.258C175.519 260.258 175.208 260.786 175.208 261.436C175.208 262.087 175.519 262.614 175.902 262.614Z" fill="#095CC0"></path><path fill-rule="evenodd" clip-rule="evenodd" d="M182.325 44.3108C182.325 44.9558 182.016 45.4889 181.631 45.4889C181.246 45.4889 180.937 44.9644 180.937 44.3108C180.937 43.6573 181.246 43.1328 181.631 43.1328C182.016 43.1328 182.325 43.6573 182.325 44.3108Z" fill="#095CC0"></path><path fill-rule="evenodd" clip-rule="evenodd" d="M60.9625 230.944C60.9625 231.589 60.6535 232.122 60.2685 232.122C59.8835 232.122 59.5745 231.598 59.5745 230.944C59.5745 230.291 59.8835 229.766 60.2685 229.766C60.6535 229.766 60.9625 230.291 60.9625 230.944Z" fill="#0970C0"></path><path fill-rule="evenodd" clip-rule="evenodd" d="M70.0295 86.0247C70.0295 86.6697 69.7205 87.2028 69.3356 87.2028C68.9506 87.2028 68.6416 86.6783 68.6416 86.0247C68.6416 85.3712 68.9506 84.8467 69.3356 84.8467C69.7205 84.8467 70.0295 85.3712 70.0295 86.0247Z" fill="#0970C0"></path><path fill-rule="evenodd" clip-rule="evenodd" d="M66.2203 395.401C66.2203 396.046 65.9113 396.579 65.5264 396.579C65.1414 396.579 64.8324 396.054 64.8324 395.401C64.8324 394.747 65.1414 394.223 65.5264 394.223C65.9113 394.223 66.2203 394.747 66.2203 395.401Z" fill="#0970C0"></path><path fill-rule="evenodd" clip-rule="evenodd" d="M93.3558 139.313C93.3558 139.958 93.0468 140.491 92.6619 140.491C92.2769 140.491 91.9679 139.966 91.9679 139.313C91.9679 138.659 92.2769 138.135 92.6619 138.135C93.0468 138.135 93.3558 138.659 93.3558 139.313Z" fill="#0970C0"></path><path fill-rule="evenodd" clip-rule="evenodd" d="M39.794 188.921C39.794 189.566 39.485 190.099 39.1 190.099C38.7151 190.099 38.4061 189.574 38.4061 188.921C38.4061 188.267 38.7151 187.743 39.1 187.743C39.485 187.743 39.794 188.267 39.794 188.921Z" fill="#09FFFF"></path><path fill-rule="evenodd" clip-rule="evenodd" d="M97.469 55.2832C97.469 55.9281 97.16 56.4613 96.775 56.4613C96.39 56.4613 96.0811 55.9367 96.0811 55.2832C96.0811 54.6297 96.39 54.1051 96.775 54.1051C97.16 54.1051 97.469 54.6297 97.469 55.2832Z" fill="#09FFFF"></path><path fill-rule="evenodd" clip-rule="evenodd" d="M145.9 373.723C145.9 374.368 145.591 374.901 145.206 374.901C144.821 374.901 144.512 374.376 144.512 373.723C144.512 373.069 144.821 372.545 145.206 372.545C145.591 372.545 145.9 373.069 145.9 373.723Z" fill="#92FFFF"></path><path fill-rule="evenodd" clip-rule="evenodd" d="M107.939 377.575C107.939 378.22 107.63 378.753 107.245 378.753C106.86 378.753 106.551 378.229 106.551 377.575C106.551 376.922 106.86 376.397 107.245 376.397C107.63 376.397 107.939 376.922 107.939 377.575Z" fill="#09FFFF"></path><path fill-rule="evenodd" clip-rule="evenodd" d="M200.768 121.53C200.768 122.175 200.459 122.708 200.074 122.708C199.689 122.708 199.38 122.184 199.38 121.53C199.38 120.877 199.689 120.352 200.074 120.352C200.459 120.352 200.768 120.877 200.768 121.53Z" fill="#09FFFF"></path><path fill-rule="evenodd" clip-rule="evenodd" d="M177.29 188.921C177.29 189.566 176.981 190.099 176.596 190.099C176.211 190.099 175.902 189.574 175.902 188.921C175.902 188.267 176.211 187.743 176.596 187.743C176.981 187.743 177.29 188.267 177.29 188.921Z" fill="#09FFFF"></path><path d="M107.326 198.758C107.71 198.758 108.02 198.231 108.02 197.58C108.02 196.929 107.71 196.402 107.326 196.402C106.943 196.402 106.632 196.929 106.632 197.58C106.632 198.231 106.943 198.758 107.326 198.758Z" fill="#09FFFF"></path><path fill-rule="evenodd" clip-rule="evenodd" d="M128.039 394.231C128.039 394.876 127.73 395.409 127.345 395.409C126.96 395.409 126.651 394.885 126.651 394.231C126.651 393.578 126.96 393.053 127.345 393.053C127.73 393.053 128.039 393.578 128.039 394.231Z" fill="#09FFFF"></path><path fill-rule="evenodd" clip-rule="evenodd" d="M1083.2 281.541C1083.2 282.186 1082.89 282.719 1082.5 282.719C1082.12 282.719 1081.81 282.194 1081.81 281.541C1081.81 280.887 1082.12 280.363 1082.5 280.363C1082.89 280.363 1083.2 280.887 1083.2 281.541Z" fill="#09B9EA"></path><path fill-rule="evenodd" clip-rule="evenodd" d="M1039.62 233.438C1039.62 234.083 1039.31 234.616 1038.93 234.616C1038.54 234.616 1038.24 234.091 1038.24 233.438C1038.24 232.784 1038.54 232.26 1038.93 232.26C1039.31 232.26 1039.62 232.784 1039.62 233.438Z" fill="#0970C0"></path><path fill-rule="evenodd" clip-rule="evenodd" d="M1006.91 206.661C1006.91 207.306 1006.6 207.839 1006.21 207.839C1005.83 207.839 1005.52 207.314 1005.52 206.661C1005.52 206.007 1005.83 205.483 1006.21 205.483C1006.6 205.483 1006.91 206.007 1006.91 206.661Z" fill="#0970C0"></path><path fill-rule="evenodd" clip-rule="evenodd" d="M966.266 152.977C966.266 153.622 965.957 154.155 965.572 154.155C965.187 154.155 964.878 153.63 964.878 152.977C964.878 152.323 965.187 151.799 965.572 151.799C965.957 151.799 966.266 152.323 966.266 152.977Z" fill="#095CC0"></path><path fill-rule="evenodd" clip-rule="evenodd" d="M924.415 65.1119C924.415 65.7568 924.106 66.29 923.721 66.29C923.336 66.29 923.027 65.7654 923.027 65.1119C923.027 64.4584 923.336 63.9338 923.721 63.9338C924.106 63.9338 924.415 64.4584 924.415 65.1119Z" fill="#095CC0"></path><path d="M935.377 331.261C935.76 331.261 936.071 330.733 936.071 330.082C936.071 329.432 935.76 328.904 935.377 328.904C934.994 328.904 934.683 329.432 934.683 330.082C934.683 330.733 934.994 331.261 935.377 331.261Z" fill="#095CC0"></path><path d="M1049.51 233.447C1049.89 233.447 1050.2 232.919 1050.2 232.269C1050.2 231.618 1049.89 231.09 1049.51 231.09C1049.12 231.09 1048.81 231.618 1048.81 232.269C1048.81 232.919 1049.12 233.447 1049.51 233.447Z" fill="#095CC0"></path><path fill-rule="evenodd" clip-rule="evenodd" d="M898.02 140.302C898.02 140.947 897.711 141.48 897.326 141.48C896.941 141.48 896.632 140.955 896.632 140.302C896.632 139.648 896.941 139.124 897.326 139.124C897.711 139.124 898.02 139.648 898.02 140.302Z" fill="#0970C0"></path><path fill-rule="evenodd" clip-rule="evenodd" d="M934.566 201.776C934.566 202.421 934.257 202.954 933.872 202.954C933.487 202.954 933.178 202.43 933.178 201.776C933.178 201.123 933.487 200.598 933.872 200.598C934.257 200.598 934.566 201.123 934.566 201.776Z" fill="#0970C0"></path><path fill-rule="evenodd" clip-rule="evenodd" d="M943.629 56.8568C943.629 57.5017 943.32 58.0349 942.935 58.0349C942.55 58.0349 942.241 57.5103 942.241 56.8568C942.241 56.2033 942.55 55.6788 942.935 55.6788C943.32 55.6788 943.629 56.2033 943.629 56.8568Z" fill="#0970C0"></path><path fill-rule="evenodd" clip-rule="evenodd" d="M939.819 366.233C939.819 366.878 939.51 367.411 939.125 367.411C938.74 367.411 938.431 366.886 938.431 366.233C938.431 365.579 938.74 365.055 939.125 365.055C939.51 365.055 939.819 365.579 939.819 366.233Z" fill="#0970C0"></path><path fill-rule="evenodd" clip-rule="evenodd" d="M857.871 194.355C857.871 195 857.562 195.533 857.177 195.533C856.792 195.533 856.483 195.009 856.483 194.355C856.483 193.702 856.792 193.177 857.177 193.177C857.562 193.177 857.871 193.702 857.871 194.355Z" fill="#0970C0"></path><path fill-rule="evenodd" clip-rule="evenodd" d="M966.955 110.136C966.955 110.781 966.646 111.315 966.261 111.315C965.876 111.315 965.567 110.79 965.567 110.136C965.567 109.483 965.876 108.958 966.261 108.958C966.646 108.958 966.955 109.483 966.955 110.136Z" fill="#0970C0"></path><path fill-rule="evenodd" clip-rule="evenodd" d="M913.393 159.753C913.393 160.398 913.084 160.931 912.699 160.931C912.314 160.931 912.005 160.406 912.005 159.753C912.005 159.099 912.314 158.575 912.699 158.575C913.084 158.575 913.393 159.099 913.393 159.753Z" fill="#09FFFF"></path><path fill-rule="evenodd" clip-rule="evenodd" d="M1019.5 344.555C1019.5 345.2 1019.19 345.733 1018.8 345.733C1018.42 345.733 1018.11 345.208 1018.11 344.555C1018.11 343.901 1018.42 343.377 1018.8 343.377C1019.19 343.377 1019.5 343.901 1019.5 344.555Z" fill="#92FFFF"></path><path fill-rule="evenodd" clip-rule="evenodd" d="M981.543 348.407C981.543 349.052 981.234 349.585 980.849 349.585C980.464 349.585 980.155 349.061 980.155 348.407C980.155 347.754 980.464 347.229 980.849 347.229C981.234 347.229 981.543 347.754 981.543 348.407Z" fill="#09FFFF"></path><path fill-rule="evenodd" clip-rule="evenodd" d="M886.025 358.657C886.025 359.302 885.716 359.835 885.331 359.835C884.946 359.835 884.637 359.311 884.637 358.657C884.637 358.004 884.946 357.479 885.331 357.479C885.716 357.479 886.025 358.004 886.025 358.657Z" fill="#09FFFF"></path><path fill-rule="evenodd" clip-rule="evenodd" d="M1074.37 92.3536C1074.37 92.9986 1074.06 93.5317 1073.68 93.5317C1073.29 93.5317 1072.98 93.0072 1072.98 92.3536C1072.98 91.7001 1073.29 91.1756 1073.68 91.1756C1074.06 91.1756 1074.37 91.7001 1074.37 92.3536Z" fill="#09FFFF"></path><path fill-rule="evenodd" clip-rule="evenodd" d="M1050.89 159.753C1050.89 160.398 1050.58 160.931 1050.2 160.931C1049.81 160.931 1049.5 160.406 1049.5 159.753C1049.5 159.099 1049.81 158.575 1050.2 158.575C1050.58 158.575 1050.89 159.099 1050.89 159.753Z" fill="#09FFFF"></path><path d="M980.93 169.582C981.314 169.582 981.624 169.054 981.624 168.403C981.624 167.753 981.314 167.225 980.93 167.225C980.547 167.225 980.236 167.753 980.236 168.403C980.236 169.054 980.547 169.582 980.93 169.582Z" fill="#09FFFF"></path><path fill-rule="evenodd" clip-rule="evenodd" d="M1001.64 365.055C1001.64 365.7 1001.33 366.233 1000.95 366.233C1000.56 366.233 1000.26 365.708 1000.26 365.055C1000.26 364.401 1000.56 363.877 1000.95 363.877C1001.33 363.877 1001.64 364.401 1001.64 365.055Z" fill="#09FFFF"></path><path d="M704.044 393.225C704.427 393.225 704.738 392.698 704.738 392.047C704.738 391.397 704.427 390.869 704.044 390.869C703.661 390.869 703.35 391.397 703.35 392.047C703.35 392.698 703.661 393.225 704.044 393.225Z" fill="#09FFFF"></path><path fill-rule="evenodd" clip-rule="evenodd" d="M801.447 243.722C801.447 244.367 801.138 244.9 800.753 244.9C800.368 244.9 800.059 244.376 800.059 243.722C800.059 243.069 800.368 242.544 800.753 242.544C801.138 242.544 801.447 243.069 801.447 243.722Z" fill="#0970C0"></path><path fill-rule="evenodd" clip-rule="evenodd" d="M744.355 191.862C744.355 192.507 744.046 193.04 743.661 193.04C743.276 193.04 742.967 192.515 742.967 191.862C742.967 191.208 743.276 190.684 743.661 190.684C744.046 190.684 744.355 191.208 744.355 191.862Z" fill="#0970C0"></path><path fill-rule="evenodd" clip-rule="evenodd" d="M284.859 71.6042C284.859 72.2491 284.55 72.7822 284.165 72.7822C283.78 72.7822 283.471 72.2577 283.471 71.6042C283.471 70.9506 283.78 70.4261 284.165 70.4261C284.55 70.4261 284.859 70.9506 284.859 71.6042Z" fill="#0970C0"></path><path fill-rule="evenodd" clip-rule="evenodd" d="M695.575 276.622C695.575 277.267 695.266 277.8 694.881 277.8C694.496 277.8 694.187 277.276 694.187 276.622C694.187 275.969 694.496 275.444 694.881 275.444C695.266 275.444 695.575 275.969 695.575 276.622Z" fill="#0970C0"></path><path d="M765.66 317.708C766.043 317.708 766.354 317.181 766.354 316.53C766.354 315.88 766.043 315.352 765.66 315.352C765.277 315.352 764.966 315.88 764.966 316.53C764.966 317.181 765.277 317.708 765.66 317.708Z" fill="#0970C0"></path><path d="M796.873 230.067C797.256 230.067 797.567 229.54 797.567 228.889C797.567 228.238 797.256 227.711 796.873 227.711C796.49 227.711 796.179 228.238 796.179 228.889C796.179 229.54 796.49 230.067 796.873 230.067Z" fill="#09FFFF"></path></g><path opacity="0.21" d="M555.202 403.442C534.141 397.506 513.079 391.576 492.024 385.641C494.102 383.709 499.688 384.636 502.032 383.252C504.963 381.513 505.099 378.028 502.992 375.56C499.451 371.421 494.469 372.906 489.849 373.826C483.97 374.995 478.582 372.177 477.153 366.056C476.469 363.136 477.345 361.476 478.378 358.912C479.005 357.353 478.841 356.043 477.819 354.676C475.176 351.158 470.364 350.751 466.359 350.288C457.989 349.311 445.778 349.582 442.011 358.855C439.554 364.904 441.469 374.165 448.636 375.255C447.247 381.366 439.825 384.212 434.053 383.049C425.18 381.258 426.112 371.731 425.225 364.706C424.254 357.031 419.402 352.553 411.563 352.581C407.016 352.598 402.571 354.027 398.019 353.835C393.501 353.643 387.627 350.474 389.163 344.979C389.931 342.229 392.496 343.014 394.726 342.557C396.675 342.156 398.539 341.331 400.16 340.173C403.294 337.926 405.407 334.611 405.955 330.787C406.068 330.014 405.661 329.438 404.865 329.359C395.274 328.41 386.944 322.52 382.623 314.003C385.724 312.58 388.819 311.157 391.919 309.734C392.275 309.57 392.473 309.13 392.479 308.757C392.546 301.72 387.378 296.982 381.228 294.491C373.157 291.227 365.001 292.368 356.546 292.526C351.96 292.611 347.188 292.441 342.878 290.719C337.693 288.641 335.677 284.1 331.757 280.587C326.397 275.787 318.208 277.453 313.43 282.253C306.669 289.042 308.539 299.676 313.046 307.198C304.071 309.773 293.617 304.312 290.714 295.305C288.974 289.894 291.278 284.286 290.098 278.82C289.217 274.731 286.269 271.715 282.439 270.191C272.335 266.17 263.095 273.393 254.776 278.153C250.506 280.593 243.977 283.53 238.233 283.518C238.21 283.456 238.188 283.394 238.165 283.338C237.425 281.169 237.137 278.871 236.725 276.629C235.748 271.337 232.404 267.079 227.88 264.255C222.571 260.94 216.279 260.042 210.117 260.392C206.553 260.59 203.023 261.166 199.516 261.815C196.675 262.346 193.32 262.623 191.01 264.549C188.757 266.435 188.542 269.502 188.745 272.224C189 275.556 189.423 278.882 189.039 282.225C188.7 285.19 187.61 288.059 185.458 290.177C183.448 292.165 180.748 293.108 177.969 292.334C174.857 291.459 172.287 289.104 169.802 287.155C166.927 284.896 164.041 282.654 161.172 280.384C158.902 278.588 156.558 276.623 155.496 273.839C154.683 271.704 154.609 269.4 154.813 267.147C155.253 262.307 156.947 257.676 157.444 252.842C157.676 250.633 157.631 248.341 156.953 246.206C156.625 245.167 156.157 244.162 155.552 243.258C155.197 242.727 154.88 242.247 154.197 242.174C153.406 242.089 152.666 242.134 151.876 241.931C150.656 241.615 149.56 241.033 148.611 240.225C149.712 236.571 150.808 232.918 151.909 229.264C152.017 228.908 151.915 228.411 151.621 228.162C148.984 225.988 146.019 224.108 142.743 223.057C139.896 222.148 136.553 221.933 134.039 223.814C132.537 224.938 131.814 226.502 130.978 228.128C130.317 229.422 129.453 230.517 127.934 230.715C125.234 231.065 122.354 228.891 121.405 226.457C119.597 221.843 122.862 216.557 125.138 212.739C125.613 211.949 124.986 211.118 124.161 211.039C121.331 210.768 118.332 210.486 115.808 209.074C113.791 207.945 112.086 205.827 112.069 203.427C112.046 199.101 118.118 197.683 118.219 193.301C118.276 190.788 116.164 189.212 114.373 187.834C112.103 186.083 109.736 184.457 107.285 182.972C102.501 180.08 97.3897 177.72 92.0976 175.912C86.9071 174.145 81.5416 172.947 76.0969 172.304C73.2504 171.965 70.3812 171.79 67.5177 171.79C65.3093 171.79 63.0163 171.954 60.9999 172.931C55.3802 175.641 58.0178 182.497 58.8085 187.168C59.7122 192.516 59.7404 198.638 55.544 202.681C53.7706 204.387 51.3928 205.262 48.9359 204.929C46.6993 204.624 44.6773 203.438 42.8361 202.201C40.4018 200.563 38.0579 198.604 35.4881 197.13C35.0758 196.283 34.6183 195.452 34.1157 194.662C31.1335 189.969 26.6547 186.253 21.3852 184.434C17.6914 183.164 13.687 182.893 10.0836 181.351C7.30482 180.165 4.65592 178.087 3.96122 175.009C3.88215 174.647 3.67318 174.421 3.41902 174.303C3.40772 174.201 3.38514 174.1 3.3343 174.009C3.30606 173.919 3.26087 173.845 3.2044 173.772C3.53198 172.682 3.91039 171.62 4.35658 170.609C5.58219 167.842 7.24269 165.273 9.33243 163.081C11.281 161.031 13.5741 159.348 15.5678 157.349C17.4655 155.446 19.1938 153.176 19.5552 150.437C19.9732 147.28 18.3861 144.434 16.206 142.271C11.7215 137.815 5.18683 135.415 -1.105 135.742C-2.53958 135.816 -4.39775 136.42 -5.71937 135.641C-6.25593 135.324 -6.59481 134.816 -6.82073 134.251C-5.26754 133.624 -3.73693 133.088 -2.38143 132.602C3.46421 130.513 9.76168 128.293 13.7491 123.25C16.9176 119.246 18.0755 112.994 15.0934 108.556C13.6588 106.415 11.4391 105.218 9.15735 104.179C7.13538 103.258 4.54296 102.394 3.32865 100.389C1.72463 97.752 3.75226 94.7532 6.16394 93.4995C9.50753 91.7544 13.6644 92.8952 17.0927 93.7536C17.827 93.94 18.3353 93.4374 18.4652 92.8613C19.0639 92.6524 19.6343 92.3643 20.1878 92.0763C20.3685 92.1215 20.5549 92.1272 20.7357 92.0763C20.826 92.0368 20.9164 92.0029 21.0068 91.9634C21.1762 91.8617 21.3118 91.7262 21.4134 91.5568L21.6337 91.2179C22.0855 90.896 22.5035 90.5402 22.8593 90.1223C23.5879 89.2809 24.0171 88.3038 24.1583 87.2026C24.3052 86.0279 23.938 84.8307 23.1134 83.9723C22.7011 83.5431 21.9217 83.5261 21.5151 83.9723C21.4868 84.0062 21.4586 84.0457 21.436 84.0796C20.0297 82.4644 17.7084 81.5269 15.6073 81.1542C12.7269 80.6459 8.47394 81.1373 6.31642 78.771C11.4448 75.2357 18.4087 75.3995 23.3168 71.3954C30.2412 65.748 26.2932 55.7973 21.0181 50.5338C14.5737 44.1014 5.52006 41.8368 -3.23993 40.7299C-5.60077 40.4306 -7.9729 40.2273 -10.3394 39.9732C-12.3501 39.7586 -14.4116 39.4592 -16.298 38.6968C-20.1386 37.1494 -21.6127 33.6763 -22.4091 29.8756C-23.2055 26.0579 -23.5952 22.1216 -25.651 18.7106C-27.7633 15.2036 -31.0448 12.5606 -34.5127 10.4767C-42.1092 5.91918 -50.8635 3.04464 -59.55 1.46901C-77.4597 -1.77261 -96.0358 0.514594 -113.059 6.71547C-128.082 12.1878 -141.897 20.4557 -154.583 30.1297C-157.616 25.8998 -161.134 21.6416 -165.89 19.4222C-171.137 16.9712 -176.751 18.0273 -181.167 21.6303C-185.963 25.544 -188.933 31.3552 -191.752 36.7372C-195.141 43.2035 -198.168 49.8562 -200.845 56.6444C-203.545 63.506 -205.872 70.5145 -207.803 77.6246C-209.56 84.0852 -211 90.7435 -211 97.4696C-211 103.778 -209.588 110.142 -205.979 115.406C-202.596 120.347 -197.823 124.024 -193.22 127.751C-188.431 131.625 -183.788 135.691 -180.885 141.226C-178.01 146.698 -176.858 153.018 -177.417 159.162C-177.988 165.448 -180.586 171.129 -184.392 176.11C-188.199 181.091 -192.853 185.344 -196.925 190.099C-200.975 194.826 -204.313 200.049 -205.934 206.12C-207.572 212.265 -207.515 218.709 -206.414 224.938C-205.267 231.404 -202.991 237.644 -200.139 243.546C-197.417 249.188 -194.192 254.722 -190.227 259.585C-186.573 264.069 -181.857 268.124 -176.073 269.406C-170.73 270.586 -165.449 269.129 -160.547 267C-151.149 262.922 -140.468 254.892 -130.246 261.397C-125.716 264.278 -122.655 269.005 -119.87 273.472C-116.945 278.165 -114.205 283.016 -110.444 287.11C-103.926 294.203 -95.1322 299.021 -85.7566 301.138C-85.4007 302.217 -85.011 303.279 -84.5874 304.329C-78.9677 318.324 -68.1236 329.613 -54.1167 335.294C-40.7141 340.733 -25.956 340.766 -11.8079 338.993C3.46421 337.084 18.3974 333.255 33.5509 330.663C48.3146 328.139 63.8578 326.637 78.486 330.77C82.1685 331.81 85.7436 333.199 89.1437 334.95C92.9787 336.926 96.6103 339.428 100.773 340.704C110.069 343.556 120.089 339.541 129.628 340.501C139.755 341.523 148.668 345.742 156.659 351.886C162.833 356.63 169.492 360.018 176.518 354.778C180.036 352.152 182.928 348.662 186.085 345.634C189.519 342.342 193.123 339.191 197.161 336.661C204.396 332.126 213.45 329.788 221.724 332.871C240.063 339.705 231.297 363.492 234.387 377.915C235.686 383.969 238.679 390.204 244.519 392.999C251.268 396.23 258.752 393.446 265.733 392.841C270.121 392.457 274.566 393.163 277.13 397.156C279.231 400.431 279.734 404.475 281.315 407.993C283.88 413.68 289.223 416.736 295.356 416.978C312.108 417.645 320.569 402.713 328.764 390.678C333.666 383.478 339.371 377.034 348.052 374.628C351.683 373.623 355.665 373.358 359.263 374.628C363.442 376.102 365.594 379.434 367.65 383.128C370.209 387.736 374.021 392.034 379.81 390.724C384.69 389.622 388.61 385.528 392.219 382.337C396.167 378.847 401.453 373.832 407.237 375.38C413.523 377.062 415.217 385.099 417.363 390.311C419.589 395.716 422.706 400.686 428.908 401.759C433.579 402.566 438.447 401.567 443.169 401.905C448.693 402.301 454.109 403.515 459.554 404.475C469.805 406.277 480.174 406.638 490.561 406.751C501.315 406.864 512.074 407.005 522.828 406.954C533.531 406.903 544.228 406.587 554.891 405.661C556.111 405.554 556.484 403.809 555.191 403.442H555.202Z" fill="white"></path><path opacity="0.21" d="M1404.54 243.184C1402.64 239.969 1401.25 236.443 1401.39 232.649C1401.51 229.365 1402.8 226.299 1404.46 223.513C1407.9 217.766 1412.83 212.984 1415.74 206.914C1417.32 203.624 1418.19 200.067 1417.96 196.397C1417.7 192.1 1416.2 187.995 1414.22 184.214C1410.21 176.589 1404.46 169.63 1398.52 163.442C1392.55 157.216 1385.88 151.731 1378.72 146.923C1371.96 142.389 1364.67 137.918 1360.87 130.417C1357.57 123.894 1357.12 116.045 1359.29 109.104C1360.37 105.665 1362.12 102.462 1364.48 99.7443C1365.44 98.6435 1364.05 97.07 1363 97.7479C1364.3 90.0921 1362.79 81.9822 1359.25 74.9856C1353.43 63.4862 1342.34 56.0854 1329.78 53.7967C1323.11 52.5839 1316.27 52.7021 1309.62 53.9086C1302.44 55.2085 1295.79 57.9138 1289.37 61.3157C1285.96 63.1255 1282.6 65.0348 1279.12 66.7389C1275.65 68.4367 1271.74 70.3647 1267.83 70.6508C1264.1 70.9182 1261.26 68.897 1258.76 66.3657C1256.33 63.9091 1254.11 61.3095 1251.4 59.139C1241.16 50.9296 1227.43 47.3349 1214.49 49.7293C1199.81 52.4471 1187.9 62.2611 1174.67 68.4865C1170.99 70.2154 1167.2 71.708 1163.33 72.9519C1159.48 74.1957 1155.19 75.8252 1151.18 74.4196C1147.91 73.2753 1145.27 70.8436 1142.33 69.1084C1139.4 67.3795 1136.13 66.2476 1132.78 65.75C1126.12 64.7612 1119.07 66.117 1113.48 69.9356C1108.09 73.6111 1104.14 79.2644 1102.45 85.5582C1098.52 100.13 1108.82 112.152 1112.88 125.33C1115 132.246 1115.3 139.92 1112.62 146.73C1112.46 147.129 1112.29 147.52 1112.12 147.906C1107.12 150.841 1101.92 153.335 1096.15 154.697C1085.23 157.272 1073.79 156.582 1062.67 156.383L1027.8 155.767C1016.67 155.568 1005.48 155.033 994.345 155.226C987.246 155.35 978.821 156.321 974.033 162.216C971.704 165.09 970.845 168.672 970.209 172.236C969.518 176.079 969.151 180.694 966.268 183.635C960.564 189.45 950.806 184.456 943.82 185.905C937.505 187.218 934.996 192.946 936.385 198.841C938.004 205.738 942.661 211.958 942.618 219.191C935.332 218.712 929.61 228.712 934.193 234.739C937.979 239.72 945.333 237.817 950.227 240.709C955.875 244.043 955.464 252.936 950.924 256.985C947.948 259.634 943.689 260.43 939.828 259.839C936.167 259.28 933.489 257.352 930.513 255.337C926.272 252.476 922.536 253.726 918.856 256.761C916.944 258.334 915.2 260.275 913.002 261.469C909.609 263.322 907.136 261.344 904.97 258.676C901.271 254.124 896.569 251.17 890.753 250.069C877.951 247.656 866.238 254.292 857.726 263.372C849.139 272.533 838.92 285.948 840.732 299.269C841.442 304.475 843.97 309.612 848.41 312.616C854.226 316.546 861.375 315.054 867.944 315.421C871.83 315.638 875.616 316.901 878.299 319.867C880.79 322.622 881.021 326.329 878.318 328.972C875.142 332.076 870.323 333.009 866.387 334.8C863.062 336.311 859.849 338.749 860.696 342.829C861.462 346.498 864.519 349.123 861.306 352.612C858.379 355.79 854.164 355.628 851.605 352.22C849.805 349.825 848.31 347.586 845.122 347.089C842.656 346.703 840.06 347.487 837.999 348.843C831.797 352.935 831.797 361.088 832.027 367.706C832.046 368.197 832.438 368.657 832.961 368.638C837.936 368.489 842.115 372.389 843.217 377.121C843.715 379.255 843.871 382.601 841.729 383.739C840.29 384.504 838.148 384.628 836.56 385.026C834.835 385.455 833.117 385.884 831.392 386.313C831.024 386.407 830.676 386.817 830.707 387.215C831.068 391.5 831.429 395.785 831.79 400.07C826.759 399.268 821.721 399.337 816.777 400.294C806.552 399.504 796.334 398.708 786.109 397.931C782.124 397.626 778.039 397.34 774.334 399.131C771.414 400.549 769.104 402.95 766.887 405.257C764.383 407.863 761.806 410.842 758.275 412.049C754.57 413.317 750.722 412.073 747.297 410.568C741.929 408.211 735.727 403.989 729.643 406.308C719.425 410.208 722.127 424.313 716.891 431.863C712.208 438.611 704.244 431.123 698.079 434.065C691.976 436.975 690.183 444.93 691.323 451.024C692.605 457.915 697.581 463.587 704.337 465.565C707.78 466.573 711.542 466.61 715.004 465.652C718.752 464.613 721.592 462.207 724.768 460.105C728.348 457.741 732.19 456.728 735.951 459.265C738.841 461.218 740.939 464.147 743.449 466.523C748.586 471.38 754.757 472.251 761.189 469.303C769.222 465.621 774.614 458.17 782.535 454.333C786.664 452.33 791.633 451.192 795.811 453.711C798.912 455.583 800.631 459.128 804.118 460.465C810.637 462.959 816.771 456.783 819.156 451.335C822.251 444.27 823.465 432.099 833.534 431.875C835.738 431.826 837.706 432.665 838.858 434.618C839.854 436.304 840.184 438.294 841.592 439.737C843.429 441.615 846.075 441.857 848.51 441.142C851.48 440.265 854.046 438.207 855.907 435.781C858.379 432.566 860.447 428.262 864.388 426.608C868.828 424.742 873.081 428.206 877.341 429.083C880.392 429.711 883.574 429.494 886.544 428.592C892.565 426.77 897.84 422.279 900.474 416.564C901.595 414.126 902.155 411.545 902.167 408.895C908.693 411.545 915.219 414.2 921.745 416.85C922.044 416.968 922.442 416.825 922.654 416.607C928.8 410.407 932.742 402.353 933.744 393.671C933.975 391.687 933.408 388.882 934.062 387.06C934.834 384.896 938.689 384.043 940.719 383.925C945.14 383.664 949.548 385.549 953.26 387.781C961.149 392.52 966.542 400.475 974.979 404.474C978.385 406.091 982.134 406.955 985.889 406.203C987.819 405.811 989.525 404.959 991.269 404.076C994.544 402.409 997.34 402.042 1000.93 403.012C1009.66 405.369 1018.88 409.238 1026.39 414.3C1030.16 416.837 1033.59 419.953 1036.15 423.735C1039.07 428.069 1040.42 433.088 1042.3 437.902C1045.28 445.514 1050.49 452.542 1058.02 456.149C1064.73 459.364 1072.58 459.066 1078.84 454.936C1081.68 453.064 1084.07 450.465 1085.41 447.312C1086.86 443.879 1085.8 436.31 1090.08 435.004C1094.38 433.692 1098.84 439.569 1101.84 441.839C1105.29 444.445 1109.34 446.242 1113.57 447.131C1129.83 450.558 1146.24 439.482 1148.8 422.957C1149.59 417.839 1148.85 412.577 1149.88 407.496C1150.82 402.888 1154.17 398.161 1159.29 397.788C1164.99 397.371 1165.52 403.659 1167.21 407.596C1168.3 410.139 1170.11 412.285 1172.35 413.896C1181.45 420.413 1196.98 417.963 1201.2 406.856C1203.64 400.412 1202.97 392.726 1206.38 386.656C1209.08 381.854 1213.9 382.103 1218.53 384.062C1222.29 385.648 1225.86 387.041 1229.95 387.495C1243.64 389.013 1256.49 382.283 1265.72 372.507C1266.2 372.426 1266.68 372.345 1267.17 372.252C1269.22 371.866 1271.26 371.35 1273.34 371.244C1275.37 371.139 1277.45 371.431 1278.99 372.88C1280.33 374.142 1281.05 375.946 1281.83 377.582C1283.3 380.722 1285.27 383.571 1287.76 385.996C1292.7 390.81 1299.3 393.864 1306.09 394.908C1321.08 397.21 1335.09 389.398 1343.9 377.6C1348.95 370.846 1351.72 363.072 1353.96 355.025C1356.27 346.728 1358.39 338.152 1363.63 331.13C1365.96 328.015 1368.91 325.328 1372.41 323.611C1376.6 321.559 1381.36 321.167 1385.76 319.743C1393.61 317.199 1400.12 311.279 1405.25 304.991C1414.58 293.548 1421.04 277.483 1416.31 262.769C1413.93 255.343 1408.46 249.827 1404.56 243.234L1404.54 243.184Z" fill="white"></path><path d="M1112 304.212C1112.17 305.633 1112.14 429.06 1113.84 429.094C1115.54 429.127 1208 427.073 1208 427.073C1208 427.073 1201.77 403.209 1203 397.085C1204.23 390.96 1198 325.14 1198 325.14C1198 325.14 1198.04 319.914 1194.96 319.79C1191.89 319.667 1185.74 320.537 1185.74 320.537L1178.97 300.867C1178.97 300.867 1142.45 296.387 1127.03 300.451L1111.61 304.515L1112.01 304.218L1112 304.212Z" fill="#264059"></path><path d="M832.839 332.062C832.754 332.236 832.788 332.332 832.923 332.377C832.901 332.107 832.873 331.994 832.839 332.062Z" fill="#2E485E"></path><path d="M900.511 308.26C900.511 308.26 880.325 309.562 878.079 312.33C875.834 315.097 874.902 321.362 874.902 321.362L868.413 327.835C868.413 327.835 862.361 330.888 851.824 329.855C842.41 328.935 834.04 332.718 832.923 332.365C832.979 333.038 833.007 334.706 833.013 337.148C833.007 337.164 832.996 337.181 832.99 337.198C831.362 342.363 831.716 348.066 832.227 353.438C832.221 358.019 832.35 362.6 832.642 367.181C832.642 367.242 832.653 367.299 832.665 367.36C832.204 395.221 831.452 429.408 831.452 429.408L905.631 430.711C905.631 430.711 906.153 312.925 906.967 310.039C907.781 307.148 900.517 308.26 900.517 308.26H900.511Z" fill="#2E485E"></path><path d="M757.835 333.751C757.947 338.192 756.342 429.812 756.342 429.812H818.412L817.575 423.205C817.575 423.205 818.215 390.567 817.834 381.782C817.452 372.996 817.446 347.774 816.61 345.226C815.773 342.677 817.991 337.383 817.16 334.981C816.329 332.578 811.294 330.945 808.481 331.483C805.669 332.022 801.706 332.432 799.758 331.382C797.81 330.333 799.297 325.471 798.27 322.85C797.243 320.228 781.35 320.98 776.107 322.85C770.864 324.719 771.841 323.652 771.841 323.652C771.841 323.652 773.385 329.266 771.841 331.483C770.297 333.701 765.795 331.961 760.748 332.831C755.702 333.701 757.835 333.757 757.835 333.757V333.751Z" fill="#2E485E"></path><path d="M608.635 324.764C607.501 328.087 609.129 429.352 609.129 429.352L651.955 427.528L649.345 330.456C649.345 330.456 650.591 328.716 645.887 327.84C641.183 326.964 635.861 324.764 635.861 324.764C635.861 324.764 633.425 322.737 633.655 322.603C633.885 322.468 628.299 321.222 628.299 321.222C628.299 321.222 626.464 319.554 626.525 319.33C626.587 319.105 611.06 320.178 611.06 320.178L611.481 323.793L608.64 324.764H608.635Z" fill="#2E485E"></path><path d="M-54.5297 270.497C-54.9114 271.951 -56.1577 352.175 -56.1577 352.175C-56.1577 352.175 18.7062 359.956 18.6669 357.778C18.6276 355.6 21.6477 308.9 21.5411 305.582C21.4344 302.264 22.3494 284.542 22.3494 284.542L18.0325 279.417L18.6669 270.502C18.6669 270.502 7.32164 258.747 5.39615 259.455C3.47067 260.167 -12.7472 255.227 -11.3719 257.697C-9.99651 260.167 -11.3719 271.861 -11.3719 271.861C-11.3719 271.861 -16.3006 270.48 -15.9582 271.215C-15.6158 271.951 -16.2277 275.773 -16.2277 275.773L-19.4668 274.561V271.861L-37.8122 261.341L-52.3516 262.183V270.244L-54.5297 270.502V270.497Z" fill="#2E485E"></path><path d="M210.396 383.82L221.354 385.397C221.354 385.397 221.522 375.669 222.802 375.455C224.082 375.242 258.067 374.759 258.196 376.123C258.325 377.487 259.594 445.789 259.594 445.789H209.2L209.026 383.331L210.385 383.82H210.396Z" fill="#2E485E"></path><path d="M373.349 325.853C371.727 327.526 372.704 347.858 371.373 351.446C370.043 355.033 372.81 413.106 372.81 413.106L372.249 434.556C372.249 434.556 472.217 436.79 471.936 435.768C471.656 434.747 470.499 399.353 470.499 399.353C470.499 399.353 453.338 398.106 452.676 396.501C452.014 394.895 451.323 336.609 451.323 336.609C451.323 336.609 445.53 331.596 436.98 330.125C428.43 328.654 398.734 322.715 398.734 322.715L373.355 325.853H373.349Z" fill="#2E485E"></path><path d="M479.644 345.781C478.948 348.858 479.644 442.078 479.644 442.078L527.186 440.68L530.099 438.227C530.099 438.227 529.106 440.899 529.291 432.49C529.476 424.081 530.723 372.626 530.099 371.408C529.476 370.19 507.465 351.227 505.281 351.446C503.098 351.665 479.649 345.781 479.649 345.781H479.644Z" fill="#2B3A4C"></path><path d="M1115.68 309.702C1116.1 309.001 1164.26 306.643 1164.04 307.26C1163.81 307.878 1164.98 315.086 1164.98 315.086L1115.68 316.658V309.702Z" fill="#6197B5"></path><path d="M1115.54 322.052C1115.95 321.351 1164.12 318.993 1163.89 319.611C1163.67 320.228 1164.83 327.436 1164.83 327.436L1115.54 329.008V322.052Z" fill="#6197B5"></path><path d="M1116.66 334.964C1117.08 334.262 1165.24 331.904 1165.02 332.522C1164.79 333.139 1165.95 340.347 1165.95 340.347L1116.66 341.919V334.964Z" fill="#6197B5"></path><path d="M1116.66 348.998C1117.08 348.296 1165.24 345.939 1165.02 346.556C1164.79 347.174 1165.95 354.382 1165.95 354.382L1116.66 355.953V348.998Z" fill="#6197B5"></path><path d="M1116.66 363.032C1117.08 362.331 1165.24 359.973 1165.02 360.59C1164.79 361.208 1165.95 368.416 1165.95 368.416L1116.66 369.988V363.032Z" fill="#6197B5"></path><path d="M1116.66 375.944C1117.08 375.242 1165.24 372.884 1165.02 373.502C1164.79 374.119 1165.95 381.327 1165.95 381.327L1116.66 382.899V375.944Z" fill="#6197B5"></path><path d="M1116.66 389.416C1117.08 388.715 1165.24 386.357 1165.02 386.975C1164.79 387.592 1165.95 394.8 1165.95 394.8L1116.66 396.372V389.416Z" fill="#6197B5"></path><path d="M1116.66 401.205C1117.08 400.503 1165.24 398.146 1165.02 398.763C1164.79 399.381 1165.95 406.589 1165.95 406.589L1116.66 408.161V401.205Z" fill="#6197B5"></path><path d="M1117.22 413.555C1117.64 412.854 1165.8 410.496 1165.58 411.113C1165.35 411.731 1166.51 418.939 1166.51 418.939L1117.22 420.511V413.555Z" fill="#6197B5"></path><path opacity="0.48" d="M835.618 335.8L861.991 333.308V338.922L834.854 340.999L834.658 335.8H835.618Z" fill="#699FCC"></path><path opacity="0.48" d="M835.982 344.928L862.361 342.436V348.055L835.225 350.126L835.028 344.928H835.982Z" fill="#699FCC"></path><path opacity="0.48" d="M835.982 353.91L862.361 351.418V357.037L835.225 359.108L835.028 353.91H835.982Z" fill="#699FCC"></path><path opacity="0.48" d="M835.982 362.331L862.361 359.838V365.457L835.225 367.529L835.028 362.331H835.982Z" fill="#699FCC"></path><path opacity="0.48" d="M836.544 371.312L862.922 368.82V374.439L835.786 376.511L835.59 371.312H836.544Z" fill="#699FCC"></path><path opacity="0.48" d="M836.544 380.294L862.922 377.802V383.421L835.786 385.493L835.59 380.294H836.544Z" fill="#699FCC"></path><path opacity="0.48" d="M836.544 389.837L862.922 387.345V392.964L835.786 395.036L835.59 389.837H836.544Z" fill="#699FCC"></path><path opacity="0.48" d="M837.105 398.819L863.484 396.327V401.946L836.347 404.018L836.151 398.819H837.105Z" fill="#699FCC"></path><path opacity="0.48" d="M837.105 407.801L863.484 405.309V410.928L836.347 412.999L836.151 407.801H837.105Z" fill="#699FCC"></path><path opacity="0.48" d="M837.105 417.344L863.484 414.852V420.471L836.347 422.543L836.151 417.344H837.105Z" fill="#699FCC"></path><path d="M804.686 339.522C791.494 339.893 778.302 339.668 765.132 338.849C760.804 338.579 760.821 345.316 765.132 345.585C778.302 346.405 791.5 346.629 804.686 346.259C809.014 346.135 809.031 339.399 804.686 339.522Z" fill="#3F6B89"></path><path d="M642.092 332.786C632.128 333.156 622.158 332.932 612.205 332.112C608.932 331.843 608.944 338.579 612.205 338.849C622.158 339.668 632.128 339.893 642.092 339.522C645.359 339.399 645.376 332.662 642.092 332.786Z" fill="#3F6B89"></path><path d="M642.092 343.452C632.128 343.822 622.158 343.598 612.205 342.778C608.932 342.509 608.944 349.245 612.205 349.515C622.158 350.334 632.128 350.559 642.092 350.188C645.359 350.065 645.376 343.328 642.092 343.452Z" fill="#3F6B89"></path><path d="M643.215 354.118C633.251 354.488 623.281 354.264 613.328 353.444C610.055 353.175 610.066 359.911 613.328 360.18C623.281 361 633.251 361.225 643.215 360.854C646.482 360.731 646.499 353.994 643.215 354.118Z" fill="#3F6B89"></path><path d="M643.215 364.222C633.251 364.593 623.281 364.368 613.328 363.549C610.055 363.279 610.066 370.016 613.328 370.285C623.281 371.105 633.251 371.329 643.215 370.959C646.482 370.835 646.499 364.099 643.215 364.222Z" fill="#3F6B89"></path><path d="M644.338 376.572C634.373 376.943 624.404 376.718 614.451 375.899C611.178 375.629 611.189 382.366 614.451 382.635C624.404 383.455 634.373 383.679 644.338 383.309C647.605 383.185 647.622 376.449 644.338 376.572Z" fill="#3F6B89"></path><path d="M644.338 386.677C634.373 387.047 624.404 386.823 614.451 386.003C611.178 385.734 611.189 392.47 614.451 392.74C624.404 393.559 634.373 393.784 644.338 393.413C647.605 393.29 647.622 386.553 644.338 386.677Z" fill="#3F6B89"></path><path d="M806.151 351.126C792.28 349.166 778.409 349.369 764.605 351.788C760.344 352.535 762.152 359.03 766.395 358.283C778.908 356.088 791.78 355.841 804.361 357.621C806.174 357.879 807.953 357.177 808.504 355.269C808.958 353.697 807.948 351.378 806.151 351.126Z" fill="#3F6B89"></path><path d="M805.781 364.026C793.425 364.161 781.07 364.295 768.708 364.436C764.375 364.481 764.363 371.217 768.708 371.172C781.064 371.037 793.42 370.903 805.781 370.762C810.115 370.717 810.126 363.981 805.781 364.026Z" fill="#3F6B89"></path><path d="M809.014 375.422C793.19 375.017 777.365 375.618 761.613 377.224C757.341 377.661 757.296 384.398 761.613 383.96C777.365 382.354 793.184 381.754 809.014 382.158C813.348 382.27 813.348 375.534 809.014 375.422Z" fill="#3F6B89"></path><path d="M806.303 386.784C792.415 387.367 778.532 388.002 764.65 388.675C760.333 388.883 760.31 395.625 764.65 395.412C778.532 394.738 792.415 394.104 806.303 393.52C810.62 393.34 810.642 386.598 806.303 386.784Z" fill="#3F6B89"></path><path d="M803.979 397.197C791.124 397.843 778.263 398.488 765.407 399.134C761.091 399.353 761.068 406.089 765.407 405.87C778.263 405.225 791.124 404.579 803.979 403.933C808.296 403.714 808.318 396.978 803.979 397.197Z" fill="#3F6B89"></path><path d="M805.691 410.945C792.825 411.085 779.953 411.231 767.086 411.371C762.752 411.422 762.741 418.158 767.086 418.108C779.953 417.968 792.825 417.822 805.691 417.681C810.025 417.631 810.036 410.894 805.691 410.945Z" fill="#3F6B89"></path><path d="M507.213 374.147C499.006 372.39 490.636 371.447 482.243 371.34C480.8 371.324 480.795 373.569 482.243 373.586C490.439 373.693 498.601 374.602 506.618 376.314C508.027 376.617 508.627 374.45 507.213 374.147Z" fill="#3F6B89"></path><path d="M508.521 382.051C500.263 380.3 491.781 379.694 483.36 380.3C481.929 380.401 481.917 382.646 483.36 382.545C491.584 381.956 499.859 382.506 507.925 384.218C509.334 384.516 509.935 382.354 508.521 382.051Z" fill="#3F6B89"></path><path d="M502.671 387.525C495.643 386.666 488.547 386.795 481.541 387.839C480.941 387.929 480.61 388.687 480.755 389.22C480.929 389.86 481.536 390.096 482.136 390.006C488.929 388.99 495.851 388.934 502.666 389.77C503.266 389.843 503.788 389.203 503.788 388.647C503.788 387.979 503.272 387.598 502.666 387.525H502.671Z" fill="#3F6B89"></path><path d="M502.464 395.305L484.107 393.739C482.67 393.615 482.675 395.861 484.107 395.984L502.464 397.551C503.901 397.674 503.895 395.429 502.464 395.305Z" fill="#3F6B89"></path><path d="M500.358 401.194C494.649 400.458 488.901 400.049 483.141 399.964C481.699 399.942 481.693 402.188 483.141 402.21C488.901 402.294 494.649 402.704 500.358 403.439C500.959 403.518 501.481 402.867 501.481 402.317C501.481 401.643 500.965 401.272 500.358 401.194Z" fill="#3F6B89"></path><path d="M495.306 406.387C495.143 405.792 494.515 405.449 493.925 405.601C491.64 406.196 489.288 406.072 487.032 405.264C486.476 405.067 485.78 405.488 485.651 406.05C485.505 406.678 485.841 407.217 486.437 407.431C489.024 408.357 491.871 408.458 494.526 407.768C495.115 407.616 495.469 406.965 495.312 406.387H495.306Z" fill="#3F6B89"></path><path d="M525.586 376.056C521.746 374.944 517.834 374.102 513.876 373.524C513.275 373.434 512.669 373.67 512.495 374.31C512.349 374.838 512.675 375.601 513.281 375.691C516.969 376.224 520.613 377.005 524.205 378.009C524.755 378.515 525.53 378.391 526.086 377.937C526.765 377.381 526.338 376.275 525.592 376.062L525.586 376.056Z" fill="#3F6B89"></path><path d="M524.795 384.645C523.734 384.297 522.661 383.994 521.578 383.713C519.417 383.157 517.222 382.731 515.01 382.433C514.409 382.349 513.803 382.579 513.629 383.219C513.483 383.741 513.809 384.516 514.415 384.6C516.279 384.853 518.131 385.195 519.967 385.627C520.848 385.835 521.724 386.071 522.594 386.318C523.066 386.452 523.532 386.593 523.998 386.744C524.172 386.8 524.357 386.885 524.536 386.924C524.576 386.935 524.604 386.946 524.626 386.958C524.767 387.44 525.137 387.822 525.693 387.822C526.249 387.822 526.883 387.306 526.816 386.699C526.686 385.509 525.85 384.993 524.789 384.645H524.795Z" fill="#3F6B89"></path><path d="M525.974 390.079C522.662 389.781 519.344 389.484 516.032 389.181C515.426 389.125 514.909 389.736 514.909 390.303C514.909 390.955 515.426 391.37 516.032 391.426C519.344 391.724 522.662 392.021 525.974 392.324C526.58 392.38 527.096 391.769 527.096 391.202C527.096 390.55 526.58 390.135 525.974 390.079Z" fill="#3F6B89"></path><path d="M524.75 396.299C524.665 395.687 524.267 395.311 523.717 395.086C523.178 394.867 522.482 395.316 522.341 395.85C521.791 395.698 521.236 395.569 520.674 395.468C519.4 395.243 518.103 395.131 516.812 395.154C516.223 395.165 515.661 395.664 515.689 396.276C515.717 396.877 516.183 397.41 516.812 397.399C517.648 397.382 518.491 397.422 519.321 397.517C519.585 397.545 519.512 397.539 519.77 397.579C519.978 397.612 520.186 397.646 520.388 397.685C520.82 397.77 521.247 397.871 521.673 397.983C522.617 398.241 523.711 398.477 524.407 397.579C524.694 397.203 524.811 396.753 524.75 396.288V396.299Z" fill="#3F6B89"></path><path d="M523.357 402.844C521.707 402.429 520.006 402.182 518.305 402.103C517.716 402.075 517.154 402.642 517.182 403.226C517.21 403.86 517.676 404.321 518.305 404.349C518.698 404.366 519.091 404.394 519.484 404.433C519.68 404.45 519.877 404.472 520.073 404.495C520.096 404.495 520.146 404.5 520.191 404.506C520.276 404.517 520.36 404.528 520.45 404.545C521.23 404.663 521.999 404.815 522.762 405.011C523.329 405.152 524.009 404.826 524.143 404.225C524.278 403.641 523.969 402.996 523.357 402.844Z" fill="#3F6B89"></path><path d="M521.769 406.774C521.556 406.577 521.275 406.431 520.977 406.443C520.865 406.443 520.747 406.437 520.635 406.426C520.5 406.398 520.371 406.364 520.242 406.314C520.231 406.308 520.22 406.302 520.208 406.297C520.079 406.213 519.939 406.168 519.793 406.162C519.641 406.128 519.495 406.134 519.344 406.184C519.198 406.218 519.069 406.285 518.962 406.387C518.839 406.465 518.743 406.572 518.67 406.701C518.53 406.959 518.463 407.279 518.558 407.565C518.648 407.835 518.816 408.099 519.074 408.239C519.361 408.391 519.675 408.52 519.989 408.593C520.309 408.666 520.646 408.705 520.977 408.694C521.275 408.683 521.561 408.576 521.769 408.363C521.881 408.262 521.954 408.138 521.999 408.003C522.072 407.869 522.1 407.723 522.095 407.571C522.083 407.279 521.988 406.982 521.763 406.78L521.769 406.774Z" fill="#3F6B89"></path><path d="M467.019 404.124C463.347 402.945 459.48 402.395 455.623 402.496C454.18 402.536 454.175 404.781 455.623 404.742C459.294 404.646 462.921 405.168 466.418 406.291C467.799 406.735 468.389 404.568 467.013 404.124H467.019Z" fill="#3F6B89"></path><path d="M466.71 408.374C463.151 407.986 459.57 407.756 455.988 407.695C454.545 407.672 454.54 409.918 455.988 409.94C459.57 410.002 463.146 410.226 466.71 410.619C467.316 410.687 467.833 410.058 467.833 409.497C467.833 408.834 467.316 408.441 466.71 408.374Z" fill="#3F6B89"></path><path d="M464.195 415.722C461.708 415.576 459.221 415.425 456.735 415.279C456.145 415.245 455.584 415.818 455.612 416.401C455.64 417.041 456.106 417.485 456.735 417.524C459.221 417.67 461.708 417.822 464.195 417.968C464.785 418.001 465.346 417.429 465.318 416.845C465.29 416.205 464.824 415.761 464.195 415.722Z" fill="#3F6B89"></path><path d="M462.202 421.948C462.023 421.398 461.416 420.96 460.821 421.162C460.428 421.296 460.036 421.409 459.631 421.499C459.412 421.549 459.193 421.588 458.975 421.622C458.935 421.628 458.627 421.689 458.896 421.633C458.789 421.656 458.671 421.661 458.565 421.667C458.155 421.706 457.74 421.717 457.33 421.712C457.122 421.712 456.92 421.695 456.712 421.684C456.617 421.678 456.521 421.667 456.426 421.656C456.37 421.65 456.314 421.645 456.258 421.639C455.949 421.594 455.674 421.588 455.393 421.751C455.163 421.886 454.938 422.155 454.877 422.425C454.753 422.958 455.039 423.716 455.662 423.806C457.599 424.086 459.564 423.963 461.428 423.334C461.983 423.149 462.404 422.554 462.214 421.953L462.202 421.948Z" fill="#3F6B89"></path><path d="M439.495 340.426C434.97 338.113 429.245 337.861 424.305 336.962C418.624 335.929 412.937 334.897 407.256 333.864C402.664 333.027 400.693 340.061 405.314 340.903C410.63 341.869 415.946 342.834 421.262 343.805C423.827 344.271 426.393 344.737 428.958 345.203C431.148 345.602 433.797 345.703 435.807 346.73C439.978 348.863 443.677 342.57 439.49 340.426H439.495Z" fill="#3F6B89"></path><path d="M439.669 353.562C427.426 350.278 415.008 347.752 402.456 346C400.491 345.725 398.56 346.483 397.965 348.549C397.477 350.25 398.566 352.765 400.514 353.04C413.066 354.791 425.489 357.318 437.727 360.602C442.268 361.82 444.205 354.78 439.669 353.562Z" fill="#3F6B89"></path><path d="M438.737 366.109C428.049 361.853 416.412 362.381 405.252 360.332C400.66 359.49 398.689 366.524 403.309 367.372C414.458 369.415 426.129 368.904 436.795 373.148C441.157 374.883 443.054 367.832 438.737 366.109Z" fill="#3F6B89"></path><path d="M440.259 381.675C435.027 379.441 429.682 377.807 424.041 377.016C421.442 376.651 418.842 376.449 416.221 376.382C413.661 376.32 411.073 376.398 408.771 375.118C404.668 372.828 400.98 379.132 405.089 381.423C409.765 384.033 414.947 383.449 420.089 383.865C425.73 384.319 431.372 385.756 436.576 387.974C438.4 388.754 440.466 388.501 441.567 386.666C442.482 385.139 442.066 382.444 440.259 381.675Z" fill="#3F6B89"></path><path d="M442.745 399.386C431.602 394.014 418.764 392.976 406.706 390.96C402.114 390.191 400.138 397.225 404.763 398C416.047 399.886 428.627 400.661 439.057 405.69C443.267 407.723 446.972 401.43 442.74 399.386H442.745Z" fill="#3F6B89"></path><path d="M437.648 410.659C433.135 409.036 428.268 408.935 423.53 408.621C418.567 408.295 413.605 407.97 408.642 407.644C403.955 407.335 403.972 414.633 408.642 414.942C413.251 415.245 417.854 415.548 422.463 415.851C426.932 416.143 431.451 416.166 435.706 417.698C440.135 419.292 442.038 412.242 437.648 410.659Z" fill="#3F6B89"></path><path d="M382.747 335.121C381.135 335.155 379.536 335.261 377.936 335.464C376.841 335.604 375.539 335.929 374.455 336.109C373.231 335.823 371.85 336.137 370.98 337.058C370.947 337.097 370.907 337.136 370.874 337.17C369.184 338.961 369.639 341.571 371.615 342.902C373.321 344.047 375.381 343.205 377.206 342.89C379.042 342.576 380.894 342.458 382.752 342.419C387.44 342.318 387.456 335.02 382.752 335.121H382.747Z" fill="#3F6B89"></path><path d="M384.055 342.711C381.36 343.379 378.632 343.929 375.87 344.271C373.916 344.513 372.221 345.776 372.221 347.92C372.221 349.705 373.899 351.811 375.87 351.569C379.283 351.148 382.651 350.576 385.991 349.75C390.55 348.622 388.618 341.582 384.049 342.711H384.055Z" fill="#3F6B89"></path><path d="M384.049 353.674C380.838 354.022 377.644 354.483 374.466 355.078C372.53 355.443 371.429 357.778 371.918 359.569C372.474 361.601 374.461 362.482 376.409 362.117C378.946 361.64 381.484 361.253 384.049 360.978C386.008 360.764 387.698 359.451 387.698 357.329C387.698 355.521 386.019 353.467 384.049 353.68V353.674Z" fill="#3F6B89"></path><path d="M387.535 369.51C386.979 367.484 384.986 366.586 383.044 366.962C380.58 367.439 378.115 367.72 375.612 367.849C373.641 367.95 371.963 369.454 371.963 371.498C371.963 373.395 373.636 375.248 375.612 375.147C378.761 374.989 381.888 374.596 384.986 374.001C386.923 373.625 388.029 371.307 387.535 369.51Z" fill="#3F6B89"></path><path d="M387.883 380.889C387.316 378.823 385.346 378.021 383.392 378.341C380.54 378.807 377.689 379.278 374.837 379.744C372.889 380.064 371.805 382.478 372.288 384.235C372.855 386.301 374.826 387.104 376.779 386.784C379.631 386.318 382.483 385.846 385.334 385.38C387.282 385.06 388.366 382.646 387.883 380.889Z" fill="#3F6B89"></path><path d="M387.294 395.889C386.744 393.885 384.739 392.936 382.803 393.34C381.854 393.537 380.905 393.722 379.945 393.84C379.552 393.891 379.159 393.919 378.767 393.952C378.345 393.509 377.801 393.166 377.15 392.987C375.325 392.487 373.085 393.599 372.659 395.535C371.946 398.797 374.248 401.34 377.532 401.345C379.917 401.345 382.41 400.863 384.739 400.38C386.671 399.981 387.788 397.702 387.288 395.889H387.294Z" fill="#3F6B89"></path><path d="M384.998 405.937C383.965 404.169 381.759 403.709 380.007 404.629C378.576 405.382 376.819 405.937 375.348 406.089C373.389 406.285 371.699 407.622 371.699 409.738C371.699 411.557 373.377 413.589 375.348 413.387C378.317 413.089 381.04 412.326 383.69 410.934C385.436 410.019 385.963 407.588 384.998 405.943V405.937Z" fill="#3F6B89"></path><path d="M387.788 417.608C387.316 415.89 385.127 414.296 383.297 415.06C381.281 415.902 379.204 416.474 377.043 416.794C375.09 417.081 374.017 419.551 374.494 421.285C375.067 423.379 377.026 424.12 378.985 423.834C381.147 423.519 383.224 422.941 385.239 422.099C387.058 421.341 388.355 419.685 387.788 417.608Z" fill="#3F6B89"></path><path d="M251.454 382.635C244.594 381.849 237.718 381.395 230.813 381.271C226.114 381.187 226.114 388.485 230.813 388.569C237.718 388.692 244.594 389.147 251.454 389.933C256.114 390.466 256.074 383.163 251.454 382.635Z" fill="#3F6B89"></path><path d="M248.827 397.843C242.669 397.365 236.505 396.894 230.347 396.417C225.665 396.057 225.688 403.355 230.347 403.714C236.505 404.192 242.669 404.663 248.827 405.14C253.509 405.5 253.486 398.202 248.827 397.843Z" fill="#3F6B89"></path><path d="M245.358 412.837C239.907 412.264 234.49 412.27 229.039 412.853C224.419 413.353 224.368 420.656 229.039 420.151C234.484 419.567 239.907 419.556 245.358 420.134C250.023 420.623 249.989 413.325 245.358 412.837Z" fill="#3F6B89"></path><path d="M246.262 425.709C245.784 423.974 243.612 422.425 241.771 423.16C238.442 424.496 235.158 425.024 231.582 424.766C226.894 424.429 226.917 431.727 231.582 432.063C235.719 432.361 239.862 431.738 243.713 430.194C245.543 429.464 246.823 427.758 246.262 425.703V425.709Z" fill="#3F6B89"></path><path d="M218.833 395.193C218.193 393.206 216.352 392.234 214.342 392.644C213.046 392.908 211.754 393.172 210.458 393.436C208.583 393.818 207.331 396.136 207.909 397.927C208.549 399.914 210.39 400.885 212.4 400.475C213.697 400.212 214.988 399.948 216.285 399.684C218.16 399.302 219.411 396.984 218.833 395.193Z" fill="#3F6B89"></path><path d="M-16.2781 272.13C-12.9099 271.428 -9.48 271.137 -6.05005 271.03C-4.9217 270.996 -3.79335 270.929 -2.665 270.94C-1.8398 270.946 -0.952844 270.979 -0.189386 271.339C0.579686 271.704 0.955804 272.4 1.14667 273.202C1.50033 274.718 1.4049 276.425 1.45542 277.974C1.57331 281.415 1.59576 284.856 1.58453 288.298C1.57331 292.171 1.5284 296.039 1.54524 299.912C1.54524 300.996 3.23496 300.996 3.22934 299.912C3.20689 292.508 3.39774 285.103 3.1339 277.699C3.07776 276.077 3.14513 274.336 2.77463 272.748C2.53324 271.726 2.01117 270.789 1.14667 270.171C-0.554271 268.953 -2.96253 269.239 -4.93293 269.307C-8.89056 269.452 -12.8314 269.688 -16.7216 270.497C-17.7826 270.716 -17.3335 272.343 -16.2725 272.119L-16.2781 272.13Z" fill="black"></path><path d="M-0.767577 270.665C-0.110778 271.833 1.06248 272.641 2.19644 273.292C3.63353 274.123 5.1773 274.763 6.70983 275.392C8.07956 275.953 9.47736 276.464 10.8022 277.126C12.6603 278.058 14.3669 279.288 16.0397 280.517C18.0494 281.988 20.0254 283.503 22.1979 284.727C23.141 285.261 23.9943 283.807 23.0456 283.273C19.3462 281.185 16.2138 278.26 12.5312 276.15C9.8647 274.628 6.86701 273.792 4.12754 272.416C2.89815 271.799 1.38807 271.064 0.68636 269.812C0.153062 268.869 -1.30087 269.716 -0.767577 270.659V270.665Z" fill="black"></path><path d="M21.5075 284.536C21.5075 286.338 21.4794 288.146 21.4176 289.948C21.3671 291.497 21.2212 293.047 21.2099 294.596C21.1987 295.848 21.2605 297.1 21.2436 298.352C21.2324 299.413 21.2548 300.653 20.817 301.647C20.3791 302.64 21.8274 303.488 22.2709 302.494C23.2982 300.193 22.8996 297.386 22.894 294.938C22.894 293.361 23.04 291.789 23.0961 290.212C23.1635 288.32 23.1916 286.423 23.1916 284.531C23.1916 283.447 21.5075 283.447 21.5075 284.531V284.536Z" fill="black"></path><path d="M-10.5634 270.193C-9.67086 267.392 -10.3669 264.333 -9.78874 261.475C-9.69892 261.021 -9.59227 260.414 -9.24984 260.078C-8.9074 259.741 -8.35726 259.718 -7.91939 259.713C-6.47107 259.696 -5.02274 260.134 -3.64739 260.538C-2.09802 260.993 -0.571111 261.408 1.02317 261.689C2.88691 262.014 4.86852 262.289 6.51894 263.283C9.97696 265.371 13.3452 267.796 16.1969 270.665C16.6909 271.159 17.286 271.67 17.5947 272.315C17.8642 272.871 17.8361 273.517 17.8136 274.117C17.7856 274.971 17.7407 275.824 17.6845 276.672C17.634 277.413 17.6284 278.305 17.3028 278.99C16.8369 279.961 18.2852 280.82 18.7567 279.838C19.4528 278.384 19.3742 276.587 19.4528 275.016C19.5202 273.601 19.61 272.186 18.7399 270.985C17.5891 269.396 15.9611 268.06 14.451 266.831C12.6884 265.399 10.8359 264.086 8.93844 262.845C8.08516 262.284 7.2431 261.7 6.30001 261.296C5.33446 260.88 4.324 260.611 3.29109 260.403C1.39928 260.021 -0.48129 259.746 -2.3338 259.185C-3.8944 258.708 -5.47184 258.236 -7.10541 258.079C-8.44708 257.944 -10.0021 258.107 -10.7936 259.348C-11.6974 260.757 -11.6749 262.755 -11.7255 264.361C-11.7816 266.129 -11.6413 268.049 -12.1914 269.756C-12.5226 270.789 -10.8946 271.232 -10.569 270.205L-10.5634 270.193Z" fill="black"></path><path d="M210.171 384.634C213.787 385.891 217.531 386.452 221.354 386.239C221.949 386.205 222.246 385.728 222.168 385.172C221.96 383.73 221.994 382.231 222.089 380.783C222.185 379.334 222.381 377.835 222.881 376.449L222.493 376.954C222.544 376.909 222.606 376.875 222.667 376.853L221.646 376.724L221.657 376.735L221.528 375.713C221.41 375.927 221.281 376.078 221.191 376.314C220.804 377.325 222.432 377.762 222.813 376.763C222.757 376.909 222.954 376.617 222.982 376.567C223.167 376.236 223.116 375.82 222.853 375.545L222.841 375.534C222.566 375.248 222.157 375.242 221.82 375.405C221.112 375.742 220.983 376.847 220.837 377.544C220.646 378.47 220.523 379.413 220.444 380.356C220.298 382.113 220.293 383.887 220.551 385.633L221.365 384.566C217.671 384.768 214.118 384.235 210.626 383.017C209.599 382.658 209.161 384.286 210.177 384.639L210.171 384.634Z" fill="black"></path><path d="M221.96 375.186C222.802 382.607 222.387 390.124 222.011 397.562C221.837 401.065 221.612 404.551 221.842 408.059C222.072 411.568 222.544 415.121 222.847 418.658C223.167 422.419 223.364 426.287 222.533 429.992C222.297 431.047 223.919 431.496 224.155 430.441C225.688 423.604 224.211 416.469 223.639 409.603C223.032 402.272 223.947 394.907 224.088 387.57C224.166 383.438 224.11 379.289 223.644 375.18C223.521 374.114 221.837 374.102 221.96 375.18V375.186Z" fill="black"></path><path d="M222.578 376.269C227.175 377.01 231.795 376.617 236.421 376.539C241.046 376.46 245.521 377.089 250.051 376.814C251.898 376.701 254.149 376.264 255.827 377.263C256.759 377.819 257.607 376.365 256.675 375.809C255.109 374.877 253.2 374.916 251.443 375.034C249.383 375.169 247.351 375.163 245.29 375.096C242.921 375.023 240.558 374.86 238.189 374.843C235.82 374.827 233.418 374.956 231.032 375.017C228.36 375.085 225.671 375.068 223.027 374.647C221.966 374.478 221.511 376.101 222.578 376.269Z" fill="black"></path><path d="M372.923 324.921C374.54 325.668 376.448 325.578 378.183 325.454C380.192 325.308 382.185 324.988 384.189 324.803C389.854 324.287 395.641 324.792 401.283 325.376C412.875 326.583 424.305 328.671 435.566 331.674C436.795 332 438.013 332.359 439.259 332.601C440.377 332.819 441.499 332.994 442.616 333.224C444.722 333.65 447.068 334.2 448.567 335.851C449.297 336.654 450.487 335.464 449.757 334.661C447.029 331.657 442.375 331.613 438.692 330.765C435.981 330.142 433.315 329.333 430.609 328.677C427.903 328.02 424.967 327.363 422.127 326.796C416.361 325.634 410.551 324.741 404.713 324.073C398.88 323.405 393.014 322.827 387.137 322.979C384.689 323.04 382.292 323.36 379.861 323.624C378.71 323.748 377.548 323.849 376.392 323.849C375.539 323.849 374.568 323.843 373.77 323.478C372.794 323.029 371.935 324.478 372.923 324.932V324.921Z" fill="black"></path><path d="M450.476 336.609C450.285 348.858 450.734 361.107 450.751 373.35C450.756 379.508 450.577 385.695 450.784 391.847C450.992 398 451.851 403.726 451.823 409.704C451.795 415.548 452.064 421.611 450.509 427.303C450.223 428.347 451.845 428.796 452.132 427.752C453.529 422.644 453.49 417.215 453.501 411.961C453.507 409.143 453.513 406.342 453.322 403.529C453.12 400.487 452.794 397.455 452.598 394.413C452.205 388.243 452.44 382.018 452.435 375.837C452.435 369.634 452.373 363.425 452.272 357.222C452.16 350.351 452.053 343.474 452.16 336.603C452.177 335.52 450.492 335.52 450.476 336.603V336.609Z" fill="black"></path><path d="M371.963 325.005C370.138 339.41 370.374 353.961 370.958 368.438C371.542 382.916 372.462 397.287 372.008 411.725C371.946 413.746 371.912 415.756 372.002 417.777C372.092 419.798 372.266 421.83 372.272 423.856C372.272 426.197 372.232 428.538 372.232 430.879C372.232 431.962 373.916 431.962 373.916 430.879V430.761C373.916 429.678 372.232 429.678 372.232 430.761V430.879C372.232 431.962 373.916 431.962 373.916 430.879C373.916 428.937 373.916 427 373.944 425.063C373.995 421.532 373.591 418.018 373.613 414.481C373.636 410.945 373.81 407.229 373.81 403.597C373.81 399.965 373.742 396.332 373.636 392.706C373.209 378.285 372.165 363.874 372.21 349.442C372.232 341.279 372.62 333.111 373.647 325.005C373.782 323.933 372.098 323.944 371.963 325.005Z" fill="black"></path><path d="M404.455 321.923C404.472 321.957 404.488 321.996 404.505 322.03L404.421 321.828C404.539 322.109 404.606 322.412 404.646 322.709L404.618 322.485C404.674 322.934 404.679 323.394 404.623 323.843L404.651 323.619C404.651 323.619 404.646 323.669 404.64 323.697C404.606 323.933 404.601 324.135 404.724 324.348C404.825 324.522 405.027 324.691 405.229 324.736C405.443 324.786 405.684 324.775 405.881 324.652C406.049 324.539 406.234 324.36 406.268 324.146C406.414 323.125 406.38 322.013 405.914 321.07C405.718 320.677 405.128 320.531 404.763 320.767C404.359 321.025 404.253 321.497 404.46 321.918L404.455 321.923Z" fill="black"></path><path d="M406.767 321.227V323.383C406.767 323.821 407.155 324.247 407.61 324.225C408.064 324.203 408.452 323.854 408.452 323.383V321.227C408.452 320.789 408.064 320.363 407.61 320.385C407.155 320.408 406.767 320.756 406.767 321.227Z" fill="black"></path><path d="M393.581 332.247C394.451 335.503 394.215 338.955 394.013 342.278C393.789 345.939 393.716 349.587 393.777 353.253C393.901 360.972 394.412 368.68 395.158 376.365C395.585 380.743 396.068 385.111 396.523 389.484C396.635 390.55 398.319 390.562 398.207 389.484C397.393 381.698 396.494 373.911 395.989 366.092C395.484 358.272 395.181 350.744 395.647 343.104C395.877 339.354 396.191 335.469 395.209 331.792C394.928 330.748 393.306 331.192 393.587 332.241L393.581 332.247Z" fill="black"></path><path d="M397.056 400.548C397.309 404.237 398.005 407.902 397.864 411.607C397.825 412.691 399.509 412.691 399.548 411.607C399.689 407.897 398.993 404.237 398.74 400.548C398.667 399.471 396.983 399.465 397.056 400.548Z" fill="black"></path><path d="M452.934 397.343C456.044 397.461 459.132 397.837 462.202 398.32C463.735 398.561 465.267 398.819 466.794 399.089C467.693 399.246 468.697 399.341 469.534 399.74C470.005 399.965 470.185 400.178 470.303 400.661C470.494 401.424 470.438 402.26 470.438 403.035C470.438 403.9 470.449 404.764 470.46 405.629C470.567 412.169 470.73 418.709 470.887 425.248C470.949 427.758 470.999 430.273 471.083 432.782C471.123 433.865 472.807 433.865 472.767 432.782C472.565 426.921 472.464 421.055 472.335 415.194C472.268 412.051 472.195 408.907 472.144 405.763C472.127 404.882 472.116 404.006 472.116 403.125C472.116 401.671 472.262 399.796 471.055 398.735C470.381 398.14 469.455 397.893 468.596 397.713C466.98 397.371 465.329 397.13 463.696 396.86C460.131 396.282 456.538 395.794 452.923 395.653C451.84 395.614 451.84 397.298 452.923 397.337L452.934 397.343Z" fill="black"></path><path d="M478.263 348.745C478.263 357.396 478.095 366.047 478.229 374.697C478.297 379.014 478.549 383.326 478.662 387.637C478.757 391.437 478.656 395.232 478.538 399.033C478.448 401.946 478.538 404.876 478.544 407.79C478.561 412.348 478.566 416.907 478.488 421.465C478.454 423.564 478.403 425.669 478.28 427.763C478.235 428.482 478.184 429.195 478.095 429.908C478.078 430.043 478.128 429.7 478.095 429.897C478.083 429.97 478.072 430.043 478.061 430.115C478.044 430.217 478.027 430.323 477.999 430.424C477.982 430.503 477.949 430.581 477.937 430.666C478.033 430.497 477.892 430.896 477.937 430.666C477.387 431.603 478.841 432.451 479.391 431.513C479.857 430.722 479.835 429.56 479.902 428.678C480.037 426.955 480.087 425.226 480.132 423.497C480.245 418.922 480.245 414.341 480.239 409.766C480.233 406.381 480.177 402.996 480.217 399.611C480.245 396.697 480.407 393.784 480.396 390.865C480.379 386.632 480.104 382.405 479.992 378.178C479.734 368.365 479.947 358.553 479.953 348.74C479.953 347.656 478.269 347.656 478.269 348.74L478.263 348.745Z" fill="black"></path><path d="M479.049 346.376C482.501 349.604 486.554 352.086 490.422 354.775C494.515 357.626 498.326 360.916 502.093 364.177C504.288 366.08 506.421 368.045 508.459 370.117C509.222 370.891 510.413 369.701 509.649 368.927C506.045 365.261 502.116 361.943 498.158 358.676C496.289 357.132 494.436 355.583 492.471 354.168C490.506 352.754 488.497 351.44 486.515 350.076C484.331 348.571 482.187 347.005 480.245 345.186C479.453 344.445 478.263 345.635 479.055 346.376H479.049Z" fill="black"></path><path d="M509.29 370.869C509.29 378.256 509.29 385.65 509.279 393.037C509.279 401.598 509.267 410.159 509.262 418.72C509.262 422.47 509.262 426.225 509.262 429.975C509.262 431.059 510.946 431.059 510.946 429.975C510.946 422.604 510.946 415.234 510.957 407.869C510.957 399.302 510.968 390.736 510.974 382.169C510.974 378.402 510.974 374.636 510.974 370.869C510.974 369.785 509.29 369.785 509.29 370.869Z" fill="black"></path><path d="M479.588 346.376C481.07 347.735 482.765 347.421 484.601 347.656C486.964 347.965 489.288 348.684 491.596 349.268C496.087 350.401 500.521 351.833 505.052 352.793C506.107 353.017 506.562 351.395 505.501 351.171C501.139 350.244 496.895 348.846 492.567 347.774C490.377 347.23 488.199 346.612 485.982 346.191C485.039 346.012 484.118 345.916 483.158 345.888C482.277 345.866 481.469 345.804 480.784 345.175C479.987 344.445 478.791 345.63 479.594 346.365L479.588 346.376Z" fill="black"></path><path d="M504.849 352.17C507.157 353.854 509.453 355.555 511.749 357.261C513.713 358.715 515.644 360.231 517.66 361.612C520.394 363.481 523.245 365.182 525.816 367.282C526.468 367.815 527.113 368.371 527.68 369C528.056 369.415 528.393 369.87 528.472 370.285C528.685 371.346 530.307 370.897 530.094 369.836C529.847 368.601 528.708 367.574 527.809 366.777C526.428 365.547 524.918 364.469 523.397 363.42C521.994 362.454 520.562 361.528 519.142 360.585C517.345 359.389 515.639 358.064 513.91 356.779C511.176 354.752 508.448 352.72 505.697 350.716C504.821 350.076 503.979 351.535 504.849 352.17Z" fill="black"></path><path d="M529.252 371.408C529.252 378.363 529.095 385.324 528.421 392.246C528.146 395.086 527.663 397.932 527.613 400.784C527.596 401.649 527.63 402.519 527.647 403.383C527.792 410.322 528.034 417.26 527.916 424.204C527.888 425.821 527.849 427.443 527.72 429.055C527.669 429.689 527.641 430.003 527.551 430.486C527.517 430.677 527.467 430.862 527.422 431.047C527.338 431.384 527.489 431.008 527.343 431.227C526.743 432.131 528.202 432.978 528.797 432.075C529.224 431.429 529.263 430.464 529.342 429.728C529.482 428.443 529.533 427.14 529.566 425.849C529.673 422.189 529.634 418.529 529.578 414.869C529.527 411.405 529.437 407.942 529.359 404.484C529.336 403.417 529.308 402.345 529.303 401.272C529.291 399.207 529.578 397.141 529.808 395.097C530.695 387.227 530.942 379.317 530.942 371.402C530.942 370.319 529.258 370.319 529.258 371.402L529.252 371.408Z" fill="black"></path><path d="M612.143 324.197C612.25 322.844 612.025 321.519 611.902 320.178L611.284 320.991C613.766 320.548 616.297 320.604 618.807 320.604C620.019 320.604 621.226 320.599 622.433 320.52C623.444 320.458 624.404 320.222 625.403 320.11C625.784 320.065 626.25 320.032 626.576 320.284C626.817 320.475 626.924 320.806 627.076 321.059C627.435 321.671 628.03 322.131 628.608 322.535C629.007 322.816 629.439 322.9 629.911 322.996C631.084 323.231 632.251 323.231 633.43 323.417L632.841 322.827C633.161 323.871 632.661 325.112 633.183 326.122C633.672 327.06 635.03 327.122 635.951 327.172C637.051 327.234 638.14 327.172 639.235 327.324C640.868 327.559 642.502 327.801 644.107 328.199C645.533 328.553 646.78 329.159 648.132 329.698C648.363 329.794 648.396 329.85 648.273 329.726C648.177 329.631 648.2 329.586 648.273 329.788C648.503 330.473 648.683 331.175 648.727 331.899C648.772 332.623 648.739 333.415 648.733 334.178C648.733 335.149 648.834 336.103 648.93 337.063C649.132 339.017 649.356 340.965 649.508 342.924C649.828 347.056 649.94 351.215 650.165 355.353C650.389 359.49 650.614 363.667 650.788 367.826C651.136 376.078 651.248 384.336 650.844 392.588C650.653 396.495 650.367 400.43 650.378 404.343C650.378 405.724 650.389 407.105 650.288 408.48C650.243 409.076 650.187 409.665 650.047 410.243C649.991 410.468 649.94 410.715 649.839 410.922C649.789 411.023 649.626 411.214 649.727 411.136C648.868 411.776 649.71 413.241 650.574 412.59C651.349 412.006 651.613 411.074 651.77 410.153C651.978 408.907 652.028 407.644 652.051 406.381C652.096 403.338 652.18 400.313 652.309 397.27C652.494 393.009 652.724 388.754 652.775 384.493C652.826 380.232 652.758 376.151 652.618 371.98C652.337 363.47 651.781 354.971 651.383 346.466C651.287 344.429 651.158 342.402 650.956 340.375C650.765 338.467 650.44 336.525 650.412 334.605C650.384 332.915 650.479 331.332 649.996 329.687C649.884 329.294 649.783 328.862 649.491 328.553C649.199 328.244 648.829 328.166 648.469 328.014C647.717 327.7 647.004 327.312 646.229 327.043C645.326 326.729 644.388 326.499 643.451 326.308C641.834 325.976 640.139 325.634 638.494 325.522C637.871 325.477 637.236 325.505 636.613 325.488C635.99 325.471 635.361 325.365 634.727 325.28C634.564 325.258 634.671 325.241 634.542 325.191C634.828 325.303 634.609 325.426 634.66 325.247C634.733 325.011 634.609 324.534 634.609 324.275C634.598 323.641 634.648 322.962 634.458 322.35C634.379 322.092 634.154 321.805 633.868 321.761C632.695 321.581 631.516 321.575 630.348 321.34C630.107 321.289 629.832 321.267 629.602 321.171C629.798 321.25 629.551 321.132 629.512 321.098C629.607 321.182 629.316 320.935 629.287 320.913C629.007 320.683 628.72 320.492 628.524 320.178C628.327 319.863 628.198 319.554 627.968 319.279C627.328 318.521 626.346 318.303 625.397 318.392C624.308 318.499 623.264 318.757 622.169 318.819C620.957 318.886 619.744 318.886 618.537 318.886C615.955 318.886 613.378 318.875 610.83 319.335C610.499 319.397 610.178 319.807 610.212 320.149C610.336 321.491 610.56 322.816 610.454 324.169C610.369 325.247 612.053 325.241 612.138 324.169L612.143 324.197Z" fill="black"></path><path d="M610.448 323.922C609.836 323.81 609.252 323.866 608.64 323.922C608.264 323.955 607.933 324.163 607.826 324.539C606.827 328.171 607.254 331.983 607.456 335.688C607.686 339.859 607.361 344.024 607.456 348.195C607.551 352.366 607.804 356.722 607.95 360.989C608.096 365.255 608.203 369.454 608.253 373.687C608.304 377.92 608.281 382.164 608.169 386.396C608.057 390.629 607.798 394.929 607.636 399.195C607.535 401.957 607.316 404.725 607.462 407.492C607.591 409.856 607.81 412.214 607.995 414.571C608.219 417.429 608.427 420.297 608.405 423.16C608.393 424.255 608.371 425.366 608.197 426.45C608.13 426.871 608.034 427.292 607.905 427.696C607.832 427.921 607.854 427.864 607.776 428.016C607.742 428.078 607.709 428.139 607.669 428.207C607.557 428.403 607.686 428.207 607.607 428.302C606.911 429.127 608.102 430.323 608.798 429.492C609.864 428.224 609.96 426.293 610.044 424.715C610.173 422.245 610.038 419.764 609.875 417.299C609.567 412.59 608.972 407.902 609.168 403.176C609.516 394.721 609.96 386.273 609.96 377.813C609.96 369.353 609.651 360.658 609.292 352.086C609.191 349.689 609.101 347.292 609.14 344.894C609.179 342.514 609.269 340.128 609.219 337.748C609.134 333.527 608.304 329.126 609.449 324.977L608.635 325.595C609.073 325.555 609.561 325.454 609.999 325.539C611.06 325.735 611.515 324.113 610.448 323.916V323.922Z" fill="black"></path><path d="M772.823 330.288C773.306 329.255 773.317 328.059 773.244 326.942C773.171 325.763 773.008 324.556 772.649 323.428L772.262 324.377C773.985 323.45 776.029 323.495 777.932 323.456C780.126 323.411 782.192 323.007 784.342 322.597C788.845 321.744 793.347 322.451 797.776 323.383C798.831 323.607 799.286 321.98 798.225 321.761C793.577 320.784 788.873 320.065 784.146 320.93C783.034 321.132 781.934 321.396 780.823 321.57C779.711 321.744 778.605 321.755 777.488 321.783C775.417 321.828 773.289 321.918 771.425 322.923C771.111 323.091 770.931 323.529 771.038 323.871C771.335 324.798 771.487 325.774 771.56 326.746C771.622 327.571 771.74 328.654 771.38 329.434C770.926 330.411 772.38 331.27 772.834 330.282L772.823 330.288Z" fill="black"></path><path d="M770.791 330.4C768.821 331.107 766.575 330.872 764.526 330.872C762.477 330.872 760.108 330.855 758.362 332.034C755.937 333.673 756.358 336.794 756.594 339.331C756.791 341.465 757.099 343.592 757.195 345.731C757.29 347.87 757.15 349.885 757.004 351.956C756.689 356.273 756.701 360.568 756.684 364.896C756.667 369.224 756.633 373.653 756.588 378.032C756.544 382.411 756.499 386.795 756.465 391.179C756.431 395.552 756.482 399.931 756.398 404.304C756.313 408.677 756.139 413.05 755.741 417.378C755.595 418.961 755.421 420.544 755.387 422.133C755.359 423.407 755.325 424.923 755.993 426.057C756.544 426.989 757.997 426.147 757.447 425.209C756.948 424.362 757.049 423.087 757.071 422.133C757.105 420.713 757.245 419.298 757.38 417.883C757.722 414.285 757.857 410.653 758.003 407.043C758.172 402.878 758.104 398.701 758.132 394.536C758.16 390.371 758.2 385.958 758.239 381.67C758.278 377.431 758.323 373.193 758.351 368.949C758.379 364.705 758.25 360.495 758.413 356.285C758.576 352.131 759.126 348.021 758.75 343.862C758.57 341.863 758.284 339.87 758.166 337.866C758.093 336.699 757.902 335.29 758.531 334.229C759.564 332.483 762.342 332.572 764.088 332.556C766.429 332.539 769 332.831 771.246 332.022C772.256 331.657 771.824 330.03 770.797 330.4H770.791Z" fill="black"></path><path d="M797.669 323.445C798.663 324.253 798.601 325.482 798.489 326.65C798.365 327.936 798.085 329.26 798.399 330.54C799.258 334.038 804.091 333.431 806.769 333.241C808.515 333.117 810.771 332.724 812.405 333.555C813.371 334.043 814.224 332.589 813.253 332.101C811.799 331.36 810.098 331.371 808.504 331.45C806.629 331.54 804.742 331.792 802.862 331.669C801.672 331.59 800.257 331.326 799.993 329.973C799.757 328.783 800.111 327.486 800.195 326.291C800.302 324.803 800.072 323.243 798.848 322.249C798.017 321.57 796.816 322.754 797.658 323.439L797.669 323.445Z" fill="black"></path><path d="M811.484 334.212C812.618 334.206 813.82 334.01 814.937 334.245C815.992 334.47 816.503 335.211 816.593 336.261C816.795 338.641 815.992 340.999 815.796 343.356C815.661 344.984 815.762 346.663 815.813 348.296C815.869 350.138 815.959 351.973 816.06 353.815C816.256 357.419 816.492 361.022 816.554 364.626C816.615 368.23 816.621 372.025 816.744 375.719C816.868 379.323 817.031 382.933 817.182 386.537C817.491 393.846 817.732 401.171 817.39 408.486C817.295 410.507 817.126 412.522 816.997 414.538C816.879 416.356 816.874 418.17 816.834 419.994C816.806 421.257 816.711 422.52 816.716 423.783C816.716 424.76 816.666 426.023 817.227 426.876C817.817 427.78 819.276 426.938 818.681 426.029C818.294 425.434 818.395 424.199 818.4 423.435C818.412 422.312 818.49 421.19 818.518 420.067C818.558 418.405 818.552 416.755 818.647 415.093C818.754 413.263 818.911 411.433 819.018 409.598C819.45 402.199 819.209 394.772 818.906 387.373C818.754 383.629 818.575 379.884 818.445 376.14C818.316 372.396 818.305 368.651 818.243 364.907C818.182 361.163 817.946 357.508 817.744 353.815C817.643 351.979 817.553 350.138 817.497 348.296C817.446 346.663 817.34 344.984 817.48 343.356C817.704 340.718 818.805 337.855 818.12 335.211C817.311 332.095 813.983 332.511 811.484 332.528C810.401 332.533 810.401 334.217 811.484 334.212Z" fill="black"></path><path d="M831.716 335.576C830.077 341.386 830.801 347.51 830.874 353.45C830.953 360.186 831.334 366.883 831.733 373.603C832.132 380.322 832.182 387.109 831.929 393.885C831.677 400.689 831.25 407.492 831.166 414.302C831.149 415.784 831.183 417.266 831.071 418.748C830.97 420.073 830.807 421.398 830.666 422.717C830.526 424.036 830.391 425.316 830.352 426.618C830.324 427.612 830.324 428.678 830.638 429.633C830.975 430.66 832.603 430.217 832.261 429.184C832.008 428.415 832.014 427.589 832.03 426.792C832.053 425.63 832.165 424.474 832.283 423.317C832.525 421.005 832.828 418.709 832.833 416.384C832.844 409.715 833.232 403.052 833.512 396.389C833.793 389.725 833.917 382.854 833.557 376.084C833.204 369.465 832.67 362.853 832.581 356.223C832.536 352.799 832.407 349.374 832.362 345.944C832.317 342.514 832.435 339.242 833.35 336.014C833.647 334.97 832.019 334.52 831.727 335.565L831.716 335.576Z" fill="black"></path><path d="M833.103 335.8C833.164 334.605 833.411 333.454 833.653 332.286L832.839 332.904C835.96 332.522 839.07 332.078 842.186 331.674C845.301 331.27 848.523 330.961 851.695 330.574C854.648 330.215 857.618 329.794 860.598 329.9C861.963 329.951 863.327 330.046 864.691 330.007C865.808 329.979 866.992 329.895 868.008 329.401C869.092 328.879 869.951 327.958 870.748 327.082C871.545 326.207 872.387 325.303 873.297 324.489C874.711 323.22 875.789 321.963 876.238 320.076C876.547 318.785 876.715 317.483 877.136 316.22C877.574 314.889 878.186 313.537 879.045 312.419C879.573 311.735 880.201 311.285 881.06 311.134C882.037 310.965 883.064 311.044 884.047 311.005C887.263 310.881 890.457 310.46 893.657 310.168C896.857 309.876 899.917 309.646 902.993 310.163C904.054 310.342 904.509 308.72 903.442 308.54C897.862 307.609 892.147 308.726 886.573 309.169C885.27 309.27 883.968 309.332 882.66 309.354C881.734 309.371 880.763 309.382 879.881 309.708C877.664 310.528 876.485 313.121 875.722 315.176C875.233 316.484 874.997 317.825 874.717 319.184C874.548 320.004 874.335 320.806 873.852 321.502C873.302 322.299 872.505 322.934 871.786 323.574C870.877 324.382 870.097 325.308 869.272 326.195C868.491 327.032 867.66 327.885 866.51 328.132C865.297 328.396 864 328.334 862.771 328.289C861.542 328.244 860.2 328.143 858.914 328.177C857.32 328.222 855.731 328.402 854.148 328.581C847.041 329.395 839.951 330.333 832.85 331.203C832.496 331.248 832.12 331.433 832.036 331.82C831.767 333.134 831.492 334.436 831.424 335.784C831.368 336.867 833.052 336.861 833.108 335.784L833.103 335.8Z" fill="black"></path><path d="M867.599 329.547C868.744 335.071 868.222 340.785 867.902 346.371C867.559 352.406 867.526 358.451 867.907 364.481C868.121 367.866 868.474 371.239 868.946 374.602C869.098 375.669 870.72 375.214 870.568 374.153C869.726 368.118 869.328 362.027 869.311 355.931C869.294 349.835 869.867 344.26 869.956 338.416C870.007 335.295 869.855 332.163 869.215 329.098C868.996 328.037 867.374 328.486 867.593 329.547H867.599Z" fill="black"></path><path d="M871.887 408.913C871.899 411.478 872.308 414.032 872.511 416.592C872.696 418.927 872.954 421.656 872.005 423.867C871.584 424.855 873.033 425.714 873.459 424.715C874.492 422.307 874.414 419.584 874.228 417.019C874.038 414.319 873.588 411.624 873.577 408.913C873.577 407.829 871.887 407.829 871.893 408.913H871.887Z" fill="black"></path><path d="M1208 427.073C1206.33 412.399 1204.65 397.719 1203.31 383.011C1201.97 368.404 1200.94 353.764 1200.56 339.101C1200.47 335.508 1200.61 331.871 1200.29 328.289C1200.02 325.331 1199.18 322.333 1196.92 320.262C1195.93 319.352 1194.7 318.651 1193.37 318.415C1192 318.173 1190.62 318.415 1189.27 318.701C1188.05 318.954 1186.71 319.369 1185.46 319.173C1183.95 318.931 1183.51 317.578 1183.28 316.248C1182.69 312.711 1182.23 309.147 1181.71 305.599C1181.57 304.678 1181.44 303.763 1181.3 302.843C1181.19 302.113 1181.11 301.389 1180.81 300.704C1180.16 299.16 1178.75 298.879 1177.25 298.627C1170.44 297.465 1163.55 296.791 1156.64 296.617C1142.77 296.263 1128.84 297.902 1115.44 301.484C1113.79 301.927 1112.15 302.399 1110.51 302.899C1109.58 303.185 1109.85 304.543 1110.69 304.56C1110.65 304.65 1110.64 304.751 1110.64 304.869C1111.21 321.036 1111.71 337.204 1112.16 353.377C1112.61 369.55 1112.99 385.723 1113.32 401.896C1113.51 410.962 1113.67 420.033 1113.81 429.105C1113.83 430.188 1115.51 430.188 1115.5 429.105C1115.23 412.932 1114.91 396.753 1114.53 380.581C1114.15 364.408 1113.71 348.235 1113.21 332.067C1112.93 323.001 1112.64 313.935 1112.32 304.869C1112.31 304.566 1112.17 304.353 1111.98 304.223C1124.76 300.423 1138.04 298.413 1151.37 298.267C1158.2 298.194 1165.04 298.599 1171.81 299.497C1173.48 299.716 1175.13 299.974 1176.79 300.255C1177.44 300.367 1178.44 300.384 1178.95 300.878C1179.42 301.332 1179.48 302.135 1179.58 302.747C1180.13 306.329 1180.64 309.916 1181.17 313.497C1181.56 316.141 1181.57 320.02 1184.82 320.767C1187.38 321.356 1189.87 319.908 1192.42 320.009C1195.21 320.116 1197.22 322.692 1197.98 325.151C1199 328.402 1198.7 331.989 1198.77 335.351C1199.04 349.784 1199.95 364.2 1201.2 378.582C1202.46 393.02 1204.06 407.425 1205.69 421.824C1205.89 423.576 1206.09 425.333 1206.29 427.084C1206.42 428.151 1208.1 428.162 1207.98 427.084L1208 427.073Z" fill="black"></path><path d="M650.838 407.492C650.81 411.22 650.788 414.947 650.625 418.669C650.473 422.189 650.238 425.737 649.536 429.195C649.323 430.25 650.945 430.705 651.158 429.644C652.629 422.402 652.466 414.846 652.522 407.492C652.534 406.409 650.849 406.409 650.838 407.492Z" fill="black"></path><defs><linearGradient id="paint0_linear_17_30809" x1="573.67" y1="715.895" x2="573.67" y2="-80.3323" gradientUnits="userSpaceOnUse"><stop stop-color="#0095C9"></stop><stop offset="0.26" stop-color="#1180CF"></stop><stop offset="0.61" stop-color="#0947A0"></stop><stop offset="1" stop-color="#000468"></stop></linearGradient></defs></svg> 